M48
; DRILL file {KiCad (6.0.2)} date Thu Mar 10 12:30:23 2022
; FORMAT={-:-/ absolute / inch / decimal}
; #@! TF.CreationDate,2022-03-10T12:30:23-08:00
; #@! TF.GenerationSoftware,Kicad,Pcbnew,(6.0.2)
; #@! TF.FileFunction,Plated,1,2,PTH
FMAT,2
INCH
; #@! TA.AperFunction,Plated,PTH,ViaDrill
T1C0.0157
; #@! TA.AperFunction,Plated,PTH,ComponentDrill
T2C0.0276
; #@! TA.AperFunction,Plated,PTH,ComponentDrill
T3C0.0394
%
G90
G05
T1
X5.0Y-2.8957
X5.0Y-2.9902
X5.2638Y-3.8209
X5.2972Y-2.7205
X5.3268Y-3.7205
X5.3701Y-2.7913
X5.3868Y-2.8701
X5.4173Y-3.0276
X5.4941Y-2.9528
X5.5689Y-4.0197
X5.626Y-2.5276
X5.6417Y-3.9488
X5.6496Y-2.9331
X5.689Y-2.5925
X5.7028Y-3.0787
X5.7441Y-3.0374
X5.7776Y-3.1654
X5.835Y-3.1057
X6.122Y-3.3248
X6.1791Y-3.7224
X6.1949Y-3.3248
X6.2815Y-3.7224
T2
X4.4173Y-3.2138
X4.4173Y-3.2638
X4.4173Y-3.3138
X4.4173Y-3.3638
X4.781Y-3.433
X4.7897Y-3.4822
X4.7913Y-3.1496
X4.7984Y-3.5315
X4.7992Y-3.1002
X4.807Y-3.0508
X4.8071Y-3.5807
X4.8148Y-3.0015
X5.0939Y-3.6417
X5.0945Y-2.937
X5.1246Y-2.8971
X5.1247Y-3.6811
X5.1398Y-3.2138
X5.1398Y-3.2638
X5.1398Y-3.3138
X5.1398Y-3.3638
X5.1547Y-2.8571
X5.1555Y-3.7205
X5.1848Y-2.8172
X5.1863Y-3.7599
X5.3912Y-3.872
X5.3921Y-2.7028
X5.4134Y-3.1457
X5.4144Y-3.4384
X5.4393Y-3.8858
X5.4401Y-2.689
X5.4543Y-3.117
X5.4548Y-3.4678
X5.4874Y-3.8996
X5.4882Y-2.6752
X5.4953Y-3.4972
X5.4953Y-3.0883
X5.5354Y-3.9134
X5.5357Y-3.5266
X5.5363Y-2.6614
X5.5363Y-3.0596
X5.7298Y-4.1083
X5.7345Y-2.4758
X5.748Y-2.8659
X5.752Y-3.7167
X5.7779Y-4.0945
X5.7823Y-2.4904
X5.7914Y-2.8909
X5.7953Y-3.6917
X5.815Y-3.2205
X5.815Y-3.2705
X5.815Y-3.3205
X5.815Y-3.3705
X5.826Y-4.0807
X5.8301Y-2.5051
X5.8347Y-2.9159
X5.8386Y-3.6667
X5.874Y-4.0669
X5.878Y-2.5197
X5.878Y-2.9409
X5.8819Y-3.6417
X6.1221Y-4.3545
X6.1299Y-2.6545
X6.1302Y-3.925
X6.1307Y-2.2296
X6.1634Y-2.6917
X6.1654Y-3.0276
X6.1654Y-4.3295
X6.1655Y-3.8896
X6.1662Y-3.556
X6.1731Y-2.2561
X6.18Y-3.0754
X6.1817Y-3.5085
X6.1946Y-3.1232
X6.1968Y-2.7288
X6.1971Y-3.4609
X6.2009Y-3.8543
X6.2087Y-4.3045
X6.2092Y-3.171
X6.2126Y-3.4134
X6.2155Y-2.2826
X6.2303Y-2.766
X6.2362Y-3.8189
X6.252Y-4.2795
X6.2579Y-2.3091
T3
X4.876Y-3.6854
X4.9626Y-3.7354
X5.0492Y-3.7854
X6.3012Y-2.8701
X6.3012Y-2.9701
X6.3012Y-3.0701
T0
M30
