%TF.GenerationSoftware,KiCad,Pcbnew,(6.0.2)*%
%TF.CreationDate,2022-03-10T12:30:13-08:00*%
%TF.ProjectId,triangle,74726961-6e67-46c6-952e-6b696361645f,rev?*%
%TF.SameCoordinates,Original*%
%TF.FileFunction,Copper,L2,Bot*%
%TF.FilePolarity,Positive*%
%FSLAX46Y46*%
G04 Gerber Fmt 4.6, Leading zero omitted, Abs format (unit mm)*
G04 Created by KiCad (PCBNEW (6.0.2)) date 2022-03-10 12:30:13*
%MOMM*%
%LPD*%
G01*
G04 APERTURE LIST*
G04 Aperture macros list*
%AMHorizOval*
0 Thick line with rounded ends*
0 $1 width*
0 $2 $3 position (X,Y) of the first rounded end (center of the circle)*
0 $4 $5 position (X,Y) of the second rounded end (center of the circle)*
0 Add line between two ends*
20,1,$1,$2,$3,$4,$5,0*
0 Add two circle primitives to create the rounded ends*
1,1,$1,$2,$3*
1,1,$1,$4,$5*%
%AMRotRect*
0 Rectangle, with rotation*
0 The origin of the aperture is its center*
0 $1 length*
0 $2 width*
0 $3 Rotation angle, in degrees counterclockwise*
0 Add horizontal line*
21,1,$1,$2,0,0,$3*%
G04 Aperture macros list end*
%TA.AperFunction,ComponentPad*%
%ADD10R,1.700000X1.700000*%
%TD*%
%TA.AperFunction,ComponentPad*%
%ADD11O,1.700000X1.700000*%
%TD*%
%TA.AperFunction,ComponentPad*%
%ADD12RotRect,1.700000X1.700000X240.000000*%
%TD*%
%TA.AperFunction,ComponentPad*%
%ADD13HorizOval,1.700000X0.000000X0.000000X0.000000X0.000000X0*%
%TD*%
%TA.AperFunction,ComponentPad*%
%ADD14RotRect,1.100000X1.100000X196.000000*%
%TD*%
%TA.AperFunction,ComponentPad*%
%ADD15C,1.100000*%
%TD*%
%TA.AperFunction,ComponentPad*%
%ADD16RotRect,1.100000X1.100000X252.000000*%
%TD*%
%TA.AperFunction,ComponentPad*%
%ADD17RotRect,1.100000X1.100000X328.000000*%
%TD*%
%TA.AperFunction,ComponentPad*%
%ADD18RotRect,1.100000X1.100000X100.000000*%
%TD*%
%TA.AperFunction,ComponentPad*%
%ADD19RotRect,1.100000X1.100000X330.000000*%
%TD*%
%TA.AperFunction,ComponentPad*%
%ADD20RotRect,1.100000X1.100000X128.000000*%
%TD*%
%TA.AperFunction,ComponentPad*%
%ADD21R,1.100000X1.100000*%
%TD*%
%TA.AperFunction,ComponentPad*%
%ADD22RotRect,1.100000X1.100000X53.000000*%
%TD*%
%TA.AperFunction,ComponentPad*%
%ADD23RotRect,1.100000X1.100000X343.000000*%
%TD*%
%TA.AperFunction,ComponentPad*%
%ADD24RotRect,1.100000X1.100000X225.000000*%
%TD*%
%TA.AperFunction,ComponentPad*%
%ADD25RotRect,1.100000X1.100000X81.000000*%
%TD*%
%TA.AperFunction,ComponentPad*%
%ADD26RotRect,1.100000X1.100000X144.000000*%
%TD*%
%TA.AperFunction,ComponentPad*%
%ADD27RotRect,1.100000X1.100000X210.000000*%
%TD*%
%TA.AperFunction,ComponentPad*%
%ADD28RotRect,1.100000X1.100000X164.000000*%
%TD*%
%TA.AperFunction,ComponentPad*%
%ADD29RotRect,1.100000X1.100000X16.000000*%
%TD*%
%TA.AperFunction,ComponentPad*%
%ADD30RotRect,1.100000X1.100000X312.000000*%
%TD*%
%TA.AperFunction,ComponentPad*%
%ADD31RotRect,1.100000X1.100000X287.000000*%
%TD*%
%TA.AperFunction,ComponentPad*%
%ADD32RotRect,1.100000X1.100000X35.000000*%
%TD*%
%TA.AperFunction,ViaPad*%
%ADD33C,0.800000*%
%TD*%
%TA.AperFunction,Conductor*%
%ADD34C,0.250000*%
%TD*%
G04 APERTURE END LIST*
D10*
%TO.P,J1,1,Pin_1*%
%TO.N,+5V*%
X160050000Y-72900000D03*
D11*
%TO.P,J1,2,Pin_2*%
%TO.N,/DIN*%
X160050000Y-75440000D03*
%TO.P,J1,3,Pin_3*%
%TO.N,GND*%
X160050000Y-77980000D03*
%TD*%
D12*
%TO.P,J2,1,Pin_1*%
%TO.N,+5V*%
X128250000Y-96150000D03*
D13*
%TO.P,J2,2,Pin_2*%
%TO.N,/DOUT*%
X126050295Y-94880000D03*
%TO.P,J2,3,Pin_3*%
%TO.N,GND*%
X123850591Y-93610000D03*
%TD*%
D14*
%TO.P,D9,1,DOUT*%
%TO.N,Net-(D9-Pad1)*%
X149200000Y-103300000D03*
D15*
%TO.P,D9,2,VDD*%
%TO.N,+5V*%
X147979197Y-103650059D03*
%TO.P,D9,3,VSS*%
%TO.N,GND*%
X146758395Y-104000119D03*
%TO.P,D9,4,DIN*%
%TO.N,Net-(D9-Pad4)*%
X145537592Y-104350178D03*
%TD*%
D16*
%TO.P,D12,1,DOUT*%
%TO.N,Net-(D12-Pad1)*%
X157800000Y-86700000D03*
D15*
%TO.P,D12,2,VDD*%
%TO.N,+5V*%
X157407549Y-87907842D03*
%TO.P,D12,3,VSS*%
%TO.N,GND*%
X157015097Y-89115684D03*
%TO.P,D12,4,DIN*%
%TO.N,Net-(D12-Pad4)*%
X156622646Y-90323526D03*
%TD*%
D17*
%TO.P,D15,1,DOUT*%
%TO.N,Net-(D15-Pad1)*%
X155718936Y-56631008D03*
D15*
%TO.P,D15,2,VDD*%
%TO.N,+5V*%
X156795957Y-57304005D03*
%TO.P,D15,3,VSS*%
%TO.N,GND*%
X157872979Y-57977003D03*
%TO.P,D15,4,DIN*%
%TO.N,Net-(D15-Pad4)*%
X158950000Y-58650000D03*
%TD*%
D18*
%TO.P,D21,1,DOUT*%
%TO.N,/DOUT*%
X122100000Y-90950000D03*
D15*
%TO.P,D21,2,VDD*%
%TO.N,+5V*%
X121879467Y-89699294D03*
%TO.P,D21,3,VSS*%
%TO.N,GND*%
X121658933Y-88448588D03*
%TO.P,D21,4,DIN*%
%TO.N,Net-(D21-Pad4)*%
X121438400Y-87197882D03*
%TD*%
%TO.P,D5,4,DIN*%
%TO.N,Net-(D5-Pad4)*%
X149300000Y-74700000D03*
%TO.P,D5,3,VSS*%
%TO.N,GND*%
X148200148Y-74065000D03*
%TO.P,D5,2,VDD*%
%TO.N,+5V*%
X147100296Y-73430000D03*
D19*
%TO.P,D5,1,DOUT*%
%TO.N,Net-(D5-Pad1)*%
X146000444Y-72795000D03*
%TD*%
D20*
%TO.P,D7,1,DOUT*%
%TO.N,Net-(D7-Pad1)*%
X131731890Y-95500773D03*
D15*
%TO.P,D7,2,VDD*%
%TO.N,+5V*%
X130950000Y-94500000D03*
%TO.P,D7,3,VSS*%
%TO.N,GND*%
X130168110Y-93499226D03*
%TO.P,D7,4,DIN*%
%TO.N,Net-(D7-Pad4)*%
X129386220Y-92498453D03*
%TD*%
D21*
%TO.P,D20,1,DOUT*%
%TO.N,Net-(D20-Pad1)*%
X112200000Y-85440000D03*
D15*
%TO.P,D20,2,VDD*%
%TO.N,+5V*%
X112200000Y-84170000D03*
%TO.P,D20,3,VSS*%
%TO.N,GND*%
X112200000Y-82900000D03*
%TO.P,D20,4,DIN*%
%TO.N,Net-(D20-Pad4)*%
X112200000Y-81630000D03*
%TD*%
D22*
%TO.P,D18,1,DOUT*%
%TO.N,Net-(D18-Pad1)*%
X129400000Y-74600000D03*
D15*
%TO.P,D18,2,VDD*%
%TO.N,+5V*%
X130164305Y-73585733D03*
%TO.P,D18,3,VSS*%
%TO.N,GND*%
X130928611Y-72571465D03*
%TO.P,D18,4,DIN*%
%TO.N,Net-(D18-Pad4)*%
X131692916Y-71557198D03*
%TD*%
D21*
%TO.P,D1,1,DOUT*%
%TO.N,Net-(D1-Pad1)*%
X147700000Y-81800000D03*
D15*
%TO.P,D1,2,VDD*%
%TO.N,+5V*%
X147700000Y-83070000D03*
%TO.P,D1,3,VSS*%
%TO.N,GND*%
X147700000Y-84340000D03*
%TO.P,D1,4,DIN*%
%TO.N,Net-(D1-Pad4)*%
X147700000Y-85610000D03*
%TD*%
D21*
%TO.P,D6,1,DOUT*%
%TO.N,Net-(D6-Pad1)*%
X130550000Y-85440000D03*
D15*
%TO.P,D6,2,VDD*%
%TO.N,+5V*%
X130550000Y-84170000D03*
%TO.P,D6,3,VSS*%
%TO.N,GND*%
X130550000Y-82900000D03*
%TO.P,D6,4,DIN*%
%TO.N,Net-(D6-Pad4)*%
X130550000Y-81630000D03*
%TD*%
D23*
%TO.P,D16,1,DOUT*%
%TO.N,Net-(D16-Pad1)*%
X145656478Y-62886064D03*
D15*
%TO.P,D16,2,VDD*%
%TO.N,+5V*%
X146870985Y-63257376D03*
%TO.P,D16,3,VSS*%
%TO.N,GND*%
X148085493Y-63628688D03*
%TO.P,D16,4,DIN*%
%TO.N,Net-(D16-Pad4)*%
X149300000Y-64000000D03*
%TD*%
D24*
%TO.P,D11,1,DOUT*%
%TO.N,Net-(D11-Pad1)*%
X158400000Y-97000000D03*
D15*
%TO.P,D11,2,VDD*%
%TO.N,+5V*%
X157501975Y-97898025D03*
%TO.P,D11,3,VSS*%
%TO.N,GND*%
X156603949Y-98796051D03*
%TO.P,D11,4,DIN*%
%TO.N,Net-(D11-Pad4)*%
X155705924Y-99694076D03*
%TD*%
D25*
%TO.P,D19,1,DOUT*%
%TO.N,Net-(D19-Pad1)*%
X121700000Y-80000000D03*
D15*
%TO.P,D19,2,VDD*%
%TO.N,+5V*%
X121898672Y-78745636D03*
%TO.P,D19,3,VSS*%
%TO.N,GND*%
X122097344Y-77491272D03*
%TO.P,D19,4,DIN*%
%TO.N,Net-(D19-Pad4)*%
X122296016Y-76236908D03*
%TD*%
D26*
%TO.P,D3,1,DOUT*%
%TO.N,Net-(D3-Pad1)*%
X140607399Y-89575231D03*
D15*
%TO.P,D3,2,VDD*%
%TO.N,+5V*%
X139579948Y-88828744D03*
%TO.P,D3,3,VSS*%
%TO.N,GND*%
X138552496Y-88082256D03*
%TO.P,D3,4,DIN*%
%TO.N,Net-(D3-Pad4)*%
X137525045Y-87335769D03*
%TD*%
D27*
%TO.P,D10,1,DOUT*%
%TO.N,Net-(D10-Pad1)*%
X158800000Y-108700000D03*
D15*
%TO.P,D10,2,VDD*%
%TO.N,+5V*%
X157700148Y-109335000D03*
%TO.P,D10,3,VSS*%
%TO.N,GND*%
X156600296Y-109970000D03*
%TO.P,D10,4,DIN*%
%TO.N,Net-(D10-Pad4)*%
X155500444Y-110605000D03*
%TD*%
%TO.P,D8,4,DIN*%
%TO.N,Net-(D8-Pad4)*%
X136937592Y-98349822D03*
%TO.P,D8,3,VSS*%
%TO.N,GND*%
X138158395Y-98699881D03*
%TO.P,D8,2,VDD*%
%TO.N,+5V*%
X139379197Y-99049941D03*
D28*
%TO.P,D8,1,DOUT*%
%TO.N,Net-(D8-Pad1)*%
X140600000Y-99400000D03*
%TD*%
D29*
%TO.P,D17,1,DOUT*%
%TO.N,Net-(D17-Pad1)*%
X136958395Y-68650119D03*
D15*
%TO.P,D17,2,VDD*%
%TO.N,+5V*%
X138179198Y-68300060D03*
%TO.P,D17,3,VSS*%
%TO.N,GND*%
X139400000Y-67950000D03*
%TO.P,D17,4,DIN*%
%TO.N,Net-(D17-Pad4)*%
X140620803Y-67599941D03*
%TD*%
D30*
%TO.P,D14,1,DOUT*%
%TO.N,Net-(D14-Pad1)*%
X155700000Y-67425000D03*
D15*
%TO.P,D14,2,VDD*%
%TO.N,+5V*%
X156549796Y-68368794D03*
%TO.P,D14,3,VSS*%
%TO.N,GND*%
X157399592Y-69312588D03*
%TO.P,D14,4,DIN*%
%TO.N,Net-(D14-Pad4)*%
X158249388Y-70256382D03*
%TD*%
D31*
%TO.P,D13,1,DOUT*%
%TO.N,Net-(D13-Pad1)*%
X156600000Y-76900000D03*
D15*
%TO.P,D13,2,VDD*%
%TO.N,+5V*%
X156971312Y-78114507D03*
%TO.P,D13,3,VSS*%
%TO.N,GND*%
X157342624Y-79329015D03*
%TO.P,D13,4,DIN*%
%TO.N,Net-(D13-Pad4)*%
X157713936Y-80543522D03*
%TD*%
D32*
%TO.P,D2,1,DOUT*%
%TO.N,Net-(D2-Pad1)*%
X137500000Y-79900000D03*
D15*
%TO.P,D2,2,VDD*%
%TO.N,+5V*%
X138540323Y-79171558D03*
%TO.P,D2,3,VSS*%
%TO.N,GND*%
X139580647Y-78443116D03*
%TO.P,D2,4,DIN*%
%TO.N,Net-(D2-Pad4)*%
X140620970Y-77714674D03*
%TD*%
D27*
%TO.P,D4,1,DOUT*%
%TO.N,Net-(D4-Pad1)*%
X149400000Y-92500000D03*
D15*
%TO.P,D4,2,VDD*%
%TO.N,+5V*%
X148300148Y-93135000D03*
%TO.P,D4,3,VSS*%
%TO.N,GND*%
X147200296Y-93770000D03*
%TO.P,D4,4,DIN*%
%TO.N,Net-(D4-Pad4)*%
X146100444Y-94405000D03*
%TD*%
D33*
%TO.N,+5V*%
X145900000Y-77150000D03*
X144850000Y-78200000D03*
X143500000Y-74500000D03*
X139550000Y-75000000D03*
%TO.N,Net-(D4-Pad1)*%
X148209637Y-78885039D03*
X146750000Y-80400000D03*
%TO.N,+5V*%
X127000000Y-73550000D03*
X127000000Y-75950000D03*
X142900000Y-64200000D03*
X144500000Y-65850000D03*
X143300000Y-100300000D03*
X141450000Y-102100000D03*
X156950000Y-94550000D03*
X159550000Y-94550000D03*
X133700000Y-97050000D03*
X135300000Y-94500000D03*
X136825500Y-72900000D03*
X137600000Y-76900000D03*
%TO.N,/DIN*%
X157350000Y-84450000D03*
X155500000Y-84450000D03*
%TO.N,+5V*%
X134550000Y-69100000D03*
X136400000Y-70900000D03*
%TD*%
D34*
%TO.N,Net-(D4-Pad1)*%
X146750000Y-80400000D02*
X146750000Y-80344676D01*
X146750000Y-80344676D02*
X148209637Y-78885039D01*
%TO.N,+5V*%
X144850000Y-78200000D02*
X145900000Y-77150000D01*
X137600000Y-73674500D02*
X136825500Y-72900000D01*
%TO.N,GND*%
X139600000Y-69450000D02*
X140550000Y-69450000D01*
X138049511Y-74563807D02*
X138049510Y-73488306D01*
X138049510Y-73488306D02*
X137550000Y-72988796D01*
X139580647Y-76094943D02*
X138049511Y-74563807D01*
X139580647Y-78443116D02*
X139580647Y-76094943D01*
X137550000Y-72988796D02*
X137550000Y-71500000D01*
%TO.N,+5V*%
X137600000Y-76900000D02*
X137600000Y-73674500D01*
%TO.N,GND*%
X137550000Y-71500000D02*
X139600000Y-69450000D01*
%TO.N,+5V*%
X143000000Y-75000000D02*
X143500000Y-74500000D01*
X139550000Y-75000000D02*
X143000000Y-75000000D01*
%TO.N,GND*%
X143500000Y-66900000D02*
X148030198Y-66900000D01*
X148030198Y-66900000D02*
X148085493Y-66844705D01*
X141150000Y-68850000D02*
X141550000Y-68850000D01*
X141550000Y-68850000D02*
X143500000Y-66900000D01*
X140550000Y-69450000D02*
X141150000Y-68850000D01*
X140550000Y-69100000D02*
X139950000Y-68500000D01*
X140550000Y-69450000D02*
X140550000Y-69100000D01*
X129617336Y-94050000D02*
X130168110Y-93499226D01*
X128150000Y-94050000D02*
X129617336Y-94050000D01*
X127600000Y-93500000D02*
X128150000Y-94050000D01*
X126850000Y-93500000D02*
X127600000Y-93500000D01*
X125860591Y-92510591D02*
X126850000Y-93500000D01*
X124950000Y-92510591D02*
X125860591Y-92510591D01*
X147350000Y-61300000D02*
X148085493Y-62035493D01*
X147350000Y-59850000D02*
X147350000Y-61300000D01*
X149350000Y-57850000D02*
X147350000Y-59850000D01*
X150450000Y-57850000D02*
X149350000Y-57850000D01*
X151800000Y-56500000D02*
X150450000Y-57850000D01*
X153300000Y-56500000D02*
X151800000Y-56500000D01*
X155450000Y-54350000D02*
X153300000Y-56500000D01*
X157450000Y-54350000D02*
X155450000Y-54350000D01*
X158800000Y-55700000D02*
X157450000Y-54350000D01*
X148085493Y-62035493D02*
X148085493Y-63628688D01*
X158800000Y-57049982D02*
X158800000Y-55700000D01*
X157872979Y-57977003D02*
X158800000Y-57049982D01*
X138552496Y-90552496D02*
X138552496Y-89297504D01*
X139700000Y-91700000D02*
X138552496Y-90552496D01*
X145130296Y-91700000D02*
X139700000Y-91700000D01*
X145800000Y-92369704D02*
X145130296Y-91700000D01*
X123898588Y-86151412D02*
X127150000Y-82900000D01*
X123898588Y-88448588D02*
X123898588Y-86151412D01*
X136450000Y-95100000D02*
X136450000Y-91400000D01*
X138158395Y-96808395D02*
X136450000Y-95100000D01*
X138158395Y-98699881D02*
X138158395Y-96808395D01*
X136450000Y-91400000D02*
X134800000Y-93050000D01*
X138552496Y-89297504D02*
X136450000Y-91400000D01*
X131500774Y-93499226D02*
X130168110Y-93499226D01*
X134800000Y-93050000D02*
X131950000Y-93050000D01*
X131950000Y-93050000D02*
X131500774Y-93499226D01*
X138552496Y-88082256D02*
X138552496Y-89297504D01*
X146758395Y-101541605D02*
X149500000Y-98800000D01*
X146758395Y-104000119D02*
X146758395Y-101541605D01*
X149500000Y-98800000D02*
X152230296Y-98800000D01*
X159435305Y-106357174D02*
X159435305Y-101627407D01*
X159435305Y-101627407D02*
X156603949Y-98796051D01*
X156600296Y-109192183D02*
X159435305Y-106357174D01*
X156600296Y-109970000D02*
X156600296Y-109192183D01*
X154100000Y-84300000D02*
X154100000Y-82900000D01*
X154100000Y-82900000D02*
X154350000Y-82650000D01*
X155350000Y-87450587D02*
X155350000Y-85550000D01*
X157015097Y-89115684D02*
X155350000Y-87450587D01*
X155350000Y-85550000D02*
X154100000Y-84300000D01*
X150660000Y-84340000D02*
X147700000Y-84340000D01*
X154350000Y-82650000D02*
X152350000Y-82650000D01*
X156321639Y-80678361D02*
X154350000Y-82650000D01*
X152350000Y-82650000D02*
X150660000Y-84340000D01*
X156321639Y-80350000D02*
X156321639Y-80678361D01*
X157342624Y-79329015D02*
X156321639Y-80350000D01*
X139400000Y-67950000D02*
X139950000Y-68500000D01*
X148085493Y-66844705D02*
X148085493Y-63628688D01*
X151752968Y-70512180D02*
X148085493Y-66844705D01*
X151752968Y-70512180D02*
X156200000Y-70512180D01*
X148200148Y-74065000D02*
X151752968Y-70512180D01*
X156200000Y-70512180D02*
X157399592Y-69312588D01*
X156200000Y-71200000D02*
X156200000Y-70512180D01*
X158700000Y-73700000D02*
X156200000Y-71200000D01*
X158700000Y-77971639D02*
X158700000Y-73700000D01*
X158700000Y-77971639D02*
X158708361Y-77980000D01*
X158708361Y-77980000D02*
X160050000Y-77980000D01*
X124950000Y-89500000D02*
X123898588Y-88448588D01*
X124950000Y-92510591D02*
X124950000Y-89500000D01*
X123898588Y-88448588D02*
X121658933Y-88448588D01*
X123850591Y-93610000D02*
X124950000Y-92510591D01*
X114850000Y-78500000D02*
X116650000Y-78500000D01*
X113150000Y-80200000D02*
X114850000Y-78500000D01*
X112200000Y-82900000D02*
X113150000Y-81950000D01*
X116650000Y-78500000D02*
X118650000Y-78500000D01*
X116350000Y-78500000D02*
X116650000Y-78500000D01*
X113150000Y-81950000D02*
X113150000Y-80200000D01*
%TO.N,+5V*%
X127000000Y-75950000D02*
X127000000Y-73550000D01*
%TO.N,GND*%
X124328535Y-72571465D02*
X130928611Y-72571465D01*
X121200000Y-75700000D02*
X124328535Y-72571465D01*
X121200000Y-76593928D02*
X121200000Y-75700000D01*
X122097344Y-77491272D02*
X121200000Y-76593928D01*
%TO.N,+5V*%
X144500000Y-65800000D02*
X142900000Y-64200000D01*
X144500000Y-65850000D02*
X144500000Y-65800000D01*
X143250000Y-100300000D02*
X143300000Y-100300000D01*
X141450000Y-102100000D02*
X143250000Y-100300000D01*
X156950000Y-94550000D02*
X159550000Y-94550000D01*
X133700000Y-96100000D02*
X133700000Y-97050000D01*
X135300000Y-94500000D02*
X133700000Y-96100000D01*
X133700000Y-97200000D02*
X133700000Y-97050000D01*
%TO.N,GND*%
X148990000Y-84340000D02*
X147700000Y-84340000D01*
X150050000Y-85400000D02*
X148990000Y-84340000D01*
X150050000Y-85400000D02*
X150050000Y-86350000D01*
X145800000Y-92369704D02*
X147200296Y-93770000D01*
X145800000Y-90600000D02*
X145800000Y-92369704D01*
X150050000Y-86350000D02*
X145800000Y-90600000D01*
X152553949Y-98796051D02*
X156603949Y-98796051D01*
X152550000Y-98800000D02*
X152553949Y-98796051D01*
X152230296Y-98800000D02*
X152550000Y-98800000D01*
X147200296Y-93770000D02*
X152230296Y-98800000D01*
X122891272Y-77491272D02*
X122097344Y-77491272D01*
X123850000Y-78450000D02*
X122891272Y-77491272D01*
X127150000Y-82900000D02*
X123850000Y-79600000D01*
X123850000Y-79600000D02*
X123850000Y-78450000D01*
X130550000Y-82900000D02*
X127150000Y-82900000D01*
%TO.N,/DIN*%
X155500000Y-84450000D02*
X157350000Y-84450000D01*
%TO.N,GND*%
X157342624Y-79329015D02*
X158700000Y-77971639D01*
%TO.N,+5V*%
X134700000Y-69250000D02*
X134550000Y-69100000D01*
X136400000Y-70900000D02*
X134750000Y-69250000D01*
X134750000Y-69250000D02*
X134700000Y-69250000D01*
%TO.N,GND*%
X118650000Y-78500000D02*
X119658728Y-77491272D01*
X119658728Y-77491272D02*
X122097344Y-77491272D01*
%TD*%
%TA.AperFunction,Conductor*%
%TO.N,GND*%
G36*
X159671005Y-51485458D02*
G01*
X161287000Y-52418426D01*
X161335993Y-52469807D01*
X161350000Y-52527545D01*
X161350000Y-71499856D01*
X161329998Y-71567977D01*
X161276342Y-71614470D01*
X161206068Y-71624574D01*
X161163044Y-71606734D01*
X161161760Y-71609079D01*
X161153892Y-71604771D01*
X161146705Y-71599385D01*
X161010316Y-71548255D01*
X160948134Y-71541500D01*
X159151866Y-71541500D01*
X159089684Y-71548255D01*
X158953295Y-71599385D01*
X158836739Y-71686739D01*
X158749385Y-71803295D01*
X158698255Y-71939684D01*
X158691500Y-72001866D01*
X158691500Y-73798134D01*
X158698255Y-73860316D01*
X158749385Y-73996705D01*
X158836739Y-74113261D01*
X158953295Y-74200615D01*
X158961704Y-74203767D01*
X158961705Y-74203768D01*
X159070451Y-74244535D01*
X159127216Y-74287176D01*
X159151916Y-74353738D01*
X159136709Y-74423087D01*
X159117316Y-74449568D01*
X158997916Y-74574513D01*
X158990629Y-74582138D01*
X158987715Y-74586410D01*
X158987714Y-74586411D01*
X158949068Y-74643064D01*
X158864743Y-74766680D01*
X158844601Y-74810072D01*
X158789154Y-74929524D01*
X158770688Y-74969305D01*
X158710989Y-75184570D01*
X158710440Y-75189707D01*
X158709996Y-75193865D01*
X158687251Y-75406695D01*
X158687548Y-75411848D01*
X158687548Y-75411851D01*
X158696233Y-75562469D01*
X158700110Y-75629715D01*
X158701247Y-75634761D01*
X158701248Y-75634767D01*
X158714439Y-75693296D01*
X158749222Y-75847639D01*
X158833266Y-76054616D01*
X158839001Y-76063975D01*
X158947133Y-76240430D01*
X158949987Y-76245088D01*
X159096250Y-76413938D01*
X159268126Y-76556632D01*
X159287837Y-76568150D01*
X159341955Y-76599774D01*
X159390679Y-76651412D01*
X159403750Y-76721195D01*
X159377019Y-76786967D01*
X159336562Y-76820327D01*
X159328457Y-76824546D01*
X159319738Y-76830036D01*
X159149433Y-76957905D01*
X159141726Y-76964748D01*
X158994590Y-77118717D01*
X158988104Y-77126727D01*
X158868098Y-77302649D01*
X158863000Y-77311623D01*
X158773338Y-77504783D01*
X158769775Y-77514470D01*
X158714389Y-77714183D01*
X158715912Y-77722607D01*
X158728292Y-77726000D01*
X160178000Y-77726000D01*
X160246121Y-77746002D01*
X160292614Y-77799658D01*
X160304000Y-77852000D01*
X160304000Y-79298517D01*
X160308064Y-79312359D01*
X160321478Y-79314393D01*
X160328184Y-79313534D01*
X160338262Y-79311392D01*
X160542255Y-79250191D01*
X160551842Y-79246433D01*
X160743095Y-79152739D01*
X160751945Y-79147464D01*
X160925328Y-79023792D01*
X160933200Y-79017139D01*
X161084052Y-78866812D01*
X161090730Y-78858965D01*
X161121678Y-78815896D01*
X161177672Y-78772248D01*
X161248376Y-78765802D01*
X161311340Y-78798605D01*
X161346574Y-78860242D01*
X161350000Y-78889422D01*
X161350000Y-114745455D01*
X161329998Y-114813576D01*
X161287000Y-114854574D01*
X160199436Y-115482461D01*
X159671005Y-115787542D01*
X159602009Y-115804279D01*
X159545006Y-115787541D01*
X141676346Y-105471009D01*
X139709300Y-104335328D01*
X144474074Y-104335328D01*
X144474590Y-104341472D01*
X144489934Y-104524197D01*
X144491444Y-104542182D01*
X144548661Y-104741723D01*
X144551479Y-104747205D01*
X144551480Y-104747209D01*
X144630056Y-104900101D01*
X144643547Y-104926351D01*
X144772486Y-105089032D01*
X144777173Y-105093021D01*
X144777176Y-105093024D01*
X144809370Y-105120423D01*
X144930568Y-105223570D01*
X145111772Y-105324842D01*
X145309195Y-105388988D01*
X145515317Y-105413567D01*
X145521452Y-105413095D01*
X145521454Y-105413095D01*
X145716147Y-105398114D01*
X145716152Y-105398113D01*
X145722288Y-105397641D01*
X145728218Y-105395985D01*
X145728220Y-105395985D01*
X145855312Y-105360500D01*
X145922224Y-105341818D01*
X146107509Y-105248224D01*
X146271087Y-105120423D01*
X146328387Y-105054040D01*
X146388040Y-105015543D01*
X146462705Y-105016538D01*
X146524247Y-105036534D01*
X146536221Y-105039167D01*
X146730019Y-105062276D01*
X146742268Y-105062533D01*
X146936862Y-105047560D01*
X146948942Y-105045429D01*
X147136909Y-104992947D01*
X147148342Y-104988513D01*
X147291121Y-104916390D01*
X147301405Y-104906745D01*
X147299167Y-104900101D01*
X146616720Y-104217654D01*
X146582215Y-104153036D01*
X146581559Y-104149721D01*
X146580957Y-104143586D01*
X146551824Y-104047090D01*
X146522744Y-103950771D01*
X146522743Y-103950768D01*
X146520960Y-103944863D01*
X146510811Y-103925776D01*
X146426401Y-103767025D01*
X146426400Y-103767023D01*
X146423505Y-103761579D01*
X146357846Y-103681073D01*
X146296202Y-103605489D01*
X146296199Y-103605486D01*
X146292307Y-103600714D01*
X146285362Y-103594968D01*
X146137110Y-103472323D01*
X146137111Y-103472323D01*
X146132362Y-103468395D01*
X146126945Y-103465466D01*
X146126942Y-103465464D01*
X145955182Y-103372594D01*
X145955177Y-103372592D01*
X145949762Y-103369664D01*
X145751463Y-103308280D01*
X145745338Y-103307636D01*
X145745337Y-103307636D01*
X145551146Y-103287226D01*
X145551144Y-103287226D01*
X145545017Y-103286582D01*
X145459107Y-103294401D01*
X145344428Y-103304837D01*
X145344425Y-103304838D01*
X145338289Y-103305396D01*
X145332383Y-103307134D01*
X145332379Y-103307135D01*
X145184524Y-103350651D01*
X145139152Y-103364005D01*
X144955192Y-103460177D01*
X144793415Y-103590249D01*
X144789457Y-103594966D01*
X144789455Y-103594968D01*
X144784634Y-103600714D01*
X144659983Y-103749267D01*
X144657019Y-103754659D01*
X144657016Y-103754663D01*
X144627909Y-103807609D01*
X144559979Y-103931173D01*
X144497213Y-104129039D01*
X144496527Y-104135156D01*
X144496526Y-104135160D01*
X144481233Y-104271504D01*
X144474074Y-104335328D01*
X139709300Y-104335328D01*
X137559557Y-103094166D01*
X146216161Y-103094166D01*
X146218616Y-103101130D01*
X146900090Y-103782604D01*
X146931536Y-103842497D01*
X146933049Y-103842063D01*
X146990266Y-104041604D01*
X146993084Y-104047086D01*
X146993085Y-104047090D01*
X147081241Y-104218622D01*
X147085152Y-104226232D01*
X147214091Y-104388913D01*
X147218778Y-104392902D01*
X147218781Y-104392905D01*
X147366378Y-104518519D01*
X147372173Y-104523451D01*
X147553377Y-104624723D01*
X147750800Y-104688869D01*
X147956922Y-104713448D01*
X147963057Y-104712976D01*
X147963059Y-104712976D01*
X148157752Y-104697995D01*
X148157757Y-104697994D01*
X148163893Y-104697522D01*
X148169823Y-104695866D01*
X148169825Y-104695866D01*
X148263861Y-104669611D01*
X148363829Y-104641699D01*
X148474447Y-104585822D01*
X148543613Y-104550884D01*
X148543615Y-104550883D01*
X148549114Y-104548105D01*
X148605591Y-104503981D01*
X148671584Y-104477803D01*
X148706294Y-104480057D01*
X148709965Y-104481455D01*
X148718910Y-104482167D01*
X148718911Y-104482167D01*
X148786843Y-104487573D01*
X148855164Y-104493010D01*
X148862950Y-104491665D01*
X148862953Y-104491665D01*
X148892443Y-104486571D01*
X148916799Y-104482364D01*
X148990874Y-104461123D01*
X149653728Y-104271053D01*
X149724723Y-104271504D01*
X149784204Y-104310266D01*
X149813287Y-104375032D01*
X149813813Y-104404903D01*
X149785320Y-104685412D01*
X149782565Y-104948500D01*
X149780842Y-105112982D01*
X149781071Y-105115827D01*
X149781071Y-105115830D01*
X149814485Y-105531119D01*
X149815135Y-105539199D01*
X149887915Y-105960554D01*
X149888657Y-105963322D01*
X149980998Y-106307941D01*
X149998585Y-106373578D01*
X150146232Y-106774872D01*
X150329642Y-107161133D01*
X150547306Y-107529181D01*
X150797430Y-107875988D01*
X151077957Y-108198697D01*
X151386577Y-108494653D01*
X151388795Y-108496423D01*
X151388800Y-108496428D01*
X151718535Y-108759652D01*
X151720751Y-108761421D01*
X151723114Y-108762979D01*
X151723118Y-108762982D01*
X151915234Y-108889659D01*
X152077727Y-108996803D01*
X152454567Y-109198863D01*
X152848170Y-109365937D01*
X152850879Y-109366807D01*
X152850885Y-109366809D01*
X153252575Y-109495778D01*
X153252581Y-109495780D01*
X153255295Y-109496651D01*
X153258068Y-109497271D01*
X153258076Y-109497273D01*
X153669808Y-109589305D01*
X153672591Y-109589927D01*
X154096624Y-109645000D01*
X154523903Y-109661414D01*
X154638768Y-109655394D01*
X154707842Y-109671803D01*
X154757079Y-109722952D01*
X154770847Y-109792601D01*
X154741884Y-109862212D01*
X154622835Y-110004089D01*
X154619871Y-110009481D01*
X154619868Y-110009485D01*
X154567224Y-110105245D01*
X154522831Y-110185995D01*
X154460065Y-110383861D01*
X154459379Y-110389978D01*
X154459378Y-110389982D01*
X154446575Y-110504125D01*
X154436926Y-110590150D01*
X154454296Y-110797004D01*
X154511513Y-110996545D01*
X154514331Y-111002027D01*
X154514332Y-111002031D01*
X154561673Y-111094146D01*
X154606399Y-111181173D01*
X154735338Y-111343854D01*
X154740025Y-111347843D01*
X154740028Y-111347846D01*
X154772222Y-111375245D01*
X154893420Y-111478392D01*
X155074624Y-111579664D01*
X155272047Y-111643810D01*
X155478169Y-111668389D01*
X155484304Y-111667917D01*
X155484306Y-111667917D01*
X155678999Y-111652936D01*
X155679004Y-111652935D01*
X155685140Y-111652463D01*
X155691070Y-111650807D01*
X155691072Y-111650807D01*
X155785108Y-111624552D01*
X155885076Y-111596640D01*
X156070361Y-111503046D01*
X156233939Y-111375245D01*
X156369577Y-111218106D01*
X156439997Y-111094145D01*
X156491035Y-111044796D01*
X156564470Y-111031269D01*
X156571919Y-111032157D01*
X156584169Y-111032414D01*
X156778763Y-111017441D01*
X156790843Y-111015310D01*
X156978810Y-110962828D01*
X156990243Y-110958394D01*
X157133022Y-110886271D01*
X157143306Y-110876626D01*
X157141068Y-110869982D01*
X156509653Y-110238567D01*
X156483887Y-110199932D01*
X156483812Y-110199685D01*
X156386357Y-110016401D01*
X156372212Y-109999057D01*
X156344657Y-109933629D01*
X156356851Y-109863687D01*
X156380759Y-109830327D01*
X156511201Y-109699885D01*
X156573513Y-109665859D01*
X156644328Y-109670924D01*
X156689391Y-109699885D01*
X156692154Y-109702648D01*
X156715125Y-109734149D01*
X156806103Y-109911173D01*
X156809934Y-109916007D01*
X156809935Y-109916008D01*
X156847528Y-109963438D01*
X156935042Y-110073854D01*
X156939729Y-110077843D01*
X156939732Y-110077846D01*
X157073708Y-110191868D01*
X157093124Y-110208392D01*
X157274328Y-110309664D01*
X157280191Y-110311569D01*
X157282361Y-110312274D01*
X157283741Y-110313120D01*
X157285834Y-110314034D01*
X157285707Y-110314325D01*
X157332517Y-110343011D01*
X157493631Y-110504125D01*
X157506011Y-110510885D01*
X157512745Y-110505844D01*
X157539041Y-110459554D01*
X157590080Y-110410204D01*
X157663517Y-110396678D01*
X157671752Y-110397660D01*
X157671761Y-110397660D01*
X157677873Y-110398389D01*
X157684008Y-110397917D01*
X157684010Y-110397917D01*
X157878703Y-110382936D01*
X157878708Y-110382935D01*
X157884844Y-110382463D01*
X157890774Y-110380807D01*
X157890776Y-110380807D01*
X157984812Y-110354551D01*
X158084780Y-110326640D01*
X158109736Y-110314034D01*
X158264564Y-110235825D01*
X158264566Y-110235824D01*
X158270065Y-110233046D01*
X158433643Y-110105245D01*
X158437670Y-110100580D01*
X158437676Y-110100574D01*
X158518217Y-110007266D01*
X158577869Y-109968769D01*
X158605931Y-109964381D01*
X158610341Y-109964911D01*
X158619191Y-109963438D01*
X158746231Y-109942293D01*
X158746233Y-109942292D01*
X158754022Y-109940996D01*
X158811251Y-109915755D01*
X159847249Y-109317621D01*
X159897723Y-109280680D01*
X159990274Y-109168206D01*
X160047538Y-109034277D01*
X160064911Y-108889659D01*
X160043567Y-108761421D01*
X160042293Y-108753769D01*
X160042292Y-108753767D01*
X160040996Y-108745978D01*
X160015755Y-108688749D01*
X159417621Y-107652751D01*
X159380680Y-107602277D01*
X159268206Y-107509726D01*
X159259953Y-107506197D01*
X159259951Y-107506196D01*
X159184339Y-107473867D01*
X159134277Y-107452462D01*
X158989659Y-107435089D01*
X158980804Y-107436563D01*
X158980801Y-107436563D01*
X158853769Y-107457707D01*
X158853767Y-107457708D01*
X158845978Y-107459004D01*
X158788749Y-107484245D01*
X158750729Y-107506196D01*
X158708586Y-107530527D01*
X158639591Y-107547265D01*
X158572499Y-107524044D01*
X158528612Y-107468237D01*
X158521863Y-107397562D01*
X158536248Y-107358789D01*
X158681423Y-107105299D01*
X158682845Y-107102816D01*
X158860844Y-106714032D01*
X158861789Y-106711347D01*
X158861794Y-106711336D01*
X159001924Y-106313415D01*
X159002875Y-106310715D01*
X159090779Y-105963322D01*
X159107064Y-105898965D01*
X159107065Y-105898961D01*
X159107767Y-105896186D01*
X159174657Y-105473856D01*
X159189643Y-105248224D01*
X159202879Y-105048953D01*
X159202879Y-105048942D01*
X159202995Y-105047202D01*
X159204029Y-104948500D01*
X159184632Y-104521346D01*
X159182254Y-104503981D01*
X159144869Y-104231067D01*
X159126601Y-104097708D01*
X159030413Y-103681073D01*
X158959525Y-103465464D01*
X158897754Y-103277586D01*
X158897751Y-103277579D01*
X158896861Y-103274871D01*
X158727042Y-102882444D01*
X158595867Y-102641852D01*
X158523727Y-102509536D01*
X158523723Y-102509529D01*
X158522357Y-102507024D01*
X158429969Y-102369016D01*
X158286080Y-102154077D01*
X158286072Y-102154066D01*
X158284488Y-102151700D01*
X158015394Y-101819397D01*
X157949012Y-101751134D01*
X157719280Y-101514896D01*
X157719276Y-101514892D01*
X157717290Y-101512850D01*
X157715132Y-101511000D01*
X157715122Y-101510991D01*
X157476184Y-101306197D01*
X157392630Y-101234582D01*
X157044087Y-100986885D01*
X156786462Y-100836944D01*
X156677001Y-100773236D01*
X156676996Y-100773233D01*
X156674528Y-100771797D01*
X156671942Y-100770591D01*
X156671936Y-100770588D01*
X156466773Y-100674919D01*
X156413488Y-100628002D01*
X156394027Y-100559724D01*
X156414569Y-100491764D01*
X156433134Y-100469476D01*
X156434565Y-100468114D01*
X156439419Y-100464321D01*
X156575057Y-100307182D01*
X156581782Y-100295345D01*
X156662729Y-100152852D01*
X156677591Y-100126690D01*
X156743114Y-99929720D01*
X156743836Y-99924001D01*
X156778368Y-99862124D01*
X156832754Y-99830679D01*
X156982463Y-99788879D01*
X156993896Y-99784445D01*
X157136675Y-99712322D01*
X157146959Y-99702677D01*
X157144721Y-99696033D01*
X156647928Y-99199240D01*
X156625772Y-99169299D01*
X156594733Y-99110923D01*
X156594732Y-99110921D01*
X156591837Y-99105477D01*
X156487586Y-98977652D01*
X156464534Y-98949387D01*
X156464531Y-98949384D01*
X156460639Y-98944612D01*
X156453694Y-98938866D01*
X156305442Y-98816221D01*
X156305443Y-98816221D01*
X156300694Y-98812293D01*
X156295277Y-98809364D01*
X156295274Y-98809362D01*
X156230399Y-98774285D01*
X156201232Y-98752544D01*
X155710251Y-98261563D01*
X155697871Y-98254803D01*
X155691483Y-98259585D01*
X155629765Y-98371849D01*
X155624936Y-98383116D01*
X155564246Y-98574436D01*
X155524583Y-98633321D01*
X155479720Y-98657211D01*
X155307484Y-98707903D01*
X155123524Y-98804075D01*
X154961747Y-98934147D01*
X154957789Y-98938864D01*
X154957787Y-98938866D01*
X154948959Y-98949387D01*
X154828315Y-99093165D01*
X154825351Y-99098557D01*
X154825348Y-99098561D01*
X154757153Y-99222607D01*
X154728311Y-99275071D01*
X154665545Y-99472937D01*
X154664859Y-99479054D01*
X154664858Y-99479058D01*
X154648922Y-99621134D01*
X154642406Y-99679226D01*
X154642922Y-99685370D01*
X154655434Y-99834369D01*
X154659776Y-99886080D01*
X154714541Y-100077069D01*
X154714090Y-100148064D01*
X154675328Y-100207545D01*
X154610562Y-100236628D01*
X154595624Y-100237780D01*
X154413775Y-100240954D01*
X154197917Y-100244721D01*
X154197912Y-100244721D01*
X154195066Y-100244771D01*
X154192233Y-100245079D01*
X154192229Y-100245079D01*
X153849815Y-100282277D01*
X153769973Y-100290951D01*
X153350815Y-100375468D01*
X153348082Y-100376283D01*
X153348077Y-100376284D01*
X153153018Y-100434434D01*
X152941042Y-100497627D01*
X152938381Y-100498691D01*
X152938379Y-100498692D01*
X152731456Y-100581455D01*
X152544027Y-100656421D01*
X152541480Y-100657719D01*
X152165581Y-100849249D01*
X152165576Y-100849252D01*
X152163038Y-100850545D01*
X151801210Y-101078400D01*
X151461523Y-101338110D01*
X151459428Y-101340036D01*
X151459419Y-101340044D01*
X151216897Y-101563056D01*
X151146773Y-101627539D01*
X150859549Y-101944302D01*
X150602216Y-102285794D01*
X150376893Y-102649203D01*
X150354773Y-102693377D01*
X150306387Y-102745330D01*
X150237593Y-102762877D01*
X150170233Y-102740446D01*
X150125694Y-102685158D01*
X150120991Y-102671688D01*
X150115275Y-102651755D01*
X150052627Y-102433275D01*
X150051337Y-102430113D01*
X150031979Y-102382676D01*
X150031977Y-102382672D01*
X150028994Y-102375363D01*
X149960901Y-102283509D01*
X149947600Y-102265566D01*
X149947598Y-102265564D01*
X149942251Y-102258351D01*
X149826154Y-102170388D01*
X149771242Y-102149474D01*
X149698422Y-102121739D01*
X149698420Y-102121739D01*
X149690035Y-102118545D01*
X149681091Y-102117833D01*
X149681090Y-102117833D01*
X149561737Y-102108335D01*
X149544836Y-102106990D01*
X149537050Y-102108335D01*
X149537047Y-102108335D01*
X149507557Y-102113429D01*
X149483201Y-102117636D01*
X148333275Y-102447373D01*
X148330119Y-102448661D01*
X148330113Y-102448663D01*
X148282676Y-102468021D01*
X148282672Y-102468023D01*
X148275363Y-102471006D01*
X148269017Y-102475711D01*
X148269016Y-102475711D01*
X148223388Y-102509536D01*
X148158351Y-102557749D01*
X148156835Y-102559750D01*
X148097213Y-102591903D01*
X148057903Y-102593955D01*
X147986622Y-102586463D01*
X147904300Y-102593955D01*
X147786033Y-102604718D01*
X147786030Y-102604719D01*
X147779894Y-102605277D01*
X147773988Y-102607015D01*
X147773984Y-102607016D01*
X147672298Y-102636944D01*
X147580757Y-102663886D01*
X147396797Y-102760058D01*
X147391997Y-102763918D01*
X147391996Y-102763918D01*
X147368575Y-102782749D01*
X147235020Y-102890130D01*
X147188949Y-102945035D01*
X147129841Y-102984361D01*
X147055170Y-102984408D01*
X146978052Y-102960536D01*
X146966039Y-102958070D01*
X146771945Y-102937670D01*
X146759677Y-102937585D01*
X146565325Y-102955272D01*
X146553276Y-102957570D01*
X146366053Y-103012673D01*
X146354685Y-103017266D01*
X146226310Y-103084379D01*
X146216161Y-103094166D01*
X137559557Y-103094166D01*
X131517491Y-99605758D01*
X137617348Y-99605758D01*
X137622258Y-99612316D01*
X137727399Y-99671079D01*
X137738637Y-99675988D01*
X137924247Y-99736296D01*
X137936221Y-99738929D01*
X138130019Y-99762038D01*
X138142268Y-99762295D01*
X138336862Y-99747322D01*
X138348932Y-99745193D01*
X138457118Y-99714987D01*
X138528109Y-99715934D01*
X138589747Y-99758081D01*
X138610261Y-99783963D01*
X138614091Y-99788795D01*
X138618784Y-99792789D01*
X138618785Y-99792790D01*
X138740191Y-99896114D01*
X138772173Y-99923333D01*
X138953377Y-100024605D01*
X139150800Y-100088751D01*
X139356922Y-100113330D01*
X139363057Y-100112858D01*
X139363059Y-100112858D01*
X139436268Y-100107225D01*
X139460995Y-100105322D01*
X139530450Y-100120039D01*
X139555665Y-100138706D01*
X139558351Y-100142251D01*
X139675363Y-100228994D01*
X139682672Y-100231977D01*
X139682676Y-100231979D01*
X139730113Y-100251337D01*
X139730119Y-100251339D01*
X139733275Y-100252627D01*
X140883201Y-100582364D01*
X140907557Y-100586571D01*
X140937047Y-100591665D01*
X140937050Y-100591665D01*
X140944836Y-100593010D01*
X140999435Y-100588665D01*
X141081090Y-100582167D01*
X141081091Y-100582167D01*
X141090035Y-100581455D01*
X141098420Y-100578261D01*
X141098422Y-100578261D01*
X141217765Y-100532807D01*
X141226154Y-100529612D01*
X141342251Y-100441649D01*
X141428994Y-100324637D01*
X141431977Y-100317328D01*
X141431979Y-100317324D01*
X141451337Y-100269887D01*
X141451339Y-100269881D01*
X141452627Y-100266725D01*
X141782364Y-99116799D01*
X141793010Y-99055164D01*
X141785549Y-98961414D01*
X141782167Y-98918910D01*
X141782167Y-98918909D01*
X141781455Y-98909965D01*
X141773724Y-98889665D01*
X141732807Y-98782235D01*
X141729612Y-98773846D01*
X141641649Y-98657749D01*
X141634436Y-98652402D01*
X141634434Y-98652400D01*
X141530984Y-98575711D01*
X141530983Y-98575711D01*
X141524637Y-98571006D01*
X141517328Y-98568023D01*
X141517324Y-98568021D01*
X141469887Y-98548663D01*
X141469881Y-98548661D01*
X141466725Y-98547373D01*
X140316799Y-98217636D01*
X140292443Y-98213429D01*
X140262953Y-98208335D01*
X140262950Y-98208335D01*
X140255164Y-98206990D01*
X140238263Y-98208335D01*
X140118910Y-98217833D01*
X140118909Y-98217833D01*
X140109965Y-98218545D01*
X140108708Y-98219024D01*
X140041688Y-98214733D01*
X140004525Y-98193439D01*
X139973967Y-98168158D01*
X139968550Y-98165229D01*
X139968547Y-98165227D01*
X139796787Y-98072357D01*
X139796782Y-98072355D01*
X139791367Y-98069427D01*
X139593068Y-98008043D01*
X139586943Y-98007399D01*
X139586942Y-98007399D01*
X139392751Y-97986989D01*
X139392749Y-97986989D01*
X139386622Y-97986345D01*
X139300712Y-97994164D01*
X139186033Y-98004600D01*
X139186030Y-98004601D01*
X139179894Y-98005159D01*
X139173988Y-98006897D01*
X139173984Y-98006898D01*
X139103309Y-98027699D01*
X138980757Y-98063768D01*
X138796797Y-98159940D01*
X138635020Y-98290012D01*
X138631062Y-98294729D01*
X138631060Y-98294731D01*
X138575070Y-98361458D01*
X138501588Y-98449030D01*
X138498624Y-98454422D01*
X138498621Y-98454426D01*
X138447523Y-98547373D01*
X138401584Y-98630936D01*
X138338818Y-98828802D01*
X138338131Y-98834926D01*
X138338130Y-98834931D01*
X138337435Y-98841123D01*
X138309963Y-98906589D01*
X138301316Y-98916170D01*
X137624108Y-99593378D01*
X137617348Y-99605758D01*
X131517491Y-99605758D01*
X129316437Y-98334972D01*
X135874074Y-98334972D01*
X135874590Y-98341116D01*
X135888417Y-98505773D01*
X135891444Y-98541826D01*
X135948661Y-98741367D01*
X135951479Y-98746849D01*
X135951480Y-98746853D01*
X136016151Y-98872689D01*
X136043547Y-98925995D01*
X136047378Y-98930829D01*
X136047379Y-98930830D01*
X136068573Y-98957570D01*
X136172486Y-99088676D01*
X136177173Y-99092665D01*
X136177176Y-99092668D01*
X136325876Y-99219221D01*
X136330568Y-99223214D01*
X136511772Y-99324486D01*
X136709195Y-99388632D01*
X136915317Y-99413211D01*
X136921452Y-99412739D01*
X136921454Y-99412739D01*
X137116147Y-99397758D01*
X137116152Y-99397757D01*
X137122288Y-99397285D01*
X137128218Y-99395629D01*
X137128220Y-99395629D01*
X137233278Y-99366296D01*
X137322224Y-99341462D01*
X137331184Y-99336936D01*
X137502008Y-99250647D01*
X137502010Y-99250646D01*
X137507509Y-99247868D01*
X137645948Y-99139708D01*
X137666226Y-99123865D01*
X137666227Y-99123864D01*
X137671087Y-99120067D01*
X137806725Y-98962928D01*
X137814418Y-98949387D01*
X137877133Y-98838988D01*
X137909259Y-98782436D01*
X137974782Y-98585466D01*
X137978222Y-98558236D01*
X138006604Y-98493159D01*
X138014133Y-98484933D01*
X138693124Y-97805942D01*
X138699884Y-97793562D01*
X138695225Y-97787339D01*
X138575790Y-97722762D01*
X138564483Y-97718009D01*
X138378051Y-97660298D01*
X138366039Y-97657832D01*
X138171945Y-97637432D01*
X138159677Y-97637347D01*
X137965325Y-97655034D01*
X137953276Y-97657332D01*
X137860604Y-97684607D01*
X137789607Y-97684652D01*
X137727386Y-97643369D01*
X137696202Y-97605133D01*
X137696199Y-97605130D01*
X137692307Y-97600358D01*
X137685362Y-97594612D01*
X137537110Y-97471967D01*
X137537111Y-97471967D01*
X137532362Y-97468039D01*
X137526945Y-97465110D01*
X137526942Y-97465108D01*
X137355182Y-97372238D01*
X137355177Y-97372236D01*
X137349762Y-97369308D01*
X137151463Y-97307924D01*
X137145338Y-97307280D01*
X137145337Y-97307280D01*
X136951146Y-97286870D01*
X136951144Y-97286870D01*
X136945017Y-97286226D01*
X136859107Y-97294045D01*
X136744428Y-97304481D01*
X136744425Y-97304482D01*
X136738289Y-97305040D01*
X136732383Y-97306778D01*
X136732379Y-97306779D01*
X136584524Y-97350295D01*
X136539152Y-97363649D01*
X136355192Y-97459821D01*
X136193415Y-97589893D01*
X136189457Y-97594610D01*
X136189455Y-97594612D01*
X136176696Y-97609818D01*
X136059983Y-97748911D01*
X136057019Y-97754303D01*
X136057016Y-97754307D01*
X135978536Y-97897062D01*
X135959979Y-97930817D01*
X135897213Y-98128683D01*
X135896527Y-98134800D01*
X135896526Y-98134804D01*
X135883066Y-98254803D01*
X135874074Y-98334972D01*
X129316437Y-98334972D01*
X128744742Y-98004902D01*
X128695749Y-97953520D01*
X128682313Y-97883807D01*
X128708699Y-97817896D01*
X128758206Y-97779930D01*
X128819756Y-97753613D01*
X128819759Y-97753611D01*
X128828013Y-97750082D01*
X128907529Y-97684652D01*
X128934383Y-97662555D01*
X128934385Y-97662553D01*
X128940488Y-97657531D01*
X128977429Y-97607057D01*
X129875563Y-96051443D01*
X129900804Y-95994214D01*
X129905395Y-95966634D01*
X129923244Y-95859391D01*
X129923244Y-95859387D01*
X129924718Y-95850533D01*
X129917234Y-95788231D01*
X129908416Y-95714828D01*
X129908415Y-95714825D01*
X129907345Y-95705916D01*
X129858812Y-95592404D01*
X129853611Y-95580240D01*
X129853610Y-95580238D01*
X129850082Y-95571987D01*
X129801170Y-95512545D01*
X129762555Y-95465617D01*
X129762553Y-95465615D01*
X129757531Y-95459512D01*
X129707057Y-95422571D01*
X128151443Y-94524437D01*
X128094214Y-94499196D01*
X128086427Y-94497900D01*
X128086424Y-94497899D01*
X127959391Y-94476756D01*
X127959389Y-94476756D01*
X127950533Y-94475282D01*
X127906278Y-94480598D01*
X127814828Y-94491584D01*
X127814825Y-94491585D01*
X127805916Y-94492655D01*
X127783164Y-94502383D01*
X127680240Y-94546389D01*
X127680238Y-94546390D01*
X127671987Y-94549918D01*
X127573956Y-94630584D01*
X127508645Y-94658422D01*
X127438651Y-94646531D01*
X127386197Y-94598686D01*
X127371692Y-94563983D01*
X127366531Y-94543435D01*
X127340726Y-94440702D01*
X127325247Y-94405103D01*
X129627063Y-94405103D01*
X129631973Y-94411661D01*
X129737114Y-94470424D01*
X129748352Y-94475333D01*
X129809892Y-94495329D01*
X129868498Y-94535403D01*
X129896514Y-94604618D01*
X129903127Y-94683365D01*
X129903852Y-94692004D01*
X129961069Y-94891545D01*
X129963887Y-94897027D01*
X129963888Y-94897031D01*
X130050616Y-95065784D01*
X130055955Y-95076173D01*
X130184894Y-95238854D01*
X130189581Y-95242843D01*
X130189584Y-95242846D01*
X130337573Y-95368794D01*
X130342976Y-95373392D01*
X130348352Y-95376397D01*
X130348357Y-95376400D01*
X130391495Y-95400509D01*
X130441201Y-95451203D01*
X130452825Y-95485568D01*
X130452894Y-95489001D01*
X130455586Y-95497565D01*
X130489149Y-95604337D01*
X130496573Y-95627956D01*
X130500736Y-95634670D01*
X130526724Y-95676584D01*
X130529533Y-95681115D01*
X130531637Y-95683808D01*
X131258901Y-96614663D01*
X131266029Y-96623787D01*
X131268403Y-96626228D01*
X131268408Y-96626234D01*
X131289009Y-96647418D01*
X131309635Y-96668628D01*
X131316372Y-96672748D01*
X131316374Y-96672750D01*
X131335961Y-96684729D01*
X131433895Y-96744625D01*
X131574490Y-96782692D01*
X131583463Y-96782512D01*
X131583464Y-96782512D01*
X131667921Y-96780817D01*
X131720118Y-96779769D01*
X131728678Y-96777078D01*
X131728680Y-96777078D01*
X131851538Y-96738459D01*
X131851541Y-96738458D01*
X131859073Y-96736090D01*
X131912232Y-96703130D01*
X132854904Y-95966634D01*
X132855025Y-95966516D01*
X132918943Y-95937072D01*
X132989250Y-95946945D01*
X133043058Y-95993262D01*
X133063222Y-96065688D01*
X133063020Y-96072113D01*
X133061780Y-96079943D01*
X133062526Y-96087835D01*
X133065941Y-96123961D01*
X133066500Y-96135819D01*
X133066500Y-96347476D01*
X133046498Y-96415597D01*
X133034142Y-96431779D01*
X132960960Y-96513056D01*
X132918864Y-96585968D01*
X132895617Y-96626234D01*
X132865473Y-96678444D01*
X132806458Y-96860072D01*
X132805768Y-96866633D01*
X132805768Y-96866635D01*
X132794433Y-96974479D01*
X132786496Y-97050000D01*
X132787186Y-97056565D01*
X132795350Y-97134237D01*
X132806458Y-97239928D01*
X132865473Y-97421556D01*
X132960960Y-97586944D01*
X132965378Y-97591851D01*
X132965379Y-97591852D01*
X133078971Y-97718009D01*
X133088747Y-97728866D01*
X133153020Y-97775563D01*
X133204820Y-97813198D01*
X133243248Y-97841118D01*
X133249276Y-97843802D01*
X133249278Y-97843803D01*
X133411681Y-97916109D01*
X133417712Y-97918794D01*
X133501906Y-97936690D01*
X133598056Y-97957128D01*
X133598061Y-97957128D01*
X133604513Y-97958500D01*
X133795487Y-97958500D01*
X133801939Y-97957128D01*
X133801944Y-97957128D01*
X133898094Y-97936690D01*
X133982288Y-97918794D01*
X133988319Y-97916109D01*
X134150722Y-97843803D01*
X134150724Y-97843802D01*
X134156752Y-97841118D01*
X134195181Y-97813198D01*
X134246980Y-97775563D01*
X134311253Y-97728866D01*
X134321029Y-97718009D01*
X134434621Y-97591852D01*
X134434622Y-97591851D01*
X134439040Y-97586944D01*
X134534527Y-97421556D01*
X134593542Y-97239928D01*
X134604651Y-97134237D01*
X134612814Y-97056565D01*
X134613504Y-97050000D01*
X134605567Y-96974479D01*
X134594232Y-96866635D01*
X134594232Y-96866633D01*
X134593542Y-96860072D01*
X134534527Y-96678444D01*
X134504384Y-96626234D01*
X134481136Y-96585968D01*
X134439040Y-96513056D01*
X134397662Y-96467101D01*
X134366947Y-96403098D01*
X134375710Y-96332644D01*
X134402205Y-96293699D01*
X135250499Y-95445405D01*
X135312811Y-95411379D01*
X135339594Y-95408500D01*
X135395487Y-95408500D01*
X135401939Y-95407128D01*
X135401944Y-95407128D01*
X135519754Y-95382086D01*
X135582288Y-95368794D01*
X135690914Y-95320431D01*
X135750722Y-95293803D01*
X135750724Y-95293802D01*
X135756752Y-95291118D01*
X135768482Y-95282596D01*
X135842434Y-95228866D01*
X135911253Y-95178866D01*
X135994020Y-95086944D01*
X136034621Y-95041852D01*
X136034622Y-95041851D01*
X136039040Y-95036944D01*
X136134527Y-94871556D01*
X136178664Y-94735718D01*
X137613713Y-94735718D01*
X137614128Y-94739668D01*
X137642815Y-95012748D01*
X137643394Y-95018262D01*
X137656973Y-95076173D01*
X137706464Y-95287237D01*
X137708251Y-95294859D01*
X137709628Y-95298563D01*
X137709630Y-95298569D01*
X137801046Y-95544431D01*
X137807261Y-95561147D01*
X137938863Y-95812927D01*
X137941115Y-95816168D01*
X137941120Y-95816176D01*
X138098719Y-96042973D01*
X138100981Y-96046228D01*
X138291060Y-96257373D01*
X138506102Y-96443032D01*
X138575160Y-96488925D01*
X138715732Y-96582344D01*
X138726226Y-96590131D01*
X138731554Y-96594532D01*
X138742336Y-96600935D01*
X138746857Y-96602748D01*
X138746856Y-96602748D01*
X138768238Y-96611325D01*
X138784329Y-96619148D01*
X143199121Y-99168105D01*
X143248113Y-99219487D01*
X143261548Y-99289201D01*
X143235161Y-99355111D01*
X143177328Y-99396293D01*
X143162316Y-99400469D01*
X143109621Y-99411670D01*
X143017712Y-99431206D01*
X143011682Y-99433891D01*
X143011681Y-99433891D01*
X142849278Y-99506197D01*
X142849276Y-99506198D01*
X142843248Y-99508882D01*
X142688747Y-99621134D01*
X142684326Y-99626044D01*
X142684325Y-99626045D01*
X142565440Y-99758081D01*
X142560960Y-99763056D01*
X142465473Y-99928444D01*
X142406458Y-100110072D01*
X142405768Y-100116635D01*
X142405768Y-100116636D01*
X142394965Y-100219421D01*
X142367952Y-100285077D01*
X142358750Y-100295345D01*
X141499500Y-101154595D01*
X141437188Y-101188621D01*
X141410405Y-101191500D01*
X141354513Y-101191500D01*
X141348061Y-101192872D01*
X141348056Y-101192872D01*
X141261112Y-101211353D01*
X141167712Y-101231206D01*
X141161682Y-101233891D01*
X141161681Y-101233891D01*
X140999278Y-101306197D01*
X140999276Y-101306198D01*
X140993248Y-101308882D01*
X140838747Y-101421134D01*
X140834326Y-101426044D01*
X140834325Y-101426045D01*
X140756166Y-101512850D01*
X140710960Y-101563056D01*
X140615473Y-101728444D01*
X140556458Y-101910072D01*
X140555768Y-101916633D01*
X140555768Y-101916635D01*
X140552860Y-101944302D01*
X140536496Y-102100000D01*
X140556458Y-102289928D01*
X140615473Y-102471556D01*
X140618776Y-102477278D01*
X140618777Y-102477279D01*
X140637401Y-102509536D01*
X140710960Y-102636944D01*
X140715378Y-102641851D01*
X140715379Y-102641852D01*
X140808551Y-102745330D01*
X140838747Y-102778866D01*
X140937843Y-102850864D01*
X140977855Y-102879934D01*
X140993248Y-102891118D01*
X140999276Y-102893802D01*
X140999278Y-102893803D01*
X141137341Y-102955272D01*
X141167712Y-102968794D01*
X141240949Y-102984361D01*
X141348056Y-103007128D01*
X141348061Y-103007128D01*
X141354513Y-103008500D01*
X141545487Y-103008500D01*
X141551939Y-103007128D01*
X141551944Y-103007128D01*
X141659051Y-102984361D01*
X141732288Y-102968794D01*
X141762659Y-102955272D01*
X141900722Y-102893803D01*
X141900724Y-102893802D01*
X141906752Y-102891118D01*
X141922146Y-102879934D01*
X141962157Y-102850864D01*
X142061253Y-102778866D01*
X142091449Y-102745330D01*
X142184621Y-102641852D01*
X142184622Y-102641851D01*
X142189040Y-102636944D01*
X142262599Y-102509536D01*
X142281223Y-102477279D01*
X142281224Y-102477278D01*
X142284527Y-102471556D01*
X142343542Y-102289928D01*
X142360907Y-102124706D01*
X142387920Y-102059050D01*
X142397122Y-102048782D01*
X143200499Y-101245405D01*
X143262811Y-101211379D01*
X143289594Y-101208500D01*
X143395487Y-101208500D01*
X143401939Y-101207128D01*
X143401944Y-101207128D01*
X143489010Y-101188621D01*
X143582288Y-101168794D01*
X143614180Y-101154595D01*
X143750722Y-101093803D01*
X143750724Y-101093802D01*
X143756752Y-101091118D01*
X143911253Y-100978866D01*
X144039040Y-100836944D01*
X144134527Y-100671556D01*
X144193542Y-100489928D01*
X144196234Y-100464321D01*
X144212814Y-100306565D01*
X144213504Y-100300000D01*
X144207694Y-100244721D01*
X144194232Y-100116635D01*
X144194232Y-100116633D01*
X144193542Y-100110072D01*
X144148176Y-99970451D01*
X144146148Y-99899484D01*
X144182811Y-99838686D01*
X144246523Y-99807360D01*
X144317057Y-99815453D01*
X144348247Y-99834367D01*
X144360554Y-99844532D01*
X144371336Y-99850935D01*
X144375848Y-99852745D01*
X144376140Y-99852889D01*
X144384699Y-99856722D01*
X144626206Y-99976642D01*
X144629949Y-99977946D01*
X144629954Y-99977948D01*
X144890790Y-100068812D01*
X144894528Y-100070114D01*
X145111782Y-100116314D01*
X145168570Y-100128391D01*
X145168572Y-100128391D01*
X145172450Y-100129216D01*
X145455588Y-100153017D01*
X145459536Y-100152852D01*
X145459542Y-100152852D01*
X145735516Y-100141307D01*
X145735521Y-100141307D01*
X145739477Y-100141141D01*
X146019638Y-100093776D01*
X146291652Y-100011669D01*
X146551230Y-99896114D01*
X146736433Y-99783963D01*
X146790882Y-99750991D01*
X146790883Y-99750990D01*
X146794277Y-99748935D01*
X146797382Y-99746474D01*
X146797388Y-99746470D01*
X147013858Y-99574911D01*
X147013863Y-99574906D01*
X147016960Y-99572452D01*
X147152657Y-99433891D01*
X147212994Y-99372281D01*
X147212998Y-99372277D01*
X147215766Y-99369450D01*
X147310938Y-99244072D01*
X147385170Y-99146280D01*
X147385172Y-99146276D01*
X147387560Y-99143131D01*
X147529631Y-98897063D01*
X147630457Y-98657212D01*
X147638205Y-98638780D01*
X147638206Y-98638777D01*
X147639740Y-98635128D01*
X147675856Y-98505773D01*
X147715084Y-98365270D01*
X147715085Y-98365265D01*
X147716148Y-98361458D01*
X147757653Y-98080369D01*
X147761634Y-97890098D01*
X156061715Y-97890098D01*
X156064170Y-97897062D01*
X156558689Y-98391581D01*
X156581657Y-98423077D01*
X156607930Y-98474198D01*
X156736869Y-98636879D01*
X156741556Y-98640868D01*
X156741559Y-98640871D01*
X156826971Y-98713562D01*
X156894951Y-98771417D01*
X156978475Y-98818097D01*
X157006096Y-98838988D01*
X157497284Y-99330176D01*
X157509664Y-99336936D01*
X157516398Y-99331895D01*
X157572110Y-99233823D01*
X157577104Y-99222607D01*
X157638705Y-99037426D01*
X157641120Y-99026800D01*
X157675720Y-98964805D01*
X157730103Y-98933363D01*
X157880665Y-98891325D01*
X157880674Y-98891322D01*
X157886607Y-98889665D01*
X157920214Y-98872689D01*
X158066391Y-98798850D01*
X158066393Y-98798849D01*
X158071892Y-98796071D01*
X158235470Y-98668270D01*
X158371108Y-98511131D01*
X158395202Y-98468719D01*
X158473642Y-98330639D01*
X158475118Y-98331477D01*
X158515838Y-98283576D01*
X158542897Y-98271082D01*
X158544186Y-98270897D01*
X158552355Y-98267183D01*
X158552358Y-98267182D01*
X158659257Y-98218578D01*
X158676782Y-98210610D01*
X158682935Y-98205663D01*
X158682938Y-98205661D01*
X158722866Y-98173557D01*
X158725528Y-98171417D01*
X159571417Y-97325528D01*
X159602499Y-97286870D01*
X159605661Y-97282938D01*
X159605663Y-97282935D01*
X159610610Y-97276782D01*
X159670897Y-97144186D01*
X159684386Y-97050000D01*
X159690273Y-97008889D01*
X159691546Y-97000000D01*
X159679184Y-96913679D01*
X159672170Y-96864700D01*
X159672169Y-96864697D01*
X159670897Y-96855814D01*
X159610610Y-96723218D01*
X159605663Y-96717065D01*
X159605661Y-96717062D01*
X159579664Y-96684729D01*
X159571417Y-96674472D01*
X158725528Y-95828583D01*
X158688446Y-95798768D01*
X158682938Y-95794339D01*
X158682935Y-95794337D01*
X158676782Y-95789390D01*
X158544186Y-95729103D01*
X158535303Y-95727831D01*
X158535300Y-95727830D01*
X158408889Y-95709727D01*
X158400000Y-95708454D01*
X158391111Y-95709727D01*
X158264700Y-95727830D01*
X158264697Y-95727831D01*
X158255814Y-95729103D01*
X158123218Y-95789390D01*
X158117065Y-95794337D01*
X158117062Y-95794339D01*
X158111554Y-95798768D01*
X158074472Y-95828583D01*
X157228583Y-96674472D01*
X157220336Y-96684729D01*
X157194339Y-96717062D01*
X157194337Y-96717065D01*
X157189390Y-96723218D01*
X157129103Y-96855814D01*
X157128913Y-96857142D01*
X157092667Y-96913679D01*
X157068425Y-96930207D01*
X156919575Y-97008024D01*
X156757798Y-97138096D01*
X156753840Y-97142813D01*
X156753838Y-97142815D01*
X156674733Y-97237089D01*
X156624366Y-97297114D01*
X156621402Y-97302506D01*
X156621399Y-97302510D01*
X156584677Y-97369308D01*
X156524362Y-97479020D01*
X156461596Y-97676886D01*
X156458911Y-97676034D01*
X156430787Y-97727891D01*
X156377013Y-97759923D01*
X156211607Y-97808605D01*
X156200239Y-97813198D01*
X156071864Y-97880311D01*
X156061715Y-97890098D01*
X147761634Y-97890098D01*
X147763597Y-97796295D01*
X147762656Y-97787339D01*
X147734303Y-97517664D01*
X147733888Y-97513716D01*
X147668995Y-97237089D01*
X147569941Y-96970777D01*
X147438288Y-96718981D01*
X147276112Y-96485673D01*
X147237713Y-96443032D01*
X147088626Y-96277478D01*
X147085973Y-96274532D01*
X146870868Y-96088888D01*
X146867575Y-96086701D01*
X146867569Y-96086696D01*
X146661181Y-95949598D01*
X146650685Y-95941813D01*
X146649108Y-95940511D01*
X146649104Y-95940509D01*
X146645354Y-95937412D01*
X146634571Y-95931011D01*
X146630052Y-95929199D01*
X146630045Y-95929196D01*
X146608727Y-95920650D01*
X146592610Y-95912816D01*
X146205382Y-95689243D01*
X146156389Y-95637860D01*
X146142954Y-95568146D01*
X146169341Y-95502236D01*
X146227174Y-95461054D01*
X146258716Y-95454496D01*
X146264763Y-95454031D01*
X146278999Y-95452936D01*
X146279004Y-95452935D01*
X146285140Y-95452463D01*
X146291070Y-95450807D01*
X146291072Y-95450807D01*
X146405729Y-95418794D01*
X146485076Y-95396640D01*
X146490576Y-95393862D01*
X146664860Y-95305825D01*
X146664862Y-95305824D01*
X146670361Y-95303046D01*
X146799484Y-95202164D01*
X146829078Y-95179043D01*
X146829079Y-95179042D01*
X146833939Y-95175245D01*
X146969577Y-95018106D01*
X146998002Y-94968070D01*
X147024425Y-94921556D01*
X147039997Y-94894145D01*
X147091035Y-94844796D01*
X147164470Y-94831269D01*
X147171919Y-94832157D01*
X147184169Y-94832414D01*
X147378763Y-94817441D01*
X147390843Y-94815310D01*
X147578810Y-94762828D01*
X147590243Y-94758394D01*
X147733022Y-94686271D01*
X147743306Y-94676626D01*
X147741068Y-94669982D01*
X147109653Y-94038567D01*
X147083887Y-93999932D01*
X147083812Y-93999685D01*
X147030324Y-93899089D01*
X146989253Y-93821847D01*
X146989252Y-93821845D01*
X146986357Y-93816401D01*
X146920957Y-93736212D01*
X146859054Y-93660311D01*
X146859051Y-93660308D01*
X146855159Y-93655536D01*
X146848214Y-93649790D01*
X146699962Y-93527145D01*
X146699963Y-93527145D01*
X146695214Y-93523217D01*
X146689797Y-93520288D01*
X146689794Y-93520286D01*
X146518032Y-93427415D01*
X146518028Y-93427413D01*
X146512614Y-93424486D01*
X146507004Y-93422749D01*
X146466857Y-93395771D01*
X146306598Y-93235512D01*
X146294218Y-93228752D01*
X146287830Y-93233534D01*
X146262267Y-93280033D01*
X146211921Y-93330091D01*
X146138683Y-93344642D01*
X146114000Y-93342048D01*
X146113996Y-93342048D01*
X146107869Y-93341404D01*
X146021959Y-93349223D01*
X145907280Y-93359659D01*
X145907277Y-93359660D01*
X145901141Y-93360218D01*
X145895235Y-93361956D01*
X145895231Y-93361957D01*
X145791102Y-93392604D01*
X145702004Y-93418827D01*
X145518044Y-93514999D01*
X145513244Y-93518859D01*
X145513243Y-93518859D01*
X145507823Y-93523217D01*
X145356267Y-93645071D01*
X145352309Y-93649788D01*
X145352307Y-93649790D01*
X145275776Y-93740996D01*
X145222835Y-93804089D01*
X145219871Y-93809481D01*
X145219868Y-93809485D01*
X145159078Y-93920062D01*
X145122831Y-93985995D01*
X145060065Y-94183861D01*
X145059379Y-94189978D01*
X145059378Y-94189982D01*
X145042710Y-94338581D01*
X145036926Y-94390150D01*
X145038732Y-94411661D01*
X145053534Y-94587927D01*
X145054296Y-94597004D01*
X145111513Y-94796545D01*
X145113255Y-94799936D01*
X145119663Y-94869823D01*
X145086893Y-94932804D01*
X145025274Y-94968070D01*
X144954371Y-94964425D01*
X144933030Y-94954629D01*
X141312142Y-92864047D01*
X146658062Y-92864047D01*
X146660517Y-92871011D01*
X147292154Y-93502648D01*
X147315125Y-93534149D01*
X147347386Y-93596923D01*
X147365006Y-93631206D01*
X147406103Y-93711173D01*
X147409934Y-93716007D01*
X147409935Y-93716008D01*
X147443917Y-93758882D01*
X147535042Y-93873854D01*
X147539729Y-93877843D01*
X147539732Y-93877846D01*
X147673708Y-93991868D01*
X147693124Y-94008392D01*
X147874328Y-94109664D01*
X147880191Y-94111569D01*
X147882361Y-94112274D01*
X147883741Y-94113120D01*
X147885834Y-94114034D01*
X147885707Y-94114325D01*
X147932517Y-94143011D01*
X148093631Y-94304125D01*
X148106011Y-94310885D01*
X148112745Y-94305844D01*
X148139041Y-94259554D01*
X148190080Y-94210204D01*
X148263517Y-94196678D01*
X148271752Y-94197660D01*
X148271761Y-94197660D01*
X148277873Y-94198389D01*
X148284008Y-94197917D01*
X148284010Y-94197917D01*
X148478703Y-94182936D01*
X148478708Y-94182935D01*
X148484844Y-94182463D01*
X148490774Y-94180807D01*
X148490776Y-94180807D01*
X148584812Y-94154551D01*
X148684780Y-94126640D01*
X148690280Y-94123862D01*
X148864564Y-94035825D01*
X148864566Y-94035824D01*
X148870065Y-94033046D01*
X149019749Y-93916100D01*
X149028782Y-93909043D01*
X149028783Y-93909042D01*
X149033643Y-93905245D01*
X149037670Y-93900580D01*
X149037676Y-93900574D01*
X149118217Y-93807266D01*
X149177869Y-93768769D01*
X149205931Y-93764381D01*
X149210341Y-93764911D01*
X149223246Y-93762763D01*
X149346231Y-93742293D01*
X149346233Y-93742292D01*
X149354022Y-93740996D01*
X149411251Y-93715755D01*
X150425001Y-93130466D01*
X150493995Y-93113728D01*
X150561087Y-93136948D01*
X150604974Y-93192755D01*
X150614000Y-93239585D01*
X150614000Y-93587172D01*
X150612500Y-93606556D01*
X150608814Y-93630230D01*
X150609634Y-93636500D01*
X150609536Y-93636500D01*
X150627376Y-93920062D01*
X150680615Y-94199152D01*
X150768414Y-94469369D01*
X150889388Y-94726450D01*
X151041628Y-94966343D01*
X151222735Y-95185263D01*
X151225625Y-95187977D01*
X151225626Y-95187978D01*
X151258487Y-95218836D01*
X151429851Y-95379758D01*
X151433054Y-95382085D01*
X151433055Y-95382086D01*
X151486424Y-95420861D01*
X151659711Y-95546762D01*
X151663180Y-95548669D01*
X151663183Y-95548671D01*
X151905228Y-95681736D01*
X151908690Y-95683639D01*
X151971366Y-95708454D01*
X152169177Y-95786773D01*
X152169180Y-95786774D01*
X152172860Y-95788231D01*
X152176694Y-95789215D01*
X152176702Y-95789218D01*
X152300443Y-95820989D01*
X152448057Y-95858890D01*
X152451985Y-95859386D01*
X152451989Y-95859387D01*
X152563222Y-95873439D01*
X152729939Y-95894500D01*
X153014061Y-95894500D01*
X153180778Y-95873439D01*
X153292011Y-95859387D01*
X153292015Y-95859386D01*
X153295943Y-95858890D01*
X153443557Y-95820989D01*
X153567298Y-95789218D01*
X153567306Y-95789215D01*
X153571140Y-95788231D01*
X153574820Y-95786774D01*
X153574823Y-95786773D01*
X153772634Y-95708454D01*
X153835310Y-95683639D01*
X153838772Y-95681736D01*
X154080817Y-95548671D01*
X154080820Y-95548669D01*
X154084289Y-95546762D01*
X154257576Y-95420861D01*
X154310945Y-95382086D01*
X154310946Y-95382085D01*
X154314149Y-95379758D01*
X154485513Y-95218836D01*
X154518374Y-95187978D01*
X154518375Y-95187977D01*
X154521265Y-95185263D01*
X154702372Y-94966343D01*
X154854612Y-94726450D01*
X154937644Y-94550000D01*
X156036496Y-94550000D01*
X156037186Y-94556565D01*
X156055393Y-94729791D01*
X156056458Y-94739928D01*
X156115473Y-94921556D01*
X156210960Y-95086944D01*
X156338747Y-95228866D01*
X156419641Y-95287639D01*
X156468775Y-95323337D01*
X156493248Y-95341118D01*
X156499276Y-95343802D01*
X156499278Y-95343803D01*
X156661681Y-95416109D01*
X156667712Y-95418794D01*
X156761112Y-95438647D01*
X156848056Y-95457128D01*
X156848061Y-95457128D01*
X156854513Y-95458500D01*
X157045487Y-95458500D01*
X157051939Y-95457128D01*
X157051944Y-95457128D01*
X157138888Y-95438647D01*
X157232288Y-95418794D01*
X157238319Y-95416109D01*
X157400722Y-95343803D01*
X157400724Y-95343802D01*
X157406752Y-95341118D01*
X157431226Y-95323337D01*
X157554154Y-95234024D01*
X157561253Y-95228866D01*
X157565668Y-95223963D01*
X157570580Y-95219540D01*
X157571705Y-95220789D01*
X157625014Y-95187949D01*
X157658200Y-95183500D01*
X158841800Y-95183500D01*
X158909921Y-95203502D01*
X158929147Y-95219843D01*
X158929420Y-95219540D01*
X158934332Y-95223963D01*
X158938747Y-95228866D01*
X158945846Y-95234024D01*
X159068775Y-95323337D01*
X159093248Y-95341118D01*
X159099276Y-95343802D01*
X159099278Y-95343803D01*
X159261681Y-95416109D01*
X159267712Y-95418794D01*
X159361112Y-95438647D01*
X159448056Y-95457128D01*
X159448061Y-95457128D01*
X159454513Y-95458500D01*
X159645487Y-95458500D01*
X159651939Y-95457128D01*
X159651944Y-95457128D01*
X159738888Y-95438647D01*
X159832288Y-95418794D01*
X159838319Y-95416109D01*
X160000722Y-95343803D01*
X160000724Y-95343802D01*
X160006752Y-95341118D01*
X160031226Y-95323337D01*
X160080359Y-95287639D01*
X160161253Y-95228866D01*
X160289040Y-95086944D01*
X160384527Y-94921556D01*
X160443542Y-94739928D01*
X160444608Y-94729791D01*
X160462814Y-94556565D01*
X160463504Y-94550000D01*
X160455806Y-94476756D01*
X160444232Y-94366635D01*
X160444232Y-94366633D01*
X160443542Y-94360072D01*
X160384527Y-94178444D01*
X160289040Y-94013056D01*
X160249169Y-93968774D01*
X160165675Y-93876045D01*
X160165674Y-93876044D01*
X160161253Y-93871134D01*
X160006752Y-93758882D01*
X160000724Y-93756198D01*
X160000722Y-93756197D01*
X159838319Y-93683891D01*
X159838318Y-93683891D01*
X159832288Y-93681206D01*
X159716075Y-93656504D01*
X159651944Y-93642872D01*
X159651939Y-93642872D01*
X159645487Y-93641500D01*
X159454513Y-93641500D01*
X159448061Y-93642872D01*
X159448056Y-93642872D01*
X159383925Y-93656504D01*
X159267712Y-93681206D01*
X159261682Y-93683891D01*
X159261681Y-93683891D01*
X159099278Y-93756197D01*
X159099276Y-93756198D01*
X159093248Y-93758882D01*
X158938747Y-93871134D01*
X158934332Y-93876037D01*
X158929420Y-93880460D01*
X158928295Y-93879211D01*
X158874986Y-93912051D01*
X158841800Y-93916500D01*
X157658200Y-93916500D01*
X157590079Y-93896498D01*
X157570853Y-93880157D01*
X157570580Y-93880460D01*
X157565668Y-93876037D01*
X157561253Y-93871134D01*
X157406752Y-93758882D01*
X157400724Y-93756198D01*
X157400722Y-93756197D01*
X157238319Y-93683891D01*
X157238318Y-93683891D01*
X157232288Y-93681206D01*
X157116075Y-93656504D01*
X157051944Y-93642872D01*
X157051939Y-93642872D01*
X157045487Y-93641500D01*
X156854513Y-93641500D01*
X156848061Y-93642872D01*
X156848056Y-93642872D01*
X156783925Y-93656504D01*
X156667712Y-93681206D01*
X156661682Y-93683891D01*
X156661681Y-93683891D01*
X156499278Y-93756197D01*
X156499276Y-93756198D01*
X156493248Y-93758882D01*
X156338747Y-93871134D01*
X156334326Y-93876044D01*
X156334325Y-93876045D01*
X156250832Y-93968774D01*
X156210960Y-94013056D01*
X156115473Y-94178444D01*
X156056458Y-94360072D01*
X156055768Y-94366633D01*
X156055768Y-94366635D01*
X156044194Y-94476756D01*
X156036496Y-94550000D01*
X154937644Y-94550000D01*
X154975586Y-94469369D01*
X155063385Y-94199152D01*
X155116624Y-93920062D01*
X155126764Y-93758882D01*
X155132430Y-93668829D01*
X155133927Y-93655840D01*
X155134262Y-93653848D01*
X155134262Y-93653846D01*
X155135071Y-93649039D01*
X155135224Y-93636500D01*
X155131273Y-93608912D01*
X155130000Y-93591049D01*
X155130000Y-90308676D01*
X155559128Y-90308676D01*
X155559644Y-90314820D01*
X155573712Y-90482349D01*
X155576498Y-90515530D01*
X155633715Y-90715071D01*
X155636533Y-90720553D01*
X155636534Y-90720557D01*
X155704620Y-90853037D01*
X155728601Y-90899699D01*
X155857540Y-91062380D01*
X155862227Y-91066369D01*
X155862230Y-91066372D01*
X156010930Y-91192925D01*
X156015622Y-91196918D01*
X156196826Y-91298190D01*
X156394249Y-91362336D01*
X156600371Y-91386915D01*
X156606506Y-91386443D01*
X156606508Y-91386443D01*
X156801201Y-91371462D01*
X156801206Y-91371461D01*
X156807342Y-91370989D01*
X156813272Y-91369333D01*
X156813274Y-91369333D01*
X156972042Y-91325004D01*
X157007278Y-91315166D01*
X157012778Y-91312388D01*
X157187062Y-91224351D01*
X157187064Y-91224350D01*
X157192563Y-91221572D01*
X157356141Y-91093771D01*
X157491779Y-90936632D01*
X157594313Y-90756140D01*
X157659836Y-90559170D01*
X157685853Y-90353224D01*
X157686268Y-90323526D01*
X157671915Y-90177146D01*
X157666612Y-90123060D01*
X157666611Y-90123057D01*
X157666011Y-90116934D01*
X157606014Y-89918211D01*
X157588439Y-89885157D01*
X157511455Y-89740373D01*
X157511454Y-89740371D01*
X157508559Y-89734927D01*
X157439139Y-89649809D01*
X157381256Y-89578837D01*
X157381253Y-89578834D01*
X157377361Y-89574062D01*
X157370416Y-89568316D01*
X157222164Y-89445671D01*
X157222165Y-89445671D01*
X157217416Y-89441743D01*
X157211999Y-89438814D01*
X157211996Y-89438812D01*
X157040236Y-89345942D01*
X157040231Y-89345940D01*
X157034816Y-89343012D01*
X156876417Y-89293979D01*
X156845033Y-89284264D01*
X156793197Y-89252994D01*
X156121399Y-88581196D01*
X156109019Y-88574436D01*
X156102631Y-88579218D01*
X156040913Y-88691482D01*
X156036085Y-88702746D01*
X155977072Y-88888779D01*
X155974524Y-88900768D01*
X155952769Y-89094716D01*
X155952598Y-89106985D01*
X155968928Y-89301458D01*
X155971140Y-89313514D01*
X155988978Y-89375720D01*
X155988528Y-89446716D01*
X155946812Y-89508648D01*
X155878469Y-89563597D01*
X155874511Y-89568314D01*
X155874509Y-89568316D01*
X155804686Y-89651528D01*
X155745037Y-89722615D01*
X155742073Y-89728007D01*
X155742070Y-89728011D01*
X155665356Y-89867554D01*
X155645033Y-89904521D01*
X155582267Y-90102387D01*
X155581581Y-90108504D01*
X155581580Y-90108508D01*
X155566371Y-90244105D01*
X155559128Y-90308676D01*
X155130000Y-90308676D01*
X155130000Y-87189707D01*
X155131746Y-87168803D01*
X155132279Y-87165637D01*
X155135071Y-87149039D01*
X155135224Y-87136500D01*
X155134534Y-87131677D01*
X155134513Y-87131362D01*
X155133555Y-87122043D01*
X155125578Y-86995254D01*
X155116624Y-86852938D01*
X155063385Y-86573848D01*
X154975586Y-86303631D01*
X154854612Y-86046550D01*
X154702372Y-85806657D01*
X154521265Y-85587737D01*
X154314149Y-85393242D01*
X154084289Y-85226238D01*
X154058409Y-85212010D01*
X153838772Y-85091264D01*
X153838769Y-85091263D01*
X153835310Y-85089361D01*
X153663662Y-85021401D01*
X153574823Y-84986227D01*
X153574820Y-84986226D01*
X153571140Y-84984769D01*
X153567306Y-84983785D01*
X153567298Y-84983782D01*
X153397076Y-84940077D01*
X153295943Y-84914110D01*
X153292015Y-84913614D01*
X153292011Y-84913613D01*
X153180778Y-84899561D01*
X153014061Y-84878500D01*
X152729939Y-84878500D01*
X152563222Y-84899561D01*
X152451989Y-84913613D01*
X152451985Y-84913614D01*
X152448057Y-84914110D01*
X152346924Y-84940077D01*
X152176702Y-84983782D01*
X152176694Y-84983785D01*
X152172860Y-84984769D01*
X152169180Y-84986226D01*
X152169177Y-84986227D01*
X152080338Y-85021401D01*
X151908690Y-85089361D01*
X151905231Y-85091263D01*
X151905228Y-85091264D01*
X151685592Y-85212010D01*
X151659711Y-85226238D01*
X151429851Y-85393242D01*
X151222735Y-85587737D01*
X151041628Y-85806657D01*
X150889388Y-86046550D01*
X150768414Y-86303631D01*
X150680615Y-86573848D01*
X150627376Y-86852938D01*
X150618422Y-86995254D01*
X150611050Y-87112429D01*
X150610243Y-87119834D01*
X150610380Y-87120167D01*
X150608814Y-87130230D01*
X150609568Y-87135994D01*
X150609536Y-87136500D01*
X150609634Y-87136500D01*
X150610740Y-87144958D01*
X150610740Y-87144959D01*
X150612936Y-87161750D01*
X150614000Y-87178088D01*
X150614000Y-92015471D01*
X150593998Y-92083592D01*
X150540342Y-92130085D01*
X150470068Y-92140189D01*
X150405488Y-92110695D01*
X150378881Y-92078471D01*
X150019332Y-91455714D01*
X150019329Y-91455710D01*
X150017621Y-91452751D01*
X149991932Y-91417651D01*
X149985349Y-91408656D01*
X149985348Y-91408654D01*
X149980680Y-91402277D01*
X149868206Y-91309726D01*
X149859953Y-91306197D01*
X149859951Y-91306196D01*
X149749577Y-91259004D01*
X149734277Y-91252462D01*
X149589659Y-91235089D01*
X149580804Y-91236563D01*
X149580801Y-91236563D01*
X149453769Y-91257707D01*
X149453767Y-91257708D01*
X149445978Y-91259004D01*
X149388749Y-91284245D01*
X148352751Y-91882379D01*
X148345616Y-91887601D01*
X148315211Y-91909854D01*
X148302277Y-91919320D01*
X148209726Y-92031794D01*
X148209723Y-92031791D01*
X148160589Y-92076557D01*
X148116831Y-92088763D01*
X148106984Y-92089659D01*
X148106981Y-92089660D01*
X148100845Y-92090218D01*
X148094939Y-92091956D01*
X148094935Y-92091957D01*
X147965388Y-92130085D01*
X147901708Y-92148827D01*
X147717748Y-92244999D01*
X147712948Y-92248859D01*
X147712947Y-92248859D01*
X147709727Y-92251448D01*
X147555971Y-92375071D01*
X147552013Y-92379788D01*
X147552011Y-92379790D01*
X147483061Y-92461962D01*
X147422539Y-92534089D01*
X147419575Y-92539481D01*
X147419572Y-92539485D01*
X147361316Y-92645453D01*
X147310970Y-92695512D01*
X147237728Y-92710061D01*
X147213853Y-92707551D01*
X147201578Y-92707466D01*
X147007226Y-92725153D01*
X146995177Y-92727451D01*
X146807954Y-92782554D01*
X146796586Y-92787147D01*
X146668211Y-92854260D01*
X146658062Y-92864047D01*
X141312142Y-92864047D01*
X141049055Y-92712149D01*
X141031836Y-92700194D01*
X141020115Y-92690517D01*
X141020111Y-92690514D01*
X141016355Y-92687413D01*
X141005571Y-92681012D01*
X141001053Y-92679201D01*
X141000764Y-92679058D01*
X140992220Y-92675232D01*
X140851285Y-92605287D01*
X140750710Y-92555372D01*
X140562214Y-92489747D01*
X140486144Y-92463263D01*
X140486138Y-92463261D01*
X140482406Y-92461962D01*
X140204511Y-92402915D01*
X140200572Y-92402585D01*
X140200569Y-92402584D01*
X139925357Y-92379490D01*
X139925350Y-92379490D01*
X139921407Y-92379159D01*
X139917449Y-92379325D01*
X139917443Y-92379325D01*
X139779483Y-92385115D01*
X139637558Y-92391072D01*
X139633651Y-92391733D01*
X139361346Y-92437802D01*
X139361343Y-92437803D01*
X139357440Y-92438463D01*
X139353652Y-92439607D01*
X139353647Y-92439608D01*
X139089264Y-92519441D01*
X139089259Y-92519443D01*
X139085470Y-92520587D01*
X139081846Y-92522201D01*
X139081845Y-92522201D01*
X138829549Y-92634539D01*
X138829546Y-92634541D01*
X138825936Y-92636148D01*
X138822562Y-92638191D01*
X138822559Y-92638193D01*
X138597076Y-92774757D01*
X138582931Y-92783324D01*
X138579827Y-92785785D01*
X138579826Y-92785785D01*
X138396531Y-92931067D01*
X138360287Y-92959794D01*
X138357519Y-92962620D01*
X138357513Y-92962626D01*
X138320553Y-93000369D01*
X138161514Y-93162776D01*
X137989747Y-93389068D01*
X137847694Y-93635103D01*
X137838697Y-93656504D01*
X137741855Y-93886870D01*
X137737596Y-93897001D01*
X137736534Y-93900804D01*
X137736532Y-93900810D01*
X137674248Y-94123862D01*
X137661188Y-94170632D01*
X137619676Y-94451682D01*
X137618662Y-94500000D01*
X137613908Y-94726450D01*
X137613713Y-94735718D01*
X136178664Y-94735718D01*
X136193542Y-94689928D01*
X136195639Y-94669982D01*
X136212814Y-94506565D01*
X136213504Y-94500000D01*
X136210662Y-94472958D01*
X136194232Y-94316635D01*
X136194232Y-94316633D01*
X136193542Y-94310072D01*
X136134527Y-94128444D01*
X136126376Y-94114325D01*
X136071209Y-94018774D01*
X136039040Y-93963056D01*
X135986303Y-93904485D01*
X135915675Y-93826045D01*
X135915674Y-93826044D01*
X135911253Y-93821134D01*
X135799680Y-93740071D01*
X135762094Y-93712763D01*
X135762093Y-93712762D01*
X135756752Y-93708882D01*
X135750724Y-93706198D01*
X135750722Y-93706197D01*
X135588319Y-93633891D01*
X135588318Y-93633891D01*
X135582288Y-93631206D01*
X135488887Y-93611353D01*
X135401944Y-93592872D01*
X135401939Y-93592872D01*
X135395487Y-93591500D01*
X135204513Y-93591500D01*
X135198061Y-93592872D01*
X135198056Y-93592872D01*
X135111113Y-93611353D01*
X135017712Y-93631206D01*
X135011682Y-93633891D01*
X135011681Y-93633891D01*
X134849278Y-93706197D01*
X134849276Y-93706198D01*
X134843248Y-93708882D01*
X134837907Y-93712762D01*
X134837906Y-93712763D01*
X134800320Y-93740071D01*
X134688747Y-93821134D01*
X134684326Y-93826044D01*
X134684325Y-93826045D01*
X134613698Y-93904485D01*
X134560960Y-93963056D01*
X134528791Y-94018774D01*
X134473625Y-94114325D01*
X134465473Y-94128444D01*
X134406458Y-94310072D01*
X134405768Y-94316633D01*
X134405768Y-94316635D01*
X134402442Y-94348281D01*
X134389716Y-94469369D01*
X134389093Y-94475293D01*
X134362080Y-94540950D01*
X134352878Y-94551218D01*
X133829328Y-95074767D01*
X133307747Y-95596348D01*
X133299461Y-95603888D01*
X133292982Y-95608000D01*
X133287557Y-95613777D01*
X133246357Y-95657651D01*
X133243602Y-95660493D01*
X133227511Y-95676584D01*
X133165199Y-95710610D01*
X133094384Y-95705545D01*
X133037548Y-95662998D01*
X133012441Y-95590018D01*
X133011932Y-95564665D01*
X133010886Y-95512545D01*
X133008195Y-95503983D01*
X132969576Y-95381125D01*
X132969575Y-95381122D01*
X132967207Y-95373590D01*
X132948738Y-95343803D01*
X132936049Y-95323337D01*
X132936047Y-95323334D01*
X132934247Y-95320431D01*
X132870512Y-95238854D01*
X132199857Y-94380454D01*
X132199853Y-94380449D01*
X132197751Y-94377759D01*
X132195377Y-94375318D01*
X132195372Y-94375312D01*
X132159652Y-94338581D01*
X132154145Y-94332918D01*
X132147408Y-94328798D01*
X132147406Y-94328796D01*
X132037545Y-94261606D01*
X132037546Y-94261606D01*
X132029885Y-94256921D01*
X132027175Y-94256187D01*
X131974912Y-94212853D01*
X131958783Y-94178862D01*
X131935152Y-94100592D01*
X131935150Y-94100586D01*
X131933368Y-94094685D01*
X131930477Y-94089248D01*
X131930475Y-94089243D01*
X131838809Y-93916847D01*
X131838808Y-93916845D01*
X131835913Y-93911401D01*
X131784083Y-93847851D01*
X131708610Y-93755311D01*
X131708607Y-93755308D01*
X131704715Y-93750536D01*
X131697770Y-93744790D01*
X131566870Y-93636500D01*
X131544770Y-93618217D01*
X131539353Y-93615288D01*
X131539350Y-93615286D01*
X131367588Y-93522415D01*
X131367584Y-93522413D01*
X131362170Y-93519486D01*
X131356290Y-93517666D01*
X131356288Y-93517665D01*
X131309149Y-93503073D01*
X131249990Y-93463821D01*
X131221010Y-93395004D01*
X131211583Y-93298866D01*
X131209200Y-93286829D01*
X131152793Y-93100003D01*
X131148119Y-93088662D01*
X131083644Y-92967402D01*
X131073784Y-92957321D01*
X131066657Y-92959889D01*
X130483804Y-93542742D01*
X130453084Y-93565309D01*
X130367600Y-93609999D01*
X130205823Y-93740071D01*
X130201865Y-93744788D01*
X130201863Y-93744790D01*
X130141774Y-93816401D01*
X130072391Y-93899089D01*
X130069427Y-93904481D01*
X130069424Y-93904485D01*
X130013792Y-94005680D01*
X129992472Y-94034074D01*
X129633823Y-94392723D01*
X129627063Y-94405103D01*
X127325247Y-94405103D01*
X127251649Y-94235840D01*
X127186237Y-94134729D01*
X127133117Y-94052617D01*
X127133115Y-94052614D01*
X127130309Y-94048277D01*
X126979965Y-93883051D01*
X126975914Y-93879852D01*
X126975910Y-93879848D01*
X126808709Y-93747800D01*
X126808705Y-93747798D01*
X126804654Y-93744598D01*
X126796454Y-93740071D01*
X126718537Y-93697059D01*
X126609084Y-93636638D01*
X126604215Y-93634914D01*
X126604211Y-93634912D01*
X126403382Y-93563795D01*
X126403378Y-93563794D01*
X126398507Y-93562069D01*
X126393414Y-93561162D01*
X126393411Y-93561161D01*
X126183668Y-93523800D01*
X126183662Y-93523799D01*
X126178579Y-93522894D01*
X126104747Y-93521992D01*
X125960376Y-93520228D01*
X125960374Y-93520228D01*
X125955206Y-93520165D01*
X125734386Y-93553955D01*
X125522051Y-93623357D01*
X125517463Y-93625745D01*
X125517459Y-93625747D01*
X125395189Y-93689397D01*
X125325529Y-93703110D01*
X125259514Y-93676985D01*
X125218103Y-93619316D01*
X125211433Y-93587958D01*
X125195372Y-93392604D01*
X125193687Y-93382424D01*
X125141805Y-93175875D01*
X125138485Y-93166124D01*
X125053563Y-92970814D01*
X125048696Y-92961739D01*
X124933017Y-92782926D01*
X124926727Y-92774757D01*
X124783397Y-92617240D01*
X124775865Y-92610216D01*
X124752474Y-92591743D01*
X124739434Y-92586492D01*
X124729166Y-92596262D01*
X124197561Y-93517030D01*
X124006561Y-93847851D01*
X123955179Y-93896844D01*
X123885465Y-93910280D01*
X123834442Y-93893970D01*
X122581349Y-93170496D01*
X122567644Y-93167171D01*
X122562123Y-93174193D01*
X122513455Y-93349682D01*
X122511524Y-93359800D01*
X122488893Y-93571574D01*
X122488641Y-93581863D01*
X122500900Y-93794477D01*
X122502336Y-93804697D01*
X122549156Y-94012446D01*
X122552236Y-94022275D01*
X122630239Y-94214376D01*
X122637335Y-94285017D01*
X122605113Y-94348281D01*
X122543803Y-94384081D01*
X122472871Y-94381051D01*
X122450496Y-94370899D01*
X122420870Y-94353794D01*
X119593664Y-92721497D01*
X122826687Y-92721497D01*
X122832508Y-92728916D01*
X123741931Y-93253972D01*
X123757366Y-93257717D01*
X123759106Y-93257114D01*
X123764393Y-93251298D01*
X124288625Y-92343304D01*
X124291742Y-92330457D01*
X124279378Y-92321133D01*
X124203550Y-92294280D01*
X124193580Y-92291646D01*
X123983918Y-92254301D01*
X123973664Y-92253331D01*
X123760707Y-92250728D01*
X123750423Y-92251448D01*
X123539912Y-92283661D01*
X123529884Y-92286050D01*
X123327459Y-92352212D01*
X123317950Y-92356209D01*
X123129054Y-92454542D01*
X123120329Y-92460036D01*
X122950024Y-92587905D01*
X122942317Y-92594748D01*
X122833162Y-92708972D01*
X122826687Y-92721497D01*
X119593664Y-92721497D01*
X114610870Y-89844664D01*
X105663000Y-84678580D01*
X105614007Y-84627197D01*
X105600000Y-84569461D01*
X105600000Y-84155150D01*
X111136482Y-84155150D01*
X111137435Y-84166495D01*
X111152299Y-84343506D01*
X111153852Y-84362004D01*
X111168042Y-84411490D01*
X111208656Y-84553131D01*
X111208205Y-84624126D01*
X111201188Y-84640889D01*
X111199385Y-84643295D01*
X111148255Y-84779684D01*
X111141500Y-84841866D01*
X111141500Y-86038134D01*
X111148255Y-86100316D01*
X111199385Y-86236705D01*
X111286739Y-86353261D01*
X111403295Y-86440615D01*
X111539684Y-86491745D01*
X111601866Y-86498500D01*
X112798134Y-86498500D01*
X112860316Y-86491745D01*
X112996705Y-86440615D01*
X113113261Y-86353261D01*
X113200615Y-86236705D01*
X113251745Y-86100316D01*
X113258500Y-86038134D01*
X113258500Y-86036390D01*
X113282049Y-85969753D01*
X113338140Y-85926229D01*
X113408858Y-85919939D01*
X113471749Y-85952881D01*
X113492662Y-85979366D01*
X113633306Y-86217181D01*
X113883430Y-86563988D01*
X114163957Y-86886697D01*
X114472577Y-87182653D01*
X114474795Y-87184423D01*
X114474800Y-87184428D01*
X114653476Y-87327063D01*
X114806751Y-87449421D01*
X114809114Y-87450979D01*
X114809118Y-87450982D01*
X115109591Y-87649107D01*
X115163727Y-87684803D01*
X115540567Y-87886863D01*
X115732014Y-87968127D01*
X115843630Y-88015505D01*
X115934170Y-88053937D01*
X115936879Y-88054807D01*
X115936885Y-88054809D01*
X116338575Y-88183778D01*
X116338581Y-88183780D01*
X116341295Y-88184651D01*
X116344068Y-88185271D01*
X116344076Y-88185273D01*
X116715589Y-88268315D01*
X116758591Y-88277927D01*
X117182624Y-88333000D01*
X117609903Y-88349414D01*
X117612765Y-88349264D01*
X117612766Y-88349264D01*
X118034055Y-88327186D01*
X118034062Y-88327185D01*
X118036911Y-88327036D01*
X118039734Y-88326629D01*
X118039736Y-88326629D01*
X118457312Y-88266455D01*
X118457319Y-88266454D01*
X118460134Y-88266048D01*
X118876087Y-88166954D01*
X118878785Y-88166046D01*
X118878792Y-88166044D01*
X119278635Y-88031482D01*
X119278641Y-88031480D01*
X119281347Y-88030569D01*
X119672578Y-87858016D01*
X119690233Y-87848230D01*
X119985063Y-87684803D01*
X120046561Y-87650714D01*
X120053786Y-87645804D01*
X120254503Y-87509397D01*
X120322087Y-87487651D01*
X120390699Y-87505895D01*
X120438556Y-87558338D01*
X120446443Y-87578874D01*
X120449469Y-87589427D01*
X120452287Y-87594909D01*
X120452288Y-87594913D01*
X120509131Y-87705516D01*
X120544355Y-87774055D01*
X120658823Y-87918478D01*
X120685459Y-87984286D01*
X120680178Y-88034838D01*
X120620909Y-88221680D01*
X120618360Y-88233672D01*
X120596605Y-88427620D01*
X120596434Y-88439889D01*
X120612764Y-88634362D01*
X120614977Y-88646421D01*
X120668772Y-88834026D01*
X120673288Y-88845431D01*
X120742945Y-88980969D01*
X120752666Y-88991190D01*
X120759465Y-88988846D01*
X120808047Y-88940264D01*
X120870359Y-88906238D01*
X120941174Y-88911303D01*
X120998010Y-88953850D01*
X121022821Y-89020370D01*
X121007730Y-89089744D01*
X121003992Y-89095840D01*
X121001858Y-89098383D01*
X120998889Y-89103783D01*
X120998888Y-89103785D01*
X120948135Y-89196105D01*
X120901854Y-89280289D01*
X120839088Y-89478155D01*
X120838402Y-89484272D01*
X120838401Y-89484276D01*
X120819834Y-89649809D01*
X120815949Y-89684444D01*
X120816465Y-89690588D01*
X120831088Y-89864726D01*
X120833319Y-89891298D01*
X120890536Y-90090839D01*
X120969306Y-90244108D01*
X120982653Y-90313836D01*
X120977940Y-90335796D01*
X120976240Y-90339154D01*
X120974596Y-90347979D01*
X120974596Y-90347980D01*
X120972967Y-90356728D01*
X120949571Y-90482349D01*
X120950094Y-90490226D01*
X120950094Y-90490228D01*
X120951367Y-90509389D01*
X120953716Y-90544760D01*
X120954308Y-90548116D01*
X120954308Y-90548118D01*
X121000586Y-90810572D01*
X121161446Y-91722854D01*
X121168455Y-91746980D01*
X121176691Y-91775330D01*
X121176693Y-91775334D01*
X121178896Y-91782918D01*
X121182911Y-91789720D01*
X121182912Y-91789723D01*
X121187247Y-91797067D01*
X121252933Y-91908356D01*
X121259477Y-91914490D01*
X121259479Y-91914493D01*
X121285565Y-91938946D01*
X121359200Y-92007973D01*
X121367206Y-92012026D01*
X121367209Y-92012028D01*
X121406249Y-92031791D01*
X121489154Y-92073760D01*
X121632349Y-92100429D01*
X121640226Y-92099906D01*
X121640228Y-92099906D01*
X121680543Y-92097228D01*
X121694760Y-92096284D01*
X121698116Y-92095692D01*
X121698118Y-92095692D01*
X122663765Y-91925422D01*
X122872854Y-91888554D01*
X122899995Y-91880669D01*
X122925330Y-91873309D01*
X122925334Y-91873307D01*
X122932918Y-91871104D01*
X122939720Y-91867089D01*
X122939723Y-91867088D01*
X123050628Y-91801628D01*
X123058356Y-91797067D01*
X123064490Y-91790523D01*
X123064493Y-91790521D01*
X123151833Y-91697350D01*
X123157973Y-91690800D01*
X123162026Y-91682794D01*
X123162028Y-91682791D01*
X123219706Y-91568854D01*
X123223760Y-91560846D01*
X123250429Y-91417651D01*
X123249075Y-91397256D01*
X123246510Y-91358644D01*
X123246284Y-91355240D01*
X123242570Y-91334174D01*
X123039146Y-90180504D01*
X123038554Y-90177146D01*
X123031545Y-90153020D01*
X123023309Y-90124670D01*
X123023307Y-90124666D01*
X123021104Y-90117082D01*
X123017089Y-90110280D01*
X123017088Y-90110277D01*
X122970527Y-90031392D01*
X122947067Y-89991644D01*
X122946247Y-89990875D01*
X122920766Y-89928862D01*
X122921076Y-89899957D01*
X122921422Y-89897222D01*
X122942674Y-89728992D01*
X122943089Y-89699294D01*
X122930176Y-89567598D01*
X122923433Y-89498828D01*
X122923432Y-89498825D01*
X122922832Y-89492702D01*
X122862835Y-89293979D01*
X122858679Y-89286162D01*
X122768276Y-89116141D01*
X122768275Y-89116139D01*
X122765380Y-89110695D01*
X122658828Y-88980049D01*
X122631274Y-88914617D01*
X122636912Y-88860642D01*
X122693688Y-88689966D01*
X122696406Y-88678000D01*
X122721196Y-88481774D01*
X122721687Y-88474749D01*
X122722003Y-88452094D01*
X122721710Y-88445099D01*
X122702406Y-88248227D01*
X122700023Y-88236192D01*
X122643616Y-88049365D01*
X122638942Y-88038024D01*
X122611114Y-87985688D01*
X125921981Y-87985688D01*
X125951727Y-88268315D01*
X125974965Y-88367312D01*
X126012123Y-88525610D01*
X126016670Y-88544983D01*
X126018055Y-88548705D01*
X126018056Y-88548708D01*
X126105705Y-88784239D01*
X126115785Y-88811327D01*
X126247507Y-89063145D01*
X126249768Y-89066396D01*
X126249769Y-89066398D01*
X126302236Y-89141845D01*
X126409760Y-89296462D01*
X126412414Y-89299408D01*
X126412415Y-89299409D01*
X126586562Y-89492702D01*
X126599982Y-89507598D01*
X126623286Y-89527700D01*
X126812164Y-89690627D01*
X126812171Y-89690632D01*
X126815172Y-89693221D01*
X126818481Y-89695418D01*
X126818484Y-89695420D01*
X127024944Y-89832484D01*
X127035436Y-89840262D01*
X127040771Y-89844664D01*
X127051556Y-89851062D01*
X127056070Y-89852870D01*
X127056084Y-89852877D01*
X127077317Y-89861381D01*
X127093464Y-89869227D01*
X129405131Y-91203907D01*
X129454124Y-91255290D01*
X129467559Y-91325004D01*
X129441172Y-91390914D01*
X129383339Y-91432096D01*
X129353550Y-91438506D01*
X129193056Y-91453112D01*
X129193053Y-91453113D01*
X129186917Y-91453671D01*
X129181011Y-91455409D01*
X129181007Y-91455410D01*
X129033152Y-91498926D01*
X128987780Y-91512280D01*
X128803820Y-91608452D01*
X128799020Y-91612312D01*
X128799019Y-91612312D01*
X128793599Y-91616670D01*
X128642043Y-91738524D01*
X128638085Y-91743241D01*
X128638083Y-91743243D01*
X128589092Y-91801628D01*
X128508611Y-91897542D01*
X128505647Y-91902934D01*
X128505644Y-91902938D01*
X128434807Y-92031791D01*
X128408607Y-92079448D01*
X128345841Y-92277314D01*
X128345155Y-92283431D01*
X128345154Y-92283435D01*
X128331660Y-92403737D01*
X128322702Y-92483603D01*
X128323218Y-92489747D01*
X128339115Y-92679058D01*
X128340072Y-92690457D01*
X128397289Y-92889998D01*
X128400107Y-92895480D01*
X128400108Y-92895484D01*
X128437069Y-92967402D01*
X128492175Y-93074626D01*
X128496006Y-93079460D01*
X128496007Y-93079461D01*
X128513128Y-93101062D01*
X128621114Y-93237307D01*
X128625801Y-93241296D01*
X128625804Y-93241299D01*
X128768923Y-93363102D01*
X128779196Y-93371845D01*
X128960400Y-93473117D01*
X129028564Y-93495265D01*
X129087169Y-93535337D01*
X129115186Y-93604555D01*
X129121940Y-93685000D01*
X129124154Y-93697059D01*
X129177949Y-93884664D01*
X129182465Y-93896069D01*
X129252122Y-94031607D01*
X129261843Y-94041828D01*
X129268642Y-94039484D01*
X129851920Y-93456206D01*
X129884204Y-93432835D01*
X129944061Y-93402599D01*
X129956137Y-93396499D01*
X129961123Y-93392604D01*
X130114854Y-93272496D01*
X130114855Y-93272495D01*
X130119715Y-93268698D01*
X130239033Y-93130466D01*
X130251329Y-93116221D01*
X130251329Y-93116220D01*
X130255353Y-93111559D01*
X130266714Y-93091561D01*
X130324257Y-92990266D01*
X130344718Y-92963408D01*
X130702839Y-92605287D01*
X130709599Y-92592907D01*
X130704940Y-92586684D01*
X130585505Y-92522107D01*
X130574199Y-92517354D01*
X130527832Y-92503001D01*
X130468672Y-92463750D01*
X130439692Y-92394932D01*
X130430186Y-92297988D01*
X130430186Y-92297986D01*
X130429585Y-92291861D01*
X130374889Y-92110695D01*
X130371372Y-92099046D01*
X130371371Y-92099043D01*
X130369588Y-92093138D01*
X130365432Y-92085321D01*
X130320863Y-92001500D01*
X130306543Y-91931962D01*
X130332091Y-91865722D01*
X130389395Y-91823809D01*
X130460263Y-91819531D01*
X130495114Y-91833227D01*
X132637024Y-93069896D01*
X132654218Y-93081830D01*
X132666010Y-93091561D01*
X132666014Y-93091564D01*
X132669771Y-93094664D01*
X132673962Y-93097150D01*
X132673966Y-93097153D01*
X132676367Y-93098577D01*
X132680556Y-93101062D01*
X132685078Y-93102873D01*
X132685369Y-93103017D01*
X132693916Y-93106841D01*
X132867147Y-93192755D01*
X132935406Y-93226608D01*
X133203685Y-93319933D01*
X133481542Y-93378906D01*
X133673863Y-93395004D01*
X133760656Y-93402269D01*
X133760658Y-93402269D01*
X133764600Y-93402599D01*
X133952203Y-93394691D01*
X134044436Y-93390804D01*
X134044438Y-93390804D01*
X134048395Y-93390637D01*
X134052293Y-93389977D01*
X134052301Y-93389976D01*
X134290231Y-93349682D01*
X134328454Y-93343209D01*
X134332242Y-93342065D01*
X134332249Y-93342063D01*
X134562520Y-93272496D01*
X134600364Y-93261063D01*
X134603972Y-93259456D01*
X134603980Y-93259453D01*
X134856221Y-93147104D01*
X134856226Y-93147101D01*
X134859837Y-93145493D01*
X135102784Y-92998322D01*
X135325376Y-92821868D01*
X135328135Y-92819050D01*
X135328142Y-92819044D01*
X135521326Y-92621751D01*
X135524103Y-92618915D01*
X135695834Y-92392659D01*
X135697808Y-92389240D01*
X135697812Y-92389234D01*
X135835885Y-92150090D01*
X135835886Y-92150088D01*
X135837860Y-92146669D01*
X135942596Y-91897542D01*
X135946410Y-91888470D01*
X135946410Y-91888469D01*
X135947944Y-91884821D01*
X136024351Y-91611244D01*
X136060099Y-91369333D01*
X136065295Y-91334174D01*
X136065295Y-91334171D01*
X136065875Y-91330248D01*
X136066188Y-91315430D01*
X136071780Y-91050217D01*
X136071780Y-91050211D01*
X136071863Y-91046264D01*
X136042220Y-90763768D01*
X135977413Y-90487213D01*
X135976039Y-90483517D01*
X135976037Y-90483509D01*
X135915278Y-90320021D01*
X135878463Y-90220958D01*
X135746932Y-89969199D01*
X135584891Y-89735907D01*
X135568686Y-89717897D01*
X135397543Y-89527700D01*
X135394895Y-89524757D01*
X135388034Y-89518830D01*
X135182942Y-89341672D01*
X135179939Y-89339078D01*
X135121001Y-89299887D01*
X134970386Y-89199734D01*
X134959887Y-89191938D01*
X134958323Y-89190646D01*
X134954571Y-89187545D01*
X134943791Y-89181139D01*
X134939276Y-89179326D01*
X134939271Y-89179324D01*
X134917808Y-89170708D01*
X134901747Y-89162896D01*
X134826049Y-89119190D01*
X130694238Y-86733618D01*
X130645245Y-86682235D01*
X130631810Y-86612521D01*
X130658197Y-86546611D01*
X130716030Y-86505429D01*
X130757239Y-86498500D01*
X131148134Y-86498500D01*
X131210316Y-86491745D01*
X131346705Y-86440615D01*
X131463261Y-86353261D01*
X131550615Y-86236705D01*
X131601745Y-86100316D01*
X131608500Y-86038134D01*
X131608500Y-84841866D01*
X131601745Y-84779684D01*
X131550615Y-84643295D01*
X131549287Y-84641524D01*
X131534846Y-84575488D01*
X131540976Y-84544568D01*
X131570251Y-84456565D01*
X131587190Y-84405644D01*
X131613207Y-84199698D01*
X131613622Y-84170000D01*
X131593365Y-83963408D01*
X131546703Y-83808854D01*
X131535152Y-83770593D01*
X131535151Y-83770590D01*
X131533368Y-83764685D01*
X131518623Y-83736953D01*
X131467684Y-83641153D01*
X131441285Y-83591504D01*
X131426965Y-83521968D01*
X131442980Y-83470114D01*
X131518162Y-83337772D01*
X131523155Y-83326556D01*
X131584753Y-83141384D01*
X131587473Y-83129412D01*
X131612263Y-82933186D01*
X131612754Y-82926161D01*
X131613070Y-82903506D01*
X131612777Y-82896511D01*
X131593473Y-82699639D01*
X131591090Y-82687604D01*
X131534683Y-82500777D01*
X131530012Y-82489443D01*
X131441270Y-82322543D01*
X131426951Y-82253006D01*
X131442966Y-82201153D01*
X131518620Y-82067977D01*
X131521667Y-82062614D01*
X131587190Y-81865644D01*
X131613207Y-81659698D01*
X131613622Y-81630000D01*
X131597410Y-81464661D01*
X131593966Y-81429534D01*
X131593965Y-81429531D01*
X131593365Y-81423408D01*
X131538697Y-81242335D01*
X131535152Y-81230593D01*
X131535151Y-81230590D01*
X131533368Y-81224685D01*
X131529212Y-81216868D01*
X131438809Y-81046847D01*
X131438808Y-81046845D01*
X131435913Y-81041401D01*
X131374087Y-80965595D01*
X131308610Y-80885311D01*
X131308607Y-80885308D01*
X131304715Y-80880536D01*
X131297770Y-80874790D01*
X131149518Y-80752145D01*
X131149519Y-80752145D01*
X131144770Y-80748217D01*
X131139353Y-80745288D01*
X131139350Y-80745286D01*
X130967590Y-80652416D01*
X130967585Y-80652414D01*
X130962170Y-80649486D01*
X130939106Y-80642347D01*
X130879948Y-80603095D01*
X130851401Y-80538091D01*
X130862530Y-80467972D01*
X130913365Y-80412865D01*
X131937943Y-79821307D01*
X136223373Y-79821307D01*
X136259719Y-79962357D01*
X136289852Y-80017168D01*
X136291810Y-80019964D01*
X136291811Y-80019966D01*
X136974053Y-80994309D01*
X136974059Y-80994316D01*
X136976003Y-80997093D01*
X136978241Y-80999649D01*
X136978243Y-80999652D01*
X137004014Y-81029089D01*
X137017203Y-81044155D01*
X137137315Y-81126552D01*
X137275725Y-81171925D01*
X137284695Y-81172215D01*
X137284697Y-81172215D01*
X137351953Y-81174387D01*
X137421307Y-81176627D01*
X137562357Y-81140281D01*
X137576902Y-81132285D01*
X137614174Y-81111794D01*
X137617168Y-81110148D01*
X137716165Y-81040830D01*
X138187673Y-80710676D01*
X138254947Y-80687988D01*
X138323808Y-80705273D01*
X138372392Y-80757043D01*
X138385274Y-80826861D01*
X138360572Y-80889718D01*
X138297216Y-80973794D01*
X138071893Y-81337203D01*
X137880434Y-81719538D01*
X137724415Y-82117652D01*
X137723617Y-82120399D01*
X137641941Y-82401531D01*
X137605120Y-82528268D01*
X137523531Y-82948006D01*
X137480320Y-83373412D01*
X137477565Y-83636500D01*
X137475842Y-83800982D01*
X137476071Y-83803827D01*
X137476071Y-83803830D01*
X137507639Y-84196173D01*
X137510135Y-84227199D01*
X137582915Y-84648554D01*
X137602059Y-84719999D01*
X137691365Y-85053292D01*
X137693585Y-85061578D01*
X137841232Y-85462872D01*
X137842454Y-85465445D01*
X137842455Y-85465448D01*
X138004773Y-85807288D01*
X138024642Y-85849133D01*
X138242306Y-86217181D01*
X138278764Y-86267731D01*
X138302388Y-86334680D01*
X138286066Y-86403775D01*
X138234980Y-86453077D01*
X138165348Y-86466933D01*
X138116643Y-86452271D01*
X137937215Y-86355255D01*
X137738916Y-86293871D01*
X137732791Y-86293227D01*
X137732790Y-86293227D01*
X137538599Y-86272817D01*
X137538597Y-86272817D01*
X137532470Y-86272173D01*
X137446560Y-86279992D01*
X137331881Y-86290428D01*
X137331878Y-86290429D01*
X137325742Y-86290987D01*
X137319836Y-86292725D01*
X137319832Y-86292726D01*
X137240418Y-86316099D01*
X137126605Y-86349596D01*
X136942645Y-86445768D01*
X136780868Y-86575840D01*
X136776910Y-86580557D01*
X136776908Y-86580559D01*
X136719639Y-86648810D01*
X136647436Y-86734858D01*
X136644472Y-86740250D01*
X136644469Y-86740254D01*
X136563050Y-86888355D01*
X136547432Y-86916764D01*
X136484666Y-87114630D01*
X136483980Y-87120747D01*
X136483979Y-87120751D01*
X136469726Y-87247821D01*
X136461527Y-87320919D01*
X136462043Y-87327063D01*
X136476121Y-87494710D01*
X136478897Y-87527773D01*
X136536114Y-87727314D01*
X136538932Y-87732796D01*
X136538933Y-87732800D01*
X136628180Y-87906455D01*
X136631000Y-87911942D01*
X136759939Y-88074623D01*
X136764626Y-88078612D01*
X136764629Y-88078615D01*
X136913329Y-88205168D01*
X136918021Y-88209161D01*
X137099225Y-88310433D01*
X137296648Y-88374579D01*
X137462226Y-88394323D01*
X137527498Y-88422251D01*
X137564459Y-88473056D01*
X137566853Y-88479104D01*
X137636508Y-88614637D01*
X137646229Y-88624858D01*
X137653028Y-88622514D01*
X137973114Y-88302428D01*
X138005398Y-88279057D01*
X138072136Y-88245345D01*
X138094962Y-88233815D01*
X138108658Y-88223115D01*
X138253679Y-88109812D01*
X138253680Y-88109811D01*
X138258540Y-88106014D01*
X138394178Y-87948875D01*
X138418147Y-87906683D01*
X138451649Y-87847708D01*
X138502688Y-87798357D01*
X138572306Y-87784435D01*
X138638400Y-87810361D01*
X138650300Y-87820850D01*
X138782643Y-87953193D01*
X138816669Y-88015505D01*
X138811604Y-88086320D01*
X138790070Y-88123279D01*
X138752868Y-88167615D01*
X138702339Y-88227833D01*
X138699375Y-88233225D01*
X138699372Y-88233229D01*
X138664080Y-88297425D01*
X138637476Y-88345819D01*
X138633088Y-88353800D01*
X138611768Y-88382194D01*
X138018209Y-88975753D01*
X138011449Y-88988133D01*
X138016359Y-88994691D01*
X138121500Y-89053454D01*
X138132738Y-89058363D01*
X138318348Y-89118671D01*
X138330322Y-89121304D01*
X138488899Y-89140213D01*
X138554172Y-89168140D01*
X138590306Y-89217809D01*
X138591017Y-89220289D01*
X138593835Y-89225773D01*
X138593837Y-89225777D01*
X138669597Y-89373189D01*
X138685903Y-89404917D01*
X138814842Y-89567598D01*
X138819529Y-89571587D01*
X138819532Y-89571590D01*
X138965466Y-89695789D01*
X138972924Y-89702136D01*
X139154128Y-89803408D01*
X139301528Y-89851301D01*
X139360132Y-89891373D01*
X139373486Y-89912508D01*
X139374704Y-89916454D01*
X139379654Y-89923947D01*
X139429485Y-89999376D01*
X139454992Y-90037987D01*
X139501328Y-90080001D01*
X140469129Y-90783150D01*
X140523406Y-90814235D01*
X140663800Y-90853037D01*
X140672776Y-90852904D01*
X140672777Y-90852904D01*
X140739088Y-90851920D01*
X140809441Y-90850876D01*
X140818014Y-90848231D01*
X140818017Y-90848230D01*
X140940049Y-90810572D01*
X140940052Y-90810571D01*
X140948622Y-90807926D01*
X141070155Y-90727638D01*
X141076576Y-90720557D01*
X141109878Y-90683829D01*
X141109881Y-90683826D01*
X141112169Y-90681302D01*
X141815318Y-89713501D01*
X141846403Y-89659224D01*
X141885205Y-89518830D01*
X141885039Y-89507598D01*
X141883939Y-89433525D01*
X141883044Y-89373189D01*
X141878070Y-89357068D01*
X141842740Y-89242581D01*
X141842739Y-89242578D01*
X141840094Y-89234008D01*
X141779209Y-89141845D01*
X141764163Y-89119070D01*
X141764162Y-89119069D01*
X141759806Y-89112475D01*
X141746650Y-89100546D01*
X141715997Y-89072752D01*
X141715994Y-89072749D01*
X141713470Y-89070461D01*
X141129829Y-88646421D01*
X140769566Y-88384674D01*
X140726212Y-88328452D01*
X140720137Y-88257716D01*
X140753268Y-88194924D01*
X140815088Y-88160012D01*
X140882144Y-88162770D01*
X140917461Y-88174109D01*
X140947575Y-88183778D01*
X140947581Y-88183780D01*
X140950295Y-88184651D01*
X140953068Y-88185271D01*
X140953076Y-88185273D01*
X141324589Y-88268315D01*
X141367591Y-88277927D01*
X141791624Y-88333000D01*
X142218903Y-88349414D01*
X142221765Y-88349264D01*
X142221766Y-88349264D01*
X142643055Y-88327186D01*
X142643062Y-88327185D01*
X142645911Y-88327036D01*
X142648734Y-88326629D01*
X142648736Y-88326629D01*
X143066312Y-88266455D01*
X143066319Y-88266454D01*
X143069134Y-88266048D01*
X143485087Y-88166954D01*
X143487785Y-88166046D01*
X143487792Y-88166044D01*
X143887635Y-88031482D01*
X143887641Y-88031480D01*
X143890347Y-88030569D01*
X144281578Y-87858016D01*
X144284075Y-87856632D01*
X144653059Y-87652101D01*
X144653061Y-87652100D01*
X144655561Y-87650714D01*
X144885114Y-87494710D01*
X145006843Y-87411983D01*
X145006848Y-87411980D01*
X145009216Y-87410370D01*
X145110636Y-87327063D01*
X145337413Y-87140786D01*
X145337417Y-87140783D01*
X145339632Y-87138963D01*
X145341670Y-87136954D01*
X145341677Y-87136947D01*
X145539603Y-86941765D01*
X145644090Y-86838727D01*
X145776336Y-86682235D01*
X145918238Y-86514317D01*
X145918243Y-86514311D01*
X145920084Y-86512132D01*
X145924778Y-86505429D01*
X146031206Y-86353433D01*
X146165342Y-86161867D01*
X146173967Y-86146808D01*
X146376423Y-85793299D01*
X146377845Y-85790816D01*
X146410348Y-85719823D01*
X146456892Y-85666211D01*
X146525032Y-85646274D01*
X146593133Y-85666341D01*
X146639575Y-85720041D01*
X146650470Y-85761730D01*
X146652913Y-85790816D01*
X146653852Y-85802004D01*
X146711069Y-86001545D01*
X146713887Y-86007027D01*
X146713888Y-86007031D01*
X146781661Y-86138903D01*
X146805955Y-86186173D01*
X146809786Y-86191007D01*
X146809787Y-86191008D01*
X146830680Y-86217368D01*
X146934894Y-86348854D01*
X146939581Y-86352843D01*
X146939584Y-86352846D01*
X147088284Y-86479399D01*
X147092976Y-86483392D01*
X147274180Y-86584664D01*
X147471603Y-86648810D01*
X147677725Y-86673389D01*
X147683860Y-86672917D01*
X147683862Y-86672917D01*
X147878555Y-86657936D01*
X147878560Y-86657935D01*
X147884696Y-86657463D01*
X147890626Y-86655807D01*
X147890628Y-86655807D01*
X148037752Y-86614729D01*
X148084632Y-86601640D01*
X148114470Y-86586568D01*
X148264416Y-86510825D01*
X148264418Y-86510824D01*
X148269917Y-86508046D01*
X148412038Y-86397009D01*
X148428634Y-86384043D01*
X148428635Y-86384042D01*
X148433495Y-86380245D01*
X148569133Y-86223106D01*
X148671667Y-86042614D01*
X148737190Y-85845644D01*
X148763207Y-85639698D01*
X148763622Y-85610000D01*
X148748933Y-85460194D01*
X148743966Y-85409534D01*
X148743965Y-85409531D01*
X148743365Y-85403408D01*
X148683368Y-85204685D01*
X148591285Y-85031504D01*
X148576965Y-84961968D01*
X148592980Y-84910114D01*
X148668162Y-84777772D01*
X148673155Y-84766556D01*
X148734753Y-84581384D01*
X148737473Y-84569412D01*
X148752559Y-84450000D01*
X154586496Y-84450000D01*
X154587186Y-84456565D01*
X154605361Y-84629486D01*
X154606458Y-84639928D01*
X154665473Y-84821556D01*
X154760960Y-84986944D01*
X154765378Y-84991851D01*
X154765379Y-84991852D01*
X154854890Y-85091264D01*
X154888747Y-85128866D01*
X154901556Y-85138172D01*
X155022768Y-85226238D01*
X155043248Y-85241118D01*
X155049276Y-85243802D01*
X155049278Y-85243803D01*
X155211681Y-85316109D01*
X155217712Y-85318794D01*
X155298749Y-85336019D01*
X155398056Y-85357128D01*
X155398061Y-85357128D01*
X155404513Y-85358500D01*
X155595487Y-85358500D01*
X155601939Y-85357128D01*
X155601944Y-85357128D01*
X155701251Y-85336019D01*
X155782288Y-85318794D01*
X155788319Y-85316109D01*
X155950722Y-85243803D01*
X155950724Y-85243802D01*
X155956752Y-85241118D01*
X155977233Y-85226238D01*
X156098444Y-85138172D01*
X156111253Y-85128866D01*
X156115668Y-85123963D01*
X156120580Y-85119540D01*
X156121705Y-85120789D01*
X156175014Y-85087949D01*
X156208200Y-85083500D01*
X156641800Y-85083500D01*
X156709921Y-85103502D01*
X156729147Y-85119843D01*
X156729420Y-85119540D01*
X156734332Y-85123963D01*
X156738747Y-85128866D01*
X156751556Y-85138172D01*
X156872768Y-85226238D01*
X156893248Y-85241118D01*
X156899276Y-85243802D01*
X156899278Y-85243803D01*
X157061681Y-85316109D01*
X157067712Y-85318794D01*
X157148751Y-85336019D01*
X157211223Y-85369747D01*
X157245545Y-85431897D01*
X157240817Y-85502736D01*
X157195093Y-85562290D01*
X157101896Y-85627911D01*
X157101894Y-85627913D01*
X157094554Y-85633081D01*
X157078339Y-85653430D01*
X157008700Y-85740820D01*
X157008698Y-85740823D01*
X157003780Y-85746995D01*
X156978140Y-85804046D01*
X156608473Y-86941765D01*
X156607777Y-86945095D01*
X156607776Y-86945100D01*
X156598127Y-86991290D01*
X156595682Y-87002991D01*
X156602163Y-87148504D01*
X156602975Y-87150883D01*
X156596287Y-87218298D01*
X156576008Y-87252029D01*
X156529940Y-87306931D01*
X156526976Y-87312323D01*
X156526973Y-87312327D01*
X156457126Y-87439378D01*
X156429936Y-87488837D01*
X156428073Y-87494710D01*
X156377860Y-87653005D01*
X156367170Y-87686703D01*
X156366484Y-87692820D01*
X156366483Y-87692824D01*
X156344871Y-87885504D01*
X156344031Y-87892992D01*
X156344547Y-87899136D01*
X156360754Y-88092137D01*
X156361401Y-88099846D01*
X156418618Y-88299387D01*
X156421436Y-88304869D01*
X156421437Y-88304873D01*
X156484521Y-88427620D01*
X156513504Y-88484015D01*
X156517335Y-88488849D01*
X156517336Y-88488850D01*
X156564779Y-88548708D01*
X156642443Y-88646696D01*
X156647130Y-88650685D01*
X156647133Y-88650688D01*
X156795833Y-88777241D01*
X156800525Y-88781234D01*
X156981729Y-88882506D01*
X157177079Y-88945978D01*
X157177080Y-88945979D01*
X157179152Y-88946652D01*
X157179025Y-88947043D01*
X157237902Y-88979279D01*
X157908432Y-89649809D01*
X157920812Y-89656569D01*
X157927546Y-89651528D01*
X157983258Y-89553456D01*
X157988252Y-89542240D01*
X158049850Y-89357068D01*
X158052570Y-89345096D01*
X158077360Y-89148870D01*
X158077851Y-89141845D01*
X158078167Y-89119190D01*
X158077874Y-89112195D01*
X158058570Y-88915323D01*
X158056187Y-88903288D01*
X158042304Y-88857305D01*
X158041763Y-88786310D01*
X158079691Y-88726294D01*
X158085352Y-88721598D01*
X158090499Y-88717577D01*
X158141044Y-88678087D01*
X158276682Y-88520948D01*
X158379216Y-88340456D01*
X158444739Y-88143486D01*
X158470756Y-87937540D01*
X158471171Y-87907842D01*
X158467301Y-87868373D01*
X158480560Y-87798625D01*
X158503180Y-87768515D01*
X158505446Y-87766919D01*
X158564490Y-87692824D01*
X158591300Y-87659180D01*
X158591302Y-87659177D01*
X158596220Y-87653005D01*
X158621860Y-87595954D01*
X158991527Y-86458235D01*
X158992415Y-86453986D01*
X159002702Y-86404746D01*
X159002702Y-86404743D01*
X159004318Y-86397009D01*
X158997837Y-86251496D01*
X158992788Y-86236705D01*
X158953676Y-86122144D01*
X158953676Y-86122143D01*
X158950776Y-86113650D01*
X158899996Y-86041531D01*
X158872089Y-86001896D01*
X158872087Y-86001894D01*
X158866919Y-85994554D01*
X158814623Y-85952881D01*
X158759180Y-85908700D01*
X158759177Y-85908698D01*
X158753005Y-85903780D01*
X158695954Y-85878140D01*
X157666933Y-85543791D01*
X157608327Y-85503718D01*
X157580690Y-85438321D01*
X157592797Y-85368364D01*
X157640803Y-85316058D01*
X157654621Y-85308851D01*
X157800719Y-85243805D01*
X157800726Y-85243801D01*
X157806752Y-85241118D01*
X157827233Y-85226238D01*
X157948444Y-85138172D01*
X157961253Y-85128866D01*
X157995110Y-85091264D01*
X158084621Y-84991852D01*
X158084622Y-84991851D01*
X158089040Y-84986944D01*
X158184527Y-84821556D01*
X158243542Y-84639928D01*
X158244640Y-84629486D01*
X158262814Y-84456565D01*
X158263504Y-84450000D01*
X158262814Y-84443435D01*
X158244232Y-84266635D01*
X158244232Y-84266633D01*
X158243542Y-84260072D01*
X158184527Y-84078444D01*
X158089040Y-83913056D01*
X157961253Y-83771134D01*
X157862157Y-83699136D01*
X157812094Y-83662763D01*
X157812093Y-83662762D01*
X157806752Y-83658882D01*
X157800724Y-83656198D01*
X157800722Y-83656197D01*
X157638319Y-83583891D01*
X157638318Y-83583891D01*
X157632288Y-83581206D01*
X157538888Y-83561353D01*
X157451944Y-83542872D01*
X157451939Y-83542872D01*
X157445487Y-83541500D01*
X157254513Y-83541500D01*
X157248061Y-83542872D01*
X157248056Y-83542872D01*
X157161112Y-83561353D01*
X157067712Y-83581206D01*
X157061682Y-83583891D01*
X157061681Y-83583891D01*
X156899278Y-83656197D01*
X156899276Y-83656198D01*
X156893248Y-83658882D01*
X156887907Y-83662762D01*
X156887906Y-83662763D01*
X156790620Y-83733446D01*
X156738747Y-83771134D01*
X156734332Y-83776037D01*
X156729420Y-83780460D01*
X156728295Y-83779211D01*
X156674986Y-83812051D01*
X156641800Y-83816500D01*
X156208200Y-83816500D01*
X156140079Y-83796498D01*
X156120853Y-83780157D01*
X156120580Y-83780460D01*
X156115668Y-83776037D01*
X156111253Y-83771134D01*
X156059380Y-83733446D01*
X155962094Y-83662763D01*
X155962093Y-83662762D01*
X155956752Y-83658882D01*
X155950724Y-83656198D01*
X155950722Y-83656197D01*
X155788319Y-83583891D01*
X155788318Y-83583891D01*
X155782288Y-83581206D01*
X155688888Y-83561353D01*
X155601944Y-83542872D01*
X155601939Y-83542872D01*
X155595487Y-83541500D01*
X155404513Y-83541500D01*
X155398061Y-83542872D01*
X155398056Y-83542872D01*
X155311112Y-83561353D01*
X155217712Y-83581206D01*
X155211682Y-83583891D01*
X155211681Y-83583891D01*
X155049278Y-83656197D01*
X155049276Y-83656198D01*
X155043248Y-83658882D01*
X155037907Y-83662762D01*
X155037906Y-83662763D01*
X154987843Y-83699136D01*
X154888747Y-83771134D01*
X154760960Y-83913056D01*
X154665473Y-84078444D01*
X154606458Y-84260072D01*
X154605768Y-84266633D01*
X154605768Y-84266635D01*
X154587186Y-84443435D01*
X154586496Y-84450000D01*
X148752559Y-84450000D01*
X148762263Y-84373186D01*
X148762754Y-84366161D01*
X148763070Y-84343506D01*
X148762777Y-84336511D01*
X148743473Y-84139639D01*
X148741090Y-84127604D01*
X148684683Y-83940777D01*
X148680012Y-83929443D01*
X148591270Y-83762543D01*
X148576951Y-83693006D01*
X148592966Y-83641153D01*
X148648797Y-83542872D01*
X148671667Y-83502614D01*
X148737190Y-83305644D01*
X148763207Y-83099698D01*
X148763622Y-83070000D01*
X148753661Y-82968416D01*
X148743966Y-82869534D01*
X148743965Y-82869531D01*
X148743365Y-82863408D01*
X148691025Y-82690046D01*
X148690484Y-82619052D01*
X148698494Y-82599535D01*
X148700615Y-82596705D01*
X148751745Y-82460316D01*
X148758500Y-82398134D01*
X148758500Y-81201866D01*
X148751745Y-81139684D01*
X148700615Y-81003295D01*
X148613261Y-80886739D01*
X148496705Y-80799385D01*
X148360316Y-80748255D01*
X148298134Y-80741500D01*
X147766216Y-80741500D01*
X147698095Y-80721498D01*
X147651602Y-80667842D01*
X147641498Y-80597568D01*
X147642029Y-80594584D01*
X147643542Y-80589928D01*
X147663504Y-80400000D01*
X147662814Y-80393435D01*
X147662814Y-80386829D01*
X147664123Y-80386829D01*
X147675619Y-80323949D01*
X147699065Y-80291515D01*
X148160136Y-79830444D01*
X148222448Y-79796418D01*
X148249231Y-79793539D01*
X148305124Y-79793539D01*
X148311576Y-79792167D01*
X148311581Y-79792167D01*
X148398525Y-79773686D01*
X148491925Y-79753833D01*
X148519466Y-79741571D01*
X148660359Y-79678842D01*
X148660361Y-79678841D01*
X148666389Y-79676157D01*
X148678722Y-79667197D01*
X148805872Y-79574816D01*
X148820890Y-79563905D01*
X148825312Y-79558994D01*
X148944258Y-79426891D01*
X148944259Y-79426890D01*
X148948677Y-79421983D01*
X149025121Y-79289579D01*
X149040860Y-79262318D01*
X149040861Y-79262317D01*
X149044164Y-79256595D01*
X149103179Y-79074967D01*
X149110153Y-79008619D01*
X149122451Y-78891604D01*
X149123141Y-78885039D01*
X149104531Y-78707970D01*
X149103869Y-78701674D01*
X149103869Y-78701672D01*
X149103179Y-78695111D01*
X149044164Y-78513483D01*
X148948677Y-78348095D01*
X148896166Y-78289775D01*
X148825312Y-78211084D01*
X148825311Y-78211083D01*
X148820890Y-78206173D01*
X148711610Y-78126776D01*
X148671731Y-78097802D01*
X148671730Y-78097801D01*
X148666389Y-78093921D01*
X148660361Y-78091237D01*
X148660359Y-78091236D01*
X148497956Y-78018930D01*
X148497955Y-78018930D01*
X148491925Y-78016245D01*
X148398525Y-77996392D01*
X148311581Y-77977911D01*
X148311576Y-77977911D01*
X148305124Y-77976539D01*
X148114150Y-77976539D01*
X148107698Y-77977911D01*
X148107693Y-77977911D01*
X148020749Y-77996392D01*
X147927349Y-78016245D01*
X147921319Y-78018930D01*
X147921318Y-78018930D01*
X147758915Y-78091236D01*
X147758913Y-78091237D01*
X147752885Y-78093921D01*
X147747544Y-78097801D01*
X147747543Y-78097802D01*
X147707664Y-78126776D01*
X147598384Y-78206173D01*
X147593963Y-78211083D01*
X147593962Y-78211084D01*
X147523109Y-78289775D01*
X147470597Y-78348095D01*
X147375110Y-78513483D01*
X147316095Y-78695111D01*
X147315405Y-78701672D01*
X147315405Y-78701674D01*
X147314743Y-78707970D01*
X147298874Y-78858965D01*
X147298730Y-78860331D01*
X147271717Y-78925988D01*
X147262515Y-78936256D01*
X146744176Y-79454595D01*
X146681864Y-79488621D01*
X146667613Y-79490153D01*
X146667682Y-79490810D01*
X146661115Y-79491500D01*
X146654513Y-79491500D01*
X146648061Y-79492872D01*
X146648056Y-79492872D01*
X146592854Y-79504606D01*
X146467712Y-79531206D01*
X146461682Y-79533891D01*
X146461681Y-79533891D01*
X146299278Y-79606197D01*
X146299276Y-79606198D01*
X146293248Y-79608882D01*
X146138747Y-79721134D01*
X146134326Y-79726044D01*
X146134325Y-79726045D01*
X146068787Y-79798833D01*
X146010960Y-79863056D01*
X145915473Y-80028444D01*
X145856458Y-80210072D01*
X145844011Y-80328504D01*
X145842126Y-80346438D01*
X145815113Y-80412095D01*
X145756892Y-80452725D01*
X145685947Y-80455428D01*
X145626485Y-80421111D01*
X145414280Y-80202896D01*
X145414276Y-80202892D01*
X145412290Y-80200850D01*
X145410132Y-80199000D01*
X145410122Y-80198991D01*
X145204464Y-80022721D01*
X145087630Y-79922582D01*
X144739087Y-79674885D01*
X144538992Y-79558427D01*
X144372001Y-79461236D01*
X144371996Y-79461233D01*
X144369528Y-79459797D01*
X144122103Y-79344421D01*
X143984592Y-79280298D01*
X143984582Y-79280294D01*
X143981996Y-79279088D01*
X143919520Y-79256595D01*
X143582371Y-79135213D01*
X143582362Y-79135210D01*
X143579681Y-79134245D01*
X143298860Y-79061097D01*
X143168663Y-79027183D01*
X143168657Y-79027182D01*
X143165894Y-79026462D01*
X142744041Y-78956625D01*
X142741198Y-78956416D01*
X142741196Y-78956416D01*
X142320441Y-78925518D01*
X142317595Y-78925309D01*
X142139858Y-78928411D01*
X141892917Y-78932721D01*
X141892912Y-78932721D01*
X141890066Y-78932771D01*
X141887233Y-78933079D01*
X141887229Y-78933079D01*
X141593707Y-78964966D01*
X141464973Y-78978951D01*
X141045815Y-79063468D01*
X141043082Y-79064283D01*
X141043077Y-79064284D01*
X140808399Y-79134245D01*
X140636042Y-79185627D01*
X140633214Y-79186758D01*
X140633180Y-79186761D01*
X140630695Y-79187627D01*
X140630483Y-79187018D01*
X140562538Y-79193486D01*
X140499443Y-79160935D01*
X140463963Y-79099440D01*
X140467362Y-79028525D01*
X140476864Y-79007533D01*
X140548810Y-78880886D01*
X140553803Y-78869671D01*
X140557474Y-78858636D01*
X140597956Y-78800311D01*
X140667365Y-78772779D01*
X140799525Y-78762610D01*
X140799530Y-78762609D01*
X140805666Y-78762137D01*
X140811596Y-78760481D01*
X140811598Y-78760481D01*
X140914035Y-78731880D01*
X141005602Y-78706314D01*
X141014788Y-78701674D01*
X141185386Y-78615499D01*
X141185388Y-78615498D01*
X141190887Y-78612720D01*
X141354465Y-78484919D01*
X141490103Y-78327780D01*
X141509462Y-78293703D01*
X141558963Y-78206565D01*
X141562692Y-78200000D01*
X143936496Y-78200000D01*
X143937186Y-78206565D01*
X143955672Y-78382446D01*
X143956458Y-78389928D01*
X144015473Y-78571556D01*
X144018776Y-78577278D01*
X144018777Y-78577279D01*
X144041218Y-78616148D01*
X144110960Y-78736944D01*
X144115378Y-78741851D01*
X144115379Y-78741852D01*
X144230468Y-78869671D01*
X144238747Y-78878866D01*
X144317737Y-78936256D01*
X144387762Y-78987132D01*
X144393248Y-78991118D01*
X144399276Y-78993802D01*
X144399278Y-78993803D01*
X144557582Y-79064284D01*
X144567712Y-79068794D01*
X144661113Y-79088647D01*
X144748056Y-79107128D01*
X144748061Y-79107128D01*
X144754513Y-79108500D01*
X144945487Y-79108500D01*
X144951939Y-79107128D01*
X144951944Y-79107128D01*
X145038887Y-79088647D01*
X145132288Y-79068794D01*
X145142418Y-79064284D01*
X145300722Y-78993803D01*
X145300724Y-78993802D01*
X145306752Y-78991118D01*
X145312239Y-78987132D01*
X145382263Y-78936256D01*
X145461253Y-78878866D01*
X145469532Y-78869671D01*
X145584621Y-78741852D01*
X145584622Y-78741851D01*
X145589040Y-78736944D01*
X145658782Y-78616148D01*
X145681223Y-78577279D01*
X145681224Y-78577278D01*
X145684527Y-78571556D01*
X145743542Y-78389928D01*
X145744329Y-78382446D01*
X145755232Y-78278703D01*
X145760907Y-78224706D01*
X145787920Y-78159050D01*
X145797122Y-78148782D01*
X145850499Y-78095405D01*
X145912811Y-78061379D01*
X145939594Y-78058500D01*
X145995487Y-78058500D01*
X146001939Y-78057128D01*
X146001944Y-78057128D01*
X146119420Y-78032157D01*
X146182288Y-78018794D01*
X146191095Y-78014873D01*
X146350722Y-77943803D01*
X146350724Y-77943802D01*
X146356752Y-77941118D01*
X146366657Y-77933922D01*
X146445403Y-77876709D01*
X146511253Y-77828866D01*
X146606929Y-77722607D01*
X146634621Y-77691852D01*
X146634622Y-77691851D01*
X146639040Y-77686944D01*
X146734527Y-77521556D01*
X146793542Y-77339928D01*
X146797080Y-77306271D01*
X146812814Y-77156565D01*
X146813504Y-77150000D01*
X146806510Y-77083452D01*
X146794232Y-76966635D01*
X146794232Y-76966633D01*
X146793542Y-76960072D01*
X146734527Y-76778444D01*
X146639040Y-76613056D01*
X146511253Y-76471134D01*
X146356752Y-76358882D01*
X146350724Y-76356198D01*
X146350722Y-76356197D01*
X146188319Y-76283891D01*
X146188318Y-76283891D01*
X146182288Y-76281206D01*
X146080005Y-76259465D01*
X146001944Y-76242872D01*
X146001939Y-76242872D01*
X145995487Y-76241500D01*
X145804513Y-76241500D01*
X145798061Y-76242872D01*
X145798056Y-76242872D01*
X145719995Y-76259465D01*
X145617712Y-76281206D01*
X145611682Y-76283891D01*
X145611681Y-76283891D01*
X145449278Y-76356197D01*
X145449276Y-76356198D01*
X145443248Y-76358882D01*
X145288747Y-76471134D01*
X145160960Y-76613056D01*
X145065473Y-76778444D01*
X145006458Y-76960072D01*
X145005768Y-76966633D01*
X145005768Y-76966635D01*
X145001510Y-77007153D01*
X144989738Y-77119159D01*
X144989093Y-77125292D01*
X144962080Y-77190949D01*
X144952878Y-77201217D01*
X144899500Y-77254595D01*
X144837188Y-77288621D01*
X144810405Y-77291500D01*
X144754513Y-77291500D01*
X144748061Y-77292872D01*
X144748056Y-77292872D01*
X144696119Y-77303912D01*
X144567712Y-77331206D01*
X144561682Y-77333891D01*
X144561681Y-77333891D01*
X144399278Y-77406197D01*
X144399276Y-77406198D01*
X144393248Y-77408882D01*
X144387907Y-77412762D01*
X144387906Y-77412763D01*
X144363327Y-77430621D01*
X144238747Y-77521134D01*
X144234326Y-77526044D01*
X144234325Y-77526045D01*
X144229548Y-77531351D01*
X144110960Y-77663056D01*
X144015473Y-77828444D01*
X143956458Y-78010072D01*
X143955768Y-78016633D01*
X143955768Y-78016635D01*
X143940800Y-78159050D01*
X143936496Y-78200000D01*
X141562692Y-78200000D01*
X141592637Y-78147288D01*
X141658160Y-77950318D01*
X141684177Y-77744372D01*
X141684592Y-77714674D01*
X141671656Y-77582749D01*
X141664936Y-77514208D01*
X141664935Y-77514205D01*
X141664335Y-77508082D01*
X141610934Y-77331206D01*
X141606122Y-77315267D01*
X141606121Y-77315264D01*
X141604338Y-77309359D01*
X141594189Y-77290272D01*
X141509779Y-77131521D01*
X141509778Y-77131519D01*
X141506883Y-77126075D01*
X141446503Y-77052042D01*
X141379580Y-76969985D01*
X141379577Y-76969982D01*
X141375685Y-76965210D01*
X141369475Y-76960072D01*
X141220488Y-76836819D01*
X141220489Y-76836819D01*
X141215740Y-76832891D01*
X141210323Y-76829962D01*
X141210320Y-76829960D01*
X141038560Y-76737090D01*
X141038555Y-76737088D01*
X141033140Y-76734160D01*
X140834841Y-76672776D01*
X140828716Y-76672132D01*
X140828715Y-76672132D01*
X140634524Y-76651722D01*
X140634522Y-76651722D01*
X140628395Y-76651078D01*
X140542485Y-76658897D01*
X140427806Y-76669333D01*
X140427803Y-76669334D01*
X140421667Y-76669892D01*
X140415761Y-76671630D01*
X140415757Y-76671631D01*
X140267902Y-76715147D01*
X140222530Y-76728501D01*
X140038570Y-76824673D01*
X139876793Y-76954745D01*
X139872835Y-76959462D01*
X139872833Y-76959464D01*
X139849526Y-76987240D01*
X139743361Y-77113763D01*
X139740397Y-77119155D01*
X139740394Y-77119159D01*
X139682778Y-77223963D01*
X139643357Y-77295669D01*
X139641494Y-77301542D01*
X139639067Y-77307205D01*
X139636888Y-77306271D01*
X139603094Y-77356440D01*
X139534077Y-77384937D01*
X139387577Y-77398269D01*
X139375528Y-77400567D01*
X139188305Y-77455670D01*
X139176937Y-77460263D01*
X139048562Y-77527376D01*
X139038413Y-77537163D01*
X139040868Y-77544127D01*
X139648833Y-78152092D01*
X139671804Y-78183592D01*
X139726925Y-78290847D01*
X139818669Y-78406599D01*
X139845305Y-78472407D01*
X139832134Y-78542171D01*
X139809017Y-78573956D01*
X139676393Y-78706580D01*
X139614081Y-78740606D01*
X139543266Y-78735541D01*
X139486430Y-78692994D01*
X139476047Y-78676639D01*
X139467051Y-78659719D01*
X139443538Y-78615499D01*
X139429132Y-78588405D01*
X139429131Y-78588403D01*
X139426236Y-78582959D01*
X139342471Y-78480253D01*
X139298933Y-78426869D01*
X139298930Y-78426866D01*
X139295038Y-78422094D01*
X139288093Y-78416348D01*
X139139841Y-78293703D01*
X139139842Y-78293703D01*
X139135093Y-78289775D01*
X139129676Y-78286846D01*
X139129673Y-78286844D01*
X139005395Y-78219648D01*
X138976228Y-78197907D01*
X138686949Y-77908628D01*
X138674569Y-77901868D01*
X138668181Y-77906650D01*
X138606463Y-78018914D01*
X138599206Y-78035846D01*
X138596822Y-78034824D01*
X138563446Y-78084340D01*
X138494460Y-78112812D01*
X138437132Y-78118029D01*
X138347159Y-78126217D01*
X138347156Y-78126218D01*
X138341020Y-78126776D01*
X138335114Y-78128514D01*
X138335110Y-78128515D01*
X138231362Y-78159050D01*
X138141883Y-78185385D01*
X137957923Y-78281557D01*
X137953123Y-78285417D01*
X137953122Y-78285417D01*
X137942816Y-78293703D01*
X137796146Y-78411629D01*
X137792188Y-78416346D01*
X137792186Y-78416348D01*
X137754154Y-78461673D01*
X137662714Y-78570647D01*
X137661859Y-78572202D01*
X137608044Y-78616148D01*
X137580103Y-78623419D01*
X137578693Y-78623373D01*
X137437643Y-78659719D01*
X137382832Y-78689852D01*
X137380036Y-78691810D01*
X137380034Y-78691811D01*
X136405691Y-79374053D01*
X136405684Y-79374059D01*
X136402907Y-79376003D01*
X136355845Y-79417203D01*
X136273448Y-79537315D01*
X136228075Y-79675725D01*
X136223373Y-79821307D01*
X131937943Y-79821307D01*
X134895035Y-78113979D01*
X134913958Y-78105059D01*
X134932858Y-78098003D01*
X134943791Y-78091861D01*
X134947613Y-78088856D01*
X134947883Y-78088676D01*
X134955473Y-78083183D01*
X135100293Y-77986883D01*
X135179939Y-77933922D01*
X135212484Y-77905810D01*
X135391898Y-77750832D01*
X135391900Y-77750830D01*
X135394895Y-77748243D01*
X135543809Y-77582749D01*
X135582245Y-77540034D01*
X135582248Y-77540031D01*
X135584891Y-77537093D01*
X135746932Y-77303801D01*
X135878463Y-77052042D01*
X135958448Y-76836819D01*
X135976037Y-76789491D01*
X135976039Y-76789483D01*
X135977413Y-76785787D01*
X136042220Y-76509232D01*
X136071863Y-76226736D01*
X136071780Y-76222783D01*
X136065959Y-75946717D01*
X136065958Y-75946711D01*
X136065875Y-75942752D01*
X136060814Y-75908500D01*
X136051512Y-75845556D01*
X136024351Y-75661756D01*
X135947944Y-75388179D01*
X135940956Y-75371556D01*
X135839391Y-75129973D01*
X135837860Y-75126331D01*
X135824995Y-75104048D01*
X135697812Y-74883766D01*
X135697808Y-74883760D01*
X135695834Y-74880341D01*
X135524103Y-74654085D01*
X135498996Y-74628444D01*
X135328142Y-74453956D01*
X135328135Y-74453950D01*
X135325376Y-74451132D01*
X135102784Y-74274678D01*
X134859837Y-74127507D01*
X134856226Y-74125899D01*
X134856221Y-74125896D01*
X134603980Y-74013547D01*
X134603972Y-74013544D01*
X134600364Y-74011937D01*
X134522114Y-73988297D01*
X134332249Y-73930937D01*
X134332242Y-73930935D01*
X134328454Y-73929791D01*
X134257054Y-73917699D01*
X134052301Y-73883024D01*
X134052293Y-73883023D01*
X134048395Y-73882363D01*
X134044438Y-73882196D01*
X134044436Y-73882196D01*
X133952203Y-73878309D01*
X133764600Y-73870401D01*
X133760658Y-73870731D01*
X133760656Y-73870731D01*
X133677634Y-73877680D01*
X133481542Y-73894094D01*
X133203685Y-73953067D01*
X133199943Y-73954369D01*
X133199942Y-73954369D01*
X133174970Y-73963056D01*
X132935406Y-74046392D01*
X132931855Y-74048153D01*
X132931853Y-74048154D01*
X132709963Y-74158201D01*
X132697961Y-74163396D01*
X132696059Y-74164104D01*
X132696050Y-74164108D01*
X132691494Y-74165805D01*
X132680556Y-74171938D01*
X132676733Y-74174939D01*
X132676725Y-74174944D01*
X132658526Y-74189228D01*
X132643734Y-74199229D01*
X131255584Y-75000702D01*
X130318902Y-75541511D01*
X130249908Y-75558250D01*
X130182816Y-75535031D01*
X130138928Y-75479224D01*
X130132179Y-75408549D01*
X130155274Y-75356564D01*
X130603269Y-74762055D01*
X130603273Y-74762050D01*
X130605322Y-74759330D01*
X130624529Y-74727110D01*
X130633304Y-74712390D01*
X130633305Y-74712388D01*
X130637349Y-74705604D01*
X130642079Y-74689587D01*
X130676055Y-74574513D01*
X130678596Y-74565908D01*
X130679043Y-74566040D01*
X130706104Y-74507109D01*
X130731844Y-74484980D01*
X130734222Y-74483779D01*
X130739077Y-74479986D01*
X130739080Y-74479984D01*
X130892939Y-74359776D01*
X130892940Y-74359775D01*
X130897800Y-74355978D01*
X131028946Y-74204043D01*
X131029414Y-74203501D01*
X131029414Y-74203500D01*
X131033438Y-74198839D01*
X131047281Y-74174472D01*
X131073960Y-74127507D01*
X131135972Y-74018347D01*
X131201495Y-73821377D01*
X131220806Y-73668518D01*
X131249186Y-73603443D01*
X131302386Y-73569106D01*
X131301383Y-73566520D01*
X131318564Y-73559856D01*
X131461337Y-73487736D01*
X131471621Y-73478091D01*
X131469383Y-73471447D01*
X131126152Y-73128216D01*
X131103996Y-73098275D01*
X131098470Y-73087881D01*
X131063945Y-73022951D01*
X131053114Y-73002580D01*
X131053113Y-73002578D01*
X131050218Y-72997134D01*
X130970998Y-72900000D01*
X130922915Y-72841044D01*
X130922912Y-72841041D01*
X130919020Y-72836269D01*
X130912075Y-72830523D01*
X130763823Y-72707878D01*
X130763824Y-72707878D01*
X130759075Y-72703950D01*
X130753658Y-72701021D01*
X130753655Y-72701019D01*
X130650731Y-72645369D01*
X130621564Y-72623628D01*
X130034913Y-72036977D01*
X130022533Y-72030217D01*
X130016145Y-72034999D01*
X129954427Y-72147263D01*
X129949599Y-72158527D01*
X129890586Y-72344560D01*
X129888038Y-72356548D01*
X129873352Y-72487478D01*
X129845881Y-72552944D01*
X129783714Y-72594306D01*
X129771779Y-72597819D01*
X129771775Y-72597821D01*
X129765865Y-72599560D01*
X129581905Y-72695732D01*
X129420128Y-72825804D01*
X129416170Y-72830521D01*
X129416168Y-72830523D01*
X129377971Y-72876045D01*
X129286696Y-72984822D01*
X129283732Y-72990214D01*
X129283729Y-72990218D01*
X129212179Y-73120367D01*
X129186692Y-73166728D01*
X129184829Y-73172601D01*
X129148829Y-73286088D01*
X129109166Y-73344973D01*
X129084631Y-73360296D01*
X129080342Y-73361538D01*
X129072773Y-73366351D01*
X129072770Y-73366352D01*
X128964092Y-73435454D01*
X128957427Y-73439692D01*
X128914610Y-73485288D01*
X128912560Y-73488008D01*
X128912557Y-73488012D01*
X128197779Y-74436555D01*
X128194678Y-74440670D01*
X128162651Y-74494396D01*
X128160415Y-74501968D01*
X128160414Y-74501971D01*
X128152778Y-74527833D01*
X128121404Y-74634092D01*
X128121259Y-74689587D01*
X128121150Y-74731384D01*
X128121023Y-74779748D01*
X128123520Y-74788370D01*
X128158537Y-74909293D01*
X128161538Y-74919658D01*
X128239692Y-75042573D01*
X128245451Y-75047981D01*
X128275584Y-75076277D01*
X128285288Y-75085390D01*
X128288008Y-75087440D01*
X128288012Y-75087443D01*
X129237945Y-75803269D01*
X129237950Y-75803273D01*
X129240670Y-75805322D01*
X129294396Y-75837349D01*
X129301970Y-75839585D01*
X129301976Y-75839588D01*
X129351630Y-75854249D01*
X129411298Y-75892722D01*
X129440693Y-75957348D01*
X129430483Y-76027606D01*
X129378951Y-76084208D01*
X127100177Y-77399897D01*
X127081163Y-77408851D01*
X127062494Y-77415805D01*
X127058257Y-77418181D01*
X127058250Y-77418184D01*
X127056057Y-77419414D01*
X127051556Y-77421938D01*
X127047728Y-77424943D01*
X127047452Y-77425127D01*
X127039850Y-77430621D01*
X126823945Y-77573955D01*
X126815172Y-77579779D01*
X126812171Y-77582368D01*
X126812164Y-77582373D01*
X126659359Y-77714183D01*
X126599982Y-77765402D01*
X126597326Y-77768350D01*
X126597325Y-77768351D01*
X126436078Y-77947326D01*
X126409760Y-77976538D01*
X126328130Y-78093921D01*
X126250068Y-78206173D01*
X126247507Y-78209855D01*
X126115785Y-78461673D01*
X126114402Y-78465390D01*
X126114400Y-78465394D01*
X126030872Y-78689852D01*
X126016670Y-78728017D01*
X126015764Y-78731877D01*
X126015763Y-78731880D01*
X126004741Y-78778838D01*
X125951727Y-79004685D01*
X125921981Y-79287312D01*
X125922063Y-79291263D01*
X125922063Y-79291271D01*
X125924823Y-79423717D01*
X125927900Y-79571438D01*
X125944326Y-79682737D01*
X125965368Y-79825307D01*
X125969393Y-79852581D01*
X125993208Y-79937893D01*
X126043798Y-80119120D01*
X126045803Y-80126304D01*
X126097134Y-80248423D01*
X126153617Y-80382797D01*
X126155925Y-80388289D01*
X126298023Y-80634401D01*
X126469852Y-80860758D01*
X126668704Y-81063788D01*
X126671806Y-81066246D01*
X126671807Y-81066247D01*
X126879206Y-81230593D01*
X126891439Y-81240287D01*
X126894822Y-81242335D01*
X127131161Y-81385424D01*
X127131168Y-81385428D01*
X127134543Y-81387471D01*
X127394182Y-81503016D01*
X127397970Y-81504159D01*
X127397973Y-81504160D01*
X127500730Y-81535162D01*
X127666257Y-81585102D01*
X127670172Y-81585763D01*
X127670171Y-81585763D01*
X127942560Y-81631769D01*
X127942566Y-81631770D01*
X127946476Y-81632430D01*
X128146503Y-81640762D01*
X128226456Y-81644092D01*
X128230418Y-81644257D01*
X128234370Y-81643924D01*
X128509665Y-81620725D01*
X128509667Y-81620725D01*
X128513603Y-81620393D01*
X128517466Y-81619571D01*
X128517470Y-81619570D01*
X128704642Y-81579722D01*
X128791561Y-81561217D01*
X129059909Y-81467661D01*
X129063442Y-81465906D01*
X129063448Y-81465903D01*
X129285396Y-81355620D01*
X129297385Y-81350420D01*
X129303858Y-81348003D01*
X129314791Y-81341862D01*
X129315699Y-81343479D01*
X129375924Y-81324636D01*
X129444387Y-81343433D01*
X129491819Y-81396260D01*
X129503362Y-81464661D01*
X129497695Y-81515180D01*
X129486482Y-81615150D01*
X129486998Y-81621294D01*
X129501207Y-81790500D01*
X129503852Y-81822004D01*
X129561069Y-82021545D01*
X129563887Y-82027027D01*
X129563888Y-82027031D01*
X129655955Y-82206173D01*
X129654537Y-82206902D01*
X129672429Y-82267544D01*
X129656844Y-82328409D01*
X129575816Y-82475798D01*
X129570988Y-82487062D01*
X129511975Y-82673095D01*
X129509427Y-82685084D01*
X129487672Y-82879032D01*
X129487501Y-82891301D01*
X129503831Y-83085774D01*
X129506044Y-83097833D01*
X129559839Y-83285438D01*
X129564355Y-83296843D01*
X129656378Y-83475900D01*
X129654747Y-83476738D01*
X129672396Y-83536573D01*
X129656811Y-83597429D01*
X129572387Y-83750995D01*
X129509621Y-83948861D01*
X129508935Y-83954978D01*
X129508934Y-83954982D01*
X129507989Y-83963408D01*
X129486482Y-84155150D01*
X129487435Y-84166495D01*
X129502299Y-84343506D01*
X129503852Y-84362004D01*
X129518042Y-84411490D01*
X129558656Y-84553131D01*
X129558205Y-84624126D01*
X129551188Y-84640889D01*
X129549385Y-84643295D01*
X129498255Y-84779684D01*
X129491500Y-84841866D01*
X129491500Y-85816071D01*
X129471498Y-85884192D01*
X129417842Y-85930685D01*
X129347568Y-85940789D01*
X129314991Y-85930677D01*
X129314804Y-85931143D01*
X129313025Y-85930429D01*
X129310554Y-85929437D01*
X129301426Y-85925346D01*
X129176629Y-85863336D01*
X129063448Y-85807097D01*
X129063442Y-85807094D01*
X129059909Y-85805339D01*
X128791561Y-85711783D01*
X128704642Y-85693278D01*
X128517470Y-85653430D01*
X128517466Y-85653429D01*
X128513603Y-85652607D01*
X128509667Y-85652275D01*
X128509665Y-85652275D01*
X128234370Y-85629076D01*
X128234369Y-85629076D01*
X128230418Y-85628743D01*
X128226456Y-85628908D01*
X128222423Y-85629076D01*
X127946476Y-85640570D01*
X127942566Y-85641230D01*
X127942560Y-85641231D01*
X127793891Y-85666341D01*
X127666257Y-85687898D01*
X127560441Y-85719823D01*
X127397973Y-85768840D01*
X127397970Y-85768841D01*
X127394182Y-85769984D01*
X127134543Y-85885529D01*
X127131168Y-85887572D01*
X127131161Y-85887576D01*
X127016575Y-85956951D01*
X126891439Y-86032713D01*
X126888341Y-86035168D01*
X126888338Y-86035170D01*
X126725502Y-86164204D01*
X126668704Y-86209212D01*
X126469852Y-86412242D01*
X126298023Y-86638599D01*
X126155925Y-86884711D01*
X126154395Y-86888351D01*
X126154393Y-86888355D01*
X126133305Y-86938525D01*
X126045803Y-87146696D01*
X126044740Y-87150505D01*
X126044739Y-87150507D01*
X126035684Y-87182946D01*
X125969393Y-87420419D01*
X125968815Y-87424335D01*
X125968814Y-87424340D01*
X125964882Y-87450982D01*
X125927900Y-87701562D01*
X125925620Y-87810988D01*
X125922347Y-87968127D01*
X125921981Y-87985688D01*
X122611114Y-87985688D01*
X122574467Y-87916764D01*
X122564607Y-87906683D01*
X122557480Y-87909251D01*
X122508516Y-87958215D01*
X122446204Y-87992241D01*
X122375389Y-87987176D01*
X122318553Y-87944629D01*
X122293742Y-87878109D01*
X122309865Y-87806883D01*
X122351950Y-87732800D01*
X122410067Y-87630496D01*
X122475590Y-87433526D01*
X122501607Y-87227580D01*
X122502022Y-87197882D01*
X122483532Y-87009310D01*
X122482366Y-86997416D01*
X122482365Y-86997413D01*
X122481765Y-86991290D01*
X122429052Y-86816692D01*
X122423552Y-86798475D01*
X122423551Y-86798472D01*
X122421768Y-86792567D01*
X122397630Y-86747170D01*
X122327209Y-86614729D01*
X122327208Y-86614727D01*
X122324313Y-86609283D01*
X122243169Y-86509790D01*
X122197010Y-86453193D01*
X122197007Y-86453190D01*
X122193115Y-86448418D01*
X122177173Y-86435229D01*
X122037918Y-86320027D01*
X122037919Y-86320027D01*
X122033170Y-86316099D01*
X122027753Y-86313170D01*
X122027750Y-86313168D01*
X121855990Y-86220298D01*
X121855985Y-86220296D01*
X121850570Y-86217368D01*
X121723888Y-86178153D01*
X121664729Y-86138903D01*
X121636182Y-86073899D01*
X121647310Y-86003780D01*
X121651810Y-85995170D01*
X121767423Y-85793299D01*
X121767423Y-85793298D01*
X121768845Y-85790816D01*
X121815965Y-85687898D01*
X121945655Y-85404629D01*
X121946844Y-85402032D01*
X121947789Y-85399347D01*
X121947794Y-85399336D01*
X122087924Y-85001415D01*
X122088875Y-84998715D01*
X122095641Y-84971977D01*
X122193064Y-84586965D01*
X122193065Y-84586961D01*
X122193767Y-84584186D01*
X122196315Y-84568102D01*
X122245101Y-84260072D01*
X122260657Y-84161856D01*
X122273838Y-83963408D01*
X122288879Y-83736953D01*
X122288879Y-83736942D01*
X122288995Y-83735202D01*
X122290029Y-83636500D01*
X122270632Y-83209346D01*
X122267137Y-83183827D01*
X122223995Y-82868890D01*
X122212601Y-82785708D01*
X122116413Y-82369073D01*
X122103043Y-82328409D01*
X121983754Y-81965586D01*
X121983751Y-81965579D01*
X121982861Y-81962871D01*
X121813042Y-81570444D01*
X121762990Y-81478641D01*
X121648675Y-81268972D01*
X121633628Y-81199588D01*
X121658481Y-81133084D01*
X121715344Y-81090573D01*
X121779010Y-81084208D01*
X122125184Y-81139037D01*
X122128586Y-81139203D01*
X122128592Y-81139204D01*
X122155326Y-81140511D01*
X122187657Y-81142092D01*
X122195393Y-81140511D01*
X122195394Y-81140511D01*
X122321573Y-81114725D01*
X122330366Y-81112928D01*
X122459152Y-81044883D01*
X122532382Y-80973794D01*
X122557223Y-80949680D01*
X122557224Y-80949679D01*
X122563664Y-80943427D01*
X122568532Y-80934842D01*
X122631605Y-80823587D01*
X122631606Y-80823585D01*
X122635500Y-80816716D01*
X122637572Y-80809091D01*
X122651003Y-80759656D01*
X122651005Y-80759646D01*
X122651899Y-80756356D01*
X122662728Y-80687988D01*
X122750837Y-80131685D01*
X122839037Y-79574816D01*
X122839615Y-79563008D01*
X122841038Y-79533891D01*
X122842092Y-79512343D01*
X122839902Y-79501624D01*
X122822649Y-79417203D01*
X122812928Y-79369634D01*
X122811576Y-79367075D01*
X122807620Y-79299254D01*
X122820822Y-79265416D01*
X122857270Y-79201256D01*
X122870339Y-79178250D01*
X122935862Y-78981280D01*
X122961879Y-78775334D01*
X122962294Y-78745636D01*
X122947896Y-78598794D01*
X122942638Y-78545170D01*
X122942637Y-78545167D01*
X122942037Y-78539044D01*
X122886775Y-78356003D01*
X122883824Y-78346229D01*
X122883823Y-78346226D01*
X122882040Y-78340321D01*
X122860798Y-78300370D01*
X122796917Y-78180230D01*
X122782597Y-78110693D01*
X122808144Y-78044452D01*
X122865449Y-78002539D01*
X122936316Y-77998260D01*
X122973598Y-78018887D01*
X122974783Y-78016717D01*
X123003059Y-78032157D01*
X123009793Y-78027116D01*
X123065505Y-77929044D01*
X123070499Y-77917828D01*
X123132097Y-77732656D01*
X123134817Y-77720684D01*
X123159607Y-77524458D01*
X123160098Y-77517433D01*
X123160414Y-77494778D01*
X123160121Y-77487783D01*
X123140817Y-77290911D01*
X123138434Y-77278876D01*
X123082027Y-77092049D01*
X123077353Y-77080707D01*
X123075416Y-77077064D01*
X123061099Y-77007526D01*
X123086650Y-76941286D01*
X123091288Y-76935585D01*
X123161121Y-76854682D01*
X123161127Y-76854674D01*
X123165149Y-76850014D01*
X123182885Y-76818794D01*
X123235166Y-76726762D01*
X123267683Y-76669522D01*
X123333206Y-76472552D01*
X123359223Y-76266606D01*
X123359638Y-76236908D01*
X123345438Y-76092084D01*
X123339982Y-76036442D01*
X123339981Y-76036439D01*
X123339381Y-76030316D01*
X123315133Y-75950000D01*
X126086496Y-75950000D01*
X126087186Y-75956565D01*
X126093409Y-76015769D01*
X126106458Y-76139928D01*
X126165473Y-76321556D01*
X126260960Y-76486944D01*
X126265378Y-76491851D01*
X126265379Y-76491852D01*
X126348169Y-76583800D01*
X126388747Y-76628866D01*
X126543248Y-76741118D01*
X126549276Y-76743802D01*
X126549278Y-76743803D01*
X126646227Y-76786967D01*
X126717712Y-76818794D01*
X126811113Y-76838647D01*
X126898056Y-76857128D01*
X126898061Y-76857128D01*
X126904513Y-76858500D01*
X127095487Y-76858500D01*
X127101939Y-76857128D01*
X127101944Y-76857128D01*
X127188887Y-76838647D01*
X127282288Y-76818794D01*
X127353773Y-76786967D01*
X127450722Y-76743803D01*
X127450724Y-76743802D01*
X127456752Y-76741118D01*
X127611253Y-76628866D01*
X127651831Y-76583800D01*
X127734621Y-76491852D01*
X127734622Y-76491851D01*
X127739040Y-76486944D01*
X127834527Y-76321556D01*
X127893542Y-76139928D01*
X127906592Y-76015769D01*
X127912814Y-75956565D01*
X127913504Y-75950000D01*
X127900487Y-75826146D01*
X127894232Y-75766635D01*
X127894232Y-75766633D01*
X127893542Y-75760072D01*
X127834527Y-75578444D01*
X127809463Y-75535031D01*
X127779542Y-75483207D01*
X127739040Y-75413056D01*
X127665863Y-75331785D01*
X127635147Y-75267779D01*
X127633500Y-75247476D01*
X127633500Y-74252524D01*
X127653502Y-74184403D01*
X127665858Y-74168221D01*
X127739040Y-74086944D01*
X127834527Y-73921556D01*
X127893542Y-73739928D01*
X127896433Y-73712428D01*
X127912814Y-73556565D01*
X127913504Y-73550000D01*
X127901910Y-73439692D01*
X127894232Y-73366635D01*
X127894232Y-73366633D01*
X127893542Y-73360072D01*
X127834527Y-73178444D01*
X127830265Y-73171061D01*
X127779496Y-73083128D01*
X127739040Y-73013056D01*
X127729608Y-73002580D01*
X127615675Y-72876045D01*
X127615674Y-72876044D01*
X127611253Y-72871134D01*
X127456752Y-72758882D01*
X127450724Y-72756198D01*
X127450722Y-72756197D01*
X127288319Y-72683891D01*
X127288318Y-72683891D01*
X127282288Y-72681206D01*
X127188888Y-72661353D01*
X127101944Y-72642872D01*
X127101939Y-72642872D01*
X127095487Y-72641500D01*
X126904513Y-72641500D01*
X126898061Y-72642872D01*
X126898056Y-72642872D01*
X126811112Y-72661353D01*
X126717712Y-72681206D01*
X126711682Y-72683891D01*
X126711681Y-72683891D01*
X126549278Y-72756197D01*
X126549276Y-72756198D01*
X126543248Y-72758882D01*
X126388747Y-72871134D01*
X126384326Y-72876044D01*
X126384325Y-72876045D01*
X126270393Y-73002580D01*
X126260960Y-73013056D01*
X126220504Y-73083128D01*
X126169736Y-73171061D01*
X126165473Y-73178444D01*
X126106458Y-73360072D01*
X126105768Y-73366633D01*
X126105768Y-73366635D01*
X126098090Y-73439692D01*
X126086496Y-73550000D01*
X126087186Y-73556565D01*
X126103568Y-73712428D01*
X126106458Y-73739928D01*
X126165473Y-73921556D01*
X126260960Y-74086944D01*
X126334137Y-74168215D01*
X126364853Y-74232221D01*
X126366500Y-74252524D01*
X126366500Y-75247476D01*
X126346498Y-75315597D01*
X126334142Y-75331779D01*
X126260960Y-75413056D01*
X126220458Y-75483207D01*
X126190538Y-75535031D01*
X126165473Y-75578444D01*
X126106458Y-75760072D01*
X126105768Y-75766633D01*
X126105768Y-75766635D01*
X126099513Y-75826146D01*
X126086496Y-75950000D01*
X123315133Y-75950000D01*
X123291030Y-75870166D01*
X123281168Y-75837501D01*
X123281167Y-75837498D01*
X123279384Y-75831593D01*
X123266345Y-75807070D01*
X123184825Y-75653755D01*
X123184824Y-75653753D01*
X123181929Y-75648309D01*
X123108479Y-75558250D01*
X123054626Y-75492219D01*
X123054623Y-75492216D01*
X123050731Y-75487444D01*
X123045610Y-75483207D01*
X122917565Y-75377279D01*
X122890786Y-75355125D01*
X122885369Y-75352196D01*
X122885366Y-75352194D01*
X122713606Y-75259324D01*
X122713601Y-75259322D01*
X122708186Y-75256394D01*
X122509887Y-75195010D01*
X122503762Y-75194366D01*
X122503761Y-75194366D01*
X122309570Y-75173956D01*
X122309568Y-75173956D01*
X122303441Y-75173312D01*
X122218921Y-75181004D01*
X122102852Y-75191567D01*
X122102849Y-75191568D01*
X122096713Y-75192126D01*
X122090807Y-75193864D01*
X122090803Y-75193865D01*
X121942948Y-75237381D01*
X121897576Y-75250735D01*
X121713616Y-75346907D01*
X121708816Y-75350767D01*
X121708815Y-75350767D01*
X121686394Y-75368794D01*
X121551839Y-75476979D01*
X121547881Y-75481696D01*
X121547879Y-75481698D01*
X121482552Y-75559552D01*
X121418407Y-75635997D01*
X121415443Y-75641389D01*
X121415440Y-75641393D01*
X121321370Y-75812506D01*
X121318403Y-75817903D01*
X121255637Y-76015769D01*
X121254951Y-76021886D01*
X121254950Y-76021890D01*
X121241710Y-76139928D01*
X121232498Y-76222058D01*
X121234131Y-76241500D01*
X121248611Y-76413938D01*
X121249868Y-76428912D01*
X121307085Y-76628453D01*
X121309903Y-76633935D01*
X121309904Y-76633939D01*
X121395815Y-76801103D01*
X121409163Y-76870833D01*
X121382693Y-76936711D01*
X121324808Y-76977819D01*
X121253888Y-76981107D01*
X121221077Y-76962653D01*
X121219542Y-76965464D01*
X121191266Y-76950024D01*
X121184878Y-76954806D01*
X121123160Y-77067070D01*
X121118332Y-77078334D01*
X121059319Y-77264367D01*
X121056771Y-77276356D01*
X121035016Y-77470304D01*
X121034845Y-77482573D01*
X121051175Y-77677046D01*
X121053388Y-77689105D01*
X121107183Y-77876709D01*
X121111698Y-77888114D01*
X121120793Y-77905810D01*
X121134141Y-77975541D01*
X121105249Y-78044396D01*
X121021063Y-78144725D01*
X121018099Y-78150117D01*
X121018096Y-78150121D01*
X120947408Y-78278703D01*
X120921059Y-78326631D01*
X120858293Y-78524497D01*
X120857607Y-78530614D01*
X120857606Y-78530618D01*
X120840268Y-78685193D01*
X120835154Y-78730786D01*
X120835670Y-78736930D01*
X120851546Y-78925988D01*
X120852524Y-78937640D01*
X120854223Y-78943564D01*
X120855872Y-78949315D01*
X120855421Y-79020310D01*
X120837209Y-79055725D01*
X120836336Y-79056573D01*
X120831911Y-79064377D01*
X120831911Y-79064378D01*
X120771148Y-79171558D01*
X120764500Y-79183284D01*
X120762429Y-79190906D01*
X120762428Y-79190909D01*
X120748997Y-79240344D01*
X120748995Y-79240354D01*
X120748101Y-79243644D01*
X120747567Y-79247013D01*
X120747567Y-79247015D01*
X120736995Y-79313762D01*
X120656609Y-79821307D01*
X120655975Y-79825307D01*
X120625563Y-79889460D01*
X120565294Y-79926987D01*
X120494305Y-79925973D01*
X120458536Y-79908302D01*
X120304499Y-79798833D01*
X120130087Y-79674885D01*
X119929992Y-79558427D01*
X119763001Y-79461236D01*
X119762996Y-79461233D01*
X119760528Y-79459797D01*
X119513103Y-79344421D01*
X119375592Y-79280298D01*
X119375582Y-79280294D01*
X119372996Y-79279088D01*
X119310520Y-79256595D01*
X118973371Y-79135213D01*
X118973362Y-79135210D01*
X118970681Y-79134245D01*
X118689860Y-79061097D01*
X118559663Y-79027183D01*
X118559657Y-79027182D01*
X118556894Y-79026462D01*
X118135041Y-78956625D01*
X118132198Y-78956416D01*
X118132196Y-78956416D01*
X117711441Y-78925518D01*
X117708595Y-78925309D01*
X117530858Y-78928411D01*
X117283917Y-78932721D01*
X117283912Y-78932721D01*
X117281066Y-78932771D01*
X117278233Y-78933079D01*
X117278229Y-78933079D01*
X116984707Y-78964966D01*
X116855973Y-78978951D01*
X116436815Y-79063468D01*
X116434082Y-79064283D01*
X116434077Y-79064284D01*
X116199399Y-79134245D01*
X116027042Y-79185627D01*
X116024381Y-79186691D01*
X116024379Y-79186692D01*
X115690294Y-79320316D01*
X115630027Y-79344421D01*
X115571871Y-79374053D01*
X115251581Y-79537249D01*
X115251576Y-79537252D01*
X115249038Y-79538545D01*
X115246619Y-79540068D01*
X115246616Y-79540070D01*
X115132776Y-79611759D01*
X114887210Y-79766400D01*
X114547523Y-80026110D01*
X114545428Y-80028036D01*
X114545419Y-80028044D01*
X114234877Y-80313604D01*
X114232773Y-80315539D01*
X113945549Y-80632302D01*
X113943825Y-80634589D01*
X113943824Y-80634591D01*
X113898113Y-80695251D01*
X113688216Y-80973794D01*
X113462893Y-81337203D01*
X113455587Y-81351793D01*
X113451471Y-81360012D01*
X113403084Y-81411966D01*
X113334290Y-81429513D01*
X113266931Y-81407081D01*
X113222391Y-81351793D01*
X113218194Y-81340036D01*
X113183368Y-81224685D01*
X113179212Y-81216868D01*
X113088809Y-81046847D01*
X113088808Y-81046845D01*
X113085913Y-81041401D01*
X113024087Y-80965595D01*
X112958610Y-80885311D01*
X112958607Y-80885308D01*
X112954715Y-80880536D01*
X112947770Y-80874790D01*
X112799518Y-80752145D01*
X112799519Y-80752145D01*
X112794770Y-80748217D01*
X112789353Y-80745288D01*
X112789350Y-80745286D01*
X112617590Y-80652416D01*
X112617585Y-80652414D01*
X112612170Y-80649486D01*
X112413871Y-80588102D01*
X112407746Y-80587458D01*
X112407745Y-80587458D01*
X112213554Y-80567048D01*
X112213552Y-80567048D01*
X112207425Y-80566404D01*
X112132531Y-80573220D01*
X112006836Y-80584659D01*
X112006833Y-80584660D01*
X112000697Y-80585218D01*
X111994791Y-80586956D01*
X111994787Y-80586957D01*
X111907759Y-80612571D01*
X111801560Y-80643827D01*
X111617600Y-80739999D01*
X111612800Y-80743859D01*
X111612799Y-80743859D01*
X111595833Y-80757500D01*
X111455823Y-80870071D01*
X111451865Y-80874788D01*
X111451863Y-80874790D01*
X111394270Y-80943427D01*
X111322391Y-81029089D01*
X111319427Y-81034481D01*
X111319424Y-81034485D01*
X111231167Y-81195024D01*
X111222387Y-81210995D01*
X111159621Y-81408861D01*
X111158935Y-81414978D01*
X111158934Y-81414982D01*
X111139139Y-81591458D01*
X111136482Y-81615150D01*
X111136998Y-81621294D01*
X111151207Y-81790500D01*
X111153852Y-81822004D01*
X111211069Y-82021545D01*
X111213887Y-82027027D01*
X111213888Y-82027031D01*
X111305955Y-82206173D01*
X111304537Y-82206902D01*
X111322429Y-82267544D01*
X111306844Y-82328409D01*
X111225816Y-82475798D01*
X111220988Y-82487062D01*
X111161975Y-82673095D01*
X111159427Y-82685084D01*
X111137672Y-82879032D01*
X111137501Y-82891301D01*
X111153831Y-83085774D01*
X111156044Y-83097833D01*
X111209839Y-83285438D01*
X111214355Y-83296843D01*
X111306378Y-83475900D01*
X111304747Y-83476738D01*
X111322396Y-83536573D01*
X111306811Y-83597429D01*
X111222387Y-83750995D01*
X111159621Y-83948861D01*
X111158935Y-83954978D01*
X111158934Y-83954982D01*
X111157989Y-83963408D01*
X111136482Y-84155150D01*
X105600000Y-84155150D01*
X105600000Y-82703539D01*
X105620002Y-82635418D01*
X105663000Y-82594420D01*
X124592320Y-71665512D01*
X130386377Y-71665512D01*
X130388832Y-71672476D01*
X130731148Y-72014792D01*
X130754119Y-72046293D01*
X130798871Y-72133371D01*
X130802702Y-72138205D01*
X130802703Y-72138206D01*
X130818809Y-72158527D01*
X130927810Y-72296052D01*
X130932497Y-72300041D01*
X130932500Y-72300044D01*
X131038109Y-72389924D01*
X131085892Y-72430590D01*
X131091269Y-72433595D01*
X131209041Y-72499416D01*
X131236665Y-72520309D01*
X131821946Y-73105590D01*
X131834326Y-73112350D01*
X131841060Y-73107309D01*
X131896772Y-73009237D01*
X131901766Y-72998021D01*
X131963364Y-72812849D01*
X131966084Y-72800877D01*
X131984521Y-72654937D01*
X132012903Y-72589860D01*
X132066781Y-72555087D01*
X132065865Y-72552725D01*
X132071616Y-72550494D01*
X132077548Y-72548838D01*
X132084580Y-72545286D01*
X132257332Y-72458023D01*
X132257334Y-72458022D01*
X132262833Y-72455244D01*
X132426411Y-72327443D01*
X132557418Y-72175669D01*
X132558025Y-72174966D01*
X132558025Y-72174965D01*
X132562049Y-72170304D01*
X132664583Y-71989812D01*
X132730106Y-71792842D01*
X132756123Y-71586896D01*
X132756387Y-71567977D01*
X132756489Y-71560720D01*
X132756489Y-71560716D01*
X132756538Y-71557198D01*
X132744186Y-71431226D01*
X132736882Y-71356732D01*
X132736881Y-71356729D01*
X132736281Y-71350606D01*
X132686676Y-71186304D01*
X132678068Y-71157791D01*
X132678067Y-71157788D01*
X132676284Y-71151883D01*
X132666126Y-71132779D01*
X132581725Y-70974045D01*
X132581724Y-70974043D01*
X132578829Y-70968599D01*
X132509892Y-70884074D01*
X132451526Y-70812509D01*
X132451523Y-70812506D01*
X132447631Y-70807734D01*
X132440686Y-70801988D01*
X132292434Y-70679343D01*
X132292435Y-70679343D01*
X132287686Y-70675415D01*
X132282269Y-70672486D01*
X132282266Y-70672484D01*
X132110506Y-70579614D01*
X132110501Y-70579612D01*
X132105086Y-70576684D01*
X131906787Y-70515300D01*
X131900662Y-70514656D01*
X131900661Y-70514656D01*
X131706470Y-70494246D01*
X131706468Y-70494246D01*
X131700341Y-70493602D01*
X131614431Y-70501421D01*
X131499752Y-70511857D01*
X131499749Y-70511858D01*
X131493613Y-70512416D01*
X131487707Y-70514154D01*
X131487703Y-70514155D01*
X131364160Y-70550516D01*
X131294476Y-70571025D01*
X131110516Y-70667197D01*
X131105716Y-70671057D01*
X131105715Y-70671057D01*
X131076733Y-70694359D01*
X130948739Y-70797269D01*
X130944781Y-70801986D01*
X130944779Y-70801988D01*
X130915073Y-70837390D01*
X130815307Y-70956287D01*
X130812343Y-70961679D01*
X130812340Y-70961683D01*
X130722127Y-71125781D01*
X130715303Y-71138193D01*
X130652537Y-71336059D01*
X130651851Y-71342176D01*
X130651850Y-71342180D01*
X130637075Y-71473904D01*
X130609604Y-71539371D01*
X130547434Y-71580733D01*
X130536277Y-71584017D01*
X130524895Y-71588615D01*
X130396526Y-71655725D01*
X130386377Y-71665512D01*
X124592320Y-71665512D01*
X129035893Y-69100000D01*
X133636496Y-69100000D01*
X133637186Y-69106565D01*
X133651768Y-69245301D01*
X133656458Y-69289928D01*
X133715473Y-69471556D01*
X133718776Y-69477278D01*
X133718777Y-69477279D01*
X133733621Y-69502989D01*
X133810960Y-69636944D01*
X133815378Y-69641851D01*
X133815379Y-69641852D01*
X133934325Y-69773955D01*
X133938747Y-69778866D01*
X134093248Y-69891118D01*
X134099276Y-69893802D01*
X134099278Y-69893803D01*
X134194037Y-69935992D01*
X134267712Y-69968794D01*
X134361112Y-69988647D01*
X134448056Y-70007128D01*
X134448061Y-70007128D01*
X134454513Y-70008500D01*
X134560406Y-70008500D01*
X134628527Y-70028502D01*
X134649501Y-70045405D01*
X135452878Y-70848782D01*
X135486904Y-70911094D01*
X135489092Y-70924703D01*
X135506458Y-71089928D01*
X135565473Y-71271556D01*
X135660960Y-71436944D01*
X135665378Y-71441851D01*
X135665379Y-71441852D01*
X135781666Y-71571002D01*
X135788747Y-71578866D01*
X135869331Y-71637414D01*
X135929815Y-71681358D01*
X135943248Y-71691118D01*
X135949276Y-71693802D01*
X135949278Y-71693803D01*
X136067708Y-71746531D01*
X136117712Y-71768794D01*
X136202056Y-71786722D01*
X136298056Y-71807128D01*
X136298061Y-71807128D01*
X136304513Y-71808500D01*
X136450633Y-71808500D01*
X136518754Y-71828502D01*
X136565247Y-71882158D01*
X136575351Y-71952432D01*
X136545857Y-72017012D01*
X136501882Y-72049607D01*
X136374778Y-72106197D01*
X136374776Y-72106198D01*
X136368748Y-72108882D01*
X136214247Y-72221134D01*
X136209826Y-72226044D01*
X136209825Y-72226045D01*
X136091220Y-72357770D01*
X136086460Y-72363056D01*
X135990973Y-72528444D01*
X135931958Y-72710072D01*
X135931268Y-72716633D01*
X135931268Y-72716635D01*
X135915438Y-72867251D01*
X135911996Y-72900000D01*
X135912686Y-72906565D01*
X135924919Y-73022951D01*
X135931958Y-73089928D01*
X135990973Y-73271556D01*
X136086460Y-73436944D01*
X136090878Y-73441851D01*
X136090879Y-73441852D01*
X136182345Y-73543435D01*
X136214247Y-73578866D01*
X136280546Y-73627035D01*
X136339528Y-73669888D01*
X136368748Y-73691118D01*
X136374776Y-73693802D01*
X136374778Y-73693803D01*
X136492478Y-73746206D01*
X136543212Y-73768794D01*
X136636613Y-73788647D01*
X136723556Y-73807128D01*
X136723561Y-73807128D01*
X136730013Y-73808500D01*
X136785906Y-73808500D01*
X136854027Y-73828502D01*
X136875001Y-73845405D01*
X136929595Y-73899999D01*
X136963621Y-73962311D01*
X136966500Y-73989094D01*
X136966500Y-76197476D01*
X136946498Y-76265597D01*
X136934142Y-76281779D01*
X136860960Y-76363056D01*
X136765473Y-76528444D01*
X136706458Y-76710072D01*
X136705768Y-76716633D01*
X136705768Y-76716635D01*
X136692537Y-76842520D01*
X136686496Y-76900000D01*
X136687186Y-76906565D01*
X136704056Y-77067070D01*
X136706458Y-77089928D01*
X136765473Y-77271556D01*
X136768776Y-77277278D01*
X136768777Y-77277279D01*
X136784090Y-77303801D01*
X136860960Y-77436944D01*
X136865378Y-77441851D01*
X136865379Y-77441852D01*
X136957468Y-77544127D01*
X136988747Y-77578866D01*
X137084329Y-77648311D01*
X137123880Y-77677046D01*
X137143248Y-77691118D01*
X137149276Y-77693802D01*
X137149278Y-77693803D01*
X137310093Y-77765402D01*
X137317712Y-77768794D01*
X137392139Y-77784614D01*
X137498056Y-77807128D01*
X137498061Y-77807128D01*
X137504513Y-77808500D01*
X137695487Y-77808500D01*
X137701939Y-77807128D01*
X137701944Y-77807128D01*
X137807861Y-77784614D01*
X137882288Y-77768794D01*
X137889907Y-77765402D01*
X138050722Y-77693803D01*
X138050724Y-77693802D01*
X138056752Y-77691118D01*
X138076121Y-77677046D01*
X138115671Y-77648311D01*
X138211253Y-77578866D01*
X138242532Y-77544127D01*
X138334621Y-77441852D01*
X138334622Y-77441851D01*
X138339040Y-77436944D01*
X138415910Y-77303801D01*
X138431223Y-77277279D01*
X138431224Y-77277278D01*
X138434527Y-77271556D01*
X138493542Y-77089928D01*
X138495945Y-77067070D01*
X138512814Y-76906565D01*
X138513504Y-76900000D01*
X138507463Y-76842520D01*
X138494232Y-76716635D01*
X138494232Y-76716633D01*
X138493542Y-76710072D01*
X138434527Y-76528444D01*
X138339040Y-76363056D01*
X138265863Y-76281785D01*
X138235147Y-76217779D01*
X138233500Y-76197476D01*
X138233500Y-74473361D01*
X138253502Y-74405240D01*
X138307158Y-74358747D01*
X138377432Y-74348643D01*
X138437764Y-74374615D01*
X138582931Y-74489676D01*
X138645936Y-74527835D01*
X138693840Y-74580231D01*
X138705812Y-74650211D01*
X138700494Y-74674544D01*
X138697628Y-74683365D01*
X138656458Y-74810072D01*
X138655768Y-74816633D01*
X138655768Y-74816635D01*
X138645846Y-74911039D01*
X138636496Y-75000000D01*
X138637186Y-75006565D01*
X138654712Y-75173312D01*
X138656458Y-75189928D01*
X138715473Y-75371556D01*
X138718776Y-75377278D01*
X138718777Y-75377279D01*
X138736602Y-75408153D01*
X138810960Y-75536944D01*
X138815378Y-75541851D01*
X138815379Y-75541852D01*
X138930350Y-75669540D01*
X138938747Y-75678866D01*
X139093248Y-75791118D01*
X139099276Y-75793802D01*
X139099278Y-75793803D01*
X139230946Y-75852425D01*
X139267712Y-75868794D01*
X139361112Y-75888647D01*
X139448056Y-75907128D01*
X139448061Y-75907128D01*
X139454513Y-75908500D01*
X139645487Y-75908500D01*
X139651939Y-75907128D01*
X139651944Y-75907128D01*
X139738888Y-75888647D01*
X139832288Y-75868794D01*
X139869054Y-75852425D01*
X140000722Y-75793803D01*
X140000724Y-75793802D01*
X140006752Y-75791118D01*
X140042800Y-75764928D01*
X140147495Y-75688862D01*
X140161253Y-75678866D01*
X140165668Y-75673963D01*
X140170580Y-75669540D01*
X140171705Y-75670789D01*
X140225014Y-75637949D01*
X140258200Y-75633500D01*
X142921233Y-75633500D01*
X142932416Y-75634027D01*
X142939909Y-75635702D01*
X142947835Y-75635453D01*
X142947836Y-75635453D01*
X143007986Y-75633562D01*
X143011945Y-75633500D01*
X143039856Y-75633500D01*
X143043791Y-75633003D01*
X143043856Y-75632995D01*
X143055693Y-75632062D01*
X143087951Y-75631048D01*
X143091970Y-75630922D01*
X143099889Y-75630673D01*
X143119343Y-75625021D01*
X143138700Y-75621013D01*
X143150930Y-75619468D01*
X143150931Y-75619468D01*
X143158797Y-75618474D01*
X143166168Y-75615555D01*
X143166170Y-75615555D01*
X143199912Y-75602196D01*
X143211142Y-75598351D01*
X143245983Y-75588229D01*
X143245984Y-75588229D01*
X143253593Y-75586018D01*
X143260412Y-75581985D01*
X143260417Y-75581983D01*
X143271028Y-75575707D01*
X143288776Y-75567012D01*
X143307617Y-75559552D01*
X143343387Y-75533564D01*
X143353307Y-75527048D01*
X143384535Y-75508580D01*
X143384538Y-75508578D01*
X143391362Y-75504542D01*
X143405683Y-75490221D01*
X143420717Y-75477380D01*
X143430538Y-75470245D01*
X143437107Y-75465472D01*
X143446442Y-75454187D01*
X143505275Y-75414447D01*
X143543529Y-75408500D01*
X143595487Y-75408500D01*
X143601939Y-75407128D01*
X143601944Y-75407128D01*
X143708256Y-75384530D01*
X143782288Y-75368794D01*
X143804167Y-75359053D01*
X143950722Y-75293803D01*
X143950724Y-75293802D01*
X143956752Y-75291118D01*
X144111253Y-75178866D01*
X144148070Y-75137977D01*
X144234621Y-75041852D01*
X144234622Y-75041851D01*
X144239040Y-75036944D01*
X144277184Y-74970877D01*
X147659101Y-74970877D01*
X147664011Y-74977435D01*
X147769152Y-75036198D01*
X147780390Y-75041107D01*
X147966000Y-75101415D01*
X147977974Y-75104048D01*
X148171772Y-75127157D01*
X148184022Y-75127414D01*
X148240502Y-75123068D01*
X148309956Y-75137785D01*
X148362234Y-75191103D01*
X148403133Y-75270684D01*
X148403138Y-75270692D01*
X148405955Y-75276173D01*
X148534894Y-75438854D01*
X148539581Y-75442843D01*
X148539584Y-75442846D01*
X148671236Y-75554890D01*
X148692976Y-75573392D01*
X148874180Y-75674664D01*
X149071603Y-75738810D01*
X149277725Y-75763389D01*
X149283860Y-75762917D01*
X149283862Y-75762917D01*
X149478555Y-75747936D01*
X149478560Y-75747935D01*
X149484696Y-75747463D01*
X149490626Y-75745807D01*
X149490628Y-75745807D01*
X149648805Y-75701643D01*
X149684632Y-75691640D01*
X149690132Y-75688862D01*
X149864416Y-75600825D01*
X149864418Y-75600824D01*
X149869917Y-75598046D01*
X150016510Y-75483515D01*
X150028634Y-75474043D01*
X150028635Y-75474042D01*
X150033495Y-75470245D01*
X150169133Y-75313106D01*
X150178941Y-75295842D01*
X150235186Y-75196832D01*
X150271667Y-75132614D01*
X150337190Y-74935644D01*
X150362994Y-74731384D01*
X150369487Y-74716497D01*
X150367104Y-74712789D01*
X150366607Y-74710227D01*
X150604329Y-74710227D01*
X150612392Y-74727110D01*
X150614000Y-74747176D01*
X150614000Y-80087172D01*
X150612500Y-80106556D01*
X150608814Y-80130230D01*
X150609634Y-80136500D01*
X150609536Y-80136500D01*
X150627376Y-80420062D01*
X150680615Y-80699152D01*
X150768414Y-80969369D01*
X150889388Y-81226450D01*
X151041628Y-81466343D01*
X151044153Y-81469395D01*
X151198670Y-81656173D01*
X151222735Y-81685263D01*
X151225625Y-81687977D01*
X151225626Y-81687978D01*
X151258487Y-81718836D01*
X151429851Y-81879758D01*
X151433054Y-81882085D01*
X151433055Y-81882086D01*
X151487725Y-81921806D01*
X151659711Y-82046762D01*
X151663180Y-82048669D01*
X151663183Y-82048671D01*
X151905228Y-82181736D01*
X151908690Y-82183639D01*
X151965605Y-82206173D01*
X152169177Y-82286773D01*
X152169180Y-82286774D01*
X152172860Y-82288231D01*
X152176694Y-82289215D01*
X152176702Y-82289218D01*
X152310721Y-82323628D01*
X152448057Y-82358890D01*
X152451985Y-82359386D01*
X152451989Y-82359387D01*
X152550693Y-82371856D01*
X152729939Y-82394500D01*
X153014061Y-82394500D01*
X153193307Y-82371856D01*
X153292011Y-82359387D01*
X153292015Y-82359386D01*
X153295943Y-82358890D01*
X153433279Y-82323628D01*
X153567298Y-82289218D01*
X153567306Y-82289215D01*
X153571140Y-82288231D01*
X153574820Y-82286774D01*
X153574823Y-82286773D01*
X153778395Y-82206173D01*
X153835310Y-82183639D01*
X153838772Y-82181736D01*
X154080817Y-82048671D01*
X154080820Y-82048669D01*
X154084289Y-82046762D01*
X154256275Y-81921806D01*
X154310945Y-81882086D01*
X154310946Y-81882085D01*
X154314149Y-81879758D01*
X154485513Y-81718836D01*
X154518374Y-81687978D01*
X154518375Y-81687977D01*
X154521265Y-81685263D01*
X154545331Y-81656173D01*
X154699847Y-81469395D01*
X154702372Y-81466343D01*
X154854612Y-81226450D01*
X154975586Y-80969369D01*
X155063385Y-80699152D01*
X155095906Y-80528672D01*
X156650418Y-80528672D01*
X156650934Y-80534816D01*
X156665248Y-80705273D01*
X156667788Y-80735526D01*
X156725005Y-80935067D01*
X156727823Y-80940549D01*
X156727824Y-80940553D01*
X156815830Y-81111794D01*
X156819891Y-81119695D01*
X156823722Y-81124529D01*
X156823723Y-81124530D01*
X156837770Y-81142253D01*
X156948830Y-81282376D01*
X156953517Y-81286365D01*
X156953520Y-81286368D01*
X157101098Y-81411966D01*
X157106912Y-81416914D01*
X157288116Y-81518186D01*
X157485539Y-81582332D01*
X157691661Y-81606911D01*
X157697796Y-81606439D01*
X157697798Y-81606439D01*
X157892491Y-81591458D01*
X157892496Y-81591457D01*
X157898632Y-81590985D01*
X157904562Y-81589329D01*
X157904564Y-81589329D01*
X158005249Y-81561217D01*
X158098568Y-81535162D01*
X158159942Y-81504160D01*
X158278352Y-81444347D01*
X158278354Y-81444346D01*
X158283853Y-81441568D01*
X158433519Y-81324636D01*
X158442570Y-81317565D01*
X158442571Y-81317564D01*
X158447431Y-81313767D01*
X158569865Y-81171925D01*
X158579045Y-81161290D01*
X158579045Y-81161289D01*
X158583069Y-81156628D01*
X158592356Y-81140281D01*
X158644168Y-81049075D01*
X158685603Y-80976136D01*
X158751126Y-80779166D01*
X158777143Y-80573220D01*
X158777558Y-80543522D01*
X158761834Y-80383155D01*
X158757902Y-80343056D01*
X158757901Y-80343053D01*
X158757301Y-80336930D01*
X158702026Y-80153848D01*
X158699088Y-80144115D01*
X158699087Y-80144112D01*
X158697304Y-80138207D01*
X158690975Y-80126304D01*
X158602745Y-79960369D01*
X158602744Y-79960367D01*
X158599849Y-79954923D01*
X158546459Y-79889460D01*
X158472546Y-79798833D01*
X158472543Y-79798830D01*
X158468651Y-79794058D01*
X158405204Y-79741570D01*
X158365466Y-79682737D01*
X158363844Y-79611759D01*
X158365962Y-79604714D01*
X158377377Y-79570399D01*
X158380097Y-79558427D01*
X158404887Y-79362201D01*
X158405378Y-79355176D01*
X158405694Y-79332521D01*
X158405401Y-79325526D01*
X158386097Y-79128654D01*
X158383714Y-79116619D01*
X158327307Y-78929792D01*
X158322633Y-78918451D01*
X158258158Y-78797191D01*
X158248298Y-78787110D01*
X158241171Y-78789678D01*
X157562109Y-79468740D01*
X157508590Y-79500519D01*
X157315496Y-79557349D01*
X157131536Y-79653521D01*
X157126736Y-79657381D01*
X157126735Y-79657381D01*
X157103920Y-79675725D01*
X156969759Y-79783593D01*
X156965801Y-79788310D01*
X156965799Y-79788312D01*
X156903082Y-79863056D01*
X156836327Y-79942611D01*
X156833363Y-79948003D01*
X156833360Y-79948007D01*
X156756854Y-80087172D01*
X156736323Y-80124517D01*
X156673557Y-80322383D01*
X156672871Y-80328500D01*
X156672870Y-80328504D01*
X156654691Y-80490574D01*
X156650418Y-80528672D01*
X155095906Y-80528672D01*
X155116624Y-80420062D01*
X155129422Y-80216635D01*
X155132430Y-80168829D01*
X155133927Y-80155840D01*
X155134262Y-80153848D01*
X155134262Y-80153846D01*
X155135071Y-80149039D01*
X155135224Y-80136500D01*
X155131273Y-80108912D01*
X155130000Y-80091049D01*
X155130000Y-76576037D01*
X155401154Y-76576037D01*
X155402635Y-76583800D01*
X155411153Y-76628453D01*
X155412874Y-76637477D01*
X155413868Y-76640730D01*
X155413870Y-76640736D01*
X155757630Y-77765122D01*
X155762629Y-77781474D01*
X155787269Y-77838964D01*
X155825052Y-77888114D01*
X155868165Y-77944198D01*
X155876041Y-77954444D01*
X155877277Y-77955347D01*
X155910226Y-78013972D01*
X155912657Y-78056304D01*
X155907794Y-78099657D01*
X155908310Y-78105801D01*
X155923849Y-78290847D01*
X155925164Y-78306511D01*
X155982381Y-78506052D01*
X155985199Y-78511534D01*
X155985200Y-78511538D01*
X156043827Y-78625613D01*
X156077267Y-78690680D01*
X156081098Y-78695514D01*
X156081099Y-78695515D01*
X156109403Y-78731226D01*
X156206206Y-78853361D01*
X156210893Y-78857350D01*
X156210896Y-78857353D01*
X156282064Y-78917921D01*
X156320977Y-78977304D01*
X156320503Y-79051973D01*
X156304600Y-79102107D01*
X156302051Y-79114099D01*
X156280296Y-79308047D01*
X156280125Y-79320316D01*
X156296455Y-79514789D01*
X156298668Y-79526848D01*
X156352463Y-79714453D01*
X156356979Y-79725858D01*
X156426636Y-79861396D01*
X156436357Y-79871617D01*
X156443156Y-79869273D01*
X157124934Y-79187495D01*
X157180145Y-79155232D01*
X157350002Y-79107807D01*
X157350011Y-79107804D01*
X157355944Y-79106147D01*
X157369222Y-79099440D01*
X157535728Y-79015332D01*
X157535730Y-79015331D01*
X157541229Y-79012553D01*
X157704807Y-78884752D01*
X157824888Y-78745636D01*
X157836421Y-78732275D01*
X157836421Y-78732274D01*
X157840445Y-78727613D01*
X157852394Y-78706580D01*
X157907870Y-78608924D01*
X157942979Y-78547121D01*
X158008502Y-78350151D01*
X158021411Y-78247966D01*
X158718257Y-78247966D01*
X158748565Y-78382446D01*
X158751645Y-78392275D01*
X158831770Y-78589603D01*
X158836413Y-78598794D01*
X158947694Y-78780388D01*
X158953777Y-78788699D01*
X159093213Y-78949667D01*
X159100580Y-78956883D01*
X159264434Y-79092916D01*
X159272881Y-79098831D01*
X159456756Y-79206279D01*
X159466042Y-79210729D01*
X159665001Y-79286703D01*
X159674899Y-79289579D01*
X159778250Y-79310606D01*
X159792299Y-79309410D01*
X159796000Y-79299065D01*
X159796000Y-78252115D01*
X159791525Y-78236876D01*
X159790135Y-78235671D01*
X159782452Y-78234000D01*
X158733225Y-78234000D01*
X158719694Y-78237973D01*
X158718257Y-78247966D01*
X158021411Y-78247966D01*
X158034519Y-78144205D01*
X158034934Y-78114507D01*
X158019409Y-77956170D01*
X158015278Y-77914041D01*
X158015277Y-77914038D01*
X158014677Y-77907915D01*
X157970868Y-77762811D01*
X157956464Y-77715100D01*
X157956463Y-77715097D01*
X157954680Y-77709192D01*
X157946498Y-77693803D01*
X157860119Y-77531351D01*
X157857225Y-77525908D01*
X157814480Y-77473497D01*
X157786926Y-77408065D01*
X157788529Y-77372936D01*
X157789827Y-77369341D01*
X157793893Y-77303801D01*
X157798357Y-77231850D01*
X157798357Y-77231848D01*
X157798846Y-77223963D01*
X157792952Y-77193063D01*
X157787765Y-77165871D01*
X157787763Y-77165865D01*
X157787126Y-77162523D01*
X157785305Y-77156565D01*
X157438370Y-76021793D01*
X157438369Y-76021790D01*
X157437371Y-76018526D01*
X157412731Y-75961036D01*
X157323959Y-75845556D01*
X157206344Y-75759632D01*
X157197904Y-75756585D01*
X157197900Y-75756583D01*
X157077781Y-75713220D01*
X157077782Y-75713220D01*
X157069341Y-75710173D01*
X157060385Y-75709617D01*
X157060383Y-75709617D01*
X156931850Y-75701643D01*
X156931848Y-75701643D01*
X156923963Y-75701154D01*
X156899971Y-75705731D01*
X156865871Y-75712235D01*
X156865865Y-75712237D01*
X156862523Y-75712874D01*
X156859270Y-75713868D01*
X156859264Y-75713870D01*
X155721793Y-76061630D01*
X155721790Y-76061631D01*
X155718526Y-76062629D01*
X155661036Y-76087269D01*
X155545556Y-76176041D01*
X155459632Y-76293656D01*
X155456585Y-76302096D01*
X155456583Y-76302100D01*
X155437054Y-76356197D01*
X155410173Y-76430659D01*
X155409617Y-76439615D01*
X155409617Y-76439617D01*
X155403717Y-76534729D01*
X155401154Y-76576037D01*
X155130000Y-76576037D01*
X155130000Y-73689707D01*
X155131746Y-73668803D01*
X155132279Y-73665637D01*
X155135071Y-73649039D01*
X155135224Y-73636500D01*
X155134534Y-73631677D01*
X155134513Y-73631362D01*
X155133555Y-73622043D01*
X155127491Y-73525664D01*
X155116624Y-73352938D01*
X155063385Y-73073848D01*
X154975586Y-72803631D01*
X154854612Y-72546550D01*
X154702372Y-72306657D01*
X154611819Y-72197197D01*
X154523790Y-72090789D01*
X154523789Y-72090788D01*
X154521265Y-72087737D01*
X154314149Y-71893242D01*
X154251285Y-71847568D01*
X154189218Y-71802474D01*
X154084289Y-71726238D01*
X154064879Y-71715567D01*
X153838772Y-71591264D01*
X153838769Y-71591263D01*
X153835310Y-71589361D01*
X153609246Y-71499856D01*
X153574823Y-71486227D01*
X153574820Y-71486226D01*
X153571140Y-71484769D01*
X153567306Y-71483785D01*
X153567298Y-71483782D01*
X153362605Y-71431226D01*
X153295943Y-71414110D01*
X153292015Y-71413614D01*
X153292011Y-71413613D01*
X153180778Y-71399561D01*
X153014061Y-71378500D01*
X152729939Y-71378500D01*
X152563222Y-71399561D01*
X152451989Y-71413613D01*
X152451985Y-71413614D01*
X152448057Y-71414110D01*
X152381395Y-71431226D01*
X152176702Y-71483782D01*
X152176694Y-71483785D01*
X152172860Y-71484769D01*
X152169180Y-71486226D01*
X152169177Y-71486227D01*
X152134754Y-71499856D01*
X151908690Y-71589361D01*
X151905231Y-71591263D01*
X151905228Y-71591264D01*
X151679122Y-71715567D01*
X151659711Y-71726238D01*
X151554782Y-71802474D01*
X151492716Y-71847568D01*
X151429851Y-71893242D01*
X151222735Y-72087737D01*
X151220211Y-72090788D01*
X151220210Y-72090789D01*
X151132182Y-72197197D01*
X151041628Y-72306657D01*
X150889388Y-72546550D01*
X150768414Y-72803631D01*
X150680615Y-73073848D01*
X150627376Y-73352938D01*
X150613162Y-73578866D01*
X150611050Y-73612429D01*
X150610243Y-73619834D01*
X150610380Y-73620167D01*
X150608814Y-73630230D01*
X150609568Y-73635994D01*
X150609536Y-73636500D01*
X150609634Y-73636500D01*
X150610740Y-73644958D01*
X150610740Y-73644959D01*
X150612936Y-73661750D01*
X150614000Y-73678088D01*
X150614000Y-74677291D01*
X150604329Y-74710227D01*
X150366607Y-74710227D01*
X150362601Y-74689587D01*
X150343966Y-74499534D01*
X150343965Y-74499531D01*
X150343365Y-74493408D01*
X150296458Y-74338042D01*
X150285152Y-74300593D01*
X150285151Y-74300590D01*
X150283368Y-74294685D01*
X150280472Y-74289238D01*
X150188809Y-74116847D01*
X150188808Y-74116845D01*
X150185913Y-74111401D01*
X150110020Y-74018347D01*
X150058610Y-73955311D01*
X150058607Y-73955308D01*
X150054715Y-73950536D01*
X150047770Y-73944790D01*
X149907202Y-73828502D01*
X149894770Y-73818217D01*
X149889353Y-73815288D01*
X149889350Y-73815286D01*
X149717590Y-73722416D01*
X149717585Y-73722414D01*
X149712170Y-73719486D01*
X149513871Y-73658102D01*
X149507746Y-73657458D01*
X149507745Y-73657458D01*
X149313554Y-73637048D01*
X149313552Y-73637048D01*
X149307425Y-73636404D01*
X149260255Y-73640697D01*
X149190603Y-73626952D01*
X149137585Y-73574370D01*
X149115682Y-73533176D01*
X149105822Y-73523095D01*
X149098694Y-73525664D01*
X148933652Y-73690706D01*
X148900828Y-73712428D01*
X148901560Y-73713827D01*
X148717600Y-73809999D01*
X148555823Y-73940071D01*
X148551865Y-73944788D01*
X148551863Y-73944790D01*
X148478007Y-74032809D01*
X148422391Y-74099089D01*
X148419427Y-74104481D01*
X148419424Y-74104485D01*
X148349201Y-74232221D01*
X148322387Y-74280995D01*
X148320524Y-74286868D01*
X148318097Y-74292531D01*
X148316269Y-74291748D01*
X148290922Y-74333436D01*
X147665861Y-74958497D01*
X147659101Y-74970877D01*
X144277184Y-74970877D01*
X144306755Y-74919658D01*
X144331223Y-74877279D01*
X144331224Y-74877278D01*
X144334527Y-74871556D01*
X144393542Y-74689928D01*
X144397717Y-74650211D01*
X144412814Y-74506565D01*
X144413504Y-74500000D01*
X144407577Y-74443603D01*
X144394232Y-74316635D01*
X144394232Y-74316633D01*
X144393542Y-74310072D01*
X144334527Y-74128444D01*
X144327832Y-74116847D01*
X144285257Y-74043106D01*
X144239040Y-73963056D01*
X144232067Y-73955311D01*
X144115675Y-73826045D01*
X144115674Y-73826044D01*
X144111253Y-73821134D01*
X143971347Y-73719486D01*
X143962094Y-73712763D01*
X143962093Y-73712762D01*
X143956752Y-73708882D01*
X143950724Y-73706198D01*
X143950722Y-73706197D01*
X143788319Y-73633891D01*
X143788318Y-73633891D01*
X143782288Y-73631206D01*
X143687984Y-73611161D01*
X143601944Y-73592872D01*
X143601939Y-73592872D01*
X143595487Y-73591500D01*
X143404513Y-73591500D01*
X143398061Y-73592872D01*
X143398056Y-73592872D01*
X143312016Y-73611161D01*
X143217712Y-73631206D01*
X143211682Y-73633891D01*
X143211681Y-73633891D01*
X143049278Y-73706197D01*
X143049276Y-73706198D01*
X143043248Y-73708882D01*
X143037907Y-73712762D01*
X143037906Y-73712763D01*
X143028653Y-73719486D01*
X142888747Y-73821134D01*
X142884326Y-73826044D01*
X142884325Y-73826045D01*
X142767934Y-73955311D01*
X142760960Y-73963056D01*
X142714743Y-74043106D01*
X142672169Y-74116847D01*
X142665473Y-74128444D01*
X142650364Y-74174944D01*
X142616412Y-74279437D01*
X142576338Y-74338042D01*
X142510941Y-74365679D01*
X142496579Y-74366500D01*
X141855895Y-74366500D01*
X141787774Y-74346498D01*
X141741281Y-74292842D01*
X141731177Y-74222568D01*
X141760671Y-74157988D01*
X141792894Y-74131382D01*
X141827502Y-74111401D01*
X144016376Y-72847617D01*
X144706306Y-72449274D01*
X144775301Y-72432535D01*
X144842393Y-72455755D01*
X144886281Y-72511561D01*
X144893030Y-72582236D01*
X144878426Y-72621392D01*
X144784689Y-72783749D01*
X144759448Y-72840978D01*
X144758152Y-72848767D01*
X144758151Y-72848769D01*
X144754429Y-72871134D01*
X144735533Y-72984659D01*
X144752906Y-73129277D01*
X144765478Y-73158681D01*
X144805765Y-73252903D01*
X144810170Y-73263206D01*
X144902721Y-73375680D01*
X144953195Y-73412621D01*
X145989193Y-74010755D01*
X146046422Y-74035996D01*
X146054211Y-74037292D01*
X146054213Y-74037293D01*
X146181253Y-74058438D01*
X146190103Y-74059911D01*
X146192767Y-74059591D01*
X146257402Y-74080175D01*
X146285636Y-74106333D01*
X146329055Y-74161113D01*
X146335190Y-74168854D01*
X146339883Y-74172848D01*
X146339884Y-74172849D01*
X146466956Y-74280995D01*
X146493272Y-74303392D01*
X146674476Y-74404664D01*
X146871899Y-74468810D01*
X147078021Y-74493389D01*
X147084156Y-74492917D01*
X147084158Y-74492917D01*
X147126274Y-74489676D01*
X147141439Y-74488509D01*
X147210893Y-74503226D01*
X147263173Y-74556544D01*
X147284162Y-74597384D01*
X147293879Y-74607602D01*
X147300680Y-74605258D01*
X147469383Y-74436555D01*
X147501668Y-74413184D01*
X147664712Y-74330825D01*
X147664714Y-74330824D01*
X147670213Y-74328046D01*
X147833791Y-74200245D01*
X147969429Y-74043106D01*
X147980448Y-74023710D01*
X148038479Y-73921556D01*
X148071963Y-73862614D01*
X148076839Y-73847957D01*
X148107301Y-73798637D01*
X148734877Y-73171061D01*
X148741637Y-73158681D01*
X148736978Y-73152458D01*
X148617543Y-73087881D01*
X148606236Y-73083128D01*
X148419804Y-73025417D01*
X148407792Y-73022951D01*
X148213698Y-73002551D01*
X148201430Y-73002466D01*
X148161201Y-73006127D01*
X148091548Y-72992382D01*
X148038530Y-72939801D01*
X148032242Y-72927976D01*
X147986209Y-72841401D01*
X147918908Y-72758882D01*
X147858906Y-72685311D01*
X147858903Y-72685308D01*
X147855011Y-72680536D01*
X147824068Y-72654937D01*
X147699814Y-72552145D01*
X147699815Y-72552145D01*
X147695066Y-72548217D01*
X147689649Y-72545288D01*
X147689646Y-72545286D01*
X147517886Y-72452416D01*
X147517881Y-72452414D01*
X147512466Y-72449486D01*
X147334836Y-72394500D01*
X147320054Y-72389924D01*
X147320051Y-72389923D01*
X147314167Y-72388102D01*
X147282589Y-72384783D01*
X147216932Y-72357770D01*
X147191654Y-72328982D01*
X147190718Y-72326794D01*
X147176906Y-72310008D01*
X147103188Y-72220422D01*
X147098167Y-72214320D01*
X147047693Y-72177379D01*
X146301443Y-71746531D01*
X146252450Y-71695149D01*
X146239014Y-71625435D01*
X146265400Y-71559524D01*
X146301441Y-71528295D01*
X146585896Y-71364060D01*
X146604878Y-71355117D01*
X146623635Y-71348125D01*
X146628526Y-71345381D01*
X146630332Y-71344368D01*
X146630337Y-71344364D01*
X146634571Y-71341989D01*
X146638396Y-71338985D01*
X146638654Y-71338813D01*
X146646273Y-71333305D01*
X146867569Y-71186304D01*
X146867575Y-71186300D01*
X146870868Y-71184112D01*
X147085973Y-70998468D01*
X147164656Y-70911094D01*
X147273460Y-70790272D01*
X147273460Y-70790271D01*
X147276112Y-70787327D01*
X147438288Y-70554019D01*
X147569941Y-70302223D01*
X147601095Y-70218465D01*
X156858545Y-70218465D01*
X156863455Y-70225023D01*
X156968596Y-70283786D01*
X156979834Y-70288695D01*
X157116104Y-70332972D01*
X157174710Y-70373045D01*
X157200358Y-70436414D01*
X157201612Y-70436184D01*
X157202724Y-70442243D01*
X157203240Y-70448386D01*
X157260457Y-70647927D01*
X157263275Y-70653409D01*
X157263276Y-70653413D01*
X157332099Y-70787327D01*
X157355343Y-70832555D01*
X157484282Y-70995236D01*
X157488969Y-70999225D01*
X157488972Y-70999228D01*
X157637672Y-71125781D01*
X157642364Y-71129774D01*
X157823568Y-71231046D01*
X158020991Y-71295192D01*
X158227113Y-71319771D01*
X158233248Y-71319299D01*
X158233250Y-71319299D01*
X158427943Y-71304318D01*
X158427948Y-71304317D01*
X158434084Y-71303845D01*
X158440014Y-71302189D01*
X158440016Y-71302189D01*
X158572241Y-71265271D01*
X158634020Y-71248022D01*
X158667627Y-71231046D01*
X158813804Y-71157207D01*
X158813806Y-71157206D01*
X158819305Y-71154428D01*
X158982883Y-71026627D01*
X159118521Y-70869488D01*
X159139503Y-70832554D01*
X159209082Y-70710072D01*
X159221055Y-70688996D01*
X159286578Y-70492026D01*
X159312595Y-70286080D01*
X159313010Y-70256382D01*
X159292753Y-70049790D01*
X159232756Y-69851067D01*
X159222875Y-69832483D01*
X159138197Y-69673229D01*
X159138196Y-69673227D01*
X159135301Y-69667783D01*
X159059430Y-69574756D01*
X159007998Y-69511693D01*
X159007995Y-69511690D01*
X159004103Y-69506918D01*
X158997158Y-69501172D01*
X158848906Y-69378527D01*
X158848907Y-69378527D01*
X158844158Y-69374599D01*
X158838741Y-69371670D01*
X158838738Y-69371668D01*
X158666978Y-69278798D01*
X158666973Y-69278796D01*
X158661558Y-69275868D01*
X158581951Y-69251225D01*
X158532744Y-69235993D01*
X158473585Y-69196741D01*
X158444606Y-69127927D01*
X158443067Y-69112236D01*
X158440682Y-69100191D01*
X158384275Y-68913365D01*
X158379601Y-68902024D01*
X158315126Y-68780764D01*
X158305266Y-68770683D01*
X158298139Y-68773251D01*
X157760296Y-69311094D01*
X157729577Y-69333660D01*
X157666988Y-69366381D01*
X157505211Y-69496453D01*
X157501253Y-69501170D01*
X157501251Y-69501172D01*
X157499141Y-69503687D01*
X157371779Y-69655471D01*
X157368815Y-69660863D01*
X157368812Y-69660867D01*
X157326521Y-69737795D01*
X157305201Y-69766189D01*
X156865305Y-70206085D01*
X156858545Y-70218465D01*
X147601095Y-70218465D01*
X147668995Y-70035911D01*
X147733888Y-69759284D01*
X147761929Y-69492574D01*
X147763183Y-69480644D01*
X147763183Y-69480642D01*
X147763597Y-69476705D01*
X147757653Y-69192631D01*
X147716148Y-68911542D01*
X147713985Y-68903793D01*
X147640804Y-68641683D01*
X147639740Y-68637872D01*
X147625686Y-68604438D01*
X147570573Y-68473333D01*
X147529631Y-68375937D01*
X147387560Y-68129869D01*
X147313539Y-68032354D01*
X147218160Y-67906704D01*
X147215766Y-67903550D01*
X147139653Y-67825830D01*
X147122180Y-67807988D01*
X147016960Y-67700548D01*
X147013863Y-67698094D01*
X147013858Y-67698089D01*
X146797388Y-67526530D01*
X146797382Y-67526526D01*
X146794277Y-67524065D01*
X146772420Y-67510829D01*
X146588533Y-67399475D01*
X146551230Y-67376886D01*
X146291652Y-67261331D01*
X146019638Y-67179224D01*
X145739477Y-67131859D01*
X145735521Y-67131693D01*
X145735516Y-67131693D01*
X145459542Y-67120148D01*
X145459536Y-67120148D01*
X145455588Y-67119983D01*
X145172450Y-67143784D01*
X145168572Y-67144609D01*
X145168570Y-67144609D01*
X145111782Y-67156686D01*
X144894528Y-67202886D01*
X144890792Y-67204187D01*
X144890790Y-67204188D01*
X144629954Y-67295052D01*
X144629949Y-67295054D01*
X144626206Y-67296358D01*
X144442751Y-67387452D01*
X144400735Y-67408315D01*
X144388731Y-67413517D01*
X144386830Y-67414226D01*
X144386826Y-67414228D01*
X144382271Y-67415927D01*
X144378031Y-67418307D01*
X144375575Y-67419685D01*
X144375570Y-67419689D01*
X144371336Y-67422065D01*
X144349436Y-67439272D01*
X144334606Y-67449304D01*
X141454407Y-69112236D01*
X138791041Y-70649976D01*
X138772085Y-70658909D01*
X138753271Y-70665927D01*
X138749028Y-70668309D01*
X138749023Y-70668311D01*
X138746575Y-70669685D01*
X138746570Y-70669689D01*
X138742336Y-70672065D01*
X138738514Y-70675068D01*
X138738256Y-70675240D01*
X138730648Y-70680744D01*
X138506102Y-70829968D01*
X138291060Y-71015627D01*
X138100981Y-71226772D01*
X138098720Y-71230026D01*
X138098719Y-71230027D01*
X137941120Y-71456824D01*
X137941115Y-71456832D01*
X137938863Y-71460073D01*
X137807261Y-71711853D01*
X137805880Y-71715566D01*
X137805880Y-71715567D01*
X137719182Y-71948743D01*
X137708251Y-71978141D01*
X137707348Y-71981990D01*
X137707347Y-71981995D01*
X137661976Y-72175489D01*
X137626950Y-72237244D01*
X137564098Y-72270260D01*
X137493373Y-72264054D01*
X137445667Y-72231034D01*
X137441175Y-72226045D01*
X137441174Y-72226044D01*
X137436753Y-72221134D01*
X137282252Y-72108882D01*
X137276224Y-72106198D01*
X137276222Y-72106197D01*
X137113819Y-72033891D01*
X137113818Y-72033891D01*
X137107788Y-72031206D01*
X136985831Y-72005283D01*
X136927444Y-71992872D01*
X136927439Y-71992872D01*
X136920987Y-71991500D01*
X136774867Y-71991500D01*
X136706746Y-71971498D01*
X136660253Y-71917842D01*
X136650149Y-71847568D01*
X136679643Y-71782988D01*
X136723618Y-71750393D01*
X136850722Y-71693803D01*
X136850724Y-71693802D01*
X136856752Y-71691118D01*
X136870186Y-71681358D01*
X136930669Y-71637414D01*
X137011253Y-71578866D01*
X137018334Y-71571002D01*
X137134621Y-71441852D01*
X137134622Y-71441851D01*
X137139040Y-71436944D01*
X137234527Y-71271556D01*
X137293542Y-71089928D01*
X137303495Y-70995236D01*
X137312814Y-70906565D01*
X137313504Y-70900000D01*
X137306415Y-70832554D01*
X137294232Y-70716635D01*
X137294232Y-70716633D01*
X137293542Y-70710072D01*
X137234527Y-70528444D01*
X137226567Y-70514656D01*
X137181393Y-70436414D01*
X137139040Y-70363056D01*
X137118877Y-70340662D01*
X137015675Y-70226045D01*
X137015674Y-70226044D01*
X137011253Y-70221134D01*
X136856752Y-70108882D01*
X136850726Y-70106199D01*
X136850719Y-70106195D01*
X136724274Y-70049899D01*
X136670178Y-70003919D01*
X136649528Y-69935992D01*
X136668880Y-69867684D01*
X136722091Y-69820682D01*
X136740792Y-69813673D01*
X137825120Y-69502746D01*
X137828276Y-69501458D01*
X137828282Y-69501456D01*
X137875719Y-69482098D01*
X137875723Y-69482096D01*
X137883032Y-69479113D01*
X137897836Y-69468139D01*
X137992830Y-69397718D01*
X137992831Y-69397717D01*
X138000044Y-69392370D01*
X138001266Y-69390757D01*
X138060677Y-69358722D01*
X138101729Y-69356868D01*
X138150809Y-69362720D01*
X138156923Y-69363449D01*
X138163058Y-69362977D01*
X138163060Y-69362977D01*
X138357753Y-69347996D01*
X138357758Y-69347995D01*
X138363894Y-69347523D01*
X138369824Y-69345867D01*
X138369826Y-69345867D01*
X138465587Y-69319130D01*
X138563830Y-69291700D01*
X138589372Y-69278798D01*
X138743614Y-69200885D01*
X138743616Y-69200884D01*
X138749115Y-69198106D01*
X138912693Y-69070305D01*
X138916719Y-69065640D01*
X138916725Y-69065635D01*
X138969993Y-69003922D01*
X139029645Y-68965424D01*
X139104312Y-68966419D01*
X139165855Y-68986416D01*
X139177826Y-68989048D01*
X139371624Y-69012157D01*
X139383873Y-69012414D01*
X139578467Y-68997441D01*
X139590547Y-68995310D01*
X139778514Y-68942828D01*
X139789947Y-68938394D01*
X139932726Y-68866271D01*
X139943010Y-68856626D01*
X139940772Y-68849982D01*
X139258326Y-68167536D01*
X139223821Y-68102918D01*
X139223165Y-68099603D01*
X139222563Y-68093468D01*
X139204112Y-68032354D01*
X139164350Y-67900653D01*
X139164349Y-67900650D01*
X139162566Y-67894745D01*
X139159670Y-67889298D01*
X139068007Y-67716907D01*
X139068006Y-67716905D01*
X139065111Y-67711461D01*
X138995504Y-67626114D01*
X138937808Y-67555371D01*
X138937805Y-67555368D01*
X138933913Y-67550596D01*
X138904823Y-67526530D01*
X138778716Y-67422205D01*
X138778717Y-67422205D01*
X138773968Y-67418277D01*
X138768551Y-67415348D01*
X138768548Y-67415346D01*
X138596788Y-67322476D01*
X138596783Y-67322474D01*
X138591368Y-67319546D01*
X138393069Y-67258162D01*
X138386944Y-67257518D01*
X138386943Y-67257518D01*
X138192752Y-67237108D01*
X138192750Y-67237108D01*
X138186623Y-67236464D01*
X138100713Y-67244283D01*
X137986034Y-67254719D01*
X137986031Y-67254720D01*
X137979895Y-67255278D01*
X137973989Y-67257016D01*
X137973985Y-67257017D01*
X137844754Y-67295052D01*
X137780758Y-67313887D01*
X137716279Y-67347596D01*
X137618442Y-67398744D01*
X137596798Y-67410059D01*
X137553480Y-67444888D01*
X137487860Y-67471983D01*
X137451639Y-67469886D01*
X137448430Y-67468664D01*
X137303231Y-67457109D01*
X137295445Y-67458454D01*
X137295442Y-67458454D01*
X137265952Y-67463548D01*
X137241596Y-67467755D01*
X136091670Y-67797492D01*
X136088514Y-67798780D01*
X136088508Y-67798782D01*
X136041071Y-67818140D01*
X136041067Y-67818142D01*
X136033758Y-67821125D01*
X136027412Y-67825830D01*
X136027411Y-67825830D01*
X135923961Y-67902519D01*
X135923959Y-67902521D01*
X135916746Y-67907868D01*
X135828783Y-68023965D01*
X135825588Y-68032354D01*
X135798713Y-68102918D01*
X135776940Y-68160084D01*
X135776228Y-68169028D01*
X135776228Y-68169029D01*
X135772725Y-68213047D01*
X135765385Y-68305283D01*
X135766730Y-68313069D01*
X135766730Y-68313072D01*
X135769612Y-68329758D01*
X135776031Y-68366918D01*
X135776973Y-68370203D01*
X136049074Y-69319130D01*
X136048623Y-69390125D01*
X136009861Y-69449606D01*
X135945095Y-69478689D01*
X135874886Y-69468139D01*
X135838860Y-69442955D01*
X135491250Y-69095345D01*
X135457224Y-69033033D01*
X135455035Y-69019421D01*
X135451582Y-68986562D01*
X135443542Y-68910072D01*
X135384527Y-68728444D01*
X135289040Y-68563056D01*
X135161253Y-68421134D01*
X135006752Y-68308882D01*
X135000724Y-68306198D01*
X135000722Y-68306197D01*
X134838319Y-68233891D01*
X134838318Y-68233891D01*
X134832288Y-68231206D01*
X134721650Y-68207689D01*
X134651944Y-68192872D01*
X134651939Y-68192872D01*
X134645487Y-68191500D01*
X134454513Y-68191500D01*
X134448061Y-68192872D01*
X134448056Y-68192872D01*
X134378350Y-68207689D01*
X134267712Y-68231206D01*
X134261682Y-68233891D01*
X134261681Y-68233891D01*
X134099278Y-68306197D01*
X134099276Y-68306198D01*
X134093248Y-68308882D01*
X133938747Y-68421134D01*
X133810960Y-68563056D01*
X133715473Y-68728444D01*
X133656458Y-68910072D01*
X133655768Y-68916633D01*
X133655768Y-68916635D01*
X133644965Y-69019421D01*
X133636496Y-69100000D01*
X129035893Y-69100000D01*
X132596889Y-67044047D01*
X138857766Y-67044047D01*
X138860221Y-67051011D01*
X139541696Y-67732486D01*
X139573142Y-67792379D01*
X139574655Y-67791945D01*
X139631872Y-67991486D01*
X139634690Y-67996968D01*
X139634691Y-67996972D01*
X139723117Y-68169029D01*
X139726758Y-68176114D01*
X139855697Y-68338795D01*
X139860384Y-68342784D01*
X139860387Y-68342787D01*
X140009087Y-68469340D01*
X140013779Y-68473333D01*
X140194983Y-68574605D01*
X140392406Y-68638751D01*
X140598528Y-68663330D01*
X140604663Y-68662858D01*
X140604665Y-68662858D01*
X140799358Y-68647877D01*
X140799363Y-68647876D01*
X140805499Y-68647404D01*
X140811429Y-68645748D01*
X140811431Y-68645748D01*
X140959386Y-68604438D01*
X141005435Y-68591581D01*
X141010935Y-68588803D01*
X141185219Y-68500766D01*
X141185221Y-68500765D01*
X141190720Y-68497987D01*
X141354298Y-68370186D01*
X141489936Y-68213047D01*
X141502177Y-68191500D01*
X141552498Y-68102918D01*
X141592470Y-68032555D01*
X141657993Y-67835585D01*
X141684010Y-67629639D01*
X141684425Y-67599941D01*
X141671878Y-67471983D01*
X141664769Y-67399475D01*
X141664768Y-67399472D01*
X141664168Y-67393349D01*
X141616971Y-67237023D01*
X141605955Y-67200534D01*
X141605954Y-67200531D01*
X141604171Y-67194626D01*
X141595632Y-67178566D01*
X141509612Y-67016788D01*
X141509611Y-67016786D01*
X141506716Y-67011342D01*
X141405755Y-66887551D01*
X141379413Y-66855252D01*
X141379410Y-66855249D01*
X141375518Y-66850477D01*
X141358204Y-66836153D01*
X141220321Y-66722086D01*
X141220322Y-66722086D01*
X141215573Y-66718158D01*
X141210156Y-66715229D01*
X141210153Y-66715227D01*
X141038393Y-66622357D01*
X141038388Y-66622355D01*
X141032973Y-66619427D01*
X140834674Y-66558043D01*
X140828549Y-66557399D01*
X140828548Y-66557399D01*
X140634357Y-66536989D01*
X140634355Y-66536989D01*
X140628228Y-66536345D01*
X140542318Y-66544164D01*
X140427639Y-66554600D01*
X140427636Y-66554601D01*
X140421500Y-66555159D01*
X140415594Y-66556897D01*
X140415590Y-66556898D01*
X140267735Y-66600414D01*
X140222363Y-66613768D01*
X140038403Y-66709940D01*
X139876626Y-66840012D01*
X139872667Y-66844730D01*
X139872662Y-66844735D01*
X139830557Y-66894915D01*
X139771448Y-66934242D01*
X139696775Y-66934290D01*
X139619653Y-66910416D01*
X139607646Y-66907951D01*
X139413550Y-66887551D01*
X139401282Y-66887466D01*
X139206930Y-66905153D01*
X139194881Y-66907451D01*
X139007658Y-66962554D01*
X138996290Y-66967147D01*
X138867915Y-67034260D01*
X138857766Y-67044047D01*
X132596889Y-67044047D01*
X137522896Y-64200000D01*
X141986496Y-64200000D01*
X141987186Y-64206565D01*
X141997565Y-64305312D01*
X142006458Y-64389928D01*
X142065473Y-64571556D01*
X142068776Y-64577278D01*
X142068777Y-64577279D01*
X142089462Y-64613106D01*
X142160960Y-64736944D01*
X142288747Y-64878866D01*
X142443248Y-64991118D01*
X142449276Y-64993802D01*
X142449278Y-64993803D01*
X142604166Y-65062763D01*
X142617712Y-65068794D01*
X142711113Y-65088647D01*
X142798056Y-65107128D01*
X142798061Y-65107128D01*
X142804513Y-65108500D01*
X142860406Y-65108500D01*
X142928527Y-65128502D01*
X142949501Y-65145405D01*
X143550428Y-65746332D01*
X143584454Y-65808644D01*
X143586003Y-65836830D01*
X143587186Y-65836830D01*
X143587186Y-65843435D01*
X143586496Y-65850000D01*
X143587186Y-65856565D01*
X143603996Y-66016500D01*
X143606458Y-66039928D01*
X143665473Y-66221556D01*
X143760960Y-66386944D01*
X143888747Y-66528866D01*
X144043248Y-66641118D01*
X144049276Y-66643802D01*
X144049278Y-66643803D01*
X144191415Y-66707086D01*
X144217712Y-66718794D01*
X144311113Y-66738647D01*
X144398056Y-66757128D01*
X144398061Y-66757128D01*
X144404513Y-66758500D01*
X144595487Y-66758500D01*
X144601939Y-66757128D01*
X144601944Y-66757128D01*
X144688887Y-66738647D01*
X144782288Y-66718794D01*
X144808585Y-66707086D01*
X144950722Y-66643803D01*
X144950724Y-66643802D01*
X144956752Y-66641118D01*
X145111253Y-66528866D01*
X145239040Y-66386944D01*
X145334527Y-66221556D01*
X145393542Y-66039928D01*
X145396005Y-66016500D01*
X145412814Y-65856565D01*
X145413504Y-65850000D01*
X145393542Y-65660072D01*
X145334527Y-65478444D01*
X145239040Y-65313056D01*
X145111253Y-65171134D01*
X144966699Y-65066109D01*
X144962094Y-65062763D01*
X144962093Y-65062762D01*
X144956752Y-65058882D01*
X144950724Y-65056198D01*
X144950722Y-65056197D01*
X144788319Y-64983891D01*
X144788318Y-64983891D01*
X144782288Y-64981206D01*
X144688888Y-64961353D01*
X144601944Y-64942872D01*
X144601939Y-64942872D01*
X144595487Y-64941500D01*
X144588885Y-64941500D01*
X144582318Y-64940810D01*
X144582465Y-64939407D01*
X144521474Y-64921498D01*
X144500499Y-64904595D01*
X144130470Y-64534565D01*
X147544446Y-64534565D01*
X147549356Y-64541123D01*
X147654497Y-64599886D01*
X147665735Y-64604795D01*
X147851345Y-64665103D01*
X147863319Y-64667736D01*
X148057117Y-64690845D01*
X148069366Y-64691102D01*
X148263960Y-64676129D01*
X148276033Y-64673999D01*
X148365271Y-64649084D01*
X148436261Y-64650031D01*
X148497900Y-64692179D01*
X148531065Y-64734024D01*
X148531069Y-64734029D01*
X148534894Y-64738854D01*
X148692976Y-64873392D01*
X148874180Y-64974664D01*
X149071603Y-65038810D01*
X149277725Y-65063389D01*
X149283860Y-65062917D01*
X149283862Y-65062917D01*
X149478555Y-65047936D01*
X149478560Y-65047935D01*
X149484696Y-65047463D01*
X149490626Y-65045807D01*
X149490628Y-65045807D01*
X149584664Y-65019552D01*
X149684632Y-64991640D01*
X149690132Y-64988862D01*
X149864416Y-64900825D01*
X149864418Y-64900824D01*
X149869917Y-64898046D01*
X150033495Y-64770245D01*
X150102031Y-64690845D01*
X150165107Y-64617771D01*
X150165110Y-64617767D01*
X150169133Y-64613106D01*
X150169660Y-64612178D01*
X150223887Y-64569139D01*
X150294531Y-64562074D01*
X150357781Y-64594324D01*
X150379692Y-64621763D01*
X150547306Y-64905181D01*
X150797430Y-65251988D01*
X151077957Y-65574697D01*
X151386577Y-65870653D01*
X151388795Y-65872423D01*
X151388800Y-65872428D01*
X151569276Y-66016500D01*
X151720751Y-66137421D01*
X151723114Y-66138979D01*
X151723118Y-66138982D01*
X151857028Y-66227279D01*
X152077727Y-66372803D01*
X152454567Y-66574863D01*
X152610655Y-66641118D01*
X152796881Y-66720166D01*
X152848170Y-66741937D01*
X152850879Y-66742807D01*
X152850885Y-66742809D01*
X153252575Y-66871778D01*
X153252581Y-66871780D01*
X153255295Y-66872651D01*
X153258068Y-66873271D01*
X153258076Y-66873273D01*
X153657501Y-66962554D01*
X153672591Y-66965927D01*
X154096624Y-67021000D01*
X154331663Y-67030029D01*
X154398965Y-67052631D01*
X154443364Y-67108032D01*
X154450763Y-67178642D01*
X154444261Y-67197631D01*
X154445495Y-67198063D01*
X154442529Y-67206531D01*
X154438391Y-67214498D01*
X154421908Y-67298124D01*
X154412158Y-67347596D01*
X154410224Y-67357406D01*
X154423298Y-67502475D01*
X154426579Y-67510827D01*
X154426580Y-67510829D01*
X154473676Y-67630694D01*
X154476564Y-67638044D01*
X154513151Y-67688775D01*
X155313611Y-68577775D01*
X155316141Y-68580038D01*
X155316146Y-68580042D01*
X155325945Y-68588803D01*
X155360239Y-68619465D01*
X155367252Y-68623108D01*
X155398770Y-68639480D01*
X155486616Y-68685112D01*
X155486619Y-68685114D01*
X155489498Y-68686609D01*
X155489282Y-68687025D01*
X155541957Y-68724826D01*
X155559441Y-68755373D01*
X155560865Y-68760339D01*
X155655751Y-68944967D01*
X155659582Y-68949801D01*
X155659583Y-68949802D01*
X155680777Y-68976542D01*
X155784690Y-69107648D01*
X155789377Y-69111637D01*
X155789380Y-69111640D01*
X155889201Y-69196594D01*
X155942772Y-69242186D01*
X156123976Y-69343458D01*
X156266870Y-69389887D01*
X156325474Y-69429959D01*
X156350818Y-69492574D01*
X156352310Y-69492300D01*
X156355635Y-69510420D01*
X156409431Y-69698026D01*
X156413947Y-69709431D01*
X156483604Y-69844969D01*
X156493325Y-69855190D01*
X156500124Y-69852846D01*
X157037578Y-69315392D01*
X157069863Y-69292021D01*
X157114212Y-69269619D01*
X157114214Y-69269618D01*
X157119713Y-69266840D01*
X157283291Y-69139039D01*
X157399920Y-69003922D01*
X157414905Y-68986562D01*
X157414905Y-68986561D01*
X157418929Y-68981900D01*
X157427724Y-68966419D01*
X157459733Y-68910072D01*
X157473462Y-68885904D01*
X157493922Y-68859048D01*
X157934321Y-68418649D01*
X157941081Y-68406269D01*
X157936422Y-68400046D01*
X157816987Y-68335469D01*
X157805681Y-68330716D01*
X157683520Y-68292901D01*
X157624360Y-68253650D01*
X157595380Y-68184832D01*
X157593762Y-68168328D01*
X157593761Y-68168325D01*
X157593161Y-68162202D01*
X157552252Y-68026702D01*
X157534948Y-67969387D01*
X157534947Y-67969384D01*
X157533164Y-67963479D01*
X157499794Y-67900719D01*
X157438605Y-67785641D01*
X157438604Y-67785639D01*
X157435709Y-67780195D01*
X157361149Y-67688775D01*
X157308406Y-67624105D01*
X157308403Y-67624102D01*
X157304511Y-67619330D01*
X157285332Y-67603463D01*
X157149314Y-67490939D01*
X157149315Y-67490939D01*
X157144566Y-67487011D01*
X157038104Y-67429448D01*
X156987695Y-67379454D01*
X156977104Y-67351987D01*
X156976702Y-67347525D01*
X156963486Y-67313887D01*
X156926324Y-67219306D01*
X156926324Y-67219305D01*
X156923436Y-67211956D01*
X156916301Y-67202063D01*
X156888842Y-67163988D01*
X156888839Y-67163984D01*
X156886849Y-67161225D01*
X156521486Y-66755449D01*
X156490769Y-66691441D01*
X156499533Y-66620987D01*
X156544995Y-66566456D01*
X156564272Y-66555854D01*
X156586578Y-66546016D01*
X156602863Y-66536989D01*
X156958059Y-66340101D01*
X156958061Y-66340100D01*
X156960561Y-66338714D01*
X157165052Y-66199742D01*
X157311843Y-66099983D01*
X157311848Y-66099980D01*
X157314216Y-66098370D01*
X157316438Y-66096545D01*
X157642413Y-65828786D01*
X157642417Y-65828783D01*
X157644632Y-65826963D01*
X157646670Y-65824954D01*
X157646677Y-65824947D01*
X157820236Y-65653794D01*
X157949090Y-65526727D01*
X158131063Y-65311391D01*
X158223238Y-65202317D01*
X158223243Y-65202311D01*
X158225084Y-65200132D01*
X158470342Y-64849867D01*
X158538289Y-64731226D01*
X158681423Y-64481299D01*
X158682845Y-64478816D01*
X158860844Y-64090032D01*
X158861789Y-64087347D01*
X158861794Y-64087336D01*
X158999833Y-63695353D01*
X159002875Y-63686715D01*
X159043531Y-63526045D01*
X159107064Y-63274965D01*
X159107065Y-63274961D01*
X159107767Y-63272186D01*
X159112854Y-63240071D01*
X159174211Y-62852671D01*
X159174657Y-62849856D01*
X159192173Y-62586139D01*
X159202879Y-62424953D01*
X159202879Y-62424942D01*
X159202995Y-62423202D01*
X159204029Y-62324500D01*
X159184632Y-61897346D01*
X159174904Y-61826325D01*
X159126988Y-61476535D01*
X159126601Y-61473708D01*
X159030413Y-61057073D01*
X159024605Y-61039408D01*
X158897754Y-60653586D01*
X158897751Y-60653579D01*
X158896861Y-60650871D01*
X158727042Y-60258444D01*
X158522357Y-59883024D01*
X158503231Y-59854454D01*
X158481957Y-59786720D01*
X158500680Y-59718237D01*
X158553456Y-59670747D01*
X158623528Y-59659330D01*
X158646868Y-59664527D01*
X158721603Y-59688810D01*
X158927725Y-59713389D01*
X158933860Y-59712917D01*
X158933862Y-59712917D01*
X159128555Y-59697936D01*
X159128560Y-59697935D01*
X159134696Y-59697463D01*
X159140626Y-59695807D01*
X159140628Y-59695807D01*
X159271273Y-59659330D01*
X159334632Y-59641640D01*
X159368239Y-59624664D01*
X159514416Y-59550825D01*
X159514418Y-59550824D01*
X159519917Y-59548046D01*
X159683495Y-59420245D01*
X159819133Y-59263106D01*
X159921667Y-59082614D01*
X159987190Y-58885644D01*
X160013207Y-58679698D01*
X160013622Y-58650000D01*
X160003661Y-58548416D01*
X159993966Y-58449534D01*
X159993965Y-58449531D01*
X159993365Y-58443408D01*
X159953526Y-58311454D01*
X159935152Y-58250593D01*
X159935151Y-58250590D01*
X159933368Y-58244685D01*
X159923034Y-58225249D01*
X159838809Y-58066847D01*
X159838808Y-58066845D01*
X159835913Y-58061401D01*
X159787083Y-58001529D01*
X159708610Y-57905311D01*
X159708607Y-57905308D01*
X159704715Y-57900536D01*
X159697770Y-57894790D01*
X159549518Y-57772145D01*
X159549519Y-57772145D01*
X159544770Y-57768217D01*
X159539353Y-57765288D01*
X159539350Y-57765286D01*
X159367590Y-57672416D01*
X159367585Y-57672414D01*
X159362170Y-57669486D01*
X159163871Y-57608102D01*
X159157746Y-57607458D01*
X159157745Y-57607458D01*
X158963554Y-57587048D01*
X158963552Y-57587048D01*
X158957425Y-57586404D01*
X158951285Y-57586963D01*
X158945129Y-57586920D01*
X158945137Y-57585745D01*
X158881649Y-57573215D01*
X158828633Y-57520634D01*
X158788513Y-57445179D01*
X158778653Y-57435098D01*
X158771526Y-57437666D01*
X158552213Y-57656979D01*
X158521495Y-57679545D01*
X158367600Y-57759999D01*
X158205823Y-57890071D01*
X158201865Y-57894788D01*
X158201863Y-57894790D01*
X158183134Y-57917111D01*
X158072391Y-58049089D01*
X158069427Y-58054481D01*
X158069424Y-58054485D01*
X158037109Y-58113266D01*
X157980644Y-58215976D01*
X157930299Y-58266033D01*
X157860883Y-58280927D01*
X157794433Y-58255926D01*
X157781135Y-58244369D01*
X157650032Y-58113266D01*
X157616006Y-58050954D01*
X157621071Y-57980139D01*
X157643745Y-57941841D01*
X157661061Y-57921779D01*
X157661062Y-57921777D01*
X157665090Y-57917111D01*
X157671794Y-57905311D01*
X157764579Y-57741979D01*
X157767624Y-57736619D01*
X157768642Y-57733560D01*
X157793762Y-57697010D01*
X158407708Y-57083064D01*
X158414468Y-57070684D01*
X158409809Y-57064461D01*
X158290374Y-56999884D01*
X158279067Y-56995131D01*
X158092635Y-56937420D01*
X158080623Y-56934954D01*
X157886529Y-56914554D01*
X157868105Y-56914426D01*
X157868115Y-56913022D01*
X157805418Y-56900645D01*
X157752408Y-56848067D01*
X157684766Y-56720852D01*
X157684765Y-56720850D01*
X157681870Y-56715406D01*
X157609387Y-56626533D01*
X157554567Y-56559316D01*
X157554564Y-56559313D01*
X157550672Y-56554541D01*
X157390727Y-56422222D01*
X157385310Y-56419293D01*
X157385307Y-56419291D01*
X157213547Y-56326421D01*
X157213542Y-56326419D01*
X157208127Y-56323491D01*
X157009828Y-56262107D01*
X157004949Y-56261594D01*
X156942627Y-56228509D01*
X156925347Y-56205978D01*
X156924825Y-56204628D01*
X156919367Y-56197503D01*
X156919366Y-56197500D01*
X156841059Y-56095263D01*
X156836256Y-56088992D01*
X156787102Y-56050312D01*
X155772609Y-55416386D01*
X155716296Y-55389163D01*
X155621831Y-55370030D01*
X155582331Y-55362030D01*
X155582330Y-55362030D01*
X155573537Y-55360249D01*
X155500969Y-55366407D01*
X155437343Y-55371805D01*
X155437341Y-55371805D01*
X155428401Y-55372564D01*
X155420033Y-55375801D01*
X155420030Y-55375802D01*
X155344261Y-55405115D01*
X155292556Y-55425119D01*
X155176920Y-55513688D01*
X155138240Y-55562842D01*
X155136435Y-55565731D01*
X154515574Y-56559316D01*
X154504314Y-56577335D01*
X154477091Y-56633648D01*
X154448177Y-56776407D01*
X154460492Y-56921543D01*
X154463729Y-56929911D01*
X154463730Y-56929914D01*
X154465680Y-56934954D01*
X154513047Y-57057388D01*
X154601616Y-57173024D01*
X154650770Y-57211704D01*
X154846009Y-57333703D01*
X154951036Y-57399331D01*
X154998206Y-57452392D01*
X155009201Y-57522532D01*
X154980530Y-57587482D01*
X154921296Y-57626621D01*
X154875038Y-57631847D01*
X154625441Y-57613518D01*
X154622595Y-57613309D01*
X154444858Y-57616411D01*
X154197917Y-57620721D01*
X154197912Y-57620721D01*
X154195066Y-57620771D01*
X154192233Y-57621079D01*
X154192229Y-57621079D01*
X153861767Y-57656979D01*
X153769973Y-57666951D01*
X153350815Y-57751468D01*
X153348082Y-57752283D01*
X153348077Y-57752284D01*
X153087525Y-57829958D01*
X152941042Y-57873627D01*
X152938381Y-57874691D01*
X152938379Y-57874692D01*
X152873764Y-57900536D01*
X152544027Y-58032421D01*
X152461933Y-58074250D01*
X152165581Y-58225249D01*
X152165576Y-58225252D01*
X152163038Y-58226545D01*
X152160619Y-58228068D01*
X152160616Y-58228070D01*
X152100332Y-58266033D01*
X151801210Y-58454400D01*
X151461523Y-58714110D01*
X151459428Y-58716036D01*
X151459419Y-58716044D01*
X151268618Y-58891496D01*
X151146773Y-59003539D01*
X150859549Y-59320302D01*
X150857825Y-59322589D01*
X150857824Y-59322591D01*
X150784236Y-59420245D01*
X150602216Y-59661794D01*
X150376893Y-60025203D01*
X150185434Y-60407538D01*
X150029415Y-60805652D01*
X149910120Y-61216268D01*
X149828531Y-61636006D01*
X149785320Y-62061412D01*
X149782565Y-62324500D01*
X149780842Y-62488982D01*
X149809649Y-62847009D01*
X149811445Y-62869335D01*
X149796971Y-62938840D01*
X149747217Y-62989487D01*
X149677979Y-63005194D01*
X149648592Y-62999805D01*
X149587359Y-62980850D01*
X149513871Y-62958102D01*
X149507746Y-62957458D01*
X149507745Y-62957458D01*
X149313554Y-62937048D01*
X149313552Y-62937048D01*
X149307425Y-62936404D01*
X149221515Y-62944223D01*
X149106836Y-62954659D01*
X149106833Y-62954660D01*
X149100697Y-62955218D01*
X149094791Y-62956956D01*
X149094787Y-62956957D01*
X148949203Y-62999805D01*
X148901560Y-63013827D01*
X148717600Y-63109999D01*
X148555823Y-63240071D01*
X148422391Y-63399089D01*
X148419427Y-63404481D01*
X148419424Y-63404485D01*
X148355296Y-63521134D01*
X148322387Y-63580995D01*
X148259621Y-63778861D01*
X148258934Y-63784990D01*
X148258739Y-63785905D01*
X148224587Y-63848804D01*
X147551206Y-64522185D01*
X147544446Y-64534565D01*
X144130470Y-64534565D01*
X143847121Y-64251216D01*
X143813096Y-64188904D01*
X143810907Y-64175291D01*
X143794232Y-64016635D01*
X143794232Y-64016633D01*
X143793542Y-64010072D01*
X143734527Y-63828444D01*
X143639040Y-63663056D01*
X143511253Y-63521134D01*
X143356752Y-63408882D01*
X143350724Y-63406198D01*
X143350722Y-63406197D01*
X143188319Y-63333891D01*
X143188318Y-63333891D01*
X143182288Y-63331206D01*
X143088887Y-63311353D01*
X143001944Y-63292872D01*
X143001939Y-63292872D01*
X142995487Y-63291500D01*
X142804513Y-63291500D01*
X142798061Y-63292872D01*
X142798056Y-63292872D01*
X142711113Y-63311353D01*
X142617712Y-63331206D01*
X142611682Y-63333891D01*
X142611681Y-63333891D01*
X142449278Y-63406197D01*
X142449276Y-63406198D01*
X142443248Y-63408882D01*
X142288747Y-63521134D01*
X142160960Y-63663056D01*
X142065473Y-63828444D01*
X142006458Y-64010072D01*
X142005768Y-64016633D01*
X142005768Y-64016635D01*
X142004214Y-64031419D01*
X141986496Y-64200000D01*
X137522896Y-64200000D01*
X139237570Y-63210027D01*
X144457632Y-63210027D01*
X144458121Y-63217912D01*
X144458121Y-63217914D01*
X144465316Y-63333891D01*
X144466651Y-63355405D01*
X144469698Y-63363845D01*
X144513061Y-63483964D01*
X144513063Y-63483968D01*
X144516110Y-63492408D01*
X144602034Y-63610023D01*
X144717514Y-63698795D01*
X144775004Y-63723435D01*
X144778268Y-63724433D01*
X144778271Y-63724434D01*
X145915742Y-64072194D01*
X145915748Y-64072196D01*
X145919001Y-64073190D01*
X145922343Y-64073827D01*
X145922349Y-64073829D01*
X145956449Y-64080333D01*
X145980441Y-64084910D01*
X145988326Y-64084421D01*
X145988328Y-64084421D01*
X146081772Y-64078624D01*
X146125819Y-64075891D01*
X146127260Y-64075371D01*
X146194286Y-64080838D01*
X146230739Y-64102494D01*
X146263961Y-64130768D01*
X146445165Y-64232040D01*
X146642588Y-64296186D01*
X146848710Y-64320765D01*
X146854845Y-64320293D01*
X146854847Y-64320293D01*
X147049540Y-64305312D01*
X147049545Y-64305311D01*
X147055681Y-64304839D01*
X147061611Y-64303183D01*
X147061613Y-64303183D01*
X147247737Y-64251216D01*
X147255617Y-64249016D01*
X147295175Y-64229034D01*
X147435401Y-64158201D01*
X147435403Y-64158200D01*
X147440902Y-64155422D01*
X147604480Y-64027621D01*
X147740118Y-63870482D01*
X147842652Y-63689990D01*
X147908175Y-63493020D01*
X147909452Y-63482909D01*
X147910293Y-63480982D01*
X147910312Y-63480897D01*
X147910328Y-63480901D01*
X147937833Y-63417835D01*
X147945363Y-63409608D01*
X148620222Y-62734749D01*
X148626982Y-62722369D01*
X148622323Y-62716146D01*
X148502888Y-62651569D01*
X148491581Y-62646816D01*
X148305149Y-62589105D01*
X148293137Y-62586639D01*
X148099043Y-62566239D01*
X148086775Y-62566154D01*
X147892423Y-62583841D01*
X147880374Y-62586139D01*
X147806756Y-62607806D01*
X147735759Y-62607850D01*
X147673539Y-62566569D01*
X147625700Y-62507912D01*
X147620958Y-62503989D01*
X147620955Y-62503986D01*
X147470503Y-62379521D01*
X147470504Y-62379521D01*
X147465755Y-62375593D01*
X147460338Y-62372664D01*
X147460335Y-62372662D01*
X147288575Y-62279792D01*
X147288570Y-62279790D01*
X147283155Y-62276862D01*
X147084856Y-62215478D01*
X147078731Y-62214834D01*
X147078730Y-62214834D01*
X146884539Y-62194424D01*
X146884537Y-62194424D01*
X146878410Y-62193780D01*
X146811056Y-62199910D01*
X146741404Y-62186165D01*
X146713174Y-62165188D01*
X146710922Y-62162105D01*
X146595442Y-62073333D01*
X146537952Y-62048693D01*
X146534688Y-62047695D01*
X146534685Y-62047694D01*
X145397214Y-61699934D01*
X145397208Y-61699932D01*
X145393955Y-61698938D01*
X145390613Y-61698301D01*
X145390607Y-61698299D01*
X145356507Y-61691795D01*
X145332515Y-61687218D01*
X145324630Y-61687707D01*
X145324628Y-61687707D01*
X145196095Y-61695681D01*
X145196093Y-61695681D01*
X145187137Y-61696237D01*
X145178696Y-61699284D01*
X145178697Y-61699284D01*
X145058578Y-61742647D01*
X145058574Y-61742649D01*
X145050134Y-61745696D01*
X144932519Y-61831620D01*
X144843747Y-61947100D01*
X144819107Y-62004590D01*
X144818109Y-62007854D01*
X144818108Y-62007857D01*
X144481150Y-63109999D01*
X144469352Y-63148587D01*
X144457632Y-63210027D01*
X139237570Y-63210027D01*
X159545006Y-51485459D01*
X159614001Y-51468721D01*
X159671005Y-51485458D01*
G37*
%TD.AperFunction*%
%TA.AperFunction,Conductor*%
G36*
X122177971Y-88056853D02*
G01*
X122229198Y-88106009D01*
X122245717Y-88175057D01*
X122222283Y-88242075D01*
X122208974Y-88257757D01*
X121857692Y-88609039D01*
X121795380Y-88643065D01*
X121780022Y-88645424D01*
X121727127Y-88650238D01*
X121686304Y-88653953D01*
X121686302Y-88653953D01*
X121680164Y-88654512D01*
X121674258Y-88656250D01*
X121674254Y-88656251D01*
X121587175Y-88681880D01*
X121481027Y-88713121D01*
X121297067Y-88809293D01*
X121292267Y-88813153D01*
X121292266Y-88813153D01*
X121283239Y-88820411D01*
X121217617Y-88847507D01*
X121147762Y-88834824D01*
X121095854Y-88786388D01*
X121078372Y-88717577D01*
X121100868Y-88650238D01*
X121115192Y-88633119D01*
X121459994Y-88288317D01*
X121522306Y-88254291D01*
X121539416Y-88251784D01*
X121578427Y-88248782D01*
X121616955Y-88245818D01*
X121616960Y-88245817D01*
X121623096Y-88245345D01*
X121629026Y-88243689D01*
X121629028Y-88243689D01*
X121766994Y-88205168D01*
X121823032Y-88189522D01*
X121832675Y-88184651D01*
X122002816Y-88098707D01*
X122002818Y-88098706D01*
X122008317Y-88095928D01*
X122042308Y-88069371D01*
X122108300Y-88043195D01*
X122177971Y-88056853D01*
G37*
%TD.AperFunction*%
%TA.AperFunction,Conductor*%
G36*
X121729387Y-77132876D02*
G01*
X121870196Y-77211572D01*
X122067619Y-77275718D01*
X122140184Y-77284371D01*
X122221151Y-77294026D01*
X122286424Y-77321954D01*
X122295327Y-77330045D01*
X122613593Y-77648311D01*
X122647619Y-77710623D01*
X122642554Y-77781438D01*
X122600007Y-77838274D01*
X122533487Y-77863085D01*
X122464570Y-77848242D01*
X122316262Y-77768052D01*
X122316257Y-77768050D01*
X122310842Y-77765122D01*
X122173499Y-77722607D01*
X122118430Y-77705560D01*
X122118427Y-77705559D01*
X122112543Y-77703738D01*
X122106416Y-77703094D01*
X121975954Y-77689382D01*
X121910297Y-77662369D01*
X121900029Y-77653167D01*
X121578821Y-77331959D01*
X121544795Y-77269647D01*
X121549860Y-77198832D01*
X121592407Y-77141996D01*
X121658927Y-77117185D01*
X121729387Y-77132876D01*
G37*
%TD.AperFunction*%
%TD*%
M02*
