%TF.GenerationSoftware,KiCad,Pcbnew,(6.0.2)*%
%TF.CreationDate,2022-03-26T22:50:30-07:00*%
%TF.ProjectId,triangle,74726961-6e67-46c6-952e-6b696361645f,rev?*%
%TF.SameCoordinates,Original*%
%TF.FileFunction,Soldermask,Top*%
%TF.FilePolarity,Negative*%
%FSLAX46Y46*%
G04 Gerber Fmt 4.6, Leading zero omitted, Abs format (unit mm)*
G04 Created by KiCad (PCBNEW (6.0.2)) date 2022-03-26 22:50:30*
%MOMM*%
%LPD*%
G01*
G04 APERTURE LIST*
G04 Aperture macros list*
%AMRoundRect*
0 Rectangle with rounded corners*
0 $1 Rounding radius*
0 $2 $3 $4 $5 $6 $7 $8 $9 X,Y pos of 4 corners*
0 Add a 4 corners polygon primitive as box body*
4,1,4,$2,$3,$4,$5,$6,$7,$8,$9,$2,$3,0*
0 Add four circle primitives for the rounded corners*
1,1,$1+$1,$2,$3*
1,1,$1+$1,$4,$5*
1,1,$1+$1,$6,$7*
1,1,$1+$1,$8,$9*
0 Add four rect primitives between the rounded corners*
20,1,$1+$1,$2,$3,$4,$5,0*
20,1,$1+$1,$4,$5,$6,$7,0*
20,1,$1+$1,$6,$7,$8,$9,0*
20,1,$1+$1,$8,$9,$2,$3,0*%
%AMHorizOval*
0 Thick line with rounded ends*
0 $1 width*
0 $2 $3 position (X,Y) of the first rounded end (center of the circle)*
0 $4 $5 position (X,Y) of the second rounded end (center of the circle)*
0 Add line between two ends*
20,1,$1,$2,$3,$4,$5,0*
0 Add two circle primitives to create the rounded ends*
1,1,$1,$2,$3*
1,1,$1,$4,$5*%
%AMRotRect*
0 Rectangle, with rotation*
0 The origin of the aperture is its center*
0 $1 length*
0 $2 width*
0 $3 Rotation angle, in degrees counterclockwise*
0 Add horizontal line*
21,1,$1,$2,0,0,$3*%
G04 Aperture macros list end*
%ADD10RoundRect,0.225000X-0.168235X0.291242X-0.307293X-0.136733X0.168235X-0.291242X0.307293X0.136733X0*%
%ADD11RoundRect,0.200000X-0.275000X0.200000X-0.275000X-0.200000X0.275000X-0.200000X0.275000X0.200000X0*%
%ADD12RoundRect,0.225000X0.069856X0.329006X-0.319856X0.104006X-0.069856X-0.329006X0.319856X-0.104006X0*%
%ADD13RoundRect,0.225000X0.147375X0.302334X-0.285193X0.178297X-0.147375X-0.302334X0.285193X-0.178297X0*%
%ADD14RotRect,1.700000X1.700000X240.000000*%
%ADD15HorizOval,1.700000X0.000000X0.000000X0.000000X0.000000X0*%
%ADD16RoundRect,0.200000X-0.339982X0.006097X-0.110552X-0.321564X0.339982X-0.006097X0.110552X0.321564X0*%
%ADD17RoundRect,0.225000X-0.288261X-0.173293X0.142076X-0.304860X0.288261X0.173293X-0.142076X0.304860X0*%
%ADD18RoundRect,0.200000X0.319474X-0.116452X0.209219X0.268053X-0.319474X0.116452X-0.209219X-0.268053X0*%
%ADD19RoundRect,0.200000X0.209219X-0.268053X0.319474X0.116452X-0.209219X0.268053X-0.319474X-0.116452X0*%
%ADD20RoundRect,0.200000X-0.240557X-0.240327X0.154518X-0.302901X0.240557X0.240327X-0.154518X0.302901X0*%
%ADD21RoundRect,0.200000X-0.275191X-0.199737X0.105232X-0.323344X0.275191X0.199737X-0.105232X0.323344X0*%
%ADD22R,1.700000X1.700000*%
%ADD23O,1.700000X1.700000*%
%ADD24RoundRect,0.200000X-0.335876X-0.053033X-0.053033X-0.335876X0.335876X0.053033X0.053033X0.335876X0*%
%ADD25RoundRect,0.225000X0.335527X-0.023387X0.058479X0.331218X-0.335527X0.023387X-0.058479X-0.331218X0*%
%ADD26RoundRect,0.225000X-0.304860X0.142076X-0.173293X-0.288261X0.304860X-0.142076X0.173293X0.288261X0*%
%ADD27RoundRect,0.200000X0.339835X0.011705X0.093571X0.326909X-0.339835X-0.011705X-0.093571X-0.326909X0*%
%ADD28RoundRect,0.200000X-0.200000X-0.275000X0.200000X-0.275000X0.200000X0.275000X-0.200000X0.275000X0*%
%ADD29RoundRect,0.225000X0.285193X0.178297X-0.147375X0.302334X-0.285193X-0.178297X0.147375X-0.302334X0*%
%ADD30RoundRect,0.225000X-0.336341X-0.000075X-0.035232X-0.334490X0.336341X0.000075X0.035232X0.334490X0*%
%ADD31RoundRect,0.225000X0.064250X-0.330147X0.335067X0.029239X-0.064250X0.330147X-0.335067X-0.029239X0*%
%ADD32RoundRect,0.225000X0.250000X-0.225000X0.250000X0.225000X-0.250000X0.225000X-0.250000X-0.225000X0*%
%ADD33RoundRect,0.225000X-0.147375X-0.302334X0.285193X-0.178297X0.147375X0.302334X-0.285193X0.178297X0*%
%ADD34RoundRect,0.200000X0.338157X-0.035705X0.138157X0.310705X-0.338157X0.035705X-0.138157X-0.310705X0*%
%ADD35RoundRect,0.200000X-0.138157X0.310705X-0.338157X-0.035705X0.138157X-0.310705X0.338157X0.035705X0*%
%ADD36RoundRect,0.200000X0.110859X0.321458X-0.271663X0.204509X-0.110859X-0.321458X0.271663X-0.204509X0*%
%ADD37RoundRect,0.200000X0.104923X-0.323444X0.340037X0.000162X-0.104923X0.323444X-0.340037X-0.000162X0*%
%ADD38RoundRect,0.225000X-0.017678X0.335876X-0.335876X0.017678X0.017678X-0.335876X0.335876X-0.017678X0*%
%ADD39RoundRect,0.225000X-0.319856X-0.104006X0.069856X-0.329006X0.319856X0.104006X-0.069856X0.329006X0*%
%ADD40RoundRect,0.225000X-0.040915X-0.333843X0.327703X-0.075733X0.040915X0.333843X-0.327703X0.075733X0*%
%ADD41RoundRect,0.200000X0.149208X0.305552X-0.244715X0.236092X-0.149208X-0.305552X0.244715X-0.236092X0*%
%ADD42RoundRect,0.200000X0.204509X-0.271663X0.321458X0.110859X-0.204509X0.271663X-0.321458X-0.110859X0*%
%ADD43RoundRect,0.225000X-0.250000X0.225000X-0.250000X-0.225000X0.250000X-0.225000X0.250000X0.225000X0*%
%ADD44RoundRect,0.225000X0.211724X-0.261338X0.282120X0.183121X-0.211724X0.261338X-0.282120X-0.183121X0*%
%ADD45RoundRect,0.225000X-0.323291X-0.092780X0.058331X-0.331244X0.323291X0.092780X-0.058331X0.331244X0*%
%ADD46RoundRect,0.225000X0.328975X0.070003X-0.035083X0.334506X-0.328975X-0.070003X0.035083X-0.334506X0*%
%ADD47RoundRect,0.200000X-0.325226X-0.099262X-0.005772X-0.339988X0.325226X0.099262X0.005772X0.339988X0*%
%ADD48RoundRect,0.225000X0.285273X-0.178170X0.207131X0.264994X-0.285273X0.178170X-0.207131X-0.264994X0*%
%ADD49RotRect,1.000000X1.300000X196.000000*%
%ADD50HorizOval,1.000000X-0.041346X0.144189X0.041346X-0.144189X0*%
%ADD51RotRect,1.000000X1.300000X252.000000*%
%ADD52HorizOval,1.000000X-0.142658X0.046353X0.142658X-0.046353X0*%
%ADD53RotRect,1.000000X1.300000X328.000000*%
%ADD54HorizOval,1.000000X-0.079488X-0.127207X0.079488X0.127207X0*%
%ADD55RotRect,1.000000X1.300000X100.000000*%
%ADD56HorizOval,1.000000X0.147721X0.026047X-0.147721X-0.026047X0*%
%ADD57RotRect,1.000000X1.300000X330.000000*%
%ADD58HorizOval,1.000000X-0.075000X-0.129904X0.075000X0.129904X0*%
%ADD59RotRect,1.000000X1.300000X128.000000*%
%ADD60HorizOval,1.000000X0.118202X0.092349X-0.118202X-0.092349X0*%
%ADD61R,1.300000X1.000000*%
%ADD62O,1.300000X1.000000*%
%ADD63RotRect,1.000000X1.300000X53.000000*%
%ADD64HorizOval,1.000000X-0.119795X0.090272X0.119795X-0.090272X0*%
%ADD65RotRect,1.000000X1.300000X343.000000*%
%ADD66HorizOval,1.000000X-0.043856X-0.143446X0.043856X0.143446X0*%
%ADD67RotRect,1.000000X1.300000X225.000000*%
%ADD68HorizOval,1.000000X-0.106066X0.106066X0.106066X-0.106066X0*%
%ADD69RotRect,1.000000X1.300000X81.000000*%
%ADD70HorizOval,1.000000X-0.148153X0.023465X0.148153X-0.023465X0*%
%ADD71RotRect,1.000000X1.300000X144.000000*%
%ADD72HorizOval,1.000000X0.088168X0.121353X-0.088168X-0.121353X0*%
%ADD73RotRect,1.000000X1.300000X210.000000*%
%ADD74HorizOval,1.000000X-0.075000X0.129904X0.075000X-0.129904X0*%
%ADD75HorizOval,1.000000X0.041346X0.144189X-0.041346X-0.144189X0*%
%ADD76RotRect,1.000000X1.300000X164.000000*%
%ADD77RotRect,1.000000X1.300000X16.000000*%
%ADD78RotRect,1.000000X1.300000X312.000000*%
%ADD79HorizOval,1.000000X-0.111472X-0.100370X0.111472X0.100370X0*%
%ADD80RotRect,1.000000X1.300000X287.000000*%
%ADD81HorizOval,1.000000X-0.143446X-0.043856X0.143446X0.043856X0*%
%ADD82RotRect,1.000000X1.300000X35.000000*%
%ADD83HorizOval,1.000000X-0.086036X0.122873X0.086036X-0.122873X0*%
G04 APERTURE END LIST*
D10*
%TO.C,C12*%
X159000000Y-88550000D03*
X158521024Y-90024138D03*
%TD*%
D11*
%TO.C,R15*%
X158950000Y-65700000D03*
X158950000Y-67350000D03*
%TD*%
D12*
%TO.C,C4*%
X147550000Y-91550000D03*
X146207660Y-92325000D03*
%TD*%
D13*
%TO.C,C9*%
X147550000Y-101850000D03*
X146060044Y-102277238D03*
%TD*%
D14*
%TO.C,J2*%
X128250000Y-96150000D03*
D15*
X126050295Y-94880000D03*
X123850591Y-93610000D03*
%TD*%
D16*
%TO.C,R2*%
X141753598Y-75748400D03*
X142700000Y-77100000D03*
%TD*%
D17*
%TO.C,C16*%
X146217728Y-65046824D03*
X147700000Y-65500000D03*
%TD*%
D18*
%TO.C,R17*%
X142200000Y-66700000D03*
X141745198Y-65113918D03*
%TD*%
D19*
%TO.C,R8*%
X135445198Y-97886082D03*
X135900000Y-96300000D03*
%TD*%
D20*
%TO.C,R19*%
X123800000Y-74900000D03*
X125429686Y-75158116D03*
%TD*%
D21*
%TO.C,R12*%
X156130756Y-91890122D03*
X157700000Y-92400000D03*
%TD*%
D22*
%TO.C,J1*%
X160050000Y-72900000D03*
D23*
X160050000Y-75440000D03*
X160050000Y-77980000D03*
%TD*%
D24*
%TO.C,R11*%
X157433274Y-100433274D03*
X158600000Y-101600000D03*
%TD*%
D11*
%TO.C,R14*%
X156000000Y-73550000D03*
X156000000Y-75200000D03*
%TD*%
D25*
%TO.C,C7*%
X132600000Y-94250000D03*
X131645724Y-93028584D03*
%TD*%
D18*
%TO.C,R9*%
X143900000Y-103800000D03*
X143445198Y-102213918D03*
%TD*%
D26*
%TO.C,C13*%
X155823412Y-78508864D03*
X156276588Y-79991136D03*
%TD*%
D27*
%TO.C,R7*%
X126400000Y-90000000D03*
X125384158Y-88699782D03*
%TD*%
D28*
%TO.C,R1*%
X147400000Y-87550000D03*
X149050000Y-87550000D03*
%TD*%
D29*
%TO.C,C8*%
X139139956Y-100777238D03*
X137650000Y-100350000D03*
%TD*%
D30*
%TO.C,C14*%
X154812848Y-69098126D03*
X155850000Y-70250000D03*
%TD*%
D28*
%TO.C,R6*%
X132450000Y-81450000D03*
X134100000Y-81450000D03*
%TD*%
D31*
%TO.C,C18*%
X128750000Y-72650000D03*
X129682814Y-71412114D03*
%TD*%
D32*
%TO.C,C6*%
X132500000Y-84500000D03*
X132500000Y-82950000D03*
%TD*%
D33*
%TO.C,C17*%
X137800000Y-66600000D03*
X139289956Y-66172762D03*
%TD*%
D32*
%TO.C,C20*%
X110450000Y-84250000D03*
X110450000Y-82700000D03*
%TD*%
D34*
%TO.C,R4*%
X144325000Y-93928942D03*
X143500000Y-92500000D03*
%TD*%
D35*
%TO.C,R5*%
X150100000Y-76500000D03*
X149275000Y-77928942D03*
%TD*%
D36*
%TO.C,R13*%
X158100000Y-82100000D03*
X156522098Y-82582414D03*
%TD*%
D37*
%TO.C,R3*%
X135686800Y-86766400D03*
X136656646Y-85431522D03*
%TD*%
D38*
%TO.C,C11*%
X156346016Y-96553984D03*
X155250000Y-97650000D03*
%TD*%
D39*
%TO.C,C5*%
X147857660Y-71725000D03*
X149200000Y-72500000D03*
%TD*%
D40*
%TO.C,C2*%
X137430314Y-77739044D03*
X138700000Y-76850000D03*
%TD*%
D34*
%TO.C,R10*%
X150300000Y-108100000D03*
X149475000Y-106671058D03*
%TD*%
D41*
%TO.C,R21*%
X119874932Y-88363480D03*
X118250000Y-88650000D03*
%TD*%
D42*
%TO.C,R16*%
X149200000Y-62250000D03*
X149682414Y-60672098D03*
%TD*%
D43*
%TO.C,C1*%
X149600000Y-83100000D03*
X149600000Y-84650000D03*
%TD*%
D44*
%TO.C,C19*%
X123857526Y-79080916D03*
X124100000Y-77550000D03*
%TD*%
D45*
%TO.C,C15*%
X157700000Y-55778626D03*
X159014474Y-56600000D03*
%TD*%
D46*
%TO.C,C3*%
X138553976Y-90311068D03*
X137300000Y-89400000D03*
%TD*%
D12*
%TO.C,C10*%
X158750000Y-110700000D03*
X157407660Y-111475000D03*
%TD*%
D28*
%TO.C,R20*%
X117700000Y-78150000D03*
X119350000Y-78150000D03*
%TD*%
D47*
%TO.C,R18*%
X132982252Y-70407006D03*
X134300000Y-71400000D03*
%TD*%
D48*
%TO.C,C21*%
X123634577Y-89013226D03*
X123365423Y-87486774D03*
%TD*%
D49*
%TO.C,D9*%
X149200000Y-103300000D03*
D50*
X147979197Y-103650059D03*
X146758395Y-104000119D03*
X145537592Y-104350178D03*
%TD*%
D51*
%TO.C,D12*%
X157800000Y-86700000D03*
D52*
X157407549Y-87907842D03*
X157015097Y-89115684D03*
X156622646Y-90323526D03*
%TD*%
D53*
%TO.C,D15*%
X155718936Y-56631008D03*
D54*
X156795957Y-57304005D03*
X157872979Y-57977003D03*
X158950000Y-58650000D03*
%TD*%
D55*
%TO.C,D21*%
X122100000Y-90950000D03*
D56*
X121879467Y-89699294D03*
X121658933Y-88448588D03*
X121438400Y-87197882D03*
%TD*%
D57*
%TO.C,D5*%
X146000444Y-72795000D03*
D58*
X147100296Y-73430000D03*
X148200148Y-74065000D03*
X149300000Y-74700000D03*
%TD*%
D59*
%TO.C,D7*%
X131550000Y-95650000D03*
D60*
X130768110Y-94649227D03*
X129986220Y-93648453D03*
X129204330Y-92647680D03*
%TD*%
D61*
%TO.C,D20*%
X112200000Y-85440000D03*
D62*
X112200000Y-84170000D03*
X112200000Y-82900000D03*
X112200000Y-81630000D03*
%TD*%
D63*
%TO.C,D18*%
X129400000Y-74600000D03*
D64*
X130164305Y-73585733D03*
X130928611Y-72571465D03*
X131692916Y-71557198D03*
%TD*%
D61*
%TO.C,D1*%
X147700000Y-81800000D03*
D62*
X147700000Y-83070000D03*
X147700000Y-84340000D03*
X147700000Y-85610000D03*
%TD*%
D61*
%TO.C,D6*%
X130550000Y-85440000D03*
D62*
X130550000Y-84170000D03*
X130550000Y-82900000D03*
X130550000Y-81630000D03*
%TD*%
D65*
%TO.C,D16*%
X145656478Y-62886064D03*
D66*
X146870985Y-63257376D03*
X148085493Y-63628688D03*
X149300000Y-64000000D03*
%TD*%
D67*
%TO.C,D11*%
X158400000Y-97000000D03*
D68*
X157501975Y-97898025D03*
X156603949Y-98796051D03*
X155705924Y-99694076D03*
%TD*%
D69*
%TO.C,D19*%
X121700000Y-80000000D03*
D70*
X121898672Y-78745636D03*
X122097344Y-77491272D03*
X122296016Y-76236908D03*
%TD*%
D71*
%TO.C,D3*%
X140591177Y-89569731D03*
D72*
X139563726Y-88823244D03*
X138536274Y-88076756D03*
X137508823Y-87330269D03*
%TD*%
D73*
%TO.C,D10*%
X158800000Y-108700000D03*
D74*
X157700148Y-109335000D03*
X156600296Y-109970000D03*
X155500444Y-110605000D03*
%TD*%
D75*
%TO.C,D8*%
X136887592Y-98399822D03*
X138108395Y-98749881D03*
X139329197Y-99099941D03*
D76*
X140550000Y-99450000D03*
%TD*%
D77*
%TO.C,D17*%
X136958395Y-68650119D03*
D50*
X138179198Y-68300060D03*
X139400000Y-67950000D03*
X140620803Y-67599941D03*
%TD*%
D78*
%TO.C,D14*%
X155700000Y-67425000D03*
D79*
X156549796Y-68368794D03*
X157399592Y-69312588D03*
X158249388Y-70256382D03*
%TD*%
D80*
%TO.C,D13*%
X156836064Y-76756478D03*
D81*
X157207376Y-77970985D03*
X157578688Y-79185493D03*
X157950000Y-80400000D03*
%TD*%
D82*
%TO.C,D2*%
X137500000Y-79900000D03*
D83*
X138540323Y-79171558D03*
X139580647Y-78443116D03*
X140620970Y-77714674D03*
%TD*%
D73*
%TO.C,D4*%
X149400000Y-92500000D03*
D74*
X148300148Y-93135000D03*
X147200296Y-93770000D03*
X146100444Y-94405000D03*
%TD*%
M02*
