%TF.GenerationSoftware,KiCad,Pcbnew,(6.0.2)*%
%TF.CreationDate,2022-03-26T22:50:30-07:00*%
%TF.ProjectId,triangle,74726961-6e67-46c6-952e-6b696361645f,rev?*%
%TF.SameCoordinates,Original*%
%TF.FileFunction,Profile,NP*%
%FSLAX46Y46*%
G04 Gerber Fmt 4.6, Leading zero omitted, Abs format (unit mm)*
G04 Created by KiCad (PCBNEW (6.0.2)) date 2022-03-26 22:50:30*
%MOMM*%
%LPD*%
G01*
G04 APERTURE LIST*
%TA.AperFunction,Profile*%
%ADD10C,0.100000*%
%TD*%
G04 APERTURE END LIST*
D10*
X129058000Y-80897500D02*
X134687000Y-77647500D01*
X144628000Y-99406500D02*
X138999000Y-96156500D01*
X159608000Y-116410500D02*
X161858000Y-115111500D01*
X140749000Y-93125499D02*
G75*
G03*
X138999000Y-96156500I-874842J-1515592D01*
G01*
X134687000Y-77647500D02*
G75*
G03*
X132937000Y-74616500I-875592J1515158D01*
G01*
X161858000Y-52161500D02*
X161858000Y-115111500D01*
X146378000Y-70897499D02*
G75*
G03*
X144628000Y-67866500I-874841J1515591D01*
G01*
X151122000Y-80136500D02*
X151122000Y-73636500D01*
X138999000Y-71116501D02*
G75*
G03*
X140749000Y-74147500I875158J-1515408D01*
G01*
X132937000Y-92656500D02*
X127308000Y-89406500D01*
X127308000Y-77866500D02*
X132937000Y-74616500D01*
X157135000Y-105868500D02*
X157135000Y-105868500D01*
X151122000Y-87136500D02*
X151122000Y-93636500D01*
X121777000Y-83636500D02*
G75*
G03*
X121777000Y-83636500I-4200000J0D01*
G01*
X154622000Y-73636500D02*
X154622000Y-80136500D01*
X159608000Y-50862500D02*
X161858000Y-52161500D01*
X159608000Y-116410500D02*
X105092000Y-84935500D01*
X105092000Y-82337500D02*
X159608000Y-50862500D01*
X158691000Y-104948500D02*
G75*
G03*
X158691000Y-104948500I-4200000J0D01*
G01*
X154622000Y-73636500D02*
G75*
G03*
X151122000Y-73636500I-1750000J0D01*
G01*
X144628000Y-99406501D02*
G75*
G03*
X146378000Y-96375500I875159J1515409D01*
G01*
X138999000Y-71116500D02*
X144628000Y-67866500D01*
X140749000Y-93125500D02*
X146378000Y-96375500D01*
X154622000Y-93636500D02*
X154622000Y-87136500D01*
X127308000Y-77866500D02*
G75*
G03*
X129058000Y-80897500I874409J-1515841D01*
G01*
X151122000Y-80136500D02*
G75*
G03*
X154622000Y-80136500I1750000J0D01*
G01*
X151122000Y-93636500D02*
G75*
G03*
X154622000Y-93636500I1750000J0D01*
G01*
X129058000Y-86375501D02*
G75*
G03*
X127308000Y-89406500I-875591J-1515158D01*
G01*
X154622000Y-87136500D02*
G75*
G03*
X151122000Y-87136500I-1750000J0D01*
G01*
X129058000Y-86375500D02*
X134687000Y-89625500D01*
X158691000Y-62324500D02*
G75*
G03*
X158691000Y-62324500I-4200000J0D01*
G01*
X105092000Y-84935500D02*
X105092000Y-82337500D01*
X132937000Y-92656499D02*
G75*
G03*
X134687000Y-89625500I874408J1515841D01*
G01*
X146378000Y-70897500D02*
X140749000Y-74147500D01*
X146386000Y-83636500D02*
G75*
G03*
X146386000Y-83636500I-4200000J0D01*
G01*
M02*
