%TF.GenerationSoftware,KiCad,Pcbnew,(6.0.2)*%
%TF.CreationDate,2022-03-26T22:50:30-07:00*%
%TF.ProjectId,triangle,74726961-6e67-46c6-952e-6b696361645f,rev?*%
%TF.SameCoordinates,Original*%
%TF.FileFunction,Soldermask,Bot*%
%TF.FilePolarity,Negative*%
%FSLAX46Y46*%
G04 Gerber Fmt 4.6, Leading zero omitted, Abs format (unit mm)*
G04 Created by KiCad (PCBNEW (6.0.2)) date 2022-03-26 22:50:30*
%MOMM*%
%LPD*%
G01*
G04 APERTURE LIST*
G04 Aperture macros list*
%AMHorizOval*
0 Thick line with rounded ends*
0 $1 width*
0 $2 $3 position (X,Y) of the first rounded end (center of the circle)*
0 $4 $5 position (X,Y) of the second rounded end (center of the circle)*
0 Add line between two ends*
20,1,$1,$2,$3,$4,$5,0*
0 Add two circle primitives to create the rounded ends*
1,1,$1,$2,$3*
1,1,$1,$4,$5*%
%AMRotRect*
0 Rectangle, with rotation*
0 The origin of the aperture is its center*
0 $1 length*
0 $2 width*
0 $3 Rotation angle, in degrees counterclockwise*
0 Add horizontal line*
21,1,$1,$2,0,0,$3*%
G04 Aperture macros list end*
%ADD10RotRect,1.700000X1.700000X240.000000*%
%ADD11HorizOval,1.700000X0.000000X0.000000X0.000000X0.000000X0*%
%ADD12R,1.700000X1.700000*%
%ADD13O,1.700000X1.700000*%
%ADD14RotRect,1.000000X1.300000X196.000000*%
%ADD15HorizOval,1.000000X-0.041346X0.144189X0.041346X-0.144189X0*%
%ADD16RotRect,1.000000X1.300000X252.000000*%
%ADD17HorizOval,1.000000X-0.142658X0.046353X0.142658X-0.046353X0*%
%ADD18RotRect,1.000000X1.300000X328.000000*%
%ADD19HorizOval,1.000000X-0.079488X-0.127207X0.079488X0.127207X0*%
%ADD20RotRect,1.000000X1.300000X100.000000*%
%ADD21HorizOval,1.000000X0.147721X0.026047X-0.147721X-0.026047X0*%
%ADD22RotRect,1.000000X1.300000X330.000000*%
%ADD23HorizOval,1.000000X-0.075000X-0.129904X0.075000X0.129904X0*%
%ADD24RotRect,1.000000X1.300000X128.000000*%
%ADD25HorizOval,1.000000X0.118202X0.092349X-0.118202X-0.092349X0*%
%ADD26R,1.300000X1.000000*%
%ADD27O,1.300000X1.000000*%
%ADD28RotRect,1.000000X1.300000X53.000000*%
%ADD29HorizOval,1.000000X-0.119795X0.090272X0.119795X-0.090272X0*%
%ADD30RotRect,1.000000X1.300000X343.000000*%
%ADD31HorizOval,1.000000X-0.043856X-0.143446X0.043856X0.143446X0*%
%ADD32RotRect,1.000000X1.300000X225.000000*%
%ADD33HorizOval,1.000000X-0.106066X0.106066X0.106066X-0.106066X0*%
%ADD34RotRect,1.000000X1.300000X81.000000*%
%ADD35HorizOval,1.000000X-0.148153X0.023465X0.148153X-0.023465X0*%
%ADD36RotRect,1.000000X1.300000X144.000000*%
%ADD37HorizOval,1.000000X0.088168X0.121353X-0.088168X-0.121353X0*%
%ADD38RotRect,1.000000X1.300000X210.000000*%
%ADD39HorizOval,1.000000X-0.075000X0.129904X0.075000X-0.129904X0*%
%ADD40HorizOval,1.000000X0.041346X0.144189X-0.041346X-0.144189X0*%
%ADD41RotRect,1.000000X1.300000X164.000000*%
%ADD42RotRect,1.000000X1.300000X16.000000*%
%ADD43RotRect,1.000000X1.300000X312.000000*%
%ADD44HorizOval,1.000000X-0.111472X-0.100370X0.111472X0.100370X0*%
%ADD45RotRect,1.000000X1.300000X287.000000*%
%ADD46HorizOval,1.000000X-0.143446X-0.043856X0.143446X0.043856X0*%
%ADD47RotRect,1.000000X1.300000X35.000000*%
%ADD48HorizOval,1.000000X-0.086036X0.122873X0.086036X-0.122873X0*%
G04 APERTURE END LIST*
D10*
%TO.C,J2*%
X128250000Y-96150000D03*
D11*
X126050295Y-94880000D03*
X123850591Y-93610000D03*
%TD*%
D12*
%TO.C,J1*%
X160050000Y-72900000D03*
D13*
X160050000Y-75440000D03*
X160050000Y-77980000D03*
%TD*%
D14*
%TO.C,D9*%
X149200000Y-103300000D03*
D15*
X147979197Y-103650059D03*
X146758395Y-104000119D03*
X145537592Y-104350178D03*
%TD*%
D16*
%TO.C,D12*%
X157800000Y-86700000D03*
D17*
X157407549Y-87907842D03*
X157015097Y-89115684D03*
X156622646Y-90323526D03*
%TD*%
D18*
%TO.C,D15*%
X155718936Y-56631008D03*
D19*
X156795957Y-57304005D03*
X157872979Y-57977003D03*
X158950000Y-58650000D03*
%TD*%
D20*
%TO.C,D21*%
X122100000Y-90950000D03*
D21*
X121879467Y-89699294D03*
X121658933Y-88448588D03*
X121438400Y-87197882D03*
%TD*%
D22*
%TO.C,D5*%
X146000444Y-72795000D03*
D23*
X147100296Y-73430000D03*
X148200148Y-74065000D03*
X149300000Y-74700000D03*
%TD*%
D24*
%TO.C,D7*%
X131550000Y-95650000D03*
D25*
X130768110Y-94649227D03*
X129986220Y-93648453D03*
X129204330Y-92647680D03*
%TD*%
D26*
%TO.C,D20*%
X112200000Y-85440000D03*
D27*
X112200000Y-84170000D03*
X112200000Y-82900000D03*
X112200000Y-81630000D03*
%TD*%
D28*
%TO.C,D18*%
X129400000Y-74600000D03*
D29*
X130164305Y-73585733D03*
X130928611Y-72571465D03*
X131692916Y-71557198D03*
%TD*%
D26*
%TO.C,D1*%
X147700000Y-81800000D03*
D27*
X147700000Y-83070000D03*
X147700000Y-84340000D03*
X147700000Y-85610000D03*
%TD*%
D26*
%TO.C,D6*%
X130550000Y-85440000D03*
D27*
X130550000Y-84170000D03*
X130550000Y-82900000D03*
X130550000Y-81630000D03*
%TD*%
D30*
%TO.C,D16*%
X145656478Y-62886064D03*
D31*
X146870985Y-63257376D03*
X148085493Y-63628688D03*
X149300000Y-64000000D03*
%TD*%
D32*
%TO.C,D11*%
X158400000Y-97000000D03*
D33*
X157501975Y-97898025D03*
X156603949Y-98796051D03*
X155705924Y-99694076D03*
%TD*%
D34*
%TO.C,D19*%
X121700000Y-80000000D03*
D35*
X121898672Y-78745636D03*
X122097344Y-77491272D03*
X122296016Y-76236908D03*
%TD*%
D36*
%TO.C,D3*%
X140591177Y-89569731D03*
D37*
X139563726Y-88823244D03*
X138536274Y-88076756D03*
X137508823Y-87330269D03*
%TD*%
D38*
%TO.C,D10*%
X158800000Y-108700000D03*
D39*
X157700148Y-109335000D03*
X156600296Y-109970000D03*
X155500444Y-110605000D03*
%TD*%
D40*
%TO.C,D8*%
X136887592Y-98399822D03*
X138108395Y-98749881D03*
X139329197Y-99099941D03*
D41*
X140550000Y-99450000D03*
%TD*%
D42*
%TO.C,D17*%
X136958395Y-68650119D03*
D15*
X138179198Y-68300060D03*
X139400000Y-67950000D03*
X140620803Y-67599941D03*
%TD*%
D43*
%TO.C,D14*%
X155700000Y-67425000D03*
D44*
X156549796Y-68368794D03*
X157399592Y-69312588D03*
X158249388Y-70256382D03*
%TD*%
D45*
%TO.C,D13*%
X156836064Y-76756478D03*
D46*
X157207376Y-77970985D03*
X157578688Y-79185493D03*
X157950000Y-80400000D03*
%TD*%
D47*
%TO.C,D2*%
X137500000Y-79900000D03*
D48*
X138540323Y-79171558D03*
X139580647Y-78443116D03*
X140620970Y-77714674D03*
%TD*%
D38*
%TO.C,D4*%
X149400000Y-92500000D03*
D39*
X148300148Y-93135000D03*
X147200296Y-93770000D03*
X146100444Y-94405000D03*
%TD*%
M02*
