%TF.GenerationSoftware,KiCad,Pcbnew,(6.0.2)*%
%TF.CreationDate,2022-03-26T22:50:30-07:00*%
%TF.ProjectId,triangle,74726961-6e67-46c6-952e-6b696361645f,rev?*%
%TF.SameCoordinates,Original*%
%TF.FileFunction,Legend,Top*%
%TF.FilePolarity,Positive*%
%FSLAX46Y46*%
G04 Gerber Fmt 4.6, Leading zero omitted, Abs format (unit mm)*
G04 Created by KiCad (PCBNEW (6.0.2)) date 2022-03-26 22:50:30*
%MOMM*%
%LPD*%
G01*
G04 APERTURE LIST*
%ADD10C,0.150000*%
%ADD11C,0.300000*%
%ADD12C,0.120000*%
G04 APERTURE END LIST*
D10*
X156876190Y-75652380D02*
X156876190Y-74652380D01*
X157114285Y-74652380D01*
X157257142Y-74700000D01*
X157352380Y-74795238D01*
X157400000Y-74890476D01*
X157447619Y-75080952D01*
X157447619Y-75223809D01*
X157400000Y-75414285D01*
X157352380Y-75509523D01*
X157257142Y-75604761D01*
X157114285Y-75652380D01*
X156876190Y-75652380D01*
X157876190Y-75652380D02*
X157876190Y-74652380D01*
X158352380Y-75652380D02*
X158352380Y-74652380D01*
X158923809Y-75652380D01*
X158923809Y-74652380D01*
X157409523Y-73152380D02*
X156933333Y-73152380D01*
X156885714Y-73628571D01*
X156933333Y-73580952D01*
X157028571Y-73533333D01*
X157266666Y-73533333D01*
X157361904Y-73580952D01*
X157409523Y-73628571D01*
X157457142Y-73723809D01*
X157457142Y-73961904D01*
X157409523Y-74057142D01*
X157361904Y-74104761D01*
X157266666Y-74152380D01*
X157028571Y-74152380D01*
X156933333Y-74104761D01*
X156885714Y-74057142D01*
X157742857Y-73152380D02*
X158076190Y-74152380D01*
X158409523Y-73152380D01*
X124238095Y-91200000D02*
X124142857Y-91152380D01*
X124000000Y-91152380D01*
X123857142Y-91200000D01*
X123761904Y-91295238D01*
X123714285Y-91390476D01*
X123666666Y-91580952D01*
X123666666Y-91723809D01*
X123714285Y-91914285D01*
X123761904Y-92009523D01*
X123857142Y-92104761D01*
X124000000Y-92152380D01*
X124095238Y-92152380D01*
X124238095Y-92104761D01*
X124285714Y-92057142D01*
X124285714Y-91723809D01*
X124095238Y-91723809D01*
X124714285Y-92152380D02*
X124714285Y-91152380D01*
X125285714Y-92152380D01*
X125285714Y-91152380D01*
X125761904Y-92152380D02*
X125761904Y-91152380D01*
X126000000Y-91152380D01*
X126142857Y-91200000D01*
X126238095Y-91295238D01*
X126285714Y-91390476D01*
X126333333Y-91580952D01*
X126333333Y-91723809D01*
X126285714Y-91914285D01*
X126238095Y-92009523D01*
X126142857Y-92104761D01*
X126000000Y-92152380D01*
X125761904Y-92152380D01*
X159338095Y-79600000D02*
X159242857Y-79552380D01*
X159100000Y-79552380D01*
X158957142Y-79600000D01*
X158861904Y-79695238D01*
X158814285Y-79790476D01*
X158766666Y-79980952D01*
X158766666Y-80123809D01*
X158814285Y-80314285D01*
X158861904Y-80409523D01*
X158957142Y-80504761D01*
X159100000Y-80552380D01*
X159195238Y-80552380D01*
X159338095Y-80504761D01*
X159385714Y-80457142D01*
X159385714Y-80123809D01*
X159195238Y-80123809D01*
X159814285Y-80552380D02*
X159814285Y-79552380D01*
X160385714Y-80552380D01*
X160385714Y-79552380D01*
X160861904Y-80552380D02*
X160861904Y-79552380D01*
X161100000Y-79552380D01*
X161242857Y-79600000D01*
X161338095Y-79695238D01*
X161385714Y-79790476D01*
X161433333Y-79980952D01*
X161433333Y-80123809D01*
X161385714Y-80314285D01*
X161338095Y-80409523D01*
X161242857Y-80504761D01*
X161100000Y-80552380D01*
X160861904Y-80552380D01*
X125059523Y-93552380D02*
X125059523Y-92552380D01*
X125297619Y-92552380D01*
X125440476Y-92600000D01*
X125535714Y-92695238D01*
X125583333Y-92790476D01*
X125630952Y-92980952D01*
X125630952Y-93123809D01*
X125583333Y-93314285D01*
X125535714Y-93409523D01*
X125440476Y-93504761D01*
X125297619Y-93552380D01*
X125059523Y-93552380D01*
X126250000Y-92552380D02*
X126440476Y-92552380D01*
X126535714Y-92600000D01*
X126630952Y-92695238D01*
X126678571Y-92885714D01*
X126678571Y-93219047D01*
X126630952Y-93409523D01*
X126535714Y-93504761D01*
X126440476Y-93552380D01*
X126250000Y-93552380D01*
X126154761Y-93504761D01*
X126059523Y-93409523D01*
X126011904Y-93219047D01*
X126011904Y-92885714D01*
X126059523Y-92695238D01*
X126154761Y-92600000D01*
X126250000Y-92552380D01*
X127107142Y-92552380D02*
X127107142Y-93361904D01*
X127154761Y-93457142D01*
X127202380Y-93504761D01*
X127297619Y-93552380D01*
X127488095Y-93552380D01*
X127583333Y-93504761D01*
X127630952Y-93457142D01*
X127678571Y-93361904D01*
X127678571Y-92552380D01*
X128011904Y-92552380D02*
X128583333Y-92552380D01*
X128297619Y-93552380D02*
X128297619Y-92552380D01*
D11*
X137075986Y-65869802D02*
X136457396Y-66226945D01*
X135707396Y-64927907D01*
X137116142Y-64939354D02*
X137549154Y-64689354D01*
X138127588Y-65262660D02*
X137508999Y-65619802D01*
X136758999Y-64320764D01*
X137377588Y-63963621D01*
X138684319Y-64941231D02*
X137934319Y-63642193D01*
X138243614Y-63463621D01*
X138464905Y-63418338D01*
X138660051Y-63470627D01*
X138793339Y-63558631D01*
X138998055Y-63770352D01*
X139105198Y-63955929D01*
X139186196Y-64239079D01*
X139195766Y-64398511D01*
X139143476Y-64593658D01*
X138993614Y-64762660D01*
X138684319Y-64941231D01*
X140037524Y-62427907D02*
X140779831Y-61999336D01*
X141158677Y-63512660D02*
X140408677Y-62213621D01*
X141962844Y-63048374D02*
X141462844Y-62182348D01*
X141605701Y-62429784D02*
X141596131Y-62270352D01*
X141622276Y-62172779D01*
X141710280Y-62039491D01*
X141833997Y-61968063D01*
X142767010Y-62584088D02*
X142267010Y-61718063D01*
X142017010Y-61285050D02*
X141990865Y-61382623D01*
X142088439Y-61408768D01*
X142114583Y-61311195D01*
X142017010Y-61285050D01*
X142088439Y-61408768D01*
X143942330Y-61905517D02*
X143549473Y-61225068D01*
X143416186Y-61137065D01*
X143256753Y-61146634D01*
X143009318Y-61289491D01*
X142921314Y-61422779D01*
X143906616Y-61843658D02*
X143818612Y-61976945D01*
X143509318Y-62155517D01*
X143349885Y-62165086D01*
X143216598Y-62077083D01*
X143145169Y-61953365D01*
X143135600Y-61793933D01*
X143223603Y-61660645D01*
X143532898Y-61482074D01*
X143620902Y-61348786D01*
X144060920Y-60682348D02*
X144560920Y-61548374D01*
X144132348Y-60806066D02*
X144158493Y-60708493D01*
X144246497Y-60575206D01*
X144432074Y-60468063D01*
X144591506Y-60458493D01*
X144724793Y-60546497D01*
X145117651Y-61226945D01*
X145792971Y-59682348D02*
X146400114Y-60733951D01*
X146409683Y-60893383D01*
X146383539Y-60990956D01*
X146295535Y-61124244D01*
X146109958Y-61231387D01*
X145950526Y-61240956D01*
X146257256Y-60486515D02*
X146169253Y-60619802D01*
X145921817Y-60762660D01*
X145762385Y-60772229D01*
X145664812Y-60746085D01*
X145531524Y-60658081D01*
X145317238Y-60286927D01*
X145307669Y-60127495D01*
X145333813Y-60029922D01*
X145421817Y-59896634D01*
X145669253Y-59753777D01*
X145828685Y-59744207D01*
X147097137Y-60084088D02*
X146937705Y-60093658D01*
X146804417Y-60005654D01*
X146161560Y-58892193D01*
X148051166Y-59450801D02*
X147963163Y-59584088D01*
X147715727Y-59726945D01*
X147556295Y-59736515D01*
X147423007Y-59648511D01*
X147137293Y-59153640D01*
X147127723Y-58994207D01*
X147215727Y-58860920D01*
X147463163Y-58718063D01*
X147622595Y-58708493D01*
X147755882Y-58796497D01*
X147827311Y-58920215D01*
X147280150Y-59401075D01*
X149695213Y-58584088D02*
X149195213Y-57718063D01*
X149338071Y-57965499D02*
X149328501Y-57806066D01*
X149354646Y-57708493D01*
X149442649Y-57575206D01*
X149566367Y-57503777D01*
X150958537Y-57772229D02*
X150870534Y-57905517D01*
X150623098Y-58048374D01*
X150463666Y-58057943D01*
X150330378Y-57969940D01*
X150044664Y-57475068D01*
X150035094Y-57315636D01*
X150123098Y-57182348D01*
X150370534Y-57039491D01*
X150529966Y-57029922D01*
X150663253Y-57117925D01*
X150734682Y-57241643D01*
X150187521Y-57722504D01*
X150989123Y-56682348D02*
X151798418Y-57369802D01*
X151607713Y-56325206D01*
X151862154Y-55765911D02*
X151888299Y-55668338D01*
X151976302Y-55535050D01*
X152285597Y-55356479D01*
X152445029Y-55346909D01*
X152542603Y-55373054D01*
X152675890Y-55461057D01*
X152747319Y-55584775D01*
X152792603Y-55806066D01*
X152478866Y-56976945D01*
X153283033Y-56512660D01*
X159778571Y-105585714D02*
X159778571Y-104728571D01*
X161278571Y-105157142D02*
X159778571Y-105157142D01*
X161278571Y-104014285D02*
X161207142Y-104157142D01*
X161135714Y-104228571D01*
X160992857Y-104300000D01*
X160564285Y-104300000D01*
X160421428Y-104228571D01*
X160350000Y-104157142D01*
X160278571Y-104014285D01*
X160278571Y-103800000D01*
X160350000Y-103657142D01*
X160421428Y-103585714D01*
X160564285Y-103514285D01*
X160992857Y-103514285D01*
X161135714Y-103585714D01*
X161207142Y-103657142D01*
X161278571Y-103800000D01*
X161278571Y-104014285D01*
X161278571Y-102871428D02*
X160278571Y-102871428D01*
X160421428Y-102871428D02*
X160350000Y-102800000D01*
X160278571Y-102657142D01*
X160278571Y-102442857D01*
X160350000Y-102300000D01*
X160492857Y-102228571D01*
X161278571Y-102228571D01*
X160492857Y-102228571D02*
X160350000Y-102157142D01*
X160278571Y-102014285D01*
X160278571Y-101800000D01*
X160350000Y-101657142D01*
X160492857Y-101585714D01*
X161278571Y-101585714D01*
X159778571Y-99942857D02*
X161278571Y-99442857D01*
X159778571Y-98942857D01*
X161207142Y-97871428D02*
X161278571Y-98014285D01*
X161278571Y-98300000D01*
X161207142Y-98442857D01*
X161064285Y-98514285D01*
X160492857Y-98514285D01*
X160350000Y-98442857D01*
X160278571Y-98300000D01*
X160278571Y-98014285D01*
X160350000Y-97871428D01*
X160492857Y-97800000D01*
X160635714Y-97800000D01*
X160778571Y-98514285D01*
X161278571Y-97157142D02*
X160278571Y-97157142D01*
X160564285Y-97157142D02*
X160421428Y-97085714D01*
X160350000Y-97014285D01*
X160278571Y-96871428D01*
X160278571Y-96728571D01*
X161278571Y-96228571D02*
X159778571Y-96228571D01*
X160350000Y-96228571D02*
X160278571Y-96085714D01*
X160278571Y-95800000D01*
X160350000Y-95657142D01*
X160421428Y-95585714D01*
X160564285Y-95514285D01*
X160992857Y-95514285D01*
X161135714Y-95585714D01*
X161207142Y-95657142D01*
X161278571Y-95800000D01*
X161278571Y-96085714D01*
X161207142Y-96228571D01*
X161207142Y-94300000D02*
X161278571Y-94442857D01*
X161278571Y-94728571D01*
X161207142Y-94871428D01*
X161064285Y-94942857D01*
X160492857Y-94942857D01*
X160350000Y-94871428D01*
X160278571Y-94728571D01*
X160278571Y-94442857D01*
X160350000Y-94300000D01*
X160492857Y-94228571D01*
X160635714Y-94228571D01*
X160778571Y-94942857D01*
X160278571Y-92942857D02*
X161278571Y-92942857D01*
X160278571Y-93585714D02*
X161064285Y-93585714D01*
X161207142Y-93514285D01*
X161278571Y-93371428D01*
X161278571Y-93157142D01*
X161207142Y-93014285D01*
X161135714Y-92942857D01*
X161278571Y-92228571D02*
X160278571Y-92228571D01*
X160564285Y-92228571D02*
X160421428Y-92157142D01*
X160350000Y-92085714D01*
X160278571Y-91942857D01*
X160278571Y-91800000D01*
X161207142Y-90728571D02*
X161278571Y-90871428D01*
X161278571Y-91157142D01*
X161207142Y-91300000D01*
X161064285Y-91371428D01*
X160492857Y-91371428D01*
X160350000Y-91300000D01*
X160278571Y-91157142D01*
X160278571Y-90871428D01*
X160350000Y-90728571D01*
X160492857Y-90657142D01*
X160635714Y-90657142D01*
X160778571Y-91371428D01*
D10*
X128509523Y-93852380D02*
X128033333Y-93852380D01*
X127985714Y-94328571D01*
X128033333Y-94280952D01*
X128128571Y-94233333D01*
X128366666Y-94233333D01*
X128461904Y-94280952D01*
X128509523Y-94328571D01*
X128557142Y-94423809D01*
X128557142Y-94661904D01*
X128509523Y-94757142D01*
X128461904Y-94804761D01*
X128366666Y-94852380D01*
X128128571Y-94852380D01*
X128033333Y-94804761D01*
X127985714Y-94757142D01*
X128842857Y-93852380D02*
X129176190Y-94852380D01*
X129509523Y-93852380D01*
%TO.C,C12*%
X160491009Y-89621756D02*
X160521582Y-89681760D01*
X160522725Y-89832340D01*
X160493295Y-89922917D01*
X160403861Y-90044067D01*
X160283854Y-90105214D01*
X160178562Y-90121072D01*
X159982694Y-90107500D01*
X159846828Y-90063355D01*
X159680390Y-89959206D01*
X159604528Y-89884487D01*
X159543382Y-89764480D01*
X159542238Y-89613900D01*
X159571669Y-89523323D01*
X159661102Y-89402173D01*
X159721106Y-89371600D01*
X160875887Y-88745418D02*
X160699306Y-89288879D01*
X160787597Y-89017149D02*
X159836540Y-88708132D01*
X159942975Y-88842854D01*
X160004122Y-88962861D01*
X160019980Y-89068153D01*
X160133129Y-88103524D02*
X160102555Y-88043521D01*
X160086697Y-87938229D01*
X160160272Y-87711787D01*
X160234991Y-87635925D01*
X160294995Y-87605352D01*
X160400286Y-87589494D01*
X160490863Y-87618924D01*
X160612013Y-87708357D01*
X160978893Y-88428399D01*
X161170189Y-87839650D01*
%TO.C,R15*%
X160952380Y-66992857D02*
X160476190Y-67326190D01*
X160952380Y-67564285D02*
X159952380Y-67564285D01*
X159952380Y-67183333D01*
X160000000Y-67088095D01*
X160047619Y-67040476D01*
X160142857Y-66992857D01*
X160285714Y-66992857D01*
X160380952Y-67040476D01*
X160428571Y-67088095D01*
X160476190Y-67183333D01*
X160476190Y-67564285D01*
X160952380Y-66040476D02*
X160952380Y-66611904D01*
X160952380Y-66326190D02*
X159952380Y-66326190D01*
X160095238Y-66421428D01*
X160190476Y-66516666D01*
X160238095Y-66611904D01*
X159952380Y-65135714D02*
X159952380Y-65611904D01*
X160428571Y-65659523D01*
X160380952Y-65611904D01*
X160333333Y-65516666D01*
X160333333Y-65278571D01*
X160380952Y-65183333D01*
X160428571Y-65135714D01*
X160523809Y-65088095D01*
X160761904Y-65088095D01*
X160857142Y-65135714D01*
X160904761Y-65183333D01*
X160952380Y-65278571D01*
X160952380Y-65516666D01*
X160904761Y-65611904D01*
X160857142Y-65659523D01*
%TO.C,C4*%
X146034233Y-91392628D02*
X146016804Y-91457676D01*
X145916895Y-91570344D01*
X145834417Y-91617963D01*
X145686889Y-91648153D01*
X145556791Y-91613293D01*
X145467933Y-91554624D01*
X145331456Y-91413476D01*
X145260027Y-91289758D01*
X145206028Y-91100992D01*
X145199649Y-90994704D01*
X145234508Y-90864606D01*
X145334417Y-90751938D01*
X145416895Y-90704319D01*
X145564423Y-90674130D01*
X145629471Y-90691559D01*
X146490827Y-90469185D02*
X146824160Y-91046535D01*
X146094154Y-90258318D02*
X146245100Y-90995955D01*
X146781211Y-90686431D01*
%TO.C,C9*%
X146238231Y-101189248D02*
X146205582Y-101248148D01*
X146081385Y-101333299D01*
X145989836Y-101359550D01*
X145839387Y-101353152D01*
X145721588Y-101287855D01*
X145649562Y-101209432D01*
X145551285Y-101039460D01*
X145511908Y-100902137D01*
X145505180Y-100705914D01*
X145524704Y-100601239D01*
X145590001Y-100483440D01*
X145714199Y-100398288D01*
X145805747Y-100372037D01*
X145956196Y-100378435D01*
X146015096Y-100411084D01*
X146722226Y-101149541D02*
X146905323Y-101097038D01*
X146983747Y-101025013D01*
X147016395Y-100966113D01*
X147068567Y-100802539D01*
X147061839Y-100606315D01*
X146956835Y-100240121D01*
X146884809Y-100161697D01*
X146825909Y-100129049D01*
X146721235Y-100109525D01*
X146538137Y-100162028D01*
X146459714Y-100234053D01*
X146427065Y-100292953D01*
X146407542Y-100397628D01*
X146473170Y-100626499D01*
X146545196Y-100704923D01*
X146604096Y-100737571D01*
X146708770Y-100757095D01*
X146891867Y-100704592D01*
X146970291Y-100632567D01*
X147002939Y-100573667D01*
X147022463Y-100468992D01*
%TO.C,J2*%
X129609081Y-97714865D02*
X130227670Y-98072008D01*
X130327579Y-98184676D01*
X130362438Y-98314774D01*
X130332249Y-98462301D01*
X130284630Y-98544780D01*
X129905845Y-97391330D02*
X129888415Y-97326282D01*
X129894795Y-97219993D01*
X130013843Y-97013797D01*
X130102701Y-96955128D01*
X130167750Y-96937698D01*
X130274038Y-96944078D01*
X130356517Y-96991697D01*
X130456425Y-97104365D01*
X130665582Y-97884951D01*
X130975106Y-97348840D01*
%TO.C,R2*%
X143916164Y-75477050D02*
X143717284Y-76023232D01*
X144243922Y-75945137D02*
X143424770Y-76518713D01*
X143206265Y-76206655D01*
X143190646Y-76101328D01*
X143202340Y-76035007D01*
X143253041Y-75941374D01*
X143370063Y-75859434D01*
X143475391Y-75843815D01*
X143541711Y-75855509D01*
X143635345Y-75906210D01*
X143853850Y-76218268D01*
X142956521Y-75683942D02*
X142890201Y-75672248D01*
X142796568Y-75621547D01*
X142660002Y-75426510D01*
X142644383Y-75321183D01*
X142656077Y-75254862D01*
X142706778Y-75161229D01*
X142784792Y-75106602D01*
X142929127Y-75063670D01*
X143724972Y-75203999D01*
X143369901Y-74696905D01*
%TO.C,C16*%
X147469185Y-66446415D02*
X147528646Y-66414799D01*
X147679184Y-66411029D01*
X147770260Y-66438873D01*
X147892953Y-66526179D01*
X147956184Y-66645101D01*
X147973878Y-66750100D01*
X147963726Y-66946176D01*
X147921959Y-67082791D01*
X147820731Y-67251021D01*
X147747347Y-67328176D01*
X147628426Y-67391407D01*
X147477888Y-67395178D01*
X147386812Y-67367333D01*
X147264119Y-67280028D01*
X147232503Y-67220567D01*
X146586264Y-66076889D02*
X147132724Y-66243959D01*
X146859494Y-66160424D02*
X146567122Y-67116729D01*
X146699966Y-67007959D01*
X146818888Y-66944727D01*
X146923887Y-66927034D01*
X145474202Y-66782590D02*
X145656356Y-66838280D01*
X145761355Y-66820586D01*
X145820815Y-66788970D01*
X145953660Y-66680200D01*
X146054888Y-66511970D01*
X146166267Y-66147663D01*
X146148574Y-66042664D01*
X146116958Y-65983203D01*
X146039804Y-65909820D01*
X145857651Y-65854130D01*
X145752652Y-65871823D01*
X145693191Y-65903439D01*
X145619808Y-65980593D01*
X145550195Y-66208285D01*
X145567889Y-66313284D01*
X145599504Y-66372745D01*
X145676659Y-66446128D01*
X145858812Y-66501818D01*
X145963811Y-66484125D01*
X146023272Y-66452509D01*
X146096655Y-66375355D01*
%TO.C,R17*%
X144112051Y-66593260D02*
X143746187Y-67044937D01*
X144269558Y-67142553D02*
X143308297Y-67418190D01*
X143203292Y-67051995D01*
X143222815Y-66947321D01*
X143255464Y-66888421D01*
X143333887Y-66816395D01*
X143471210Y-66777019D01*
X143575885Y-66796542D01*
X143634785Y-66829191D01*
X143706810Y-66907614D01*
X143811815Y-67273809D01*
X143849540Y-65677773D02*
X144007047Y-66227065D01*
X143928293Y-65952419D02*
X142967031Y-66228057D01*
X143130606Y-66280229D01*
X143248406Y-66345526D01*
X143320431Y-66423949D01*
X142796399Y-65632990D02*
X142612641Y-64992149D01*
X143692033Y-65128481D01*
%TO.C,R8*%
X134888916Y-96084903D02*
X134339294Y-96274068D01*
X134731409Y-96634195D02*
X133770148Y-96358558D01*
X133875152Y-95992363D01*
X133947178Y-95913940D01*
X134006078Y-95881291D01*
X134110752Y-95861768D01*
X134248075Y-95901145D01*
X134326498Y-95973170D01*
X134359147Y-96032070D01*
X134378670Y-96136744D01*
X134273666Y-96502939D01*
X134497131Y-95378103D02*
X134425106Y-95456527D01*
X134366206Y-95489175D01*
X134261531Y-95508699D01*
X134215757Y-95495573D01*
X134137334Y-95423547D01*
X134104685Y-95364647D01*
X134085162Y-95259973D01*
X134137664Y-95076876D01*
X134209690Y-94998453D01*
X134268590Y-94965804D01*
X134373264Y-94946281D01*
X134419038Y-94959406D01*
X134497461Y-95031432D01*
X134530110Y-95090332D01*
X134549633Y-95195006D01*
X134497131Y-95378103D01*
X134516654Y-95482778D01*
X134549303Y-95541678D01*
X134627726Y-95613703D01*
X134810824Y-95666206D01*
X134915498Y-95646682D01*
X134974398Y-95614034D01*
X135046423Y-95535610D01*
X135098926Y-95352513D01*
X135079403Y-95247839D01*
X135046754Y-95188939D01*
X134968331Y-95116913D01*
X134785233Y-95064411D01*
X134680559Y-95083934D01*
X134621659Y-95116583D01*
X134549633Y-95195006D01*
%TO.C,R19*%
X125405710Y-73103753D02*
X125660447Y-73626226D01*
X125970103Y-73193144D02*
X125813669Y-74180833D01*
X125437407Y-74121239D01*
X125350790Y-74059307D01*
X125311207Y-74004825D01*
X125279073Y-73903310D01*
X125301420Y-73762212D01*
X125363352Y-73675596D01*
X125417834Y-73636012D01*
X125519348Y-73603878D01*
X125895611Y-73663472D01*
X124465054Y-72954768D02*
X125029448Y-73044159D01*
X124747251Y-72999463D02*
X124590817Y-73987152D01*
X124707230Y-73860952D01*
X124816194Y-73781785D01*
X124917709Y-73749651D01*
X123994727Y-72880275D02*
X123806596Y-72850478D01*
X123705081Y-72882613D01*
X123650599Y-72922196D01*
X123534185Y-73048396D01*
X123457356Y-73229078D01*
X123397761Y-73605340D01*
X123429896Y-73706855D01*
X123469479Y-73761337D01*
X123556095Y-73823268D01*
X123744227Y-73853065D01*
X123845741Y-73820931D01*
X123900223Y-73781347D01*
X123962155Y-73694731D01*
X123999401Y-73459567D01*
X123967267Y-73358052D01*
X123927683Y-73303570D01*
X123841067Y-73241639D01*
X123652936Y-73211842D01*
X123551421Y-73243976D01*
X123496939Y-73283560D01*
X123435008Y-73370176D01*
%TO.C,R12*%
X157351186Y-93068411D02*
X157521054Y-93624301D01*
X157894647Y-93244993D02*
X157585630Y-94196049D01*
X157223323Y-94078328D01*
X157147461Y-94003610D01*
X157116888Y-93943606D01*
X157101030Y-93838314D01*
X157145175Y-93702449D01*
X157219894Y-93626587D01*
X157279897Y-93596014D01*
X157385189Y-93580156D01*
X157747496Y-93697877D01*
X156445418Y-92774110D02*
X156988879Y-92950691D01*
X156717149Y-92862400D02*
X156408132Y-93813457D01*
X156542854Y-93707022D01*
X156662861Y-93645875D01*
X156768153Y-93630017D01*
X155803524Y-93516868D02*
X155743521Y-93547442D01*
X155638229Y-93563300D01*
X155411787Y-93489725D01*
X155335925Y-93415006D01*
X155305352Y-93355002D01*
X155289494Y-93249711D01*
X155318924Y-93159134D01*
X155408357Y-93037984D01*
X156128399Y-92671104D01*
X155539650Y-92479808D01*
%TO.C,J1*%
X159716666Y-70022380D02*
X159716666Y-70736666D01*
X159669047Y-70879523D01*
X159573809Y-70974761D01*
X159430952Y-71022380D01*
X159335714Y-71022380D01*
X160716666Y-71022380D02*
X160145238Y-71022380D01*
X160430952Y-71022380D02*
X160430952Y-70022380D01*
X160335714Y-70165238D01*
X160240476Y-70260476D01*
X160145238Y-70308095D01*
%TO.C,R11*%
X159374450Y-99834687D02*
X159273435Y-100407106D01*
X159778511Y-100238748D02*
X159071404Y-100945854D01*
X158802030Y-100676480D01*
X158768358Y-100575465D01*
X158768358Y-100508122D01*
X158802030Y-100407106D01*
X158903045Y-100306091D01*
X159004061Y-100272419D01*
X159071404Y-100272419D01*
X159172419Y-100306091D01*
X159441793Y-100575465D01*
X158701015Y-99161251D02*
X159105076Y-99565312D01*
X158903045Y-99363282D02*
X158195938Y-100070389D01*
X158364297Y-100036717D01*
X158498984Y-100036717D01*
X158600000Y-100070389D01*
X158027580Y-98487816D02*
X158431641Y-98891877D01*
X158229610Y-98689847D02*
X157522503Y-99396954D01*
X157690862Y-99363282D01*
X157825549Y-99363282D01*
X157926564Y-99396954D01*
%TO.C,R14*%
X155157142Y-72802380D02*
X154823809Y-72326190D01*
X154585714Y-72802380D02*
X154585714Y-71802380D01*
X154966666Y-71802380D01*
X155061904Y-71850000D01*
X155109523Y-71897619D01*
X155157142Y-71992857D01*
X155157142Y-72135714D01*
X155109523Y-72230952D01*
X155061904Y-72278571D01*
X154966666Y-72326190D01*
X154585714Y-72326190D01*
X156109523Y-72802380D02*
X155538095Y-72802380D01*
X155823809Y-72802380D02*
X155823809Y-71802380D01*
X155728571Y-71945238D01*
X155633333Y-72040476D01*
X155538095Y-72088095D01*
X156966666Y-72135714D02*
X156966666Y-72802380D01*
X156728571Y-71754761D02*
X156490476Y-72469047D01*
X157109523Y-72469047D01*
%TO.C,C7*%
X134684042Y-93811456D02*
X134750884Y-93819663D01*
X134876360Y-93902918D01*
X134934994Y-93977967D01*
X134985421Y-94119857D01*
X134969007Y-94253540D01*
X134923276Y-94349699D01*
X134802496Y-94504492D01*
X134689923Y-94592444D01*
X134510508Y-94672188D01*
X134406142Y-94693298D01*
X134272459Y-94676884D01*
X134146983Y-94593629D01*
X134088349Y-94518580D01*
X134037922Y-94376690D01*
X134046129Y-94309848D01*
X133765860Y-94105812D02*
X133355419Y-93580472D01*
X134407284Y-93302529D01*
%TO.C,R9*%
X142730796Y-103385517D02*
X142364931Y-103837193D01*
X142888303Y-103934809D02*
X141927041Y-104210446D01*
X141822036Y-103844252D01*
X141841559Y-103739577D01*
X141874208Y-103680677D01*
X141952631Y-103608652D01*
X142089954Y-103569275D01*
X142194629Y-103588798D01*
X142253529Y-103621447D01*
X142325554Y-103699870D01*
X142430559Y-104066065D01*
X142599540Y-102927773D02*
X142547037Y-102744676D01*
X142475012Y-102666252D01*
X142416112Y-102633604D01*
X142252538Y-102581432D01*
X142056314Y-102588160D01*
X141690120Y-102693164D01*
X141611696Y-102765190D01*
X141579048Y-102824090D01*
X141559524Y-102928764D01*
X141612027Y-103111862D01*
X141684052Y-103190285D01*
X141742952Y-103222934D01*
X141847627Y-103242457D01*
X142076498Y-103176829D01*
X142154922Y-103104803D01*
X142187570Y-103045903D01*
X142207094Y-102941229D01*
X142154591Y-102758132D01*
X142082566Y-102679708D01*
X142023666Y-102647060D01*
X141918991Y-102627536D01*
%TO.C,C13*%
X155239651Y-82079489D02*
X155208035Y-82138950D01*
X155085342Y-82226256D01*
X154994266Y-82254101D01*
X154843728Y-82250330D01*
X154724807Y-82187098D01*
X154651423Y-82109944D01*
X154550195Y-81941713D01*
X154508428Y-81805098D01*
X154498276Y-81609022D01*
X154515970Y-81504023D01*
X154579201Y-81385102D01*
X154701894Y-81297796D01*
X154792971Y-81269951D01*
X154943508Y-81273722D01*
X155002969Y-81305338D01*
X156178262Y-81892117D02*
X155631802Y-82059186D01*
X155905032Y-81975651D02*
X155612660Y-81019347D01*
X155563351Y-81183806D01*
X155500119Y-81302728D01*
X155422965Y-81376111D01*
X156204659Y-80838355D02*
X156796657Y-80657363D01*
X156589268Y-81119126D01*
X156725883Y-81077359D01*
X156830882Y-81095052D01*
X156890343Y-81126668D01*
X156963726Y-81203822D01*
X157033339Y-81431514D01*
X157015645Y-81536513D01*
X156984029Y-81595974D01*
X156906875Y-81669357D01*
X156633645Y-81752892D01*
X156528646Y-81735199D01*
X156469185Y-81703583D01*
%TO.C,R7*%
X125647178Y-87259091D02*
X125091336Y-87089068D01*
X125196886Y-87610897D02*
X124581225Y-86822887D01*
X124881419Y-86588349D01*
X124985785Y-86567239D01*
X125052627Y-86575446D01*
X125148785Y-86621177D01*
X125236737Y-86733750D01*
X125257847Y-86838116D01*
X125249640Y-86904958D01*
X125203908Y-87001116D01*
X124903714Y-87235654D01*
X125294187Y-86265860D02*
X125819527Y-85855419D01*
X126097470Y-86907284D01*
%TO.C,R1*%
X147908333Y-89502380D02*
X147575000Y-89026190D01*
X147336904Y-89502380D02*
X147336904Y-88502380D01*
X147717857Y-88502380D01*
X147813095Y-88550000D01*
X147860714Y-88597619D01*
X147908333Y-88692857D01*
X147908333Y-88835714D01*
X147860714Y-88930952D01*
X147813095Y-88978571D01*
X147717857Y-89026190D01*
X147336904Y-89026190D01*
X148860714Y-89502380D02*
X148289285Y-89502380D01*
X148575000Y-89502380D02*
X148575000Y-88502380D01*
X148479761Y-88645238D01*
X148384523Y-88740476D01*
X148289285Y-88788095D01*
%TO.C,C8*%
X138259469Y-101640854D02*
X138318369Y-101608206D01*
X138468817Y-101601808D01*
X138560366Y-101628059D01*
X138684564Y-101713210D01*
X138749861Y-101831010D01*
X138769384Y-101935684D01*
X138762656Y-102131908D01*
X138723280Y-102269231D01*
X138625003Y-102439203D01*
X138552977Y-102517626D01*
X138435177Y-102582923D01*
X138284729Y-102589321D01*
X138193180Y-102563070D01*
X138068982Y-102477918D01*
X138036334Y-102419019D01*
X137578920Y-101941091D02*
X137657344Y-102013116D01*
X137689992Y-102072016D01*
X137709516Y-102176691D01*
X137696390Y-102222465D01*
X137624364Y-102300888D01*
X137565464Y-102333537D01*
X137460790Y-102353060D01*
X137277693Y-102300558D01*
X137199270Y-102228532D01*
X137166621Y-102169632D01*
X137147098Y-102064958D01*
X137160223Y-102019184D01*
X137232249Y-101940761D01*
X137291149Y-101908112D01*
X137395823Y-101888589D01*
X137578920Y-101941091D01*
X137683595Y-101921568D01*
X137742495Y-101888919D01*
X137814520Y-101810496D01*
X137867023Y-101627398D01*
X137847499Y-101522724D01*
X137814851Y-101463824D01*
X137736427Y-101391799D01*
X137553330Y-101339296D01*
X137448656Y-101358819D01*
X137389756Y-101391468D01*
X137317730Y-101469891D01*
X137265228Y-101652989D01*
X137284751Y-101757663D01*
X137317400Y-101816563D01*
X137395823Y-101888589D01*
%TO.C,C14*%
X154595564Y-70538760D02*
X154662815Y-70542285D01*
X154793793Y-70616585D01*
X154857520Y-70687361D01*
X154917722Y-70825388D01*
X154910673Y-70959890D01*
X154871761Y-71059005D01*
X154762073Y-71221846D01*
X154655909Y-71317436D01*
X154482494Y-71409501D01*
X154379855Y-71437840D01*
X154245353Y-71430791D01*
X154114375Y-71356491D01*
X154050648Y-71285716D01*
X153990446Y-71147689D01*
X153993970Y-71080437D01*
X154029072Y-69767277D02*
X154411433Y-70191931D01*
X154220252Y-69979604D02*
X153477108Y-70648734D01*
X153646998Y-70623920D01*
X153781500Y-70630969D01*
X153880615Y-70669881D01*
X152960102Y-69576382D02*
X153455532Y-69130295D01*
X152836316Y-70008228D02*
X153526450Y-69707217D01*
X153112227Y-69247175D01*
%TO.C,R6*%
X133108333Y-80472380D02*
X132775000Y-79996190D01*
X132536904Y-80472380D02*
X132536904Y-79472380D01*
X132917857Y-79472380D01*
X133013095Y-79520000D01*
X133060714Y-79567619D01*
X133108333Y-79662857D01*
X133108333Y-79805714D01*
X133060714Y-79900952D01*
X133013095Y-79948571D01*
X132917857Y-79996190D01*
X132536904Y-79996190D01*
X133965476Y-79472380D02*
X133775000Y-79472380D01*
X133679761Y-79520000D01*
X133632142Y-79567619D01*
X133536904Y-79710476D01*
X133489285Y-79900952D01*
X133489285Y-80281904D01*
X133536904Y-80377142D01*
X133584523Y-80424761D01*
X133679761Y-80472380D01*
X133870238Y-80472380D01*
X133965476Y-80424761D01*
X134013095Y-80377142D01*
X134060714Y-80281904D01*
X134060714Y-80043809D01*
X134013095Y-79948571D01*
X133965476Y-79900952D01*
X133870238Y-79853333D01*
X133679761Y-79853333D01*
X133584523Y-79900952D01*
X133536904Y-79948571D01*
X133489285Y-80043809D01*
%TO.C,C18*%
X127972703Y-71898804D02*
X127982076Y-71965492D01*
X127934132Y-72108241D01*
X127876817Y-72184301D01*
X127752813Y-72269734D01*
X127619437Y-72288479D01*
X127514718Y-72269194D01*
X127333939Y-72192592D01*
X127219849Y-72106619D01*
X127096385Y-71953957D01*
X127048983Y-71858611D01*
X127030238Y-71725235D01*
X127078181Y-71582486D01*
X127135497Y-71506426D01*
X127259501Y-71420993D01*
X127326189Y-71411620D01*
X128621921Y-71195514D02*
X128278027Y-71651878D01*
X128449974Y-71423696D02*
X127651338Y-70821881D01*
X127708113Y-70983915D01*
X127726858Y-71117291D01*
X127707573Y-71222010D01*
X128509452Y-70395257D02*
X128414106Y-70442660D01*
X128347418Y-70452032D01*
X128242700Y-70432747D01*
X128204669Y-70404089D01*
X128157267Y-70308743D01*
X128147894Y-70242055D01*
X128167180Y-70137336D01*
X128281811Y-69985215D01*
X128377157Y-69937813D01*
X128443845Y-69928440D01*
X128548564Y-69947726D01*
X128586594Y-69976383D01*
X128633997Y-70071729D01*
X128643369Y-70138418D01*
X128624084Y-70243136D01*
X128509452Y-70395257D01*
X128490167Y-70499975D01*
X128499539Y-70566664D01*
X128546942Y-70662009D01*
X128699063Y-70776641D01*
X128803781Y-70795926D01*
X128870469Y-70786554D01*
X128965815Y-70739151D01*
X129080447Y-70587030D01*
X129099732Y-70482312D01*
X129090360Y-70415624D01*
X129042957Y-70320278D01*
X128890836Y-70205646D01*
X128786118Y-70186361D01*
X128719430Y-70195733D01*
X128624084Y-70243136D01*
%TO.C,C6*%
X132780942Y-86215466D02*
X132828561Y-86263085D01*
X132876180Y-86405942D01*
X132876180Y-86501180D01*
X132828561Y-86644038D01*
X132733323Y-86739276D01*
X132638085Y-86786895D01*
X132447609Y-86834514D01*
X132304752Y-86834514D01*
X132114276Y-86786895D01*
X132019038Y-86739276D01*
X131923800Y-86644038D01*
X131876180Y-86501180D01*
X131876180Y-86405942D01*
X131923800Y-86263085D01*
X131971419Y-86215466D01*
X131876180Y-85358323D02*
X131876180Y-85548800D01*
X131923800Y-85644038D01*
X131971419Y-85691657D01*
X132114276Y-85786895D01*
X132304752Y-85834514D01*
X132685704Y-85834514D01*
X132780942Y-85786895D01*
X132828561Y-85739276D01*
X132876180Y-85644038D01*
X132876180Y-85453561D01*
X132828561Y-85358323D01*
X132780942Y-85310704D01*
X132685704Y-85263085D01*
X132447609Y-85263085D01*
X132352371Y-85310704D01*
X132304752Y-85358323D01*
X132257133Y-85453561D01*
X132257133Y-85644038D01*
X132304752Y-85739276D01*
X132352371Y-85786895D01*
X132447609Y-85834514D01*
%TO.C,C17*%
X135280488Y-67920503D02*
X135247840Y-67979403D01*
X135123642Y-68064554D01*
X135032093Y-68090805D01*
X134881645Y-68084407D01*
X134763845Y-68019110D01*
X134691819Y-67940687D01*
X134593543Y-67770715D01*
X134554166Y-67633392D01*
X134547438Y-67437169D01*
X134566961Y-67332494D01*
X134632259Y-67214694D01*
X134756456Y-67129543D01*
X134848005Y-67103292D01*
X134998454Y-67109690D01*
X135057353Y-67142338D01*
X136222227Y-67749540D02*
X135672935Y-67907047D01*
X135947581Y-67828293D02*
X135671943Y-66867031D01*
X135619771Y-67030606D01*
X135554474Y-67148406D01*
X135476051Y-67220431D01*
X136267010Y-66696399D02*
X136907851Y-66512641D01*
X136771519Y-67592033D01*
%TO.C,C20*%
X109377142Y-84117857D02*
X109424761Y-84165476D01*
X109472380Y-84308333D01*
X109472380Y-84403571D01*
X109424761Y-84546428D01*
X109329523Y-84641666D01*
X109234285Y-84689285D01*
X109043809Y-84736904D01*
X108900952Y-84736904D01*
X108710476Y-84689285D01*
X108615238Y-84641666D01*
X108520000Y-84546428D01*
X108472380Y-84403571D01*
X108472380Y-84308333D01*
X108520000Y-84165476D01*
X108567619Y-84117857D01*
X108567619Y-83736904D02*
X108520000Y-83689285D01*
X108472380Y-83594047D01*
X108472380Y-83355952D01*
X108520000Y-83260714D01*
X108567619Y-83213095D01*
X108662857Y-83165476D01*
X108758095Y-83165476D01*
X108900952Y-83213095D01*
X109472380Y-83784523D01*
X109472380Y-83165476D01*
X108472380Y-82546428D02*
X108472380Y-82451190D01*
X108520000Y-82355952D01*
X108567619Y-82308333D01*
X108662857Y-82260714D01*
X108853333Y-82213095D01*
X109091428Y-82213095D01*
X109281904Y-82260714D01*
X109377142Y-82308333D01*
X109424761Y-82355952D01*
X109472380Y-82451190D01*
X109472380Y-82546428D01*
X109424761Y-82641666D01*
X109377142Y-82689285D01*
X109281904Y-82736904D01*
X109091428Y-82784523D01*
X108853333Y-82784523D01*
X108662857Y-82736904D01*
X108567619Y-82689285D01*
X108520000Y-82641666D01*
X108472380Y-82546428D01*
%TO.C,R4*%
X142575106Y-92568147D02*
X142329380Y-93094917D01*
X142860821Y-93063018D02*
X141994795Y-93563018D01*
X141804319Y-93233104D01*
X141797939Y-93126816D01*
X141815369Y-93061767D01*
X141874038Y-92972908D01*
X141997756Y-92901480D01*
X142104044Y-92895100D01*
X142169093Y-92912530D01*
X142257951Y-92971199D01*
X142448427Y-93301113D01*
X141569185Y-92159172D02*
X142146535Y-91825839D01*
X141358318Y-92555845D02*
X142095955Y-92404899D01*
X141786431Y-91868788D01*
%TO.C,R5*%
X148558440Y-77320528D02*
X147979380Y-77371107D01*
X148272725Y-77815399D02*
X147406700Y-77315399D01*
X147597176Y-76985485D01*
X147686034Y-76926816D01*
X147751083Y-76909386D01*
X147857371Y-76915766D01*
X147981089Y-76987194D01*
X148039758Y-77076053D01*
X148057188Y-77141101D01*
X148050808Y-77247390D01*
X147860332Y-77577304D01*
X148144795Y-76036981D02*
X147906700Y-76449374D01*
X148295283Y-76728708D01*
X148277854Y-76663660D01*
X148284233Y-76557371D01*
X148403281Y-76351175D01*
X148492139Y-76292506D01*
X148557188Y-76275076D01*
X148663476Y-76281456D01*
X148869673Y-76400503D01*
X148928342Y-76489362D01*
X148945772Y-76554411D01*
X148939392Y-76660699D01*
X148820344Y-76866895D01*
X148731486Y-76925564D01*
X148666437Y-76942994D01*
%TO.C,R13*%
X158367496Y-83970567D02*
X157909503Y-83612641D01*
X157821036Y-84137636D02*
X157528664Y-83181332D01*
X157892971Y-83069952D01*
X157997970Y-83087645D01*
X158057430Y-83119261D01*
X158130814Y-83196415D01*
X158172581Y-83333030D01*
X158154888Y-83438029D01*
X158123272Y-83497490D01*
X158046118Y-83570873D01*
X157681811Y-83682253D01*
X159278262Y-83692118D02*
X158731802Y-83859187D01*
X159005032Y-83775652D02*
X158712660Y-82819348D01*
X158663351Y-82983807D01*
X158600119Y-83102729D01*
X158522965Y-83176112D01*
X159304659Y-82638356D02*
X159896657Y-82457364D01*
X159689268Y-82919127D01*
X159825883Y-82877360D01*
X159930882Y-82895053D01*
X159990343Y-82926669D01*
X160063726Y-83003823D01*
X160133339Y-83231515D01*
X160115645Y-83336514D01*
X160084029Y-83395975D01*
X160006875Y-83469358D01*
X159733645Y-83552893D01*
X159628646Y-83535200D01*
X159569185Y-83503584D01*
%TO.C,R3*%
X135282848Y-85659167D02*
X134701674Y-85648941D01*
X134946971Y-86121462D02*
X134137954Y-85533677D01*
X134361872Y-85225480D01*
X134456376Y-85176420D01*
X134522891Y-85165885D01*
X134627930Y-85183340D01*
X134743504Y-85267310D01*
X134792563Y-85361814D01*
X134803098Y-85428328D01*
X134785643Y-85533367D01*
X134561725Y-85841564D01*
X134669760Y-84801709D02*
X135033627Y-84300889D01*
X135145895Y-84794479D01*
X135229865Y-84678906D01*
X135324369Y-84629846D01*
X135390883Y-84619311D01*
X135495922Y-84636766D01*
X135688545Y-84776715D01*
X135737605Y-84871219D01*
X135748139Y-84937734D01*
X135730685Y-85042773D01*
X135562746Y-85273920D01*
X135468242Y-85322980D01*
X135401727Y-85333515D01*
%TO.C,C11*%
X154418985Y-96836089D02*
X154418985Y-96903433D01*
X154351641Y-97038120D01*
X154284298Y-97105463D01*
X154149611Y-97172807D01*
X154014924Y-97172807D01*
X153913909Y-97139135D01*
X153745550Y-97038120D01*
X153644535Y-96937105D01*
X153543519Y-96768746D01*
X153509848Y-96667731D01*
X153509848Y-96533044D01*
X153577191Y-96398357D01*
X153644535Y-96331013D01*
X153779222Y-96263670D01*
X153846565Y-96263670D01*
X155159764Y-96229998D02*
X154755703Y-96634059D01*
X154957733Y-96432028D02*
X154250626Y-95724921D01*
X154284298Y-95893280D01*
X154284298Y-96027967D01*
X154250626Y-96128983D01*
X155833199Y-95556563D02*
X155429138Y-95960624D01*
X155631168Y-95758593D02*
X154924061Y-95051486D01*
X154957733Y-95219845D01*
X154957733Y-95354532D01*
X154924061Y-95455547D01*
%TO.C,C5*%
X149566738Y-70648122D02*
X149631787Y-70630692D01*
X149779315Y-70660882D01*
X149861793Y-70708501D01*
X149961702Y-70821168D01*
X149996561Y-70951266D01*
X149990182Y-71057554D01*
X149936183Y-71246321D01*
X149864754Y-71370039D01*
X149728277Y-71511187D01*
X149639418Y-71569856D01*
X149509321Y-71604715D01*
X149361793Y-71574526D01*
X149279315Y-71526907D01*
X149179406Y-71414239D01*
X149161977Y-71349190D01*
X148330811Y-70979288D02*
X148743204Y-71217383D01*
X149022538Y-70828800D01*
X148957490Y-70846229D01*
X148851201Y-70839850D01*
X148645005Y-70720802D01*
X148586336Y-70631944D01*
X148568906Y-70566895D01*
X148575286Y-70460607D01*
X148694333Y-70254410D01*
X148783192Y-70195741D01*
X148848241Y-70178311D01*
X148954529Y-70184691D01*
X149160725Y-70303739D01*
X149219394Y-70392597D01*
X149236824Y-70457646D01*
%TO.C,C2*%
X138348637Y-75777194D02*
X138336943Y-75843514D01*
X138247234Y-75964461D01*
X138169220Y-76019087D01*
X138024885Y-76062020D01*
X137892244Y-76038631D01*
X137798611Y-75987930D01*
X137650351Y-75859214D01*
X137568411Y-75742193D01*
X137498166Y-75558850D01*
X137482547Y-75453523D01*
X137505935Y-75320882D01*
X137595643Y-75199935D01*
X137673658Y-75145309D01*
X137817993Y-75102377D01*
X137884313Y-75114071D01*
X138196371Y-74895565D02*
X138208065Y-74829245D01*
X138258766Y-74735612D01*
X138453803Y-74599046D01*
X138559130Y-74583427D01*
X138625451Y-74595121D01*
X138719084Y-74645822D01*
X138773711Y-74723836D01*
X138816643Y-74868171D01*
X138676314Y-75664016D01*
X139183408Y-75308945D01*
%TO.C,R10*%
X149113201Y-108180540D02*
X148867475Y-108707310D01*
X149398916Y-108675411D02*
X148532890Y-109175411D01*
X148342414Y-108845497D01*
X148336034Y-108739209D01*
X148353464Y-108674160D01*
X148412133Y-108585302D01*
X148535851Y-108513873D01*
X148642139Y-108507493D01*
X148707188Y-108524923D01*
X148796047Y-108583592D01*
X148986523Y-108913507D01*
X148637011Y-107355754D02*
X148922725Y-107850625D01*
X148779868Y-107603189D02*
X147913843Y-108103189D01*
X148085180Y-108114239D01*
X148215277Y-108149099D01*
X148304136Y-108207768D01*
X147461462Y-107319643D02*
X147413843Y-107237164D01*
X147407463Y-107130876D01*
X147424893Y-107065827D01*
X147483562Y-106976969D01*
X147624710Y-106840491D01*
X147830906Y-106721444D01*
X148019673Y-106667445D01*
X148125961Y-106661065D01*
X148191010Y-106678495D01*
X148279868Y-106737164D01*
X148327487Y-106819643D01*
X148333867Y-106925931D01*
X148316437Y-106990980D01*
X148257768Y-107079838D01*
X148116620Y-107216315D01*
X147910424Y-107335363D01*
X147721657Y-107389362D01*
X147615369Y-107395741D01*
X147550320Y-107378312D01*
X147461462Y-107319643D01*
%TO.C,R21*%
X118470397Y-90570619D02*
X118059438Y-90159545D01*
X117907650Y-90669846D02*
X117734001Y-89685039D01*
X118109166Y-89618887D01*
X118211226Y-89649245D01*
X118266391Y-89687871D01*
X118329825Y-89773393D01*
X118354631Y-89914080D01*
X118324274Y-90016140D01*
X118285647Y-90071305D01*
X118200125Y-90134739D01*
X117824960Y-90200890D01*
X118688452Y-89613451D02*
X118727078Y-89558286D01*
X118812600Y-89494852D01*
X119047078Y-89453508D01*
X119149139Y-89483865D01*
X119204303Y-89522492D01*
X119267737Y-89608014D01*
X119284275Y-89701805D01*
X119262186Y-89850761D01*
X118798666Y-90512736D01*
X119408309Y-90405240D01*
X120346221Y-90239860D02*
X119783474Y-90339088D01*
X120064848Y-90289474D02*
X119891199Y-89304666D01*
X119822215Y-89461891D01*
X119744962Y-89572220D01*
X119659440Y-89635654D01*
%TO.C,R16*%
X148444660Y-62047030D02*
X147891820Y-62226574D01*
X148277591Y-62593490D02*
X147321286Y-62301118D01*
X147432666Y-61936812D01*
X147506049Y-61859658D01*
X147565510Y-61828042D01*
X147670509Y-61810348D01*
X147807124Y-61852116D01*
X147884278Y-61925499D01*
X147915894Y-61984960D01*
X147933587Y-62089959D01*
X147822208Y-62454265D01*
X148723110Y-61136264D02*
X148556040Y-61682724D01*
X148639575Y-61409494D02*
X147683270Y-61117122D01*
X147792040Y-61249966D01*
X147855272Y-61368888D01*
X147872965Y-61473887D01*
X148017409Y-60024202D02*
X147961719Y-60206356D01*
X147979413Y-60311355D01*
X148011029Y-60370815D01*
X148119799Y-60503660D01*
X148288029Y-60604888D01*
X148652336Y-60716267D01*
X148757335Y-60698574D01*
X148816796Y-60666958D01*
X148890179Y-60589804D01*
X148945869Y-60407651D01*
X148928176Y-60302652D01*
X148896560Y-60243191D01*
X148819406Y-60169808D01*
X148591714Y-60100195D01*
X148486715Y-60117889D01*
X148427254Y-60149504D01*
X148353871Y-60226659D01*
X148298181Y-60408812D01*
X148315874Y-60513811D01*
X148347490Y-60573272D01*
X148424644Y-60646655D01*
%TO.C,C1*%
X150039742Y-81468866D02*
X150087361Y-81516485D01*
X150134980Y-81659342D01*
X150134980Y-81754580D01*
X150087361Y-81897438D01*
X149992123Y-81992676D01*
X149896885Y-82040295D01*
X149706409Y-82087914D01*
X149563552Y-82087914D01*
X149373076Y-82040295D01*
X149277838Y-81992676D01*
X149182600Y-81897438D01*
X149134980Y-81754580D01*
X149134980Y-81659342D01*
X149182600Y-81516485D01*
X149230219Y-81468866D01*
X150134980Y-80516485D02*
X150134980Y-81087914D01*
X150134980Y-80802200D02*
X149134980Y-80802200D01*
X149277838Y-80897438D01*
X149373076Y-80992676D01*
X149420695Y-81087914D01*
%TO.C,C19*%
X125702180Y-79240811D02*
X125741764Y-79295293D01*
X125766449Y-79443841D01*
X125751550Y-79537907D01*
X125682170Y-79671556D01*
X125573206Y-79750723D01*
X125471691Y-79782857D01*
X125276110Y-79800093D01*
X125135012Y-79777745D01*
X124954330Y-79700915D01*
X124867714Y-79638984D01*
X124788547Y-79530020D01*
X124763862Y-79381472D01*
X124778760Y-79287407D01*
X124848141Y-79153758D01*
X124902623Y-79114174D01*
X125945231Y-78315054D02*
X125855840Y-78879448D01*
X125900536Y-78597251D02*
X124912847Y-78440817D01*
X125039047Y-78557230D01*
X125118214Y-78666194D01*
X125150348Y-78767709D01*
X126019724Y-77844727D02*
X126049521Y-77656596D01*
X126017386Y-77555081D01*
X125977803Y-77500599D01*
X125851603Y-77384185D01*
X125670921Y-77307356D01*
X125294659Y-77247761D01*
X125193144Y-77279896D01*
X125138662Y-77319479D01*
X125076731Y-77406095D01*
X125046934Y-77594227D01*
X125079068Y-77695741D01*
X125118652Y-77750223D01*
X125205268Y-77812155D01*
X125440432Y-77849401D01*
X125541947Y-77817267D01*
X125596429Y-77777683D01*
X125658360Y-77691067D01*
X125688157Y-77502936D01*
X125656023Y-77401421D01*
X125616439Y-77346939D01*
X125529823Y-77285008D01*
%TO.C,C15*%
X159948904Y-54837787D02*
X160014522Y-54822638D01*
X160160906Y-54857957D01*
X160241672Y-54908426D01*
X160337588Y-55024512D01*
X160367886Y-55155747D01*
X160357800Y-55261747D01*
X160297247Y-55448515D01*
X160221544Y-55569664D01*
X160080224Y-55705963D01*
X159989372Y-55761495D01*
X159858137Y-55791793D01*
X159711753Y-55756474D01*
X159630986Y-55706005D01*
X159535071Y-55589919D01*
X159519922Y-55524302D01*
X159191708Y-54252335D02*
X159676307Y-54555146D01*
X159434007Y-54403741D02*
X158904088Y-55251789D01*
X159060557Y-55181107D01*
X159191792Y-55150809D01*
X159297793Y-55160895D01*
X157894507Y-54620932D02*
X158298339Y-54873275D01*
X158591065Y-54494677D01*
X158525448Y-54509826D01*
X158419447Y-54499740D01*
X158217531Y-54373569D01*
X158161998Y-54282717D01*
X158146849Y-54217100D01*
X158156935Y-54111099D01*
X158283106Y-53909183D01*
X158373958Y-53853651D01*
X158439575Y-53838502D01*
X158545576Y-53848587D01*
X158747492Y-53974758D01*
X158803024Y-54065610D01*
X158818173Y-54131228D01*
%TO.C,C3*%
X137431214Y-90821457D02*
X137497728Y-90810922D01*
X137641292Y-90856367D01*
X137718341Y-90912346D01*
X137805925Y-91034840D01*
X137826995Y-91167869D01*
X137809540Y-91272908D01*
X137736106Y-91454996D01*
X137652136Y-91570570D01*
X137501653Y-91696679D01*
X137407148Y-91745738D01*
X137274120Y-91766808D01*
X137130556Y-91721363D01*
X137053507Y-91665384D01*
X136965923Y-91542890D01*
X136955388Y-91476376D01*
X136629736Y-91357496D02*
X136128916Y-90993629D01*
X136622506Y-90881361D01*
X136506933Y-90797391D01*
X136457873Y-90702887D01*
X136447338Y-90636373D01*
X136464793Y-90531334D01*
X136604742Y-90338711D01*
X136699246Y-90289651D01*
X136765761Y-90279117D01*
X136870800Y-90296571D01*
X137101947Y-90464510D01*
X137151007Y-90559014D01*
X137161542Y-90625529D01*
%TO.C,C10*%
X158415670Y-112956639D02*
X158398241Y-113021688D01*
X158298332Y-113134356D01*
X158215854Y-113181975D01*
X158068326Y-113212164D01*
X157938228Y-113177304D01*
X157849370Y-113118635D01*
X157712893Y-112977488D01*
X157641464Y-112853770D01*
X157587465Y-112665003D01*
X157581086Y-112558715D01*
X157615945Y-112428617D01*
X157715854Y-112315949D01*
X157798332Y-112268330D01*
X157945860Y-112238141D01*
X158010908Y-112255571D01*
X159288075Y-112562927D02*
X158793204Y-112848641D01*
X159040640Y-112705784D02*
X158540640Y-111839759D01*
X158529590Y-112011096D01*
X158494730Y-112141193D01*
X158436061Y-112230052D01*
X159324186Y-111387378D02*
X159406665Y-111339759D01*
X159512953Y-111333379D01*
X159578002Y-111350809D01*
X159666860Y-111409478D01*
X159803338Y-111550626D01*
X159922385Y-111756822D01*
X159976384Y-111945589D01*
X159982764Y-112051877D01*
X159965334Y-112116926D01*
X159906665Y-112205784D01*
X159824186Y-112253403D01*
X159717898Y-112259783D01*
X159652849Y-112242353D01*
X159563991Y-112183684D01*
X159427514Y-112042536D01*
X159308466Y-111836340D01*
X159254467Y-111647573D01*
X159248088Y-111541285D01*
X159265517Y-111476236D01*
X159324186Y-111387378D01*
%TO.C,R20*%
X117857142Y-77102380D02*
X117523809Y-76626190D01*
X117285714Y-77102380D02*
X117285714Y-76102380D01*
X117666666Y-76102380D01*
X117761904Y-76150000D01*
X117809523Y-76197619D01*
X117857142Y-76292857D01*
X117857142Y-76435714D01*
X117809523Y-76530952D01*
X117761904Y-76578571D01*
X117666666Y-76626190D01*
X117285714Y-76626190D01*
X118238095Y-76197619D02*
X118285714Y-76150000D01*
X118380952Y-76102380D01*
X118619047Y-76102380D01*
X118714285Y-76150000D01*
X118761904Y-76197619D01*
X118809523Y-76292857D01*
X118809523Y-76388095D01*
X118761904Y-76530952D01*
X118190476Y-77102380D01*
X118809523Y-77102380D01*
X119428571Y-76102380D02*
X119523809Y-76102380D01*
X119619047Y-76150000D01*
X119666666Y-76197619D01*
X119714285Y-76292857D01*
X119761904Y-76483333D01*
X119761904Y-76721428D01*
X119714285Y-76911904D01*
X119666666Y-77007142D01*
X119619047Y-77054761D01*
X119523809Y-77102380D01*
X119428571Y-77102380D01*
X119333333Y-77054761D01*
X119285714Y-77007142D01*
X119238095Y-76911904D01*
X119190476Y-76721428D01*
X119190476Y-76483333D01*
X119238095Y-76292857D01*
X119285714Y-76197619D01*
X119333333Y-76150000D01*
X119428571Y-76102380D01*
%TO.C,R18*%
X132185658Y-69125593D02*
X132165291Y-69706501D01*
X132642021Y-69469487D02*
X132040206Y-70268123D01*
X131735964Y-70038860D01*
X131688561Y-69943514D01*
X131679189Y-69876826D01*
X131698474Y-69772108D01*
X131784448Y-69658017D01*
X131879794Y-69610614D01*
X131946482Y-69601242D01*
X132051200Y-69620527D01*
X132355442Y-69849790D01*
X131425052Y-68552436D02*
X131881416Y-68896330D01*
X131653234Y-68724383D02*
X131051419Y-69523019D01*
X131213453Y-69466244D01*
X131346829Y-69447499D01*
X131451548Y-69466784D01*
X130624795Y-68664905D02*
X130672198Y-68760251D01*
X130681570Y-68826939D01*
X130662285Y-68931657D01*
X130633627Y-68969688D01*
X130538281Y-69017090D01*
X130471593Y-69026463D01*
X130366874Y-69007177D01*
X130214753Y-68892546D01*
X130167351Y-68797200D01*
X130157978Y-68730512D01*
X130177264Y-68625793D01*
X130205921Y-68587763D01*
X130301267Y-68540360D01*
X130367956Y-68530988D01*
X130472674Y-68550273D01*
X130624795Y-68664905D01*
X130729513Y-68684190D01*
X130796202Y-68674818D01*
X130891547Y-68627415D01*
X131006179Y-68475294D01*
X131025464Y-68370576D01*
X131016092Y-68303888D01*
X130968689Y-68208542D01*
X130816568Y-68093910D01*
X130711850Y-68074625D01*
X130645162Y-68083997D01*
X130549816Y-68131400D01*
X130435184Y-68283521D01*
X130415899Y-68388239D01*
X130425271Y-68454927D01*
X130472674Y-68550273D01*
%TO.C,C21*%
X123463348Y-85921073D02*
X123518512Y-85959700D01*
X123590215Y-86092117D01*
X123606753Y-86185909D01*
X123584664Y-86334864D01*
X123507410Y-86445194D01*
X123421888Y-86508627D01*
X123242575Y-86588599D01*
X123101888Y-86613405D01*
X122906037Y-86599586D01*
X122803976Y-86569228D01*
X122693647Y-86491975D01*
X122621945Y-86359557D01*
X122605407Y-86265766D01*
X122627496Y-86116810D01*
X122666122Y-86061645D01*
X122599971Y-85686480D02*
X122544806Y-85647854D01*
X122481372Y-85562332D01*
X122440028Y-85327854D01*
X122470385Y-85225793D01*
X122509012Y-85170629D01*
X122594534Y-85107195D01*
X122688325Y-85090657D01*
X122837281Y-85112746D01*
X123499256Y-85576266D01*
X123391760Y-84966623D01*
X123226380Y-84028711D02*
X123325608Y-84591458D01*
X123275994Y-84310084D02*
X122291186Y-84483733D01*
X122448411Y-84552717D01*
X122558740Y-84629970D01*
X122622174Y-84715492D01*
D12*
%TO.C,C12*%
X158318915Y-88995771D02*
X158232032Y-89263170D01*
X159288992Y-89310968D02*
X159202109Y-89578367D01*
%TO.C,R15*%
X158427500Y-66287742D02*
X158427500Y-66762258D01*
X159472500Y-66287742D02*
X159472500Y-66762258D01*
%TO.C,C4*%
X146745576Y-91425537D02*
X146502084Y-91566117D01*
X147255576Y-92308883D02*
X147012084Y-92449463D01*
%TO.C,C9*%
X146799581Y-101534626D02*
X146529313Y-101612125D01*
X147080731Y-102515113D02*
X146810463Y-102592612D01*
%TO.C,J2*%
X123363777Y-91793186D02*
X122033777Y-94096814D01*
X127815148Y-94363186D02*
X123363777Y-91793186D01*
X128915000Y-94998186D02*
X130066814Y-95663186D01*
X126485148Y-96666814D02*
X122033777Y-94096814D01*
X130066814Y-95663186D02*
X129401814Y-96815000D01*
X127815148Y-94363186D02*
X126485148Y-96666814D01*
%TO.C,R2*%
X141662706Y-76529543D02*
X141934878Y-76918244D01*
X142518720Y-75930156D02*
X142790892Y-76318857D01*
%TO.C,C16*%
X146675317Y-65720026D02*
X146944192Y-65802229D01*
X146973536Y-64744595D02*
X147242411Y-64826798D01*
%TO.C,R17*%
X142540255Y-65991006D02*
X142409461Y-65534871D01*
X141535737Y-66279047D02*
X141404943Y-65822912D01*
%TO.C,R8*%
X136109461Y-97465129D02*
X136240255Y-97008994D01*
X135104943Y-97177088D02*
X135235737Y-96720953D01*
%TO.C,R19*%
X124298769Y-75508010D02*
X124767443Y-75582240D01*
X124462243Y-74475876D02*
X124930917Y-74550106D01*
%TO.C,R12*%
X156528271Y-92568671D02*
X156979562Y-92715305D01*
X156851194Y-91574817D02*
X157302485Y-91721451D01*
%TO.C,J1*%
X158720000Y-79310000D02*
X161380000Y-79310000D01*
X158720000Y-74170000D02*
X158720000Y-79310000D01*
X158720000Y-72900000D02*
X158720000Y-71570000D01*
X161380000Y-74170000D02*
X161380000Y-79310000D01*
X158720000Y-71570000D02*
X160050000Y-71570000D01*
X158720000Y-74170000D02*
X161380000Y-74170000D01*
%TO.C,R11*%
X157479407Y-101218334D02*
X157814940Y-101553867D01*
X158218334Y-100479407D02*
X158553867Y-100814940D01*
%TO.C,R14*%
X155477500Y-74137742D02*
X155477500Y-74612258D01*
X156522500Y-74137742D02*
X156522500Y-74612258D01*
%TO.C,C7*%
X132611297Y-93436083D02*
X132438198Y-93214526D01*
X131807526Y-94064058D02*
X131634427Y-93842501D01*
%TO.C,R9*%
X144240255Y-103091006D02*
X144109461Y-102634871D01*
X143235737Y-103379047D02*
X143104943Y-102922912D01*
%TO.C,C13*%
X155521183Y-79264672D02*
X155603386Y-79533547D01*
X156496614Y-78966453D02*
X156578817Y-79235328D01*
%TO.C,R7*%
X126449885Y-89215170D02*
X126157744Y-88841246D01*
X125626414Y-89858536D02*
X125334273Y-89484612D01*
%TO.C,R1*%
X147987742Y-88072500D02*
X148462258Y-88072500D01*
X147987742Y-87027500D02*
X148462258Y-87027500D01*
%TO.C,C8*%
X138670687Y-100112125D02*
X138400419Y-100034626D01*
X138389537Y-101092612D02*
X138119269Y-101015113D01*
%TO.C,C14*%
X154858354Y-69910848D02*
X155046487Y-70119791D01*
X155616361Y-69228335D02*
X155804494Y-69437278D01*
%TO.C,R6*%
X133037742Y-81972500D02*
X133512258Y-81972500D01*
X133037742Y-80927500D02*
X133512258Y-80927500D01*
%TO.C,C18*%
X129539108Y-72450255D02*
X129708314Y-72225710D01*
X128724500Y-71836404D02*
X128893706Y-71611859D01*
%TO.C,C6*%
X133010000Y-83865580D02*
X133010000Y-83584420D01*
X131990000Y-83865580D02*
X131990000Y-83584420D01*
%TO.C,C17*%
X138550419Y-66915374D02*
X138820687Y-66837875D01*
X138269269Y-65934887D02*
X138539537Y-65857388D01*
%TO.C,C20*%
X110960000Y-83615580D02*
X110960000Y-83334420D01*
X109940000Y-83615580D02*
X109940000Y-83334420D01*
%TO.C,R4*%
X144483627Y-93158692D02*
X144246369Y-92747750D01*
X143578631Y-93681192D02*
X143341373Y-93270250D01*
%TO.C,R5*%
X149353631Y-76747750D02*
X149116373Y-77158692D01*
X150258627Y-77270250D02*
X150021369Y-77681192D01*
%TO.C,R13*%
X157385176Y-81772170D02*
X156931394Y-81910905D01*
X157690704Y-82771509D02*
X157236922Y-82910244D01*
%TO.C,R3*%
X136454978Y-86598025D02*
X136733891Y-86214133D01*
X135609555Y-85983789D02*
X135888468Y-85599897D01*
%TO.C,C11*%
X155536789Y-96641962D02*
X155337978Y-96840773D01*
X156258038Y-97363211D02*
X156059227Y-97562022D01*
%TO.C,C5*%
X148152084Y-72483883D02*
X148395576Y-72624463D01*
X148662084Y-71600537D02*
X148905576Y-71741117D01*
%TO.C,C2*%
X138242525Y-77792923D02*
X138472837Y-77631656D01*
X137657477Y-76957388D02*
X137887789Y-76796121D01*
%TO.C,R10*%
X150458627Y-107329750D02*
X150221369Y-106918808D01*
X149553631Y-107852250D02*
X149316373Y-107441308D01*
%TO.C,R21*%
X119205388Y-87950979D02*
X118738081Y-88033377D01*
X119386851Y-88980103D02*
X118919544Y-89062501D01*
%TO.C,R16*%
X149871509Y-61840704D02*
X150010244Y-61386922D01*
X148872170Y-61535176D02*
X149010905Y-61081394D01*
%TO.C,C1*%
X149090000Y-83734420D02*
X149090000Y-84015580D01*
X150110000Y-83734420D02*
X150110000Y-84015580D01*
%TO.C,C19*%
X124460492Y-78534089D02*
X124504476Y-78256390D01*
X123453050Y-78374526D02*
X123497034Y-78096827D01*
%TO.C,C15*%
X157967760Y-56547321D02*
X158206197Y-56696314D01*
X158508277Y-55682312D02*
X158746714Y-55831305D01*
%TO.C,C3*%
X138340490Y-89525566D02*
X138113027Y-89360304D01*
X137740949Y-90350764D02*
X137513486Y-90185502D01*
%TO.C,C10*%
X157945576Y-110575537D02*
X157702084Y-110716117D01*
X158455576Y-111458883D02*
X158212084Y-111599463D01*
%TO.C,R20*%
X118287742Y-78672500D02*
X118762258Y-78672500D01*
X118287742Y-77627500D02*
X118762258Y-77627500D01*
%TO.C,R18*%
X133137195Y-71178005D02*
X133516160Y-71463575D01*
X133766092Y-70343431D02*
X134145057Y-70629001D01*
%TO.C,C21*%
X124026663Y-88299884D02*
X123977840Y-88022995D01*
X123022160Y-88477005D02*
X122973337Y-88200116D01*
%TD*%
M02*
