%TF.GenerationSoftware,KiCad,Pcbnew,(6.0.2)*%
%TF.CreationDate,2022-03-26T22:50:30-07:00*%
%TF.ProjectId,triangle,74726961-6e67-46c6-952e-6b696361645f,rev?*%
%TF.SameCoordinates,Original*%
%TF.FileFunction,Legend,Bot*%
%TF.FilePolarity,Positive*%
%FSLAX46Y46*%
G04 Gerber Fmt 4.6, Leading zero omitted, Abs format (unit mm)*
G04 Created by KiCad (PCBNEW (6.0.2)) date 2022-03-26 22:50:30*
%MOMM*%
%LPD*%
G01*
G04 APERTURE LIST*
%ADD10C,0.150000*%
%ADD11C,0.120000*%
G04 APERTURE END LIST*
D10*
%TO.C,D9*%
X148734195Y-105381409D02*
X148458558Y-104420148D01*
X148229686Y-104485776D01*
X148105489Y-104570927D01*
X148040191Y-104688727D01*
X148020668Y-104793401D01*
X148027396Y-104989624D01*
X148066773Y-105126947D01*
X148165049Y-105296919D01*
X148237075Y-105375342D01*
X148354875Y-105440640D01*
X148505323Y-105447037D01*
X148734195Y-105381409D01*
X147727159Y-105670172D02*
X147544062Y-105722675D01*
X147439387Y-105703151D01*
X147380487Y-105670503D01*
X147249562Y-105559431D01*
X147151285Y-105389459D01*
X147046281Y-105023264D01*
X147065804Y-104918590D01*
X147098453Y-104859690D01*
X147176876Y-104787664D01*
X147359973Y-104735162D01*
X147464647Y-104754685D01*
X147523547Y-104787334D01*
X147595573Y-104865757D01*
X147661201Y-105094629D01*
X147641678Y-105199303D01*
X147609029Y-105258203D01*
X147530606Y-105330229D01*
X147347508Y-105382731D01*
X147242834Y-105363208D01*
X147183934Y-105330559D01*
X147111908Y-105252136D01*
%TO.C,D12*%
X159305474Y-88234939D02*
X158354418Y-87925922D01*
X158280842Y-88152364D01*
X158281985Y-88302944D01*
X158343132Y-88422951D01*
X158418994Y-88497670D01*
X158585432Y-88601818D01*
X158721297Y-88645964D01*
X158917166Y-88659536D01*
X159022458Y-88643677D01*
X159142465Y-88582531D01*
X159231899Y-88461381D01*
X159305474Y-88234939D01*
X158834591Y-89684168D02*
X159011172Y-89140707D01*
X158922882Y-89412437D02*
X157971825Y-89103420D01*
X158137121Y-89056989D01*
X158257128Y-88995842D01*
X158331846Y-88919980D01*
X157856391Y-89766888D02*
X157796387Y-89797461D01*
X157721669Y-89873323D01*
X157648093Y-90099765D01*
X157663951Y-90205057D01*
X157694525Y-90265060D01*
X157770386Y-90339779D01*
X157860963Y-90369209D01*
X158011544Y-90368066D01*
X158731586Y-90001186D01*
X158540289Y-90589936D01*
%TO.C,D15*%
X157409952Y-55372885D02*
X156880033Y-56220933D01*
X157081949Y-56347105D01*
X157228333Y-56382424D01*
X157359568Y-56352126D01*
X157450420Y-56296594D01*
X157591740Y-56160295D01*
X157667443Y-56039145D01*
X157727997Y-55852378D01*
X157738082Y-55746378D01*
X157707784Y-55615143D01*
X157611868Y-55499057D01*
X157409952Y-55372885D01*
X158702216Y-56180381D02*
X158217617Y-55877570D01*
X158459917Y-56028976D02*
X157929997Y-56877024D01*
X157924934Y-56705406D01*
X157894636Y-56574171D01*
X157839103Y-56483319D01*
X158939578Y-57507880D02*
X158535746Y-57255538D01*
X158747705Y-56826471D01*
X158762854Y-56892088D01*
X158818386Y-56982940D01*
X159020303Y-57109111D01*
X159126303Y-57119197D01*
X159191921Y-57104048D01*
X159282773Y-57048516D01*
X159408944Y-56846599D01*
X159419029Y-56740599D01*
X159403880Y-56674981D01*
X159348348Y-56584129D01*
X159146432Y-56457958D01*
X159040431Y-56447873D01*
X158974813Y-56463022D01*
%TO.C,D21*%
X120584650Y-87975606D02*
X119599843Y-88149255D01*
X119641187Y-88383733D01*
X119712890Y-88516150D01*
X119823219Y-88593404D01*
X119925279Y-88623761D01*
X120121131Y-88637581D01*
X120261817Y-88612774D01*
X120441131Y-88532803D01*
X120526653Y-88469369D01*
X120603906Y-88359040D01*
X120625995Y-88210084D01*
X120584650Y-87975606D01*
X119859013Y-89070629D02*
X119820386Y-89125793D01*
X119790029Y-89227854D01*
X119831373Y-89462332D01*
X119894807Y-89547854D01*
X119949972Y-89586480D01*
X120052032Y-89616838D01*
X120145823Y-89600300D01*
X120278241Y-89528598D01*
X120741761Y-88866623D01*
X120849257Y-89476266D01*
X121014636Y-90414178D02*
X120915409Y-89851431D01*
X120965022Y-90132804D02*
X119980215Y-90306452D01*
X120104364Y-90187854D01*
X120181617Y-90077525D01*
X120211975Y-89975465D01*
%TO.C,D5*%
X146536981Y-73989178D02*
X146036981Y-74855204D01*
X146243177Y-74974252D01*
X146390705Y-75004441D01*
X146520802Y-74969581D01*
X146609661Y-74910912D01*
X146746138Y-74769764D01*
X146817567Y-74646047D01*
X146871565Y-74457280D01*
X146877945Y-74350992D01*
X146843086Y-74220894D01*
X146743177Y-74108226D01*
X146536981Y-73989178D01*
X147315399Y-75593299D02*
X146903006Y-75355204D01*
X147099862Y-74919001D01*
X147117292Y-74984050D01*
X147175961Y-75072908D01*
X147382157Y-75191956D01*
X147488446Y-75198336D01*
X147553494Y-75180906D01*
X147642353Y-75122237D01*
X147761400Y-74916040D01*
X147767780Y-74809752D01*
X147750350Y-74744704D01*
X147691681Y-74655845D01*
X147485485Y-74536798D01*
X147379197Y-74530418D01*
X147314148Y-74547848D01*
%TO.C,D7*%
X129170174Y-93989086D02*
X128382163Y-94604747D01*
X128528749Y-94792369D01*
X128654225Y-94875625D01*
X128787908Y-94892039D01*
X128892274Y-94870929D01*
X129071688Y-94791184D01*
X129184261Y-94703233D01*
X129305041Y-94548440D01*
X129350773Y-94452281D01*
X129367187Y-94318598D01*
X129316760Y-94176708D01*
X129170174Y-93989086D01*
X128939190Y-95317710D02*
X129349631Y-95843050D01*
X129873787Y-94889670D01*
%TO.C,D20*%
X111402380Y-82385714D02*
X110402380Y-82385714D01*
X110402380Y-82623809D01*
X110450000Y-82766666D01*
X110545238Y-82861904D01*
X110640476Y-82909523D01*
X110830952Y-82957142D01*
X110973809Y-82957142D01*
X111164285Y-82909523D01*
X111259523Y-82861904D01*
X111354761Y-82766666D01*
X111402380Y-82623809D01*
X111402380Y-82385714D01*
X110497619Y-83338095D02*
X110450000Y-83385714D01*
X110402380Y-83480952D01*
X110402380Y-83719047D01*
X110450000Y-83814285D01*
X110497619Y-83861904D01*
X110592857Y-83909523D01*
X110688095Y-83909523D01*
X110830952Y-83861904D01*
X111402380Y-83290476D01*
X111402380Y-83909523D01*
X110402380Y-84528571D02*
X110402380Y-84623809D01*
X110450000Y-84719047D01*
X110497619Y-84766666D01*
X110592857Y-84814285D01*
X110783333Y-84861904D01*
X111021428Y-84861904D01*
X111211904Y-84814285D01*
X111307142Y-84766666D01*
X111354761Y-84719047D01*
X111402380Y-84623809D01*
X111402380Y-84528571D01*
X111354761Y-84433333D01*
X111307142Y-84385714D01*
X111211904Y-84338095D01*
X111021428Y-84290476D01*
X110783333Y-84290476D01*
X110592857Y-84338095D01*
X110497619Y-84385714D01*
X110450000Y-84433333D01*
X110402380Y-84528571D01*
%TO.C,D18*%
X130692062Y-71452477D02*
X129893427Y-70850662D01*
X129750138Y-71040814D01*
X129702194Y-71183562D01*
X129720939Y-71316939D01*
X129768342Y-71412285D01*
X129891805Y-71564946D01*
X130005896Y-71650920D01*
X130186675Y-71727521D01*
X130291393Y-71746807D01*
X130424769Y-71728062D01*
X130548773Y-71642629D01*
X130692062Y-71452477D01*
X129775011Y-72669446D02*
X130118905Y-72213083D01*
X129946958Y-72441264D02*
X129148323Y-71839449D01*
X129319729Y-71849362D01*
X129453105Y-71830618D01*
X129548451Y-71783215D01*
X128974753Y-72781915D02*
X128994039Y-72677196D01*
X128984667Y-72610508D01*
X128937264Y-72515162D01*
X128899234Y-72486504D01*
X128794515Y-72467219D01*
X128727827Y-72476591D01*
X128632481Y-72523994D01*
X128517850Y-72676115D01*
X128498564Y-72780833D01*
X128507937Y-72847522D01*
X128555339Y-72942868D01*
X128593370Y-72971525D01*
X128698088Y-72990811D01*
X128764776Y-72981438D01*
X128860122Y-72934036D01*
X128974753Y-72781915D01*
X129070099Y-72734512D01*
X129136788Y-72725140D01*
X129241506Y-72744425D01*
X129393627Y-72859057D01*
X129441030Y-72954403D01*
X129450402Y-73021091D01*
X129431117Y-73125809D01*
X129316485Y-73277930D01*
X129221139Y-73325333D01*
X129154451Y-73334705D01*
X129049733Y-73315420D01*
X128897612Y-73200788D01*
X128850209Y-73105442D01*
X128840837Y-73038754D01*
X128860122Y-72934036D01*
%TO.C,D1*%
X149402380Y-83011904D02*
X148402380Y-83011904D01*
X148402380Y-83250000D01*
X148450000Y-83392857D01*
X148545238Y-83488095D01*
X148640476Y-83535714D01*
X148830952Y-83583333D01*
X148973809Y-83583333D01*
X149164285Y-83535714D01*
X149259523Y-83488095D01*
X149354761Y-83392857D01*
X149402380Y-83250000D01*
X149402380Y-83011904D01*
X149402380Y-84535714D02*
X149402380Y-83964285D01*
X149402380Y-84250000D02*
X148402380Y-84250000D01*
X148545238Y-84154761D01*
X148640476Y-84059523D01*
X148688095Y-83964285D01*
%TO.C,D6*%
X132577180Y-82746104D02*
X131577180Y-82746104D01*
X131577180Y-82984200D01*
X131624800Y-83127057D01*
X131720038Y-83222295D01*
X131815276Y-83269914D01*
X132005752Y-83317533D01*
X132148609Y-83317533D01*
X132339085Y-83269914D01*
X132434323Y-83222295D01*
X132529561Y-83127057D01*
X132577180Y-82984200D01*
X132577180Y-82746104D01*
X131577180Y-84174676D02*
X131577180Y-83984200D01*
X131624800Y-83888961D01*
X131672419Y-83841342D01*
X131815276Y-83746104D01*
X132005752Y-83698485D01*
X132386704Y-83698485D01*
X132481942Y-83746104D01*
X132529561Y-83793723D01*
X132577180Y-83888961D01*
X132577180Y-84079438D01*
X132529561Y-84174676D01*
X132481942Y-84222295D01*
X132386704Y-84269914D01*
X132148609Y-84269914D01*
X132053371Y-84222295D01*
X132005752Y-84174676D01*
X131958133Y-84079438D01*
X131958133Y-83888961D01*
X132005752Y-83793723D01*
X132053371Y-83746104D01*
X132148609Y-83698485D01*
%TO.C,D16*%
X146171036Y-60912362D02*
X145878664Y-61868666D01*
X146106356Y-61938279D01*
X146256893Y-61934508D01*
X146375815Y-61871276D01*
X146449198Y-61794122D01*
X146550426Y-61625891D01*
X146592193Y-61489276D01*
X146602345Y-61293200D01*
X146584652Y-61188201D01*
X146521420Y-61069280D01*
X146398727Y-60981974D01*
X146171036Y-60912362D01*
X147628262Y-61357880D02*
X147081802Y-61190811D01*
X147355032Y-61274346D02*
X147062660Y-62230650D01*
X147013351Y-62066191D01*
X146950119Y-61947269D01*
X146872965Y-61873886D01*
X148155580Y-62564790D02*
X147973427Y-62509100D01*
X147896273Y-62435716D01*
X147864657Y-62376256D01*
X147815347Y-62211796D01*
X147825499Y-62015720D01*
X147936879Y-61651413D01*
X148010262Y-61574259D01*
X148069723Y-61542643D01*
X148174722Y-61524950D01*
X148356875Y-61580640D01*
X148434029Y-61654023D01*
X148465645Y-61713484D01*
X148483339Y-61818483D01*
X148413726Y-62046175D01*
X148340343Y-62123329D01*
X148280882Y-62154945D01*
X148175883Y-62172638D01*
X147993730Y-62116948D01*
X147916576Y-62043565D01*
X147884960Y-61984104D01*
X147867266Y-61879105D01*
%TO.C,D11*%
X159178511Y-98911251D02*
X158471404Y-98204145D01*
X158303045Y-98372503D01*
X158235702Y-98507190D01*
X158235702Y-98641877D01*
X158269374Y-98742893D01*
X158370389Y-98911251D01*
X158471404Y-99012267D01*
X158639763Y-99113282D01*
X158740778Y-99146954D01*
X158875465Y-99146954D01*
X159010152Y-99079610D01*
X159178511Y-98911251D01*
X158101015Y-99988748D02*
X158505076Y-99584687D01*
X158303045Y-99786717D02*
X157595938Y-99079610D01*
X157764297Y-99113282D01*
X157898984Y-99113282D01*
X158000000Y-99079610D01*
X157427580Y-100662183D02*
X157831641Y-100258122D01*
X157629610Y-100460152D02*
X156922503Y-99753045D01*
X157090862Y-99786717D01*
X157225549Y-99786717D01*
X157326564Y-99753045D01*
%TO.C,D19*%
X121336767Y-76521432D02*
X120349079Y-76364997D01*
X120311832Y-76600161D01*
X120336517Y-76748709D01*
X120415684Y-76857673D01*
X120502301Y-76919604D01*
X120682983Y-76996434D01*
X120824081Y-77018782D01*
X121019661Y-77001546D01*
X121121176Y-76969412D01*
X121230140Y-76890245D01*
X121299521Y-76756596D01*
X121336767Y-76521432D01*
X121098391Y-78026481D02*
X121187782Y-77462087D01*
X121143086Y-77744284D02*
X120155398Y-77587849D01*
X120311395Y-77516132D01*
X120420359Y-77436965D01*
X120482290Y-77350348D01*
X121023898Y-78496808D02*
X120994101Y-78684939D01*
X120932170Y-78771556D01*
X120877688Y-78811139D01*
X120721691Y-78882857D01*
X120526110Y-78900093D01*
X120149848Y-78840499D01*
X120063232Y-78778567D01*
X120023648Y-78724085D01*
X119991514Y-78622571D01*
X120021311Y-78434439D01*
X120083243Y-78347823D01*
X120137725Y-78308240D01*
X120239239Y-78276105D01*
X120474403Y-78313352D01*
X120561020Y-78375283D01*
X120600603Y-78429765D01*
X120632737Y-78531280D01*
X120602940Y-78719411D01*
X120541009Y-78806027D01*
X120486527Y-78845611D01*
X120385012Y-78877745D01*
%TO.C,D3*%
X138002549Y-88444674D02*
X137414764Y-89253691D01*
X137607387Y-89393640D01*
X137750950Y-89439085D01*
X137883979Y-89418015D01*
X137978483Y-89368956D01*
X138128967Y-89242847D01*
X138212936Y-89127273D01*
X138286371Y-88945185D01*
X138303826Y-88840146D01*
X138282756Y-88707117D01*
X138195172Y-88584623D01*
X138002549Y-88444674D01*
X138146731Y-89785497D02*
X138647551Y-90149364D01*
X138601797Y-89645239D01*
X138717371Y-89729208D01*
X138822410Y-89746663D01*
X138888924Y-89736128D01*
X138983429Y-89687068D01*
X139123377Y-89494445D01*
X139140832Y-89389406D01*
X139130298Y-89322892D01*
X139081238Y-89228388D01*
X138850090Y-89060449D01*
X138745051Y-89042994D01*
X138678537Y-89053529D01*
%TO.C,D10*%
X159277792Y-110884630D02*
X158777792Y-110018605D01*
X158571596Y-110137652D01*
X158471687Y-110250320D01*
X158436828Y-110380418D01*
X158443208Y-110486706D01*
X158497206Y-110675473D01*
X158568635Y-110799191D01*
X158705112Y-110940338D01*
X158793971Y-110999007D01*
X158924068Y-111033867D01*
X159071596Y-111003678D01*
X159277792Y-110884630D01*
X157958134Y-111646535D02*
X158453006Y-111360821D01*
X158205570Y-111503678D02*
X157705570Y-110637652D01*
X157859478Y-110713751D01*
X157989575Y-110748611D01*
X158095863Y-110742231D01*
X156922024Y-111090033D02*
X156839545Y-111137652D01*
X156780876Y-111226511D01*
X156763446Y-111291559D01*
X156769826Y-111397848D01*
X156823825Y-111586614D01*
X156942872Y-111792811D01*
X157079350Y-111933959D01*
X157168208Y-111992628D01*
X157233257Y-112010057D01*
X157339545Y-112003678D01*
X157422024Y-111956059D01*
X157480693Y-111867200D01*
X157498122Y-111802151D01*
X157491743Y-111695863D01*
X157437744Y-111507097D01*
X157318696Y-111300900D01*
X157182219Y-111159752D01*
X157093360Y-111101083D01*
X157028312Y-111083653D01*
X156922024Y-111090033D01*
%TO.C,D8*%
X137215190Y-99311696D02*
X136939553Y-100272958D01*
X137168424Y-100338586D01*
X137318873Y-100332188D01*
X137436673Y-100266891D01*
X137508699Y-100188468D01*
X137606975Y-100018496D01*
X137646352Y-99881173D01*
X137653080Y-99684950D01*
X137633557Y-99580275D01*
X137568259Y-99462475D01*
X137444062Y-99377324D01*
X137215190Y-99311696D01*
X138156268Y-100176003D02*
X138051593Y-100195526D01*
X137992693Y-100228175D01*
X137920668Y-100306598D01*
X137907542Y-100352372D01*
X137927065Y-100457047D01*
X137959714Y-100515947D01*
X138038137Y-100587972D01*
X138221235Y-100640475D01*
X138325909Y-100620951D01*
X138384809Y-100588303D01*
X138456835Y-100509879D01*
X138469960Y-100464105D01*
X138450437Y-100359431D01*
X138417788Y-100300531D01*
X138339365Y-100228505D01*
X138156268Y-100176003D01*
X138077844Y-100103977D01*
X138045196Y-100045077D01*
X138025673Y-99940403D01*
X138078175Y-99757306D01*
X138150200Y-99678882D01*
X138209100Y-99646234D01*
X138313775Y-99626711D01*
X138496872Y-99679213D01*
X138575295Y-99751238D01*
X138607944Y-99810138D01*
X138627467Y-99914813D01*
X138574965Y-100097910D01*
X138502939Y-100176333D01*
X138444039Y-100208982D01*
X138339365Y-100228505D01*
%TO.C,D17*%
X139541939Y-66900153D02*
X139266302Y-65938892D01*
X139037430Y-66004520D01*
X138913232Y-66089671D01*
X138847935Y-66207471D01*
X138828411Y-66312145D01*
X138835139Y-66508368D01*
X138874516Y-66645691D01*
X138972793Y-66815663D01*
X139044819Y-66894086D01*
X139162618Y-66959384D01*
X139313067Y-66965781D01*
X139541939Y-66900153D01*
X138077159Y-67320172D02*
X138626452Y-67162665D01*
X138351805Y-67241419D02*
X138076168Y-66280157D01*
X138207094Y-66391229D01*
X138324893Y-66456527D01*
X138429568Y-66476050D01*
X137481101Y-66450790D02*
X136840260Y-66634548D01*
X137527867Y-67477679D01*
%TO.C,D14*%
X157573668Y-66744907D02*
X156830524Y-67414038D01*
X156989840Y-67590977D01*
X157120818Y-67665277D01*
X157255321Y-67672326D01*
X157357960Y-67643988D01*
X157531374Y-67551922D01*
X157637538Y-67456332D01*
X157747226Y-67293491D01*
X157786138Y-67194376D01*
X157793187Y-67059874D01*
X157732985Y-66921847D01*
X157573668Y-66744907D01*
X158593296Y-67877319D02*
X158210936Y-67452664D01*
X158402116Y-67664991D02*
X157658971Y-68334122D01*
X157701408Y-68167756D01*
X157708457Y-68033254D01*
X157680118Y-67930615D01*
X158671407Y-68960387D02*
X159166836Y-68514300D01*
X158228987Y-69038355D02*
X158600488Y-68383465D01*
X159014712Y-68843507D01*
%TO.C,D13*%
X158713655Y-76762987D02*
X157757350Y-77055359D01*
X157826962Y-77283050D01*
X157914268Y-77405743D01*
X158033190Y-77468974D01*
X158138189Y-77486668D01*
X158334264Y-77476516D01*
X158470879Y-77434749D01*
X158639110Y-77333521D01*
X158716264Y-77260138D01*
X158779496Y-77141216D01*
X158783267Y-76990679D01*
X158713655Y-76762987D01*
X159159174Y-78220213D02*
X158992104Y-77673753D01*
X159075639Y-77946983D02*
X158119334Y-78239355D01*
X158228104Y-78106511D01*
X158291336Y-77987589D01*
X158309029Y-77882590D01*
X158300326Y-78831353D02*
X158481318Y-79423351D01*
X158748167Y-78993203D01*
X158789935Y-79129818D01*
X158863318Y-79206973D01*
X158922779Y-79238588D01*
X159027778Y-79256282D01*
X159255470Y-79186669D01*
X159332624Y-79113286D01*
X159364240Y-79053825D01*
X159381933Y-78948826D01*
X159298398Y-78675596D01*
X159225015Y-78598442D01*
X159165554Y-78566826D01*
%TO.C,D2*%
X139064087Y-77697213D02*
X138490510Y-76878061D01*
X138295474Y-77014627D01*
X138205766Y-77135574D01*
X138182377Y-77268215D01*
X138197997Y-77373542D01*
X138268242Y-77556884D01*
X138350181Y-77673906D01*
X138498441Y-77802622D01*
X138592075Y-77853323D01*
X138724716Y-77876711D01*
X138869051Y-77833779D01*
X139064087Y-77697213D01*
X137764992Y-77502339D02*
X137698671Y-77490645D01*
X137593344Y-77506264D01*
X137398308Y-77642830D01*
X137347606Y-77736463D01*
X137335912Y-77802784D01*
X137351531Y-77908111D01*
X137406158Y-77986126D01*
X137527104Y-78075834D01*
X138322949Y-78216163D01*
X137815855Y-78571234D01*
%TO.C,D4*%
X148015400Y-92322725D02*
X147515400Y-91456700D01*
X147309204Y-91575747D01*
X147209295Y-91688415D01*
X147174436Y-91818513D01*
X147180815Y-91924801D01*
X147234814Y-92113568D01*
X147306243Y-92237286D01*
X147442720Y-92378434D01*
X147531579Y-92437103D01*
X147661676Y-92471962D01*
X147809204Y-92441773D01*
X148015400Y-92322725D01*
X146444888Y-92459661D02*
X146778221Y-93037011D01*
X146460608Y-92010699D02*
X147023947Y-92510241D01*
X146487836Y-92819764D01*
D11*
%TO.C,D9*%
X150681103Y-100646979D02*
X151861934Y-104765024D01*
X149810401Y-103124970D02*
X149810401Y-103124970D01*
X150681339Y-100647801D02*
G75*
G03*
X142956739Y-105090732I-3312543J-3177288D01*
G01*
X142956471Y-105089797D02*
G75*
G03*
X151861698Y-104764202I4412325J1264708D01*
G01*
X151368796Y-103825089D02*
G75*
G03*
X151368796Y-103825089I-4000000J0D01*
G01*
%TO.C,D12*%
X156428769Y-83988559D02*
X160503095Y-85312388D01*
X157996226Y-86096079D02*
X157996226Y-86096079D01*
X156429582Y-83988824D02*
G75*
G03*
X155793397Y-92877263I781741J-4522939D01*
G01*
X155792473Y-92876962D02*
G75*
G03*
X160502282Y-85312124I1418850J4365199D01*
G01*
X161211323Y-88511763D02*
G75*
G03*
X161211323Y-88511763I-4000000J0D01*
G01*
%TO.C,D15*%
X152756306Y-57305551D02*
X155026480Y-53672513D01*
X155180426Y-56294509D02*
X155180426Y-56294509D01*
X152756759Y-57304826D02*
G75*
G03*
X161227266Y-60072421I4577709J-335678D01*
G01*
X161226751Y-60073246D02*
G75*
G03*
X155026027Y-53673238I-3892283J2432742D01*
G01*
X161334468Y-57640504D02*
G75*
G03*
X161334468Y-57640504I-4000000J0D01*
G01*
%TO.C,D21*%
X124583670Y-92700306D02*
X120364753Y-93444215D01*
X122210266Y-91575353D02*
X122210266Y-91575353D01*
X124582828Y-92700454D02*
G75*
G03*
X120971676Y-84553758I-2813628J3626513D01*
G01*
X120972633Y-84553589D02*
G75*
G03*
X120365595Y-93444066I796567J-4520352D01*
G01*
X125769200Y-89073941D02*
G75*
G03*
X125769200Y-89073941I-4000000J0D01*
G01*
%TO.C,D5*%
X143063159Y-73572526D02*
X145205159Y-69862474D01*
X145450517Y-72477500D02*
X145450517Y-72477500D01*
X143063587Y-73571786D02*
G75*
G03*
X151625522Y-76042079I4586635J-175714D01*
G01*
X151625036Y-76042921D02*
G75*
G03*
X145204731Y-69863214I-3974814J2295421D01*
G01*
X151650222Y-73747500D02*
G75*
G03*
X151650222Y-73747500I-4000000J0D01*
G01*
%TO.C,D7*%
X134564670Y-96029417D02*
X131188832Y-98666911D01*
X131940945Y-96150387D02*
X131940945Y-96150387D01*
X134563996Y-96029943D02*
G75*
G03*
X127550896Y-90532170I-4186831J1881103D01*
G01*
X127551662Y-90531571D02*
G75*
G03*
X131189505Y-98666384I2825503J-3617269D01*
G01*
X134377165Y-94148840D02*
G75*
G03*
X134377165Y-94148840I-4000000J0D01*
G01*
%TO.C,D20*%
X114342000Y-87595000D02*
X110058000Y-87595000D01*
X112200000Y-86075000D02*
X112200000Y-86075000D01*
X114341145Y-87595000D02*
G75*
G03*
X112199514Y-78945000I-2141145J4060000D01*
G01*
X112200486Y-78945000D02*
G75*
G03*
X110058855Y-87595000I-486J-4590000D01*
G01*
X116200000Y-83535000D02*
G75*
G03*
X116200000Y-83535000I-4000000J0D01*
G01*
%TO.C,D18*%
X129813766Y-77610147D02*
X126392412Y-75031971D01*
X129017848Y-75107133D02*
X129017848Y-75107133D01*
X129813083Y-77609632D02*
G75*
G03*
X133308401Y-69412570I733375J4531033D01*
G01*
X133309177Y-69413154D02*
G75*
G03*
X126393095Y-75032486I-2762719J-3665445D01*
G01*
X134546458Y-73078599D02*
G75*
G03*
X134546458Y-73078599I-4000000J0D01*
G01*
%TO.C,D1*%
X145558000Y-79645000D02*
X149842000Y-79645000D01*
X147700000Y-81165000D02*
X147700000Y-81165000D01*
X145558855Y-79645000D02*
G75*
G03*
X147700486Y-88295000I2141145J-4060000D01*
G01*
X147699514Y-88295000D02*
G75*
G03*
X149841145Y-79645000I486J4590000D01*
G01*
X151700000Y-83705000D02*
G75*
G03*
X151700000Y-83705000I-4000000J0D01*
G01*
%TO.C,D6*%
X132692000Y-87595000D02*
X128408000Y-87595000D01*
X130550000Y-86075000D02*
X130550000Y-86075000D01*
X132691145Y-87595000D02*
G75*
G03*
X130549514Y-78945000I-2141145J4060000D01*
G01*
X130550486Y-78945000D02*
G75*
G03*
X128408855Y-87595000I-486J-4590000D01*
G01*
X134550000Y-83535000D02*
G75*
G03*
X134550000Y-83535000I-4000000J0D01*
G01*
%TO.C,D16*%
X142969381Y-64304408D02*
X144221902Y-60207598D01*
X145049225Y-62700408D02*
X145049225Y-62700408D01*
X142969632Y-64303590D02*
G75*
G03*
X151867820Y-64784553I4508607J860558D01*
G01*
X151867536Y-64785483D02*
G75*
G03*
X144221652Y-60208416I-4389297J1342451D01*
G01*
X151478239Y-63443032D02*
G75*
G03*
X151478239Y-63443032I-4000000J0D01*
G01*
%TO.C,D11*%
X158409193Y-93961562D02*
X161438438Y-96990807D01*
X158849013Y-96550987D02*
X158849013Y-96550987D01*
X158409797Y-93962166D02*
G75*
G03*
X153807686Y-101593002I-1356835J-4384872D01*
G01*
X153806998Y-101592314D02*
G75*
G03*
X161437834Y-96990203I3245964J3245276D01*
G01*
X161052962Y-98347038D02*
G75*
G03*
X161052962Y-98347038I-4000000J0D01*
G01*
%TO.C,D19*%
X123478512Y-82463551D02*
X119247256Y-81793386D01*
X121600664Y-80627182D02*
X121600664Y-80627182D01*
X123477668Y-82463417D02*
G75*
G03*
X122715562Y-73584888I-1479660J4344963D01*
G01*
X122716522Y-73585041D02*
G75*
G03*
X119248100Y-81793520I-718514J-4533413D01*
G01*
X125998008Y-78118454D02*
G75*
G03*
X125998008Y-78118454I-4000000J0D01*
G01*
%TO.C,D3*%
X143593645Y-89103494D02*
X141075573Y-92569323D01*
X141104903Y-89942975D02*
X141104903Y-89942975D01*
X143593142Y-89104185D02*
G75*
G03*
X135336326Y-85752459I-4543142J654185D01*
G01*
X135336897Y-85751672D02*
G75*
G03*
X141076076Y-92568631I3713103J-2698328D01*
G01*
X143050000Y-88450000D02*
G75*
G03*
X143050000Y-88450000I-4000000J0D01*
G01*
%TO.C,D10*%
X159595285Y-105767474D02*
X161737285Y-109477526D01*
X159349927Y-108382500D02*
X159349927Y-108382500D01*
X159595713Y-105768214D02*
G75*
G03*
X153175408Y-111947921I-2445491J-3884286D01*
G01*
X153174921Y-111947079D02*
G75*
G03*
X161736858Y-109476786I3975301J2294579D01*
G01*
X161150222Y-109652500D02*
G75*
G03*
X161150222Y-109652500I-4000000J0D01*
G01*
%TO.C,D8*%
X142718796Y-98924911D02*
G75*
G03*
X142718796Y-98924911I-4000000J0D01*
G01*
X134306739Y-97659268D02*
G75*
G03*
X142031339Y-102102199I4412057J-1265643D01*
G01*
X143211698Y-97985798D02*
G75*
G03*
X134306471Y-97660203I-4492902J-939113D01*
G01*
X141160401Y-99625030D02*
X141160401Y-99625030D01*
X143211934Y-97984976D02*
X142031103Y-102103021D01*
%TO.C,D17*%
X135477292Y-71303140D02*
X134296461Y-67185095D01*
X136347994Y-68825149D02*
X136347994Y-68825149D01*
X135477056Y-71302318D02*
G75*
G03*
X143201656Y-66859387I3312543J3177288D01*
G01*
X143201924Y-66860322D02*
G75*
G03*
X134296697Y-67185917I-4412325J-1264708D01*
G01*
X142789599Y-68125030D02*
G75*
G03*
X142789599Y-68125030I-4000000J0D01*
G01*
%TO.C,D14*%
X152666208Y-67256801D02*
X155849840Y-64390245D01*
X155275102Y-66953103D02*
X155275102Y-66953103D01*
X152666842Y-67256229D02*
G75*
G03*
X160046365Y-72251401I4307852J-1584462D01*
G01*
X160045642Y-72252051D02*
G75*
G03*
X155849205Y-64390817I-3070948J3411360D01*
G01*
X160974693Y-68840691D02*
G75*
G03*
X160974693Y-68840691I-3999999J0D01*
G01*
%TO.C,D13*%
X154157598Y-75321902D02*
X158254408Y-74069381D01*
X156650408Y-76149225D02*
X156650408Y-76149225D01*
X154158416Y-75321652D02*
G75*
G03*
X158735483Y-82967536I3234616J-3256587D01*
G01*
X158734553Y-82967821D02*
G75*
G03*
X158253590Y-74069631I-1341521J4389582D01*
G01*
X161393032Y-78578239D02*
G75*
G03*
X161393032Y-78578239I-4000000J0D01*
G01*
%TO.C,D2*%
X136963328Y-82890681D02*
X134506127Y-79381434D01*
X136979839Y-80264221D02*
X136979839Y-80264221D01*
X136962838Y-82889981D02*
G75*
G03*
X142820114Y-76174223I2097647J4082644D01*
G01*
X142820672Y-76175019D02*
G75*
G03*
X134506617Y-79382134I-3760187J-2632318D01*
G01*
X143060485Y-78807337D02*
G75*
G03*
X143060485Y-78807337I-4000000J0D01*
G01*
%TO.C,D4*%
X150195285Y-89567474D02*
X152337285Y-93277526D01*
X149949927Y-92182500D02*
X149949927Y-92182500D01*
X150195713Y-89568214D02*
G75*
G03*
X143775408Y-95747921I-2445491J-3884286D01*
G01*
X143774921Y-95747079D02*
G75*
G03*
X152336858Y-93276786I3975301J2294579D01*
G01*
X151750222Y-93452500D02*
G75*
G03*
X151750222Y-93452500I-4000000J0D01*
G01*
%TD*%
M02*
