%TF.GenerationSoftware,KiCad,Pcbnew,(6.0.2)*%
%TF.CreationDate,2022-03-26T22:50:30-07:00*%
%TF.ProjectId,triangle,74726961-6e67-46c6-952e-6b696361645f,rev?*%
%TF.SameCoordinates,Original*%
%TF.FileFunction,Copper,L2,Bot*%
%TF.FilePolarity,Positive*%
%FSLAX46Y46*%
G04 Gerber Fmt 4.6, Leading zero omitted, Abs format (unit mm)*
G04 Created by KiCad (PCBNEW (6.0.2)) date 2022-03-26 22:50:30*
%MOMM*%
%LPD*%
G01*
G04 APERTURE LIST*
G04 Aperture macros list*
%AMHorizOval*
0 Thick line with rounded ends*
0 $1 width*
0 $2 $3 position (X,Y) of the first rounded end (center of the circle)*
0 $4 $5 position (X,Y) of the second rounded end (center of the circle)*
0 Add line between two ends*
20,1,$1,$2,$3,$4,$5,0*
0 Add two circle primitives to create the rounded ends*
1,1,$1,$2,$3*
1,1,$1,$4,$5*%
%AMRotRect*
0 Rectangle, with rotation*
0 The origin of the aperture is its center*
0 $1 length*
0 $2 width*
0 $3 Rotation angle, in degrees counterclockwise*
0 Add horizontal line*
21,1,$1,$2,0,0,$3*%
G04 Aperture macros list end*
%TA.AperFunction,ComponentPad*%
%ADD10RotRect,1.700000X1.700000X240.000000*%
%TD*%
%TA.AperFunction,ComponentPad*%
%ADD11HorizOval,1.700000X0.000000X0.000000X0.000000X0.000000X0*%
%TD*%
%TA.AperFunction,ComponentPad*%
%ADD12R,1.700000X1.700000*%
%TD*%
%TA.AperFunction,ComponentPad*%
%ADD13O,1.700000X1.700000*%
%TD*%
%TA.AperFunction,ComponentPad*%
%ADD14RotRect,1.000000X1.300000X196.000000*%
%TD*%
%TA.AperFunction,ComponentPad*%
%ADD15HorizOval,1.000000X-0.041346X0.144189X0.041346X-0.144189X0*%
%TD*%
%TA.AperFunction,ComponentPad*%
%ADD16RotRect,1.000000X1.300000X252.000000*%
%TD*%
%TA.AperFunction,ComponentPad*%
%ADD17HorizOval,1.000000X-0.142658X0.046353X0.142658X-0.046353X0*%
%TD*%
%TA.AperFunction,ComponentPad*%
%ADD18RotRect,1.000000X1.300000X328.000000*%
%TD*%
%TA.AperFunction,ComponentPad*%
%ADD19HorizOval,1.000000X-0.079488X-0.127207X0.079488X0.127207X0*%
%TD*%
%TA.AperFunction,ComponentPad*%
%ADD20RotRect,1.000000X1.300000X100.000000*%
%TD*%
%TA.AperFunction,ComponentPad*%
%ADD21HorizOval,1.000000X0.147721X0.026047X-0.147721X-0.026047X0*%
%TD*%
%TA.AperFunction,ComponentPad*%
%ADD22RotRect,1.000000X1.300000X330.000000*%
%TD*%
%TA.AperFunction,ComponentPad*%
%ADD23HorizOval,1.000000X-0.075000X-0.129904X0.075000X0.129904X0*%
%TD*%
%TA.AperFunction,ComponentPad*%
%ADD24RotRect,1.000000X1.300000X128.000000*%
%TD*%
%TA.AperFunction,ComponentPad*%
%ADD25HorizOval,1.000000X0.118202X0.092349X-0.118202X-0.092349X0*%
%TD*%
%TA.AperFunction,ComponentPad*%
%ADD26R,1.300000X1.000000*%
%TD*%
%TA.AperFunction,ComponentPad*%
%ADD27O,1.300000X1.000000*%
%TD*%
%TA.AperFunction,ComponentPad*%
%ADD28RotRect,1.000000X1.300000X53.000000*%
%TD*%
%TA.AperFunction,ComponentPad*%
%ADD29HorizOval,1.000000X-0.119795X0.090272X0.119795X-0.090272X0*%
%TD*%
%TA.AperFunction,ComponentPad*%
%ADD30RotRect,1.000000X1.300000X343.000000*%
%TD*%
%TA.AperFunction,ComponentPad*%
%ADD31HorizOval,1.000000X-0.043856X-0.143446X0.043856X0.143446X0*%
%TD*%
%TA.AperFunction,ComponentPad*%
%ADD32RotRect,1.000000X1.300000X225.000000*%
%TD*%
%TA.AperFunction,ComponentPad*%
%ADD33HorizOval,1.000000X-0.106066X0.106066X0.106066X-0.106066X0*%
%TD*%
%TA.AperFunction,ComponentPad*%
%ADD34RotRect,1.000000X1.300000X81.000000*%
%TD*%
%TA.AperFunction,ComponentPad*%
%ADD35HorizOval,1.000000X-0.148153X0.023465X0.148153X-0.023465X0*%
%TD*%
%TA.AperFunction,ComponentPad*%
%ADD36RotRect,1.000000X1.300000X144.000000*%
%TD*%
%TA.AperFunction,ComponentPad*%
%ADD37HorizOval,1.000000X0.088168X0.121353X-0.088168X-0.121353X0*%
%TD*%
%TA.AperFunction,ComponentPad*%
%ADD38RotRect,1.000000X1.300000X210.000000*%
%TD*%
%TA.AperFunction,ComponentPad*%
%ADD39HorizOval,1.000000X-0.075000X0.129904X0.075000X-0.129904X0*%
%TD*%
%TA.AperFunction,ComponentPad*%
%ADD40HorizOval,1.000000X0.041346X0.144189X-0.041346X-0.144189X0*%
%TD*%
%TA.AperFunction,ComponentPad*%
%ADD41RotRect,1.000000X1.300000X164.000000*%
%TD*%
%TA.AperFunction,ComponentPad*%
%ADD42RotRect,1.000000X1.300000X16.000000*%
%TD*%
%TA.AperFunction,ComponentPad*%
%ADD43RotRect,1.000000X1.300000X312.000000*%
%TD*%
%TA.AperFunction,ComponentPad*%
%ADD44HorizOval,1.000000X-0.111472X-0.100370X0.111472X0.100370X0*%
%TD*%
%TA.AperFunction,ComponentPad*%
%ADD45RotRect,1.000000X1.300000X287.000000*%
%TD*%
%TA.AperFunction,ComponentPad*%
%ADD46HorizOval,1.000000X-0.143446X-0.043856X0.143446X0.043856X0*%
%TD*%
%TA.AperFunction,ComponentPad*%
%ADD47RotRect,1.000000X1.300000X35.000000*%
%TD*%
%TA.AperFunction,ComponentPad*%
%ADD48HorizOval,1.000000X-0.086036X0.122873X0.086036X-0.122873X0*%
%TD*%
%TA.AperFunction,ViaPad*%
%ADD49C,0.800000*%
%TD*%
%TA.AperFunction,Conductor*%
%ADD50C,0.250000*%
%TD*%
G04 APERTURE END LIST*
D10*
%TO.P,J2,1,Pin_1*%
%TO.N,+5V*%
X128250000Y-96150000D03*
D11*
%TO.P,J2,2,Pin_2*%
%TO.N,/DOUT*%
X126050295Y-94880000D03*
%TO.P,J2,3,Pin_3*%
%TO.N,GND*%
X123850591Y-93610000D03*
%TD*%
D12*
%TO.P,J1,1,Pin_1*%
%TO.N,+5V*%
X160050000Y-72900000D03*
D13*
%TO.P,J1,2,Pin_2*%
%TO.N,/DIN*%
X160050000Y-75440000D03*
%TO.P,J1,3,Pin_3*%
%TO.N,GND*%
X160050000Y-77980000D03*
%TD*%
D14*
%TO.P,D9,1,DOUT*%
%TO.N,Net-(D9-Pad1)*%
X149200000Y-103300000D03*
D15*
%TO.P,D9,2,VDD*%
%TO.N,+5V*%
X147979197Y-103650059D03*
%TO.P,D9,3,VSS*%
%TO.N,GND*%
X146758395Y-104000119D03*
%TO.P,D9,4,DIN*%
%TO.N,Net-(D9-Pad4)*%
X145537592Y-104350178D03*
%TD*%
D16*
%TO.P,D12,1,DOUT*%
%TO.N,Net-(D12-Pad1)*%
X157800000Y-86700000D03*
D17*
%TO.P,D12,2,VDD*%
%TO.N,+5V*%
X157407549Y-87907842D03*
%TO.P,D12,3,VSS*%
%TO.N,GND*%
X157015097Y-89115684D03*
%TO.P,D12,4,DIN*%
%TO.N,Net-(D12-Pad4)*%
X156622646Y-90323526D03*
%TD*%
D18*
%TO.P,D15,1,DOUT*%
%TO.N,Net-(D15-Pad1)*%
X155718936Y-56631008D03*
D19*
%TO.P,D15,2,VDD*%
%TO.N,+5V*%
X156795957Y-57304005D03*
%TO.P,D15,3,VSS*%
%TO.N,GND*%
X157872979Y-57977003D03*
%TO.P,D15,4,DIN*%
%TO.N,Net-(D15-Pad4)*%
X158950000Y-58650000D03*
%TD*%
D20*
%TO.P,D21,1,DOUT*%
%TO.N,/DOUT*%
X122100000Y-90950000D03*
D21*
%TO.P,D21,2,VDD*%
%TO.N,+5V*%
X121879467Y-89699294D03*
%TO.P,D21,3,VSS*%
%TO.N,GND*%
X121658933Y-88448588D03*
%TO.P,D21,4,DIN*%
%TO.N,Net-(D21-Pad4)*%
X121438400Y-87197882D03*
%TD*%
D22*
%TO.P,D5,1,DOUT*%
%TO.N,Net-(D5-Pad1)*%
X146000444Y-72795000D03*
D23*
%TO.P,D5,2,VDD*%
%TO.N,+5V*%
X147100296Y-73430000D03*
%TO.P,D5,3,VSS*%
%TO.N,GND*%
X148200148Y-74065000D03*
%TO.P,D5,4,DIN*%
%TO.N,Net-(D5-Pad4)*%
X149300000Y-74700000D03*
%TD*%
D24*
%TO.P,D7,1,DOUT*%
%TO.N,Net-(D7-Pad1)*%
X131550000Y-95650000D03*
D25*
%TO.P,D7,2,VDD*%
%TO.N,+5V*%
X130768110Y-94649227D03*
%TO.P,D7,3,VSS*%
%TO.N,GND*%
X129986220Y-93648453D03*
%TO.P,D7,4,DIN*%
%TO.N,Net-(D7-Pad4)*%
X129204330Y-92647680D03*
%TD*%
D26*
%TO.P,D20,1,DOUT*%
%TO.N,Net-(D20-Pad1)*%
X112200000Y-85440000D03*
D27*
%TO.P,D20,2,VDD*%
%TO.N,+5V*%
X112200000Y-84170000D03*
%TO.P,D20,3,VSS*%
%TO.N,GND*%
X112200000Y-82900000D03*
%TO.P,D20,4,DIN*%
%TO.N,Net-(D20-Pad4)*%
X112200000Y-81630000D03*
%TD*%
D28*
%TO.P,D18,1,DOUT*%
%TO.N,Net-(D18-Pad1)*%
X129400000Y-74600000D03*
D29*
%TO.P,D18,2,VDD*%
%TO.N,+5V*%
X130164305Y-73585733D03*
%TO.P,D18,3,VSS*%
%TO.N,GND*%
X130928611Y-72571465D03*
%TO.P,D18,4,DIN*%
%TO.N,Net-(D18-Pad4)*%
X131692916Y-71557198D03*
%TD*%
D26*
%TO.P,D1,1,DOUT*%
%TO.N,Net-(D1-Pad1)*%
X147700000Y-81800000D03*
D27*
%TO.P,D1,2,VDD*%
%TO.N,+5V*%
X147700000Y-83070000D03*
%TO.P,D1,3,VSS*%
%TO.N,GND*%
X147700000Y-84340000D03*
%TO.P,D1,4,DIN*%
%TO.N,Net-(D1-Pad4)*%
X147700000Y-85610000D03*
%TD*%
D26*
%TO.P,D6,1,DOUT*%
%TO.N,Net-(D6-Pad1)*%
X130550000Y-85440000D03*
D27*
%TO.P,D6,2,VDD*%
%TO.N,+5V*%
X130550000Y-84170000D03*
%TO.P,D6,3,VSS*%
%TO.N,GND*%
X130550000Y-82900000D03*
%TO.P,D6,4,DIN*%
%TO.N,Net-(D6-Pad4)*%
X130550000Y-81630000D03*
%TD*%
D30*
%TO.P,D16,1,DOUT*%
%TO.N,Net-(D16-Pad1)*%
X145656478Y-62886064D03*
D31*
%TO.P,D16,2,VDD*%
%TO.N,+5V*%
X146870985Y-63257376D03*
%TO.P,D16,3,VSS*%
%TO.N,GND*%
X148085493Y-63628688D03*
%TO.P,D16,4,DIN*%
%TO.N,Net-(D16-Pad4)*%
X149300000Y-64000000D03*
%TD*%
D32*
%TO.P,D11,1,DOUT*%
%TO.N,Net-(D11-Pad1)*%
X158400000Y-97000000D03*
D33*
%TO.P,D11,2,VDD*%
%TO.N,+5V*%
X157501975Y-97898025D03*
%TO.P,D11,3,VSS*%
%TO.N,GND*%
X156603949Y-98796051D03*
%TO.P,D11,4,DIN*%
%TO.N,Net-(D11-Pad4)*%
X155705924Y-99694076D03*
%TD*%
D34*
%TO.P,D19,1,DOUT*%
%TO.N,Net-(D19-Pad1)*%
X121700000Y-80000000D03*
D35*
%TO.P,D19,2,VDD*%
%TO.N,+5V*%
X121898672Y-78745636D03*
%TO.P,D19,3,VSS*%
%TO.N,GND*%
X122097344Y-77491272D03*
%TO.P,D19,4,DIN*%
%TO.N,Net-(D19-Pad4)*%
X122296016Y-76236908D03*
%TD*%
D36*
%TO.P,D3,1,DOUT*%
%TO.N,Net-(D3-Pad1)*%
X140591177Y-89569731D03*
D37*
%TO.P,D3,2,VDD*%
%TO.N,+5V*%
X139563726Y-88823244D03*
%TO.P,D3,3,VSS*%
%TO.N,GND*%
X138536274Y-88076756D03*
%TO.P,D3,4,DIN*%
%TO.N,Net-(D3-Pad4)*%
X137508823Y-87330269D03*
%TD*%
D38*
%TO.P,D10,1,DOUT*%
%TO.N,Net-(D10-Pad1)*%
X158800000Y-108700000D03*
D39*
%TO.P,D10,2,VDD*%
%TO.N,+5V*%
X157700148Y-109335000D03*
%TO.P,D10,3,VSS*%
%TO.N,GND*%
X156600296Y-109970000D03*
%TO.P,D10,4,DIN*%
%TO.N,Net-(D10-Pad4)*%
X155500444Y-110605000D03*
%TD*%
D40*
%TO.P,D8,4,DIN*%
%TO.N,Net-(D8-Pad4)*%
X136887592Y-98399822D03*
%TO.P,D8,3,VSS*%
%TO.N,GND*%
X138108395Y-98749881D03*
%TO.P,D8,2,VDD*%
%TO.N,+5V*%
X139329197Y-99099941D03*
D41*
%TO.P,D8,1,DOUT*%
%TO.N,Net-(D8-Pad1)*%
X140550000Y-99450000D03*
%TD*%
D42*
%TO.P,D17,1,DOUT*%
%TO.N,Net-(D17-Pad1)*%
X136958395Y-68650119D03*
D15*
%TO.P,D17,2,VDD*%
%TO.N,+5V*%
X138179198Y-68300060D03*
%TO.P,D17,3,VSS*%
%TO.N,GND*%
X139400000Y-67950000D03*
%TO.P,D17,4,DIN*%
%TO.N,Net-(D17-Pad4)*%
X140620803Y-67599941D03*
%TD*%
D43*
%TO.P,D14,1,DOUT*%
%TO.N,Net-(D14-Pad1)*%
X155700000Y-67425000D03*
D44*
%TO.P,D14,2,VDD*%
%TO.N,+5V*%
X156549796Y-68368794D03*
%TO.P,D14,3,VSS*%
%TO.N,GND*%
X157399592Y-69312588D03*
%TO.P,D14,4,DIN*%
%TO.N,Net-(D14-Pad4)*%
X158249388Y-70256382D03*
%TD*%
D45*
%TO.P,D13,1,DOUT*%
%TO.N,Net-(D13-Pad1)*%
X156836064Y-76756478D03*
D46*
%TO.P,D13,2,VDD*%
%TO.N,+5V*%
X157207376Y-77970985D03*
%TO.P,D13,3,VSS*%
%TO.N,GND*%
X157578688Y-79185493D03*
%TO.P,D13,4,DIN*%
%TO.N,Net-(D13-Pad4)*%
X157950000Y-80400000D03*
%TD*%
D47*
%TO.P,D2,1,DOUT*%
%TO.N,Net-(D2-Pad1)*%
X137500000Y-79900000D03*
D48*
%TO.P,D2,2,VDD*%
%TO.N,+5V*%
X138540323Y-79171558D03*
%TO.P,D2,3,VSS*%
%TO.N,GND*%
X139580647Y-78443116D03*
%TO.P,D2,4,DIN*%
%TO.N,Net-(D2-Pad4)*%
X140620970Y-77714674D03*
%TD*%
D38*
%TO.P,D4,1,DOUT*%
%TO.N,Net-(D4-Pad1)*%
X149400000Y-92500000D03*
D39*
%TO.P,D4,2,VDD*%
%TO.N,+5V*%
X148300148Y-93135000D03*
%TO.P,D4,3,VSS*%
%TO.N,GND*%
X147200296Y-93770000D03*
%TO.P,D4,4,DIN*%
%TO.N,Net-(D4-Pad4)*%
X146100444Y-94405000D03*
%TD*%
D49*
%TO.N,+5V*%
X136400000Y-70900000D03*
X133700000Y-97050000D03*
X127000000Y-75950000D03*
X142900000Y-64200000D03*
X136825500Y-72900000D03*
X144500000Y-65850000D03*
X134550000Y-69100000D03*
X144850000Y-78200000D03*
X127000000Y-73550000D03*
X137524006Y-76748013D03*
X135300000Y-94500000D03*
X156950000Y-94550000D03*
X145900000Y-77150000D03*
X159550000Y-94550000D03*
X141450000Y-102100000D03*
X139550000Y-75000000D03*
X142900000Y-100650000D03*
X143500000Y-74500000D03*
%TO.N,Net-(D4-Pad1)*%
X148209637Y-78885039D03*
X146750000Y-80400000D03*
%TO.N,/DIN*%
X157574500Y-84550173D03*
X155126479Y-84517373D03*
%TD*%
D50*
%TO.N,+5V*%
X142900000Y-100650000D02*
X141450000Y-102100000D01*
%TO.N,/DIN*%
X155126479Y-84517373D02*
X157541700Y-84517373D01*
X157541700Y-84517373D02*
X157574500Y-84550173D01*
%TO.N,GND*%
X124328535Y-72571465D02*
X125821465Y-72571465D01*
X129750000Y-71550000D02*
X126842930Y-71550000D01*
X130771465Y-72571465D02*
X129750000Y-71550000D01*
X126842930Y-71550000D02*
X125821465Y-72571465D01*
X130928611Y-72571465D02*
X130771465Y-72571465D01*
X110050000Y-81200000D02*
X111200000Y-80050000D01*
X113300000Y-80050000D02*
X114850000Y-78500000D01*
X110050000Y-82750000D02*
X110050000Y-81200000D01*
X111200000Y-80050000D02*
X113300000Y-80050000D01*
X110200000Y-82900000D02*
X110050000Y-82750000D01*
X112200000Y-82900000D02*
X110200000Y-82900000D01*
X114850000Y-78500000D02*
X116650000Y-78500000D01*
X136200000Y-93300000D02*
X136450000Y-93050000D01*
X135000000Y-93300000D02*
X136200000Y-93300000D01*
X134800000Y-93500000D02*
X135000000Y-93300000D01*
X134550000Y-93500000D02*
X134800000Y-93500000D01*
X134100000Y-93950000D02*
X134550000Y-93500000D01*
X133000000Y-93950000D02*
X134100000Y-93950000D01*
X132350000Y-93300000D02*
X133000000Y-93950000D01*
X131700000Y-93300000D02*
X132350000Y-93300000D01*
X130168110Y-93499226D02*
X131500774Y-93499226D01*
X129617336Y-94050000D02*
X130168110Y-93499226D01*
X128150000Y-94050000D02*
X129617336Y-94050000D01*
X126850000Y-93500000D02*
X127600000Y-93500000D01*
X127600000Y-93500000D02*
X128150000Y-94050000D01*
X125860591Y-92510591D02*
X126850000Y-93500000D01*
X131500774Y-93499226D02*
X131700000Y-93300000D01*
X124950000Y-92510591D02*
X125860591Y-92510591D01*
X139600000Y-69450000D02*
X139800000Y-69450000D01*
X137550000Y-71500000D02*
X139600000Y-69450000D01*
X137550000Y-72988796D02*
X137550000Y-71500000D01*
X138049510Y-73488306D02*
X137550000Y-72988796D01*
X138049511Y-74563807D02*
X138049510Y-73488306D01*
X138542852Y-75057148D02*
X138049511Y-74563807D01*
X138542852Y-75742852D02*
X138542852Y-75057148D01*
X138900000Y-76100000D02*
X138542852Y-75742852D01*
X138900000Y-77500000D02*
X138900000Y-76100000D01*
X139580647Y-78180647D02*
X138900000Y-77500000D01*
X139580647Y-78443116D02*
X139580647Y-78180647D01*
X139800000Y-69050000D02*
X139800000Y-69450000D01*
X139600000Y-68850000D02*
X139800000Y-69050000D01*
X139600000Y-68150000D02*
X139600000Y-68850000D01*
X139400000Y-67950000D02*
X139600000Y-68150000D01*
X139800000Y-69450000D02*
X140550000Y-69450000D01*
X147350000Y-61300000D02*
X148085493Y-62035493D01*
X147350000Y-59850000D02*
X147350000Y-61300000D01*
X149350000Y-57850000D02*
X147350000Y-59850000D01*
X150450000Y-57850000D02*
X149350000Y-57850000D01*
X151800000Y-56500000D02*
X150450000Y-57850000D01*
X153300000Y-56500000D02*
X151800000Y-56500000D01*
X157450000Y-54350000D02*
X155450000Y-54350000D01*
X158800000Y-55700000D02*
X157450000Y-54350000D01*
X155450000Y-54350000D02*
X153300000Y-56500000D01*
X158400000Y-56100000D02*
X158800000Y-55700000D01*
X148085493Y-62035493D02*
X148085493Y-63628688D01*
X158150000Y-57300000D02*
X158400000Y-57050000D01*
X158150000Y-57699982D02*
X158150000Y-57300000D01*
X157872979Y-57977003D02*
X158150000Y-57699982D01*
X158400000Y-57050000D02*
X158400000Y-56100000D01*
X158300000Y-73300000D02*
X156200000Y-71200000D01*
X158300000Y-76150000D02*
X158300000Y-73300000D01*
X158700000Y-76550000D02*
X158300000Y-76150000D01*
X158700000Y-77971639D02*
X158700000Y-76550000D01*
X156200000Y-71200000D02*
X156200000Y-70512180D01*
X154100000Y-84650000D02*
X154100000Y-82900000D01*
X155350000Y-85900000D02*
X154100000Y-84650000D01*
X154100000Y-82900000D02*
X154350000Y-82650000D01*
X155350000Y-87450587D02*
X155350000Y-85900000D01*
X157015097Y-89115684D02*
X155350000Y-87450587D01*
X136450000Y-95100000D02*
X136450000Y-93050000D01*
X136450000Y-93050000D02*
X136450000Y-91400000D01*
X159435305Y-101627407D02*
X156603949Y-98796051D01*
X159435305Y-106885305D02*
X159435305Y-101627407D01*
X160500000Y-107950000D02*
X159435305Y-106885305D01*
X160500000Y-109650000D02*
X160500000Y-107950000D01*
X158950000Y-111200000D02*
X160500000Y-109650000D01*
X157500000Y-111200000D02*
X158950000Y-111200000D01*
X156900000Y-110600000D02*
X157500000Y-111200000D01*
X156900000Y-110350000D02*
X156900000Y-110600000D01*
X156600296Y-110050296D02*
X156900000Y-110350000D01*
X156600296Y-109970000D02*
X156600296Y-110050296D01*
X152553949Y-98796051D02*
X154053949Y-98796051D01*
X152230296Y-98800000D02*
X152550000Y-98800000D01*
X152550000Y-98800000D02*
X152553949Y-98796051D01*
X154053949Y-98796051D02*
X155200000Y-97650000D01*
X155200000Y-97650000D02*
X155457898Y-97650000D01*
X155457898Y-97650000D02*
X156603949Y-98796051D01*
%TO.N,+5V*%
X137600000Y-73674500D02*
X136825500Y-72900000D01*
X139550000Y-75000000D02*
X143000000Y-75000000D01*
X143000000Y-75000000D02*
X143500000Y-74500000D01*
X133700000Y-96100000D02*
X133700000Y-97050000D01*
X134700000Y-69250000D02*
X134550000Y-69100000D01*
X144850000Y-78200000D02*
X145900000Y-77150000D01*
X135300000Y-94500000D02*
X133700000Y-96100000D01*
X136400000Y-70900000D02*
X134750000Y-69250000D01*
X127000000Y-75950000D02*
X127000000Y-73550000D01*
X156950000Y-94550000D02*
X159550000Y-94550000D01*
X133700000Y-97200000D02*
X133700000Y-97050000D01*
X137600000Y-76900000D02*
X137600000Y-73674500D01*
X134750000Y-69250000D02*
X134700000Y-69250000D01*
X144500000Y-65800000D02*
X142900000Y-64200000D01*
X144500000Y-65850000D02*
X144500000Y-65800000D01*
%TO.N,GND*%
X146758395Y-101541605D02*
X149500000Y-98800000D01*
X123850000Y-78450000D02*
X122891272Y-77491272D01*
X146758395Y-104000119D02*
X146758395Y-101541605D01*
X157342624Y-79329015D02*
X156321639Y-80350000D01*
X138552496Y-90552496D02*
X138552496Y-89297504D01*
X118650000Y-78500000D02*
X119658728Y-77491272D01*
X150050000Y-86350000D02*
X145800000Y-90600000D01*
X124950000Y-92510591D02*
X124950000Y-89500000D01*
X149500000Y-98800000D02*
X152230296Y-98800000D01*
X121200000Y-75700000D02*
X124328535Y-72571465D01*
X156200000Y-70512180D02*
X157399592Y-69312588D01*
X156321639Y-80678361D02*
X154350000Y-82650000D01*
X152350000Y-82650000D02*
X150660000Y-84340000D01*
X150050000Y-85400000D02*
X148990000Y-84340000D01*
X145130296Y-91700000D02*
X139700000Y-91700000D01*
X148990000Y-84340000D02*
X147700000Y-84340000D01*
X123850591Y-93610000D02*
X124950000Y-92510591D01*
X127150000Y-82900000D02*
X123850000Y-79600000D01*
X138552496Y-88082256D02*
X138552496Y-89297504D01*
X150050000Y-85400000D02*
X150050000Y-86350000D01*
X124950000Y-89500000D02*
X123898588Y-88448588D01*
X148085493Y-66844705D02*
X148085493Y-63628688D01*
X138158395Y-96808395D02*
X136450000Y-95100000D01*
X141550000Y-68850000D02*
X143500000Y-66900000D01*
X123898588Y-88448588D02*
X121658933Y-88448588D01*
X151752968Y-70512180D02*
X156200000Y-70512180D01*
X139700000Y-91700000D02*
X138552496Y-90552496D01*
X122097344Y-77491272D02*
X121200000Y-76593928D01*
X141150000Y-68850000D02*
X141550000Y-68850000D01*
X138552496Y-89297504D02*
X136450000Y-91400000D01*
X116350000Y-78500000D02*
X116650000Y-78500000D01*
X158700000Y-77971639D02*
X158708361Y-77980000D01*
X148200148Y-74065000D02*
X151752968Y-70512180D01*
X121200000Y-76593928D02*
X121200000Y-75700000D01*
X145800000Y-90600000D02*
X145800000Y-92369704D01*
X119658728Y-77491272D02*
X122097344Y-77491272D01*
X151752968Y-70512180D02*
X148085493Y-66844705D01*
X123898588Y-86151412D02*
X127150000Y-82900000D01*
X123850000Y-79600000D02*
X123850000Y-78450000D01*
X148030198Y-66900000D02*
X148085493Y-66844705D01*
X150660000Y-84340000D02*
X147700000Y-84340000D01*
X156321639Y-80350000D02*
X156321639Y-80678361D01*
X157342624Y-79329015D02*
X158700000Y-77971639D01*
X116650000Y-78500000D02*
X118650000Y-78500000D01*
X123898588Y-88448588D02*
X123898588Y-86151412D01*
X130550000Y-82900000D02*
X127150000Y-82900000D01*
X154350000Y-82650000D02*
X152350000Y-82650000D01*
X143500000Y-66900000D02*
X148030198Y-66900000D01*
X158708361Y-77980000D02*
X160050000Y-77980000D01*
X122891272Y-77491272D02*
X122097344Y-77491272D01*
X145800000Y-92369704D02*
X147200296Y-93770000D01*
X138158395Y-98699881D02*
X138158395Y-96808395D01*
X145800000Y-92369704D02*
X145130296Y-91700000D01*
X140550000Y-69450000D02*
X141150000Y-68850000D01*
X147200296Y-93770000D02*
X152230296Y-98800000D01*
%TO.N,Net-(D4-Pad1)*%
X146750000Y-80344676D02*
X148209637Y-78885039D01*
X146750000Y-80400000D02*
X146750000Y-80344676D01*
%TD*%
%TA.AperFunction,Conductor*%
%TO.N,GND*%
G36*
X159671005Y-51485458D02*
G01*
X161287000Y-52418426D01*
X161335993Y-52469807D01*
X161350000Y-52527545D01*
X161350000Y-71499856D01*
X161329998Y-71567977D01*
X161276342Y-71614470D01*
X161206068Y-71624574D01*
X161163044Y-71606734D01*
X161161760Y-71609079D01*
X161153892Y-71604771D01*
X161146705Y-71599385D01*
X161010316Y-71548255D01*
X160948134Y-71541500D01*
X159151866Y-71541500D01*
X159089684Y-71548255D01*
X158953295Y-71599385D01*
X158836739Y-71686739D01*
X158749385Y-71803295D01*
X158698255Y-71939684D01*
X158691500Y-72001866D01*
X158691500Y-73798134D01*
X158698255Y-73860316D01*
X158749385Y-73996705D01*
X158836739Y-74113261D01*
X158953295Y-74200615D01*
X158961704Y-74203767D01*
X158961705Y-74203768D01*
X159070451Y-74244535D01*
X159127216Y-74287176D01*
X159151916Y-74353738D01*
X159136709Y-74423087D01*
X159117316Y-74449568D01*
X158999552Y-74572801D01*
X158990629Y-74582138D01*
X158987715Y-74586410D01*
X158987714Y-74586411D01*
X158926678Y-74675886D01*
X158864743Y-74766680D01*
X158821684Y-74859443D01*
X158780640Y-74947866D01*
X158770688Y-74969305D01*
X158710989Y-75184570D01*
X158687251Y-75406695D01*
X158687548Y-75411848D01*
X158687548Y-75411851D01*
X158696233Y-75562469D01*
X158700110Y-75629715D01*
X158701247Y-75634761D01*
X158701248Y-75634767D01*
X158722199Y-75727730D01*
X158749222Y-75847639D01*
X158789453Y-75946717D01*
X158828466Y-76042794D01*
X158833266Y-76054616D01*
X158845179Y-76074056D01*
X158942646Y-76233108D01*
X158949987Y-76245088D01*
X159096250Y-76413938D01*
X159268126Y-76556632D01*
X159335695Y-76596116D01*
X159341955Y-76599774D01*
X159390679Y-76651412D01*
X159403750Y-76721195D01*
X159377019Y-76786967D01*
X159336562Y-76820327D01*
X159328457Y-76824546D01*
X159319738Y-76830036D01*
X159149433Y-76957905D01*
X159141726Y-76964748D01*
X158994590Y-77118717D01*
X158988104Y-77126727D01*
X158868098Y-77302649D01*
X158863000Y-77311623D01*
X158773338Y-77504783D01*
X158769775Y-77514470D01*
X158714389Y-77714183D01*
X158715912Y-77722607D01*
X158728292Y-77726000D01*
X160178000Y-77726000D01*
X160246121Y-77746002D01*
X160292614Y-77799658D01*
X160304000Y-77852000D01*
X160304000Y-79298517D01*
X160308064Y-79312359D01*
X160321478Y-79314393D01*
X160328184Y-79313534D01*
X160338262Y-79311392D01*
X160542255Y-79250191D01*
X160551842Y-79246433D01*
X160743095Y-79152739D01*
X160751945Y-79147464D01*
X160925328Y-79023792D01*
X160933200Y-79017139D01*
X161084052Y-78866812D01*
X161090730Y-78858965D01*
X161121678Y-78815896D01*
X161177672Y-78772248D01*
X161248376Y-78765802D01*
X161311340Y-78798605D01*
X161346574Y-78860242D01*
X161350000Y-78889422D01*
X161350000Y-114745455D01*
X161329998Y-114813576D01*
X161287000Y-114854574D01*
X160199436Y-115482461D01*
X159671005Y-115787542D01*
X159602009Y-115804279D01*
X159545006Y-115787541D01*
X141649806Y-105455686D01*
X139607721Y-104276681D01*
X144485335Y-104276681D01*
X144511165Y-104429399D01*
X144512133Y-104432774D01*
X144512133Y-104432775D01*
X144620414Y-104810387D01*
X144623225Y-104820191D01*
X144677623Y-104957584D01*
X144784761Y-105123828D01*
X144922148Y-105266097D01*
X145084553Y-105378970D01*
X145090197Y-105381436D01*
X145090201Y-105381438D01*
X145260149Y-105455686D01*
X145265789Y-105458150D01*
X145271799Y-105459471D01*
X145271801Y-105459472D01*
X145452935Y-105499296D01*
X145452936Y-105499296D01*
X145458953Y-105500619D01*
X145547981Y-105502483D01*
X145650522Y-105504631D01*
X145650523Y-105504631D01*
X145656687Y-105504760D01*
X145662755Y-105503690D01*
X145662756Y-105503690D01*
X145845397Y-105471485D01*
X145845398Y-105471485D01*
X145851459Y-105470416D01*
X146035851Y-105398894D01*
X146202840Y-105292920D01*
X146346064Y-105156528D01*
X146349613Y-105151497D01*
X146353644Y-105146827D01*
X146355450Y-105148386D01*
X146402770Y-105110816D01*
X146473413Y-105103738D01*
X146489084Y-105107739D01*
X146492765Y-105108935D01*
X146673799Y-105148738D01*
X146685977Y-105150190D01*
X146806657Y-105152718D01*
X146820270Y-105149028D01*
X146821488Y-105141652D01*
X146584248Y-104314294D01*
X146584245Y-104314288D01*
X146208849Y-103005126D01*
X146201301Y-102993215D01*
X146193497Y-102994287D01*
X146098662Y-103054472D01*
X146088997Y-103062022D01*
X145954763Y-103189851D01*
X145942725Y-103203798D01*
X145940771Y-103202111D01*
X145893944Y-103239242D01*
X145823296Y-103246275D01*
X145812239Y-103243448D01*
X145809395Y-103242206D01*
X145627030Y-103202111D01*
X145622250Y-103201060D01*
X145622249Y-103201060D01*
X145616232Y-103199737D01*
X145527269Y-103197874D01*
X145424662Y-103195725D01*
X145424661Y-103195725D01*
X145418497Y-103195596D01*
X145412429Y-103196666D01*
X145412428Y-103196666D01*
X145229793Y-103228870D01*
X145223725Y-103229940D01*
X145039334Y-103301462D01*
X144872344Y-103407436D01*
X144729120Y-103543828D01*
X144725571Y-103548859D01*
X144618667Y-103700406D01*
X144618664Y-103700412D01*
X144615116Y-103705441D01*
X144534673Y-103886120D01*
X144490857Y-104078982D01*
X144485335Y-104276681D01*
X139607721Y-104276681D01*
X135837620Y-102100000D01*
X140536496Y-102100000D01*
X140537186Y-102106565D01*
X140545243Y-102183219D01*
X140556458Y-102289928D01*
X140615473Y-102471556D01*
X140618776Y-102477278D01*
X140618777Y-102477279D01*
X140637401Y-102509536D01*
X140710960Y-102636944D01*
X140838747Y-102778866D01*
X140922151Y-102839463D01*
X140977855Y-102879934D01*
X140993248Y-102891118D01*
X140999276Y-102893802D01*
X140999278Y-102893803D01*
X141161681Y-102966109D01*
X141167712Y-102968794D01*
X141261112Y-102988647D01*
X141348056Y-103007128D01*
X141348061Y-103007128D01*
X141354513Y-103008500D01*
X141545487Y-103008500D01*
X141551939Y-103007128D01*
X141551944Y-103007128D01*
X141638888Y-102988647D01*
X141732288Y-102968794D01*
X141738319Y-102966109D01*
X141900722Y-102893803D01*
X141900724Y-102893802D01*
X141906752Y-102891118D01*
X141922146Y-102879934D01*
X141951527Y-102858587D01*
X146695302Y-102858587D01*
X146932542Y-103685944D01*
X146932545Y-103685950D01*
X147307941Y-104995112D01*
X147315489Y-105007023D01*
X147323293Y-105005951D01*
X147418128Y-104945766D01*
X147427793Y-104938216D01*
X147562027Y-104810387D01*
X147574065Y-104796440D01*
X147576027Y-104798134D01*
X147622791Y-104761017D01*
X147693435Y-104753951D01*
X147704556Y-104756791D01*
X147707394Y-104758031D01*
X147863204Y-104792287D01*
X147894540Y-104799177D01*
X147894541Y-104799177D01*
X147900558Y-104800500D01*
X147989586Y-104802364D01*
X148092127Y-104804512D01*
X148092128Y-104804512D01*
X148098292Y-104804641D01*
X148104360Y-104803571D01*
X148104361Y-104803571D01*
X148287002Y-104771366D01*
X148287003Y-104771366D01*
X148293064Y-104770297D01*
X148477456Y-104698775D01*
X148579339Y-104634119D01*
X148639236Y-104596107D01*
X148639238Y-104596105D01*
X148644445Y-104592801D01*
X148649001Y-104588463D01*
X148649058Y-104588433D01*
X148653766Y-104584755D01*
X148654465Y-104585650D01*
X148712123Y-104555966D01*
X148767949Y-104560839D01*
X148768446Y-104558631D01*
X148777207Y-104560605D01*
X148785592Y-104563799D01*
X148794536Y-104564511D01*
X148794537Y-104564511D01*
X148884505Y-104571671D01*
X148930791Y-104575354D01*
X148938577Y-104574009D01*
X148938580Y-104574009D01*
X148968070Y-104568915D01*
X148992426Y-104564708D01*
X149642845Y-104378203D01*
X149713839Y-104378654D01*
X149773320Y-104417415D01*
X149802403Y-104482182D01*
X149802929Y-104512052D01*
X149785320Y-104685412D01*
X149782565Y-104948500D01*
X149780842Y-105112982D01*
X149781071Y-105115827D01*
X149781071Y-105115830D01*
X149814485Y-105531119D01*
X149815135Y-105539199D01*
X149887915Y-105960554D01*
X149888657Y-105963322D01*
X149980998Y-106307941D01*
X149998585Y-106373578D01*
X150146232Y-106774872D01*
X150147454Y-106777445D01*
X150147455Y-106777448D01*
X150303127Y-107105292D01*
X150329642Y-107161133D01*
X150547306Y-107529181D01*
X150797430Y-107875988D01*
X151077957Y-108198697D01*
X151386577Y-108494653D01*
X151388795Y-108496423D01*
X151388800Y-108496428D01*
X151569276Y-108640500D01*
X151720751Y-108761421D01*
X151723114Y-108762979D01*
X151723118Y-108762982D01*
X151855619Y-108850350D01*
X152077727Y-108996803D01*
X152454567Y-109198863D01*
X152848170Y-109365937D01*
X152850879Y-109366807D01*
X152850885Y-109366809D01*
X153252575Y-109495778D01*
X153252581Y-109495780D01*
X153255295Y-109496651D01*
X153258068Y-109497271D01*
X153258076Y-109497273D01*
X153571810Y-109567400D01*
X153672591Y-109589927D01*
X154096624Y-109645000D01*
X154523054Y-109661381D01*
X154590355Y-109683983D01*
X154634754Y-109739384D01*
X154642153Y-109809994D01*
X154624603Y-109854800D01*
X154520915Y-110018186D01*
X154518687Y-110023929D01*
X154518686Y-110023932D01*
X154476613Y-110132406D01*
X154449395Y-110202578D01*
X154415050Y-110397350D01*
X154419193Y-110595083D01*
X154461662Y-110788247D01*
X154523671Y-110930179D01*
X154726941Y-111282254D01*
X154812961Y-111402406D01*
X154957135Y-111537793D01*
X154962355Y-111541055D01*
X154962359Y-111541058D01*
X155076656Y-111612479D01*
X155124859Y-111642600D01*
X155235675Y-111684695D01*
X155303988Y-111710645D01*
X155303990Y-111710646D01*
X155309746Y-111712832D01*
X155504753Y-111745815D01*
X155510914Y-111745643D01*
X155510915Y-111745643D01*
X155696299Y-111740465D01*
X155696300Y-111740465D01*
X155702453Y-111740293D01*
X155818804Y-111713859D01*
X155889305Y-111697842D01*
X155889308Y-111697841D01*
X155895316Y-111696476D01*
X156023657Y-111639335D01*
X156070364Y-111618540D01*
X156070367Y-111618538D01*
X156075994Y-111616033D01*
X156237606Y-111502028D01*
X156373998Y-111358804D01*
X156479972Y-111191814D01*
X156482199Y-111186072D01*
X156484979Y-111180569D01*
X156487103Y-111181642D01*
X156523959Y-111133722D01*
X156590797Y-111109779D01*
X156606940Y-111109871D01*
X156610800Y-111110141D01*
X156796088Y-111104966D01*
X156808245Y-111103430D01*
X156925966Y-111076684D01*
X156938278Y-111069813D01*
X156937676Y-111062359D01*
X156316326Y-109986149D01*
X156299588Y-109917154D01*
X156322808Y-109850062D01*
X156362445Y-109814030D01*
X156584147Y-109686030D01*
X156653142Y-109669292D01*
X156720234Y-109692512D01*
X156756266Y-109732149D01*
X157374228Y-110802491D01*
X157384434Y-110812222D01*
X157391747Y-110809294D01*
X157469205Y-110727955D01*
X157476755Y-110718290D01*
X157576072Y-110561792D01*
X157584384Y-110545339D01*
X157586700Y-110546509D01*
X157623079Y-110499189D01*
X157689912Y-110475234D01*
X157701404Y-110475299D01*
X157704457Y-110475815D01*
X157710622Y-110475643D01*
X157710625Y-110475643D01*
X157896003Y-110470465D01*
X157896004Y-110470465D01*
X157902157Y-110470293D01*
X157966297Y-110455721D01*
X158089009Y-110427842D01*
X158089012Y-110427841D01*
X158095020Y-110426476D01*
X158216028Y-110372600D01*
X158270068Y-110348540D01*
X158270071Y-110348538D01*
X158275698Y-110346033D01*
X158437310Y-110232028D01*
X158573702Y-110088804D01*
X158577004Y-110083601D01*
X158577007Y-110083597D01*
X158577086Y-110083473D01*
X158577144Y-110083423D01*
X158580798Y-110078745D01*
X158581688Y-110079440D01*
X158630478Y-110036678D01*
X158685807Y-110027905D01*
X158685756Y-110025645D01*
X158694723Y-110025441D01*
X158703642Y-110026513D01*
X158797833Y-110010835D01*
X158839532Y-110003895D01*
X158839534Y-110003894D01*
X158847323Y-110002598D01*
X158904552Y-109977357D01*
X159853948Y-109429223D01*
X159904422Y-109392282D01*
X159996973Y-109279808D01*
X160054236Y-109145879D01*
X160071609Y-109001262D01*
X160047695Y-108857580D01*
X160022454Y-108800352D01*
X159676229Y-108200672D01*
X159326025Y-107594100D01*
X159326019Y-107594091D01*
X159324320Y-107591148D01*
X159322314Y-107588407D01*
X159322310Y-107588401D01*
X159292045Y-107547050D01*
X159292044Y-107547049D01*
X159287379Y-107540675D01*
X159206190Y-107473867D01*
X159181834Y-107453825D01*
X159181832Y-107453824D01*
X159174904Y-107448123D01*
X159040975Y-107390860D01*
X159032066Y-107389790D01*
X159032063Y-107389789D01*
X158940613Y-107378803D01*
X158896358Y-107373487D01*
X158887503Y-107374961D01*
X158887500Y-107374961D01*
X158752677Y-107397402D01*
X158752184Y-107394439D01*
X158695272Y-107394702D01*
X158635370Y-107356594D01*
X158605579Y-107292150D01*
X158615358Y-107221831D01*
X158620873Y-107211025D01*
X158649447Y-107161133D01*
X158682845Y-107102816D01*
X158860844Y-106714032D01*
X158861789Y-106711347D01*
X158861794Y-106711336D01*
X159001924Y-106313415D01*
X159002875Y-106310715D01*
X159090779Y-105963322D01*
X159107064Y-105898965D01*
X159107065Y-105898961D01*
X159107767Y-105896186D01*
X159174657Y-105473856D01*
X159196251Y-105148738D01*
X159202879Y-105048953D01*
X159202879Y-105048942D01*
X159202995Y-105047202D01*
X159204029Y-104948500D01*
X159184632Y-104521346D01*
X159183360Y-104512055D01*
X159126988Y-104100535D01*
X159126601Y-104097708D01*
X159120892Y-104072977D01*
X159059626Y-103807609D01*
X159030413Y-103681073D01*
X158996052Y-103576562D01*
X158897754Y-103277586D01*
X158897751Y-103277579D01*
X158896861Y-103274871D01*
X158727042Y-102882444D01*
X158595867Y-102641852D01*
X158523727Y-102509536D01*
X158523723Y-102509529D01*
X158522357Y-102507024D01*
X158422670Y-102358114D01*
X158286080Y-102154077D01*
X158286072Y-102154066D01*
X158284488Y-102151700D01*
X158015394Y-101819397D01*
X157949012Y-101751134D01*
X157719280Y-101514896D01*
X157719276Y-101514892D01*
X157717290Y-101512850D01*
X157715132Y-101511000D01*
X157715122Y-101510991D01*
X157476184Y-101306197D01*
X157392630Y-101234582D01*
X157044087Y-100986885D01*
X156780313Y-100833365D01*
X156677001Y-100773236D01*
X156676996Y-100773233D01*
X156674528Y-100771797D01*
X156671942Y-100770591D01*
X156671936Y-100770588D01*
X156563542Y-100720043D01*
X156510257Y-100673125D01*
X156490796Y-100604848D01*
X156511338Y-100536888D01*
X156523676Y-100521811D01*
X156523537Y-100521695D01*
X156646192Y-100374480D01*
X156646193Y-100374479D01*
X156650136Y-100369746D01*
X156744812Y-100196101D01*
X156795644Y-100033894D01*
X156802112Y-100013256D01*
X156802113Y-100013253D01*
X156803955Y-100007374D01*
X156804620Y-100001248D01*
X156805881Y-99995214D01*
X156808211Y-99995701D01*
X156831412Y-99939873D01*
X156889777Y-99899450D01*
X156905382Y-99895365D01*
X156909178Y-99894627D01*
X157086817Y-99841670D01*
X157098173Y-99837036D01*
X157204951Y-99780737D01*
X157215067Y-99770912D01*
X157212557Y-99763869D01*
X155640926Y-98192238D01*
X155628546Y-98185478D01*
X155622241Y-98190198D01*
X155568473Y-98288816D01*
X155563683Y-98300100D01*
X155508255Y-98476972D01*
X155504485Y-98495016D01*
X155501943Y-98494485D01*
X155479060Y-98549599D01*
X155420708Y-98590041D01*
X155409575Y-98592958D01*
X155406496Y-98593249D01*
X155306043Y-98623195D01*
X155222865Y-98647991D01*
X155222863Y-98647992D01*
X155216962Y-98649751D01*
X155042012Y-98741992D01*
X155037226Y-98745868D01*
X155037224Y-98745869D01*
X154913287Y-98846232D01*
X154888311Y-98866457D01*
X154884366Y-98871192D01*
X154779149Y-98997478D01*
X154761712Y-99018406D01*
X154667036Y-99192051D01*
X154649435Y-99248216D01*
X154610556Y-99372281D01*
X154607893Y-99380778D01*
X154607228Y-99386901D01*
X154607227Y-99386905D01*
X154589165Y-99553177D01*
X154586534Y-99577398D01*
X154603771Y-99774423D01*
X154605490Y-99780340D01*
X154605491Y-99780345D01*
X154627890Y-99857440D01*
X154658949Y-99964346D01*
X154661783Y-99969813D01*
X154705324Y-100053813D01*
X154718915Y-100123497D01*
X154692674Y-100189466D01*
X154634934Y-100230776D01*
X154595658Y-100237779D01*
X154197917Y-100244721D01*
X154197912Y-100244721D01*
X154195066Y-100244771D01*
X154192233Y-100245079D01*
X154192229Y-100245079D01*
X153849815Y-100282277D01*
X153769973Y-100290951D01*
X153350815Y-100375468D01*
X153348082Y-100376283D01*
X153348077Y-100376284D01*
X153223320Y-100413476D01*
X152941042Y-100497627D01*
X152938381Y-100498691D01*
X152938379Y-100498692D01*
X152672969Y-100604848D01*
X152544027Y-100656421D01*
X152431417Y-100713799D01*
X152165581Y-100849249D01*
X152165576Y-100849252D01*
X152163038Y-100850545D01*
X151801210Y-101078400D01*
X151461523Y-101338110D01*
X151459428Y-101340036D01*
X151459419Y-101340044D01*
X151221852Y-101558500D01*
X151146773Y-101627539D01*
X150859549Y-101944302D01*
X150602216Y-102285794D01*
X150376893Y-102649203D01*
X150325813Y-102751207D01*
X150321698Y-102759425D01*
X150273312Y-102811379D01*
X150204518Y-102828926D01*
X150137158Y-102806495D01*
X150092619Y-102751207D01*
X150087916Y-102737737D01*
X150060422Y-102641852D01*
X149977001Y-102350930D01*
X149953368Y-102293019D01*
X149887976Y-102204809D01*
X149871971Y-102183219D01*
X149871969Y-102183217D01*
X149866624Y-102176007D01*
X149750527Y-102088044D01*
X149718388Y-102075803D01*
X149622795Y-102039395D01*
X149622793Y-102039395D01*
X149614408Y-102036201D01*
X149605464Y-102035489D01*
X149605463Y-102035489D01*
X149486110Y-102025991D01*
X149469209Y-102024646D01*
X149461423Y-102025991D01*
X149461420Y-102025991D01*
X149431930Y-102031085D01*
X149407574Y-102035292D01*
X149404288Y-102036234D01*
X149404289Y-102036234D01*
X148357055Y-102336524D01*
X148357052Y-102336525D01*
X148353774Y-102337465D01*
X148350623Y-102338751D01*
X148350617Y-102338753D01*
X148320779Y-102350930D01*
X148295863Y-102361098D01*
X148178850Y-102447841D01*
X148173428Y-102454998D01*
X148167049Y-102461310D01*
X148165270Y-102459512D01*
X148118967Y-102493759D01*
X148061644Y-102500455D01*
X148057837Y-102499618D01*
X147996759Y-102498339D01*
X147866267Y-102495606D01*
X147866266Y-102495606D01*
X147860102Y-102495477D01*
X147854034Y-102496547D01*
X147854033Y-102496547D01*
X147780370Y-102509536D01*
X147665330Y-102529821D01*
X147480939Y-102601343D01*
X147313949Y-102707317D01*
X147309489Y-102711564D01*
X147309488Y-102711565D01*
X147259231Y-102759425D01*
X147170725Y-102843709D01*
X147167176Y-102848740D01*
X147163145Y-102853410D01*
X147161346Y-102851857D01*
X147113968Y-102889441D01*
X147043322Y-102896489D01*
X147027712Y-102892500D01*
X147024032Y-102891304D01*
X146842993Y-102851501D01*
X146830811Y-102850049D01*
X146710133Y-102847521D01*
X146696520Y-102851211D01*
X146695302Y-102858587D01*
X141951527Y-102858587D01*
X141977849Y-102839463D01*
X142061253Y-102778866D01*
X142189040Y-102636944D01*
X142262599Y-102509536D01*
X142281223Y-102477279D01*
X142281224Y-102477278D01*
X142284527Y-102471556D01*
X142343542Y-102289928D01*
X142360907Y-102124706D01*
X142387920Y-102059050D01*
X142397122Y-102048782D01*
X142850499Y-101595405D01*
X142912811Y-101561379D01*
X142939594Y-101558500D01*
X142995487Y-101558500D01*
X143001939Y-101557128D01*
X143001944Y-101557128D01*
X143088887Y-101538647D01*
X143182288Y-101518794D01*
X143199814Y-101510991D01*
X143350722Y-101443803D01*
X143350724Y-101443802D01*
X143356752Y-101441118D01*
X143511253Y-101328866D01*
X143597635Y-101232929D01*
X143634621Y-101191852D01*
X143634622Y-101191851D01*
X143639040Y-101186944D01*
X143701708Y-101078400D01*
X143731223Y-101027279D01*
X143731224Y-101027278D01*
X143734527Y-101021556D01*
X143793542Y-100839928D01*
X143805726Y-100724009D01*
X143812814Y-100656565D01*
X143813504Y-100650000D01*
X143806085Y-100579415D01*
X143794232Y-100466635D01*
X143794232Y-100466633D01*
X143793542Y-100460072D01*
X143734527Y-100278444D01*
X143709284Y-100234721D01*
X143683155Y-100189466D01*
X143639040Y-100113056D01*
X143585698Y-100053813D01*
X143515675Y-99976045D01*
X143515674Y-99976044D01*
X143511253Y-99971134D01*
X143356752Y-99858882D01*
X143350724Y-99856198D01*
X143350722Y-99856197D01*
X143188319Y-99783891D01*
X143188318Y-99783891D01*
X143182288Y-99781206D01*
X143088888Y-99761353D01*
X143001944Y-99742872D01*
X143001939Y-99742872D01*
X142995487Y-99741500D01*
X142804513Y-99741500D01*
X142798061Y-99742872D01*
X142798056Y-99742872D01*
X142711112Y-99761353D01*
X142617712Y-99781206D01*
X142611682Y-99783891D01*
X142611681Y-99783891D01*
X142449278Y-99856197D01*
X142449276Y-99856198D01*
X142443248Y-99858882D01*
X142288747Y-99971134D01*
X142284326Y-99976044D01*
X142284325Y-99976045D01*
X142214303Y-100053813D01*
X142160960Y-100113056D01*
X142116845Y-100189466D01*
X142090717Y-100234721D01*
X142065473Y-100278444D01*
X142006458Y-100460072D01*
X142005768Y-100466633D01*
X142005768Y-100466635D01*
X141989093Y-100625292D01*
X141962080Y-100690949D01*
X141952878Y-100701218D01*
X141499499Y-101154596D01*
X141437187Y-101188621D01*
X141410404Y-101191500D01*
X141354513Y-101191500D01*
X141348061Y-101192872D01*
X141348056Y-101192872D01*
X141261112Y-101211353D01*
X141167712Y-101231206D01*
X141161682Y-101233891D01*
X141161681Y-101233891D01*
X140999278Y-101306197D01*
X140999276Y-101306198D01*
X140993248Y-101308882D01*
X140838747Y-101421134D01*
X140834326Y-101426044D01*
X140834325Y-101426045D01*
X140716298Y-101557128D01*
X140710960Y-101563056D01*
X140615473Y-101728444D01*
X140556458Y-101910072D01*
X140555768Y-101916633D01*
X140555768Y-101916635D01*
X140543358Y-102034710D01*
X140536496Y-102100000D01*
X135837620Y-102100000D01*
X132000972Y-99884898D01*
X138047170Y-99884898D01*
X138047260Y-99898998D01*
X138054446Y-99902225D01*
X138166759Y-99901441D01*
X138178954Y-99900159D01*
X138360523Y-99862890D01*
X138378127Y-99857440D01*
X138378893Y-99859913D01*
X138438239Y-99853221D01*
X138501890Y-99884670D01*
X138509805Y-99892960D01*
X138511555Y-99895516D01*
X138652860Y-100033894D01*
X138818354Y-100142190D01*
X138845152Y-100153017D01*
X138996013Y-100213969D01*
X138996017Y-100213970D01*
X139001729Y-100216278D01*
X139007782Y-100217433D01*
X139007783Y-100217433D01*
X139189952Y-100252185D01*
X139189953Y-100252185D01*
X139196002Y-100253339D01*
X139332097Y-100252389D01*
X139387614Y-100252002D01*
X139393775Y-100251959D01*
X139399808Y-100250721D01*
X139399814Y-100250720D01*
X139399960Y-100250690D01*
X139400038Y-100250696D01*
X139405942Y-100250076D01*
X139406060Y-100251199D01*
X139470711Y-100256590D01*
X139515459Y-100290297D01*
X139517049Y-100288690D01*
X139523427Y-100295002D01*
X139528850Y-100302159D01*
X139645863Y-100388902D01*
X139653175Y-100391886D01*
X139700617Y-100411247D01*
X139700623Y-100411249D01*
X139703774Y-100412535D01*
X139707052Y-100413475D01*
X139707055Y-100413476D01*
X140445744Y-100625292D01*
X140757574Y-100714708D01*
X140781930Y-100718915D01*
X140811420Y-100724009D01*
X140811423Y-100724009D01*
X140819209Y-100725354D01*
X140885947Y-100720043D01*
X140955463Y-100714511D01*
X140955464Y-100714511D01*
X140964408Y-100713799D01*
X140972793Y-100710605D01*
X140972795Y-100710605D01*
X141092138Y-100665151D01*
X141100527Y-100661956D01*
X141216624Y-100573993D01*
X141221969Y-100566783D01*
X141221971Y-100566781D01*
X141298666Y-100463324D01*
X141298667Y-100463323D01*
X141303368Y-100456981D01*
X141327001Y-100399070D01*
X141358093Y-100290641D01*
X141710923Y-99060173D01*
X141710923Y-99060171D01*
X141711864Y-99056891D01*
X141722511Y-98995256D01*
X141710955Y-98850057D01*
X141675564Y-98757133D01*
X141662308Y-98722329D01*
X141662307Y-98722328D01*
X141659112Y-98713938D01*
X141571150Y-98597841D01*
X141454137Y-98511098D01*
X141446825Y-98508114D01*
X141399383Y-98488753D01*
X141399377Y-98488751D01*
X141396226Y-98487465D01*
X141392948Y-98486525D01*
X141392945Y-98486524D01*
X140450232Y-98216205D01*
X140342426Y-98185292D01*
X140318070Y-98181085D01*
X140288580Y-98175991D01*
X140288577Y-98175991D01*
X140280791Y-98174646D01*
X140263890Y-98175991D01*
X140144537Y-98185489D01*
X140144536Y-98185489D01*
X140135592Y-98186201D01*
X140127206Y-98189395D01*
X140118447Y-98191369D01*
X140117891Y-98188902D01*
X140060478Y-98193410D01*
X140008312Y-98168709D01*
X140005534Y-98165988D01*
X140000381Y-98162616D01*
X140000376Y-98162612D01*
X139845200Y-98061068D01*
X139845195Y-98061066D01*
X139840040Y-98057692D01*
X139656665Y-97983603D01*
X139558931Y-97964959D01*
X139468443Y-97947697D01*
X139468440Y-97947697D01*
X139462392Y-97946543D01*
X139264619Y-97947922D01*
X139258296Y-97949220D01*
X139076919Y-97986451D01*
X139076914Y-97986453D01*
X139070881Y-97987691D01*
X139065203Y-97990078D01*
X139059310Y-97991902D01*
X139058606Y-97989628D01*
X138998538Y-97996405D01*
X138934885Y-97964959D01*
X138923733Y-97953279D01*
X138921243Y-97950312D01*
X138788822Y-97820635D01*
X138779255Y-97812943D01*
X138678251Y-97746847D01*
X138664752Y-97742762D01*
X138659809Y-97748373D01*
X138282547Y-99064041D01*
X138282543Y-99064053D01*
X138047170Y-99884898D01*
X132000972Y-99884898D01*
X129531622Y-98459210D01*
X135836421Y-98459210D01*
X135839182Y-98656968D01*
X135840463Y-98662993D01*
X135840463Y-98662997D01*
X135868801Y-98796322D01*
X135880300Y-98850424D01*
X135958213Y-99032208D01*
X136069950Y-99195397D01*
X136211255Y-99333775D01*
X136376749Y-99442071D01*
X136441674Y-99468302D01*
X136554408Y-99513850D01*
X136554412Y-99513851D01*
X136560124Y-99516159D01*
X136566177Y-99517314D01*
X136566178Y-99517314D01*
X136748347Y-99552066D01*
X136748348Y-99552066D01*
X136754397Y-99553220D01*
X136890492Y-99552270D01*
X136946009Y-99551883D01*
X136952170Y-99551840D01*
X136958199Y-99550602D01*
X136958203Y-99550602D01*
X137083237Y-99524936D01*
X137145908Y-99512072D01*
X137151586Y-99509685D01*
X137157476Y-99507862D01*
X137158180Y-99510137D01*
X137218244Y-99503356D01*
X137281899Y-99534796D01*
X137293059Y-99546484D01*
X137295548Y-99549451D01*
X137427968Y-99679127D01*
X137437535Y-99686819D01*
X137538539Y-99752915D01*
X137552038Y-99757000D01*
X137556981Y-99751389D01*
X137934243Y-98435721D01*
X137934250Y-98435697D01*
X138169620Y-97614864D01*
X138169530Y-97600764D01*
X138162344Y-97597537D01*
X138050038Y-97598320D01*
X138037825Y-97599604D01*
X137856270Y-97636872D01*
X137838659Y-97642323D01*
X137837893Y-97639848D01*
X137778564Y-97646545D01*
X137714909Y-97615103D01*
X137706983Y-97606801D01*
X137705234Y-97604247D01*
X137563929Y-97465869D01*
X137499450Y-97423675D01*
X137403595Y-97360949D01*
X137403590Y-97360947D01*
X137398435Y-97357573D01*
X137215060Y-97283484D01*
X137083677Y-97258421D01*
X137026838Y-97247578D01*
X137026835Y-97247578D01*
X137020787Y-97246424D01*
X136823014Y-97247803D01*
X136629276Y-97287572D01*
X136538114Y-97325893D01*
X136452637Y-97361823D01*
X136452635Y-97361824D01*
X136446952Y-97364213D01*
X136441840Y-97367661D01*
X136288095Y-97471362D01*
X136288091Y-97471365D01*
X136282987Y-97474808D01*
X136278647Y-97479178D01*
X136278645Y-97479180D01*
X136147968Y-97610772D01*
X136147965Y-97610775D01*
X136143627Y-97615144D01*
X136034178Y-97779877D01*
X136020549Y-97812943D01*
X135978027Y-97916109D01*
X135975155Y-97923076D01*
X135974190Y-97926441D01*
X135974188Y-97926447D01*
X135899695Y-98186234D01*
X135863096Y-98313869D01*
X135862539Y-98316904D01*
X135848358Y-98394172D01*
X135836421Y-98459210D01*
X129531622Y-98459210D01*
X128744742Y-98004902D01*
X128695749Y-97953520D01*
X128682313Y-97883807D01*
X128708699Y-97817896D01*
X128758206Y-97779930D01*
X128819756Y-97753613D01*
X128819759Y-97753611D01*
X128828013Y-97750082D01*
X128892841Y-97696738D01*
X128934383Y-97662555D01*
X128934385Y-97662553D01*
X128940488Y-97657531D01*
X128977429Y-97607057D01*
X129299046Y-97050000D01*
X132786496Y-97050000D01*
X132806458Y-97239928D01*
X132865473Y-97421556D01*
X132868776Y-97427278D01*
X132868777Y-97427279D01*
X132871268Y-97431594D01*
X132960960Y-97586944D01*
X132965378Y-97591851D01*
X132965379Y-97591852D01*
X132975792Y-97603417D01*
X133088747Y-97728866D01*
X133124808Y-97755066D01*
X133215820Y-97821190D01*
X133243248Y-97841118D01*
X133249276Y-97843802D01*
X133249278Y-97843803D01*
X133411681Y-97916109D01*
X133417712Y-97918794D01*
X133511113Y-97938647D01*
X133598056Y-97957128D01*
X133598061Y-97957128D01*
X133604513Y-97958500D01*
X133795487Y-97958500D01*
X133801939Y-97957128D01*
X133801944Y-97957128D01*
X133888888Y-97938647D01*
X133982288Y-97918794D01*
X133988319Y-97916109D01*
X134150722Y-97843803D01*
X134150724Y-97843802D01*
X134156752Y-97841118D01*
X134184181Y-97821190D01*
X134275192Y-97755066D01*
X134311253Y-97728866D01*
X134424208Y-97603417D01*
X134434621Y-97591852D01*
X134434622Y-97591851D01*
X134439040Y-97586944D01*
X134528732Y-97431594D01*
X134531223Y-97427279D01*
X134531224Y-97427278D01*
X134534527Y-97421556D01*
X134593542Y-97239928D01*
X134613504Y-97050000D01*
X134605567Y-96974479D01*
X134594232Y-96866635D01*
X134594232Y-96866633D01*
X134593542Y-96860072D01*
X134534527Y-96678444D01*
X134439040Y-96513056D01*
X134397662Y-96467101D01*
X134366947Y-96403098D01*
X134375710Y-96332644D01*
X134402205Y-96293699D01*
X135250499Y-95445405D01*
X135312811Y-95411379D01*
X135339594Y-95408500D01*
X135395487Y-95408500D01*
X135401939Y-95407128D01*
X135401944Y-95407128D01*
X135519754Y-95382086D01*
X135582288Y-95368794D01*
X135602305Y-95359882D01*
X135750722Y-95293803D01*
X135750724Y-95293802D01*
X135756752Y-95291118D01*
X135768482Y-95282596D01*
X135842434Y-95228866D01*
X135911253Y-95178866D01*
X135998243Y-95082254D01*
X136034621Y-95041852D01*
X136034622Y-95041851D01*
X136039040Y-95036944D01*
X136134527Y-94871556D01*
X136178664Y-94735718D01*
X137613713Y-94735718D01*
X137614128Y-94739668D01*
X137641162Y-94997012D01*
X137643394Y-95018262D01*
X137658121Y-95081068D01*
X137706464Y-95287237D01*
X137708251Y-95294859D01*
X137709628Y-95298563D01*
X137709630Y-95298569D01*
X137799507Y-95540293D01*
X137807261Y-95561147D01*
X137938863Y-95812927D01*
X137941115Y-95816168D01*
X137941120Y-95816176D01*
X138088244Y-96027899D01*
X138100981Y-96046228D01*
X138291060Y-96257373D01*
X138506102Y-96443032D01*
X138575160Y-96488925D01*
X138715732Y-96582344D01*
X138726226Y-96590131D01*
X138731554Y-96594532D01*
X138742336Y-96600935D01*
X138746857Y-96602748D01*
X138746856Y-96602748D01*
X138768238Y-96611325D01*
X138784329Y-96619148D01*
X144261012Y-99781206D01*
X144327888Y-99819818D01*
X144345122Y-99831786D01*
X144360554Y-99844532D01*
X144371336Y-99850935D01*
X144375848Y-99852745D01*
X144376140Y-99852889D01*
X144384699Y-99856722D01*
X144626206Y-99976642D01*
X144629949Y-99977946D01*
X144629954Y-99977948D01*
X144790554Y-100033894D01*
X144894528Y-100070114D01*
X145073380Y-100108148D01*
X145168570Y-100128391D01*
X145168572Y-100128391D01*
X145172450Y-100129216D01*
X145455588Y-100153017D01*
X145459536Y-100152852D01*
X145459542Y-100152852D01*
X145735516Y-100141307D01*
X145735521Y-100141307D01*
X145739477Y-100141141D01*
X145746605Y-100139936D01*
X145808049Y-100129548D01*
X146019638Y-100093776D01*
X146291652Y-100011669D01*
X146551230Y-99896114D01*
X146741760Y-99780737D01*
X146790882Y-99750991D01*
X146790883Y-99750990D01*
X146794277Y-99748935D01*
X146797382Y-99746474D01*
X146797388Y-99746470D01*
X147013858Y-99574911D01*
X147013863Y-99574906D01*
X147016960Y-99572452D01*
X147162534Y-99423806D01*
X147212994Y-99372281D01*
X147212998Y-99372277D01*
X147215766Y-99369450D01*
X147350426Y-99192051D01*
X147385170Y-99146280D01*
X147385172Y-99146276D01*
X147387560Y-99143131D01*
X147529631Y-98897063D01*
X147632459Y-98652448D01*
X147638205Y-98638780D01*
X147638206Y-98638777D01*
X147639740Y-98635128D01*
X147658403Y-98568282D01*
X147715084Y-98365270D01*
X147715085Y-98365265D01*
X147716148Y-98361458D01*
X147757653Y-98080369D01*
X147758128Y-98057692D01*
X147763076Y-97821190D01*
X155992831Y-97821190D01*
X155995341Y-97828233D01*
X157566972Y-99399864D01*
X157579352Y-99406624D01*
X157585657Y-99401904D01*
X157639425Y-99303286D01*
X157644215Y-99292002D01*
X157699643Y-99115130D01*
X157703413Y-99097086D01*
X157705955Y-99097617D01*
X157728838Y-99042503D01*
X157787190Y-99002061D01*
X157798327Y-98999143D01*
X157801403Y-98998852D01*
X157928865Y-98960854D01*
X157985034Y-98944110D01*
X157985036Y-98944109D01*
X157990937Y-98942350D01*
X158165887Y-98850109D01*
X158176309Y-98841670D01*
X158314798Y-98729523D01*
X158314799Y-98729522D01*
X158319588Y-98725644D01*
X158345524Y-98694515D01*
X158442243Y-98578429D01*
X158442244Y-98578428D01*
X158446187Y-98573695D01*
X158540863Y-98400050D01*
X158542746Y-98394042D01*
X158542785Y-98393983D01*
X158545116Y-98388493D01*
X158546159Y-98388936D01*
X158582200Y-98335018D01*
X158633384Y-98312216D01*
X158632749Y-98310045D01*
X158641371Y-98307524D01*
X158650252Y-98306252D01*
X158782848Y-98245965D01*
X158789001Y-98241018D01*
X158789004Y-98241016D01*
X158828932Y-98208912D01*
X158831594Y-98206772D01*
X159606772Y-97431594D01*
X159630661Y-97401882D01*
X159641016Y-97389004D01*
X159641018Y-97389001D01*
X159645965Y-97382848D01*
X159706252Y-97250252D01*
X159707628Y-97240648D01*
X159725628Y-97114955D01*
X159726901Y-97106066D01*
X159725628Y-97097177D01*
X159707525Y-96970766D01*
X159707524Y-96970763D01*
X159706252Y-96961880D01*
X159700156Y-96948471D01*
X159649233Y-96836472D01*
X159645965Y-96829284D01*
X159641018Y-96823131D01*
X159641016Y-96823128D01*
X159608912Y-96783200D01*
X159606772Y-96780538D01*
X158619462Y-95793228D01*
X158596740Y-95774959D01*
X158576872Y-95758984D01*
X158576869Y-95758982D01*
X158570716Y-95754035D01*
X158485377Y-95715234D01*
X158446289Y-95697462D01*
X158446288Y-95697462D01*
X158438120Y-95693748D01*
X158429237Y-95692476D01*
X158429234Y-95692475D01*
X158302823Y-95674372D01*
X158293934Y-95673099D01*
X158285045Y-95674372D01*
X158158634Y-95692475D01*
X158158631Y-95692476D01*
X158149748Y-95693748D01*
X158141580Y-95697462D01*
X158141579Y-95697462D01*
X158102491Y-95715234D01*
X158017152Y-95754035D01*
X158010999Y-95758982D01*
X158010996Y-95758984D01*
X157991128Y-95774959D01*
X157968406Y-95793228D01*
X157193228Y-96568406D01*
X157191088Y-96571068D01*
X157158984Y-96610996D01*
X157158982Y-96610999D01*
X157154035Y-96617152D01*
X157093748Y-96749748D01*
X157092476Y-96758629D01*
X157089955Y-96767251D01*
X157087526Y-96766541D01*
X157063638Y-96818936D01*
X157016743Y-96852588D01*
X157013013Y-96853700D01*
X156838063Y-96945941D01*
X156833277Y-96949817D01*
X156833275Y-96949818D01*
X156717668Y-97043435D01*
X156684362Y-97070406D01*
X156557763Y-97222355D01*
X156463087Y-97396000D01*
X156403944Y-97584727D01*
X156403278Y-97590855D01*
X156402018Y-97596887D01*
X156399686Y-97596400D01*
X156376496Y-97652218D01*
X156318135Y-97692647D01*
X156302515Y-97696738D01*
X156298713Y-97697477D01*
X156121081Y-97750432D01*
X156109725Y-97755066D01*
X156002947Y-97811365D01*
X155992831Y-97821190D01*
X147763076Y-97821190D01*
X147763514Y-97800255D01*
X147763597Y-97796295D01*
X147762026Y-97781347D01*
X147734303Y-97517664D01*
X147733888Y-97513716D01*
X147668995Y-97237089D01*
X147569941Y-96970777D01*
X147438288Y-96718981D01*
X147276112Y-96485673D01*
X147237713Y-96443032D01*
X147088626Y-96277478D01*
X147085973Y-96274532D01*
X146870868Y-96088888D01*
X146867575Y-96086701D01*
X146867569Y-96086696D01*
X146661181Y-95949598D01*
X146650685Y-95941813D01*
X146649108Y-95940511D01*
X146649104Y-95940509D01*
X146645354Y-95937412D01*
X146634571Y-95931011D01*
X146608725Y-95920650D01*
X146592609Y-95912816D01*
X146576069Y-95903266D01*
X146326092Y-95758938D01*
X146277099Y-95707555D01*
X146263664Y-95637841D01*
X146290051Y-95571931D01*
X146347884Y-95530749D01*
X146361176Y-95526952D01*
X146395862Y-95519071D01*
X146489305Y-95497842D01*
X146489308Y-95497841D01*
X146495316Y-95496476D01*
X146585655Y-95456255D01*
X146670364Y-95418540D01*
X146670367Y-95418538D01*
X146675994Y-95416033D01*
X146837606Y-95302028D01*
X146973998Y-95158804D01*
X146979090Y-95150781D01*
X146981727Y-95146624D01*
X147079972Y-94991814D01*
X147082199Y-94986072D01*
X147084979Y-94980569D01*
X147087103Y-94981642D01*
X147123959Y-94933722D01*
X147190797Y-94909779D01*
X147206940Y-94909871D01*
X147210800Y-94910141D01*
X147396088Y-94904966D01*
X147408245Y-94903430D01*
X147525966Y-94876684D01*
X147538278Y-94869813D01*
X147537676Y-94862359D01*
X146853326Y-93677030D01*
X146426364Y-92937509D01*
X146416158Y-92927778D01*
X146408845Y-92930706D01*
X146331387Y-93012045D01*
X146323837Y-93021710D01*
X146224520Y-93178208D01*
X146216208Y-93194661D01*
X146213892Y-93193491D01*
X146177513Y-93240811D01*
X146110680Y-93264766D01*
X146099183Y-93264701D01*
X146096135Y-93264185D01*
X145898435Y-93269706D01*
X145892422Y-93271072D01*
X145892423Y-93271072D01*
X145711583Y-93312158D01*
X145711580Y-93312159D01*
X145705572Y-93313524D01*
X145624360Y-93349682D01*
X145530524Y-93391460D01*
X145530521Y-93391462D01*
X145524894Y-93393967D01*
X145363282Y-93507972D01*
X145226890Y-93651196D01*
X145223585Y-93656403D01*
X145223584Y-93656405D01*
X145124218Y-93812981D01*
X145120915Y-93818186D01*
X145118687Y-93823929D01*
X145118686Y-93823932D01*
X145059120Y-93977506D01*
X145049395Y-94002578D01*
X145015050Y-94197350D01*
X145019193Y-94395083D01*
X145020516Y-94401100D01*
X145020516Y-94401101D01*
X145054489Y-94555620D01*
X145061662Y-94588247D01*
X145123671Y-94730179D01*
X145129300Y-94739928D01*
X145178253Y-94824718D01*
X145194991Y-94893713D01*
X145171771Y-94960805D01*
X145115963Y-95004692D01*
X145045288Y-95011441D01*
X145006133Y-94996836D01*
X141049055Y-92712149D01*
X141031836Y-92700194D01*
X141020115Y-92690517D01*
X141020111Y-92690514D01*
X141016355Y-92687413D01*
X141005571Y-92681012D01*
X141001053Y-92679201D01*
X141000764Y-92679058D01*
X140992220Y-92675232D01*
X140982053Y-92670186D01*
X146862312Y-92670186D01*
X146862914Y-92677639D01*
X147535605Y-93842773D01*
X147974228Y-94602491D01*
X147984434Y-94612222D01*
X147991747Y-94609294D01*
X148069205Y-94527955D01*
X148076755Y-94518290D01*
X148176072Y-94361792D01*
X148184384Y-94345339D01*
X148186700Y-94346509D01*
X148223079Y-94299189D01*
X148289912Y-94275234D01*
X148301404Y-94275299D01*
X148304457Y-94275815D01*
X148310622Y-94275643D01*
X148310625Y-94275643D01*
X148496003Y-94270465D01*
X148496004Y-94270465D01*
X148502157Y-94270293D01*
X148566297Y-94255721D01*
X148689009Y-94227842D01*
X148689012Y-94227841D01*
X148695020Y-94226476D01*
X148802902Y-94178444D01*
X148870068Y-94148540D01*
X148870071Y-94148538D01*
X148875698Y-94146033D01*
X149037310Y-94032028D01*
X149151564Y-93912051D01*
X149169455Y-93893264D01*
X149169456Y-93893263D01*
X149173702Y-93888804D01*
X149177004Y-93883601D01*
X149177007Y-93883597D01*
X149177086Y-93883473D01*
X149177144Y-93883423D01*
X149180798Y-93878745D01*
X149181688Y-93879440D01*
X149230478Y-93836678D01*
X149285807Y-93827905D01*
X149285756Y-93825645D01*
X149294723Y-93825441D01*
X149303642Y-93826513D01*
X149397833Y-93810835D01*
X149439532Y-93803895D01*
X149439534Y-93803894D01*
X149447323Y-93802598D01*
X149504552Y-93777357D01*
X150425000Y-93245936D01*
X150493995Y-93229198D01*
X150561087Y-93252418D01*
X150604974Y-93308226D01*
X150614000Y-93355055D01*
X150614000Y-93587172D01*
X150612500Y-93606556D01*
X150608814Y-93630230D01*
X150609634Y-93636500D01*
X150609536Y-93636500D01*
X150627376Y-93920062D01*
X150680615Y-94199152D01*
X150768414Y-94469369D01*
X150889388Y-94726450D01*
X151041628Y-94966343D01*
X151080252Y-95013031D01*
X151204537Y-95163265D01*
X151222735Y-95185263D01*
X151225625Y-95187977D01*
X151225626Y-95187978D01*
X151258487Y-95218836D01*
X151429851Y-95379758D01*
X151433054Y-95382085D01*
X151433055Y-95382086D01*
X151487787Y-95421851D01*
X151659711Y-95546762D01*
X151663180Y-95548669D01*
X151663183Y-95548671D01*
X151902489Y-95680230D01*
X151908690Y-95683639D01*
X152003960Y-95721359D01*
X152169177Y-95786773D01*
X152169180Y-95786774D01*
X152172860Y-95788231D01*
X152176694Y-95789215D01*
X152176702Y-95789218D01*
X152300443Y-95820989D01*
X152448057Y-95858890D01*
X152451985Y-95859386D01*
X152451989Y-95859387D01*
X152540862Y-95870614D01*
X152729939Y-95894500D01*
X153014061Y-95894500D01*
X153203138Y-95870614D01*
X153292011Y-95859387D01*
X153292015Y-95859386D01*
X153295943Y-95858890D01*
X153443557Y-95820989D01*
X153567298Y-95789218D01*
X153567306Y-95789215D01*
X153571140Y-95788231D01*
X153574820Y-95786774D01*
X153574823Y-95786773D01*
X153740040Y-95721359D01*
X153835310Y-95683639D01*
X153841511Y-95680230D01*
X154080817Y-95548671D01*
X154080820Y-95548669D01*
X154084289Y-95546762D01*
X154256213Y-95421851D01*
X154310945Y-95382086D01*
X154310946Y-95382085D01*
X154314149Y-95379758D01*
X154485513Y-95218836D01*
X154518374Y-95187978D01*
X154518375Y-95187977D01*
X154521265Y-95185263D01*
X154539464Y-95163265D01*
X154663748Y-95013031D01*
X154702372Y-94966343D01*
X154854612Y-94726450D01*
X154937644Y-94550000D01*
X156036496Y-94550000D01*
X156037186Y-94556565D01*
X156055754Y-94733227D01*
X156056458Y-94739928D01*
X156115473Y-94921556D01*
X156210960Y-95086944D01*
X156338747Y-95228866D01*
X156493248Y-95341118D01*
X156499276Y-95343802D01*
X156499278Y-95343803D01*
X156661681Y-95416109D01*
X156667712Y-95418794D01*
X156761112Y-95438647D01*
X156848056Y-95457128D01*
X156848061Y-95457128D01*
X156854513Y-95458500D01*
X157045487Y-95458500D01*
X157051939Y-95457128D01*
X157051944Y-95457128D01*
X157138888Y-95438647D01*
X157232288Y-95418794D01*
X157238319Y-95416109D01*
X157400722Y-95343803D01*
X157400724Y-95343802D01*
X157406752Y-95341118D01*
X157441586Y-95315810D01*
X157539671Y-95244546D01*
X157561253Y-95228866D01*
X157565668Y-95223963D01*
X157570580Y-95219540D01*
X157571705Y-95220789D01*
X157625014Y-95187949D01*
X157658200Y-95183500D01*
X158841800Y-95183500D01*
X158909921Y-95203502D01*
X158929147Y-95219843D01*
X158929420Y-95219540D01*
X158934332Y-95223963D01*
X158938747Y-95228866D01*
X158960329Y-95244546D01*
X159058415Y-95315810D01*
X159093248Y-95341118D01*
X159099276Y-95343802D01*
X159099278Y-95343803D01*
X159261681Y-95416109D01*
X159267712Y-95418794D01*
X159361112Y-95438647D01*
X159448056Y-95457128D01*
X159448061Y-95457128D01*
X159454513Y-95458500D01*
X159645487Y-95458500D01*
X159651939Y-95457128D01*
X159651944Y-95457128D01*
X159738888Y-95438647D01*
X159832288Y-95418794D01*
X159838319Y-95416109D01*
X160000722Y-95343803D01*
X160000724Y-95343802D01*
X160006752Y-95341118D01*
X160161253Y-95228866D01*
X160289040Y-95086944D01*
X160384527Y-94921556D01*
X160443542Y-94739928D01*
X160444247Y-94733227D01*
X160462814Y-94556565D01*
X160463504Y-94550000D01*
X160455806Y-94476756D01*
X160444232Y-94366635D01*
X160444232Y-94366633D01*
X160443542Y-94360072D01*
X160384527Y-94178444D01*
X160365815Y-94146033D01*
X160316887Y-94061289D01*
X160289040Y-94013056D01*
X160249169Y-93968774D01*
X160165675Y-93876045D01*
X160165674Y-93876044D01*
X160161253Y-93871134D01*
X160050697Y-93790810D01*
X160012094Y-93762763D01*
X160012093Y-93762762D01*
X160006752Y-93758882D01*
X160000724Y-93756198D01*
X160000722Y-93756197D01*
X159838319Y-93683891D01*
X159838318Y-93683891D01*
X159832288Y-93681206D01*
X159716075Y-93656504D01*
X159651944Y-93642872D01*
X159651939Y-93642872D01*
X159645487Y-93641500D01*
X159454513Y-93641500D01*
X159448061Y-93642872D01*
X159448056Y-93642872D01*
X159383925Y-93656504D01*
X159267712Y-93681206D01*
X159261682Y-93683891D01*
X159261681Y-93683891D01*
X159099278Y-93756197D01*
X159099276Y-93756198D01*
X159093248Y-93758882D01*
X159087907Y-93762762D01*
X159087906Y-93762763D01*
X159044256Y-93794477D01*
X158938747Y-93871134D01*
X158934332Y-93876037D01*
X158929420Y-93880460D01*
X158928295Y-93879211D01*
X158874986Y-93912051D01*
X158841800Y-93916500D01*
X157658200Y-93916500D01*
X157590079Y-93896498D01*
X157570853Y-93880157D01*
X157570580Y-93880460D01*
X157565668Y-93876037D01*
X157561253Y-93871134D01*
X157455744Y-93794477D01*
X157412094Y-93762763D01*
X157412093Y-93762762D01*
X157406752Y-93758882D01*
X157400724Y-93756198D01*
X157400722Y-93756197D01*
X157238319Y-93683891D01*
X157238318Y-93683891D01*
X157232288Y-93681206D01*
X157116075Y-93656504D01*
X157051944Y-93642872D01*
X157051939Y-93642872D01*
X157045487Y-93641500D01*
X156854513Y-93641500D01*
X156848061Y-93642872D01*
X156848056Y-93642872D01*
X156783925Y-93656504D01*
X156667712Y-93681206D01*
X156661682Y-93683891D01*
X156661681Y-93683891D01*
X156499278Y-93756197D01*
X156499276Y-93756198D01*
X156493248Y-93758882D01*
X156487907Y-93762762D01*
X156487906Y-93762763D01*
X156449303Y-93790810D01*
X156338747Y-93871134D01*
X156334326Y-93876044D01*
X156334325Y-93876045D01*
X156250832Y-93968774D01*
X156210960Y-94013056D01*
X156183113Y-94061289D01*
X156134186Y-94146033D01*
X156115473Y-94178444D01*
X156056458Y-94360072D01*
X156055768Y-94366633D01*
X156055768Y-94366635D01*
X156044194Y-94476756D01*
X156036496Y-94550000D01*
X154937644Y-94550000D01*
X154975586Y-94469369D01*
X155063385Y-94199152D01*
X155116624Y-93920062D01*
X155127234Y-93751410D01*
X155132430Y-93668829D01*
X155133927Y-93655840D01*
X155134262Y-93653848D01*
X155134262Y-93653846D01*
X155135071Y-93649039D01*
X155135224Y-93636500D01*
X155131273Y-93608912D01*
X155130000Y-93591049D01*
X155130000Y-90347859D01*
X155469076Y-90347859D01*
X155470103Y-90353929D01*
X155493297Y-90491060D01*
X155502059Y-90542867D01*
X155572290Y-90727754D01*
X155597313Y-90767799D01*
X155652792Y-90856585D01*
X155677095Y-90895479D01*
X155812482Y-91039652D01*
X155973294Y-91154784D01*
X156114346Y-91218768D01*
X156117691Y-91219855D01*
X156117699Y-91219858D01*
X156292442Y-91276636D01*
X156500989Y-91344398D01*
X156503988Y-91345057D01*
X156503994Y-91345059D01*
X156639293Y-91374806D01*
X156639294Y-91374806D01*
X156645311Y-91376129D01*
X156731274Y-91377930D01*
X156836880Y-91380143D01*
X156836882Y-91380143D01*
X156843045Y-91380272D01*
X156849112Y-91379202D01*
X156849116Y-91379202D01*
X156978187Y-91356444D01*
X157037818Y-91345930D01*
X157140872Y-91305958D01*
X157216469Y-91276636D01*
X157216471Y-91276635D01*
X157222210Y-91274409D01*
X157227406Y-91271111D01*
X157227409Y-91271110D01*
X157383995Y-91171739D01*
X157383998Y-91171736D01*
X157389199Y-91168436D01*
X157513343Y-91050217D01*
X157527959Y-91036299D01*
X157527960Y-91036298D01*
X157532425Y-91032046D01*
X157646431Y-90870433D01*
X157726874Y-90689755D01*
X157770692Y-90496893D01*
X157770963Y-90487213D01*
X157776044Y-90305348D01*
X157776216Y-90299193D01*
X157750806Y-90148958D01*
X157744260Y-90110255D01*
X157744259Y-90110252D01*
X157743233Y-90104185D01*
X157741046Y-90098427D01*
X157739430Y-90092481D01*
X157741720Y-90091859D01*
X157737055Y-90031549D01*
X157770719Y-89969041D01*
X157782758Y-89958328D01*
X157785802Y-89955950D01*
X157920032Y-89828125D01*
X157928049Y-89818836D01*
X157997630Y-89720199D01*
X158002184Y-89706851D01*
X157996749Y-89701714D01*
X157155219Y-89428284D01*
X155882912Y-89014886D01*
X155868814Y-89014483D01*
X155865338Y-89021552D01*
X155862201Y-89133827D01*
X155863056Y-89146053D01*
X155893968Y-89328820D01*
X155898798Y-89346596D01*
X155896308Y-89347273D01*
X155900911Y-89406857D01*
X155867242Y-89469362D01*
X155858709Y-89476956D01*
X155856092Y-89478616D01*
X155712867Y-89615006D01*
X155709319Y-89620036D01*
X155709317Y-89620038D01*
X155700844Y-89632050D01*
X155598861Y-89776619D01*
X155596356Y-89782246D01*
X155596354Y-89782249D01*
X155561056Y-89861530D01*
X155518418Y-89957297D01*
X155517055Y-89963296D01*
X155517054Y-89963299D01*
X155515714Y-89969199D01*
X155474600Y-90150159D01*
X155474428Y-90156311D01*
X155474428Y-90156312D01*
X155471323Y-90267424D01*
X155469076Y-90347859D01*
X155130000Y-90347859D01*
X155130000Y-87189707D01*
X155131746Y-87168803D01*
X155132279Y-87165637D01*
X155135071Y-87149039D01*
X155135224Y-87136500D01*
X155134534Y-87131677D01*
X155134513Y-87131362D01*
X155133555Y-87122043D01*
X155126055Y-87002836D01*
X155116624Y-86852938D01*
X155063385Y-86573848D01*
X154975586Y-86303631D01*
X154854612Y-86046550D01*
X154702372Y-85806657D01*
X154521265Y-85587737D01*
X154314149Y-85393242D01*
X154084289Y-85226238D01*
X154058409Y-85212010D01*
X153838772Y-85091264D01*
X153838769Y-85091263D01*
X153835310Y-85089361D01*
X153606364Y-84998715D01*
X153574823Y-84986227D01*
X153574820Y-84986226D01*
X153571140Y-84984769D01*
X153567306Y-84983785D01*
X153567298Y-84983782D01*
X153347906Y-84927452D01*
X153295943Y-84914110D01*
X153292015Y-84913614D01*
X153292011Y-84913613D01*
X153180778Y-84899561D01*
X153014061Y-84878500D01*
X152729939Y-84878500D01*
X152563222Y-84899561D01*
X152451989Y-84913613D01*
X152451985Y-84913614D01*
X152448057Y-84914110D01*
X152396094Y-84927452D01*
X152176702Y-84983782D01*
X152176694Y-84983785D01*
X152172860Y-84984769D01*
X152169180Y-84986226D01*
X152169177Y-84986227D01*
X152137636Y-84998715D01*
X151908690Y-85089361D01*
X151905231Y-85091263D01*
X151905228Y-85091264D01*
X151685592Y-85212010D01*
X151659711Y-85226238D01*
X151429851Y-85393242D01*
X151222735Y-85587737D01*
X151041628Y-85806657D01*
X150889388Y-86046550D01*
X150768414Y-86303631D01*
X150680615Y-86573848D01*
X150627376Y-86852938D01*
X150613716Y-87070050D01*
X150611050Y-87112429D01*
X150610243Y-87119834D01*
X150610380Y-87120167D01*
X150608814Y-87130230D01*
X150609568Y-87135994D01*
X150609536Y-87136500D01*
X150609634Y-87136500D01*
X150610740Y-87144958D01*
X150610740Y-87144959D01*
X150612936Y-87161750D01*
X150614000Y-87178088D01*
X150614000Y-92115471D01*
X150593998Y-92183592D01*
X150540342Y-92230085D01*
X150470068Y-92240189D01*
X150405488Y-92210695D01*
X150378881Y-92178471D01*
X149926025Y-91394100D01*
X149926019Y-91394091D01*
X149924320Y-91391148D01*
X149922314Y-91388407D01*
X149922310Y-91388401D01*
X149892045Y-91347050D01*
X149892044Y-91347049D01*
X149887379Y-91340675D01*
X149841515Y-91302935D01*
X149781834Y-91253825D01*
X149781832Y-91253824D01*
X149774904Y-91248123D01*
X149640975Y-91190860D01*
X149632066Y-91189790D01*
X149632063Y-91189789D01*
X149540613Y-91178803D01*
X149496358Y-91173487D01*
X149487503Y-91174961D01*
X149487500Y-91174961D01*
X149360468Y-91196105D01*
X149360466Y-91196106D01*
X149352677Y-91197402D01*
X149295448Y-91222643D01*
X148346052Y-91770777D01*
X148343291Y-91772798D01*
X148302358Y-91802756D01*
X148295578Y-91807718D01*
X148203027Y-91920192D01*
X148199497Y-91928447D01*
X148194836Y-91936114D01*
X148192675Y-91934800D01*
X148156032Y-91979233D01*
X148102028Y-91999597D01*
X148098139Y-91999706D01*
X148092134Y-92001070D01*
X148092129Y-92001071D01*
X147911287Y-92042158D01*
X147911284Y-92042159D01*
X147905276Y-92043524D01*
X147828147Y-92077864D01*
X147730228Y-92121460D01*
X147730225Y-92121462D01*
X147724598Y-92123967D01*
X147562986Y-92237972D01*
X147426594Y-92381196D01*
X147423289Y-92386403D01*
X147423288Y-92386405D01*
X147323922Y-92542981D01*
X147320619Y-92548186D01*
X147318390Y-92553932D01*
X147315611Y-92559434D01*
X147313484Y-92558359D01*
X147276644Y-92606269D01*
X147209809Y-92630220D01*
X147193652Y-92630128D01*
X147189792Y-92629858D01*
X147004505Y-92635034D01*
X146992345Y-92636570D01*
X146874626Y-92663315D01*
X146862312Y-92670186D01*
X140982053Y-92670186D01*
X140853264Y-92606269D01*
X140750710Y-92555372D01*
X140589208Y-92499145D01*
X140486144Y-92463263D01*
X140486138Y-92463261D01*
X140482406Y-92461962D01*
X140204511Y-92402915D01*
X140200572Y-92402585D01*
X140200569Y-92402584D01*
X139925357Y-92379490D01*
X139925350Y-92379490D01*
X139921407Y-92379159D01*
X139917449Y-92379325D01*
X139917443Y-92379325D01*
X139779483Y-92385115D01*
X139637558Y-92391072D01*
X139633651Y-92391733D01*
X139361346Y-92437802D01*
X139361343Y-92437803D01*
X139357440Y-92438463D01*
X139353652Y-92439607D01*
X139353647Y-92439608D01*
X139089264Y-92519441D01*
X139089259Y-92519443D01*
X139085470Y-92520587D01*
X139081846Y-92522201D01*
X139081845Y-92522201D01*
X138829549Y-92634539D01*
X138829546Y-92634541D01*
X138825936Y-92636148D01*
X138822562Y-92638191D01*
X138822559Y-92638193D01*
X138597076Y-92774757D01*
X138582931Y-92783324D01*
X138579827Y-92785785D01*
X138579826Y-92785785D01*
X138467008Y-92875206D01*
X138360287Y-92959794D01*
X138357519Y-92962620D01*
X138357513Y-92962626D01*
X138255027Y-93067283D01*
X138161514Y-93162776D01*
X137989747Y-93389068D01*
X137847694Y-93635103D01*
X137838739Y-93656405D01*
X137741042Y-93888804D01*
X137737596Y-93897001D01*
X137736534Y-93900804D01*
X137736532Y-93900810D01*
X137669049Y-94142479D01*
X137661188Y-94170632D01*
X137619676Y-94451682D01*
X137618662Y-94500000D01*
X137613908Y-94726450D01*
X137613713Y-94735718D01*
X136178664Y-94735718D01*
X136193542Y-94689928D01*
X136196854Y-94658422D01*
X136212814Y-94506565D01*
X136213504Y-94500000D01*
X136205275Y-94421701D01*
X136194232Y-94316635D01*
X136194232Y-94316633D01*
X136193542Y-94310072D01*
X136134527Y-94128444D01*
X136039040Y-93963056D01*
X135964398Y-93880157D01*
X135915675Y-93826045D01*
X135915674Y-93826044D01*
X135911253Y-93821134D01*
X135756752Y-93708882D01*
X135750724Y-93706198D01*
X135750722Y-93706197D01*
X135588319Y-93633891D01*
X135588318Y-93633891D01*
X135582288Y-93631206D01*
X135471203Y-93607594D01*
X135401944Y-93592872D01*
X135401939Y-93592872D01*
X135395487Y-93591500D01*
X135204513Y-93591500D01*
X135198061Y-93592872D01*
X135198056Y-93592872D01*
X135128797Y-93607594D01*
X135017712Y-93631206D01*
X135011682Y-93633891D01*
X135011681Y-93633891D01*
X134849278Y-93706197D01*
X134849276Y-93706198D01*
X134843248Y-93708882D01*
X134688747Y-93821134D01*
X134684326Y-93826044D01*
X134684325Y-93826045D01*
X134635603Y-93880157D01*
X134560960Y-93963056D01*
X134465473Y-94128444D01*
X134406458Y-94310072D01*
X134389716Y-94469369D01*
X134389093Y-94475293D01*
X134362080Y-94540950D01*
X134352878Y-94551218D01*
X133829328Y-95074767D01*
X133307747Y-95596348D01*
X133299461Y-95603888D01*
X133292982Y-95608000D01*
X133287557Y-95613777D01*
X133246357Y-95657651D01*
X133243602Y-95660493D01*
X133223865Y-95680230D01*
X133221385Y-95683427D01*
X133213682Y-95692447D01*
X133183414Y-95724679D01*
X133179595Y-95731625D01*
X133179593Y-95731628D01*
X133173652Y-95742434D01*
X133162801Y-95758953D01*
X133150386Y-95774959D01*
X133147241Y-95782228D01*
X133147238Y-95782232D01*
X133132826Y-95815537D01*
X133127609Y-95826187D01*
X133106305Y-95864940D01*
X133104334Y-95872615D01*
X133104334Y-95872616D01*
X133101267Y-95884562D01*
X133094863Y-95903266D01*
X133086819Y-95921855D01*
X133085580Y-95929678D01*
X133085577Y-95929688D01*
X133079901Y-95965524D01*
X133077495Y-95977144D01*
X133073113Y-95994214D01*
X133066500Y-96019970D01*
X133066500Y-96040224D01*
X133064949Y-96059934D01*
X133061780Y-96079943D01*
X133062526Y-96087835D01*
X133065941Y-96123961D01*
X133066500Y-96135819D01*
X133066500Y-96347476D01*
X133046498Y-96415597D01*
X133034142Y-96431779D01*
X132960960Y-96513056D01*
X132865473Y-96678444D01*
X132806458Y-96860072D01*
X132805768Y-96866633D01*
X132805768Y-96866635D01*
X132794433Y-96974479D01*
X132786496Y-97050000D01*
X129299046Y-97050000D01*
X129875563Y-96051443D01*
X129900804Y-95994214D01*
X129903646Y-95977144D01*
X129923244Y-95859391D01*
X129923244Y-95859387D01*
X129924718Y-95850533D01*
X129907865Y-95710247D01*
X129919600Y-95640228D01*
X129967327Y-95587667D01*
X130035894Y-95569253D01*
X130106314Y-95592769D01*
X130143215Y-95619188D01*
X130148835Y-95621737D01*
X130148836Y-95621738D01*
X130148965Y-95621797D01*
X130149021Y-95621845D01*
X130154166Y-95624816D01*
X130153601Y-95625794D01*
X130202736Y-95668157D01*
X130219123Y-95721724D01*
X130221354Y-95721359D01*
X130222806Y-95730225D01*
X130222986Y-95739195D01*
X130225677Y-95747754D01*
X130225677Y-95747757D01*
X130262513Y-95864940D01*
X130266665Y-95878149D01*
X130299625Y-95931308D01*
X130301729Y-95934001D01*
X130972448Y-96792483D01*
X130972454Y-96792490D01*
X130974555Y-96795179D01*
X130976930Y-96797622D01*
X130976935Y-96797627D01*
X131005641Y-96827146D01*
X131018161Y-96840021D01*
X131142421Y-96916018D01*
X131283016Y-96954085D01*
X131291989Y-96953905D01*
X131291990Y-96953905D01*
X131376447Y-96952210D01*
X131428644Y-96951162D01*
X131437204Y-96948471D01*
X131437206Y-96948471D01*
X131560061Y-96909853D01*
X131560065Y-96909851D01*
X131567599Y-96907483D01*
X131574311Y-96903322D01*
X131574314Y-96903320D01*
X131617851Y-96876325D01*
X131617853Y-96876323D01*
X131620757Y-96874523D01*
X131630853Y-96866635D01*
X132718337Y-96017001D01*
X132718342Y-96016997D01*
X132721032Y-96014895D01*
X132723473Y-96012521D01*
X132723479Y-96012516D01*
X132760211Y-95976795D01*
X132765873Y-95971289D01*
X132841870Y-95847028D01*
X132863078Y-95768699D01*
X132877591Y-95715098D01*
X132877591Y-95715097D01*
X132879937Y-95706433D01*
X132879683Y-95693748D01*
X132877194Y-95569776D01*
X132877014Y-95560805D01*
X132871867Y-95544431D01*
X132835704Y-95429386D01*
X132835703Y-95429383D01*
X132833335Y-95421851D01*
X132800375Y-95368692D01*
X132739679Y-95291005D01*
X132127552Y-94507517D01*
X132127546Y-94507510D01*
X132125445Y-94504821D01*
X132123070Y-94502378D01*
X132123065Y-94502373D01*
X132087346Y-94465642D01*
X132081839Y-94459979D01*
X131975730Y-94395083D01*
X131965235Y-94388664D01*
X131965233Y-94388663D01*
X131957579Y-94383982D01*
X131948918Y-94381637D01*
X131940670Y-94378085D01*
X131941670Y-94375764D01*
X131892566Y-94345654D01*
X131864890Y-94295020D01*
X131864241Y-94291184D01*
X131862056Y-94285431D01*
X131862054Y-94285425D01*
X131810056Y-94148540D01*
X131794009Y-94106296D01*
X131689204Y-93938572D01*
X131675485Y-93923962D01*
X131581551Y-93823932D01*
X131553817Y-93794398D01*
X131548809Y-93790812D01*
X131548806Y-93790810D01*
X131398020Y-93682857D01*
X131398019Y-93682856D01*
X131393004Y-93679266D01*
X131212892Y-93597564D01*
X131206888Y-93596156D01*
X131201058Y-93594171D01*
X131201824Y-93591921D01*
X131149229Y-93562076D01*
X131116226Y-93499217D01*
X131114075Y-93483240D01*
X131113805Y-93479381D01*
X131082894Y-93296621D01*
X131079676Y-93284776D01*
X131036811Y-93171932D01*
X131028292Y-93160695D01*
X131020996Y-93162328D01*
X130342753Y-93692230D01*
X129269544Y-94530712D01*
X129261326Y-94542176D01*
X129265243Y-94549009D01*
X129356571Y-94614393D01*
X129367182Y-94620520D01*
X129535987Y-94697094D01*
X129553433Y-94703033D01*
X129552597Y-94705488D01*
X129604526Y-94734934D01*
X129637547Y-94797785D01*
X129639082Y-94809175D01*
X129638996Y-94812263D01*
X129647469Y-94862359D01*
X129666347Y-94973975D01*
X129671978Y-95007270D01*
X129734857Y-95172798D01*
X129738546Y-95182510D01*
X129744038Y-95253294D01*
X129710389Y-95315810D01*
X129648283Y-95350211D01*
X129577438Y-95345573D01*
X129557758Y-95336373D01*
X128873630Y-94941392D01*
X128151443Y-94524437D01*
X128094214Y-94499196D01*
X128086427Y-94497900D01*
X128086424Y-94497899D01*
X127959391Y-94476756D01*
X127959389Y-94476756D01*
X127950533Y-94475282D01*
X127906278Y-94480598D01*
X127814828Y-94491584D01*
X127814825Y-94491585D01*
X127805916Y-94492655D01*
X127751489Y-94515926D01*
X127680240Y-94546389D01*
X127680238Y-94546390D01*
X127671987Y-94549918D01*
X127573956Y-94630584D01*
X127508645Y-94658422D01*
X127438651Y-94646531D01*
X127386197Y-94598686D01*
X127371692Y-94563983D01*
X127366531Y-94543435D01*
X127340726Y-94440702D01*
X127251649Y-94235840D01*
X127186140Y-94134578D01*
X127133117Y-94052617D01*
X127133115Y-94052614D01*
X127130309Y-94048277D01*
X126979965Y-93883051D01*
X126975914Y-93879852D01*
X126975910Y-93879848D01*
X126808709Y-93747800D01*
X126808705Y-93747798D01*
X126804654Y-93744598D01*
X126609084Y-93636638D01*
X126604215Y-93634914D01*
X126604211Y-93634912D01*
X126403382Y-93563795D01*
X126403378Y-93563794D01*
X126398507Y-93562069D01*
X126393414Y-93561162D01*
X126393411Y-93561161D01*
X126183668Y-93523800D01*
X126183662Y-93523799D01*
X126178579Y-93522894D01*
X126104747Y-93521992D01*
X125960376Y-93520228D01*
X125960374Y-93520228D01*
X125955206Y-93520165D01*
X125734386Y-93553955D01*
X125522051Y-93623357D01*
X125517463Y-93625745D01*
X125517459Y-93625747D01*
X125395189Y-93689397D01*
X125325529Y-93703110D01*
X125259514Y-93676985D01*
X125218103Y-93619316D01*
X125211433Y-93587958D01*
X125195372Y-93392604D01*
X125193687Y-93382424D01*
X125141805Y-93175875D01*
X125138485Y-93166124D01*
X125053563Y-92970814D01*
X125048696Y-92961739D01*
X124933017Y-92782926D01*
X124926727Y-92774757D01*
X124783397Y-92617240D01*
X124775865Y-92610216D01*
X124752474Y-92591743D01*
X124739434Y-92586492D01*
X124729166Y-92596262D01*
X124197561Y-93517030D01*
X124006561Y-93847851D01*
X123955179Y-93896844D01*
X123885465Y-93910280D01*
X123834442Y-93893970D01*
X122581349Y-93170496D01*
X122567644Y-93167171D01*
X122562123Y-93174193D01*
X122513455Y-93349682D01*
X122511524Y-93359800D01*
X122488893Y-93571574D01*
X122488641Y-93581863D01*
X122500900Y-93794477D01*
X122502336Y-93804697D01*
X122549156Y-94012446D01*
X122552236Y-94022275D01*
X122630239Y-94214376D01*
X122637335Y-94285017D01*
X122605113Y-94348281D01*
X122543803Y-94384081D01*
X122472871Y-94381051D01*
X122450496Y-94370899D01*
X122434723Y-94361792D01*
X119593664Y-92721497D01*
X122826687Y-92721497D01*
X122832508Y-92728916D01*
X123741931Y-93253972D01*
X123757366Y-93257717D01*
X123759106Y-93257114D01*
X123764393Y-93251298D01*
X124288625Y-92343304D01*
X124291742Y-92330457D01*
X124279378Y-92321133D01*
X124203550Y-92294280D01*
X124193580Y-92291646D01*
X123983918Y-92254301D01*
X123973664Y-92253331D01*
X123760707Y-92250728D01*
X123750423Y-92251448D01*
X123539912Y-92283661D01*
X123529884Y-92286050D01*
X123327459Y-92352212D01*
X123317950Y-92356209D01*
X123129054Y-92454542D01*
X123120329Y-92460036D01*
X122950024Y-92587905D01*
X122942317Y-92594748D01*
X122833162Y-92708972D01*
X122826687Y-92721497D01*
X119593664Y-92721497D01*
X114826570Y-89969199D01*
X112970135Y-88897380D01*
X120599314Y-88897380D01*
X120599564Y-88905254D01*
X120649504Y-89005858D01*
X120656002Y-89016257D01*
X120769097Y-89163115D01*
X120781712Y-89176549D01*
X120779827Y-89178319D01*
X120811857Y-89228736D01*
X120811486Y-89299732D01*
X120807509Y-89310466D01*
X120805978Y-89313161D01*
X120743549Y-89500827D01*
X120718761Y-89697045D01*
X120732557Y-89894339D01*
X120739338Y-89919298D01*
X120782147Y-90076861D01*
X120784412Y-90085198D01*
X120787153Y-90090719D01*
X120787153Y-90090720D01*
X120788027Y-90092481D01*
X120872350Y-90262350D01*
X120876110Y-90267232D01*
X120876201Y-90267351D01*
X120876229Y-90267424D01*
X120879375Y-90272458D01*
X120878418Y-90273056D01*
X120901913Y-90333528D01*
X120891234Y-90388526D01*
X120893374Y-90389251D01*
X120890498Y-90397746D01*
X120886442Y-90405759D01*
X120859772Y-90548954D01*
X120863918Y-90611365D01*
X121054283Y-91690978D01*
X121055236Y-91694257D01*
X121069528Y-91743454D01*
X121069530Y-91743458D01*
X121071733Y-91751042D01*
X121075748Y-91757844D01*
X121075749Y-91757847D01*
X121104586Y-91806704D01*
X121145770Y-91876481D01*
X121152314Y-91882615D01*
X121152316Y-91882618D01*
X121212405Y-91938946D01*
X121252036Y-91976097D01*
X121260045Y-91980152D01*
X121260046Y-91980152D01*
X121373978Y-92037828D01*
X121373980Y-92037829D01*
X121381991Y-92041884D01*
X121525186Y-92068554D01*
X121533061Y-92068031D01*
X121533064Y-92068031D01*
X121565366Y-92065885D01*
X121587596Y-92064408D01*
X122962652Y-91821949D01*
X122990633Y-91813820D01*
X123015128Y-91806704D01*
X123015132Y-91806702D01*
X123022716Y-91804499D01*
X123029518Y-91800484D01*
X123029521Y-91800483D01*
X123140424Y-91735025D01*
X123148155Y-91730462D01*
X123225702Y-91647738D01*
X123241635Y-91630741D01*
X123241636Y-91630740D01*
X123247771Y-91624195D01*
X123251822Y-91616193D01*
X123251824Y-91616190D01*
X123288394Y-91543950D01*
X123313558Y-91494241D01*
X123315201Y-91485421D01*
X123315202Y-91485417D01*
X123333271Y-91388401D01*
X123340228Y-91351046D01*
X123338847Y-91330248D01*
X123336307Y-91292025D01*
X123336082Y-91288635D01*
X123145717Y-90209022D01*
X123138012Y-90182501D01*
X123130472Y-90156546D01*
X123130470Y-90156542D01*
X123128267Y-90148958D01*
X123090635Y-90085198D01*
X123058793Y-90031250D01*
X123054230Y-90023519D01*
X123047680Y-90017379D01*
X123042068Y-90010374D01*
X123044042Y-90008793D01*
X123014822Y-89959161D01*
X123014156Y-89901455D01*
X123015385Y-89897761D01*
X123040173Y-89701543D01*
X123026377Y-89504248D01*
X123001230Y-89411691D01*
X122976139Y-89319340D01*
X122976138Y-89319336D01*
X122974522Y-89313390D01*
X122886584Y-89136238D01*
X122765911Y-88979541D01*
X122761271Y-88975479D01*
X122757053Y-88970987D01*
X122758786Y-88969359D01*
X122726361Y-88918321D01*
X122726732Y-88847325D01*
X122732332Y-88832211D01*
X122733907Y-88828673D01*
X122792414Y-88652796D01*
X122795134Y-88640825D01*
X122810262Y-88521070D01*
X122808017Y-88507147D01*
X122800807Y-88505164D01*
X121953181Y-88654623D01*
X120611946Y-88891119D01*
X120599314Y-88897380D01*
X112970135Y-88897380D01*
X105663000Y-84678580D01*
X105614007Y-84627197D01*
X105600000Y-84569461D01*
X105600000Y-84162925D01*
X111036645Y-84162925D01*
X111037204Y-84169065D01*
X111052215Y-84334008D01*
X111054570Y-84359888D01*
X111056308Y-84365794D01*
X111056309Y-84365798D01*
X111098987Y-84510808D01*
X111110410Y-84549619D01*
X111113329Y-84555203D01*
X111113343Y-84555273D01*
X111115573Y-84560791D01*
X111114524Y-84561215D01*
X111127165Y-84624836D01*
X111107096Y-84677154D01*
X111109079Y-84678240D01*
X111104771Y-84686108D01*
X111099385Y-84693295D01*
X111048255Y-84829684D01*
X111041500Y-84891866D01*
X111041500Y-85988134D01*
X111048255Y-86050316D01*
X111099385Y-86186705D01*
X111186739Y-86303261D01*
X111303295Y-86390615D01*
X111439684Y-86441745D01*
X111501866Y-86448500D01*
X112898134Y-86448500D01*
X112960316Y-86441745D01*
X113096705Y-86390615D01*
X113213261Y-86303261D01*
X113300615Y-86186705D01*
X113304375Y-86176675D01*
X113330278Y-86107580D01*
X113372919Y-86050815D01*
X113439481Y-86026115D01*
X113508830Y-86041322D01*
X113556713Y-86087670D01*
X113633306Y-86217181D01*
X113883430Y-86563988D01*
X114163957Y-86886697D01*
X114472577Y-87182653D01*
X114474795Y-87184423D01*
X114474800Y-87184428D01*
X114740269Y-87396349D01*
X114806751Y-87449421D01*
X114809114Y-87450979D01*
X114809118Y-87450982D01*
X115035884Y-87600506D01*
X115163727Y-87684803D01*
X115540567Y-87886863D01*
X115738061Y-87970694D01*
X115919967Y-88047908D01*
X115934170Y-88053937D01*
X115936879Y-88054807D01*
X115936885Y-88054809D01*
X116338575Y-88183778D01*
X116338581Y-88183780D01*
X116341295Y-88184651D01*
X116344068Y-88185271D01*
X116344076Y-88185273D01*
X116741340Y-88274071D01*
X116758591Y-88277927D01*
X117182624Y-88333000D01*
X117609903Y-88349414D01*
X117612765Y-88349264D01*
X117612766Y-88349264D01*
X118034055Y-88327186D01*
X118034062Y-88327185D01*
X118036911Y-88327036D01*
X118039734Y-88326629D01*
X118039736Y-88326629D01*
X118457312Y-88266455D01*
X118457319Y-88266454D01*
X118460134Y-88266048D01*
X118876087Y-88166954D01*
X118878785Y-88166046D01*
X118878792Y-88166044D01*
X119278635Y-88031482D01*
X119278641Y-88031480D01*
X119281347Y-88030569D01*
X119672578Y-87858016D01*
X119765000Y-87806786D01*
X119954829Y-87701562D01*
X120046561Y-87650714D01*
X120173862Y-87564200D01*
X120241445Y-87542455D01*
X120310057Y-87560699D01*
X120357543Y-87612389D01*
X120372507Y-87642534D01*
X120431283Y-87760938D01*
X120551956Y-87917635D01*
X120556596Y-87921697D01*
X120560814Y-87926189D01*
X120559081Y-87927817D01*
X120591506Y-87978855D01*
X120591135Y-88049851D01*
X120585530Y-88064976D01*
X120583957Y-88068508D01*
X120525453Y-88244380D01*
X120522733Y-88256351D01*
X120507605Y-88376106D01*
X120509850Y-88390029D01*
X120517060Y-88392012D01*
X121364685Y-88242553D01*
X122705920Y-88006057D01*
X122718552Y-87999796D01*
X122718302Y-87991922D01*
X122715207Y-87985688D01*
X125921981Y-87985688D01*
X125951727Y-88268315D01*
X125974516Y-88365401D01*
X126007789Y-88507147D01*
X126016670Y-88544983D01*
X126018055Y-88548705D01*
X126018056Y-88548708D01*
X126112718Y-88803084D01*
X126115785Y-88811327D01*
X126247507Y-89063145D01*
X126409760Y-89296462D01*
X126412414Y-89299408D01*
X126412415Y-89299409D01*
X126586171Y-89492268D01*
X126599982Y-89507598D01*
X126616873Y-89522168D01*
X126812164Y-89690627D01*
X126812171Y-89690632D01*
X126815172Y-89693221D01*
X126818481Y-89695418D01*
X126818484Y-89695420D01*
X127024944Y-89832484D01*
X127035436Y-89840262D01*
X127040771Y-89844664D01*
X127051556Y-89851062D01*
X127056070Y-89852870D01*
X127056084Y-89852877D01*
X127077317Y-89861381D01*
X127093464Y-89869227D01*
X127932969Y-90353929D01*
X129643070Y-91341286D01*
X129692063Y-91392669D01*
X129705498Y-91462383D01*
X129679111Y-91528293D01*
X129621278Y-91569475D01*
X129551298Y-91573075D01*
X129456560Y-91550854D01*
X129357732Y-91547402D01*
X129265060Y-91544165D01*
X129265059Y-91544165D01*
X129258903Y-91543950D01*
X129063671Y-91575571D01*
X128878298Y-91644510D01*
X128746377Y-91725668D01*
X128426017Y-91975959D01*
X128423789Y-91978080D01*
X128423784Y-91978085D01*
X128401080Y-91999706D01*
X128319007Y-92077864D01*
X128315459Y-92082894D01*
X128315457Y-92082896D01*
X128208566Y-92234422D01*
X128205001Y-92239476D01*
X128202492Y-92245110D01*
X128202492Y-92245111D01*
X128132380Y-92402584D01*
X128124557Y-92420154D01*
X128080739Y-92613016D01*
X128075216Y-92810716D01*
X128076243Y-92816787D01*
X128102294Y-92970814D01*
X128108198Y-93005723D01*
X128178431Y-93190611D01*
X128283236Y-93358335D01*
X128287454Y-93362827D01*
X128287455Y-93362828D01*
X128313569Y-93390637D01*
X128418623Y-93502509D01*
X128423631Y-93506095D01*
X128423634Y-93506097D01*
X128574419Y-93614050D01*
X128579435Y-93617641D01*
X128759548Y-93699344D01*
X128765552Y-93700752D01*
X128771382Y-93702737D01*
X128770616Y-93704987D01*
X128823211Y-93734832D01*
X128856214Y-93797691D01*
X128858365Y-93813668D01*
X128858635Y-93817525D01*
X128889547Y-94000294D01*
X128892762Y-94012123D01*
X128935629Y-94124974D01*
X128944148Y-94136211D01*
X128951444Y-94134578D01*
X129629687Y-93604676D01*
X130702896Y-92766194D01*
X130711114Y-92754731D01*
X130707197Y-92747898D01*
X130615879Y-92682520D01*
X130605248Y-92676382D01*
X130436453Y-92599812D01*
X130419007Y-92593873D01*
X130419844Y-92591414D01*
X130367929Y-92561988D01*
X130334896Y-92499145D01*
X130333357Y-92487730D01*
X130333443Y-92484644D01*
X130300461Y-92289637D01*
X130285955Y-92251448D01*
X130232417Y-92110510D01*
X130230229Y-92104749D01*
X130125424Y-91937025D01*
X130058826Y-91866104D01*
X130026776Y-91802756D01*
X130034063Y-91732135D01*
X130078374Y-91676664D01*
X130145641Y-91653955D01*
X130213678Y-91670736D01*
X131182471Y-92230085D01*
X132553566Y-93021710D01*
X132637024Y-93069896D01*
X132654218Y-93081830D01*
X132666010Y-93091561D01*
X132666014Y-93091564D01*
X132669771Y-93094664D01*
X132673962Y-93097150D01*
X132673966Y-93097153D01*
X132676367Y-93098577D01*
X132680556Y-93101062D01*
X132685078Y-93102873D01*
X132685369Y-93103017D01*
X132693916Y-93106841D01*
X132851214Y-93184853D01*
X132935406Y-93226608D01*
X133203685Y-93319933D01*
X133481542Y-93378906D01*
X133677634Y-93395320D01*
X133760656Y-93402269D01*
X133760658Y-93402269D01*
X133764600Y-93402599D01*
X133969392Y-93393967D01*
X134044436Y-93390804D01*
X134044438Y-93390804D01*
X134048395Y-93390637D01*
X134052293Y-93389977D01*
X134052301Y-93389976D01*
X134290231Y-93349682D01*
X134328454Y-93343209D01*
X134332242Y-93342065D01*
X134332249Y-93342063D01*
X134588411Y-93264674D01*
X134600364Y-93261063D01*
X134603972Y-93259456D01*
X134603980Y-93259453D01*
X134856221Y-93147104D01*
X134856226Y-93147101D01*
X134859837Y-93145493D01*
X135080130Y-93012045D01*
X135099405Y-93000369D01*
X135099406Y-93000368D01*
X135102784Y-92998322D01*
X135325376Y-92821868D01*
X135328135Y-92819050D01*
X135328142Y-92819044D01*
X135521326Y-92621751D01*
X135524103Y-92618915D01*
X135695834Y-92392659D01*
X135697808Y-92389240D01*
X135697812Y-92389234D01*
X135835885Y-92150090D01*
X135835886Y-92150088D01*
X135837860Y-92146669D01*
X135947944Y-91884821D01*
X136024351Y-91611244D01*
X136056876Y-91391148D01*
X136065295Y-91334174D01*
X136065295Y-91334171D01*
X136065875Y-91330248D01*
X136066753Y-91288635D01*
X136071780Y-91050217D01*
X136071780Y-91050211D01*
X136071863Y-91046264D01*
X136042220Y-90763768D01*
X135977413Y-90487213D01*
X135976039Y-90483517D01*
X135976037Y-90483509D01*
X135905282Y-90293123D01*
X135878463Y-90220958D01*
X135746932Y-89969199D01*
X135584891Y-89735907D01*
X135549923Y-89697045D01*
X135397543Y-89527700D01*
X135394895Y-89524757D01*
X135375031Y-89507598D01*
X135182942Y-89341672D01*
X135179939Y-89339078D01*
X135133004Y-89307868D01*
X134970386Y-89199734D01*
X134959887Y-89191938D01*
X134958323Y-89190646D01*
X134954571Y-89187545D01*
X134943791Y-89181139D01*
X134939276Y-89179326D01*
X134939271Y-89179324D01*
X134917808Y-89170708D01*
X134901747Y-89162896D01*
X134855576Y-89136238D01*
X130607638Y-86683618D01*
X130558645Y-86632235D01*
X130545210Y-86562521D01*
X130571597Y-86496611D01*
X130629430Y-86455429D01*
X130670639Y-86448500D01*
X131248134Y-86448500D01*
X131310316Y-86441745D01*
X131446705Y-86390615D01*
X131563261Y-86303261D01*
X131650615Y-86186705D01*
X131701745Y-86050316D01*
X131708500Y-85988134D01*
X131708500Y-84891866D01*
X131701745Y-84829684D01*
X131650615Y-84693295D01*
X131645234Y-84686116D01*
X131640921Y-84678237D01*
X131643139Y-84677023D01*
X131622982Y-84623072D01*
X131632346Y-84566127D01*
X131634198Y-84562701D01*
X131692682Y-84373768D01*
X131709684Y-84212000D01*
X131712711Y-84183204D01*
X131712711Y-84183202D01*
X131713355Y-84177075D01*
X131697997Y-84008321D01*
X131695989Y-83986251D01*
X131695988Y-83986248D01*
X131695430Y-83980112D01*
X131639590Y-83790381D01*
X131629919Y-83771881D01*
X131582605Y-83681379D01*
X131547960Y-83615110D01*
X131544100Y-83610310D01*
X131540726Y-83605153D01*
X131542719Y-83603849D01*
X131519646Y-83547977D01*
X131532326Y-83478122D01*
X131540478Y-83464186D01*
X131542640Y-83460980D01*
X131630804Y-83297924D01*
X131635556Y-83286619D01*
X131671250Y-83171308D01*
X131671456Y-83157205D01*
X131664701Y-83154000D01*
X129442076Y-83154000D01*
X129428545Y-83157973D01*
X129427425Y-83165768D01*
X129459138Y-83273521D01*
X129463731Y-83284889D01*
X129549607Y-83449154D01*
X129559697Y-83464574D01*
X129557522Y-83465997D01*
X129580314Y-83521136D01*
X129567657Y-83590995D01*
X129561839Y-83600945D01*
X129559870Y-83603325D01*
X129465802Y-83777299D01*
X129407318Y-83966232D01*
X129406674Y-83972357D01*
X129406674Y-83972358D01*
X129387783Y-84152102D01*
X129386645Y-84162925D01*
X129387204Y-84169065D01*
X129402215Y-84334008D01*
X129404570Y-84359888D01*
X129406308Y-84365794D01*
X129406309Y-84365798D01*
X129448987Y-84510808D01*
X129460410Y-84549619D01*
X129463329Y-84555203D01*
X129463343Y-84555273D01*
X129465573Y-84560791D01*
X129464524Y-84561215D01*
X129477165Y-84624836D01*
X129457096Y-84677154D01*
X129459079Y-84678240D01*
X129454771Y-84686108D01*
X129449385Y-84693295D01*
X129398255Y-84829684D01*
X129391500Y-84891866D01*
X129391500Y-85766797D01*
X129371498Y-85834918D01*
X129317842Y-85881411D01*
X129247568Y-85891515D01*
X129209432Y-85879635D01*
X129063448Y-85807097D01*
X129063442Y-85807094D01*
X129059909Y-85805339D01*
X128791561Y-85711783D01*
X128704642Y-85693278D01*
X128517470Y-85653430D01*
X128517466Y-85653429D01*
X128513603Y-85652607D01*
X128509667Y-85652275D01*
X128509665Y-85652275D01*
X128234370Y-85629076D01*
X128234369Y-85629076D01*
X128230418Y-85628743D01*
X128226456Y-85628908D01*
X128222423Y-85629076D01*
X127946476Y-85640570D01*
X127942566Y-85641230D01*
X127942560Y-85641231D01*
X127706215Y-85681149D01*
X127666257Y-85687898D01*
X127535044Y-85727485D01*
X127397973Y-85768840D01*
X127397970Y-85768841D01*
X127394182Y-85769984D01*
X127134543Y-85885529D01*
X127131168Y-85887572D01*
X127131161Y-85887576D01*
X126996010Y-85969402D01*
X126891439Y-86032713D01*
X126888341Y-86035168D01*
X126888338Y-86035170D01*
X126672244Y-86206407D01*
X126668704Y-86209212D01*
X126469852Y-86412242D01*
X126298023Y-86638599D01*
X126155925Y-86884711D01*
X126154395Y-86888351D01*
X126154393Y-86888355D01*
X126142437Y-86916799D01*
X126045803Y-87146696D01*
X126044740Y-87150505D01*
X126044739Y-87150507D01*
X126035684Y-87182946D01*
X125969393Y-87420419D01*
X125968815Y-87424335D01*
X125968814Y-87424340D01*
X125964882Y-87450982D01*
X125927900Y-87701562D01*
X125926011Y-87792252D01*
X125922068Y-87981516D01*
X125921981Y-87985688D01*
X122715207Y-87985688D01*
X122668362Y-87891317D01*
X122661864Y-87880918D01*
X122548770Y-87734061D01*
X122536157Y-87720630D01*
X122538043Y-87718859D01*
X122506013Y-87668450D01*
X122506378Y-87597455D01*
X122510359Y-87586708D01*
X122511889Y-87584015D01*
X122518481Y-87564201D01*
X122556663Y-87449421D01*
X122574318Y-87396349D01*
X122599106Y-87200131D01*
X122585310Y-87002836D01*
X122554611Y-86889845D01*
X122535072Y-86817928D01*
X122535071Y-86817924D01*
X122533455Y-86811978D01*
X122518786Y-86782426D01*
X122480476Y-86705252D01*
X122445517Y-86634826D01*
X122324844Y-86478129D01*
X122176034Y-86347856D01*
X122004754Y-86248966D01*
X121998920Y-86246980D01*
X121998918Y-86246979D01*
X121880753Y-86206753D01*
X121817529Y-86185230D01*
X121789013Y-86181425D01*
X121748313Y-86175994D01*
X121683436Y-86147158D01*
X121644448Y-86087824D01*
X121643728Y-86016831D01*
X121655638Y-85988486D01*
X121768845Y-85790816D01*
X121815965Y-85687898D01*
X121945655Y-85404629D01*
X121946844Y-85402032D01*
X121947789Y-85399347D01*
X121947794Y-85399336D01*
X122071308Y-85048599D01*
X122088875Y-84998715D01*
X122106907Y-84927452D01*
X122193064Y-84586965D01*
X122193065Y-84586961D01*
X122193767Y-84584186D01*
X122197473Y-84560791D01*
X122258002Y-84178617D01*
X122260657Y-84161856D01*
X122272321Y-83986251D01*
X122288879Y-83736953D01*
X122288879Y-83736942D01*
X122288995Y-83735202D01*
X122290029Y-83636500D01*
X122270632Y-83209346D01*
X122265422Y-83171308D01*
X122212988Y-82788535D01*
X122212601Y-82785708D01*
X122116413Y-82369073D01*
X122104883Y-82334003D01*
X121983754Y-81965586D01*
X121983751Y-81965579D01*
X121982861Y-81962871D01*
X121813042Y-81570444D01*
X121639207Y-81251607D01*
X121618466Y-81213565D01*
X121603419Y-81144181D01*
X121628272Y-81077677D01*
X121685135Y-81035166D01*
X121748803Y-81028801D01*
X121969704Y-81063788D01*
X122231775Y-81105296D01*
X122235177Y-81105462D01*
X122235183Y-81105463D01*
X122261917Y-81106770D01*
X122294248Y-81108351D01*
X122301984Y-81106770D01*
X122301985Y-81106770D01*
X122428163Y-81080984D01*
X122436956Y-81079187D01*
X122565742Y-81011142D01*
X122670254Y-80909686D01*
X122742091Y-80782975D01*
X122757212Y-80727320D01*
X122757594Y-80725915D01*
X122757596Y-80725905D01*
X122758490Y-80722615D01*
X122773703Y-80626563D01*
X122929453Y-79643199D01*
X122929454Y-79643192D01*
X122929984Y-79639844D01*
X122933040Y-79577371D01*
X122903875Y-79434662D01*
X122899682Y-79426727D01*
X122896655Y-79418271D01*
X122899038Y-79417418D01*
X122887566Y-79360994D01*
X122905727Y-79306198D01*
X122908090Y-79303107D01*
X122915862Y-79287312D01*
X125921981Y-79287312D01*
X125922063Y-79291263D01*
X125922063Y-79291271D01*
X125924885Y-79426721D01*
X125927900Y-79571438D01*
X125969393Y-79852581D01*
X126016888Y-80022721D01*
X126040291Y-80106557D01*
X126045803Y-80126304D01*
X126097134Y-80248423D01*
X126149616Y-80373279D01*
X126155925Y-80388289D01*
X126298023Y-80634401D01*
X126469852Y-80860758D01*
X126668704Y-81063788D01*
X126671806Y-81066246D01*
X126671807Y-81066247D01*
X126875458Y-81227623D01*
X126891439Y-81240287D01*
X126909314Y-81251109D01*
X127131161Y-81385424D01*
X127131168Y-81385428D01*
X127134543Y-81387471D01*
X127394182Y-81503016D01*
X127397970Y-81504159D01*
X127397973Y-81504160D01*
X127535044Y-81545515D01*
X127666257Y-81585102D01*
X127670172Y-81585763D01*
X127670171Y-81585763D01*
X127942560Y-81631769D01*
X127942566Y-81631770D01*
X127946476Y-81632430D01*
X128146503Y-81640762D01*
X128226456Y-81644092D01*
X128230418Y-81644257D01*
X128242914Y-81643204D01*
X128509665Y-81620725D01*
X128509667Y-81620725D01*
X128513603Y-81620393D01*
X128517466Y-81619571D01*
X128517470Y-81619570D01*
X128760010Y-81567934D01*
X128791561Y-81561217D01*
X129059909Y-81467661D01*
X129063448Y-81465903D01*
X129063454Y-81465900D01*
X129216522Y-81389843D01*
X129286427Y-81377443D01*
X129351939Y-81404806D01*
X129392258Y-81463243D01*
X129397899Y-81515850D01*
X129386645Y-81622925D01*
X129404570Y-81819888D01*
X129406308Y-81825794D01*
X129406309Y-81825798D01*
X129429049Y-81903061D01*
X129460410Y-82009619D01*
X129463263Y-82015077D01*
X129463265Y-82015081D01*
X129478609Y-82044431D01*
X129552040Y-82184890D01*
X129555900Y-82189690D01*
X129559274Y-82194847D01*
X129557281Y-82196151D01*
X129580354Y-82252023D01*
X129567674Y-82321878D01*
X129559522Y-82335814D01*
X129557360Y-82339020D01*
X129469196Y-82502076D01*
X129464444Y-82513381D01*
X129428750Y-82628692D01*
X129428544Y-82642795D01*
X129435299Y-82646000D01*
X131657924Y-82646000D01*
X131671455Y-82642027D01*
X131672575Y-82634232D01*
X131640862Y-82526479D01*
X131636269Y-82515111D01*
X131550393Y-82350846D01*
X131540303Y-82335426D01*
X131542478Y-82334003D01*
X131519686Y-82278864D01*
X131532343Y-82209005D01*
X131538161Y-82199055D01*
X131540130Y-82196675D01*
X131634198Y-82022701D01*
X131692682Y-81833768D01*
X131712600Y-81644257D01*
X131712711Y-81643204D01*
X131712711Y-81643202D01*
X131713355Y-81637075D01*
X131701155Y-81503016D01*
X131695989Y-81446251D01*
X131695988Y-81446248D01*
X131695430Y-81440112D01*
X131690950Y-81424888D01*
X131645009Y-81268794D01*
X131639590Y-81250381D01*
X131633029Y-81237830D01*
X131565136Y-81107965D01*
X131547960Y-81075110D01*
X131424032Y-80920975D01*
X131417727Y-80915684D01*
X131345133Y-80854771D01*
X131272526Y-80793846D01*
X131267128Y-80790879D01*
X131267123Y-80790875D01*
X131104608Y-80701533D01*
X131104609Y-80701533D01*
X131099213Y-80698567D01*
X131093344Y-80696705D01*
X131093341Y-80696704D01*
X130971718Y-80658123D01*
X130932201Y-80645588D01*
X130873317Y-80605925D01*
X130845225Y-80540723D01*
X130856842Y-80470683D01*
X130907299Y-80416368D01*
X132129493Y-79710713D01*
X136206973Y-79710713D01*
X136243319Y-79851763D01*
X136247126Y-79858689D01*
X136247127Y-79858690D01*
X136249527Y-79863056D01*
X136273452Y-79906574D01*
X136275410Y-79909370D01*
X136275411Y-79909372D01*
X137072368Y-81047546D01*
X137072374Y-81047553D01*
X137074318Y-81050330D01*
X137076556Y-81052886D01*
X137076558Y-81052889D01*
X137101154Y-81080984D01*
X137115518Y-81097392D01*
X137122030Y-81101859D01*
X137122031Y-81101860D01*
X137134877Y-81110672D01*
X137235631Y-81179788D01*
X137374041Y-81225161D01*
X137383011Y-81225451D01*
X137383013Y-81225451D01*
X137450268Y-81227623D01*
X137519622Y-81229863D01*
X137660672Y-81193517D01*
X137715483Y-81163384D01*
X137794079Y-81108351D01*
X138032992Y-80941062D01*
X138100266Y-80918374D01*
X138169127Y-80935659D01*
X138217711Y-80987429D01*
X138230593Y-81057247D01*
X138212350Y-81110669D01*
X138071893Y-81337203D01*
X137880434Y-81719538D01*
X137724415Y-82117652D01*
X137696523Y-82213656D01*
X137637239Y-82417715D01*
X137605120Y-82528268D01*
X137523531Y-82948006D01*
X137480320Y-83373412D01*
X137477565Y-83636500D01*
X137475842Y-83800982D01*
X137476071Y-83803827D01*
X137476071Y-83803830D01*
X137506732Y-84184902D01*
X137510135Y-84227199D01*
X137582915Y-84648554D01*
X137603833Y-84726619D01*
X137691365Y-85053292D01*
X137693585Y-85061578D01*
X137841232Y-85462872D01*
X137842454Y-85465445D01*
X137842455Y-85465448D01*
X138011140Y-85820697D01*
X138024642Y-85849133D01*
X138138303Y-86041322D01*
X138178207Y-86108796D01*
X138195667Y-86177612D01*
X138173150Y-86244943D01*
X138117806Y-86289412D01*
X138047206Y-86296901D01*
X138027490Y-86291635D01*
X137842149Y-86225637D01*
X137836049Y-86224736D01*
X137836048Y-86224736D01*
X137756222Y-86212949D01*
X137646493Y-86196746D01*
X137448952Y-86206407D01*
X137363531Y-86227705D01*
X137263032Y-86252762D01*
X137263027Y-86252764D01*
X137257050Y-86254254D01*
X137251476Y-86256877D01*
X137251473Y-86256878D01*
X137176873Y-86291983D01*
X137078097Y-86338464D01*
X136918907Y-86455828D01*
X136814467Y-86570205D01*
X136575508Y-86899105D01*
X136573953Y-86901755D01*
X136573950Y-86901760D01*
X136560588Y-86924536D01*
X136500732Y-87026558D01*
X136458895Y-87146696D01*
X136440569Y-87199322D01*
X136435689Y-87213334D01*
X136408164Y-87409187D01*
X136415253Y-87535989D01*
X136418690Y-87597455D01*
X136419204Y-87606655D01*
X136420735Y-87612616D01*
X136420735Y-87612619D01*
X136442567Y-87697649D01*
X136468389Y-87798219D01*
X136503358Y-87871204D01*
X136551183Y-87971024D01*
X136551186Y-87971028D01*
X136553846Y-87976581D01*
X136672320Y-88134947D01*
X136819297Y-88267285D01*
X136989179Y-88368555D01*
X136994977Y-88370620D01*
X136994980Y-88370621D01*
X137169689Y-88432833D01*
X137175497Y-88434901D01*
X137181597Y-88435802D01*
X137181598Y-88435802D01*
X137258639Y-88447178D01*
X137371153Y-88463792D01*
X137377302Y-88463491D01*
X137383467Y-88463793D01*
X137383351Y-88466171D01*
X137442110Y-88480347D01*
X137491169Y-88531667D01*
X137497652Y-88546455D01*
X137498975Y-88550090D01*
X137579065Y-88717250D01*
X137585419Y-88727742D01*
X137657728Y-88824400D01*
X137669013Y-88832854D01*
X137675578Y-88829272D01*
X138406020Y-87823904D01*
X138462242Y-87780550D01*
X138532978Y-87774475D01*
X138582017Y-87796029D01*
X138789126Y-87946502D01*
X138832480Y-88002724D01*
X138838555Y-88073460D01*
X138817001Y-88122499D01*
X138090543Y-89122383D01*
X138085804Y-89135665D01*
X138091453Y-89141155D01*
X138197257Y-89178829D01*
X138209173Y-89181800D01*
X138392534Y-89208876D01*
X138410941Y-89209777D01*
X138410815Y-89212358D01*
X138468891Y-89226387D01*
X138517934Y-89277723D01*
X138522521Y-89288190D01*
X138523292Y-89291194D01*
X138525955Y-89296752D01*
X138606086Y-89463999D01*
X138606089Y-89464003D01*
X138608749Y-89469556D01*
X138727223Y-89627922D01*
X138874200Y-89760260D01*
X139044082Y-89861530D01*
X139049880Y-89863595D01*
X139049883Y-89863596D01*
X139224592Y-89925808D01*
X139230400Y-89927876D01*
X139236500Y-89928777D01*
X139236505Y-89928778D01*
X139236641Y-89928798D01*
X139236706Y-89928828D01*
X139242474Y-89930266D01*
X139242201Y-89931363D01*
X139301108Y-89958539D01*
X139331629Y-90005520D01*
X139333673Y-90004554D01*
X139337508Y-90012667D01*
X139340155Y-90021245D01*
X139420442Y-90142778D01*
X139466778Y-90184792D01*
X140353678Y-90829162D01*
X140407954Y-90860247D01*
X140548349Y-90899049D01*
X140557325Y-90898916D01*
X140557326Y-90898916D01*
X140623637Y-90897932D01*
X140693990Y-90896888D01*
X140702563Y-90894243D01*
X140702566Y-90894242D01*
X140824593Y-90856585D01*
X140824592Y-90856585D01*
X140833171Y-90853938D01*
X140954703Y-90773651D01*
X140960007Y-90767802D01*
X140960010Y-90767799D01*
X140994428Y-90729841D01*
X140994432Y-90729836D01*
X140996718Y-90727315D01*
X141000586Y-90721992D01*
X141815424Y-89600463D01*
X141815425Y-89600461D01*
X141817424Y-89597710D01*
X141848508Y-89543433D01*
X141868980Y-89469362D01*
X141884920Y-89411691D01*
X141884920Y-89411689D01*
X141887311Y-89403039D01*
X141885150Y-89257398D01*
X141842199Y-89118217D01*
X141761912Y-88996684D01*
X141748395Y-88984428D01*
X141718103Y-88956961D01*
X141718100Y-88956958D01*
X141715576Y-88954670D01*
X141017071Y-88447177D01*
X140973718Y-88390956D01*
X140967643Y-88320220D01*
X141000774Y-88257428D01*
X141062594Y-88222517D01*
X141118619Y-88222276D01*
X141350340Y-88274071D01*
X141367591Y-88277927D01*
X141791624Y-88333000D01*
X142218903Y-88349414D01*
X142221765Y-88349264D01*
X142221766Y-88349264D01*
X142643055Y-88327186D01*
X142643062Y-88327185D01*
X142645911Y-88327036D01*
X142648734Y-88326629D01*
X142648736Y-88326629D01*
X143066312Y-88266455D01*
X143066319Y-88266454D01*
X143069134Y-88266048D01*
X143485087Y-88166954D01*
X143487785Y-88166046D01*
X143487792Y-88166044D01*
X143887635Y-88031482D01*
X143887641Y-88031480D01*
X143890347Y-88030569D01*
X144281578Y-87858016D01*
X144343118Y-87823904D01*
X144653059Y-87652101D01*
X144653061Y-87652100D01*
X144655561Y-87650714D01*
X144860052Y-87511742D01*
X145006843Y-87411983D01*
X145006848Y-87411980D01*
X145009216Y-87410370D01*
X145011438Y-87408545D01*
X145337413Y-87140786D01*
X145337417Y-87140783D01*
X145339632Y-87138963D01*
X145341670Y-87136954D01*
X145341677Y-87136947D01*
X145564920Y-86916799D01*
X145644090Y-86838727D01*
X145785145Y-86671811D01*
X145918238Y-86514317D01*
X145918243Y-86514311D01*
X145920084Y-86512132D01*
X146165342Y-86161867D01*
X146196433Y-86107580D01*
X146282102Y-85957992D01*
X146346009Y-85846405D01*
X146397219Y-85797234D01*
X146466885Y-85783554D01*
X146532888Y-85809711D01*
X146576220Y-85873450D01*
X146581537Y-85891515D01*
X146610410Y-85989619D01*
X146613263Y-85995077D01*
X146613265Y-85995081D01*
X146646010Y-86057715D01*
X146702040Y-86164890D01*
X146825968Y-86319025D01*
X146830692Y-86322989D01*
X146837933Y-86329065D01*
X146977474Y-86446154D01*
X146982872Y-86449121D01*
X146982877Y-86449125D01*
X147093228Y-86509790D01*
X147150787Y-86541433D01*
X147156654Y-86543294D01*
X147156656Y-86543295D01*
X147265269Y-86577749D01*
X147339306Y-86601235D01*
X147493227Y-86618500D01*
X147899769Y-86618500D01*
X147902825Y-86618200D01*
X147902832Y-86618200D01*
X147961340Y-86612463D01*
X148046833Y-86604080D01*
X148052734Y-86602298D01*
X148052736Y-86602298D01*
X148159032Y-86570205D01*
X148236169Y-86546916D01*
X148410796Y-86454066D01*
X148497062Y-86383709D01*
X148559287Y-86332960D01*
X148559290Y-86332957D01*
X148564062Y-86329065D01*
X148576344Y-86314219D01*
X148686201Y-86181425D01*
X148686203Y-86181421D01*
X148690130Y-86176675D01*
X148784198Y-86002701D01*
X148842682Y-85813768D01*
X148843383Y-85807097D01*
X148862711Y-85623204D01*
X148862711Y-85623202D01*
X148863355Y-85617075D01*
X148849556Y-85465448D01*
X148845989Y-85426251D01*
X148845988Y-85426248D01*
X148845430Y-85420112D01*
X148840874Y-85404629D01*
X148805817Y-85285518D01*
X148789590Y-85230381D01*
X148786427Y-85224329D01*
X148714693Y-85087117D01*
X148697960Y-85055110D01*
X148694100Y-85050310D01*
X148690726Y-85045153D01*
X148692719Y-85043849D01*
X148669646Y-84987977D01*
X148682326Y-84918122D01*
X148690478Y-84904186D01*
X148692640Y-84900980D01*
X148780804Y-84737924D01*
X148785556Y-84726619D01*
X148821250Y-84611308D01*
X148821456Y-84597205D01*
X148814701Y-84594000D01*
X147572000Y-84594000D01*
X147503879Y-84573998D01*
X147457386Y-84520342D01*
X147456740Y-84517373D01*
X154212975Y-84517373D01*
X154213665Y-84523938D01*
X154229883Y-84678240D01*
X154232937Y-84707301D01*
X154291952Y-84888929D01*
X154295255Y-84894651D01*
X154295256Y-84894652D01*
X154307260Y-84915444D01*
X154387439Y-85054317D01*
X154391857Y-85059224D01*
X154391858Y-85059225D01*
X154462942Y-85138172D01*
X154515226Y-85196239D01*
X154565716Y-85232922D01*
X154661008Y-85302156D01*
X154669727Y-85308491D01*
X154675755Y-85311175D01*
X154675757Y-85311176D01*
X154804530Y-85368509D01*
X154844191Y-85386167D01*
X154933988Y-85405254D01*
X155024535Y-85424501D01*
X155024540Y-85424501D01*
X155030992Y-85425873D01*
X155221966Y-85425873D01*
X155228418Y-85424501D01*
X155228423Y-85424501D01*
X155318970Y-85405254D01*
X155408767Y-85386167D01*
X155448428Y-85368509D01*
X155577201Y-85311176D01*
X155577203Y-85311175D01*
X155583231Y-85308491D01*
X155591951Y-85302156D01*
X155716150Y-85211919D01*
X155737732Y-85196239D01*
X155742147Y-85191336D01*
X155747059Y-85186913D01*
X155748184Y-85188162D01*
X155801493Y-85155322D01*
X155834679Y-85150873D01*
X156836768Y-85150873D01*
X156904889Y-85170875D01*
X156930403Y-85192562D01*
X156963247Y-85229039D01*
X156973233Y-85236294D01*
X157112403Y-85337408D01*
X157112406Y-85337409D01*
X157117748Y-85341291D01*
X157119725Y-85342171D01*
X157167580Y-85392361D01*
X157181015Y-85462075D01*
X157154628Y-85527986D01*
X157112785Y-85562366D01*
X157111593Y-85562974D01*
X157103094Y-85565875D01*
X156983997Y-85649733D01*
X156893223Y-85763646D01*
X156867584Y-85820697D01*
X156528818Y-86863310D01*
X156528122Y-86866640D01*
X156528121Y-86866645D01*
X156521861Y-86896613D01*
X156516027Y-86924536D01*
X156522508Y-87070050D01*
X156525409Y-87078546D01*
X156527075Y-87087366D01*
X156524590Y-87087836D01*
X156527090Y-87145371D01*
X156500584Y-87196642D01*
X156497770Y-87199322D01*
X156494222Y-87204352D01*
X156494220Y-87204354D01*
X156483579Y-87219439D01*
X156383764Y-87360935D01*
X156381259Y-87366562D01*
X156381257Y-87366565D01*
X156335194Y-87470025D01*
X156303321Y-87541613D01*
X156301958Y-87547612D01*
X156301957Y-87547615D01*
X156283433Y-87629147D01*
X156259503Y-87734475D01*
X156259331Y-87740627D01*
X156259331Y-87740628D01*
X156257004Y-87823904D01*
X156253979Y-87932175D01*
X156266475Y-88006057D01*
X156285178Y-88116633D01*
X156286962Y-88127183D01*
X156289149Y-88132941D01*
X156290765Y-88138887D01*
X156288470Y-88139511D01*
X156293144Y-88199795D01*
X156259492Y-88262310D01*
X156247439Y-88273038D01*
X156244390Y-88275420D01*
X156110162Y-88403243D01*
X156102145Y-88412532D01*
X156032564Y-88511169D01*
X156028010Y-88524517D01*
X156033445Y-88529654D01*
X156852019Y-88795625D01*
X158147282Y-89216481D01*
X158161380Y-89216884D01*
X158164856Y-89209815D01*
X158167992Y-89097542D01*
X158167137Y-89085315D01*
X158136225Y-88902548D01*
X158131395Y-88884772D01*
X158133892Y-88884094D01*
X158129274Y-88824548D01*
X158162925Y-88762033D01*
X158171489Y-88754411D01*
X158174102Y-88752752D01*
X158222873Y-88706309D01*
X158312862Y-88620615D01*
X158312863Y-88620614D01*
X158317328Y-88616362D01*
X158431334Y-88454749D01*
X158459267Y-88392012D01*
X158509273Y-88279695D01*
X158511777Y-88274071D01*
X158513508Y-88266455D01*
X158542448Y-88139075D01*
X158555595Y-88081209D01*
X158556526Y-88047908D01*
X158560947Y-87889664D01*
X158561119Y-87883509D01*
X158560067Y-87877288D01*
X158560076Y-87877209D01*
X158559662Y-87871283D01*
X158560789Y-87871204D01*
X158568429Y-87806786D01*
X158603682Y-87763236D01*
X158602131Y-87761590D01*
X158608660Y-87755438D01*
X158616003Y-87750267D01*
X158706777Y-87636354D01*
X158732416Y-87579303D01*
X159071182Y-86536690D01*
X159083973Y-86475464D01*
X159077492Y-86329950D01*
X159073762Y-86319025D01*
X159033332Y-86200601D01*
X159033331Y-86200598D01*
X159030431Y-86192105D01*
X159025265Y-86184769D01*
X159025264Y-86184766D01*
X158971772Y-86108796D01*
X158946573Y-86073008D01*
X158917860Y-86050127D01*
X158893436Y-86030665D01*
X158832660Y-85982234D01*
X158775609Y-85956595D01*
X157856567Y-85657980D01*
X157797961Y-85617907D01*
X157770324Y-85552510D01*
X157782431Y-85482553D01*
X157830437Y-85430247D01*
X157853697Y-85419624D01*
X157856788Y-85418967D01*
X157862815Y-85416284D01*
X157862817Y-85416283D01*
X158025222Y-85343976D01*
X158025224Y-85343975D01*
X158031252Y-85341291D01*
X158036597Y-85337408D01*
X158175767Y-85236294D01*
X158185753Y-85229039D01*
X158222826Y-85187865D01*
X158309121Y-85092025D01*
X158309122Y-85092024D01*
X158313540Y-85087117D01*
X158409027Y-84921729D01*
X158468042Y-84740101D01*
X158471490Y-84707301D01*
X158487314Y-84556738D01*
X158488004Y-84550173D01*
X158479367Y-84468000D01*
X158468732Y-84366808D01*
X158468732Y-84366806D01*
X158468042Y-84360245D01*
X158409027Y-84178617D01*
X158313540Y-84013229D01*
X158283722Y-83980112D01*
X158190175Y-83876218D01*
X158190174Y-83876217D01*
X158185753Y-83871307D01*
X158051826Y-83774003D01*
X158036594Y-83762936D01*
X158036593Y-83762935D01*
X158031252Y-83759055D01*
X158025224Y-83756371D01*
X158025222Y-83756370D01*
X157862819Y-83684064D01*
X157862818Y-83684064D01*
X157856788Y-83681379D01*
X157763387Y-83661526D01*
X157676444Y-83643045D01*
X157676439Y-83643045D01*
X157669987Y-83641673D01*
X157479013Y-83641673D01*
X157472561Y-83643045D01*
X157472556Y-83643045D01*
X157385612Y-83661526D01*
X157292212Y-83681379D01*
X157286182Y-83684064D01*
X157286181Y-83684064D01*
X157123778Y-83756370D01*
X157123776Y-83756371D01*
X157117748Y-83759055D01*
X157112407Y-83762935D01*
X157112406Y-83762936D01*
X156979073Y-83859809D01*
X156912206Y-83883667D01*
X156905012Y-83883873D01*
X155834679Y-83883873D01*
X155766558Y-83863871D01*
X155747332Y-83847530D01*
X155747059Y-83847833D01*
X155742147Y-83843410D01*
X155737732Y-83838507D01*
X155690003Y-83803830D01*
X155588573Y-83730136D01*
X155588572Y-83730135D01*
X155583231Y-83726255D01*
X155577203Y-83723571D01*
X155577201Y-83723570D01*
X155414798Y-83651264D01*
X155414797Y-83651264D01*
X155408767Y-83648579D01*
X155315366Y-83628726D01*
X155228423Y-83610245D01*
X155228418Y-83610245D01*
X155221966Y-83608873D01*
X155030992Y-83608873D01*
X155024540Y-83610245D01*
X155024535Y-83610245D01*
X154937592Y-83628726D01*
X154844191Y-83648579D01*
X154838161Y-83651264D01*
X154838160Y-83651264D01*
X154675757Y-83723570D01*
X154675755Y-83723571D01*
X154669727Y-83726255D01*
X154664386Y-83730135D01*
X154664385Y-83730136D01*
X154628277Y-83756370D01*
X154515226Y-83838507D01*
X154510805Y-83843417D01*
X154510804Y-83843418D01*
X154400000Y-83966479D01*
X154387439Y-83980429D01*
X154291952Y-84145817D01*
X154232937Y-84327445D01*
X154232247Y-84334006D01*
X154232247Y-84334008D01*
X154228906Y-84365798D01*
X154212975Y-84517373D01*
X147456740Y-84517373D01*
X147446000Y-84468000D01*
X147446000Y-84212000D01*
X147466002Y-84143879D01*
X147519658Y-84097386D01*
X147572000Y-84086000D01*
X148807924Y-84086000D01*
X148821455Y-84082027D01*
X148822575Y-84074232D01*
X148790862Y-83966479D01*
X148786269Y-83955111D01*
X148700393Y-83790846D01*
X148690303Y-83775426D01*
X148692478Y-83774003D01*
X148669686Y-83718864D01*
X148682343Y-83649005D01*
X148688161Y-83639055D01*
X148690130Y-83636675D01*
X148784198Y-83462701D01*
X148842682Y-83273768D01*
X148854482Y-83161500D01*
X148862711Y-83083204D01*
X148862711Y-83083202D01*
X148863355Y-83077075D01*
X148845430Y-82880112D01*
X148842128Y-82868890D01*
X148791330Y-82696293D01*
X148789590Y-82690381D01*
X148786671Y-82684797D01*
X148786657Y-82684727D01*
X148784427Y-82679209D01*
X148785476Y-82678785D01*
X148772835Y-82615164D01*
X148792904Y-82562846D01*
X148790921Y-82561760D01*
X148795229Y-82553892D01*
X148800615Y-82546705D01*
X148851745Y-82410316D01*
X148858500Y-82348134D01*
X148858500Y-81251866D01*
X148851745Y-81189684D01*
X148800615Y-81053295D01*
X148713261Y-80936739D01*
X148596705Y-80849385D01*
X148460316Y-80798255D01*
X148398134Y-80791500D01*
X147751471Y-80791500D01*
X147683350Y-80771498D01*
X147636857Y-80717842D01*
X147626753Y-80647568D01*
X147631638Y-80626563D01*
X147633156Y-80621893D01*
X147643542Y-80589928D01*
X147653985Y-80490574D01*
X147662814Y-80406565D01*
X147663504Y-80400000D01*
X147662814Y-80393435D01*
X147662814Y-80386829D01*
X147664123Y-80386829D01*
X147675619Y-80323949D01*
X147699065Y-80291515D01*
X148160136Y-79830444D01*
X148222448Y-79796418D01*
X148249231Y-79793539D01*
X148305124Y-79793539D01*
X148311576Y-79792167D01*
X148311581Y-79792167D01*
X148398525Y-79773686D01*
X148491925Y-79753833D01*
X148508820Y-79746311D01*
X148660359Y-79678842D01*
X148660361Y-79678841D01*
X148666389Y-79676157D01*
X148820890Y-79563905D01*
X148908672Y-79466413D01*
X148944258Y-79426891D01*
X148944259Y-79426890D01*
X148948677Y-79421983D01*
X149011290Y-79313534D01*
X149040860Y-79262318D01*
X149040861Y-79262317D01*
X149044164Y-79256595D01*
X149103179Y-79074967D01*
X149108498Y-79024365D01*
X149122451Y-78891604D01*
X149123141Y-78885039D01*
X149117225Y-78828750D01*
X149103869Y-78701674D01*
X149103869Y-78701672D01*
X149103179Y-78695111D01*
X149044164Y-78513483D01*
X148948677Y-78348095D01*
X148820890Y-78206173D01*
X148704537Y-78121637D01*
X148671731Y-78097802D01*
X148671730Y-78097801D01*
X148666389Y-78093921D01*
X148660361Y-78091237D01*
X148660359Y-78091236D01*
X148497956Y-78018930D01*
X148497955Y-78018930D01*
X148491925Y-78016245D01*
X148398525Y-77996392D01*
X148311581Y-77977911D01*
X148311576Y-77977911D01*
X148305124Y-77976539D01*
X148114150Y-77976539D01*
X148107698Y-77977911D01*
X148107693Y-77977911D01*
X148020749Y-77996392D01*
X147927349Y-78016245D01*
X147921319Y-78018930D01*
X147921318Y-78018930D01*
X147758915Y-78091236D01*
X147758913Y-78091237D01*
X147752885Y-78093921D01*
X147747544Y-78097801D01*
X147747543Y-78097802D01*
X147714737Y-78121637D01*
X147598384Y-78206173D01*
X147470597Y-78348095D01*
X147375110Y-78513483D01*
X147316095Y-78695111D01*
X147315405Y-78701672D01*
X147315405Y-78701674D01*
X147306259Y-78788699D01*
X147298874Y-78858965D01*
X147298730Y-78860331D01*
X147271717Y-78925988D01*
X147262515Y-78936256D01*
X146744176Y-79454595D01*
X146681864Y-79488621D01*
X146667613Y-79490153D01*
X146667682Y-79490810D01*
X146661115Y-79491500D01*
X146654513Y-79491500D01*
X146648061Y-79492872D01*
X146648056Y-79492872D01*
X146561113Y-79511353D01*
X146467712Y-79531206D01*
X146461682Y-79533891D01*
X146461681Y-79533891D01*
X146299278Y-79606197D01*
X146299276Y-79606198D01*
X146293248Y-79608882D01*
X146138747Y-79721134D01*
X146134326Y-79726044D01*
X146134325Y-79726045D01*
X146045418Y-79824787D01*
X146010960Y-79863056D01*
X145982487Y-79912372D01*
X145930081Y-80003143D01*
X145915473Y-80028444D01*
X145856458Y-80210072D01*
X145844490Y-80323949D01*
X145842126Y-80346438D01*
X145815113Y-80412095D01*
X145756892Y-80452725D01*
X145685947Y-80455428D01*
X145626485Y-80421111D01*
X145414280Y-80202896D01*
X145414276Y-80202892D01*
X145412290Y-80200850D01*
X145410132Y-80199000D01*
X145410122Y-80198991D01*
X145197700Y-80016924D01*
X145087630Y-79922582D01*
X144739087Y-79674885D01*
X144496835Y-79533891D01*
X144372001Y-79461236D01*
X144371996Y-79461233D01*
X144369528Y-79459797D01*
X144122103Y-79344421D01*
X143984592Y-79280298D01*
X143984582Y-79280294D01*
X143981996Y-79279088D01*
X143950223Y-79267649D01*
X143582371Y-79135213D01*
X143582362Y-79135210D01*
X143579681Y-79134245D01*
X143184775Y-79031380D01*
X143168663Y-79027183D01*
X143168657Y-79027182D01*
X143165894Y-79026462D01*
X142744041Y-78956625D01*
X142741198Y-78956416D01*
X142741196Y-78956416D01*
X142320441Y-78925518D01*
X142317595Y-78925309D01*
X142139858Y-78928411D01*
X141892917Y-78932721D01*
X141892912Y-78932721D01*
X141890066Y-78932771D01*
X141887233Y-78933079D01*
X141887229Y-78933079D01*
X141544815Y-78970277D01*
X141464973Y-78978951D01*
X141045815Y-79063468D01*
X141043082Y-79064283D01*
X141043077Y-79064284D01*
X140737026Y-79155522D01*
X140666030Y-79155815D01*
X140606146Y-79117678D01*
X140576387Y-79053219D01*
X140589165Y-78976787D01*
X140604286Y-78947615D01*
X140611131Y-78930503D01*
X140613538Y-78931466D01*
X140645660Y-78881150D01*
X140710152Y-78851462D01*
X140721606Y-78850525D01*
X140724689Y-78850773D01*
X140730808Y-78850065D01*
X140730812Y-78850065D01*
X140822922Y-78839407D01*
X140921155Y-78828042D01*
X140958986Y-78815896D01*
X141103592Y-78769469D01*
X141103596Y-78769467D01*
X141109465Y-78767583D01*
X141114855Y-78764595D01*
X141114858Y-78764594D01*
X141240208Y-78695111D01*
X141282444Y-78671699D01*
X141287145Y-78667727D01*
X141287150Y-78667723D01*
X141416164Y-78558698D01*
X141433506Y-78544043D01*
X141438000Y-78538414D01*
X141553053Y-78394293D01*
X141553056Y-78394289D01*
X141556897Y-78389477D01*
X141568110Y-78367846D01*
X141599188Y-78307890D01*
X141647914Y-78213887D01*
X141651949Y-78200000D01*
X143936496Y-78200000D01*
X143937186Y-78206565D01*
X143955672Y-78382446D01*
X143956458Y-78389928D01*
X144015473Y-78571556D01*
X144018776Y-78577278D01*
X144018777Y-78577279D01*
X144023874Y-78586107D01*
X144110960Y-78736944D01*
X144115378Y-78741851D01*
X144115379Y-78741852D01*
X144229259Y-78868329D01*
X144238747Y-78878866D01*
X144336196Y-78949667D01*
X144376502Y-78978951D01*
X144393248Y-78991118D01*
X144399276Y-78993802D01*
X144399278Y-78993803D01*
X144557582Y-79064284D01*
X144567712Y-79068794D01*
X144654319Y-79087203D01*
X144748056Y-79107128D01*
X144748061Y-79107128D01*
X144754513Y-79108500D01*
X144945487Y-79108500D01*
X144951939Y-79107128D01*
X144951944Y-79107128D01*
X145045681Y-79087203D01*
X145132288Y-79068794D01*
X145142418Y-79064284D01*
X145300722Y-78993803D01*
X145300724Y-78993802D01*
X145306752Y-78991118D01*
X145323499Y-78978951D01*
X145363804Y-78949667D01*
X145461253Y-78878866D01*
X145470741Y-78868329D01*
X145584621Y-78741852D01*
X145584622Y-78741851D01*
X145589040Y-78736944D01*
X145676126Y-78586107D01*
X145681223Y-78577279D01*
X145681224Y-78577278D01*
X145684527Y-78571556D01*
X145743542Y-78389928D01*
X145744329Y-78382446D01*
X145754790Y-78282910D01*
X145760907Y-78224706D01*
X145787920Y-78159050D01*
X145797122Y-78148782D01*
X145850499Y-78095405D01*
X145912811Y-78061379D01*
X145939594Y-78058500D01*
X145995487Y-78058500D01*
X146001939Y-78057128D01*
X146001944Y-78057128D01*
X146100555Y-78036167D01*
X146182288Y-78018794D01*
X146269884Y-77979794D01*
X146350722Y-77943803D01*
X146350724Y-77943802D01*
X146356752Y-77941118D01*
X146366657Y-77933922D01*
X146480228Y-77851407D01*
X146511253Y-77828866D01*
X146537552Y-77799658D01*
X146634621Y-77691852D01*
X146634622Y-77691851D01*
X146639040Y-77686944D01*
X146734527Y-77521556D01*
X146793542Y-77339928D01*
X146794363Y-77332123D01*
X146812814Y-77156565D01*
X146813504Y-77150000D01*
X146806387Y-77082288D01*
X146794232Y-76966635D01*
X146794232Y-76966633D01*
X146793542Y-76960072D01*
X146734527Y-76778444D01*
X146720797Y-76754662D01*
X146667163Y-76661766D01*
X146639040Y-76613056D01*
X146621832Y-76593944D01*
X146515675Y-76476045D01*
X146515674Y-76476044D01*
X146511253Y-76471134D01*
X146373065Y-76370734D01*
X146362094Y-76362763D01*
X146362093Y-76362762D01*
X146356752Y-76358882D01*
X146350724Y-76356198D01*
X146350722Y-76356197D01*
X146188319Y-76283891D01*
X146188318Y-76283891D01*
X146182288Y-76281206D01*
X146080005Y-76259465D01*
X146001944Y-76242872D01*
X146001939Y-76242872D01*
X145995487Y-76241500D01*
X145804513Y-76241500D01*
X145798061Y-76242872D01*
X145798056Y-76242872D01*
X145719995Y-76259465D01*
X145617712Y-76281206D01*
X145611682Y-76283891D01*
X145611681Y-76283891D01*
X145449278Y-76356197D01*
X145449276Y-76356198D01*
X145443248Y-76358882D01*
X145437907Y-76362762D01*
X145437906Y-76362763D01*
X145426935Y-76370734D01*
X145288747Y-76471134D01*
X145284326Y-76476044D01*
X145284325Y-76476045D01*
X145178169Y-76593944D01*
X145160960Y-76613056D01*
X145132837Y-76661766D01*
X145079204Y-76754662D01*
X145065473Y-76778444D01*
X145006458Y-76960072D01*
X145005768Y-76966633D01*
X145005768Y-76966635D01*
X144989093Y-77125292D01*
X144962080Y-77190949D01*
X144952878Y-77201217D01*
X144899500Y-77254595D01*
X144837188Y-77288621D01*
X144810405Y-77291500D01*
X144754513Y-77291500D01*
X144748061Y-77292872D01*
X144748056Y-77292872D01*
X144673631Y-77308692D01*
X144567712Y-77331206D01*
X144561682Y-77333891D01*
X144561681Y-77333891D01*
X144399278Y-77406197D01*
X144399276Y-77406198D01*
X144393248Y-77408882D01*
X144387907Y-77412762D01*
X144387906Y-77412763D01*
X144363327Y-77430621D01*
X144238747Y-77521134D01*
X144110960Y-77663056D01*
X144015473Y-77828444D01*
X143956458Y-78010072D01*
X143955768Y-78016633D01*
X143955768Y-78016635D01*
X143946089Y-78108729D01*
X143936496Y-78200000D01*
X141651949Y-78200000D01*
X141703092Y-78023963D01*
X141709062Y-77955729D01*
X141719794Y-77833080D01*
X141719794Y-77833076D01*
X141720331Y-77826938D01*
X141704504Y-77681247D01*
X141699637Y-77636446D01*
X141699636Y-77636442D01*
X141698971Y-77630319D01*
X141694518Y-77616107D01*
X141666294Y-77526045D01*
X141639829Y-77441592D01*
X141636883Y-77436188D01*
X141636881Y-77436184D01*
X141567370Y-77308692D01*
X141567367Y-77308687D01*
X141565686Y-77305604D01*
X141445143Y-77133449D01*
X141334276Y-76975112D01*
X141334274Y-76975109D01*
X141332505Y-76972583D01*
X141236340Y-76860386D01*
X141080916Y-76738079D01*
X140904696Y-76648289D01*
X140878217Y-76640796D01*
X140720322Y-76596116D01*
X140714392Y-76594438D01*
X140665316Y-76590489D01*
X140523397Y-76579069D01*
X140523392Y-76579069D01*
X140517252Y-76578575D01*
X140320785Y-76601306D01*
X140314923Y-76603188D01*
X140314919Y-76603189D01*
X140179680Y-76646610D01*
X140132475Y-76661766D01*
X139959496Y-76757649D01*
X139954795Y-76761621D01*
X139954790Y-76761625D01*
X139859064Y-76842520D01*
X139808434Y-76885305D01*
X139756848Y-76949925D01*
X139688887Y-77035056D01*
X139688884Y-77035060D01*
X139685043Y-77039872D01*
X139594026Y-77215462D01*
X139592308Y-77221376D01*
X139590018Y-77227101D01*
X139587813Y-77226219D01*
X139555249Y-77277186D01*
X139490747Y-77306850D01*
X139474683Y-77308161D01*
X139470814Y-77308229D01*
X139286689Y-77329532D01*
X139274705Y-77332123D01*
X139159764Y-77369025D01*
X139148095Y-77376944D01*
X139149344Y-77384316D01*
X139862129Y-78402279D01*
X139884817Y-78469553D01*
X139867532Y-78538414D01*
X139831187Y-78577763D01*
X139621485Y-78724598D01*
X139554211Y-78747286D01*
X139485350Y-78730001D01*
X139446001Y-78693656D01*
X138737104Y-77681247D01*
X138726089Y-77672442D01*
X138719058Y-77675996D01*
X138648983Y-77763778D01*
X138642310Y-77774054D01*
X138557006Y-77938621D01*
X138550163Y-77955729D01*
X138547756Y-77954766D01*
X138515634Y-78005082D01*
X138451142Y-78034770D01*
X138439689Y-78035707D01*
X138436605Y-78035459D01*
X138430486Y-78036167D01*
X138430481Y-78036167D01*
X138249317Y-78057128D01*
X138240138Y-78058190D01*
X138234276Y-78060072D01*
X138234272Y-78060073D01*
X138110834Y-78099705D01*
X138051828Y-78118650D01*
X137878849Y-78214533D01*
X137874148Y-78218505D01*
X137874143Y-78218509D01*
X137834376Y-78252115D01*
X137727787Y-78342189D01*
X137604396Y-78496756D01*
X137601562Y-78502224D01*
X137601559Y-78502228D01*
X137601491Y-78502359D01*
X137601438Y-78502415D01*
X137598202Y-78507397D01*
X137597255Y-78506782D01*
X137552382Y-78553631D01*
X137498023Y-78567197D01*
X137498271Y-78569442D01*
X137489351Y-78570427D01*
X137480378Y-78570137D01*
X137339328Y-78606483D01*
X137284517Y-78636616D01*
X137281721Y-78638574D01*
X137281719Y-78638575D01*
X136389291Y-79263459D01*
X136389284Y-79263465D01*
X136386507Y-79265409D01*
X136383951Y-79267647D01*
X136383948Y-79267649D01*
X136349758Y-79297581D01*
X136339445Y-79306609D01*
X136257048Y-79426721D01*
X136211675Y-79565131D01*
X136211385Y-79574101D01*
X136211385Y-79574103D01*
X136209371Y-79636453D01*
X136206973Y-79710713D01*
X132129493Y-79710713D01*
X133446817Y-78950133D01*
X134895035Y-78113979D01*
X134913958Y-78105059D01*
X134932858Y-78098003D01*
X134943791Y-78091861D01*
X134947613Y-78088856D01*
X134947883Y-78088676D01*
X134955473Y-78083183D01*
X135110954Y-77979794D01*
X135179939Y-77933922D01*
X135296681Y-77833080D01*
X135391898Y-77750832D01*
X135391900Y-77750830D01*
X135394895Y-77748243D01*
X135495492Y-77636446D01*
X135582245Y-77540034D01*
X135582248Y-77540031D01*
X135584891Y-77537093D01*
X135746932Y-77303801D01*
X135878463Y-77052042D01*
X135940429Y-76885305D01*
X135976037Y-76789491D01*
X135976039Y-76789483D01*
X135977413Y-76785787D01*
X136042220Y-76509232D01*
X136071863Y-76226736D01*
X136071780Y-76222783D01*
X136065959Y-75946717D01*
X136065958Y-75946711D01*
X136065875Y-75942752D01*
X136060814Y-75908500D01*
X136051187Y-75843355D01*
X136024351Y-75661756D01*
X135947944Y-75388179D01*
X135940956Y-75371556D01*
X135880852Y-75228593D01*
X135837860Y-75126331D01*
X135835885Y-75122910D01*
X135697812Y-74883766D01*
X135697808Y-74883760D01*
X135695834Y-74880341D01*
X135524103Y-74654085D01*
X135478930Y-74607951D01*
X135328142Y-74453956D01*
X135328135Y-74453950D01*
X135325376Y-74451132D01*
X135102784Y-74274678D01*
X134859837Y-74127507D01*
X134856226Y-74125899D01*
X134856221Y-74125896D01*
X134603980Y-74013547D01*
X134603972Y-74013544D01*
X134600364Y-74011937D01*
X134468269Y-73972030D01*
X134332249Y-73930937D01*
X134332242Y-73930935D01*
X134328454Y-73929791D01*
X134257054Y-73917699D01*
X134052301Y-73883024D01*
X134052293Y-73883023D01*
X134048395Y-73882363D01*
X134044438Y-73882196D01*
X134044436Y-73882196D01*
X133952203Y-73878309D01*
X133764600Y-73870401D01*
X133760658Y-73870731D01*
X133760656Y-73870731D01*
X133677634Y-73877680D01*
X133481542Y-73894094D01*
X133203685Y-73953067D01*
X133199943Y-73954369D01*
X133199942Y-73954369D01*
X133104106Y-73987707D01*
X132935406Y-74046392D01*
X132931855Y-74048153D01*
X132931853Y-74048154D01*
X132709963Y-74158201D01*
X132697961Y-74163396D01*
X132696059Y-74164104D01*
X132696050Y-74164108D01*
X132691494Y-74165805D01*
X132680556Y-74171938D01*
X132676736Y-74174936D01*
X132676729Y-74174941D01*
X132658529Y-74189227D01*
X132643738Y-74199228D01*
X130540548Y-75413540D01*
X130471555Y-75430279D01*
X130404463Y-75407060D01*
X130360575Y-75351253D01*
X130353826Y-75280578D01*
X130376921Y-75228593D01*
X130653042Y-74862168D01*
X130653046Y-74862163D01*
X130655095Y-74859443D01*
X130674363Y-74827120D01*
X130683076Y-74812505D01*
X130683077Y-74812502D01*
X130687122Y-74805717D01*
X130690039Y-74795840D01*
X130717120Y-74704121D01*
X130728369Y-74666022D01*
X130728393Y-74657045D01*
X130729689Y-74648160D01*
X130732192Y-74648525D01*
X130748559Y-74593311D01*
X130790313Y-74553463D01*
X130793850Y-74551844D01*
X130798843Y-74548243D01*
X130798848Y-74548240D01*
X130949265Y-74439755D01*
X130949268Y-74439752D01*
X130954260Y-74436152D01*
X131089143Y-74291507D01*
X131092387Y-74286275D01*
X131092390Y-74286271D01*
X131188425Y-74131382D01*
X131193363Y-74123418D01*
X131234661Y-74013547D01*
X131260783Y-73944053D01*
X131260784Y-73944050D01*
X131262950Y-73938287D01*
X131295252Y-73743165D01*
X131295058Y-73737005D01*
X131295467Y-73730855D01*
X131297841Y-73731013D01*
X131313048Y-73672497D01*
X131365220Y-73624345D01*
X131380107Y-73618127D01*
X131383766Y-73616867D01*
X131552300Y-73539706D01*
X131562901Y-73533536D01*
X131660806Y-73462925D01*
X131669457Y-73451787D01*
X131665991Y-73445163D01*
X130978603Y-72927179D01*
X129890923Y-72107553D01*
X129877727Y-72102583D01*
X129872139Y-72108136D01*
X129832619Y-72213275D01*
X129829446Y-72225118D01*
X129799173Y-72407985D01*
X129797951Y-72426376D01*
X129795369Y-72426204D01*
X129780343Y-72484009D01*
X129728168Y-72532158D01*
X129717594Y-72536574D01*
X129714586Y-72537291D01*
X129534760Y-72619622D01*
X129374350Y-72735314D01*
X129239467Y-72879958D01*
X129236220Y-72885195D01*
X129138491Y-73042815D01*
X129138489Y-73042820D01*
X129135247Y-73048048D01*
X129133080Y-73053813D01*
X129069715Y-73222392D01*
X129065660Y-73233179D01*
X129064632Y-73239390D01*
X129064601Y-73239455D01*
X129063058Y-73245212D01*
X129061964Y-73244919D01*
X129033777Y-73303331D01*
X128986261Y-73333038D01*
X128987191Y-73335098D01*
X128979015Y-73338790D01*
X128970388Y-73341288D01*
X128930525Y-73366635D01*
X128854139Y-73415204D01*
X128854137Y-73415206D01*
X128847473Y-73419443D01*
X128842066Y-73425201D01*
X128806990Y-73462552D01*
X128806985Y-73462558D01*
X128804656Y-73465038D01*
X128802612Y-73467751D01*
X128802604Y-73467760D01*
X128146958Y-74337832D01*
X128144905Y-74340557D01*
X128140085Y-74348643D01*
X128117039Y-74387303D01*
X128112878Y-74394283D01*
X128110641Y-74401861D01*
X128110640Y-74401862D01*
X128097464Y-74446488D01*
X128071631Y-74533978D01*
X128071515Y-74578401D01*
X128071286Y-74666022D01*
X128071250Y-74679635D01*
X128111765Y-74819544D01*
X128116582Y-74827120D01*
X128164378Y-74902290D01*
X128189919Y-74942460D01*
X128235515Y-74985276D01*
X128238234Y-74987325D01*
X128238240Y-74987330D01*
X128888559Y-75477380D01*
X129350624Y-75825571D01*
X129392947Y-75850801D01*
X129400495Y-75855301D01*
X129448765Y-75907364D01*
X129461225Y-75977259D01*
X129433919Y-76042794D01*
X129398977Y-76072646D01*
X127100177Y-77399897D01*
X127081163Y-77408851D01*
X127062494Y-77415805D01*
X127058257Y-77418181D01*
X127058250Y-77418184D01*
X127056057Y-77419414D01*
X127051556Y-77421938D01*
X127047728Y-77424943D01*
X127047452Y-77425127D01*
X127039850Y-77430621D01*
X126828946Y-77570635D01*
X126815172Y-77579779D01*
X126812171Y-77582368D01*
X126812164Y-77582373D01*
X126695362Y-77683127D01*
X126599982Y-77765402D01*
X126597326Y-77768350D01*
X126597325Y-77768351D01*
X126468278Y-77911586D01*
X126409760Y-77976538D01*
X126368785Y-78035459D01*
X126250068Y-78206173D01*
X126247507Y-78209855D01*
X126115785Y-78461673D01*
X126114402Y-78465390D01*
X126114400Y-78465394D01*
X126030345Y-78691269D01*
X126016670Y-78728017D01*
X126015764Y-78731877D01*
X126015763Y-78731880D01*
X126004377Y-78780388D01*
X125951727Y-79004685D01*
X125921981Y-79287312D01*
X122915862Y-79287312D01*
X122925655Y-79267409D01*
X122992690Y-79131176D01*
X122992692Y-79131171D01*
X122995409Y-79125649D01*
X123012222Y-79062902D01*
X123045004Y-78940558D01*
X123045004Y-78940556D01*
X123046597Y-78934612D01*
X123048997Y-78898476D01*
X123059296Y-78743418D01*
X123059296Y-78743414D01*
X123059704Y-78737269D01*
X123058503Y-78728017D01*
X123035026Y-78547250D01*
X123035025Y-78547247D01*
X123034232Y-78541139D01*
X123023536Y-78509355D01*
X122973111Y-78359524D01*
X122973110Y-78359522D01*
X122971148Y-78353692D01*
X122968090Y-78348353D01*
X122965560Y-78342723D01*
X122967725Y-78341750D01*
X122953688Y-78282910D01*
X122977164Y-78215907D01*
X122987372Y-78203452D01*
X122990008Y-78200625D01*
X123102590Y-78053374D01*
X123109055Y-78042947D01*
X123162349Y-77934640D01*
X123164758Y-77920745D01*
X123158587Y-77916522D01*
X122308482Y-77781879D01*
X120963328Y-77568827D01*
X120949342Y-77570635D01*
X120947014Y-77578162D01*
X120961481Y-77689551D01*
X120964238Y-77701490D01*
X121023362Y-77877173D01*
X121030914Y-77893977D01*
X121028555Y-77895037D01*
X121042426Y-77953135D01*
X121018961Y-78020142D01*
X121011704Y-78028998D01*
X121009379Y-78031048D01*
X120889254Y-78188165D01*
X120886535Y-78193691D01*
X120804654Y-78360096D01*
X120804652Y-78360101D01*
X120801935Y-78365623D01*
X120750747Y-78556660D01*
X120749345Y-78577763D01*
X120739152Y-78731226D01*
X120737639Y-78754002D01*
X120738432Y-78760107D01*
X120738432Y-78760111D01*
X120761868Y-78940558D01*
X120763112Y-78950133D01*
X120765076Y-78955968D01*
X120765076Y-78955969D01*
X120765123Y-78956109D01*
X120765126Y-78956186D01*
X120766463Y-78961977D01*
X120765362Y-78962231D01*
X120767892Y-79027051D01*
X120739886Y-79075577D01*
X120741676Y-79076960D01*
X120736189Y-79084059D01*
X120729746Y-79090314D01*
X120657909Y-79217025D01*
X120655838Y-79224649D01*
X120642406Y-79274085D01*
X120642404Y-79274095D01*
X120641510Y-79277385D01*
X120640976Y-79280754D01*
X120640976Y-79280756D01*
X120564971Y-79760634D01*
X120534559Y-79824787D01*
X120474290Y-79862314D01*
X120403301Y-79861300D01*
X120367534Y-79843630D01*
X120130087Y-79674885D01*
X119887835Y-79533891D01*
X119763001Y-79461236D01*
X119762996Y-79461233D01*
X119760528Y-79459797D01*
X119513103Y-79344421D01*
X119375592Y-79280298D01*
X119375582Y-79280294D01*
X119372996Y-79279088D01*
X119341223Y-79267649D01*
X118973371Y-79135213D01*
X118973362Y-79135210D01*
X118970681Y-79134245D01*
X118575775Y-79031380D01*
X118559663Y-79027183D01*
X118559657Y-79027182D01*
X118556894Y-79026462D01*
X118135041Y-78956625D01*
X118132198Y-78956416D01*
X118132196Y-78956416D01*
X117711441Y-78925518D01*
X117708595Y-78925309D01*
X117530858Y-78928411D01*
X117283917Y-78932721D01*
X117283912Y-78932721D01*
X117281066Y-78932771D01*
X117278233Y-78933079D01*
X117278229Y-78933079D01*
X116935815Y-78970277D01*
X116855973Y-78978951D01*
X116436815Y-79063468D01*
X116434082Y-79064283D01*
X116434077Y-79064284D01*
X116199399Y-79134245D01*
X116027042Y-79185627D01*
X116024381Y-79186691D01*
X116024379Y-79186692D01*
X115632687Y-79343357D01*
X115630027Y-79344421D01*
X115468171Y-79426891D01*
X115251581Y-79537249D01*
X115251576Y-79537252D01*
X115249038Y-79538545D01*
X115246619Y-79540068D01*
X115246616Y-79540070D01*
X115131182Y-79612763D01*
X114887210Y-79766400D01*
X114547523Y-80026110D01*
X114545428Y-80028036D01*
X114545419Y-80028044D01*
X114234877Y-80313604D01*
X114232773Y-80315539D01*
X113945549Y-80632302D01*
X113943825Y-80634589D01*
X113943824Y-80634591D01*
X113897018Y-80696705D01*
X113688216Y-80973794D01*
X113605027Y-81107965D01*
X113509685Y-81261735D01*
X113456789Y-81309091D01*
X113386688Y-81320330D01*
X113321638Y-81291886D01*
X113290955Y-81249667D01*
X113289590Y-81250381D01*
X113274972Y-81222420D01*
X113197960Y-81075110D01*
X113074032Y-80920975D01*
X113067727Y-80915684D01*
X112995133Y-80854771D01*
X112922526Y-80793846D01*
X112917128Y-80790879D01*
X112917123Y-80790875D01*
X112754608Y-80701533D01*
X112754609Y-80701533D01*
X112749213Y-80698567D01*
X112743346Y-80696706D01*
X112743344Y-80696705D01*
X112566564Y-80640627D01*
X112566563Y-80640627D01*
X112560694Y-80638765D01*
X112406773Y-80621500D01*
X112000231Y-80621500D01*
X111997175Y-80621800D01*
X111997168Y-80621800D01*
X111948595Y-80626563D01*
X111853167Y-80635920D01*
X111847266Y-80637702D01*
X111847264Y-80637702D01*
X111814587Y-80647568D01*
X111663831Y-80693084D01*
X111489204Y-80785934D01*
X111422741Y-80840140D01*
X111340713Y-80907040D01*
X111340710Y-80907043D01*
X111335938Y-80910935D01*
X111332011Y-80915682D01*
X111332009Y-80915684D01*
X111213799Y-81058575D01*
X111213797Y-81058579D01*
X111209870Y-81063325D01*
X111115802Y-81237299D01*
X111057318Y-81426232D01*
X111056674Y-81432357D01*
X111056674Y-81432358D01*
X111043268Y-81559915D01*
X111036645Y-81622925D01*
X111054570Y-81819888D01*
X111056308Y-81825794D01*
X111056309Y-81825798D01*
X111079049Y-81903061D01*
X111110410Y-82009619D01*
X111113263Y-82015077D01*
X111113265Y-82015081D01*
X111128609Y-82044431D01*
X111202040Y-82184890D01*
X111205900Y-82189690D01*
X111209274Y-82194847D01*
X111207281Y-82196151D01*
X111230354Y-82252023D01*
X111217674Y-82321878D01*
X111209522Y-82335814D01*
X111207360Y-82339020D01*
X111119196Y-82502076D01*
X111114444Y-82513381D01*
X111078750Y-82628692D01*
X111078544Y-82642795D01*
X111085299Y-82646000D01*
X112328000Y-82646000D01*
X112396121Y-82666002D01*
X112442614Y-82719658D01*
X112454000Y-82772000D01*
X112454000Y-83028000D01*
X112433998Y-83096121D01*
X112380342Y-83142614D01*
X112328000Y-83154000D01*
X111092076Y-83154000D01*
X111078545Y-83157973D01*
X111077425Y-83165768D01*
X111109138Y-83273521D01*
X111113731Y-83284889D01*
X111199607Y-83449154D01*
X111209697Y-83464574D01*
X111207522Y-83465997D01*
X111230314Y-83521136D01*
X111217657Y-83590995D01*
X111211839Y-83600945D01*
X111209870Y-83603325D01*
X111115802Y-83777299D01*
X111057318Y-83966232D01*
X111056674Y-83972357D01*
X111056674Y-83972358D01*
X111037783Y-84152102D01*
X111036645Y-84162925D01*
X105600000Y-84162925D01*
X105600000Y-82703539D01*
X105620002Y-82635418D01*
X105663000Y-82594420D01*
X115245728Y-77061799D01*
X121029930Y-77061799D01*
X121036101Y-77066022D01*
X121886206Y-77200665D01*
X123231360Y-77413717D01*
X123245346Y-77411909D01*
X123247674Y-77404383D01*
X123233207Y-77293000D01*
X123230449Y-77281052D01*
X123171325Y-77105371D01*
X123163773Y-77088567D01*
X123166132Y-77087507D01*
X123152261Y-77029409D01*
X123175726Y-76962402D01*
X123182983Y-76953546D01*
X123185308Y-76951496D01*
X123200690Y-76931378D01*
X123235915Y-76885305D01*
X123305434Y-76794379D01*
X123350769Y-76702245D01*
X123390034Y-76622448D01*
X123390036Y-76622443D01*
X123392753Y-76616921D01*
X123429112Y-76481226D01*
X123442348Y-76431830D01*
X123442348Y-76431828D01*
X123443941Y-76425884D01*
X123448391Y-76358882D01*
X123456640Y-76234690D01*
X123456640Y-76234686D01*
X123457048Y-76228541D01*
X123455932Y-76219942D01*
X123432370Y-76038522D01*
X123432369Y-76038519D01*
X123431576Y-76032411D01*
X123426621Y-76017686D01*
X123403841Y-75950000D01*
X126086496Y-75950000D01*
X126087186Y-75956565D01*
X126099387Y-76072647D01*
X126106458Y-76139928D01*
X126165473Y-76321556D01*
X126260960Y-76486944D01*
X126265378Y-76491851D01*
X126265379Y-76491852D01*
X126344103Y-76579284D01*
X126388747Y-76628866D01*
X126419779Y-76651412D01*
X126535213Y-76735280D01*
X126543248Y-76741118D01*
X126549276Y-76743802D01*
X126549278Y-76743803D01*
X126679437Y-76801753D01*
X126717712Y-76818794D01*
X126811113Y-76838647D01*
X126898056Y-76857128D01*
X126898061Y-76857128D01*
X126904513Y-76858500D01*
X127095487Y-76858500D01*
X127101939Y-76857128D01*
X127101944Y-76857128D01*
X127188887Y-76838647D01*
X127282288Y-76818794D01*
X127320563Y-76801753D01*
X127450722Y-76743803D01*
X127450724Y-76743802D01*
X127456752Y-76741118D01*
X127464788Y-76735280D01*
X127580221Y-76651412D01*
X127611253Y-76628866D01*
X127655897Y-76579284D01*
X127734621Y-76491852D01*
X127734622Y-76491851D01*
X127739040Y-76486944D01*
X127834527Y-76321556D01*
X127893542Y-76139928D01*
X127900614Y-76072647D01*
X127912814Y-75956565D01*
X127913504Y-75950000D01*
X127908168Y-75899227D01*
X127894232Y-75766635D01*
X127894232Y-75766633D01*
X127893542Y-75760072D01*
X127834527Y-75578444D01*
X127808616Y-75533564D01*
X127779542Y-75483207D01*
X127739040Y-75413056D01*
X127665863Y-75331785D01*
X127635147Y-75267779D01*
X127633500Y-75247476D01*
X127633500Y-74252524D01*
X127653502Y-74184403D01*
X127665858Y-74168221D01*
X127739040Y-74086944D01*
X127834527Y-73921556D01*
X127893542Y-73739928D01*
X127898821Y-73689707D01*
X127912814Y-73556565D01*
X127913504Y-73550000D01*
X127911774Y-73533536D01*
X127894232Y-73366635D01*
X127894232Y-73366633D01*
X127893542Y-73360072D01*
X127834527Y-73178444D01*
X127739040Y-73013056D01*
X127691212Y-72959937D01*
X127615675Y-72876045D01*
X127615674Y-72876044D01*
X127611253Y-72871134D01*
X127456752Y-72758882D01*
X127450724Y-72756198D01*
X127450722Y-72756197D01*
X127288319Y-72683891D01*
X127288318Y-72683891D01*
X127282288Y-72681206D01*
X127177432Y-72658918D01*
X127101944Y-72642872D01*
X127101939Y-72642872D01*
X127095487Y-72641500D01*
X126904513Y-72641500D01*
X126898061Y-72642872D01*
X126898056Y-72642872D01*
X126822568Y-72658918D01*
X126717712Y-72681206D01*
X126711682Y-72683891D01*
X126711681Y-72683891D01*
X126549278Y-72756197D01*
X126549276Y-72756198D01*
X126543248Y-72758882D01*
X126388747Y-72871134D01*
X126384326Y-72876044D01*
X126384325Y-72876045D01*
X126308789Y-72959937D01*
X126260960Y-73013056D01*
X126165473Y-73178444D01*
X126106458Y-73360072D01*
X126105768Y-73366633D01*
X126105768Y-73366635D01*
X126088226Y-73533536D01*
X126086496Y-73550000D01*
X126087186Y-73556565D01*
X126101180Y-73689707D01*
X126106458Y-73739928D01*
X126165473Y-73921556D01*
X126260960Y-74086944D01*
X126334137Y-74168215D01*
X126364853Y-74232221D01*
X126366500Y-74252524D01*
X126366500Y-75247476D01*
X126346498Y-75315597D01*
X126334142Y-75331779D01*
X126260960Y-75413056D01*
X126220458Y-75483207D01*
X126191385Y-75533564D01*
X126165473Y-75578444D01*
X126106458Y-75760072D01*
X126105768Y-75766633D01*
X126105768Y-75766635D01*
X126091832Y-75899227D01*
X126086496Y-75950000D01*
X123403841Y-75950000D01*
X123392586Y-75916556D01*
X123368492Y-75844964D01*
X123319874Y-75760072D01*
X123273268Y-75678693D01*
X123273266Y-75678691D01*
X123270202Y-75673340D01*
X123266158Y-75668688D01*
X123266156Y-75668685D01*
X123167234Y-75554890D01*
X123140448Y-75524076D01*
X122991448Y-75408500D01*
X122989041Y-75406633D01*
X122989040Y-75406632D01*
X122984174Y-75402858D01*
X122978667Y-75400100D01*
X122978665Y-75400099D01*
X122881122Y-75351253D01*
X122807331Y-75314301D01*
X122658006Y-75273170D01*
X122654536Y-75272620D01*
X122654534Y-75272620D01*
X122259501Y-75210054D01*
X122259500Y-75210054D01*
X122256470Y-75209574D01*
X122108961Y-75200810D01*
X122102859Y-75201646D01*
X122102855Y-75201646D01*
X122006406Y-75214859D01*
X121913013Y-75227652D01*
X121907179Y-75229661D01*
X121907178Y-75229661D01*
X121731839Y-75290034D01*
X121731834Y-75290037D01*
X121726012Y-75292041D01*
X121720694Y-75295136D01*
X121720690Y-75295138D01*
X121653826Y-75334054D01*
X121555078Y-75391527D01*
X121550456Y-75395602D01*
X121550453Y-75395604D01*
X121422308Y-75508580D01*
X121406723Y-75522320D01*
X121286598Y-75679437D01*
X121283879Y-75684963D01*
X121201998Y-75851368D01*
X121201996Y-75851373D01*
X121199279Y-75856895D01*
X121148091Y-76047932D01*
X121147683Y-76054077D01*
X121135624Y-76235627D01*
X121134983Y-76245274D01*
X121135776Y-76251379D01*
X121135776Y-76251383D01*
X121157642Y-76419740D01*
X121160456Y-76441405D01*
X121223539Y-76628852D01*
X121226602Y-76634200D01*
X121229128Y-76639821D01*
X121226958Y-76640796D01*
X121241002Y-76699602D01*
X121217543Y-76766611D01*
X121207316Y-76779093D01*
X121204671Y-76781930D01*
X121092096Y-76929171D01*
X121085635Y-76939592D01*
X121032339Y-77047904D01*
X121029930Y-77061799D01*
X115245728Y-77061799D01*
X124547926Y-71691143D01*
X130187765Y-71691143D01*
X130191231Y-71697767D01*
X130878619Y-72215751D01*
X131966299Y-73035377D01*
X131979495Y-73040347D01*
X131985083Y-73034794D01*
X132024603Y-72929655D01*
X132027776Y-72917812D01*
X132058049Y-72734945D01*
X132059271Y-72716555D01*
X132061853Y-72716727D01*
X132076880Y-72658918D01*
X132129056Y-72610771D01*
X132139622Y-72606358D01*
X132142635Y-72605640D01*
X132322461Y-72523309D01*
X132386886Y-72476844D01*
X132477876Y-72411220D01*
X132477879Y-72411217D01*
X132482871Y-72407617D01*
X132617754Y-72262972D01*
X132620998Y-72257740D01*
X132621001Y-72257736D01*
X132718728Y-72100118D01*
X132721974Y-72094883D01*
X132765855Y-71978141D01*
X132789394Y-71915518D01*
X132789395Y-71915515D01*
X132791561Y-71909752D01*
X132823863Y-71714630D01*
X132819718Y-71582749D01*
X132817844Y-71523111D01*
X132817843Y-71523107D01*
X132817650Y-71516951D01*
X132773160Y-71324242D01*
X132692087Y-71143847D01*
X132613845Y-71033749D01*
X132581092Y-70987660D01*
X132581089Y-70987657D01*
X132577519Y-70982633D01*
X132464982Y-70876213D01*
X132140304Y-70631550D01*
X132069814Y-70588523D01*
X132019431Y-70557769D01*
X132019429Y-70557768D01*
X132014175Y-70554561D01*
X132008398Y-70552436D01*
X132008395Y-70552434D01*
X131943191Y-70528444D01*
X131828563Y-70486269D01*
X131822483Y-70485306D01*
X131822479Y-70485305D01*
X131639302Y-70456292D01*
X131639300Y-70456292D01*
X131633221Y-70455329D01*
X131627071Y-70455565D01*
X131627067Y-70455565D01*
X131538306Y-70458976D01*
X131435590Y-70462922D01*
X131429600Y-70464349D01*
X131249190Y-70507328D01*
X131249187Y-70507329D01*
X131243197Y-70508756D01*
X131237599Y-70511319D01*
X131237596Y-70511320D01*
X131186467Y-70534729D01*
X131063371Y-70591087D01*
X130902961Y-70706779D01*
X130768078Y-70851423D01*
X130764831Y-70856660D01*
X130667102Y-71014280D01*
X130667100Y-71014285D01*
X130663858Y-71019513D01*
X130661691Y-71025278D01*
X130601165Y-71186304D01*
X130594271Y-71204644D01*
X130561969Y-71399766D01*
X130562163Y-71405926D01*
X130561754Y-71412075D01*
X130559380Y-71411917D01*
X130544173Y-71470433D01*
X130492001Y-71518585D01*
X130477118Y-71524802D01*
X130473454Y-71526064D01*
X130304922Y-71603224D01*
X130294321Y-71609394D01*
X130196416Y-71680005D01*
X130187765Y-71691143D01*
X124547926Y-71691143D01*
X129035893Y-69100000D01*
X133636496Y-69100000D01*
X133637186Y-69106565D01*
X133655371Y-69279582D01*
X133656458Y-69289928D01*
X133715473Y-69471556D01*
X133718776Y-69477278D01*
X133718777Y-69477279D01*
X133726472Y-69490607D01*
X133810960Y-69636944D01*
X133815378Y-69641851D01*
X133815379Y-69641852D01*
X133921115Y-69759284D01*
X133938747Y-69778866D01*
X133991435Y-69817146D01*
X134066727Y-69871849D01*
X134093248Y-69891118D01*
X134099276Y-69893802D01*
X134099278Y-69893803D01*
X134261681Y-69966109D01*
X134267712Y-69968794D01*
X134351087Y-69986516D01*
X134448056Y-70007128D01*
X134448061Y-70007128D01*
X134454513Y-70008500D01*
X134560406Y-70008500D01*
X134628527Y-70028502D01*
X134649501Y-70045405D01*
X135452878Y-70848782D01*
X135486904Y-70911094D01*
X135489092Y-70924703D01*
X135497652Y-71006144D01*
X135499590Y-71024578D01*
X135506458Y-71089928D01*
X135565473Y-71271556D01*
X135568776Y-71277278D01*
X135568777Y-71277279D01*
X135591171Y-71316067D01*
X135660960Y-71436944D01*
X135665378Y-71441851D01*
X135665379Y-71441852D01*
X135781666Y-71571002D01*
X135788747Y-71578866D01*
X135869328Y-71637412D01*
X135929815Y-71681358D01*
X135943248Y-71691118D01*
X135949276Y-71693802D01*
X135949278Y-71693803D01*
X136076382Y-71750393D01*
X136117712Y-71768794D01*
X136211113Y-71788647D01*
X136298056Y-71807128D01*
X136298061Y-71807128D01*
X136304513Y-71808500D01*
X136450633Y-71808500D01*
X136518754Y-71828502D01*
X136565247Y-71882158D01*
X136575351Y-71952432D01*
X136545857Y-72017012D01*
X136501882Y-72049607D01*
X136374778Y-72106197D01*
X136374776Y-72106198D01*
X136368748Y-72108882D01*
X136214247Y-72221134D01*
X136209826Y-72226044D01*
X136209825Y-72226045D01*
X136102114Y-72345671D01*
X136086460Y-72363056D01*
X135990973Y-72528444D01*
X135931958Y-72710072D01*
X135931268Y-72716633D01*
X135931268Y-72716635D01*
X135929684Y-72731707D01*
X135911996Y-72900000D01*
X135912686Y-72906565D01*
X135926225Y-73035377D01*
X135931958Y-73089928D01*
X135990973Y-73271556D01*
X136086460Y-73436944D01*
X136090878Y-73441851D01*
X136090879Y-73441852D01*
X136209825Y-73573955D01*
X136214247Y-73578866D01*
X136280546Y-73627035D01*
X136339528Y-73669888D01*
X136368748Y-73691118D01*
X136374776Y-73693802D01*
X136374778Y-73693803D01*
X136526254Y-73761244D01*
X136543212Y-73768794D01*
X136636613Y-73788647D01*
X136723556Y-73807128D01*
X136723561Y-73807128D01*
X136730013Y-73808500D01*
X136785906Y-73808500D01*
X136854027Y-73828502D01*
X136875001Y-73845405D01*
X136929595Y-73899999D01*
X136963621Y-73962311D01*
X136966500Y-73989094D01*
X136966500Y-75965897D01*
X136946498Y-76034018D01*
X136922104Y-76059844D01*
X136923005Y-76060844D01*
X136918093Y-76065267D01*
X136912753Y-76069147D01*
X136784966Y-76211069D01*
X136689479Y-76376457D01*
X136630464Y-76558085D01*
X136629774Y-76564646D01*
X136629774Y-76564648D01*
X136622292Y-76635839D01*
X136610502Y-76748013D01*
X136611192Y-76754578D01*
X136622115Y-76858500D01*
X136630464Y-76937941D01*
X136689479Y-77119569D01*
X136692782Y-77125291D01*
X136692783Y-77125292D01*
X136707048Y-77150000D01*
X136784966Y-77284957D01*
X136789384Y-77289864D01*
X136789385Y-77289865D01*
X136893207Y-77405171D01*
X136912753Y-77426879D01*
X137067254Y-77539131D01*
X137073282Y-77541815D01*
X137073284Y-77541816D01*
X137235687Y-77614122D01*
X137241718Y-77616807D01*
X137334112Y-77636446D01*
X137422062Y-77655141D01*
X137422067Y-77655141D01*
X137428519Y-77656513D01*
X137619493Y-77656513D01*
X137625945Y-77655141D01*
X137625950Y-77655141D01*
X137713900Y-77636446D01*
X137806294Y-77616807D01*
X137812325Y-77614122D01*
X137974728Y-77541816D01*
X137974730Y-77541815D01*
X137980758Y-77539131D01*
X138135259Y-77426879D01*
X138154805Y-77405171D01*
X138258627Y-77289865D01*
X138258628Y-77289864D01*
X138263046Y-77284957D01*
X138340964Y-77150000D01*
X138355229Y-77125292D01*
X138355230Y-77125291D01*
X138358533Y-77119569D01*
X138417548Y-76937941D01*
X138425898Y-76858500D01*
X138436820Y-76754578D01*
X138437510Y-76748013D01*
X138425720Y-76635839D01*
X138418238Y-76564648D01*
X138418238Y-76564646D01*
X138417548Y-76558085D01*
X138358533Y-76376457D01*
X138300971Y-76276756D01*
X138266348Y-76216788D01*
X138266347Y-76216787D01*
X138263046Y-76211069D01*
X138258627Y-76206161D01*
X138257564Y-76204698D01*
X138233500Y-76130637D01*
X138233500Y-74473361D01*
X138253502Y-74405240D01*
X138307158Y-74358747D01*
X138377432Y-74348643D01*
X138437764Y-74374615D01*
X138582931Y-74489676D01*
X138645936Y-74527835D01*
X138693840Y-74580231D01*
X138705812Y-74650211D01*
X138700494Y-74674544D01*
X138656458Y-74810072D01*
X138655768Y-74816633D01*
X138655768Y-74816635D01*
X138643244Y-74935795D01*
X138636496Y-75000000D01*
X138637186Y-75006565D01*
X138650157Y-75129973D01*
X138656458Y-75189928D01*
X138715473Y-75371556D01*
X138718776Y-75377278D01*
X138718777Y-75377279D01*
X138740236Y-75414447D01*
X138810960Y-75536944D01*
X138815378Y-75541851D01*
X138815379Y-75541852D01*
X138929580Y-75668685D01*
X138938747Y-75678866D01*
X139093248Y-75791118D01*
X139099276Y-75793802D01*
X139099278Y-75793803D01*
X139228572Y-75851368D01*
X139267712Y-75868794D01*
X139361112Y-75888647D01*
X139448056Y-75907128D01*
X139448061Y-75907128D01*
X139454513Y-75908500D01*
X139645487Y-75908500D01*
X139651939Y-75907128D01*
X139651944Y-75907128D01*
X139738888Y-75888647D01*
X139832288Y-75868794D01*
X139871428Y-75851368D01*
X140000722Y-75793803D01*
X140000724Y-75793802D01*
X140006752Y-75791118D01*
X140068973Y-75745912D01*
X140152861Y-75684963D01*
X140161253Y-75678866D01*
X140165668Y-75673963D01*
X140170580Y-75669540D01*
X140171705Y-75670789D01*
X140225014Y-75637949D01*
X140258200Y-75633500D01*
X142921233Y-75633500D01*
X142932416Y-75634027D01*
X142939909Y-75635702D01*
X142947835Y-75635453D01*
X142947836Y-75635453D01*
X143007986Y-75633562D01*
X143011945Y-75633500D01*
X143039856Y-75633500D01*
X143043791Y-75633003D01*
X143043856Y-75632995D01*
X143055693Y-75632062D01*
X143087951Y-75631048D01*
X143091970Y-75630922D01*
X143099889Y-75630673D01*
X143119343Y-75625021D01*
X143138700Y-75621013D01*
X143150930Y-75619468D01*
X143150931Y-75619468D01*
X143158797Y-75618474D01*
X143166168Y-75615555D01*
X143166170Y-75615555D01*
X143199912Y-75602196D01*
X143211142Y-75598351D01*
X143245983Y-75588229D01*
X143245984Y-75588229D01*
X143253593Y-75586018D01*
X143260412Y-75581985D01*
X143260417Y-75581983D01*
X143271028Y-75575707D01*
X143288776Y-75567012D01*
X143307617Y-75559552D01*
X143343387Y-75533564D01*
X143353307Y-75527048D01*
X143384535Y-75508580D01*
X143384538Y-75508578D01*
X143391362Y-75504542D01*
X143405683Y-75490221D01*
X143420717Y-75477380D01*
X143430693Y-75470132D01*
X143437107Y-75465472D01*
X143446442Y-75454187D01*
X143505275Y-75414447D01*
X143543529Y-75408500D01*
X143595487Y-75408500D01*
X143601939Y-75407128D01*
X143601944Y-75407128D01*
X143691089Y-75388179D01*
X143782288Y-75368794D01*
X143860316Y-75334054D01*
X143950722Y-75293803D01*
X143950724Y-75293802D01*
X143956752Y-75291118D01*
X144111253Y-75178866D01*
X144123563Y-75165194D01*
X147862831Y-75165194D01*
X147869023Y-75170063D01*
X147978192Y-75196474D01*
X147990344Y-75198181D01*
X148175526Y-75205943D01*
X148193934Y-75204914D01*
X148194079Y-75207502D01*
X148253261Y-75215357D01*
X148307418Y-75261265D01*
X148313101Y-75271239D01*
X148314180Y-75274141D01*
X148317408Y-75279388D01*
X148317409Y-75279390D01*
X148339684Y-75315597D01*
X148417812Y-75442593D01*
X148421993Y-75447108D01*
X148421996Y-75447112D01*
X148450025Y-75477380D01*
X148552191Y-75587708D01*
X148557175Y-75591329D01*
X148557176Y-75591330D01*
X148707212Y-75700337D01*
X148712196Y-75703958D01*
X148717787Y-75706541D01*
X148717788Y-75706542D01*
X148736775Y-75715315D01*
X148891733Y-75786916D01*
X148983865Y-75809205D01*
X149077974Y-75831973D01*
X149077978Y-75831974D01*
X149083965Y-75833422D01*
X149167969Y-75836943D01*
X149275406Y-75841446D01*
X149275409Y-75841446D01*
X149281569Y-75841704D01*
X149385779Y-75825571D01*
X149470934Y-75812388D01*
X149470935Y-75812388D01*
X149477018Y-75811446D01*
X149662868Y-75743803D01*
X149714787Y-75712360D01*
X149826769Y-75644541D01*
X149826772Y-75644539D01*
X149832039Y-75641349D01*
X149926723Y-75554890D01*
X149973536Y-75512144D01*
X149973538Y-75512142D01*
X149978088Y-75507987D01*
X149981740Y-75503033D01*
X149981744Y-75503029D01*
X150051436Y-75408500D01*
X150070000Y-75383320D01*
X150077595Y-75370166D01*
X150271726Y-75033920D01*
X150273271Y-75031244D01*
X150334315Y-74896673D01*
X150365329Y-74764442D01*
X150400358Y-74702689D01*
X150463212Y-74669676D01*
X150533937Y-74675886D01*
X150590077Y-74719347D01*
X150614000Y-74793214D01*
X150614000Y-80087172D01*
X150612500Y-80106556D01*
X150608814Y-80130230D01*
X150609634Y-80136500D01*
X150609536Y-80136500D01*
X150627376Y-80420062D01*
X150680615Y-80699152D01*
X150768414Y-80969369D01*
X150889388Y-81226450D01*
X151041628Y-81466343D01*
X151222735Y-81685263D01*
X151225625Y-81687977D01*
X151225626Y-81687978D01*
X151258487Y-81718836D01*
X151429851Y-81879758D01*
X151433054Y-81882085D01*
X151433055Y-81882086D01*
X151487725Y-81921806D01*
X151659711Y-82046762D01*
X151663180Y-82048669D01*
X151663183Y-82048671D01*
X151901041Y-82179434D01*
X151908690Y-82183639D01*
X151984505Y-82213656D01*
X152169177Y-82286773D01*
X152169180Y-82286774D01*
X152172860Y-82288231D01*
X152176694Y-82289215D01*
X152176702Y-82289218D01*
X152310721Y-82323628D01*
X152448057Y-82358890D01*
X152451985Y-82359386D01*
X152451989Y-82359387D01*
X152550693Y-82371856D01*
X152729939Y-82394500D01*
X153014061Y-82394500D01*
X153193307Y-82371856D01*
X153292011Y-82359387D01*
X153292015Y-82359386D01*
X153295943Y-82358890D01*
X153433279Y-82323628D01*
X153567298Y-82289218D01*
X153567306Y-82289215D01*
X153571140Y-82288231D01*
X153574820Y-82286774D01*
X153574823Y-82286773D01*
X153759495Y-82213656D01*
X153835310Y-82183639D01*
X153842959Y-82179434D01*
X154080817Y-82048671D01*
X154080820Y-82048669D01*
X154084289Y-82046762D01*
X154256275Y-81921806D01*
X154310945Y-81882086D01*
X154310946Y-81882085D01*
X154314149Y-81879758D01*
X154485513Y-81718836D01*
X154518374Y-81687978D01*
X154518375Y-81687977D01*
X154521265Y-81685263D01*
X154702372Y-81466343D01*
X154854612Y-81226450D01*
X154975586Y-80969369D01*
X155063385Y-80699152D01*
X155116624Y-80420062D01*
X155130230Y-80203794D01*
X155132430Y-80168829D01*
X155133927Y-80155840D01*
X155134262Y-80153848D01*
X155134262Y-80153846D01*
X155135071Y-80149039D01*
X155135224Y-80136500D01*
X155131273Y-80108912D01*
X155130000Y-80091049D01*
X155130000Y-79760075D01*
X156581661Y-79760075D01*
X156582869Y-79767861D01*
X156644694Y-79861624D01*
X156652418Y-79871163D01*
X156782569Y-80003143D01*
X156796721Y-80014934D01*
X156795063Y-80016924D01*
X156832994Y-80063042D01*
X156841288Y-80133552D01*
X156838644Y-80144713D01*
X156837454Y-80147573D01*
X156836235Y-80153619D01*
X156801890Y-80323949D01*
X156798361Y-80341448D01*
X156798074Y-80423960D01*
X156797832Y-80493391D01*
X156797672Y-80539225D01*
X156798848Y-80545274D01*
X156798848Y-80545276D01*
X156801961Y-80561289D01*
X156835410Y-80733367D01*
X156837737Y-80739069D01*
X156904177Y-80901875D01*
X156910138Y-80916483D01*
X157019010Y-81081598D01*
X157023338Y-81085987D01*
X157023339Y-81085988D01*
X157153558Y-81218037D01*
X157153562Y-81218040D01*
X157157881Y-81222420D01*
X157162970Y-81225878D01*
X157162973Y-81225881D01*
X157285413Y-81309091D01*
X157321458Y-81333587D01*
X157327121Y-81335991D01*
X157327125Y-81335993D01*
X157448400Y-81387471D01*
X157503513Y-81410865D01*
X157697110Y-81451309D01*
X157703271Y-81451374D01*
X157703275Y-81451374D01*
X157797108Y-81452356D01*
X157894876Y-81453380D01*
X157900935Y-81452246D01*
X157900936Y-81452246D01*
X157979641Y-81437516D01*
X158047120Y-81424888D01*
X158050485Y-81423859D01*
X158050494Y-81423857D01*
X158432954Y-81306926D01*
X158435898Y-81306026D01*
X158572320Y-81249238D01*
X158577439Y-81245811D01*
X158577443Y-81245809D01*
X158683648Y-81174711D01*
X158736670Y-81139216D01*
X158876520Y-80999367D01*
X158886672Y-80984203D01*
X158969310Y-80860758D01*
X158986542Y-80835017D01*
X159062547Y-80652427D01*
X159084149Y-80545294D01*
X159100421Y-80464595D01*
X159100421Y-80464590D01*
X159101639Y-80458552D01*
X159101712Y-80437823D01*
X159102030Y-80346438D01*
X159102329Y-80260775D01*
X159082061Y-80156504D01*
X159065767Y-80072680D01*
X159065766Y-80072676D01*
X159064591Y-80066632D01*
X159051572Y-80034729D01*
X158992191Y-79889224D01*
X158989862Y-79883517D01*
X158880990Y-79718402D01*
X158742120Y-79577580D01*
X158737025Y-79574117D01*
X158732285Y-79570168D01*
X158733808Y-79568340D01*
X158695409Y-79521643D01*
X158687120Y-79451132D01*
X158690839Y-79435436D01*
X158691973Y-79431726D01*
X158728607Y-79250038D01*
X158729848Y-79237829D01*
X158730269Y-79117122D01*
X158726343Y-79103577D01*
X158718945Y-79102487D01*
X157410049Y-79502657D01*
X156593438Y-79752321D01*
X156581661Y-79760075D01*
X155130000Y-79760075D01*
X155130000Y-76509568D01*
X155556206Y-76509568D01*
X155567926Y-76571007D01*
X155688305Y-76964748D01*
X155883258Y-77602410D01*
X155888444Y-77619374D01*
X155913084Y-77676864D01*
X156001856Y-77792344D01*
X156009106Y-77797641D01*
X156015528Y-77803907D01*
X156013761Y-77805718D01*
X156048809Y-77851407D01*
X156056507Y-77908615D01*
X156055737Y-77912433D01*
X156055475Y-77987757D01*
X156055085Y-78099705D01*
X156055048Y-78110210D01*
X156056224Y-78116259D01*
X156056224Y-78116261D01*
X156057269Y-78121637D01*
X156092786Y-78304352D01*
X156167514Y-78487468D01*
X156276386Y-78652583D01*
X156280714Y-78656972D01*
X156280715Y-78656973D01*
X156410934Y-78789022D01*
X156410938Y-78789025D01*
X156415257Y-78793405D01*
X156420348Y-78796865D01*
X156425087Y-78800813D01*
X156423567Y-78802638D01*
X156461975Y-78849358D01*
X156470254Y-78919870D01*
X156466538Y-78935549D01*
X156465404Y-78939258D01*
X156428768Y-79120950D01*
X156427529Y-79133156D01*
X156427108Y-79253865D01*
X156431034Y-79267409D01*
X156438431Y-79268499D01*
X157747327Y-78868329D01*
X158563939Y-78618665D01*
X158577204Y-78609931D01*
X158581217Y-78600879D01*
X158581526Y-78598545D01*
X158563876Y-78586107D01*
X158557344Y-78577094D01*
X158512678Y-78509355D01*
X158504961Y-78499826D01*
X158374811Y-78367846D01*
X158360657Y-78356054D01*
X158362308Y-78354073D01*
X158324360Y-78307890D01*
X158317339Y-78247966D01*
X158718257Y-78247966D01*
X158748565Y-78382446D01*
X158751645Y-78392275D01*
X158779278Y-78460329D01*
X158785072Y-78518007D01*
X158819221Y-78558698D01*
X158831768Y-78589600D01*
X158836413Y-78598794D01*
X158947694Y-78780388D01*
X158953777Y-78788699D01*
X159093213Y-78949667D01*
X159100580Y-78956883D01*
X159264434Y-79092916D01*
X159272881Y-79098831D01*
X159456756Y-79206279D01*
X159466042Y-79210729D01*
X159665001Y-79286703D01*
X159674899Y-79289579D01*
X159778250Y-79310606D01*
X159792299Y-79309410D01*
X159796000Y-79299065D01*
X159796000Y-78252115D01*
X159791525Y-78236876D01*
X159790135Y-78235671D01*
X159782452Y-78234000D01*
X158733225Y-78234000D01*
X158719694Y-78237973D01*
X158718257Y-78247966D01*
X158317339Y-78247966D01*
X158316098Y-78237376D01*
X158318730Y-78226278D01*
X158319923Y-78223412D01*
X158340020Y-78123744D01*
X158357797Y-78035580D01*
X158357797Y-78035575D01*
X158359015Y-78029537D01*
X158359053Y-78018794D01*
X158359360Y-77930648D01*
X158359705Y-77831760D01*
X158348488Y-77774054D01*
X158323143Y-77643665D01*
X158323142Y-77643661D01*
X158321967Y-77637617D01*
X158316590Y-77624440D01*
X158249567Y-77460209D01*
X158247238Y-77454502D01*
X158138366Y-77289387D01*
X158134033Y-77284993D01*
X158133943Y-77284901D01*
X158133911Y-77284842D01*
X158130159Y-77280208D01*
X158131040Y-77279495D01*
X158100352Y-77222354D01*
X158104247Y-77166458D01*
X158102034Y-77166000D01*
X158103854Y-77157213D01*
X158106903Y-77148767D01*
X158110638Y-77088567D01*
X158115433Y-77011275D01*
X158115433Y-77011273D01*
X158115922Y-77003388D01*
X158106023Y-76951496D01*
X158104842Y-76945303D01*
X158104841Y-76945300D01*
X158104202Y-76941949D01*
X157922546Y-76347778D01*
X157784683Y-75896849D01*
X157784682Y-75896846D01*
X157783684Y-75893582D01*
X157759044Y-75836092D01*
X157689721Y-75745912D01*
X157675744Y-75727730D01*
X157675743Y-75727729D01*
X157670272Y-75720612D01*
X157552657Y-75634689D01*
X157541533Y-75630673D01*
X157424101Y-75588278D01*
X157424098Y-75588277D01*
X157415654Y-75585229D01*
X157406692Y-75584673D01*
X157278163Y-75576699D01*
X157278161Y-75576699D01*
X157270276Y-75576210D01*
X157258565Y-75578444D01*
X157212184Y-75587291D01*
X157212178Y-75587293D01*
X157208836Y-75587930D01*
X157205583Y-75588924D01*
X157205577Y-75588926D01*
X155876845Y-75995160D01*
X155876842Y-75995161D01*
X155873578Y-75996159D01*
X155816088Y-76020799D01*
X155700608Y-76109572D01*
X155614685Y-76227186D01*
X155605950Y-76251383D01*
X155570246Y-76350282D01*
X155565225Y-76364189D01*
X155564669Y-76373151D01*
X155557610Y-76486944D01*
X155556206Y-76509568D01*
X155130000Y-76509568D01*
X155130000Y-73689707D01*
X155131746Y-73668803D01*
X155132279Y-73665637D01*
X155135071Y-73649039D01*
X155135224Y-73636500D01*
X155134534Y-73631677D01*
X155134513Y-73631362D01*
X155133555Y-73622043D01*
X155127508Y-73525933D01*
X155116624Y-73352938D01*
X155063385Y-73073848D01*
X154975586Y-72803631D01*
X154854612Y-72546550D01*
X154702372Y-72306657D01*
X154557687Y-72131763D01*
X154523790Y-72090789D01*
X154523789Y-72090788D01*
X154521265Y-72087737D01*
X154314149Y-71893242D01*
X154251285Y-71847568D01*
X154087497Y-71728569D01*
X154084289Y-71726238D01*
X154074236Y-71720711D01*
X153838772Y-71591264D01*
X153838769Y-71591263D01*
X153835310Y-71589361D01*
X153652423Y-71516951D01*
X153574823Y-71486227D01*
X153574820Y-71486226D01*
X153571140Y-71484769D01*
X153567306Y-71483785D01*
X153567298Y-71483782D01*
X153362605Y-71431226D01*
X153295943Y-71414110D01*
X153292015Y-71413614D01*
X153292011Y-71413613D01*
X153180778Y-71399561D01*
X153014061Y-71378500D01*
X152729939Y-71378500D01*
X152563222Y-71399561D01*
X152451989Y-71413613D01*
X152451985Y-71413614D01*
X152448057Y-71414110D01*
X152381395Y-71431226D01*
X152176702Y-71483782D01*
X152176694Y-71483785D01*
X152172860Y-71484769D01*
X152169180Y-71486226D01*
X152169177Y-71486227D01*
X152091577Y-71516951D01*
X151908690Y-71589361D01*
X151905231Y-71591263D01*
X151905228Y-71591264D01*
X151669765Y-71720711D01*
X151659711Y-71726238D01*
X151656503Y-71728569D01*
X151492716Y-71847568D01*
X151429851Y-71893242D01*
X151222735Y-72087737D01*
X151220211Y-72090788D01*
X151220210Y-72090789D01*
X151186313Y-72131763D01*
X151041628Y-72306657D01*
X150889388Y-72546550D01*
X150768414Y-72803631D01*
X150680615Y-73073848D01*
X150627376Y-73352938D01*
X150613471Y-73573955D01*
X150611050Y-73612429D01*
X150610243Y-73619834D01*
X150610380Y-73620167D01*
X150608814Y-73630230D01*
X150609568Y-73635994D01*
X150609536Y-73636500D01*
X150609634Y-73636500D01*
X150610740Y-73644958D01*
X150610740Y-73644959D01*
X150612936Y-73661750D01*
X150614000Y-73678088D01*
X150614000Y-74345802D01*
X150593998Y-74413923D01*
X150540342Y-74460416D01*
X150470068Y-74470520D01*
X150405488Y-74441026D01*
X150367104Y-74381300D01*
X150363621Y-74365947D01*
X150359067Y-74337832D01*
X150354759Y-74311232D01*
X150285820Y-74125859D01*
X150282240Y-74120039D01*
X150210784Y-74003891D01*
X150182187Y-73957407D01*
X150177407Y-73952244D01*
X150051994Y-73816811D01*
X150051992Y-73816809D01*
X150047809Y-73812292D01*
X150040702Y-73807128D01*
X149892788Y-73699663D01*
X149892787Y-73699663D01*
X149887804Y-73696042D01*
X149877148Y-73691118D01*
X149777250Y-73644959D01*
X149708266Y-73613084D01*
X149585147Y-73583298D01*
X149522026Y-73568027D01*
X149522022Y-73568026D01*
X149516035Y-73566578D01*
X149432104Y-73563060D01*
X149324593Y-73558554D01*
X149324590Y-73558554D01*
X149318430Y-73558296D01*
X149312339Y-73559239D01*
X149306184Y-73559583D01*
X149306051Y-73557209D01*
X149246108Y-73549238D01*
X149191963Y-73503316D01*
X149183988Y-73489317D01*
X149182290Y-73485837D01*
X149085162Y-73327957D01*
X149077751Y-73318192D01*
X148995731Y-73229619D01*
X148983624Y-73222392D01*
X148977469Y-73226640D01*
X148547118Y-73972030D01*
X148307361Y-74387301D01*
X148307360Y-74387303D01*
X148293118Y-74411970D01*
X147866156Y-75151489D01*
X147862831Y-75165194D01*
X144123563Y-75165194D01*
X144135903Y-75151489D01*
X144234621Y-75041852D01*
X144234622Y-75041851D01*
X144239040Y-75036944D01*
X144297439Y-74935795D01*
X144331223Y-74877279D01*
X144331224Y-74877278D01*
X144334527Y-74871556D01*
X144393542Y-74689928D01*
X144395150Y-74674634D01*
X144412814Y-74506565D01*
X144413504Y-74500000D01*
X144407880Y-74446488D01*
X144394232Y-74316635D01*
X144394232Y-74316633D01*
X144393542Y-74310072D01*
X144334527Y-74128444D01*
X144330526Y-74121513D01*
X144268191Y-74013547D01*
X144239040Y-73963056D01*
X144177688Y-73894917D01*
X144115675Y-73826045D01*
X144115674Y-73826044D01*
X144111253Y-73821134D01*
X143956752Y-73708882D01*
X143950724Y-73706198D01*
X143950722Y-73706197D01*
X143788319Y-73633891D01*
X143788318Y-73633891D01*
X143782288Y-73631206D01*
X143687984Y-73611161D01*
X143601944Y-73592872D01*
X143601939Y-73592872D01*
X143595487Y-73591500D01*
X143404513Y-73591500D01*
X143398061Y-73592872D01*
X143398056Y-73592872D01*
X143312016Y-73611161D01*
X143217712Y-73631206D01*
X143211682Y-73633891D01*
X143211681Y-73633891D01*
X143049278Y-73706197D01*
X143049276Y-73706198D01*
X143043248Y-73708882D01*
X142888747Y-73821134D01*
X142884326Y-73826044D01*
X142884325Y-73826045D01*
X142822313Y-73894917D01*
X142760960Y-73963056D01*
X142731809Y-74013547D01*
X142669475Y-74121513D01*
X142665473Y-74128444D01*
X142650365Y-74174941D01*
X142616412Y-74279437D01*
X142576338Y-74338042D01*
X142510941Y-74365679D01*
X142496579Y-74366500D01*
X141855895Y-74366500D01*
X141787774Y-74346498D01*
X141741281Y-74292842D01*
X141731177Y-74222568D01*
X141760671Y-74157988D01*
X141792894Y-74131382D01*
X141816675Y-74117652D01*
X142561248Y-73687760D01*
X144792910Y-72399272D01*
X144861905Y-72382533D01*
X144928997Y-72405753D01*
X144972885Y-72461559D01*
X144979634Y-72532234D01*
X144965031Y-72571387D01*
X144777990Y-72895352D01*
X144752749Y-72952580D01*
X144751452Y-72960375D01*
X144751451Y-72960377D01*
X144730982Y-73083365D01*
X144728835Y-73096262D01*
X144729906Y-73105176D01*
X144739463Y-73184729D01*
X144746208Y-73240879D01*
X144761771Y-73277279D01*
X144795815Y-73356901D01*
X144803471Y-73374808D01*
X144809172Y-73381736D01*
X144809173Y-73381738D01*
X144858639Y-73441852D01*
X144896022Y-73487282D01*
X144946496Y-73524223D01*
X145895892Y-74072357D01*
X145953121Y-74097598D01*
X145960910Y-74098894D01*
X145960912Y-74098895D01*
X146087944Y-74120039D01*
X146087947Y-74120039D01*
X146096802Y-74121513D01*
X146105715Y-74120442D01*
X146114690Y-74120646D01*
X146114633Y-74123175D01*
X146171431Y-74132693D01*
X146216069Y-74169279D01*
X146218108Y-74172593D01*
X146222289Y-74177108D01*
X146222292Y-74177112D01*
X146288966Y-74249112D01*
X146352487Y-74317708D01*
X146357471Y-74321329D01*
X146357472Y-74321330D01*
X146448541Y-74387495D01*
X146512492Y-74433958D01*
X146518083Y-74436541D01*
X146518084Y-74436542D01*
X146562172Y-74456914D01*
X146692029Y-74516916D01*
X146762555Y-74533978D01*
X146878270Y-74561973D01*
X146878274Y-74561974D01*
X146884261Y-74563422D01*
X146968265Y-74566943D01*
X147075702Y-74571446D01*
X147075705Y-74571446D01*
X147081865Y-74571704D01*
X147087956Y-74570761D01*
X147094111Y-74570417D01*
X147094244Y-74572801D01*
X147154139Y-74580739D01*
X147208304Y-74626638D01*
X147216310Y-74640687D01*
X147218005Y-74644162D01*
X147315134Y-74802043D01*
X147322545Y-74811808D01*
X147404565Y-74900381D01*
X147416672Y-74907608D01*
X147422827Y-74903360D01*
X147870766Y-74127507D01*
X148534140Y-72978511D01*
X148537465Y-72964806D01*
X148531273Y-72959937D01*
X148422104Y-72933526D01*
X148409952Y-72931819D01*
X148224770Y-72924057D01*
X148206360Y-72925086D01*
X148206215Y-72922491D01*
X148147064Y-72914656D01*
X148092896Y-72868761D01*
X148087193Y-72858755D01*
X148086116Y-72855859D01*
X148081046Y-72847617D01*
X147985712Y-72692656D01*
X147982483Y-72687407D01*
X147975471Y-72679834D01*
X147852290Y-72546811D01*
X147852288Y-72546809D01*
X147848105Y-72542292D01*
X147837696Y-72534729D01*
X147693084Y-72429663D01*
X147693083Y-72429663D01*
X147688100Y-72426042D01*
X147644191Y-72405753D01*
X147619837Y-72394500D01*
X147508562Y-72343084D01*
X147416350Y-72320775D01*
X147322322Y-72298027D01*
X147322318Y-72298026D01*
X147316331Y-72296578D01*
X147310048Y-72296315D01*
X147310033Y-72296314D01*
X147309965Y-72296291D01*
X147304074Y-72295463D01*
X147304231Y-72294343D01*
X147242810Y-72273477D01*
X147207540Y-72229939D01*
X147205608Y-72231114D01*
X147200947Y-72223447D01*
X147197417Y-72215192D01*
X147104866Y-72102718D01*
X147086283Y-72089117D01*
X147057153Y-72067798D01*
X147054392Y-72065777D01*
X147051433Y-72064069D01*
X147051429Y-72064066D01*
X146401441Y-71688795D01*
X146352448Y-71637412D01*
X146339012Y-71567699D01*
X146365398Y-71501788D01*
X146401435Y-71470562D01*
X146585903Y-71364056D01*
X146604878Y-71355117D01*
X146623635Y-71348125D01*
X146628526Y-71345381D01*
X146630332Y-71344368D01*
X146630337Y-71344364D01*
X146634571Y-71341989D01*
X146638396Y-71338985D01*
X146638654Y-71338813D01*
X146646273Y-71333305D01*
X146867569Y-71186304D01*
X146867575Y-71186300D01*
X146870868Y-71184112D01*
X147085973Y-70998468D01*
X147164656Y-70911094D01*
X147273460Y-70790272D01*
X147273460Y-70790271D01*
X147276112Y-70787327D01*
X147438288Y-70554019D01*
X147569941Y-70302223D01*
X147587617Y-70254699D01*
X156738807Y-70254699D01*
X156743191Y-70261243D01*
X156838856Y-70320097D01*
X156849879Y-70325473D01*
X157023609Y-70390082D01*
X157041424Y-70394789D01*
X157040761Y-70397297D01*
X157094617Y-70423047D01*
X157131943Y-70483440D01*
X157134268Y-70494696D01*
X157134398Y-70497788D01*
X157143335Y-70534729D01*
X157179455Y-70684033D01*
X157179457Y-70684039D01*
X157180904Y-70690020D01*
X157263863Y-70869557D01*
X157380113Y-71029562D01*
X157525228Y-71163939D01*
X157530480Y-71167170D01*
X157622567Y-71223823D01*
X157693680Y-71267573D01*
X157879054Y-71336512D01*
X157885140Y-71337498D01*
X157885141Y-71337498D01*
X157927559Y-71344368D01*
X158074286Y-71368132D01*
X158080443Y-71367917D01*
X158265787Y-71361445D01*
X158271943Y-71361230D01*
X158373124Y-71337498D01*
X158458496Y-71317474D01*
X158458498Y-71317473D01*
X158464494Y-71316067D01*
X158644606Y-71234365D01*
X158770544Y-71144202D01*
X159072664Y-70872171D01*
X159086827Y-70856660D01*
X159168144Y-70767607D01*
X159168144Y-70767606D01*
X159172305Y-70763050D01*
X159274759Y-70593878D01*
X159276866Y-70588089D01*
X159276868Y-70588085D01*
X159340296Y-70413818D01*
X159342403Y-70408029D01*
X159372660Y-70212580D01*
X159364378Y-70014976D01*
X159362812Y-70008500D01*
X159334413Y-69891118D01*
X159317872Y-69822744D01*
X159257870Y-69692887D01*
X159237498Y-69648799D01*
X159237497Y-69648798D01*
X159234914Y-69643207D01*
X159118663Y-69483202D01*
X158973548Y-69348825D01*
X158923143Y-69317815D01*
X158810345Y-69248420D01*
X158810343Y-69248419D01*
X158805096Y-69245191D01*
X158619722Y-69176252D01*
X158613633Y-69175266D01*
X158607684Y-69173694D01*
X158608292Y-69171394D01*
X158553747Y-69145297D01*
X158516437Y-69084895D01*
X158513175Y-69069102D01*
X158512636Y-69065265D01*
X158469051Y-68885111D01*
X158465014Y-68873518D01*
X158414384Y-68763944D01*
X158405102Y-68753327D01*
X158397936Y-68755465D01*
X157758310Y-69331388D01*
X156746204Y-70242692D01*
X156738807Y-70254699D01*
X147587617Y-70254699D01*
X147668995Y-70035911D01*
X147733888Y-69759284D01*
X147755721Y-69551615D01*
X147763183Y-69480644D01*
X147763183Y-69480642D01*
X147763597Y-69476705D01*
X147757653Y-69192631D01*
X147716148Y-68911542D01*
X147713985Y-68903793D01*
X147640804Y-68641683D01*
X147639740Y-68637872D01*
X147529631Y-68375937D01*
X147387560Y-68129869D01*
X147384550Y-68125903D01*
X147218160Y-67906704D01*
X147215766Y-67903550D01*
X147016960Y-67700548D01*
X147013863Y-67698094D01*
X147013858Y-67698089D01*
X146797388Y-67526530D01*
X146797382Y-67526526D01*
X146794277Y-67524065D01*
X146551230Y-67376886D01*
X146291652Y-67261331D01*
X146019638Y-67179224D01*
X145739477Y-67131859D01*
X145735521Y-67131693D01*
X145735516Y-67131693D01*
X145459542Y-67120148D01*
X145459536Y-67120148D01*
X145455588Y-67119983D01*
X145172450Y-67143784D01*
X145168572Y-67144609D01*
X145168570Y-67144609D01*
X145111782Y-67156686D01*
X144894528Y-67202886D01*
X144890792Y-67204187D01*
X144890790Y-67204188D01*
X144629954Y-67295052D01*
X144629949Y-67295054D01*
X144626206Y-67296358D01*
X144434623Y-67391488D01*
X144400735Y-67408315D01*
X144388731Y-67413517D01*
X144386830Y-67414226D01*
X144386826Y-67414228D01*
X144382271Y-67415927D01*
X144378031Y-67418307D01*
X144375575Y-67419685D01*
X144375570Y-67419689D01*
X144371336Y-67422065D01*
X144349436Y-67439272D01*
X144334606Y-67449304D01*
X141177419Y-69272160D01*
X138791041Y-70649976D01*
X138772085Y-70658909D01*
X138753271Y-70665927D01*
X138749028Y-70668309D01*
X138749023Y-70668311D01*
X138746575Y-70669685D01*
X138746570Y-70669689D01*
X138742336Y-70672065D01*
X138738514Y-70675068D01*
X138738256Y-70675240D01*
X138730648Y-70680744D01*
X138506102Y-70829968D01*
X138291060Y-71015627D01*
X138100981Y-71226772D01*
X138098720Y-71230026D01*
X138098719Y-71230027D01*
X137941120Y-71456824D01*
X137941115Y-71456832D01*
X137938863Y-71460073D01*
X137807261Y-71711853D01*
X137805880Y-71715566D01*
X137805880Y-71715567D01*
X137711074Y-71970549D01*
X137708251Y-71978141D01*
X137707348Y-71981990D01*
X137707347Y-71981995D01*
X137661976Y-72175489D01*
X137626950Y-72237244D01*
X137564098Y-72270260D01*
X137493373Y-72264054D01*
X137445667Y-72231034D01*
X137441175Y-72226045D01*
X137441174Y-72226044D01*
X137436753Y-72221134D01*
X137282252Y-72108882D01*
X137276224Y-72106198D01*
X137276222Y-72106197D01*
X137113819Y-72033891D01*
X137113818Y-72033891D01*
X137107788Y-72031206D01*
X136985831Y-72005283D01*
X136927444Y-71992872D01*
X136927439Y-71992872D01*
X136920987Y-71991500D01*
X136774867Y-71991500D01*
X136706746Y-71971498D01*
X136660253Y-71917842D01*
X136650149Y-71847568D01*
X136679643Y-71782988D01*
X136723618Y-71750393D01*
X136850722Y-71693803D01*
X136850724Y-71693802D01*
X136856752Y-71691118D01*
X136870186Y-71681358D01*
X136930672Y-71637412D01*
X137011253Y-71578866D01*
X137018334Y-71571002D01*
X137134621Y-71441852D01*
X137134622Y-71441851D01*
X137139040Y-71436944D01*
X137208829Y-71316067D01*
X137231223Y-71277279D01*
X137231224Y-71277278D01*
X137234527Y-71271556D01*
X137293542Y-71089928D01*
X137300411Y-71024578D01*
X137312814Y-70906565D01*
X137313504Y-70900000D01*
X137306415Y-70832554D01*
X137294232Y-70716635D01*
X137294232Y-70716633D01*
X137293542Y-70710072D01*
X137234527Y-70528444D01*
X137224641Y-70511320D01*
X137173676Y-70423047D01*
X137139040Y-70363056D01*
X137118877Y-70340662D01*
X137015675Y-70226045D01*
X137015674Y-70226044D01*
X137011253Y-70221134D01*
X136934003Y-70165008D01*
X136862097Y-70112765D01*
X136862094Y-70112764D01*
X136856752Y-70108882D01*
X136852634Y-70107048D01*
X136804177Y-70056229D01*
X136790740Y-69986516D01*
X136817127Y-69920605D01*
X136881440Y-69877373D01*
X137801340Y-69613595D01*
X137801343Y-69613594D01*
X137804621Y-69612654D01*
X137807772Y-69611368D01*
X137807778Y-69611366D01*
X137855220Y-69592005D01*
X137862532Y-69589021D01*
X137979545Y-69502278D01*
X137984968Y-69495121D01*
X137991345Y-69488810D01*
X137993123Y-69490607D01*
X138039433Y-69456358D01*
X138096752Y-69449664D01*
X138100559Y-69450501D01*
X138141684Y-69451362D01*
X138292128Y-69454513D01*
X138292129Y-69454513D01*
X138298293Y-69454642D01*
X138304361Y-69453572D01*
X138304362Y-69453572D01*
X138487003Y-69421367D01*
X138487004Y-69421367D01*
X138493065Y-69420298D01*
X138677457Y-69348776D01*
X138822682Y-69256614D01*
X138839237Y-69246108D01*
X138839239Y-69246106D01*
X138844446Y-69242802D01*
X138854246Y-69233470D01*
X138983208Y-69110660D01*
X138983212Y-69110655D01*
X138987670Y-69106410D01*
X138991223Y-69101374D01*
X138995246Y-69096712D01*
X138997050Y-69098269D01*
X139044391Y-69060691D01*
X139115035Y-69053622D01*
X139130693Y-69057621D01*
X139134372Y-69058817D01*
X139315404Y-69098619D01*
X139327582Y-69100071D01*
X139448262Y-69102599D01*
X139461875Y-69098909D01*
X139463093Y-69091533D01*
X139225853Y-68264175D01*
X139225850Y-68264169D01*
X138850454Y-66955007D01*
X138842906Y-66943096D01*
X138835102Y-66944168D01*
X138740267Y-67004353D01*
X138730602Y-67011903D01*
X138596368Y-67139732D01*
X138584330Y-67153679D01*
X138582368Y-67151985D01*
X138535604Y-67189102D01*
X138464960Y-67196168D01*
X138453839Y-67193328D01*
X138451001Y-67192088D01*
X138444985Y-67190765D01*
X138444981Y-67190764D01*
X138263856Y-67150942D01*
X138263855Y-67150942D01*
X138257838Y-67149619D01*
X138168875Y-67147756D01*
X138066268Y-67145607D01*
X138066267Y-67145607D01*
X138060103Y-67145478D01*
X138054035Y-67146548D01*
X138054034Y-67146548D01*
X138023200Y-67151985D01*
X137865331Y-67179822D01*
X137680940Y-67251344D01*
X137513950Y-67357318D01*
X137509395Y-67361656D01*
X137509334Y-67361688D01*
X137504632Y-67365361D01*
X137503934Y-67364467D01*
X137446272Y-67394153D01*
X137390446Y-67389280D01*
X137389949Y-67391488D01*
X137381188Y-67389514D01*
X137372803Y-67386320D01*
X137363859Y-67385608D01*
X137363858Y-67385608D01*
X137244505Y-67376110D01*
X137227604Y-67374765D01*
X137219818Y-67376110D01*
X137219815Y-67376110D01*
X137190325Y-67381204D01*
X137165969Y-67385411D01*
X137075935Y-67411228D01*
X136115450Y-67686643D01*
X136115447Y-67686644D01*
X136112169Y-67687584D01*
X136109018Y-67688870D01*
X136109012Y-67688872D01*
X136073472Y-67703376D01*
X136054258Y-67711217D01*
X135937245Y-67797960D01*
X135849283Y-67914057D01*
X135797440Y-68050176D01*
X135785884Y-68195375D01*
X135796531Y-68257010D01*
X135797472Y-68260290D01*
X135797472Y-68260292D01*
X135832510Y-68382484D01*
X136118539Y-69379985D01*
X136122000Y-69392056D01*
X136121549Y-69463051D01*
X136082787Y-69522532D01*
X136018021Y-69551615D01*
X135947812Y-69541065D01*
X135911786Y-69515881D01*
X135491250Y-69095345D01*
X135457224Y-69033033D01*
X135455035Y-69019421D01*
X135451374Y-68984583D01*
X135443542Y-68910072D01*
X135432297Y-68875462D01*
X135386569Y-68734729D01*
X135384527Y-68728444D01*
X135380373Y-68721248D01*
X135292341Y-68568774D01*
X135289040Y-68563056D01*
X135161253Y-68421134D01*
X135030609Y-68326215D01*
X135012094Y-68312763D01*
X135012093Y-68312762D01*
X135006752Y-68308882D01*
X135000724Y-68306198D01*
X135000722Y-68306197D01*
X134838319Y-68233891D01*
X134838318Y-68233891D01*
X134832288Y-68231206D01*
X134720041Y-68207347D01*
X134651944Y-68192872D01*
X134651939Y-68192872D01*
X134645487Y-68191500D01*
X134454513Y-68191500D01*
X134448061Y-68192872D01*
X134448056Y-68192872D01*
X134379959Y-68207347D01*
X134267712Y-68231206D01*
X134261682Y-68233891D01*
X134261681Y-68233891D01*
X134099278Y-68306197D01*
X134099276Y-68306198D01*
X134093248Y-68308882D01*
X134087907Y-68312762D01*
X134087906Y-68312763D01*
X134069391Y-68326215D01*
X133938747Y-68421134D01*
X133810960Y-68563056D01*
X133807659Y-68568774D01*
X133719628Y-68721248D01*
X133715473Y-68728444D01*
X133656458Y-68910072D01*
X133655768Y-68916633D01*
X133655768Y-68916635D01*
X133644965Y-69019421D01*
X133636496Y-69100000D01*
X129035893Y-69100000D01*
X133004921Y-66808468D01*
X139336907Y-66808468D01*
X139574147Y-67635825D01*
X139574150Y-67635831D01*
X139949546Y-68944993D01*
X139957094Y-68956904D01*
X139964898Y-68955832D01*
X140059733Y-68895647D01*
X140069398Y-68888097D01*
X140203632Y-68760268D01*
X140215670Y-68746321D01*
X140217624Y-68748008D01*
X140264451Y-68710877D01*
X140335099Y-68703844D01*
X140346156Y-68706671D01*
X140349000Y-68707913D01*
X140404790Y-68720179D01*
X140536146Y-68749059D01*
X140536147Y-68749059D01*
X140542164Y-68750382D01*
X140631192Y-68752246D01*
X140733733Y-68754394D01*
X140733734Y-68754394D01*
X140739898Y-68754523D01*
X140745966Y-68753453D01*
X140745967Y-68753453D01*
X140928608Y-68721248D01*
X140928609Y-68721248D01*
X140934670Y-68720179D01*
X141119062Y-68648657D01*
X141220945Y-68584001D01*
X141280842Y-68545989D01*
X141280844Y-68545987D01*
X141286051Y-68542683D01*
X141429275Y-68406291D01*
X141447010Y-68381150D01*
X141539728Y-68249713D01*
X141539731Y-68249707D01*
X141543279Y-68244678D01*
X141550759Y-68227879D01*
X141577094Y-68168727D01*
X141623722Y-68063999D01*
X141626863Y-68050176D01*
X141666174Y-67877142D01*
X141667538Y-67871138D01*
X141673060Y-67673438D01*
X141647230Y-67520721D01*
X141631375Y-67465428D01*
X141536018Y-67132884D01*
X141536016Y-67132877D01*
X141535170Y-67129928D01*
X141496351Y-67031884D01*
X141483042Y-66998269D01*
X141483041Y-66998268D01*
X141480772Y-66992536D01*
X141373634Y-66826291D01*
X141236247Y-66684022D01*
X141073842Y-66571149D01*
X141068198Y-66568683D01*
X141068194Y-66568681D01*
X140898246Y-66494433D01*
X140892606Y-66491969D01*
X140886596Y-66490648D01*
X140886594Y-66490647D01*
X140705461Y-66450823D01*
X140705460Y-66450823D01*
X140699443Y-66449500D01*
X140610480Y-66447637D01*
X140507873Y-66445488D01*
X140507872Y-66445488D01*
X140501708Y-66445359D01*
X140495640Y-66446429D01*
X140495639Y-66446429D01*
X140313004Y-66478633D01*
X140306936Y-66479703D01*
X140122545Y-66551225D01*
X139955555Y-66657199D01*
X139812331Y-66793591D01*
X139808782Y-66798622D01*
X139804751Y-66803292D01*
X139802945Y-66801733D01*
X139755625Y-66839303D01*
X139684982Y-66846381D01*
X139669315Y-66842381D01*
X139665632Y-66841184D01*
X139484598Y-66801382D01*
X139472416Y-66799930D01*
X139351738Y-66797402D01*
X139338125Y-66801092D01*
X139336907Y-66808468D01*
X133004921Y-66808468D01*
X137522895Y-64200000D01*
X141986496Y-64200000D01*
X141987186Y-64206565D01*
X142003997Y-64366509D01*
X142006458Y-64389928D01*
X142065473Y-64571556D01*
X142160960Y-64736944D01*
X142165378Y-64741851D01*
X142165379Y-64741852D01*
X142210957Y-64792471D01*
X142288747Y-64878866D01*
X142443248Y-64991118D01*
X142449276Y-64993802D01*
X142449278Y-64993803D01*
X142595449Y-65058882D01*
X142617712Y-65068794D01*
X142711113Y-65088647D01*
X142798056Y-65107128D01*
X142798061Y-65107128D01*
X142804513Y-65108500D01*
X142860406Y-65108500D01*
X142928527Y-65128502D01*
X142949501Y-65145405D01*
X143550428Y-65746332D01*
X143584454Y-65808644D01*
X143586003Y-65836830D01*
X143587186Y-65836830D01*
X143587186Y-65843435D01*
X143586496Y-65850000D01*
X143587186Y-65856565D01*
X143603996Y-66016500D01*
X143606458Y-66039928D01*
X143665473Y-66221556D01*
X143760960Y-66386944D01*
X143765378Y-66391851D01*
X143765379Y-66391852D01*
X143884325Y-66523955D01*
X143888747Y-66528866D01*
X144043248Y-66641118D01*
X144049276Y-66643802D01*
X144049278Y-66643803D01*
X144192956Y-66707772D01*
X144217712Y-66718794D01*
X144311113Y-66738647D01*
X144398056Y-66757128D01*
X144398061Y-66757128D01*
X144404513Y-66758500D01*
X144595487Y-66758500D01*
X144601939Y-66757128D01*
X144601944Y-66757128D01*
X144688887Y-66738647D01*
X144782288Y-66718794D01*
X144807044Y-66707772D01*
X144950722Y-66643803D01*
X144950724Y-66643802D01*
X144956752Y-66641118D01*
X145111253Y-66528866D01*
X145115675Y-66523955D01*
X145234621Y-66391852D01*
X145234622Y-66391851D01*
X145239040Y-66386944D01*
X145334527Y-66221556D01*
X145393542Y-66039928D01*
X145396005Y-66016500D01*
X145412814Y-65856565D01*
X145413504Y-65850000D01*
X145393542Y-65660072D01*
X145334527Y-65478444D01*
X145239040Y-65313056D01*
X145111253Y-65171134D01*
X144956752Y-65058882D01*
X144950724Y-65056198D01*
X144950722Y-65056197D01*
X144788319Y-64983891D01*
X144788318Y-64983891D01*
X144782288Y-64981206D01*
X144688888Y-64961353D01*
X144601944Y-64942872D01*
X144601939Y-64942872D01*
X144595487Y-64941500D01*
X144588885Y-64941500D01*
X144582318Y-64940810D01*
X144582465Y-64939407D01*
X144521474Y-64921498D01*
X144500499Y-64904595D01*
X144372468Y-64776564D01*
X148004313Y-64776564D01*
X148011441Y-64779915D01*
X148123748Y-64781091D01*
X148135974Y-64780022D01*
X148318167Y-64745926D01*
X148335857Y-64740786D01*
X148336577Y-64743263D01*
X148396080Y-64737626D01*
X148459159Y-64770206D01*
X148466892Y-64778597D01*
X148468599Y-64781186D01*
X148472927Y-64785574D01*
X148472927Y-64785575D01*
X148530109Y-64843561D01*
X148607468Y-64922009D01*
X148612563Y-64925472D01*
X148612566Y-64925474D01*
X148703449Y-64987237D01*
X148771047Y-65033176D01*
X148886710Y-65082272D01*
X148945268Y-65107128D01*
X148953101Y-65110453D01*
X149146698Y-65150898D01*
X149152858Y-65150963D01*
X149152862Y-65150963D01*
X149247953Y-65151959D01*
X149344465Y-65152970D01*
X149350525Y-65151836D01*
X149532814Y-65117722D01*
X149532816Y-65117721D01*
X149538867Y-65116589D01*
X149673442Y-65062763D01*
X149716776Y-65045431D01*
X149716777Y-65045430D01*
X149722501Y-65043141D01*
X149888371Y-64935424D01*
X149902692Y-64921498D01*
X150025745Y-64801833D01*
X150030159Y-64797541D01*
X150042319Y-64779915D01*
X150075907Y-64731226D01*
X150142465Y-64634744D01*
X150147737Y-64622562D01*
X150193148Y-64567987D01*
X150260855Y-64546627D01*
X150329362Y-64565263D01*
X150371826Y-64608462D01*
X150547306Y-64905181D01*
X150797430Y-65251988D01*
X151077957Y-65574697D01*
X151386577Y-65870653D01*
X151388795Y-65872423D01*
X151388800Y-65872428D01*
X151569276Y-66016500D01*
X151720751Y-66137421D01*
X151723114Y-66138979D01*
X151723118Y-66138982D01*
X151857028Y-66227279D01*
X152077727Y-66372803D01*
X152454567Y-66574863D01*
X152616980Y-66643803D01*
X152796881Y-66720166D01*
X152848170Y-66741937D01*
X152850879Y-66742807D01*
X152850885Y-66742809D01*
X153252575Y-66871778D01*
X153252581Y-66871780D01*
X153255295Y-66872651D01*
X153258068Y-66873271D01*
X153258076Y-66873273D01*
X153669808Y-66965305D01*
X153672591Y-66965927D01*
X154096624Y-67021000D01*
X154344608Y-67030526D01*
X154411909Y-67053128D01*
X154456308Y-67108529D01*
X154463707Y-67179139D01*
X154451586Y-67214511D01*
X154397533Y-67318568D01*
X154369366Y-67461476D01*
X154375007Y-67524065D01*
X154381078Y-67591427D01*
X154382440Y-67606545D01*
X154385722Y-67614897D01*
X154385722Y-67614899D01*
X154414787Y-67688872D01*
X154435706Y-67742115D01*
X154472293Y-67792845D01*
X154474574Y-67795379D01*
X154474577Y-67795382D01*
X155170943Y-68568774D01*
X155205840Y-68607531D01*
X155252468Y-68649221D01*
X155259481Y-68652864D01*
X155373762Y-68712228D01*
X155373765Y-68712229D01*
X155381727Y-68716365D01*
X155390530Y-68718100D01*
X155399008Y-68721069D01*
X155398172Y-68723455D01*
X155449251Y-68750061D01*
X155480397Y-68798650D01*
X155481312Y-68802432D01*
X155564271Y-68981969D01*
X155680521Y-69141974D01*
X155825636Y-69276351D01*
X155994088Y-69379985D01*
X156179462Y-69448924D01*
X156185551Y-69449910D01*
X156191500Y-69451482D01*
X156190892Y-69453782D01*
X156245437Y-69479879D01*
X156282747Y-69540281D01*
X156286009Y-69556074D01*
X156286548Y-69559911D01*
X156330133Y-69740065D01*
X156334170Y-69751658D01*
X156384800Y-69861232D01*
X156394082Y-69871849D01*
X156401248Y-69869711D01*
X157040874Y-69293788D01*
X158052980Y-68382484D01*
X158060377Y-68370477D01*
X158055993Y-68363933D01*
X157960328Y-68305079D01*
X157949305Y-68299703D01*
X157775575Y-68235094D01*
X157757760Y-68230387D01*
X157758423Y-68227879D01*
X157704567Y-68202129D01*
X157667241Y-68141736D01*
X157664916Y-68130480D01*
X157664786Y-68127388D01*
X157618280Y-67935156D01*
X157535322Y-67755619D01*
X157419071Y-67595614D01*
X157273956Y-67461237D01*
X157105504Y-67357603D01*
X157099728Y-67355455D01*
X157099724Y-67355453D01*
X157099592Y-67355404D01*
X157099533Y-67355360D01*
X157094188Y-67352753D01*
X157094684Y-67351737D01*
X157042717Y-67312910D01*
X157022632Y-67260610D01*
X157020430Y-67261130D01*
X157018366Y-67252396D01*
X157017560Y-67243455D01*
X156996858Y-67190764D01*
X156967181Y-67115233D01*
X156964294Y-67107885D01*
X156927707Y-67057155D01*
X156925425Y-67054620D01*
X156925414Y-67054607D01*
X156613122Y-66707772D01*
X156582405Y-66643765D01*
X156591169Y-66573311D01*
X156636632Y-66518780D01*
X156645672Y-66513260D01*
X156958059Y-66340101D01*
X156958061Y-66340100D01*
X156960561Y-66338714D01*
X157165052Y-66199742D01*
X157311843Y-66099983D01*
X157311848Y-66099980D01*
X157314216Y-66098370D01*
X157316438Y-66096545D01*
X157642413Y-65828786D01*
X157642417Y-65828783D01*
X157644632Y-65826963D01*
X157646670Y-65824954D01*
X157646677Y-65824947D01*
X157820236Y-65653794D01*
X157949090Y-65526727D01*
X158131063Y-65311391D01*
X158223238Y-65202317D01*
X158223243Y-65202311D01*
X158225084Y-65200132D01*
X158470342Y-64849867D01*
X158497852Y-64801833D01*
X158681423Y-64481299D01*
X158682845Y-64478816D01*
X158730850Y-64373965D01*
X158859655Y-64092629D01*
X158860844Y-64090032D01*
X158861789Y-64087347D01*
X158861794Y-64087336D01*
X159001924Y-63689415D01*
X159002875Y-63686715D01*
X159043531Y-63526045D01*
X159107064Y-63274965D01*
X159107065Y-63274961D01*
X159107767Y-63272186D01*
X159109882Y-63258836D01*
X159156487Y-62964579D01*
X159174657Y-62849856D01*
X159188878Y-62635752D01*
X159202879Y-62424953D01*
X159202879Y-62424942D01*
X159202995Y-62423202D01*
X159204029Y-62324500D01*
X159184632Y-61897346D01*
X159164532Y-61750608D01*
X159153486Y-61669977D01*
X159126601Y-61473708D01*
X159030413Y-61057073D01*
X159024605Y-61039408D01*
X158897754Y-60653586D01*
X158897751Y-60653579D01*
X158896861Y-60650871D01*
X158727042Y-60258444D01*
X158563955Y-59959320D01*
X158548908Y-59889937D01*
X158573761Y-59823433D01*
X158630623Y-59780922D01*
X158694281Y-59775120D01*
X158694539Y-59775192D01*
X158700675Y-59775664D01*
X158700680Y-59775665D01*
X158885597Y-59789893D01*
X158885599Y-59789893D01*
X158891734Y-59790365D01*
X159088119Y-59766947D01*
X159276217Y-59705831D01*
X159448860Y-59609344D01*
X159599475Y-59481161D01*
X159695683Y-59359778D01*
X159911118Y-59015011D01*
X159976821Y-58882652D01*
X160028676Y-58691794D01*
X160032823Y-58632500D01*
X160042043Y-58500650D01*
X160042043Y-58500649D01*
X160042473Y-58494499D01*
X160017685Y-58298282D01*
X159994329Y-58228070D01*
X159957204Y-58116467D01*
X159957203Y-58116464D01*
X159955257Y-58110615D01*
X159911575Y-58033719D01*
X159860611Y-57944005D01*
X159860609Y-57944002D01*
X159857568Y-57938649D01*
X159728336Y-57788932D01*
X159572486Y-57667169D01*
X159395953Y-57577995D01*
X159300707Y-57551402D01*
X159211397Y-57526465D01*
X159211393Y-57526464D01*
X159205461Y-57524808D01*
X159199323Y-57524336D01*
X159199319Y-57524335D01*
X159014403Y-57510107D01*
X159014401Y-57510107D01*
X159008266Y-57509635D01*
X159002155Y-57510364D01*
X158995985Y-57510493D01*
X158995935Y-57508118D01*
X158936301Y-57498058D01*
X158883792Y-57450275D01*
X158876307Y-57435999D01*
X158874735Y-57432468D01*
X158783179Y-57271298D01*
X158776109Y-57261277D01*
X158697233Y-57169898D01*
X158685384Y-57162251D01*
X158679085Y-57166282D01*
X158020554Y-58220153D01*
X157967493Y-58267323D01*
X157897353Y-58278318D01*
X157846930Y-58260237D01*
X157629829Y-58124578D01*
X157582659Y-58071517D01*
X157571664Y-58001377D01*
X157589745Y-57950954D01*
X158244685Y-56902831D01*
X158248486Y-56889252D01*
X158242467Y-56884168D01*
X158134291Y-56853965D01*
X158122211Y-56851834D01*
X157937393Y-56837613D01*
X157918976Y-56837999D01*
X157918922Y-56835414D01*
X157860022Y-56825482D01*
X157807509Y-56777701D01*
X157802192Y-56767559D01*
X157801214Y-56764620D01*
X157794438Y-56752692D01*
X157706568Y-56598010D01*
X157706566Y-56598007D01*
X157703525Y-56592654D01*
X157574293Y-56442937D01*
X157418443Y-56321174D01*
X157241910Y-56232000D01*
X157051418Y-56178813D01*
X157045274Y-56178340D01*
X157045267Y-56178339D01*
X157045127Y-56178328D01*
X157045059Y-56178302D01*
X157039201Y-56177269D01*
X157039397Y-56176155D01*
X156978742Y-56153156D01*
X156945019Y-56108420D01*
X156943047Y-56109527D01*
X156938653Y-56101698D01*
X156935415Y-56093327D01*
X156846845Y-55977691D01*
X156797691Y-55939011D01*
X155868003Y-55358078D01*
X155811691Y-55330855D01*
X155725986Y-55313496D01*
X155677731Y-55303722D01*
X155677728Y-55303722D01*
X155668931Y-55301940D01*
X155659986Y-55302699D01*
X155532740Y-55313496D01*
X155532739Y-55313496D01*
X155523796Y-55314255D01*
X155515425Y-55317494D01*
X155515423Y-55317494D01*
X155396324Y-55363570D01*
X155396322Y-55363571D01*
X155387950Y-55366810D01*
X155272314Y-55455379D01*
X155233634Y-55504533D01*
X154493725Y-56688636D01*
X154466502Y-56744949D01*
X154437588Y-56887708D01*
X154449903Y-57032843D01*
X154502457Y-57168689D01*
X154507912Y-57175810D01*
X154507913Y-57175813D01*
X154573374Y-57261277D01*
X154591027Y-57284325D01*
X154640181Y-57323005D01*
X154643070Y-57324810D01*
X154737198Y-57383628D01*
X154784368Y-57436689D01*
X154795363Y-57506829D01*
X154766692Y-57571779D01*
X154707458Y-57610918D01*
X154661200Y-57616144D01*
X154622595Y-57613309D01*
X154444858Y-57616411D01*
X154197917Y-57620721D01*
X154197912Y-57620721D01*
X154195066Y-57620771D01*
X154192233Y-57621079D01*
X154192229Y-57621079D01*
X153849815Y-57658277D01*
X153769973Y-57666951D01*
X153350815Y-57751468D01*
X153348082Y-57752283D01*
X153348077Y-57752284D01*
X153124824Y-57818839D01*
X152941042Y-57873627D01*
X152938381Y-57874691D01*
X152938379Y-57874692D01*
X152546687Y-58031357D01*
X152544027Y-58032421D01*
X152541480Y-58033719D01*
X152165581Y-58225249D01*
X152165576Y-58225252D01*
X152163038Y-58226545D01*
X152160619Y-58228068D01*
X152160616Y-58228070D01*
X152049121Y-58298282D01*
X151801210Y-58454400D01*
X151461523Y-58714110D01*
X151459428Y-58716036D01*
X151459419Y-58716044D01*
X151203158Y-58951690D01*
X151146773Y-59003539D01*
X150859549Y-59320302D01*
X150602216Y-59661794D01*
X150376893Y-60025203D01*
X150185434Y-60407538D01*
X150029415Y-60805652D01*
X149910120Y-61216268D01*
X149828531Y-61636006D01*
X149785320Y-62061412D01*
X149782565Y-62324500D01*
X149780842Y-62488982D01*
X149781071Y-62491827D01*
X149781071Y-62491830D01*
X149782864Y-62514109D01*
X149792304Y-62631433D01*
X149802440Y-62757414D01*
X149787966Y-62826919D01*
X149738212Y-62877566D01*
X149668975Y-62893273D01*
X149646972Y-62889199D01*
X149646899Y-62889546D01*
X149453302Y-62849101D01*
X149447142Y-62849036D01*
X149447138Y-62849036D01*
X149352047Y-62848040D01*
X149255535Y-62847029D01*
X149249476Y-62848163D01*
X149249475Y-62848163D01*
X149067186Y-62882278D01*
X149067184Y-62882279D01*
X149061133Y-62883411D01*
X149055414Y-62885699D01*
X149049496Y-62887418D01*
X149048833Y-62885135D01*
X148988639Y-62890859D01*
X148925548Y-62858302D01*
X148914613Y-62846440D01*
X148912178Y-62843433D01*
X148782029Y-62711453D01*
X148772605Y-62703601D01*
X148672767Y-62635752D01*
X148659342Y-62631433D01*
X148654302Y-62636956D01*
X148402657Y-63460049D01*
X148338537Y-63669776D01*
X148254132Y-63945852D01*
X148004470Y-64762462D01*
X148004313Y-64776564D01*
X144372468Y-64776564D01*
X143847121Y-64251216D01*
X143813096Y-64188904D01*
X143810907Y-64175291D01*
X143794232Y-64016635D01*
X143794232Y-64016633D01*
X143793542Y-64010072D01*
X143734527Y-63828444D01*
X143723327Y-63809044D01*
X143654258Y-63689415D01*
X143639040Y-63663056D01*
X143511253Y-63521134D01*
X143356752Y-63408882D01*
X143350724Y-63406198D01*
X143350722Y-63406197D01*
X143188319Y-63333891D01*
X143188318Y-63333891D01*
X143182288Y-63331206D01*
X143130866Y-63320276D01*
X144476210Y-63320276D01*
X144476699Y-63328161D01*
X144476699Y-63328163D01*
X144478748Y-63361193D01*
X144485229Y-63465654D01*
X144534689Y-63602657D01*
X144620612Y-63720272D01*
X144736092Y-63809044D01*
X144793582Y-63833684D01*
X144796846Y-63834682D01*
X144796849Y-63834683D01*
X145160467Y-63945852D01*
X145841949Y-64154202D01*
X145845300Y-64154841D01*
X145845303Y-64154842D01*
X145856108Y-64156903D01*
X145903388Y-64165922D01*
X145911273Y-64165433D01*
X145911275Y-64165433D01*
X146039809Y-64157459D01*
X146039811Y-64157459D01*
X146048767Y-64156903D01*
X146057207Y-64153856D01*
X146066001Y-64152035D01*
X146066514Y-64154510D01*
X146124007Y-64151010D01*
X146175718Y-64176612D01*
X146178453Y-64179385D01*
X146342032Y-64290552D01*
X146457695Y-64339648D01*
X146502575Y-64358698D01*
X146524086Y-64367829D01*
X146717683Y-64408274D01*
X146723843Y-64408339D01*
X146723847Y-64408339D01*
X146818938Y-64409335D01*
X146915450Y-64410346D01*
X146921510Y-64409212D01*
X147103799Y-64375098D01*
X147103801Y-64375097D01*
X147109852Y-64373965D01*
X147115571Y-64371677D01*
X147121489Y-64369958D01*
X147122154Y-64372248D01*
X147182311Y-64366509D01*
X147245412Y-64399048D01*
X147256378Y-64410941D01*
X147258811Y-64413946D01*
X147388957Y-64545923D01*
X147398381Y-64553775D01*
X147498219Y-64621624D01*
X147511644Y-64625943D01*
X147516684Y-64620420D01*
X147791887Y-63720272D01*
X148166517Y-62494913D01*
X148166674Y-62480811D01*
X148159546Y-62477460D01*
X148047238Y-62476284D01*
X148035012Y-62477353D01*
X147852825Y-62511448D01*
X147835125Y-62516590D01*
X147834404Y-62514109D01*
X147774923Y-62519753D01*
X147711839Y-62487183D01*
X147704091Y-62478776D01*
X147702386Y-62476190D01*
X147563517Y-62335367D01*
X147558422Y-62331904D01*
X147558419Y-62331902D01*
X147405035Y-62227664D01*
X147405036Y-62227664D01*
X147399938Y-62224200D01*
X147289787Y-62177443D01*
X147223567Y-62149334D01*
X147223564Y-62149333D01*
X147217884Y-62146922D01*
X147024287Y-62106477D01*
X147018127Y-62106412D01*
X147018123Y-62106412D01*
X146923032Y-62105416D01*
X146826520Y-62104405D01*
X146820322Y-62105565D01*
X146820249Y-62105558D01*
X146814322Y-62106076D01*
X146814223Y-62104949D01*
X146749686Y-62098436D01*
X146705526Y-62063948D01*
X146703907Y-62065528D01*
X146697641Y-62059107D01*
X146692344Y-62051856D01*
X146576864Y-61963084D01*
X146519374Y-61938444D01*
X146516110Y-61937446D01*
X146516107Y-61937445D01*
X145641258Y-61669977D01*
X145471007Y-61617926D01*
X145467656Y-61617287D01*
X145467653Y-61617286D01*
X145449005Y-61613729D01*
X145409568Y-61606206D01*
X145401683Y-61606695D01*
X145401681Y-61606695D01*
X145273151Y-61614669D01*
X145264189Y-61615225D01*
X145255745Y-61618273D01*
X145255742Y-61618274D01*
X145206626Y-61636006D01*
X145127186Y-61664685D01*
X145009572Y-61750608D01*
X144920799Y-61866088D01*
X144896159Y-61923578D01*
X144895161Y-61926842D01*
X144895160Y-61926845D01*
X144500923Y-63216339D01*
X144487930Y-63258836D01*
X144487293Y-63262178D01*
X144487291Y-63262184D01*
X144485383Y-63272186D01*
X144476210Y-63320276D01*
X143130866Y-63320276D01*
X143088887Y-63311353D01*
X143001944Y-63292872D01*
X143001939Y-63292872D01*
X142995487Y-63291500D01*
X142804513Y-63291500D01*
X142798061Y-63292872D01*
X142798056Y-63292872D01*
X142711113Y-63311353D01*
X142617712Y-63331206D01*
X142611682Y-63333891D01*
X142611681Y-63333891D01*
X142449278Y-63406197D01*
X142449276Y-63406198D01*
X142443248Y-63408882D01*
X142288747Y-63521134D01*
X142160960Y-63663056D01*
X142145742Y-63689415D01*
X142076674Y-63809044D01*
X142065473Y-63828444D01*
X142006458Y-64010072D01*
X142005768Y-64016633D01*
X142005768Y-64016635D01*
X141991277Y-64154510D01*
X141986496Y-64200000D01*
X137522895Y-64200000D01*
X159545006Y-51485459D01*
X159614001Y-51468721D01*
X159671005Y-51485458D01*
G37*
%TD.AperFunction*%
%TD*%
M02*
