%TF.GenerationSoftware,KiCad,Pcbnew,(6.0.2)*%
%TF.CreationDate,2022-05-01T12:50:51-07:00*%
%TF.ProjectId,controller,636f6e74-726f-46c6-9c65-722e6b696361,rev?*%
%TF.SameCoordinates,Original*%
%TF.FileFunction,Legend,Bot*%
%TF.FilePolarity,Positive*%
%FSLAX46Y46*%
G04 Gerber Fmt 4.6, Leading zero omitted, Abs format (unit mm)*
G04 Created by KiCad (PCBNEW (6.0.2)) date 2022-05-01 12:50:51*
%MOMM*%
%LPD*%
G01*
G04 APERTURE LIST*
%ADD10C,0.160000*%
%ADD11C,0.150000*%
%ADD12C,0.120000*%
G04 APERTURE END LIST*
D10*
X125993017Y-106489779D02*
X119527345Y-115388314D01*
X157835498Y-45842631D02*
X149835972Y-45842631D01*
X111062110Y-65012646D02*
X121523658Y-68412258D01*
X194616502Y-110686367D02*
X188144760Y-115388365D01*
X181678529Y-106490033D02*
X188151237Y-101787706D01*
X199081365Y-72621623D02*
X188619740Y-76020803D01*
X157835194Y-36842217D02*
X157835498Y-45842631D01*
X121523658Y-68412258D02*
X119051756Y-76020473D01*
X149835667Y-36842217D02*
X157835194Y-36842217D01*
X119051756Y-76020473D02*
X108590512Y-72621851D01*
X186147608Y-68412360D02*
X196609233Y-65013154D01*
X188144760Y-115388365D02*
X181678529Y-106490033D01*
X188619740Y-76020803D02*
X186147608Y-68412360D01*
X108590512Y-72621851D02*
X111062110Y-65012646D01*
X196609233Y-65013154D02*
X199081365Y-72621623D01*
X188151237Y-101787706D02*
X194616502Y-110686367D01*
X113054587Y-110686367D02*
X119521173Y-101787554D01*
X119521173Y-101787554D02*
X125993017Y-106489779D01*
X119527345Y-115388314D02*
X113054587Y-110686367D01*
X149835972Y-45842631D02*
X149835667Y-36842217D01*
D11*
X123801047Y-82240380D02*
X124277238Y-82240380D01*
X124277238Y-81240380D01*
X123467714Y-81716571D02*
X123134380Y-81716571D01*
X122991523Y-82240380D02*
X123467714Y-82240380D01*
X123467714Y-81240380D01*
X122991523Y-81240380D01*
X122562952Y-82240380D02*
X122562952Y-81240380D01*
X122324857Y-81240380D01*
X122182000Y-81288000D01*
X122086761Y-81383238D01*
X122039142Y-81478476D01*
X121991523Y-81668952D01*
X121991523Y-81811809D01*
X122039142Y-82002285D01*
X122086761Y-82097523D01*
X122182000Y-82192761D01*
X122324857Y-82240380D01*
X122562952Y-82240380D01*
X121134380Y-81573714D02*
X121134380Y-82240380D01*
X121372476Y-81192761D02*
X121610571Y-81907047D01*
X120991523Y-81907047D01*
X126595047Y-72842380D02*
X127071238Y-72842380D01*
X127071238Y-71842380D01*
X126261714Y-72318571D02*
X125928380Y-72318571D01*
X125785523Y-72842380D02*
X126261714Y-72842380D01*
X126261714Y-71842380D01*
X125785523Y-71842380D01*
X125356952Y-72842380D02*
X125356952Y-71842380D01*
X125118857Y-71842380D01*
X124976000Y-71890000D01*
X124880761Y-71985238D01*
X124833142Y-72080476D01*
X124785523Y-72270952D01*
X124785523Y-72413809D01*
X124833142Y-72604285D01*
X124880761Y-72699523D01*
X124976000Y-72794761D01*
X125118857Y-72842380D01*
X125356952Y-72842380D01*
X124166476Y-71842380D02*
X124071238Y-71842380D01*
X123976000Y-71890000D01*
X123928380Y-71937619D01*
X123880761Y-72032857D01*
X123833142Y-72223333D01*
X123833142Y-72461428D01*
X123880761Y-72651904D01*
X123928380Y-72747142D01*
X123976000Y-72794761D01*
X124071238Y-72842380D01*
X124166476Y-72842380D01*
X124261714Y-72794761D01*
X124309333Y-72747142D01*
X124356952Y-72651904D01*
X124404571Y-72461428D01*
X124404571Y-72223333D01*
X124356952Y-72032857D01*
X124309333Y-71937619D01*
X124261714Y-71890000D01*
X124166476Y-71842380D01*
X123578857Y-83320000D02*
X123674095Y-83272380D01*
X123816952Y-83272380D01*
X123959809Y-83320000D01*
X124055047Y-83415238D01*
X124102666Y-83510476D01*
X124150285Y-83700952D01*
X124150285Y-83843809D01*
X124102666Y-84034285D01*
X124055047Y-84129523D01*
X123959809Y-84224761D01*
X123816952Y-84272380D01*
X123721714Y-84272380D01*
X123578857Y-84224761D01*
X123531238Y-84177142D01*
X123531238Y-83843809D01*
X123721714Y-83843809D01*
X123102666Y-83605714D02*
X123102666Y-84272380D01*
X123102666Y-83700952D02*
X123055047Y-83653333D01*
X122959809Y-83605714D01*
X122816952Y-83605714D01*
X122721714Y-83653333D01*
X122674095Y-83748571D01*
X122674095Y-84272380D01*
X121769333Y-84272380D02*
X121769333Y-83272380D01*
X121769333Y-84224761D02*
X121864571Y-84272380D01*
X122055047Y-84272380D01*
X122150285Y-84224761D01*
X122197904Y-84177142D01*
X122245523Y-84081904D01*
X122245523Y-83796190D01*
X122197904Y-83700952D01*
X122150285Y-83653333D01*
X122055047Y-83605714D01*
X121864571Y-83605714D01*
X121769333Y-83653333D01*
X125833047Y-75382380D02*
X126309238Y-75382380D01*
X126309238Y-74382380D01*
X125499714Y-74858571D02*
X125166380Y-74858571D01*
X125023523Y-75382380D02*
X125499714Y-75382380D01*
X125499714Y-74382380D01*
X125023523Y-74382380D01*
X124594952Y-75382380D02*
X124594952Y-74382380D01*
X124356857Y-74382380D01*
X124214000Y-74430000D01*
X124118761Y-74525238D01*
X124071142Y-74620476D01*
X124023523Y-74810952D01*
X124023523Y-74953809D01*
X124071142Y-75144285D01*
X124118761Y-75239523D01*
X124214000Y-75334761D01*
X124356857Y-75382380D01*
X124594952Y-75382380D01*
X123071142Y-75382380D02*
X123642571Y-75382380D01*
X123356857Y-75382380D02*
X123356857Y-74382380D01*
X123452095Y-74525238D01*
X123547333Y-74620476D01*
X123642571Y-74668095D01*
X188204122Y-88659913D02*
X188309414Y-88644055D01*
X188445280Y-88688200D01*
X188566430Y-88777634D01*
X188627576Y-88897641D01*
X188643435Y-89002932D01*
X188629863Y-89198801D01*
X188585717Y-89334666D01*
X188481569Y-89501105D01*
X188406850Y-89576967D01*
X188286843Y-89638113D01*
X188136263Y-89639256D01*
X188045686Y-89609826D01*
X187924536Y-89520392D01*
X187893962Y-89460389D01*
X187996968Y-89143370D01*
X188178122Y-89202231D01*
X187456937Y-89418530D02*
X187765954Y-88467473D01*
X186913476Y-89241949D01*
X187222493Y-88290892D01*
X186460592Y-89094798D02*
X186769609Y-88143741D01*
X186543167Y-88070166D01*
X186392586Y-88071309D01*
X186272579Y-88132456D01*
X186197861Y-88208317D01*
X186093712Y-88374756D01*
X186049567Y-88510621D01*
X186035995Y-88706490D01*
X186051853Y-88811782D01*
X186112999Y-88931789D01*
X186234150Y-89021222D01*
X186460592Y-89094798D01*
X116695238Y-100152380D02*
X117171428Y-100152380D01*
X117219047Y-100628571D01*
X117171428Y-100580952D01*
X117076190Y-100533333D01*
X116838095Y-100533333D01*
X116742857Y-100580952D01*
X116695238Y-100628571D01*
X116647619Y-100723809D01*
X116647619Y-100961904D01*
X116695238Y-101057142D01*
X116742857Y-101104761D01*
X116838095Y-101152380D01*
X117076190Y-101152380D01*
X117171428Y-101104761D01*
X117219047Y-101057142D01*
X116361904Y-100152380D02*
X116028571Y-101152380D01*
X115695238Y-100152380D01*
X114885714Y-101152380D02*
X115361904Y-101152380D01*
X115361904Y-100152380D01*
X178955238Y-75017380D02*
X179431428Y-75017380D01*
X179479047Y-75493571D01*
X179431428Y-75445952D01*
X179336190Y-75398333D01*
X179098095Y-75398333D01*
X179002857Y-75445952D01*
X178955238Y-75493571D01*
X178907619Y-75588809D01*
X178907619Y-75826904D01*
X178955238Y-75922142D01*
X179002857Y-75969761D01*
X179098095Y-76017380D01*
X179336190Y-76017380D01*
X179431428Y-75969761D01*
X179479047Y-75922142D01*
X178621904Y-75017380D02*
X178288571Y-76017380D01*
X177955238Y-75017380D01*
X177145714Y-76017380D02*
X177621904Y-76017380D01*
X177621904Y-75017380D01*
X122442857Y-100200000D02*
X122538095Y-100152380D01*
X122680952Y-100152380D01*
X122823809Y-100200000D01*
X122919047Y-100295238D01*
X122966666Y-100390476D01*
X123014285Y-100580952D01*
X123014285Y-100723809D01*
X122966666Y-100914285D01*
X122919047Y-101009523D01*
X122823809Y-101104761D01*
X122680952Y-101152380D01*
X122585714Y-101152380D01*
X122442857Y-101104761D01*
X122395238Y-101057142D01*
X122395238Y-100723809D01*
X122585714Y-100723809D01*
X121966666Y-100485714D02*
X121966666Y-101152380D01*
X121966666Y-100580952D02*
X121919047Y-100533333D01*
X121823809Y-100485714D01*
X121680952Y-100485714D01*
X121585714Y-100533333D01*
X121538095Y-100628571D01*
X121538095Y-101152380D01*
X120633333Y-101152380D02*
X120633333Y-100152380D01*
X120633333Y-101104761D02*
X120728571Y-101152380D01*
X120919047Y-101152380D01*
X121014285Y-101104761D01*
X121061904Y-101057142D01*
X121109523Y-100961904D01*
X121109523Y-100676190D01*
X121061904Y-100580952D01*
X121014285Y-100533333D01*
X120919047Y-100485714D01*
X120728571Y-100485714D01*
X120633333Y-100533333D01*
X188580255Y-92479773D02*
X188429675Y-92480916D01*
X188203233Y-92407340D01*
X188127371Y-92332622D01*
X188096798Y-92272618D01*
X188080940Y-92167326D01*
X188110370Y-92076750D01*
X188185088Y-92000888D01*
X188245092Y-91970314D01*
X188350384Y-91954456D01*
X188546253Y-91968028D01*
X188651544Y-91952170D01*
X188711548Y-91921597D01*
X188786267Y-91845735D01*
X188815697Y-91755158D01*
X188799839Y-91649866D01*
X188769265Y-91589863D01*
X188693404Y-91515144D01*
X188466961Y-91441569D01*
X188316381Y-91442712D01*
X188014077Y-91294418D02*
X187478618Y-92171899D01*
X187518191Y-91433712D01*
X187116311Y-92054178D01*
X187198886Y-91029546D01*
X186527562Y-91862882D02*
X186836579Y-90911825D01*
X186610137Y-90838250D01*
X186459557Y-90839393D01*
X186339550Y-90900540D01*
X186264831Y-90976401D01*
X186160682Y-91142840D01*
X186116537Y-91278705D01*
X186102965Y-91474574D01*
X186118823Y-91579866D01*
X186179970Y-91699873D01*
X186301120Y-91789306D01*
X186527562Y-91862882D01*
X185576505Y-91553865D02*
X185885522Y-90602808D01*
X185251485Y-90396797D02*
X185070331Y-90337937D01*
X184965039Y-90353795D01*
X184845032Y-90414941D01*
X184740883Y-90581380D01*
X184637878Y-90898399D01*
X184624306Y-91094268D01*
X184685452Y-91214275D01*
X184761314Y-91288993D01*
X184942468Y-91347853D01*
X185047760Y-91331995D01*
X185167767Y-91270849D01*
X185271915Y-91104410D01*
X185374921Y-90787391D01*
X185388493Y-90591523D01*
X185327346Y-90471516D01*
X185251485Y-90396797D01*
X188081120Y-95063918D02*
X187930540Y-95065061D01*
X187704098Y-94991486D01*
X187628236Y-94916767D01*
X187597663Y-94856764D01*
X187581805Y-94751472D01*
X187611235Y-94660895D01*
X187685954Y-94585033D01*
X187745957Y-94554460D01*
X187851249Y-94538602D01*
X188047118Y-94552174D01*
X188152410Y-94536315D01*
X188212413Y-94505742D01*
X188287132Y-94429880D01*
X188316562Y-94339303D01*
X188300704Y-94234012D01*
X188270130Y-94174008D01*
X188194269Y-94099289D01*
X187967827Y-94025714D01*
X187817246Y-94026857D01*
X187514943Y-93878563D02*
X186979484Y-94756044D01*
X187019056Y-94017858D01*
X186617176Y-94638323D01*
X186699751Y-93613691D01*
X185514396Y-94179869D02*
X185544970Y-94239873D01*
X185666120Y-94329306D01*
X185756697Y-94358737D01*
X185907277Y-94357593D01*
X186027284Y-94296447D01*
X186102003Y-94220585D01*
X186206151Y-94054147D01*
X186250297Y-93918281D01*
X186263869Y-93722413D01*
X186248010Y-93617121D01*
X186186864Y-93497114D01*
X186065714Y-93407680D01*
X185975137Y-93378250D01*
X185824557Y-93379393D01*
X185764553Y-93409966D01*
X184624487Y-93990859D02*
X185077371Y-94138010D01*
X185386388Y-93186954D01*
X184307468Y-93887853D02*
X184616485Y-92936797D01*
X183764007Y-93711272D02*
X184348184Y-93300247D01*
X184073024Y-92760216D02*
X184439904Y-93480258D01*
X183522857Y-75065000D02*
X183618095Y-75017380D01*
X183760952Y-75017380D01*
X183903809Y-75065000D01*
X183999047Y-75160238D01*
X184046666Y-75255476D01*
X184094285Y-75445952D01*
X184094285Y-75588809D01*
X184046666Y-75779285D01*
X183999047Y-75874523D01*
X183903809Y-75969761D01*
X183760952Y-76017380D01*
X183665714Y-76017380D01*
X183522857Y-75969761D01*
X183475238Y-75922142D01*
X183475238Y-75588809D01*
X183665714Y-75588809D01*
X183046666Y-75350714D02*
X183046666Y-76017380D01*
X183046666Y-75445952D02*
X182999047Y-75398333D01*
X182903809Y-75350714D01*
X182760952Y-75350714D01*
X182665714Y-75398333D01*
X182618095Y-75493571D01*
X182618095Y-76017380D01*
X181713333Y-76017380D02*
X181713333Y-75017380D01*
X181713333Y-75969761D02*
X181808571Y-76017380D01*
X181999047Y-76017380D01*
X182094285Y-75969761D01*
X182141904Y-75922142D01*
X182189523Y-75826904D01*
X182189523Y-75541190D01*
X182141904Y-75445952D01*
X182094285Y-75398333D01*
X181999047Y-75350714D01*
X181808571Y-75350714D01*
X181713333Y-75398333D01*
X124563047Y-80208380D02*
X125039238Y-80208380D01*
X125039238Y-79208380D01*
X124229714Y-79684571D02*
X123896380Y-79684571D01*
X123753523Y-80208380D02*
X124229714Y-80208380D01*
X124229714Y-79208380D01*
X123753523Y-79208380D01*
X123324952Y-80208380D02*
X123324952Y-79208380D01*
X123086857Y-79208380D01*
X122944000Y-79256000D01*
X122848761Y-79351238D01*
X122801142Y-79446476D01*
X122753523Y-79636952D01*
X122753523Y-79779809D01*
X122801142Y-79970285D01*
X122848761Y-80065523D01*
X122944000Y-80160761D01*
X123086857Y-80208380D01*
X123324952Y-80208380D01*
X122420190Y-79208380D02*
X121801142Y-79208380D01*
X122134476Y-79589333D01*
X121991619Y-79589333D01*
X121896380Y-79636952D01*
X121848761Y-79684571D01*
X121801142Y-79779809D01*
X121801142Y-80017904D01*
X121848761Y-80113142D01*
X121896380Y-80160761D01*
X121991619Y-80208380D01*
X122277333Y-80208380D01*
X122372571Y-80160761D01*
X122420190Y-80113142D01*
X125071047Y-77922380D02*
X125547238Y-77922380D01*
X125547238Y-76922380D01*
X124737714Y-77398571D02*
X124404380Y-77398571D01*
X124261523Y-77922380D02*
X124737714Y-77922380D01*
X124737714Y-76922380D01*
X124261523Y-76922380D01*
X123832952Y-77922380D02*
X123832952Y-76922380D01*
X123594857Y-76922380D01*
X123452000Y-76970000D01*
X123356761Y-77065238D01*
X123309142Y-77160476D01*
X123261523Y-77350952D01*
X123261523Y-77493809D01*
X123309142Y-77684285D01*
X123356761Y-77779523D01*
X123452000Y-77874761D01*
X123594857Y-77922380D01*
X123832952Y-77922380D01*
X122880571Y-77017619D02*
X122832952Y-76970000D01*
X122737714Y-76922380D01*
X122499619Y-76922380D01*
X122404380Y-76970000D01*
X122356761Y-77017619D01*
X122309142Y-77112857D01*
X122309142Y-77208095D01*
X122356761Y-77350952D01*
X122928190Y-77922380D01*
X122309142Y-77922380D01*
%TO.C,J4*%
X119308333Y-85422380D02*
X119308333Y-86136666D01*
X119355952Y-86279523D01*
X119451190Y-86374761D01*
X119594047Y-86422380D01*
X119689285Y-86422380D01*
X118403571Y-85755714D02*
X118403571Y-86422380D01*
X118641666Y-85374761D02*
X118879761Y-86089047D01*
X118260714Y-86089047D01*
X115260380Y-89979904D02*
X115260380Y-89503714D01*
X114260380Y-89503714D01*
X114736571Y-90313238D02*
X114736571Y-90646571D01*
X115260380Y-90789428D02*
X115260380Y-90313238D01*
X114260380Y-90313238D01*
X114260380Y-90789428D01*
X115260380Y-91218000D02*
X114260380Y-91218000D01*
X114260380Y-91456095D01*
X114308000Y-91598952D01*
X114403238Y-91694190D01*
X114498476Y-91741809D01*
X114688952Y-91789428D01*
X114831809Y-91789428D01*
X115022285Y-91741809D01*
X115117523Y-91694190D01*
X115212761Y-91598952D01*
X115260380Y-91456095D01*
X115260380Y-91218000D01*
X115260380Y-92979904D02*
X114260380Y-92979904D01*
X114260380Y-93360857D01*
X114308000Y-93456095D01*
X114355619Y-93503714D01*
X114450857Y-93551333D01*
X114593714Y-93551333D01*
X114688952Y-93503714D01*
X114736571Y-93456095D01*
X114784190Y-93360857D01*
X114784190Y-92979904D01*
X115260380Y-94122761D02*
X115212761Y-94027523D01*
X115165142Y-93979904D01*
X115069904Y-93932285D01*
X114784190Y-93932285D01*
X114688952Y-93979904D01*
X114641333Y-94027523D01*
X114593714Y-94122761D01*
X114593714Y-94265619D01*
X114641333Y-94360857D01*
X114688952Y-94408476D01*
X114784190Y-94456095D01*
X115069904Y-94456095D01*
X115165142Y-94408476D01*
X115212761Y-94360857D01*
X115260380Y-94265619D01*
X115260380Y-94122761D01*
X114593714Y-94789428D02*
X115260380Y-94979904D01*
X114784190Y-95170380D01*
X115260380Y-95360857D01*
X114593714Y-95551333D01*
X115212761Y-96313238D02*
X115260380Y-96218000D01*
X115260380Y-96027523D01*
X115212761Y-95932285D01*
X115117523Y-95884666D01*
X114736571Y-95884666D01*
X114641333Y-95932285D01*
X114593714Y-96027523D01*
X114593714Y-96218000D01*
X114641333Y-96313238D01*
X114736571Y-96360857D01*
X114831809Y-96360857D01*
X114927047Y-95884666D01*
X115260380Y-96789428D02*
X114593714Y-96789428D01*
X114784190Y-96789428D02*
X114688952Y-96837047D01*
X114641333Y-96884666D01*
X114593714Y-96979904D01*
X114593714Y-97075142D01*
%TO.C,BT1*%
X162488571Y-113514285D02*
X162536190Y-113657142D01*
X162583809Y-113704761D01*
X162679047Y-113752380D01*
X162821904Y-113752380D01*
X162917142Y-113704761D01*
X162964761Y-113657142D01*
X163012380Y-113561904D01*
X163012380Y-113180952D01*
X162012380Y-113180952D01*
X162012380Y-113514285D01*
X162060000Y-113609523D01*
X162107619Y-113657142D01*
X162202857Y-113704761D01*
X162298095Y-113704761D01*
X162393333Y-113657142D01*
X162440952Y-113609523D01*
X162488571Y-113514285D01*
X162488571Y-113180952D01*
X162012380Y-114038095D02*
X162012380Y-114609523D01*
X163012380Y-114323809D02*
X162012380Y-114323809D01*
X163012380Y-115466666D02*
X163012380Y-114895238D01*
X163012380Y-115180952D02*
X162012380Y-115180952D01*
X162155238Y-115085714D01*
X162250476Y-114990476D01*
X162298095Y-114895238D01*
D12*
X165677857Y-107880714D02*
X165715952Y-107995000D01*
X165754047Y-108033095D01*
X165830238Y-108071190D01*
X165944523Y-108071190D01*
X166020714Y-108033095D01*
X166058809Y-107995000D01*
X166096904Y-107918809D01*
X166096904Y-107614047D01*
X165296904Y-107614047D01*
X165296904Y-107880714D01*
X165335000Y-107956904D01*
X165373095Y-107995000D01*
X165449285Y-108033095D01*
X165525476Y-108033095D01*
X165601666Y-107995000D01*
X165639761Y-107956904D01*
X165677857Y-107880714D01*
X165677857Y-107614047D01*
X166096904Y-108756904D02*
X165677857Y-108756904D01*
X165601666Y-108718809D01*
X165563571Y-108642619D01*
X165563571Y-108490238D01*
X165601666Y-108414047D01*
X166058809Y-108756904D02*
X166096904Y-108680714D01*
X166096904Y-108490238D01*
X166058809Y-108414047D01*
X165982619Y-108375952D01*
X165906428Y-108375952D01*
X165830238Y-108414047D01*
X165792142Y-108490238D01*
X165792142Y-108680714D01*
X165754047Y-108756904D01*
X165563571Y-109023571D02*
X165563571Y-109328333D01*
X165296904Y-109137857D02*
X165982619Y-109137857D01*
X166058809Y-109175952D01*
X166096904Y-109252142D01*
X166096904Y-109328333D01*
X165563571Y-109480714D02*
X165563571Y-109785476D01*
X165296904Y-109595000D02*
X165982619Y-109595000D01*
X166058809Y-109633095D01*
X166096904Y-109709285D01*
X166096904Y-109785476D01*
X166058809Y-110356904D02*
X166096904Y-110280714D01*
X166096904Y-110128333D01*
X166058809Y-110052142D01*
X165982619Y-110014047D01*
X165677857Y-110014047D01*
X165601666Y-110052142D01*
X165563571Y-110128333D01*
X165563571Y-110280714D01*
X165601666Y-110356904D01*
X165677857Y-110395000D01*
X165754047Y-110395000D01*
X165830238Y-110014047D01*
X166096904Y-110737857D02*
X165563571Y-110737857D01*
X165715952Y-110737857D02*
X165639761Y-110775952D01*
X165601666Y-110814047D01*
X165563571Y-110890238D01*
X165563571Y-110966428D01*
X165563571Y-111156904D02*
X166096904Y-111347380D01*
X165563571Y-111537857D02*
X166096904Y-111347380D01*
X166287380Y-111271190D01*
X166325476Y-111233095D01*
X166363571Y-111156904D01*
X166173095Y-111652142D02*
X166173095Y-112261666D01*
X165296904Y-112337857D02*
X165296904Y-112795000D01*
X166096904Y-112566428D02*
X165296904Y-112566428D01*
X165563571Y-112985476D02*
X166096904Y-113137857D01*
X165715952Y-113290238D01*
X166096904Y-113442619D01*
X165563571Y-113595000D01*
X166096904Y-114014047D02*
X166058809Y-113937857D01*
X166020714Y-113899761D01*
X165944523Y-113861666D01*
X165715952Y-113861666D01*
X165639761Y-113899761D01*
X165601666Y-113937857D01*
X165563571Y-114014047D01*
X165563571Y-114128333D01*
X165601666Y-114204523D01*
X165639761Y-114242619D01*
X165715952Y-114280714D01*
X165944523Y-114280714D01*
X166020714Y-114242619D01*
X166058809Y-114204523D01*
X166096904Y-114128333D01*
X166096904Y-114014047D01*
X166173095Y-114433095D02*
X166173095Y-115042619D01*
X166020714Y-115690238D02*
X166058809Y-115652142D01*
X166096904Y-115537857D01*
X166096904Y-115461666D01*
X166058809Y-115347380D01*
X165982619Y-115271190D01*
X165906428Y-115233095D01*
X165754047Y-115195000D01*
X165639761Y-115195000D01*
X165487380Y-115233095D01*
X165411190Y-115271190D01*
X165335000Y-115347380D01*
X165296904Y-115461666D01*
X165296904Y-115537857D01*
X165335000Y-115652142D01*
X165373095Y-115690238D01*
X166058809Y-116337857D02*
X166096904Y-116261666D01*
X166096904Y-116109285D01*
X166058809Y-116033095D01*
X165982619Y-115995000D01*
X165677857Y-115995000D01*
X165601666Y-116033095D01*
X165563571Y-116109285D01*
X165563571Y-116261666D01*
X165601666Y-116337857D01*
X165677857Y-116375952D01*
X165754047Y-116375952D01*
X165830238Y-115995000D01*
X166096904Y-116833095D02*
X166058809Y-116756904D01*
X165982619Y-116718809D01*
X165296904Y-116718809D01*
X166096904Y-117252142D02*
X166058809Y-117175952D01*
X165982619Y-117137857D01*
X165296904Y-117137857D01*
D11*
%TO.C,J6*%
X129253333Y-68242380D02*
X129253333Y-68956666D01*
X129300952Y-69099523D01*
X129396190Y-69194761D01*
X129539047Y-69242380D01*
X129634285Y-69242380D01*
X128348571Y-68242380D02*
X128539047Y-68242380D01*
X128634285Y-68290000D01*
X128681904Y-68337619D01*
X128777142Y-68480476D01*
X128824761Y-68670952D01*
X128824761Y-69051904D01*
X128777142Y-69147142D01*
X128729523Y-69194761D01*
X128634285Y-69242380D01*
X128443809Y-69242380D01*
X128348571Y-69194761D01*
X128300952Y-69147142D01*
X128253333Y-69051904D01*
X128253333Y-68813809D01*
X128300952Y-68718571D01*
X128348571Y-68670952D01*
X128443809Y-68623333D01*
X128634285Y-68623333D01*
X128729523Y-68670952D01*
X128777142Y-68718571D01*
X128824761Y-68813809D01*
X124912380Y-59515714D02*
X124912380Y-59039523D01*
X123912380Y-59039523D01*
X124388571Y-59849047D02*
X124388571Y-60182380D01*
X124912380Y-60325238D02*
X124912380Y-59849047D01*
X123912380Y-59849047D01*
X123912380Y-60325238D01*
X124912380Y-60753809D02*
X123912380Y-60753809D01*
X123912380Y-60991904D01*
X123960000Y-61134761D01*
X124055238Y-61230000D01*
X124150476Y-61277619D01*
X124340952Y-61325238D01*
X124483809Y-61325238D01*
X124674285Y-61277619D01*
X124769523Y-61230000D01*
X124864761Y-61134761D01*
X124912380Y-60991904D01*
X124912380Y-60753809D01*
X124912380Y-62515714D02*
X123912380Y-62515714D01*
X123912380Y-62753809D01*
X123960000Y-62896666D01*
X124055238Y-62991904D01*
X124150476Y-63039523D01*
X124340952Y-63087142D01*
X124483809Y-63087142D01*
X124674285Y-63039523D01*
X124769523Y-62991904D01*
X124864761Y-62896666D01*
X124912380Y-62753809D01*
X124912380Y-62515714D01*
X124912380Y-63944285D02*
X124388571Y-63944285D01*
X124293333Y-63896666D01*
X124245714Y-63801428D01*
X124245714Y-63610952D01*
X124293333Y-63515714D01*
X124864761Y-63944285D02*
X124912380Y-63849047D01*
X124912380Y-63610952D01*
X124864761Y-63515714D01*
X124769523Y-63468095D01*
X124674285Y-63468095D01*
X124579047Y-63515714D01*
X124531428Y-63610952D01*
X124531428Y-63849047D01*
X124483809Y-63944285D01*
X124245714Y-64277619D02*
X124245714Y-64658571D01*
X123912380Y-64420476D02*
X124769523Y-64420476D01*
X124864761Y-64468095D01*
X124912380Y-64563333D01*
X124912380Y-64658571D01*
X124912380Y-65420476D02*
X124388571Y-65420476D01*
X124293333Y-65372857D01*
X124245714Y-65277619D01*
X124245714Y-65087142D01*
X124293333Y-64991904D01*
X124864761Y-65420476D02*
X124912380Y-65325238D01*
X124912380Y-65087142D01*
X124864761Y-64991904D01*
X124769523Y-64944285D01*
X124674285Y-64944285D01*
X124579047Y-64991904D01*
X124531428Y-65087142D01*
X124531428Y-65325238D01*
X124483809Y-65420476D01*
%TO.C,R9*%
X128722380Y-90638333D02*
X128246190Y-90305000D01*
X128722380Y-90066904D02*
X127722380Y-90066904D01*
X127722380Y-90447857D01*
X127770000Y-90543095D01*
X127817619Y-90590714D01*
X127912857Y-90638333D01*
X128055714Y-90638333D01*
X128150952Y-90590714D01*
X128198571Y-90543095D01*
X128246190Y-90447857D01*
X128246190Y-90066904D01*
X128722380Y-91114523D02*
X128722380Y-91305000D01*
X128674761Y-91400238D01*
X128627142Y-91447857D01*
X128484285Y-91543095D01*
X128293809Y-91590714D01*
X127912857Y-91590714D01*
X127817619Y-91543095D01*
X127770000Y-91495476D01*
X127722380Y-91400238D01*
X127722380Y-91209761D01*
X127770000Y-91114523D01*
X127817619Y-91066904D01*
X127912857Y-91019285D01*
X128150952Y-91019285D01*
X128246190Y-91066904D01*
X128293809Y-91114523D01*
X128341428Y-91209761D01*
X128341428Y-91400238D01*
X128293809Y-91495476D01*
X128246190Y-91543095D01*
X128150952Y-91590714D01*
%TO.C,R2*%
X131262380Y-63968333D02*
X130786190Y-63635000D01*
X131262380Y-63396904D02*
X130262380Y-63396904D01*
X130262380Y-63777857D01*
X130310000Y-63873095D01*
X130357619Y-63920714D01*
X130452857Y-63968333D01*
X130595714Y-63968333D01*
X130690952Y-63920714D01*
X130738571Y-63873095D01*
X130786190Y-63777857D01*
X130786190Y-63396904D01*
X130357619Y-64349285D02*
X130310000Y-64396904D01*
X130262380Y-64492142D01*
X130262380Y-64730238D01*
X130310000Y-64825476D01*
X130357619Y-64873095D01*
X130452857Y-64920714D01*
X130548095Y-64920714D01*
X130690952Y-64873095D01*
X131262380Y-64301666D01*
X131262380Y-64920714D01*
%TO.C,R1*%
X133167380Y-63968333D02*
X132691190Y-63635000D01*
X133167380Y-63396904D02*
X132167380Y-63396904D01*
X132167380Y-63777857D01*
X132215000Y-63873095D01*
X132262619Y-63920714D01*
X132357857Y-63968333D01*
X132500714Y-63968333D01*
X132595952Y-63920714D01*
X132643571Y-63873095D01*
X132691190Y-63777857D01*
X132691190Y-63396904D01*
X133167380Y-64920714D02*
X133167380Y-64349285D01*
X133167380Y-64635000D02*
X132167380Y-64635000D01*
X132310238Y-64539761D01*
X132405476Y-64444523D01*
X132453095Y-64349285D01*
%TO.C,R3*%
X128722380Y-64048333D02*
X128246190Y-63715000D01*
X128722380Y-63476904D02*
X127722380Y-63476904D01*
X127722380Y-63857857D01*
X127770000Y-63953095D01*
X127817619Y-64000714D01*
X127912857Y-64048333D01*
X128055714Y-64048333D01*
X128150952Y-64000714D01*
X128198571Y-63953095D01*
X128246190Y-63857857D01*
X128246190Y-63476904D01*
X127722380Y-64381666D02*
X127722380Y-65000714D01*
X128103333Y-64667380D01*
X128103333Y-64810238D01*
X128150952Y-64905476D01*
X128198571Y-64953095D01*
X128293809Y-65000714D01*
X128531904Y-65000714D01*
X128627142Y-64953095D01*
X128674761Y-64905476D01*
X128722380Y-64810238D01*
X128722380Y-64524523D01*
X128674761Y-64429285D01*
X128627142Y-64381666D01*
%TO.C,R5*%
X133167380Y-90638333D02*
X132691190Y-90305000D01*
X133167380Y-90066904D02*
X132167380Y-90066904D01*
X132167380Y-90447857D01*
X132215000Y-90543095D01*
X132262619Y-90590714D01*
X132357857Y-90638333D01*
X132500714Y-90638333D01*
X132595952Y-90590714D01*
X132643571Y-90543095D01*
X132691190Y-90447857D01*
X132691190Y-90066904D01*
X132167380Y-91543095D02*
X132167380Y-91066904D01*
X132643571Y-91019285D01*
X132595952Y-91066904D01*
X132548333Y-91162142D01*
X132548333Y-91400238D01*
X132595952Y-91495476D01*
X132643571Y-91543095D01*
X132738809Y-91590714D01*
X132976904Y-91590714D01*
X133072142Y-91543095D01*
X133119761Y-91495476D01*
X133167380Y-91400238D01*
X133167380Y-91162142D01*
X133119761Y-91066904D01*
X133072142Y-91019285D01*
%TO.C,J5*%
X181293333Y-59987380D02*
X181293333Y-60701666D01*
X181340952Y-60844523D01*
X181436190Y-60939761D01*
X181579047Y-60987380D01*
X181674285Y-60987380D01*
X180340952Y-59987380D02*
X180817142Y-59987380D01*
X180864761Y-60463571D01*
X180817142Y-60415952D01*
X180721904Y-60368333D01*
X180483809Y-60368333D01*
X180388571Y-60415952D01*
X180340952Y-60463571D01*
X180293333Y-60558809D01*
X180293333Y-60796904D01*
X180340952Y-60892142D01*
X180388571Y-60939761D01*
X180483809Y-60987380D01*
X180721904Y-60987380D01*
X180817142Y-60939761D01*
X180864761Y-60892142D01*
X187137380Y-64886904D02*
X187137380Y-64410714D01*
X186137380Y-64410714D01*
X186613571Y-65220238D02*
X186613571Y-65553571D01*
X187137380Y-65696428D02*
X187137380Y-65220238D01*
X186137380Y-65220238D01*
X186137380Y-65696428D01*
X187137380Y-66125000D02*
X186137380Y-66125000D01*
X186137380Y-66363095D01*
X186185000Y-66505952D01*
X186280238Y-66601190D01*
X186375476Y-66648809D01*
X186565952Y-66696428D01*
X186708809Y-66696428D01*
X186899285Y-66648809D01*
X186994523Y-66601190D01*
X187089761Y-66505952D01*
X187137380Y-66363095D01*
X187137380Y-66125000D01*
X187137380Y-67886904D02*
X186137380Y-67886904D01*
X186137380Y-68267857D01*
X186185000Y-68363095D01*
X186232619Y-68410714D01*
X186327857Y-68458333D01*
X186470714Y-68458333D01*
X186565952Y-68410714D01*
X186613571Y-68363095D01*
X186661190Y-68267857D01*
X186661190Y-67886904D01*
X187137380Y-69029761D02*
X187089761Y-68934523D01*
X187042142Y-68886904D01*
X186946904Y-68839285D01*
X186661190Y-68839285D01*
X186565952Y-68886904D01*
X186518333Y-68934523D01*
X186470714Y-69029761D01*
X186470714Y-69172619D01*
X186518333Y-69267857D01*
X186565952Y-69315476D01*
X186661190Y-69363095D01*
X186946904Y-69363095D01*
X187042142Y-69315476D01*
X187089761Y-69267857D01*
X187137380Y-69172619D01*
X187137380Y-69029761D01*
X186470714Y-69696428D02*
X187137380Y-69886904D01*
X186661190Y-70077380D01*
X187137380Y-70267857D01*
X186470714Y-70458333D01*
X187089761Y-71220238D02*
X187137380Y-71125000D01*
X187137380Y-70934523D01*
X187089761Y-70839285D01*
X186994523Y-70791666D01*
X186613571Y-70791666D01*
X186518333Y-70839285D01*
X186470714Y-70934523D01*
X186470714Y-71125000D01*
X186518333Y-71220238D01*
X186613571Y-71267857D01*
X186708809Y-71267857D01*
X186804047Y-70791666D01*
X187137380Y-71696428D02*
X186470714Y-71696428D01*
X186661190Y-71696428D02*
X186565952Y-71744047D01*
X186518333Y-71791666D01*
X186470714Y-71886904D01*
X186470714Y-71982142D01*
%TO.C,JP1*%
X125392380Y-101401666D02*
X126106666Y-101401666D01*
X126249523Y-101354047D01*
X126344761Y-101258809D01*
X126392380Y-101115952D01*
X126392380Y-101020714D01*
X126392380Y-101877857D02*
X125392380Y-101877857D01*
X125392380Y-102258809D01*
X125440000Y-102354047D01*
X125487619Y-102401666D01*
X125582857Y-102449285D01*
X125725714Y-102449285D01*
X125820952Y-102401666D01*
X125868571Y-102354047D01*
X125916190Y-102258809D01*
X125916190Y-101877857D01*
X126392380Y-103401666D02*
X126392380Y-102830238D01*
X126392380Y-103115952D02*
X125392380Y-103115952D01*
X125535238Y-103020714D01*
X125630476Y-102925476D01*
X125678095Y-102830238D01*
%TO.C,J7*%
X179231737Y-94738550D02*
X179452463Y-94059224D01*
X179451320Y-93908644D01*
X179390174Y-93788637D01*
X179269024Y-93699203D01*
X179178447Y-93669773D01*
X179594044Y-94856271D02*
X180228082Y-95062283D01*
X180129503Y-93978790D01*
%TO.C,R12*%
X126817380Y-96789642D02*
X126341190Y-96456309D01*
X126817380Y-96218214D02*
X125817380Y-96218214D01*
X125817380Y-96599166D01*
X125865000Y-96694404D01*
X125912619Y-96742023D01*
X126007857Y-96789642D01*
X126150714Y-96789642D01*
X126245952Y-96742023D01*
X126293571Y-96694404D01*
X126341190Y-96599166D01*
X126341190Y-96218214D01*
X126817380Y-97742023D02*
X126817380Y-97170595D01*
X126817380Y-97456309D02*
X125817380Y-97456309D01*
X125960238Y-97361071D01*
X126055476Y-97265833D01*
X126103095Y-97170595D01*
X125912619Y-98122976D02*
X125865000Y-98170595D01*
X125817380Y-98265833D01*
X125817380Y-98503928D01*
X125865000Y-98599166D01*
X125912619Y-98646785D01*
X126007857Y-98694404D01*
X126103095Y-98694404D01*
X126245952Y-98646785D01*
X126817380Y-98075357D01*
X126817380Y-98694404D01*
%TO.C,R4*%
X126817380Y-64048333D02*
X126341190Y-63715000D01*
X126817380Y-63476904D02*
X125817380Y-63476904D01*
X125817380Y-63857857D01*
X125865000Y-63953095D01*
X125912619Y-64000714D01*
X126007857Y-64048333D01*
X126150714Y-64048333D01*
X126245952Y-64000714D01*
X126293571Y-63953095D01*
X126341190Y-63857857D01*
X126341190Y-63476904D01*
X126150714Y-64905476D02*
X126817380Y-64905476D01*
X125769761Y-64667380D02*
X126484047Y-64429285D01*
X126484047Y-65048333D01*
%TO.C,R19*%
X191777857Y-98877380D02*
X192111190Y-98401190D01*
X192349285Y-98877380D02*
X192349285Y-97877380D01*
X191968333Y-97877380D01*
X191873095Y-97925000D01*
X191825476Y-97972619D01*
X191777857Y-98067857D01*
X191777857Y-98210714D01*
X191825476Y-98305952D01*
X191873095Y-98353571D01*
X191968333Y-98401190D01*
X192349285Y-98401190D01*
X190825476Y-98877380D02*
X191396904Y-98877380D01*
X191111190Y-98877380D02*
X191111190Y-97877380D01*
X191206428Y-98020238D01*
X191301666Y-98115476D01*
X191396904Y-98163095D01*
X190349285Y-98877380D02*
X190158809Y-98877380D01*
X190063571Y-98829761D01*
X190015952Y-98782142D01*
X189920714Y-98639285D01*
X189873095Y-98448809D01*
X189873095Y-98067857D01*
X189920714Y-97972619D01*
X189968333Y-97925000D01*
X190063571Y-97877380D01*
X190254047Y-97877380D01*
X190349285Y-97925000D01*
X190396904Y-97972619D01*
X190444523Y-98067857D01*
X190444523Y-98305952D01*
X190396904Y-98401190D01*
X190349285Y-98448809D01*
X190254047Y-98496428D01*
X190063571Y-98496428D01*
X189968333Y-98448809D01*
X189920714Y-98401190D01*
X189873095Y-98305952D01*
%TO.C,R10*%
X126817380Y-90162142D02*
X126341190Y-89828809D01*
X126817380Y-89590714D02*
X125817380Y-89590714D01*
X125817380Y-89971666D01*
X125865000Y-90066904D01*
X125912619Y-90114523D01*
X126007857Y-90162142D01*
X126150714Y-90162142D01*
X126245952Y-90114523D01*
X126293571Y-90066904D01*
X126341190Y-89971666D01*
X126341190Y-89590714D01*
X126817380Y-91114523D02*
X126817380Y-90543095D01*
X126817380Y-90828809D02*
X125817380Y-90828809D01*
X125960238Y-90733571D01*
X126055476Y-90638333D01*
X126103095Y-90543095D01*
X125817380Y-91733571D02*
X125817380Y-91828809D01*
X125865000Y-91924047D01*
X125912619Y-91971666D01*
X126007857Y-92019285D01*
X126198333Y-92066904D01*
X126436428Y-92066904D01*
X126626904Y-92019285D01*
X126722142Y-91971666D01*
X126769761Y-91924047D01*
X126817380Y-91828809D01*
X126817380Y-91733571D01*
X126769761Y-91638333D01*
X126722142Y-91590714D01*
X126626904Y-91543095D01*
X126436428Y-91495476D01*
X126198333Y-91495476D01*
X126007857Y-91543095D01*
X125912619Y-91590714D01*
X125865000Y-91638333D01*
X125817380Y-91733571D01*
%TO.C,R11*%
X128722380Y-96789642D02*
X128246190Y-96456309D01*
X128722380Y-96218214D02*
X127722380Y-96218214D01*
X127722380Y-96599166D01*
X127770000Y-96694404D01*
X127817619Y-96742023D01*
X127912857Y-96789642D01*
X128055714Y-96789642D01*
X128150952Y-96742023D01*
X128198571Y-96694404D01*
X128246190Y-96599166D01*
X128246190Y-96218214D01*
X128722380Y-97742023D02*
X128722380Y-97170595D01*
X128722380Y-97456309D02*
X127722380Y-97456309D01*
X127865238Y-97361071D01*
X127960476Y-97265833D01*
X128008095Y-97170595D01*
X128722380Y-98694404D02*
X128722380Y-98122976D01*
X128722380Y-98408690D02*
X127722380Y-98408690D01*
X127865238Y-98313452D01*
X127960476Y-98218214D01*
X128008095Y-98122976D01*
%TO.C,R8*%
X131262380Y-90638333D02*
X130786190Y-90305000D01*
X131262380Y-90066904D02*
X130262380Y-90066904D01*
X130262380Y-90447857D01*
X130310000Y-90543095D01*
X130357619Y-90590714D01*
X130452857Y-90638333D01*
X130595714Y-90638333D01*
X130690952Y-90590714D01*
X130738571Y-90543095D01*
X130786190Y-90447857D01*
X130786190Y-90066904D01*
X130690952Y-91209761D02*
X130643333Y-91114523D01*
X130595714Y-91066904D01*
X130500476Y-91019285D01*
X130452857Y-91019285D01*
X130357619Y-91066904D01*
X130310000Y-91114523D01*
X130262380Y-91209761D01*
X130262380Y-91400238D01*
X130310000Y-91495476D01*
X130357619Y-91543095D01*
X130452857Y-91590714D01*
X130500476Y-91590714D01*
X130595714Y-91543095D01*
X130643333Y-91495476D01*
X130690952Y-91400238D01*
X130690952Y-91209761D01*
X130738571Y-91114523D01*
X130786190Y-91066904D01*
X130881428Y-91019285D01*
X131071904Y-91019285D01*
X131167142Y-91066904D01*
X131214761Y-91114523D01*
X131262380Y-91209761D01*
X131262380Y-91400238D01*
X131214761Y-91495476D01*
X131167142Y-91543095D01*
X131071904Y-91590714D01*
X130881428Y-91590714D01*
X130786190Y-91543095D01*
X130738571Y-91495476D01*
X130690952Y-91400238D01*
D12*
%TO.C,J4*%
X116375000Y-99220000D02*
X116375000Y-99790000D01*
X116375000Y-91600000D02*
X116375000Y-92620000D01*
X121575000Y-89060000D02*
X121575000Y-90080000D01*
X121575000Y-86970000D02*
X116375000Y-86970000D01*
X121575000Y-96680000D02*
X121575000Y-97700000D01*
X121575000Y-94140000D02*
X121575000Y-95160000D01*
X116375000Y-94140000D02*
X116375000Y-95160000D01*
X121575000Y-91600000D02*
X121575000Y-92620000D01*
X121575000Y-99220000D02*
X121575000Y-99790000D01*
X123015000Y-87540000D02*
X121575000Y-87540000D01*
X116375000Y-89060000D02*
X116375000Y-90080000D01*
X116375000Y-86970000D02*
X116375000Y-87540000D01*
X116375000Y-96680000D02*
X116375000Y-97700000D01*
X121575000Y-99790000D02*
X116375000Y-99790000D01*
X121575000Y-86970000D02*
X121575000Y-87540000D01*
D10*
%TO.C,BT1*%
X169719000Y-126014000D02*
X169019000Y-126014000D01*
X140180000Y-51640000D02*
X144380000Y-51640000D01*
X135330000Y-82690000D02*
X135330000Y-87490000D01*
X134080000Y-123640000D02*
X142530000Y-123640000D01*
X146230000Y-49040000D02*
X146230000Y-46540000D01*
X173780000Y-123640000D02*
X165330000Y-123640000D01*
X148480000Y-51640000D02*
X148480000Y-118540000D01*
X167680000Y-118540000D02*
X167680000Y-51640000D01*
X159380000Y-51640000D02*
X159380000Y-118540000D01*
X169019000Y-126014000D02*
X168319000Y-126014000D01*
X159380000Y-118540000D02*
X163480000Y-118540000D01*
X148480000Y-118540000D02*
X144380000Y-118540000D01*
X163480000Y-51640000D02*
X159380000Y-51640000D01*
X172530000Y-87490000D02*
X172530000Y-82690000D01*
X161630000Y-49040000D02*
X165330000Y-49040000D01*
X165330000Y-49040000D02*
X165330000Y-46540000D01*
X134080000Y-82690000D02*
X135330000Y-82690000D01*
X144380000Y-118540000D02*
X140180000Y-118540000D01*
X169019000Y-126714000D02*
X169019000Y-126014000D01*
X173780000Y-87490000D02*
X172530000Y-87490000D01*
X140180000Y-118540000D02*
X140180000Y-51640000D01*
X165330000Y-121140000D02*
X165330000Y-123640000D01*
X138841000Y-44866000D02*
X138841000Y-43466000D01*
X173780000Y-46540000D02*
X165330000Y-46540000D01*
X163480000Y-118540000D02*
X167680000Y-118540000D01*
X146230000Y-123640000D02*
X161630000Y-123640000D01*
X139541000Y-44166000D02*
X138141000Y-44166000D01*
X161630000Y-46540000D02*
X146230000Y-46540000D01*
X142530000Y-46540000D02*
X142530000Y-49040000D01*
X142530000Y-49040000D02*
X146230000Y-49040000D01*
X135330000Y-87490000D02*
X134080000Y-87490000D01*
X169019000Y-126014000D02*
X169019000Y-125314000D01*
X161630000Y-123640000D02*
X161630000Y-121140000D01*
X142530000Y-46540000D02*
X134080000Y-46540000D01*
X144380000Y-51640000D02*
X148480000Y-51640000D01*
X142530000Y-121140000D02*
X146230000Y-121140000D01*
X161630000Y-46540000D02*
X161630000Y-49040000D01*
X146230000Y-121140000D02*
X146230000Y-123640000D01*
X173780000Y-123640000D02*
X173780000Y-87490000D01*
X173780000Y-82690000D02*
X173780000Y-46540000D01*
X172530000Y-82690000D02*
X173780000Y-82690000D01*
X161630000Y-121140000D02*
X165330000Y-121140000D01*
X167680000Y-51640000D02*
X163480000Y-51640000D01*
X134080000Y-87490000D02*
X134080000Y-123640000D01*
X134080000Y-46540000D02*
X134080000Y-82690000D01*
X142530000Y-123640000D02*
X142530000Y-121140000D01*
X155430000Y-57340000D02*
G75*
G03*
X155430000Y-57340000I-1500000J0D01*
G01*
X172130000Y-121140000D02*
G75*
G03*
X172130000Y-121140000I-850000J0D01*
G01*
X155430000Y-112840000D02*
G75*
G03*
X155430000Y-112840000I-1500000J0D01*
G01*
D12*
%TO.C,J6*%
X131520000Y-76960000D02*
X131520000Y-77980000D01*
X131520000Y-71880000D02*
X131520000Y-72900000D01*
X131520000Y-69790000D02*
X131520000Y-70360000D01*
X126320000Y-79500000D02*
X126320000Y-80520000D01*
X131520000Y-84580000D02*
X131520000Y-85150000D01*
X131520000Y-82040000D02*
X131520000Y-83060000D01*
X126320000Y-84580000D02*
X126320000Y-85150000D01*
X132960000Y-70360000D02*
X131520000Y-70360000D01*
X126320000Y-76960000D02*
X126320000Y-77980000D01*
X126320000Y-74420000D02*
X126320000Y-75440000D01*
X131520000Y-85150000D02*
X126320000Y-85150000D01*
X126320000Y-69790000D02*
X126320000Y-70360000D01*
X126320000Y-71880000D02*
X126320000Y-72900000D01*
X131520000Y-79500000D02*
X131520000Y-80520000D01*
X131520000Y-74420000D02*
X131520000Y-75440000D01*
X131520000Y-69790000D02*
X126320000Y-69790000D01*
X126320000Y-82040000D02*
X126320000Y-83060000D01*
%TO.C,R9*%
X127747500Y-88242224D02*
X127747500Y-87732776D01*
X128792500Y-88242224D02*
X128792500Y-87732776D01*
%TO.C,R2*%
X131332500Y-67287224D02*
X131332500Y-66777776D01*
X130287500Y-67287224D02*
X130287500Y-66777776D01*
%TO.C,R1*%
X133237500Y-67287224D02*
X133237500Y-66777776D01*
X132192500Y-67287224D02*
X132192500Y-66777776D01*
%TO.C,R3*%
X128792500Y-67287224D02*
X128792500Y-66777776D01*
X127747500Y-67287224D02*
X127747500Y-66777776D01*
%TO.C,R5*%
X133237500Y-88242224D02*
X133237500Y-87732776D01*
X132192500Y-88242224D02*
X132192500Y-87732776D01*
%TO.C,J5*%
X185000000Y-62105000D02*
X183560000Y-62105000D01*
X183560000Y-66165000D02*
X183560000Y-67185000D01*
X183560000Y-63625000D02*
X183560000Y-64645000D01*
X183560000Y-61535000D02*
X183560000Y-62105000D01*
X178360000Y-73785000D02*
X178360000Y-74355000D01*
X178360000Y-71245000D02*
X178360000Y-72265000D01*
X183560000Y-68705000D02*
X183560000Y-69725000D01*
X183560000Y-71245000D02*
X183560000Y-72265000D01*
X183560000Y-61535000D02*
X178360000Y-61535000D01*
X178360000Y-61535000D02*
X178360000Y-62105000D01*
X178360000Y-66165000D02*
X178360000Y-67185000D01*
X178360000Y-68705000D02*
X178360000Y-69725000D01*
X183560000Y-73785000D02*
X183560000Y-74355000D01*
X183560000Y-74355000D02*
X178360000Y-74355000D01*
X178360000Y-63625000D02*
X178360000Y-64645000D01*
%TO.C,JP1*%
X129540000Y-103565000D02*
X132140000Y-103565000D01*
X132140000Y-100905000D02*
X132140000Y-103565000D01*
X126940000Y-100905000D02*
X126940000Y-102235000D01*
X128270000Y-100905000D02*
X126940000Y-100905000D01*
X129540000Y-100905000D02*
X132140000Y-100905000D01*
X129540000Y-100905000D02*
X129540000Y-103565000D01*
%TO.C,J7*%
X183507554Y-86961601D02*
X183683694Y-86419499D01*
X178938232Y-92416589D02*
X177492626Y-91946883D01*
X178762092Y-92958691D02*
X178938232Y-92416589D01*
X179407938Y-90970983D02*
X180508038Y-87585222D01*
X178762092Y-92958691D02*
X181291902Y-93780676D01*
X181153884Y-85597514D02*
X183683694Y-86419499D01*
X182722651Y-89377285D02*
X183683694Y-86419499D01*
X181291902Y-93780676D02*
X182252945Y-90822891D01*
%TO.C,R12*%
X126887500Y-94234724D02*
X126887500Y-93725276D01*
X125842500Y-94234724D02*
X125842500Y-93725276D01*
%TO.C,R4*%
X125842500Y-67287224D02*
X125842500Y-66777776D01*
X126887500Y-67287224D02*
X126887500Y-66777776D01*
%TO.C,R19*%
X187857224Y-98947500D02*
X187347776Y-98947500D01*
X187857224Y-97902500D02*
X187347776Y-97902500D01*
%TO.C,R10*%
X126887500Y-88242224D02*
X126887500Y-87732776D01*
X125842500Y-88242224D02*
X125842500Y-87732776D01*
%TO.C,R11*%
X128792500Y-94234724D02*
X128792500Y-93725276D01*
X127747500Y-94234724D02*
X127747500Y-93725276D01*
%TO.C,R8*%
X131332500Y-88242224D02*
X131332500Y-87732776D01*
X130287500Y-88242224D02*
X130287500Y-87732776D01*
%TD*%
M02*
