%TF.GenerationSoftware,KiCad,Pcbnew,(6.0.2)*%
%TF.CreationDate,2022-05-01T12:50:51-07:00*%
%TF.ProjectId,controller,636f6e74-726f-46c6-9c65-722e6b696361,rev?*%
%TF.SameCoordinates,Original*%
%TF.FileFunction,Paste,Top*%
%TF.FilePolarity,Positive*%
%FSLAX46Y46*%
G04 Gerber Fmt 4.6, Leading zero omitted, Abs format (unit mm)*
G04 Created by KiCad (PCBNEW (6.0.2)) date 2022-05-01 12:50:51*
%MOMM*%
%LPD*%
G01*
G04 APERTURE LIST*
G04 Aperture macros list*
%AMRoundRect*
0 Rectangle with rounded corners*
0 $1 Rounding radius*
0 $2 $3 $4 $5 $6 $7 $8 $9 X,Y pos of 4 corners*
0 Add a 4 corners polygon primitive as box body*
4,1,4,$2,$3,$4,$5,$6,$7,$8,$9,$2,$3,0*
0 Add four circle primitives for the rounded corners*
1,1,$1+$1,$2,$3*
1,1,$1+$1,$4,$5*
1,1,$1+$1,$6,$7*
1,1,$1+$1,$8,$9*
0 Add four rect primitives between the rounded corners*
20,1,$1+$1,$2,$3,$4,$5,0*
20,1,$1+$1,$4,$5,$6,$7,0*
20,1,$1+$1,$6,$7,$8,$9,0*
20,1,$1+$1,$8,$9,$2,$3,0*%
%AMRotRect*
0 Rectangle, with rotation*
0 The origin of the aperture is its center*
0 $1 length*
0 $2 width*
0 $3 Rotation angle, in degrees counterclockwise*
0 Add horizontal line*
21,1,$1,$2,0,0,$3*%
G04 Aperture macros list end*
%ADD10RoundRect,0.237500X-0.237500X0.250000X-0.237500X-0.250000X0.237500X-0.250000X0.237500X0.250000X0*%
%ADD11RoundRect,0.237500X-0.250000X-0.237500X0.250000X-0.237500X0.250000X0.237500X-0.250000X0.237500X0*%
%ADD12RoundRect,0.237500X0.237500X-0.250000X0.237500X0.250000X-0.237500X0.250000X-0.237500X-0.250000X0*%
%ADD13RotRect,3.150000X1.000000X162.000000*%
%ADD14RotRect,3.150000X1.000000X252.000000*%
%ADD15RoundRect,0.237500X0.250000X0.237500X-0.250000X0.237500X-0.250000X-0.237500X0.250000X-0.237500X0*%
G04 APERTURE END LIST*
D10*
%TO.C,R6*%
X120015000Y-61595000D03*
X120015000Y-63420000D03*
%TD*%
D11*
%TO.C,R15*%
X138787500Y-79375000D03*
X140612500Y-79375000D03*
%TD*%
D12*
%TO.C,R21*%
X150495000Y-104060000D03*
X150495000Y-102235000D03*
%TD*%
D13*
%TO.C,J2*%
X183722932Y-70651219D03*
X178920097Y-69090683D03*
X184507836Y-68235535D03*
X179705000Y-66675000D03*
X185292739Y-65819852D03*
X180489903Y-64259316D03*
X186077642Y-63404168D03*
X181274806Y-61843633D03*
X186862545Y-60988485D03*
X182059710Y-59427949D03*
%TD*%
D14*
%TO.C,J3*%
X149100684Y-115719904D03*
X147540148Y-120522739D03*
X146685000Y-114935000D03*
X145124465Y-119737836D03*
X144269317Y-114150097D03*
X142708781Y-118952933D03*
X141853633Y-113365194D03*
X140293098Y-118168030D03*
X139437950Y-112580291D03*
X137877414Y-117383126D03*
%TD*%
D11*
%TO.C,R16*%
X138787500Y-81280000D03*
X140612500Y-81280000D03*
%TD*%
D15*
%TO.C,R14*%
X156130000Y-102235000D03*
X154305000Y-102235000D03*
%TD*%
D10*
%TO.C,R7*%
X118110000Y-61595000D03*
X118110000Y-63420000D03*
%TD*%
D11*
%TO.C,R17*%
X154305000Y-107950000D03*
X156130000Y-107950000D03*
%TD*%
D12*
%TO.C,R20*%
X152400000Y-104140000D03*
X152400000Y-102315000D03*
%TD*%
D13*
%TO.C,J1*%
X166809160Y-115404477D03*
X162006324Y-113843941D03*
X167594063Y-112988793D03*
X162791228Y-111428257D03*
X168378966Y-110573110D03*
X163576131Y-109012574D03*
X169163869Y-108157426D03*
X164361034Y-106596890D03*
X169948772Y-105741743D03*
X165145937Y-104181207D03*
X170733676Y-103326059D03*
X165930840Y-101765523D03*
%TD*%
D11*
%TO.C,R13*%
X154305000Y-104140000D03*
X156130000Y-104140000D03*
%TD*%
%TO.C,R18*%
X154305000Y-106045000D03*
X156130000Y-106045000D03*
%TD*%
M02*
