%TF.GenerationSoftware,KiCad,Pcbnew,(6.0.2)*%
%TF.CreationDate,2022-05-01T12:50:51-07:00*%
%TF.ProjectId,controller,636f6e74-726f-46c6-9c65-722e6b696361,rev?*%
%TF.SameCoordinates,Original*%
%TF.FileFunction,Paste,Bot*%
%TF.FilePolarity,Positive*%
%FSLAX46Y46*%
G04 Gerber Fmt 4.6, Leading zero omitted, Abs format (unit mm)*
G04 Created by KiCad (PCBNEW (6.0.2)) date 2022-05-01 12:50:51*
%MOMM*%
%LPD*%
G01*
G04 APERTURE LIST*
G04 Aperture macros list*
%AMRoundRect*
0 Rectangle with rounded corners*
0 $1 Rounding radius*
0 $2 $3 $4 $5 $6 $7 $8 $9 X,Y pos of 4 corners*
0 Add a 4 corners polygon primitive as box body*
4,1,4,$2,$3,$4,$5,$6,$7,$8,$9,$2,$3,0*
0 Add four circle primitives for the rounded corners*
1,1,$1+$1,$2,$3*
1,1,$1+$1,$4,$5*
1,1,$1+$1,$6,$7*
1,1,$1+$1,$8,$9*
0 Add four rect primitives between the rounded corners*
20,1,$1+$1,$2,$3,$4,$5,0*
20,1,$1+$1,$4,$5,$6,$7,0*
20,1,$1+$1,$6,$7,$8,$9,0*
20,1,$1+$1,$8,$9,$2,$3,0*%
%AMRotRect*
0 Rectangle, with rotation*
0 The origin of the aperture is its center*
0 $1 length*
0 $2 width*
0 $3 Rotation angle, in degrees counterclockwise*
0 Add horizontal line*
21,1,$1,$2,0,0,$3*%
G04 Aperture macros list end*
%ADD10R,3.150000X1.000000*%
%ADD11R,6.500000X4.400000*%
%ADD12RoundRect,0.237500X0.237500X-0.250000X0.237500X0.250000X-0.237500X0.250000X-0.237500X-0.250000X0*%
%ADD13RotRect,2.510000X1.000000X342.000000*%
%ADD14RoundRect,0.237500X0.250000X0.237500X-0.250000X0.237500X-0.250000X-0.237500X0.250000X-0.237500X0*%
G04 APERTURE END LIST*
D10*
%TO.C,J4*%
X121500000Y-88300000D03*
X116450000Y-88300000D03*
X121500000Y-90840000D03*
X116450000Y-90840000D03*
X121500000Y-93380000D03*
X116450000Y-93380000D03*
X121500000Y-95920000D03*
X116450000Y-95920000D03*
X121500000Y-98460000D03*
X116450000Y-98460000D03*
%TD*%
D11*
%TO.C,BT1*%
X163480000Y-125840000D03*
X163480000Y-44340000D03*
X144380000Y-44340000D03*
X144380000Y-125840000D03*
%TD*%
D10*
%TO.C,J6*%
X131445000Y-71120000D03*
X126395000Y-71120000D03*
X131445000Y-73660000D03*
X126395000Y-73660000D03*
X131445000Y-76200000D03*
X126395000Y-76200000D03*
X131445000Y-78740000D03*
X126395000Y-78740000D03*
X131445000Y-81280000D03*
X126395000Y-81280000D03*
X131445000Y-83820000D03*
X126395000Y-83820000D03*
%TD*%
D12*
%TO.C,R9*%
X128270000Y-88900000D03*
X128270000Y-87075000D03*
%TD*%
%TO.C,R2*%
X130810000Y-67945000D03*
X130810000Y-66120000D03*
%TD*%
%TO.C,R1*%
X132715000Y-67945000D03*
X132715000Y-66120000D03*
%TD*%
%TO.C,R3*%
X128270000Y-67945000D03*
X128270000Y-66120000D03*
%TD*%
%TO.C,R5*%
X132715000Y-88900000D03*
X132715000Y-87075000D03*
%TD*%
D10*
%TO.C,J5*%
X183485000Y-62865000D03*
X178435000Y-62865000D03*
X183485000Y-65405000D03*
X178435000Y-65405000D03*
X183485000Y-67945000D03*
X178435000Y-67945000D03*
X183485000Y-70485000D03*
X178435000Y-70485000D03*
X183485000Y-73025000D03*
X178435000Y-73025000D03*
%TD*%
D13*
%TO.C,J7*%
X178863991Y-91593355D03*
X182796892Y-90200518D03*
X180433798Y-86761988D03*
%TD*%
D12*
%TO.C,R12*%
X126365000Y-94892500D03*
X126365000Y-93067500D03*
%TD*%
%TO.C,R4*%
X126365000Y-67945000D03*
X126365000Y-66120000D03*
%TD*%
D14*
%TO.C,R19*%
X188515000Y-98425000D03*
X186690000Y-98425000D03*
%TD*%
D12*
%TO.C,R10*%
X126365000Y-88900000D03*
X126365000Y-87075000D03*
%TD*%
%TO.C,R11*%
X128270000Y-94892500D03*
X128270000Y-93067500D03*
%TD*%
%TO.C,R8*%
X130810000Y-88900000D03*
X130810000Y-87075000D03*
%TD*%
M02*
