M48
; DRILL file {KiCad (6.0.2)} date Sun May  1 12:50:57 2022
; FORMAT={-:-/ absolute / inch / decimal}
; #@! TF.CreationDate,2022-05-01T12:50:57-07:00
; #@! TF.GenerationSoftware,Kicad,Pcbnew,(6.0.2)
; #@! TF.FileFunction,Plated,1,4,PTH
FMAT,2
INCH
; #@! TA.AperFunction,Plated,PTH,ViaDrill
T1C0.0118
; #@! TA.AperFunction,Plated,PTH,ViaDrill
T2C0.0157
; #@! TA.AperFunction,Plated,PTH,ViaDrill
T3C0.0197
; #@! TA.AperFunction,Plated,PTH,ViaDrill
T4C0.0394
; #@! TA.AperFunction,Plated,PTH,ComponentDrill
T5C0.0394
; #@! TA.AperFunction,Plated,PTH,ComponentDrill
T6C0.0402
; #@! TA.AperFunction,Plated,PTH,ComponentDrill
T7C0.0409
; #@! TA.AperFunction,Plated,PTH,ComponentDrill
T8C0.0787
%
G90
G05
T1
X4.95Y-2.725
X5.08Y-2.71
X5.1Y-3.45
X5.15Y-2.725
X5.18Y-2.64
X5.2Y-3.24
X5.21Y-3.14
X5.25Y-2.7
X5.3Y-3.17
X5.32Y-3.39
X5.32Y-3.42
X5.32Y-3.47
X5.32Y-3.66
X5.32Y-3.74
X5.33Y-3.25
X5.35Y-3.67
X5.35Y-3.74
X5.38Y-3.67
X5.38Y-3.74
X5.41Y-3.68
X5.41Y-3.75
X5.45Y-3.68
X5.45Y-3.75
X5.5129Y-3.4571
X5.54Y-3.38
X5.64Y-3.67
X5.81Y-4.3
X5.83Y-4.33
X5.86Y-4.36
X5.89Y-3.92
X5.89Y-4.39
X5.93Y-3.34
X5.93Y-3.75
X5.95Y-3.725
X5.99Y-3.42
X6.0Y-3.26
X6.05Y-4.075
X6.06Y-3.45
X6.12Y-4.07
X6.26Y-3.8292
X6.31Y-4.34
X6.31Y-4.37
X6.31Y-4.41
X6.33Y-4.52
X6.4Y-4.33
X6.44Y-4.24
X6.52Y-4.16
X6.95Y-3.33
X6.98Y-3.34
X7.04Y-3.33
T2
X4.925Y-3.45
X5.0Y-2.55
X5.0Y-2.85
X5.075Y-3.2
T3
X5.21Y-3.36
X6.98Y-3.46
T4
X4.93Y-3.88
X5.97Y-4.61
X6.68Y-1.71
X6.87Y-4.1
X7.38Y-2.93
T5
X4.6763Y-3.3322
X4.7072Y-3.2371
X4.7381Y-3.142
X4.769Y-3.0469
X4.8Y-2.9518
X4.8309Y-2.8567
X4.8618Y-2.7616
X4.8927Y-2.6665
X5.05Y-4.025
X5.15Y-4.025
X5.2087Y-2.3213
X5.425Y-1.6556
X5.5323Y-3.6103
X5.5632Y-3.5152
X5.5941Y-3.4201
X5.625Y-3.325
X5.6559Y-3.2299
X5.6868Y-3.1348
X5.7177Y-3.0397
X5.7486Y-2.9446
X6.7304Y-2.8157
X6.9467Y-2.15
T6
X5.7631Y-3.4699
X5.8489Y-3.235
X5.8582Y-3.5008
X5.8798Y-3.1398
X5.9107Y-3.0447
X5.9533Y-3.5317
X5.9794Y-2.8042
X6.0484Y-3.5626
X6.0745Y-2.8351
X6.1435Y-3.5935
X6.1696Y-2.866
X6.2386Y-3.6244
X6.2647Y-2.8969
X6.3337Y-3.6553
X6.3598Y-2.9278
X6.4288Y-3.6862
X6.4549Y-2.9587
X6.5239Y-3.7171
X6.55Y-2.9896
X6.619Y-3.748
X6.6451Y-3.0205
X6.7141Y-3.7789
X6.7402Y-3.0514
X6.8092Y-3.8098
X6.8353Y-3.0823
X6.9043Y-3.8407
X6.9304Y-3.1132
X6.9994Y-3.8716
X7.0255Y-3.1441
X7.0945Y-3.9025
X7.1206Y-3.175
X7.1896Y-3.9334
X7.2157Y-3.2059
X7.2847Y-3.9643
X7.3108Y-3.2368
X7.3799Y-3.9952
X7.406Y-3.2677
X7.475Y-4.0261
X7.5011Y-3.2986
X7.5701Y-4.0571
X7.5962Y-3.3295
X7.6913Y-3.3604
X7.7864Y-3.3913
T7
X5.6426Y-3.7347
X5.7377Y-3.7656
X5.8328Y-3.7965
X5.9279Y-3.8274
X6.023Y-3.8583
X6.1181Y-3.8892
X6.2132Y-3.9201
X6.3083Y-3.951
T8
X5.175Y-1.825
X7.025Y-1.925
T0
M30
