%TF.GenerationSoftware,KiCad,Pcbnew,(6.0.2)*%
%TF.CreationDate,2022-05-01T12:50:51-07:00*%
%TF.ProjectId,controller,636f6e74-726f-46c6-9c65-722e6b696361,rev?*%
%TF.SameCoordinates,Original*%
%TF.FileFunction,Copper,L1,Top*%
%TF.FilePolarity,Positive*%
%FSLAX46Y46*%
G04 Gerber Fmt 4.6, Leading zero omitted, Abs format (unit mm)*
G04 Created by KiCad (PCBNEW (6.0.2)) date 2022-05-01 12:50:51*
%MOMM*%
%LPD*%
G01*
G04 APERTURE LIST*
G04 Aperture macros list*
%AMRoundRect*
0 Rectangle with rounded corners*
0 $1 Rounding radius*
0 $2 $3 $4 $5 $6 $7 $8 $9 X,Y pos of 4 corners*
0 Add a 4 corners polygon primitive as box body*
4,1,4,$2,$3,$4,$5,$6,$7,$8,$9,$2,$3,0*
0 Add four circle primitives for the rounded corners*
1,1,$1+$1,$2,$3*
1,1,$1+$1,$4,$5*
1,1,$1+$1,$6,$7*
1,1,$1+$1,$8,$9*
0 Add four rect primitives between the rounded corners*
20,1,$1+$1,$2,$3,$4,$5,0*
20,1,$1+$1,$4,$5,$6,$7,0*
20,1,$1+$1,$6,$7,$8,$9,0*
20,1,$1+$1,$8,$9,$2,$3,0*%
%AMHorizOval*
0 Thick line with rounded ends*
0 $1 width*
0 $2 $3 position (X,Y) of the first rounded end (center of the circle)*
0 $4 $5 position (X,Y) of the second rounded end (center of the circle)*
0 Add line between two ends*
20,1,$1,$2,$3,$4,$5,0*
0 Add two circle primitives to create the rounded ends*
1,1,$1,$2,$3*
1,1,$1,$4,$5*%
%AMRotRect*
0 Rectangle, with rotation*
0 The origin of the aperture is its center*
0 $1 length*
0 $2 width*
0 $3 Rotation angle, in degrees counterclockwise*
0 Add horizontal line*
21,1,$1,$2,0,0,$3*%
G04 Aperture macros list end*
%TA.AperFunction,SMDPad,CuDef*%
%ADD10RoundRect,0.237500X-0.237500X0.250000X-0.237500X-0.250000X0.237500X-0.250000X0.237500X0.250000X0*%
%TD*%
%TA.AperFunction,SMDPad,CuDef*%
%ADD11RoundRect,0.237500X-0.250000X-0.237500X0.250000X-0.237500X0.250000X0.237500X-0.250000X0.237500X0*%
%TD*%
%TA.AperFunction,SMDPad,CuDef*%
%ADD12RoundRect,0.237500X0.237500X-0.250000X0.237500X0.250000X-0.237500X0.250000X-0.237500X-0.250000X0*%
%TD*%
%TA.AperFunction,ComponentPad*%
%ADD13HorizOval,1.700000X0.000000X0.000000X0.000000X0.000000X0*%
%TD*%
%TA.AperFunction,SMDPad,CuDef*%
%ADD14RotRect,3.500000X1.700000X252.000000*%
%TD*%
%TA.AperFunction,ComponentPad*%
%ADD15RotRect,1.700000X1.700000X252.000000*%
%TD*%
%TA.AperFunction,SMDPad,CuDef*%
%ADD16RotRect,3.500000X1.700000X342.000000*%
%TD*%
%TA.AperFunction,ComponentPad*%
%ADD17RotRect,2.540000X2.540000X342.000000*%
%TD*%
%TA.AperFunction,ComponentPad*%
%ADD18C,2.540000*%
%TD*%
%TA.AperFunction,SMDPad,CuDef*%
%ADD19RotRect,3.150000X1.000000X162.000000*%
%TD*%
%TA.AperFunction,SMDPad,CuDef*%
%ADD20RotRect,3.150000X1.000000X252.000000*%
%TD*%
%TA.AperFunction,ComponentPad*%
%ADD21C,3.600000*%
%TD*%
%TA.AperFunction,ComponentPad*%
%ADD22RotRect,2.000000X2.000000X342.000000*%
%TD*%
%TA.AperFunction,ComponentPad*%
%ADD23HorizOval,1.600000X0.190211X-0.061803X-0.190211X0.061803X0*%
%TD*%
%TA.AperFunction,ComponentPad*%
%ADD24C,1.800000*%
%TD*%
%TA.AperFunction,SMDPad,CuDef*%
%ADD25RoundRect,0.237500X0.250000X0.237500X-0.250000X0.237500X-0.250000X-0.237500X0.250000X-0.237500X0*%
%TD*%
%TA.AperFunction,ComponentPad*%
%ADD26R,1.700000X1.700000*%
%TD*%
%TA.AperFunction,ComponentPad*%
%ADD27O,1.700000X1.700000*%
%TD*%
%TA.AperFunction,ViaPad*%
%ADD28C,0.500000*%
%TD*%
%TA.AperFunction,ViaPad*%
%ADD29C,3.000000*%
%TD*%
%TA.AperFunction,ViaPad*%
%ADD30C,1.000000*%
%TD*%
%TA.AperFunction,ViaPad*%
%ADD31C,0.800000*%
%TD*%
%TA.AperFunction,Conductor*%
%ADD32C,0.200000*%
%TD*%
%TA.AperFunction,Conductor*%
%ADD33C,1.000000*%
%TD*%
%TA.AperFunction,Conductor*%
%ADD34C,0.250000*%
%TD*%
G04 APERTURE END LIST*
D10*
%TO.P,R6,1*%
%TO.N,+3V3*%
X120015000Y-61595000D03*
%TO.P,R6,2*%
%TO.N,Net-(R6-Pad2)*%
X120015000Y-63420000D03*
%TD*%
D11*
%TO.P,R15,1*%
%TO.N,/SCL*%
X138787500Y-79375000D03*
%TO.P,R15,2*%
%TO.N,Net-(R15-Pad2)*%
X140612500Y-79375000D03*
%TD*%
D12*
%TO.P,R21,1*%
%TO.N,/SDA*%
X150495000Y-104060000D03*
%TO.P,R21,2*%
%TO.N,Net-(R21-Pad2)*%
X150495000Y-102235000D03*
%TD*%
D13*
%TO.P,U1,1,GPIO0*%
%TO.N,/LED0_PICO*%
X197773886Y-86139323D03*
D14*
X198052001Y-85283372D03*
%TO.P,U1,2,GPIO1*%
%TO.N,unconnected-(U1-Pad2)*%
X195636317Y-84498468D03*
D13*
X195358202Y-85354419D03*
D15*
%TO.P,U1,3,GND*%
%TO.N,GND*%
X192942519Y-84569516D03*
D14*
X193220634Y-83713565D03*
D13*
%TO.P,U1,4,GPIO2*%
%TO.N,/LED1_PICO*%
X190526835Y-83784613D03*
D14*
X190804950Y-82928662D03*
%TO.P,U1,5,GPIO3*%
%TO.N,/LED2_PICO*%
X188389267Y-82143759D03*
D13*
X188111152Y-82999710D03*
%TO.P,U1,6,GPIO4*%
%TO.N,/LED3_PICO*%
X185695468Y-82214807D03*
D14*
X185973583Y-81358856D03*
D13*
%TO.P,U1,7,GPIO5*%
%TO.N,/LED4_PICO*%
X183279785Y-81429904D03*
D14*
X183557900Y-80573953D03*
D15*
%TO.P,U1,8,GND*%
%TO.N,GND*%
X180864101Y-80645000D03*
D14*
X181142216Y-79789049D03*
%TO.P,U1,9,GPIO6*%
%TO.N,unconnected-(U1-Pad9)*%
X178726532Y-79004146D03*
D13*
X178448417Y-79860097D03*
D14*
%TO.P,U1,10,GPIO7*%
%TO.N,unconnected-(U1-Pad10)*%
X176310849Y-78219243D03*
D13*
X176032734Y-79075194D03*
D14*
%TO.P,U1,11,GPIO8*%
%TO.N,unconnected-(U1-Pad11)*%
X173895165Y-77434340D03*
D13*
X173617050Y-78290291D03*
D14*
%TO.P,U1,12,GPIO9*%
%TO.N,unconnected-(U1-Pad12)*%
X171479482Y-76649437D03*
D13*
X171201367Y-77505388D03*
D14*
%TO.P,U1,13,GND*%
%TO.N,unconnected-(U1-Pad13)*%
X169063798Y-75864534D03*
D15*
X168785683Y-76720485D03*
D13*
%TO.P,U1,14,GPIO10*%
%TO.N,unconnected-(U1-Pad14)*%
X166370000Y-75935581D03*
D14*
X166648115Y-75079630D03*
D13*
%TO.P,U1,15,GPIO11*%
%TO.N,unconnected-(U1-Pad15)*%
X163954316Y-75150678D03*
D14*
X164232431Y-74294727D03*
D13*
%TO.P,U1,16,GPIO12*%
%TO.N,unconnected-(U1-Pad16)*%
X161538633Y-74365775D03*
D14*
X161816748Y-73509824D03*
%TO.P,U1,17,GPIO13*%
%TO.N,unconnected-(U1-Pad17)*%
X159401064Y-72724921D03*
D13*
X159122949Y-73580872D03*
D14*
%TO.P,U1,18,GND*%
%TO.N,GND*%
X156985380Y-71940018D03*
D15*
X156707265Y-72795969D03*
D13*
%TO.P,U1,19,GPIO14*%
%TO.N,unconnected-(U1-Pad19)*%
X154291582Y-72011066D03*
D14*
X154569697Y-71155115D03*
%TO.P,U1,20,GPIO15*%
%TO.N,unconnected-(U1-Pad20)*%
X152154013Y-70370211D03*
D13*
X151875898Y-71226162D03*
D14*
%TO.P,U1,21,GPIO16*%
%TO.N,unconnected-(U1-Pad21)*%
X146103461Y-88991898D03*
D13*
X146381576Y-88135947D03*
%TO.P,U1,22,GPIO17*%
%TO.N,unconnected-(U1-Pad22)*%
X148797260Y-88920851D03*
D14*
X148519145Y-89776802D03*
%TO.P,U1,23,GND*%
%TO.N,GND*%
X150934828Y-90561705D03*
D15*
X151212943Y-89705754D03*
D13*
%TO.P,U1,24,GPIO18*%
%TO.N,unconnected-(U1-Pad24)*%
X153628627Y-90490657D03*
D14*
X153350512Y-91346608D03*
D13*
%TO.P,U1,25,GPIO19*%
%TO.N,unconnected-(U1-Pad25)*%
X156044310Y-91275560D03*
D14*
X155766195Y-92131511D03*
%TO.P,U1,26,GPIO20*%
%TO.N,Net-(R21-Pad2)*%
X158181879Y-92916414D03*
D13*
X158459994Y-92060463D03*
D14*
%TO.P,U1,27,GPIO21*%
%TO.N,Net-(R20-Pad2)*%
X160597562Y-93701317D03*
D13*
X160875677Y-92845366D03*
D14*
%TO.P,U1,28,GND*%
%TO.N,GND*%
X163013246Y-94486221D03*
D15*
X163291361Y-93630270D03*
D13*
%TO.P,U1,29,GPIO22*%
%TO.N,/INT*%
X165707045Y-94415173D03*
D14*
X165428930Y-95271124D03*
%TO.P,U1,30,RUN*%
%TO.N,/PICO_RUN*%
X167844613Y-96056027D03*
D13*
X168122728Y-95200076D03*
%TO.P,U1,31,GPIO26_ADC0*%
%TO.N,unconnected-(U1-Pad31)*%
X170538412Y-95984979D03*
D14*
X170260297Y-96840930D03*
%TO.P,U1,32,GPIO27_ADC1*%
%TO.N,unconnected-(U1-Pad32)*%
X172675980Y-97625833D03*
D13*
X172954095Y-96769882D03*
D14*
%TO.P,U1,33,AGND*%
%TO.N,unconnected-(U1-Pad33)*%
X175091664Y-98410736D03*
D15*
X175369779Y-97554785D03*
D13*
%TO.P,U1,34,GPIO28_ADC2*%
%TO.N,unconnected-(U1-Pad34)*%
X177785462Y-98339689D03*
D14*
X177507347Y-99195640D03*
%TO.P,U1,35,ADC_VREF*%
%TO.N,unconnected-(U1-Pad35)*%
X179923031Y-99980543D03*
D13*
X180201146Y-99124592D03*
%TO.P,U1,36,3V3*%
%TO.N,unconnected-(U1-Pad36)*%
X182616829Y-99909495D03*
D14*
X182338714Y-100765446D03*
%TO.P,U1,37,3V3_EN*%
%TO.N,Net-(R19-Pad2)*%
X184754398Y-101550349D03*
D13*
X185032513Y-100694398D03*
D15*
%TO.P,U1,38,GND*%
%TO.N,GND*%
X187448197Y-101479301D03*
D14*
X187170082Y-102335252D03*
%TO.P,U1,39,VSYS*%
%TO.N,Net-(R19-Pad1)*%
X189585765Y-103120155D03*
D13*
X189863880Y-102264204D03*
%TO.P,U1,40,VBUS*%
%TO.N,+5V*%
X192279564Y-103049108D03*
D14*
X192001449Y-103905059D03*
D13*
%TO.P,U1,41,SWCLK*%
%TO.N,/SWCLK*%
X150132383Y-77336445D03*
D16*
X149276432Y-77058330D03*
D15*
%TO.P,U1,42,GND*%
%TO.N,GND*%
X149347480Y-79752129D03*
D16*
X148491529Y-79474014D03*
%TO.P,U1,43,SWDIO*%
%TO.N,/SWDIO*%
X147706626Y-81889697D03*
D13*
X148562577Y-82167812D03*
%TD*%
D17*
%TO.P,U3,1,Vin*%
%TO.N,/SW2PSU*%
X137795000Y-42051549D03*
D18*
%TO.P,U3,2,GND*%
%TO.N,GND*%
X132300678Y-58961334D03*
%TO.P,U3,3,GND*%
X170951615Y-71519785D03*
%TO.P,U3,4,Vout*%
%TO.N,+5VL*%
X176445937Y-54610000D03*
%TD*%
D19*
%TO.P,J2,1,Pin_1*%
%TO.N,GND*%
X183722932Y-70651219D03*
%TO.P,J2,2,Pin_2*%
%TO.N,+5VL*%
X178920097Y-69090683D03*
%TO.P,J2,3,Pin_3*%
%TO.N,GND*%
X184507836Y-68235535D03*
%TO.P,J2,4,Pin_4*%
%TO.N,+5VL*%
X179705000Y-66675000D03*
%TO.P,J2,5,Pin_5*%
%TO.N,GND*%
X185292739Y-65819852D03*
%TO.P,J2,6,Pin_6*%
%TO.N,+5VL*%
X180489903Y-64259316D03*
%TO.P,J2,7,Pin_7*%
%TO.N,GND*%
X186077642Y-63404168D03*
%TO.P,J2,8,Pin_8*%
%TO.N,+5VL*%
X181274806Y-61843633D03*
%TO.P,J2,9,Pin_9*%
%TO.N,GND*%
X186862545Y-60988485D03*
%TO.P,J2,10,Pin_10*%
%TO.N,+5VL*%
X182059710Y-59427949D03*
%TD*%
D20*
%TO.P,J3,1,Pin_1*%
%TO.N,GND*%
X149100684Y-115719904D03*
%TO.P,J3,2,Pin_2*%
%TO.N,+5VL*%
X147540148Y-120522739D03*
%TO.P,J3,3,Pin_3*%
%TO.N,GND*%
X146685000Y-114935000D03*
%TO.P,J3,4,Pin_4*%
%TO.N,+5VL*%
X145124465Y-119737836D03*
%TO.P,J3,5,Pin_5*%
%TO.N,GND*%
X144269317Y-114150097D03*
%TO.P,J3,6,Pin_6*%
%TO.N,+5VL*%
X142708781Y-118952933D03*
%TO.P,J3,7,Pin_7*%
%TO.N,GND*%
X141853633Y-113365194D03*
%TO.P,J3,8,Pin_8*%
%TO.N,+5VL*%
X140293098Y-118168030D03*
%TO.P,J3,9,Pin_9*%
%TO.N,GND*%
X139437950Y-112580291D03*
%TO.P,J3,10,Pin_10*%
%TO.N,+5VL*%
X137877414Y-117383126D03*
%TD*%
D21*
%TO.P,J11,1,Pin_1*%
%TO.N,/SW2PSU*%
X131445000Y-46355000D03*
%TD*%
D22*
%TO.P,U2,1,~{RST}*%
%TO.N,Net-(R7-Pad2)*%
X124273461Y-67728137D03*
D23*
%TO.P,U2,2,A0*%
%TO.N,unconnected-(U2-Pad2)*%
X123488558Y-70143821D03*
%TO.P,U2,3,D0*%
%TO.N,/LED0_ESP*%
X122703655Y-72559504D03*
%TO.P,U2,4,SCK/D5*%
%TO.N,/LED3_ESP*%
X121918752Y-74975188D03*
%TO.P,U2,5,MISO/D6*%
%TO.N,/LED4_ESP*%
X121133848Y-77390871D03*
%TO.P,U2,6,MOSI/D7*%
%TO.N,/PICO_RUN*%
X120348945Y-79806555D03*
%TO.P,U2,7,CS/D8*%
%TO.N,/INT*%
X119564042Y-82222238D03*
%TO.P,U2,8,3V3*%
%TO.N,+3V3*%
X118779139Y-84637922D03*
%TO.P,U2,9,5V*%
%TO.N,+5V*%
X140520291Y-91702050D03*
%TO.P,U2,10,GND*%
%TO.N,GND*%
X141305194Y-89286367D03*
%TO.P,U2,11,D4*%
%TO.N,/LED2_ESP*%
X142090097Y-86870683D03*
%TO.P,U2,12,D3*%
%TO.N,/LED1_ESP*%
X142875000Y-84455000D03*
%TO.P,U2,13,SDA/D2*%
%TO.N,Net-(R16-Pad2)*%
X143659903Y-82039316D03*
%TO.P,U2,14,SCL/D1*%
%TO.N,Net-(R15-Pad2)*%
X144444807Y-79623633D03*
%TO.P,U2,15,RX*%
%TO.N,Net-(R6-Pad2)*%
X145229710Y-77207949D03*
%TO.P,U2,16,TX*%
%TO.N,unconnected-(U2-Pad16)*%
X146014613Y-74792265D03*
%TD*%
D24*
%TO.P,U4,1,VCC*%
%TO.N,+3V3*%
X160230798Y-100355611D03*
%TO.P,U4,2,GND*%
%TO.N,GND*%
X157815114Y-99570708D03*
%TO.P,U4,3,SCL*%
%TO.N,/SCL*%
X155399431Y-98785804D03*
%TO.P,U4,4,SDA*%
%TO.N,/SDA*%
X152983747Y-98000901D03*
%TO.P,U4,5,XDA*%
%TO.N,unconnected-(U4-Pad5)*%
X150568064Y-97215998D03*
%TO.P,U4,6,XCL*%
%TO.N,unconnected-(U4-Pad6)*%
X148152380Y-96431095D03*
%TO.P,U4,7,AD0*%
%TO.N,Net-(R13-Pad1)*%
X145736696Y-95646192D03*
%TO.P,U4,8,INT*%
%TO.N,/INT*%
X143321013Y-94861289D03*
%TD*%
D11*
%TO.P,R16,1*%
%TO.N,/SDA*%
X138787500Y-81280000D03*
%TO.P,R16,2*%
%TO.N,Net-(R16-Pad2)*%
X140612500Y-81280000D03*
%TD*%
D25*
%TO.P,R14,1*%
%TO.N,GND*%
X156130000Y-102235000D03*
%TO.P,R14,2*%
%TO.N,Net-(R13-Pad1)*%
X154305000Y-102235000D03*
%TD*%
D10*
%TO.P,R7,1*%
%TO.N,+3V3*%
X118110000Y-61595000D03*
%TO.P,R7,2*%
%TO.N,Net-(R7-Pad2)*%
X118110000Y-63420000D03*
%TD*%
D11*
%TO.P,R17,1*%
%TO.N,/SDA*%
X154305000Y-107950000D03*
%TO.P,R17,2*%
%TO.N,+3V3*%
X156130000Y-107950000D03*
%TD*%
D12*
%TO.P,R20,1*%
%TO.N,/SCL*%
X152400000Y-104140000D03*
%TO.P,R20,2*%
%TO.N,Net-(R20-Pad2)*%
X152400000Y-102315000D03*
%TD*%
D19*
%TO.P,J1,1,Pin_1*%
%TO.N,/LED0*%
X166809160Y-115404477D03*
%TO.P,J1,2,Pin_2*%
X162006324Y-113843941D03*
%TO.P,J1,3,Pin_3*%
%TO.N,/LED1*%
X167594063Y-112988793D03*
%TO.P,J1,4,Pin_4*%
X162791228Y-111428257D03*
%TO.P,J1,5,Pin_5*%
%TO.N,/LED2*%
X168378966Y-110573110D03*
%TO.P,J1,6,Pin_6*%
X163576131Y-109012574D03*
%TO.P,J1,7,Pin_7*%
%TO.N,/LED3*%
X169163869Y-108157426D03*
%TO.P,J1,8,Pin_8*%
X164361034Y-106596890D03*
%TO.P,J1,9,Pin_9*%
%TO.N,/LED4*%
X169948772Y-105741743D03*
%TO.P,J1,10,Pin_10*%
X165145937Y-104181207D03*
%TO.P,J1,11,Pin_11*%
%TO.N,GND*%
X170733676Y-103326059D03*
%TO.P,J1,12,Pin_12*%
X165930840Y-101765523D03*
%TD*%
D21*
%TO.P,J10,1,Pin_1*%
%TO.N,+BATT*%
X178435000Y-48895000D03*
%TD*%
D11*
%TO.P,R13,1*%
%TO.N,Net-(R13-Pad1)*%
X154305000Y-104140000D03*
%TO.P,R13,2*%
%TO.N,+3V3*%
X156130000Y-104140000D03*
%TD*%
%TO.P,R18,1*%
%TO.N,/SCL*%
X154305000Y-106045000D03*
%TO.P,R18,2*%
%TO.N,+3V3*%
X156130000Y-106045000D03*
%TD*%
D26*
%TO.P,JP1,1,A*%
%TO.N,+5VL*%
X128270000Y-102235000D03*
D27*
%TO.P,JP1,2,B*%
%TO.N,+5V*%
X130810000Y-102235000D03*
%TD*%
D28*
%TO.N,/SWDIO*%
X152400000Y-82804000D03*
D29*
%TO.N,GND*%
X125222000Y-98552000D03*
D30*
X177292000Y-87884000D03*
D29*
X151638000Y-117094000D03*
X169672000Y-43434000D03*
D30*
X132334000Y-85344000D03*
D29*
X174498000Y-104140000D03*
X187452000Y-74422000D03*
D28*
%TO.N,/LED0*%
X138430000Y-93472000D03*
X138430000Y-95250000D03*
X160782000Y-114808000D03*
%TO.N,/LED1*%
X137414000Y-93472000D03*
X147574000Y-109220000D03*
X137414000Y-95250000D03*
D31*
X127000000Y-64770000D03*
X127000000Y-72390000D03*
D28*
%TO.N,/LED2*%
X136652000Y-94996000D03*
X136652000Y-93218000D03*
X162560000Y-109982000D03*
X148082000Y-109982000D03*
X160274000Y-110236000D03*
%TO.N,/LED3*%
X135890000Y-93218000D03*
X134620000Y-80518000D03*
X160274000Y-110998000D03*
X163576000Y-107696000D03*
X132334000Y-79756000D03*
X148844000Y-110744000D03*
X135890000Y-94996000D03*
%TO.N,/LED4*%
X135128000Y-94996000D03*
D31*
X125095000Y-87630000D03*
D28*
X132080000Y-82296000D03*
D31*
X128905000Y-81280000D03*
D28*
X165608000Y-105664000D03*
X160274000Y-112014000D03*
X149606000Y-111506000D03*
X135382000Y-82550000D03*
X135128000Y-92964000D03*
%TO.N,/LED0_ESP*%
X133350000Y-68580000D03*
X125730000Y-69215000D03*
X130810000Y-69215000D03*
%TO.N,/LED0_PICO*%
X131572000Y-67056000D03*
%TO.N,/LED1_PICO*%
X129032000Y-68834000D03*
%TO.N,/LED2_ESP*%
X135128000Y-86868000D03*
%TO.N,+3V3*%
X149606000Y-99568000D03*
X155448000Y-103378000D03*
%TO.N,/LED2_PICO*%
X140716000Y-85852000D03*
X135128000Y-86106000D03*
X178816000Y-84582000D03*
X150622000Y-84836000D03*
%TO.N,/LED3_ESP*%
X129540000Y-87630000D03*
%TO.N,/LED3_PICO*%
X140028543Y-87809457D03*
X135128000Y-88138000D03*
X152146000Y-86868000D03*
X177292000Y-84836000D03*
%TO.N,/LED4_PICO*%
X176530000Y-84582000D03*
X153924000Y-87630000D03*
%TO.N,Net-(R13-Pad1)*%
X153670000Y-103505000D03*
%TO.N,/INT*%
X159004000Y-97261500D03*
%TO.N,/SDA*%
X151130000Y-94615000D03*
%TO.N,/SCL*%
X150622000Y-95250000D03*
%TO.N,/PICO_RUN*%
X143256000Y-93218000D03*
%TD*%
D32*
%TO.N,/SWDIO*%
X149198765Y-82804000D02*
X148562577Y-82167812D01*
X152400000Y-82804000D02*
X149198765Y-82804000D01*
D33*
%TO.N,GND*%
X149100684Y-115719904D02*
X150263904Y-115719904D01*
X144269317Y-114150097D02*
X145900097Y-114150097D01*
X185292739Y-65819852D02*
X185292739Y-67450632D01*
X183722932Y-70692932D02*
X187452000Y-74422000D01*
X170733676Y-103326059D02*
X167491376Y-103326059D01*
X141068730Y-112580291D02*
X141853633Y-113365194D01*
X148315780Y-114935000D02*
X149100684Y-115719904D01*
X170733676Y-103326059D02*
X173684059Y-103326059D01*
D34*
X163902040Y-93019591D02*
X163291361Y-93630270D01*
X187448197Y-101479301D02*
X187448197Y-100585558D01*
D33*
X173684059Y-103326059D02*
X174498000Y-104140000D01*
D32*
X156130000Y-101255822D02*
X157815114Y-99570708D01*
D33*
X186077642Y-61773388D02*
X186077642Y-63404168D01*
X184507836Y-69866315D02*
X183722932Y-70651219D01*
D34*
X151823622Y-89095075D02*
X151212943Y-89705754D01*
D33*
X186077642Y-63404168D02*
X186077642Y-65034949D01*
D34*
X156707265Y-72795969D02*
X156707265Y-73286087D01*
D33*
X183722932Y-70651219D02*
X183722932Y-70692932D01*
X139437950Y-112580291D02*
X141068730Y-112580291D01*
X146685000Y-114935000D02*
X148315780Y-114935000D01*
X143484414Y-113365194D02*
X144269317Y-114150097D01*
X141853633Y-113365194D02*
X143484414Y-113365194D01*
X145900097Y-114150097D02*
X146685000Y-114935000D01*
X185292739Y-67450632D02*
X184507836Y-68235535D01*
D34*
X156707265Y-72795969D02*
X156707265Y-72765149D01*
D33*
X186077642Y-65034949D02*
X185292739Y-65819852D01*
X150263904Y-115719904D02*
X151638000Y-117094000D01*
X186077642Y-61773388D02*
X186862545Y-60988485D01*
D32*
X156130000Y-102235000D02*
X156130000Y-101255822D01*
D33*
X184507836Y-68235535D02*
X184507836Y-69866315D01*
X167491376Y-103326059D02*
X165930840Y-101765523D01*
D34*
X163291361Y-93630270D02*
X163291361Y-93185313D01*
%TO.N,/LED0*%
X160782000Y-114808000D02*
X161042265Y-114808000D01*
X138430000Y-93472000D02*
X138430000Y-95250000D01*
X161042265Y-114808000D02*
X162006324Y-113843941D01*
D32*
X163566860Y-115404477D02*
X162006324Y-113843941D01*
X166809160Y-115404477D02*
X163566860Y-115404477D01*
D34*
%TO.N,/LED1*%
X137414000Y-93472000D02*
X137414000Y-95250000D01*
D32*
X164351764Y-112988793D02*
X162791228Y-111428257D01*
D34*
X160582971Y-109220000D02*
X162791228Y-111428257D01*
X147574000Y-109220000D02*
X160582971Y-109220000D01*
X127000000Y-72390000D02*
X127000000Y-64770000D01*
D32*
X167594063Y-112988793D02*
X164351764Y-112988793D01*
D34*
%TO.N,/LED2*%
X162560000Y-109982000D02*
X162606705Y-109982000D01*
D32*
X165136667Y-110573110D02*
X163576131Y-109012574D01*
D34*
X148082000Y-109982000D02*
X160020000Y-109982000D01*
X160020000Y-109982000D02*
X160274000Y-110236000D01*
X162606705Y-109982000D02*
X163576131Y-109012574D01*
D32*
X168378966Y-110573110D02*
X165136667Y-110573110D01*
D34*
X136652000Y-93218000D02*
X136652000Y-94996000D01*
D32*
%TO.N,/LED3*%
X169163869Y-108157426D02*
X165921570Y-108157426D01*
D34*
X133096000Y-80518000D02*
X134620000Y-80518000D01*
X132334000Y-79756000D02*
X133096000Y-80518000D01*
X159381435Y-110588969D02*
X159790466Y-110998000D01*
X159790466Y-110998000D02*
X160274000Y-110998000D01*
X148844000Y-110744000D02*
X148999031Y-110588969D01*
X163576000Y-107696000D02*
X163576000Y-107381924D01*
D32*
X165921570Y-108157426D02*
X164361034Y-106596890D01*
D34*
X163576000Y-107381924D02*
X164361034Y-106596890D01*
X135890000Y-93218000D02*
X135890000Y-94996000D01*
X148999031Y-110588969D02*
X159381435Y-110588969D01*
%TO.N,/LED4*%
X125095000Y-87630000D02*
X128905000Y-83820000D01*
X165608000Y-104643270D02*
X165145937Y-104181207D01*
X159225479Y-110965479D02*
X160274000Y-112014000D01*
X135128000Y-82296000D02*
X135382000Y-82550000D01*
D32*
X166706473Y-105741743D02*
X165145937Y-104181207D01*
D34*
X128905000Y-83820000D02*
X128905000Y-81280000D01*
X165608000Y-105664000D02*
X165608000Y-104643270D01*
X149606000Y-111506000D02*
X152613026Y-111506000D01*
X153153547Y-110965479D02*
X159225479Y-110965479D01*
X135128000Y-93218000D02*
X135128000Y-94996000D01*
D32*
X169948772Y-105741743D02*
X166706473Y-105741743D01*
D34*
X135128000Y-92964000D02*
X135128000Y-93218000D01*
X152613026Y-111506000D02*
X153153547Y-110965479D01*
X132080000Y-82296000D02*
X135128000Y-82296000D01*
D33*
%TO.N,+5VL*%
X146755245Y-119737836D02*
X147540148Y-120522739D01*
X181274806Y-61843633D02*
X181274806Y-63474413D01*
X144339562Y-118952933D02*
X145124465Y-119737836D01*
X179324000Y-54610000D02*
X182059710Y-57345710D01*
X140293098Y-118168030D02*
X141923878Y-118168030D01*
X129540000Y-106045000D02*
X128270000Y-104775000D01*
D34*
X181263886Y-59427949D02*
X182059710Y-59427949D01*
D33*
X139508194Y-117383126D02*
X140293098Y-118168030D01*
X137877414Y-117383126D02*
X135255000Y-114760712D01*
X179705000Y-66675000D02*
X179705000Y-68305780D01*
X142708781Y-118952933D02*
X144339562Y-118952933D01*
X181274806Y-60212853D02*
X182059710Y-59427949D01*
X137877414Y-117383126D02*
X139508194Y-117383126D01*
X176445937Y-54610000D02*
X179324000Y-54610000D01*
X135255000Y-107950000D02*
X133350000Y-106045000D01*
X179705000Y-68305780D02*
X178920097Y-69090683D01*
X182059710Y-57345710D02*
X182059710Y-59427949D01*
X181274806Y-60212853D02*
X181274806Y-61843633D01*
X141923878Y-118168030D02*
X142708781Y-118952933D01*
X135255000Y-114760712D02*
X135255000Y-107950000D01*
D34*
X128270000Y-102870000D02*
X128270000Y-102235000D01*
D33*
X180489903Y-65890097D02*
X179705000Y-66675000D01*
X181274806Y-63474413D02*
X180489903Y-64259316D01*
X128270000Y-104775000D02*
X128270000Y-102235000D01*
X180489903Y-64259316D02*
X180489903Y-65890097D01*
X145124465Y-119737836D02*
X146755245Y-119737836D01*
X133350000Y-106045000D02*
X129540000Y-106045000D01*
D32*
%TO.N,/LED0_ESP*%
X132715000Y-69215000D02*
X133350000Y-68580000D01*
X122832063Y-72559504D02*
X125730000Y-69661567D01*
X125730000Y-69661567D02*
X125730000Y-69215000D01*
X130810000Y-69215000D02*
X132715000Y-69215000D01*
X122703655Y-72559504D02*
X122832063Y-72559504D01*
%TO.N,/LED0_PICO*%
X174498000Y-73406000D02*
X169418000Y-73406000D01*
X169418000Y-73406000D02*
X168148000Y-72136000D01*
X186436000Y-76454000D02*
X177546000Y-76454000D01*
X190754000Y-80772000D02*
X186436000Y-76454000D01*
X137414000Y-67056000D02*
X131572000Y-67056000D01*
X194981060Y-80772000D02*
X190754000Y-80772000D01*
X197773886Y-86139323D02*
X197773886Y-83564826D01*
X168148000Y-72136000D02*
X165862000Y-72136000D01*
X197773886Y-83564826D02*
X194981060Y-80772000D01*
X177546000Y-76454000D02*
X174498000Y-73406000D01*
X165862000Y-72136000D02*
X161544000Y-67818000D01*
X161544000Y-67818000D02*
X138176000Y-67818000D01*
X138176000Y-67818000D02*
X137414000Y-67056000D01*
%TO.N,/LED1_PICO*%
X145904576Y-78377424D02*
X146812000Y-77470000D01*
X148079551Y-75184000D02*
X149098000Y-75184000D01*
X160020000Y-77470000D02*
X163576000Y-77470000D01*
X136144000Y-75946000D02*
X138430000Y-75946000D01*
X129032000Y-68834000D02*
X136144000Y-75946000D01*
X146812000Y-76451551D02*
X148079551Y-75184000D01*
X181102000Y-83820000D02*
X181916613Y-84634613D01*
X146812000Y-77470000D02*
X146812000Y-76451551D01*
X138430000Y-75946000D02*
X140581463Y-78097463D01*
X149577357Y-75663357D02*
X158213357Y-75663357D01*
X169926000Y-83820000D02*
X181102000Y-83820000D01*
X163576000Y-77470000D02*
X169926000Y-83820000D01*
X158213357Y-75663357D02*
X160020000Y-77470000D01*
X149098000Y-75184000D02*
X149577357Y-75663357D01*
X144152537Y-78097463D02*
X144432498Y-78377424D01*
X181916613Y-84634613D02*
X189676835Y-84634613D01*
X189676835Y-84634613D02*
X190526835Y-83784613D01*
X140581463Y-78097463D02*
X144152537Y-78097463D01*
X144432498Y-78377424D02*
X145904576Y-78377424D01*
%TO.N,/LED2_ESP*%
X135128000Y-86868000D02*
X135130683Y-86870683D01*
X135130683Y-86870683D02*
X142090097Y-86870683D01*
%TO.N,+3V3*%
X147206606Y-97930606D02*
X148844000Y-99568000D01*
X117602000Y-81026000D02*
X118236776Y-80391224D01*
X148844000Y-99568000D02*
X149606000Y-99568000D01*
X117602000Y-83312000D02*
X117602000Y-81026000D01*
X156130000Y-106045000D02*
X156130000Y-107950000D01*
X118236776Y-65218001D02*
X116840000Y-63821225D01*
X116840000Y-62230000D02*
X117475000Y-61595000D01*
X125476000Y-91694000D02*
X130810000Y-97028000D01*
X142888606Y-97930606D02*
X147206606Y-97930606D01*
X116840000Y-63821225D02*
X116840000Y-62230000D01*
X155448000Y-103378000D02*
X155448000Y-103458000D01*
X118236776Y-80391224D02*
X118236776Y-65218001D01*
D34*
X156446409Y-104140000D02*
X160230798Y-100355611D01*
D32*
X155448000Y-103458000D02*
X156130000Y-104140000D01*
X118779139Y-84637922D02*
X118779139Y-84997139D01*
X118779139Y-84489139D02*
X117602000Y-83312000D01*
D34*
X156210000Y-104140000D02*
X156446409Y-104140000D01*
D32*
X117475000Y-61595000D02*
X118110000Y-61595000D01*
X118110000Y-61595000D02*
X120015000Y-61595000D01*
X156130000Y-104140000D02*
X156130000Y-106045000D01*
X141986000Y-97028000D02*
X142888606Y-97930606D01*
X130810000Y-97028000D02*
X141986000Y-97028000D01*
D33*
X118779139Y-84637922D02*
X118779139Y-84489139D01*
D32*
X118779139Y-84997139D02*
X125476000Y-91694000D01*
%TO.N,Net-(R6-Pad2)*%
X129794000Y-69134244D02*
X129794000Y-66040000D01*
X145229710Y-77207949D02*
X143641250Y-75619489D01*
X143641250Y-75619489D02*
X136279245Y-75619489D01*
X129794000Y-66040000D02*
X127174000Y-63420000D01*
X127174000Y-63420000D02*
X120015000Y-63420000D01*
X136279245Y-75619489D02*
X129794000Y-69134244D01*
%TO.N,Net-(R7-Pad2)*%
X124273461Y-67728137D02*
X122418137Y-67728137D01*
X122418137Y-67728137D02*
X118110000Y-63420000D01*
%TO.N,/LED2_PICO*%
X177254255Y-85335501D02*
X178062499Y-85335501D01*
X140462000Y-86106000D02*
X140716000Y-85852000D01*
X135128000Y-86106000D02*
X140462000Y-86106000D01*
X178062499Y-85335501D02*
X178816000Y-84582000D01*
X150622000Y-84836000D02*
X150622000Y-86360000D01*
X153488511Y-89226511D02*
X154301626Y-89226511D01*
X150622000Y-86360000D02*
X153488511Y-89226511D01*
X154301626Y-89226511D02*
X154809626Y-89734511D01*
X154809626Y-89734511D02*
X172855245Y-89734511D01*
X172855245Y-89734511D02*
X177254255Y-85335501D01*
%TO.N,/LED3_ESP*%
X127045188Y-74975188D02*
X129540000Y-77470000D01*
X121918752Y-74975188D02*
X127045188Y-74975188D01*
X129540000Y-77470000D02*
X129540000Y-87630000D01*
%TO.N,/LED3_PICO*%
X154944871Y-89408000D02*
X172720000Y-89408000D01*
X139700000Y-88138000D02*
X140028543Y-87809457D01*
X135128000Y-88138000D02*
X139700000Y-88138000D01*
X172720000Y-89408000D02*
X177292000Y-84836000D01*
X152146000Y-86868000D02*
X152404871Y-86868000D01*
X152404871Y-86868000D02*
X154944871Y-89408000D01*
%TO.N,/LED4_PICO*%
X155154220Y-88860220D02*
X172251780Y-88860220D01*
X153924000Y-87630000D02*
X155154220Y-88860220D01*
X172251780Y-88860220D02*
X176530000Y-84582000D01*
%TO.N,Net-(R13-Pad1)*%
X154385000Y-104140000D02*
X154385000Y-102235000D01*
X154305000Y-104140000D02*
X153670000Y-103505000D01*
%TO.N,/INT*%
X165707045Y-94415173D02*
X165707045Y-95617254D01*
X119692450Y-82222238D02*
X123698000Y-86227788D01*
X136596402Y-90932000D02*
X140525691Y-94861289D01*
X123698000Y-86227788D02*
X123698000Y-88900000D01*
X123698000Y-88900000D02*
X125730000Y-90932000D01*
X164311545Y-97012754D02*
X159252746Y-97012754D01*
X119564042Y-82222238D02*
X119692450Y-82222238D01*
X159252746Y-97012754D02*
X159004000Y-97261500D01*
X165707045Y-95617254D02*
X164311545Y-97012754D01*
X125730000Y-90932000D02*
X136596402Y-90932000D01*
X140525691Y-94861289D02*
X143321013Y-94861289D01*
%TO.N,/SDA*%
X144145000Y-84030107D02*
X144145000Y-90104648D01*
X151196520Y-99788128D02*
X152983747Y-98000901D01*
X144145000Y-90104648D02*
X148655352Y-94615000D01*
X143172893Y-83058000D02*
X144145000Y-84030107D01*
X138787500Y-82062393D02*
X139783107Y-83058000D01*
X154305000Y-107870000D02*
X150495000Y-104060000D01*
X139783107Y-83058000D02*
X143172893Y-83058000D01*
X148655352Y-94615000D02*
X151130000Y-94615000D01*
X150495000Y-104060000D02*
X151196520Y-103358480D01*
X154305000Y-107950000D02*
X154305000Y-107870000D01*
X151196520Y-103358480D02*
X151196520Y-99788128D01*
X138787500Y-81280000D02*
X138787500Y-82062393D01*
%TO.N,/SCL*%
X152400000Y-104140000D02*
X153101520Y-103438480D01*
X150622000Y-95250000D02*
X147066000Y-95250000D01*
X147066000Y-95250000D02*
X144018000Y-92202000D01*
X137795000Y-82677000D02*
X137795000Y-80367500D01*
X153101520Y-103438480D02*
X153101520Y-101083715D01*
X142276801Y-85852000D02*
X140879801Y-84455000D01*
X153101520Y-101083715D02*
X155399431Y-98785804D01*
X144018000Y-91948000D02*
X143510000Y-91440000D01*
X137795000Y-80367500D02*
X138787500Y-79375000D01*
X140879801Y-84455000D02*
X139573000Y-84455000D01*
X143510000Y-85852000D02*
X142276801Y-85852000D01*
X144018000Y-92202000D02*
X144018000Y-91948000D01*
X139573000Y-84455000D02*
X137795000Y-82677000D01*
X143510000Y-91440000D02*
X143510000Y-85852000D01*
X154305000Y-106045000D02*
X152400000Y-104140000D01*
%TO.N,/PICO_RUN*%
X136296158Y-90170000D02*
X139344158Y-93218000D01*
X120348945Y-79806555D02*
X124206000Y-83663610D01*
X139344158Y-93218000D02*
X143256000Y-93218000D01*
X124206000Y-88138000D02*
X126238000Y-90170000D01*
X126238000Y-90170000D02*
X136296158Y-90170000D01*
X124206000Y-83663610D02*
X124206000Y-88138000D01*
%TO.N,Net-(R15-Pad2)*%
X140861133Y-79623633D02*
X144444807Y-79623633D01*
X140612500Y-79375000D02*
X140861133Y-79623633D01*
%TO.N,Net-(R16-Pad2)*%
X140612500Y-81280000D02*
X141371816Y-82039316D01*
X141371816Y-82039316D02*
X143659903Y-82039316D01*
%TO.N,Net-(R20-Pad2)*%
X160875677Y-93941921D02*
X160875677Y-92845366D01*
X152400000Y-102315000D02*
X152775009Y-101939991D01*
X152775009Y-101939991D02*
X152775009Y-99817098D01*
X158504499Y-96313099D02*
X160875677Y-93941921D01*
X152775009Y-99817098D02*
X156279008Y-96313099D01*
X156279008Y-96313099D02*
X158504499Y-96313099D01*
%TO.N,Net-(R21-Pad2)*%
X150495000Y-102235000D02*
X150495000Y-98896520D01*
X150495000Y-98896520D02*
X155106476Y-94285044D01*
X156235413Y-94285044D02*
X158459994Y-92060463D01*
X158459994Y-94132113D02*
X158459994Y-92060463D01*
X155106476Y-94285044D02*
X156235413Y-94285044D01*
%TD*%
M02*
