%TF.GenerationSoftware,KiCad,Pcbnew,(6.0.2)*%
%TF.CreationDate,2022-05-01T12:50:51-07:00*%
%TF.ProjectId,controller,636f6e74-726f-46c6-9c65-722e6b696361,rev?*%
%TF.SameCoordinates,Original*%
%TF.FileFunction,Legend,Top*%
%TF.FilePolarity,Positive*%
%FSLAX46Y46*%
G04 Gerber Fmt 4.6, Leading zero omitted, Abs format (unit mm)*
G04 Created by KiCad (PCBNEW (6.0.2)) date 2022-05-01 12:50:51*
%MOMM*%
%LPD*%
G01*
G04 APERTURE LIST*
%ADD10C,0.150000*%
%ADD11C,0.120000*%
%ADD12C,0.017000*%
G04 APERTURE END LIST*
D10*
X151503142Y-114308000D02*
X151407904Y-114260380D01*
X151265047Y-114260380D01*
X151122190Y-114308000D01*
X151026952Y-114403238D01*
X150979333Y-114498476D01*
X150931714Y-114688952D01*
X150931714Y-114831809D01*
X150979333Y-115022285D01*
X151026952Y-115117523D01*
X151122190Y-115212761D01*
X151265047Y-115260380D01*
X151360285Y-115260380D01*
X151503142Y-115212761D01*
X151550761Y-115165142D01*
X151550761Y-114831809D01*
X151360285Y-114831809D01*
X151979333Y-114593714D02*
X151979333Y-115260380D01*
X151979333Y-114688952D02*
X152026952Y-114641333D01*
X152122190Y-114593714D01*
X152265047Y-114593714D01*
X152360285Y-114641333D01*
X152407904Y-114736571D01*
X152407904Y-115260380D01*
X153312666Y-115260380D02*
X153312666Y-114260380D01*
X153312666Y-115212761D02*
X153217428Y-115260380D01*
X153026952Y-115260380D01*
X152931714Y-115212761D01*
X152884095Y-115165142D01*
X152836476Y-115069904D01*
X152836476Y-114784190D01*
X152884095Y-114688952D01*
X152931714Y-114641333D01*
X153026952Y-114593714D01*
X153217428Y-114593714D01*
X153312666Y-114641333D01*
X190888857Y-62476000D02*
X190984095Y-62523619D01*
X191126952Y-62523619D01*
X191269809Y-62476000D01*
X191365047Y-62380761D01*
X191412666Y-62285523D01*
X191460285Y-62095047D01*
X191460285Y-61952190D01*
X191412666Y-61761714D01*
X191365047Y-61666476D01*
X191269809Y-61571238D01*
X191126952Y-61523619D01*
X191031714Y-61523619D01*
X190888857Y-61571238D01*
X190841238Y-61618857D01*
X190841238Y-61952190D01*
X191031714Y-61952190D01*
X190412666Y-62190285D02*
X190412666Y-61523619D01*
X190412666Y-62095047D02*
X190365047Y-62142666D01*
X190269809Y-62190285D01*
X190126952Y-62190285D01*
X190031714Y-62142666D01*
X189984095Y-62047428D01*
X189984095Y-61523619D01*
X189079333Y-61523619D02*
X189079333Y-62523619D01*
X189079333Y-61571238D02*
X189174571Y-61523619D01*
X189365047Y-61523619D01*
X189460285Y-61571238D01*
X189507904Y-61618857D01*
X189555523Y-61714095D01*
X189555523Y-61999809D01*
X189507904Y-62095047D01*
X189460285Y-62142666D01*
X189365047Y-62190285D01*
X189174571Y-62190285D01*
X189079333Y-62142666D01*
X171600952Y-109672380D02*
X171124761Y-109672380D01*
X171124761Y-108672380D01*
X171934285Y-109148571D02*
X172267619Y-109148571D01*
X172410476Y-109672380D02*
X171934285Y-109672380D01*
X171934285Y-108672380D01*
X172410476Y-108672380D01*
X172839047Y-109672380D02*
X172839047Y-108672380D01*
X173077142Y-108672380D01*
X173220000Y-108720000D01*
X173315238Y-108815238D01*
X173362857Y-108910476D01*
X173410476Y-109100952D01*
X173410476Y-109243809D01*
X173362857Y-109434285D01*
X173315238Y-109529523D01*
X173220000Y-109624761D01*
X173077142Y-109672380D01*
X172839047Y-109672380D01*
X173743809Y-108672380D02*
X174362857Y-108672380D01*
X174029523Y-109053333D01*
X174172380Y-109053333D01*
X174267619Y-109100952D01*
X174315238Y-109148571D01*
X174362857Y-109243809D01*
X174362857Y-109481904D01*
X174315238Y-109577142D01*
X174267619Y-109624761D01*
X174172380Y-109672380D01*
X173886666Y-109672380D01*
X173791428Y-109624761D01*
X173743809Y-109577142D01*
X162171142Y-101354000D02*
X162075904Y-101306380D01*
X161933047Y-101306380D01*
X161790190Y-101354000D01*
X161694952Y-101449238D01*
X161647333Y-101544476D01*
X161599714Y-101734952D01*
X161599714Y-101877809D01*
X161647333Y-102068285D01*
X161694952Y-102163523D01*
X161790190Y-102258761D01*
X161933047Y-102306380D01*
X162028285Y-102306380D01*
X162171142Y-102258761D01*
X162218761Y-102211142D01*
X162218761Y-101877809D01*
X162028285Y-101877809D01*
X162647333Y-101639714D02*
X162647333Y-102306380D01*
X162647333Y-101734952D02*
X162694952Y-101687333D01*
X162790190Y-101639714D01*
X162933047Y-101639714D01*
X163028285Y-101687333D01*
X163075904Y-101782571D01*
X163075904Y-102306380D01*
X163980666Y-102306380D02*
X163980666Y-101306380D01*
X163980666Y-102258761D02*
X163885428Y-102306380D01*
X163694952Y-102306380D01*
X163599714Y-102258761D01*
X163552095Y-102211142D01*
X163504476Y-102115904D01*
X163504476Y-101830190D01*
X163552095Y-101734952D01*
X163599714Y-101687333D01*
X163694952Y-101639714D01*
X163885428Y-101639714D01*
X163980666Y-101687333D01*
X178903238Y-60237619D02*
X179379428Y-60237619D01*
X179427047Y-59761428D01*
X179379428Y-59809047D01*
X179284190Y-59856666D01*
X179046095Y-59856666D01*
X178950857Y-59809047D01*
X178903238Y-59761428D01*
X178855619Y-59666190D01*
X178855619Y-59428095D01*
X178903238Y-59332857D01*
X178950857Y-59285238D01*
X179046095Y-59237619D01*
X179284190Y-59237619D01*
X179379428Y-59285238D01*
X179427047Y-59332857D01*
X178569904Y-60237619D02*
X178236571Y-59237619D01*
X177903238Y-60237619D01*
X177093714Y-59237619D02*
X177569904Y-59237619D01*
X177569904Y-60237619D01*
X169568952Y-117038380D02*
X169092761Y-117038380D01*
X169092761Y-116038380D01*
X169902285Y-116514571D02*
X170235619Y-116514571D01*
X170378476Y-117038380D02*
X169902285Y-117038380D01*
X169902285Y-116038380D01*
X170378476Y-116038380D01*
X170807047Y-117038380D02*
X170807047Y-116038380D01*
X171045142Y-116038380D01*
X171188000Y-116086000D01*
X171283238Y-116181238D01*
X171330857Y-116276476D01*
X171378476Y-116466952D01*
X171378476Y-116609809D01*
X171330857Y-116800285D01*
X171283238Y-116895523D01*
X171188000Y-116990761D01*
X171045142Y-117038380D01*
X170807047Y-117038380D01*
X171997523Y-116038380D02*
X172092761Y-116038380D01*
X172188000Y-116086000D01*
X172235619Y-116133619D01*
X172283238Y-116228857D01*
X172330857Y-116419333D01*
X172330857Y-116657428D01*
X172283238Y-116847904D01*
X172235619Y-116943142D01*
X172188000Y-116990761D01*
X172092761Y-117038380D01*
X171997523Y-117038380D01*
X171902285Y-116990761D01*
X171854666Y-116943142D01*
X171807047Y-116847904D01*
X171759428Y-116657428D01*
X171759428Y-116419333D01*
X171807047Y-116228857D01*
X171854666Y-116133619D01*
X171902285Y-116086000D01*
X171997523Y-116038380D01*
X172362952Y-107132380D02*
X171886761Y-107132380D01*
X171886761Y-106132380D01*
X172696285Y-106608571D02*
X173029619Y-106608571D01*
X173172476Y-107132380D02*
X172696285Y-107132380D01*
X172696285Y-106132380D01*
X173172476Y-106132380D01*
X173601047Y-107132380D02*
X173601047Y-106132380D01*
X173839142Y-106132380D01*
X173982000Y-106180000D01*
X174077238Y-106275238D01*
X174124857Y-106370476D01*
X174172476Y-106560952D01*
X174172476Y-106703809D01*
X174124857Y-106894285D01*
X174077238Y-106989523D01*
X173982000Y-107084761D01*
X173839142Y-107132380D01*
X173601047Y-107132380D01*
X175029619Y-106465714D02*
X175029619Y-107132380D01*
X174791523Y-106084761D02*
X174553428Y-106799047D01*
X175172476Y-106799047D01*
X111514424Y-98916667D02*
X111337843Y-98373206D01*
X112377190Y-98335919D02*
X111426134Y-98644936D01*
X112141749Y-97611305D02*
X112125891Y-97716597D01*
X112095317Y-97776600D01*
X112019456Y-97851319D01*
X111747725Y-97939610D01*
X111642433Y-97923751D01*
X111582430Y-97893178D01*
X111507711Y-97817316D01*
X111463566Y-97681451D01*
X111479424Y-97576159D01*
X111509997Y-97516156D01*
X111585859Y-97441437D01*
X111857589Y-97353147D01*
X111962881Y-97369005D01*
X112022885Y-97399578D01*
X112097603Y-97475440D01*
X112141749Y-97611305D01*
X111906307Y-96886690D02*
X111272270Y-97092702D01*
X111362846Y-97063272D02*
X111302843Y-97032698D01*
X111228124Y-96956837D01*
X111183979Y-96820971D01*
X111199837Y-96715679D01*
X111275699Y-96640961D01*
X111773871Y-96479095D01*
X111275699Y-96640961D02*
X111170407Y-96625103D01*
X111095688Y-96549241D01*
X111051543Y-96413376D01*
X111067401Y-96308084D01*
X111143263Y-96233365D01*
X111641436Y-96071499D01*
X110351932Y-95338883D02*
X111199983Y-94712847D01*
X110145921Y-94704845D01*
X110830962Y-93731217D02*
X110905681Y-93807079D01*
X110964541Y-93988233D01*
X110948683Y-94093524D01*
X110872821Y-94168243D01*
X110510514Y-94285964D01*
X110405222Y-94270106D01*
X110330504Y-94194244D01*
X110271643Y-94013090D01*
X110287501Y-93907798D01*
X110363363Y-93833080D01*
X110453940Y-93803650D01*
X110691668Y-94227103D01*
X110729100Y-93263618D02*
X110095062Y-93469629D01*
X110276216Y-93410769D02*
X110170924Y-93394911D01*
X110110920Y-93364337D01*
X110036202Y-93288476D01*
X110006771Y-93197899D01*
X110537803Y-92674869D02*
X109586747Y-92983886D01*
X109949054Y-92866165D02*
X109874336Y-92790303D01*
X109815475Y-92609150D01*
X109831333Y-92503858D01*
X109861907Y-92443854D01*
X109937768Y-92369136D01*
X110209499Y-92280845D01*
X110314791Y-92296703D01*
X110374794Y-92327277D01*
X110449513Y-92403138D01*
X110508373Y-92584292D01*
X110492515Y-92689584D01*
X110095207Y-91466797D02*
X110169926Y-91542659D01*
X110228786Y-91723812D01*
X110212928Y-91829104D01*
X110137067Y-91903823D01*
X109774759Y-92021544D01*
X109669467Y-92005685D01*
X109594749Y-91929824D01*
X109535888Y-91748670D01*
X109551747Y-91643378D01*
X109627608Y-91568659D01*
X109718185Y-91539229D01*
X109955913Y-91962683D01*
X109226871Y-90797613D02*
X109860909Y-90591602D01*
X109359307Y-91205209D02*
X109857480Y-91043343D01*
X109933341Y-90968624D01*
X109949200Y-90863333D01*
X109905054Y-90727467D01*
X109830336Y-90651606D01*
X109770332Y-90621032D01*
X109713758Y-90138718D02*
X109079720Y-90344729D01*
X109260874Y-90285869D02*
X109155582Y-90270011D01*
X109095579Y-90239437D01*
X109020860Y-90163576D01*
X108991430Y-90072999D01*
X109359453Y-89202377D02*
X109434171Y-89278238D01*
X109493032Y-89459392D01*
X109477173Y-89564684D01*
X109401312Y-89639402D01*
X109039005Y-89757123D01*
X108933713Y-89741265D01*
X108858994Y-89665403D01*
X108800134Y-89484250D01*
X108815992Y-89378958D01*
X108891854Y-89304239D01*
X108982430Y-89274809D01*
X109220158Y-89698263D01*
X115092956Y-101484119D02*
X115240107Y-101937003D01*
X114289051Y-102246020D01*
X114491778Y-101328966D02*
X114388773Y-101011947D01*
X114842800Y-100714216D02*
X114989951Y-101167100D01*
X114038894Y-101476117D01*
X113891743Y-101023233D01*
X114710364Y-100306621D02*
X113759307Y-100615638D01*
X113685732Y-100389196D01*
X113686875Y-100238615D01*
X113748022Y-100118608D01*
X113823883Y-100043890D01*
X113990322Y-99939741D01*
X114126187Y-99895596D01*
X114322056Y-99882024D01*
X114427348Y-99897882D01*
X114547355Y-99959028D01*
X114636789Y-100080179D01*
X114710364Y-100306621D01*
X113564727Y-98475797D02*
X113565870Y-98325216D01*
X113596444Y-98265213D01*
X113672305Y-98190494D01*
X113808171Y-98146349D01*
X113913463Y-98162207D01*
X113973466Y-98192781D01*
X114048185Y-98268642D01*
X114165905Y-98630950D01*
X113214849Y-98939967D01*
X113111843Y-98622948D01*
X113127701Y-98517656D01*
X113158275Y-98457652D01*
X113234137Y-98382934D01*
X113324713Y-98353504D01*
X113430005Y-98369362D01*
X113490009Y-98399935D01*
X113564727Y-98475797D01*
X113667733Y-98792816D01*
X113724453Y-97272297D02*
X113226280Y-97434163D01*
X113150418Y-97508882D01*
X113134560Y-97614174D01*
X113193421Y-97795328D01*
X113268139Y-97871189D01*
X113679164Y-97287012D02*
X113753883Y-97362874D01*
X113827458Y-97589316D01*
X113811600Y-97694608D01*
X113735738Y-97769327D01*
X113645162Y-97798757D01*
X113539870Y-97782899D01*
X113465151Y-97707037D01*
X113391576Y-97480595D01*
X113316857Y-97404733D01*
X113533156Y-96683548D02*
X113517298Y-96788840D01*
X113441436Y-96863559D01*
X112626245Y-97128430D01*
X113371290Y-96185376D02*
X113355432Y-96290668D01*
X113279570Y-96365386D01*
X112464379Y-96630258D01*
X112750970Y-94584423D02*
X112810974Y-94614997D01*
X112900407Y-94736147D01*
X112929837Y-94826723D01*
X112928694Y-94977304D01*
X112867548Y-95097311D01*
X112791686Y-95172029D01*
X112625248Y-95276178D01*
X112489382Y-95320323D01*
X112293514Y-95333895D01*
X112188222Y-95318037D01*
X112068215Y-95256891D01*
X111978781Y-95135740D01*
X111949351Y-95045164D01*
X111950494Y-94894583D01*
X111981067Y-94834580D01*
X112664966Y-94011532D02*
X112649108Y-94116824D01*
X112618534Y-94176828D01*
X112542673Y-94251546D01*
X112270942Y-94339837D01*
X112165650Y-94323979D01*
X112105647Y-94293405D01*
X112030928Y-94217544D01*
X111986783Y-94081678D01*
X112002641Y-93976386D01*
X112033214Y-93916383D01*
X112109076Y-93841664D01*
X112380806Y-93753374D01*
X112486098Y-93769232D01*
X112546102Y-93799805D01*
X112620820Y-93875667D01*
X112664966Y-94011532D01*
X111795487Y-93492929D02*
X112429524Y-93286918D01*
X111886063Y-93463499D02*
X111826060Y-93432926D01*
X111751341Y-93357064D01*
X111707196Y-93221199D01*
X111723054Y-93115907D01*
X111798916Y-93041188D01*
X112297088Y-92879322D01*
X111560045Y-92768315D02*
X111442324Y-92406007D01*
X111198881Y-92735455D02*
X112014072Y-92470583D01*
X112089934Y-92395865D01*
X112105792Y-92290573D01*
X112076362Y-92199996D01*
X111973356Y-91882977D02*
X111339319Y-92088988D01*
X111520472Y-92030128D02*
X111415180Y-92014270D01*
X111355177Y-91983697D01*
X111280458Y-91907835D01*
X111251028Y-91817258D01*
X111737915Y-91158363D02*
X111722057Y-91263655D01*
X111691483Y-91323658D01*
X111615622Y-91398377D01*
X111343891Y-91486667D01*
X111238599Y-91470809D01*
X111178596Y-91440236D01*
X111103877Y-91364374D01*
X111059732Y-91228509D01*
X111075590Y-91123217D01*
X111106163Y-91063213D01*
X111182025Y-90988495D01*
X111453756Y-90900204D01*
X111559047Y-90916062D01*
X111619051Y-90946636D01*
X111693770Y-91022497D01*
X111737915Y-91158363D01*
X111458328Y-90297883D02*
X111442470Y-90403175D01*
X111366608Y-90477893D01*
X110551417Y-90742765D01*
X111296462Y-89799710D02*
X111280604Y-89905002D01*
X111204742Y-89979721D01*
X110389551Y-90244593D01*
X111015732Y-89089811D02*
X111090451Y-89165673D01*
X111149311Y-89346826D01*
X111133453Y-89452118D01*
X111057591Y-89526837D01*
X110695284Y-89644558D01*
X110589992Y-89628699D01*
X110515273Y-89552838D01*
X110456413Y-89371684D01*
X110472271Y-89266392D01*
X110548133Y-89191674D01*
X110638710Y-89162243D01*
X110876437Y-89585697D01*
X110913869Y-88622212D02*
X110279832Y-88828223D01*
X110460985Y-88769363D02*
X110355694Y-88753505D01*
X110295690Y-88722931D01*
X110220971Y-88647070D01*
X110191541Y-88556493D01*
X110487132Y-87308848D02*
X109853094Y-87514859D01*
X110034248Y-87455999D02*
X109928956Y-87440141D01*
X109868952Y-87409568D01*
X109794234Y-87333706D01*
X109764803Y-87243129D01*
X110132826Y-86372507D02*
X110207545Y-86448368D01*
X110266405Y-86629522D01*
X110250547Y-86734814D01*
X110174685Y-86809533D01*
X109812378Y-86927253D01*
X109707086Y-86911395D01*
X109632368Y-86835533D01*
X109573507Y-86654380D01*
X109589365Y-86549088D01*
X109665227Y-86474369D01*
X109755804Y-86444939D01*
X109993532Y-86868393D01*
X109426356Y-86201496D02*
X109986818Y-85769042D01*
X109279205Y-85748612D01*
X109633656Y-84682121D02*
X109810237Y-85225582D01*
X109721947Y-84953851D02*
X108770890Y-85262868D01*
X108936186Y-85309300D01*
X109056193Y-85370446D01*
X109130911Y-85446308D01*
X116593439Y-103049438D02*
X117363342Y-102799281D01*
X117468633Y-102815140D01*
X117528637Y-102845713D01*
X117603356Y-102921575D01*
X117647501Y-103057440D01*
X117631643Y-103162732D01*
X117182188Y-102858142D02*
X117256907Y-102934004D01*
X117315767Y-103115157D01*
X117299909Y-103220449D01*
X117269335Y-103280453D01*
X117193474Y-103355171D01*
X116921743Y-103443462D01*
X116816451Y-103427604D01*
X116756448Y-103397030D01*
X116681729Y-103321168D01*
X116622869Y-103140015D01*
X116638727Y-103034723D01*
X117080325Y-102390543D02*
X116446288Y-102596554D01*
X116129269Y-102699560D02*
X116189272Y-102730133D01*
X116219846Y-102670129D01*
X116159842Y-102639556D01*
X116129269Y-102699560D01*
X116219846Y-102670129D01*
X116343282Y-102279535D02*
X116225561Y-101917228D01*
X115982118Y-102246676D02*
X116797309Y-101981804D01*
X116873171Y-101907085D01*
X116889029Y-101801793D01*
X116859599Y-101711217D01*
X116756593Y-101394198D02*
X115805537Y-101703215D01*
X116624157Y-100986602D02*
X116125985Y-101148468D01*
X116050123Y-101223187D01*
X116034265Y-101328479D01*
X116078410Y-101464344D01*
X116153129Y-101540206D01*
X116213132Y-101570779D01*
X115710533Y-100332134D02*
X116344571Y-100126122D01*
X115842969Y-100739729D02*
X116341141Y-100577863D01*
X116417003Y-100503145D01*
X116432861Y-100397853D01*
X116388716Y-100261988D01*
X116313997Y-100186126D01*
X116253994Y-100155553D01*
X116197420Y-99673238D02*
X115246363Y-99982255D01*
X115608670Y-99864535D02*
X115533952Y-99788673D01*
X115475091Y-99607519D01*
X115490950Y-99502227D01*
X115521523Y-99442224D01*
X115597385Y-99367505D01*
X115869115Y-99279215D01*
X115974407Y-99295073D01*
X116034411Y-99325646D01*
X116109129Y-99401508D01*
X116167990Y-99582662D01*
X116152131Y-99687953D01*
X115827256Y-98842189D02*
X115857829Y-98782185D01*
X115917833Y-98812759D01*
X115887260Y-98872762D01*
X115827256Y-98842189D01*
X115917833Y-98812759D01*
X115592958Y-97966994D02*
X115667676Y-98042856D01*
X115726537Y-98224009D01*
X115710678Y-98329301D01*
X115680105Y-98389305D01*
X115604243Y-98464023D01*
X115332513Y-98552314D01*
X115227221Y-98536456D01*
X115167218Y-98505882D01*
X115092499Y-98430021D01*
X115033639Y-98248867D01*
X115049497Y-98143575D01*
X115461665Y-97408818D02*
X115445807Y-97514110D01*
X115415233Y-97574113D01*
X115339372Y-97648832D01*
X115067641Y-97737123D01*
X114962349Y-97721264D01*
X114902346Y-97690691D01*
X114827627Y-97614829D01*
X114783482Y-97478964D01*
X114799340Y-97373672D01*
X114829914Y-97313669D01*
X114905775Y-97238950D01*
X115177506Y-97150660D01*
X115282798Y-97166518D01*
X115342801Y-97197091D01*
X115417520Y-97272953D01*
X115461665Y-97408818D01*
X115226223Y-96684204D02*
X114592186Y-96890215D01*
X114682763Y-96860785D02*
X114622759Y-96830211D01*
X114548040Y-96754350D01*
X114503895Y-96618484D01*
X114519753Y-96513193D01*
X114595615Y-96438474D01*
X115093788Y-96276608D01*
X114595615Y-96438474D02*
X114490323Y-96422616D01*
X114415605Y-96346754D01*
X114371459Y-96210889D01*
X114387318Y-96105597D01*
X114463179Y-96030878D01*
X114961352Y-95869012D01*
X113597129Y-95060534D02*
X115084788Y-95478418D01*
X113900576Y-94761660D02*
X113782856Y-94399353D01*
X113539412Y-94728800D02*
X114354603Y-94463929D01*
X114430465Y-94389210D01*
X114446323Y-94283918D01*
X114416893Y-94193341D01*
X114269742Y-93740457D02*
X114253884Y-93845749D01*
X114223311Y-93905753D01*
X114147449Y-93980471D01*
X113875719Y-94068762D01*
X113770427Y-94052904D01*
X113710423Y-94022330D01*
X113635705Y-93946469D01*
X113591559Y-93810603D01*
X113607418Y-93705311D01*
X113637991Y-93645308D01*
X113713853Y-93570589D01*
X113985583Y-93482299D01*
X114090875Y-93498157D01*
X114150878Y-93528730D01*
X114225597Y-93604592D01*
X114269742Y-93740457D01*
X114034301Y-93015843D02*
X113400263Y-93221854D01*
X113490840Y-93192424D02*
X113430836Y-93161851D01*
X113356118Y-93085989D01*
X113311972Y-92950124D01*
X113327831Y-92844832D01*
X113403692Y-92770113D01*
X113901865Y-92608247D01*
X113403692Y-92770113D02*
X113298401Y-92754255D01*
X113223682Y-92678393D01*
X113179537Y-92542528D01*
X113195395Y-92437236D01*
X113271257Y-92362517D01*
X113769429Y-92200651D01*
X113017671Y-92044356D02*
X113578133Y-91611902D01*
X112870520Y-91591471D01*
X113223827Y-90675561D02*
X113298546Y-90751422D01*
X113357406Y-90932576D01*
X113341548Y-91037868D01*
X113265686Y-91112587D01*
X112903379Y-91230307D01*
X112798087Y-91214449D01*
X112723369Y-91138587D01*
X112664508Y-90957434D01*
X112680367Y-90852142D01*
X112756228Y-90777423D01*
X112846805Y-90747993D01*
X113084533Y-91171447D01*
X113121965Y-90207962D02*
X112487927Y-90413973D01*
X112669081Y-90355113D02*
X112563789Y-90339254D01*
X112503785Y-90308681D01*
X112429067Y-90232819D01*
X112399637Y-90142242D01*
X112930669Y-89619212D02*
X111979612Y-89928229D01*
X112341919Y-89810509D02*
X112267201Y-89734647D01*
X112208340Y-89553493D01*
X112224199Y-89448201D01*
X112254772Y-89388198D01*
X112330634Y-89313479D01*
X112602364Y-89225189D01*
X112707656Y-89241047D01*
X112767659Y-89271620D01*
X112842378Y-89347482D01*
X112901238Y-89528635D01*
X112885380Y-89633927D01*
X112488073Y-88411140D02*
X112562791Y-88487002D01*
X112621652Y-88668156D01*
X112605793Y-88773448D01*
X112529932Y-88848166D01*
X112167624Y-88965887D01*
X112062333Y-88950029D01*
X111987614Y-88874167D01*
X111928754Y-88693013D01*
X111944612Y-88587722D01*
X112020473Y-88513003D01*
X112111050Y-88483573D01*
X112348778Y-88907027D01*
X111619737Y-87741957D02*
X112253774Y-87535946D01*
X111752172Y-88149553D02*
X112250345Y-87987687D01*
X112326207Y-87912968D01*
X112342065Y-87807676D01*
X112297920Y-87671811D01*
X112223201Y-87595949D01*
X112163197Y-87565376D01*
X112106623Y-87083062D02*
X111472586Y-87289073D01*
X111653739Y-87230213D02*
X111548447Y-87214354D01*
X111488444Y-87183781D01*
X111413725Y-87107919D01*
X111384295Y-87017342D01*
X111752318Y-86146720D02*
X111827036Y-86222582D01*
X111885897Y-86403736D01*
X111870039Y-86509027D01*
X111794177Y-86583746D01*
X111431870Y-86701467D01*
X111326578Y-86685609D01*
X111251859Y-86609747D01*
X111192999Y-86428593D01*
X111208857Y-86323301D01*
X111284719Y-86248583D01*
X111375296Y-86219153D01*
X111613023Y-86642606D01*
X110433384Y-85323527D02*
X111921043Y-85741411D01*
X111326723Y-84682776D02*
X110375667Y-84991793D01*
X110737974Y-84874072D02*
X110663255Y-84798211D01*
X110604395Y-84617057D01*
X110620253Y-84511765D01*
X110650827Y-84451762D01*
X110726688Y-84377043D01*
X110998419Y-84288752D01*
X111103711Y-84304611D01*
X111163714Y-84335184D01*
X111238433Y-84411046D01*
X111297293Y-84592199D01*
X111281435Y-84697491D01*
X110914701Y-83414701D02*
X110416528Y-83576567D01*
X110340666Y-83651285D01*
X110324808Y-83756577D01*
X110383669Y-83937731D01*
X110458387Y-84013593D01*
X110869412Y-83429416D02*
X110944131Y-83505278D01*
X111017706Y-83731720D01*
X111001848Y-83837011D01*
X110925986Y-83911730D01*
X110835410Y-83941160D01*
X110730118Y-83925302D01*
X110655399Y-83849440D01*
X110581824Y-83622998D01*
X110507105Y-83547137D01*
X110723404Y-82825951D02*
X110707546Y-82931243D01*
X110631684Y-83005962D01*
X109816493Y-83270834D01*
X110561538Y-82327779D02*
X110545680Y-82433071D01*
X110469818Y-82507790D01*
X109654627Y-82772661D01*
X170330952Y-114498380D02*
X169854761Y-114498380D01*
X169854761Y-113498380D01*
X170664285Y-113974571D02*
X170997619Y-113974571D01*
X171140476Y-114498380D02*
X170664285Y-114498380D01*
X170664285Y-113498380D01*
X171140476Y-113498380D01*
X171569047Y-114498380D02*
X171569047Y-113498380D01*
X171807142Y-113498380D01*
X171950000Y-113546000D01*
X172045238Y-113641238D01*
X172092857Y-113736476D01*
X172140476Y-113926952D01*
X172140476Y-114069809D01*
X172092857Y-114260285D01*
X172045238Y-114355523D01*
X171950000Y-114450761D01*
X171807142Y-114498380D01*
X171569047Y-114498380D01*
X173092857Y-114498380D02*
X172521428Y-114498380D01*
X172807142Y-114498380D02*
X172807142Y-113498380D01*
X172711904Y-113641238D01*
X172616666Y-113736476D01*
X172521428Y-113784095D01*
X171092952Y-111958380D02*
X170616761Y-111958380D01*
X170616761Y-110958380D01*
X171426285Y-111434571D02*
X171759619Y-111434571D01*
X171902476Y-111958380D02*
X171426285Y-111958380D01*
X171426285Y-110958380D01*
X171902476Y-110958380D01*
X172331047Y-111958380D02*
X172331047Y-110958380D01*
X172569142Y-110958380D01*
X172712000Y-111006000D01*
X172807238Y-111101238D01*
X172854857Y-111196476D01*
X172902476Y-111386952D01*
X172902476Y-111529809D01*
X172854857Y-111720285D01*
X172807238Y-111815523D01*
X172712000Y-111910761D01*
X172569142Y-111958380D01*
X172331047Y-111958380D01*
X173283428Y-111053619D02*
X173331047Y-111006000D01*
X173426285Y-110958380D01*
X173664380Y-110958380D01*
X173759619Y-111006000D01*
X173807238Y-111053619D01*
X173854857Y-111148857D01*
X173854857Y-111244095D01*
X173807238Y-111386952D01*
X173235809Y-111958380D01*
X173854857Y-111958380D01*
X149010761Y-122134380D02*
X148534571Y-122134380D01*
X148486952Y-122610571D01*
X148534571Y-122562952D01*
X148629809Y-122515333D01*
X148867904Y-122515333D01*
X148963142Y-122562952D01*
X149010761Y-122610571D01*
X149058380Y-122705809D01*
X149058380Y-122943904D01*
X149010761Y-123039142D01*
X148963142Y-123086761D01*
X148867904Y-123134380D01*
X148629809Y-123134380D01*
X148534571Y-123086761D01*
X148486952Y-123039142D01*
X149344095Y-122134380D02*
X149677428Y-123134380D01*
X150010761Y-122134380D01*
X150820285Y-123134380D02*
X150344095Y-123134380D01*
X150344095Y-122134380D01*
%TO.C,R6*%
X120467380Y-59856666D02*
X119991190Y-60190000D01*
X120467380Y-60428095D02*
X119467380Y-60428095D01*
X119467380Y-60047142D01*
X119515000Y-59951904D01*
X119562619Y-59904285D01*
X119657857Y-59856666D01*
X119800714Y-59856666D01*
X119895952Y-59904285D01*
X119943571Y-59951904D01*
X119991190Y-60047142D01*
X119991190Y-60428095D01*
X119467380Y-58999523D02*
X119467380Y-59190000D01*
X119515000Y-59285238D01*
X119562619Y-59332857D01*
X119705476Y-59428095D01*
X119895952Y-59475714D01*
X120276904Y-59475714D01*
X120372142Y-59428095D01*
X120419761Y-59380476D01*
X120467380Y-59285238D01*
X120467380Y-59094761D01*
X120419761Y-58999523D01*
X120372142Y-58951904D01*
X120276904Y-58904285D01*
X120038809Y-58904285D01*
X119943571Y-58951904D01*
X119895952Y-58999523D01*
X119848333Y-59094761D01*
X119848333Y-59285238D01*
X119895952Y-59380476D01*
X119943571Y-59428095D01*
X120038809Y-59475714D01*
%TO.C,R15*%
X135882142Y-79827380D02*
X135548809Y-79351190D01*
X135310714Y-79827380D02*
X135310714Y-78827380D01*
X135691666Y-78827380D01*
X135786904Y-78875000D01*
X135834523Y-78922619D01*
X135882142Y-79017857D01*
X135882142Y-79160714D01*
X135834523Y-79255952D01*
X135786904Y-79303571D01*
X135691666Y-79351190D01*
X135310714Y-79351190D01*
X136834523Y-79827380D02*
X136263095Y-79827380D01*
X136548809Y-79827380D02*
X136548809Y-78827380D01*
X136453571Y-78970238D01*
X136358333Y-79065476D01*
X136263095Y-79113095D01*
X137739285Y-78827380D02*
X137263095Y-78827380D01*
X137215476Y-79303571D01*
X137263095Y-79255952D01*
X137358333Y-79208333D01*
X137596428Y-79208333D01*
X137691666Y-79255952D01*
X137739285Y-79303571D01*
X137786904Y-79398809D01*
X137786904Y-79636904D01*
X137739285Y-79732142D01*
X137691666Y-79779761D01*
X137596428Y-79827380D01*
X137358333Y-79827380D01*
X137263095Y-79779761D01*
X137215476Y-79732142D01*
%TO.C,R21*%
X150947380Y-106965357D02*
X150471190Y-107298690D01*
X150947380Y-107536785D02*
X149947380Y-107536785D01*
X149947380Y-107155833D01*
X149995000Y-107060595D01*
X150042619Y-107012976D01*
X150137857Y-106965357D01*
X150280714Y-106965357D01*
X150375952Y-107012976D01*
X150423571Y-107060595D01*
X150471190Y-107155833D01*
X150471190Y-107536785D01*
X150042619Y-106584404D02*
X149995000Y-106536785D01*
X149947380Y-106441547D01*
X149947380Y-106203452D01*
X149995000Y-106108214D01*
X150042619Y-106060595D01*
X150137857Y-106012976D01*
X150233095Y-106012976D01*
X150375952Y-106060595D01*
X150947380Y-106632023D01*
X150947380Y-106012976D01*
X150947380Y-105060595D02*
X150947380Y-105632023D01*
X150947380Y-105346309D02*
X149947380Y-105346309D01*
X150090238Y-105441547D01*
X150185476Y-105536785D01*
X150233095Y-105632023D01*
%TO.C,U1*%
X171321472Y-87693025D02*
X172091375Y-87943182D01*
X172196667Y-87927324D01*
X172256671Y-87896750D01*
X172331389Y-87820889D01*
X172390250Y-87639735D01*
X172374391Y-87534443D01*
X172343818Y-87474440D01*
X172267956Y-87399721D01*
X171498053Y-87149565D01*
X172758127Y-86507525D02*
X172581546Y-87050986D01*
X172669836Y-86779255D02*
X171718780Y-86470238D01*
X171825215Y-86604961D01*
X171886362Y-86724968D01*
X171902220Y-86830259D01*
X170027902Y-87923624D02*
X169076845Y-87614607D01*
X169194566Y-87252299D01*
X169269284Y-87176438D01*
X169329288Y-87145864D01*
X169434580Y-87130006D01*
X169570445Y-87174151D01*
X169646307Y-87248870D01*
X169676880Y-87308874D01*
X169692738Y-87414165D01*
X169575018Y-87776473D01*
X170336919Y-86972567D02*
X169702881Y-86766556D01*
X169385862Y-86663550D02*
X169416435Y-86723554D01*
X169476439Y-86692980D01*
X169445866Y-86632977D01*
X169385862Y-86663550D01*
X169476439Y-86692980D01*
X170571217Y-86097372D02*
X170587075Y-86202664D01*
X170528215Y-86383818D01*
X170453496Y-86459680D01*
X170393493Y-86490253D01*
X170288201Y-86506111D01*
X170016470Y-86417821D01*
X169940609Y-86343102D01*
X169910035Y-86283098D01*
X169894177Y-86177807D01*
X169953038Y-85996653D01*
X170027756Y-85920791D01*
X170793087Y-85568627D02*
X170718368Y-85644488D01*
X170658364Y-85675062D01*
X170553073Y-85690920D01*
X170281342Y-85602629D01*
X170205480Y-85527911D01*
X170174907Y-85467907D01*
X170159049Y-85362615D01*
X170203194Y-85226750D01*
X170277913Y-85150888D01*
X170337916Y-85120315D01*
X170443208Y-85104457D01*
X170714939Y-85192747D01*
X170790800Y-85267466D01*
X170821374Y-85327469D01*
X170837232Y-85432761D01*
X170793087Y-85568627D01*
X181992672Y-77651055D02*
X181993319Y-77736236D01*
X182045203Y-77838066D01*
X182131031Y-77922600D01*
X182233507Y-77955897D01*
X182318688Y-77955250D01*
X182471755Y-77920014D01*
X182573585Y-77868129D01*
X182692062Y-77765006D01*
X182742653Y-77696474D01*
X182775950Y-77593998D01*
X182758008Y-77474873D01*
X182723419Y-77406987D01*
X182637591Y-77322453D01*
X182586353Y-77305805D01*
X182348751Y-77426869D01*
X182417931Y-77562641D01*
X182498585Y-76965727D02*
X181785780Y-77328919D01*
X182291047Y-76558410D01*
X181578242Y-76921602D01*
X182118098Y-76218978D02*
X181405293Y-76582171D01*
X181318818Y-76412455D01*
X181300877Y-76293331D01*
X181334173Y-76190855D01*
X181384765Y-76122322D01*
X181503242Y-76019200D01*
X181605072Y-75967315D01*
X181758139Y-75932079D01*
X181843320Y-75931432D01*
X181945796Y-75964729D01*
X182031624Y-76049263D01*
X182118098Y-76218978D01*
X181003731Y-106698510D02*
X180830783Y-106359079D01*
X181241980Y-106662627D02*
X180408110Y-106788218D01*
X180999852Y-106187424D01*
X180878787Y-105949822D02*
X180165982Y-106313014D01*
X180079508Y-106143299D01*
X180061566Y-106024174D01*
X180094863Y-105921698D01*
X180145454Y-105853166D01*
X180263932Y-105750043D01*
X180365761Y-105698158D01*
X180518828Y-105662922D01*
X180604009Y-105662275D01*
X180706485Y-105695572D01*
X180792313Y-105780106D01*
X180878787Y-105949822D01*
X180240170Y-104864289D02*
X180291408Y-104880937D01*
X180377236Y-104965472D01*
X180411826Y-105033358D01*
X180429767Y-105152482D01*
X180396471Y-105254958D01*
X180345880Y-105323491D01*
X180227402Y-105426614D01*
X180125573Y-105478498D01*
X179972505Y-105513735D01*
X179887324Y-105514381D01*
X179784848Y-105481085D01*
X179699021Y-105396550D01*
X179664431Y-105328664D01*
X179646489Y-105209540D01*
X179663138Y-105158302D01*
X180306763Y-104659337D02*
X180030045Y-104116247D01*
X179214764Y-104446143D02*
X179806505Y-103845349D01*
X178972636Y-103970940D01*
X179356838Y-102962828D02*
X179138471Y-103373379D01*
X179564377Y-103370146D02*
X178851572Y-103733338D01*
X178713213Y-103461793D01*
X178712566Y-103376612D01*
X178729214Y-103325374D01*
X178779806Y-103256841D01*
X178881635Y-103204957D01*
X178966816Y-103204310D01*
X179018054Y-103220958D01*
X179086587Y-103271550D01*
X179224946Y-103543095D01*
X178827810Y-102847584D02*
X178706746Y-102609982D01*
X179028236Y-102317909D02*
X179201184Y-102657341D01*
X178488379Y-103020533D01*
X178315430Y-102681102D01*
X178378144Y-101965063D02*
X178499208Y-102202665D01*
X178872582Y-102012422D02*
X178159777Y-102375614D01*
X177986828Y-102036183D01*
X196509891Y-82234515D02*
X196510538Y-82319696D01*
X196562422Y-82421526D01*
X196648250Y-82506060D01*
X196750726Y-82539357D01*
X196835907Y-82538710D01*
X196988974Y-82503474D01*
X197090804Y-82451589D01*
X197209281Y-82348466D01*
X197259873Y-82279933D01*
X197293169Y-82177457D01*
X197275228Y-82058333D01*
X197240638Y-81990447D01*
X197154810Y-81905913D01*
X197103572Y-81889264D01*
X196865970Y-82010329D01*
X196935150Y-82146101D01*
X197015804Y-81549187D02*
X196302999Y-81912379D01*
X196164640Y-81640834D01*
X196163994Y-81555653D01*
X196180642Y-81504415D01*
X196231233Y-81435882D01*
X196333062Y-81383998D01*
X196418243Y-81383351D01*
X196469481Y-81399999D01*
X196538014Y-81450591D01*
X196676373Y-81722135D01*
X196462368Y-80463007D02*
X196669907Y-80870325D01*
X196566138Y-80666666D02*
X195853332Y-81029858D01*
X195989751Y-81045860D01*
X196092227Y-81079156D01*
X196160760Y-81129748D01*
X188764286Y-107784100D02*
X189356027Y-107183306D01*
X188522158Y-107308897D01*
X189097251Y-106759341D02*
X189079309Y-106640217D01*
X188992835Y-106470501D01*
X188924302Y-106419910D01*
X188873064Y-106403261D01*
X188787883Y-106403908D01*
X188719997Y-106438498D01*
X188669406Y-106507031D01*
X188652757Y-106558269D01*
X188653404Y-106643450D01*
X188688640Y-106796517D01*
X188689287Y-106881698D01*
X188672639Y-106932936D01*
X188622047Y-107001469D01*
X188554161Y-107036059D01*
X188468980Y-107036705D01*
X188417742Y-107020057D01*
X188349209Y-106969466D01*
X188262735Y-106799750D01*
X188244793Y-106680626D01*
X188359391Y-106066417D02*
X188698822Y-105893468D01*
X188107081Y-106494262D02*
X188359391Y-106066417D01*
X187864953Y-106019059D01*
X188440046Y-105469503D02*
X188422104Y-105350379D01*
X188335630Y-105180663D01*
X188267097Y-105130072D01*
X188215859Y-105113423D01*
X188130678Y-105114070D01*
X188062792Y-105148660D01*
X188012200Y-105217193D01*
X187995552Y-105268431D01*
X187996199Y-105353612D01*
X188031435Y-105506679D01*
X188032082Y-105591860D01*
X188015433Y-105643098D01*
X187964842Y-105711631D01*
X187896956Y-105746221D01*
X187811775Y-105746867D01*
X187760537Y-105730219D01*
X187692004Y-105679628D01*
X187605530Y-105509912D01*
X187587588Y-105390788D01*
X181370418Y-104783011D02*
X181145584Y-104341751D01*
X181538193Y-104440994D01*
X181486309Y-104339164D01*
X181485662Y-104253983D01*
X181502310Y-104202745D01*
X181552901Y-104134212D01*
X181722617Y-104047738D01*
X181807798Y-104047091D01*
X181859036Y-104063740D01*
X181927569Y-104114331D01*
X182031338Y-104317990D01*
X182031985Y-104403171D01*
X182015337Y-104454409D01*
X181041815Y-104138092D02*
X181633556Y-103537298D01*
X180799687Y-103662889D01*
X180713212Y-103493173D02*
X180488379Y-103051913D01*
X180880988Y-103151156D01*
X180829103Y-103049326D01*
X180828457Y-102964145D01*
X180845105Y-102912907D01*
X180895696Y-102844374D01*
X181065412Y-102757900D01*
X181150593Y-102757253D01*
X181201831Y-102773902D01*
X181270364Y-102824493D01*
X181374133Y-103028152D01*
X181374780Y-103113333D01*
X181358131Y-103164571D01*
X189222428Y-79971821D02*
X189223075Y-80057002D01*
X189274959Y-80158832D01*
X189360787Y-80243366D01*
X189463263Y-80276663D01*
X189548444Y-80276016D01*
X189701511Y-80240780D01*
X189803341Y-80188895D01*
X189921818Y-80085772D01*
X189972410Y-80017239D01*
X190005706Y-79914763D01*
X189987765Y-79795639D01*
X189953175Y-79727753D01*
X189867347Y-79643219D01*
X189816109Y-79626570D01*
X189578507Y-79747635D01*
X189647687Y-79883407D01*
X189728341Y-79286493D02*
X189015536Y-79649685D01*
X188877177Y-79378140D01*
X188876531Y-79292959D01*
X188893179Y-79241721D01*
X188943770Y-79173188D01*
X189045599Y-79121304D01*
X189130780Y-79120657D01*
X189182018Y-79137305D01*
X189250551Y-79187897D01*
X189388910Y-79459441D01*
X188686934Y-79004766D02*
X188462100Y-78563506D01*
X188854709Y-78662748D01*
X188802824Y-78560919D01*
X188802178Y-78475738D01*
X188818826Y-78424500D01*
X188869417Y-78355967D01*
X189039133Y-78269493D01*
X189124314Y-78268846D01*
X189175552Y-78285494D01*
X189244085Y-78336086D01*
X189347854Y-78539744D01*
X189348501Y-78624925D01*
X189331853Y-78676163D01*
X184754595Y-107530992D02*
X184529761Y-107089731D01*
X184922370Y-107188974D01*
X184870485Y-107087145D01*
X184869839Y-107001964D01*
X184886487Y-106950726D01*
X184937078Y-106882193D01*
X185106794Y-106795719D01*
X185191975Y-106795072D01*
X185243213Y-106811720D01*
X185311746Y-106862311D01*
X185415515Y-107065970D01*
X185416162Y-107151151D01*
X185399514Y-107202389D01*
X184425992Y-106886073D02*
X185017733Y-106285279D01*
X184183864Y-106410869D01*
X184097389Y-106241154D02*
X183872556Y-105799893D01*
X184265165Y-105899136D01*
X184213280Y-105797307D01*
X184212634Y-105712126D01*
X184229282Y-105660888D01*
X184279873Y-105592355D01*
X184449589Y-105505881D01*
X184534770Y-105505234D01*
X184586008Y-105521882D01*
X184654541Y-105572473D01*
X184758310Y-105776132D01*
X184758956Y-105861313D01*
X184742308Y-105912551D01*
X184584068Y-105266339D02*
X184307350Y-104723249D01*
X183779615Y-104778367D02*
X183658551Y-104540765D01*
X183980040Y-104248692D02*
X184152989Y-104588123D01*
X183440184Y-104951316D01*
X183267235Y-104611885D01*
X183824387Y-103943204D02*
X183111581Y-104306397D01*
X183616848Y-103535887D01*
X182904043Y-103899080D01*
X169914254Y-73726540D02*
X169914901Y-73811721D01*
X169966785Y-73913551D01*
X170052613Y-73998085D01*
X170155089Y-74031382D01*
X170240270Y-74030735D01*
X170393337Y-73995499D01*
X170495167Y-73943614D01*
X170613644Y-73840491D01*
X170664235Y-73771959D01*
X170697532Y-73669483D01*
X170679590Y-73550358D01*
X170645001Y-73482472D01*
X170559173Y-73397938D01*
X170507935Y-73381290D01*
X170270333Y-73502354D01*
X170339513Y-73638126D01*
X170420167Y-73041212D02*
X169707362Y-73404404D01*
X170212629Y-72633895D01*
X169499824Y-72997087D01*
X170039680Y-72294463D02*
X169326875Y-72657656D01*
X169240400Y-72487940D01*
X169222459Y-72368816D01*
X169255755Y-72266340D01*
X169306347Y-72197807D01*
X169424824Y-72094685D01*
X169526654Y-72042800D01*
X169679721Y-72007564D01*
X169764902Y-72006917D01*
X169867378Y-72040214D01*
X169953206Y-72124748D01*
X170039680Y-72294463D01*
X174841743Y-102710347D02*
X174668794Y-102370916D01*
X175079991Y-102674464D02*
X174246122Y-102800055D01*
X174837863Y-102199261D01*
X173847693Y-101934182D02*
X173848340Y-102019364D01*
X173900224Y-102121193D01*
X173986052Y-102205727D01*
X174088528Y-102239024D01*
X174173709Y-102238377D01*
X174326776Y-102203141D01*
X174428606Y-102151256D01*
X174547083Y-102048133D01*
X174597675Y-101979601D01*
X174630971Y-101877125D01*
X174613030Y-101758000D01*
X174578440Y-101690114D01*
X174492612Y-101605580D01*
X174441374Y-101588932D01*
X174203772Y-101709996D01*
X174272952Y-101845768D01*
X174353606Y-101248854D02*
X173640801Y-101612046D01*
X174146068Y-100841537D01*
X173433263Y-101204729D01*
X173973119Y-100502106D02*
X173260314Y-100865298D01*
X173173839Y-100695582D01*
X173155898Y-100576458D01*
X173189194Y-100473982D01*
X173239786Y-100405449D01*
X173358263Y-100302327D01*
X173460093Y-100250442D01*
X173613160Y-100215206D01*
X173698341Y-100214559D01*
X173800817Y-100247856D01*
X173886645Y-100332390D01*
X173973119Y-100502106D01*
X172312643Y-74477499D02*
X172313290Y-74562680D01*
X172365174Y-74664510D01*
X172451002Y-74749044D01*
X172553478Y-74782341D01*
X172638659Y-74781694D01*
X172791726Y-74746458D01*
X172893556Y-74694573D01*
X173012033Y-74591450D01*
X173062625Y-74522917D01*
X173095921Y-74420441D01*
X173077980Y-74301317D01*
X173043390Y-74233431D01*
X172957562Y-74148897D01*
X172906324Y-74132248D01*
X172668722Y-74253313D01*
X172737902Y-74389085D01*
X172818556Y-73792171D02*
X172105751Y-74155363D01*
X171967392Y-73883818D01*
X171966746Y-73798637D01*
X171983394Y-73747399D01*
X172033985Y-73678866D01*
X172135814Y-73626982D01*
X172220995Y-73626335D01*
X172272233Y-73642983D01*
X172340766Y-73693575D01*
X172479125Y-73965119D01*
X172438069Y-73045422D02*
X172368890Y-72909650D01*
X172300357Y-72859059D01*
X172249119Y-72842410D01*
X172112700Y-72826409D01*
X171959632Y-72861645D01*
X171688088Y-73000004D01*
X171637496Y-73068537D01*
X171620848Y-73119775D01*
X171621495Y-73204956D01*
X171690674Y-73340729D01*
X171759207Y-73391320D01*
X171810445Y-73407968D01*
X171895626Y-73407321D01*
X172065342Y-73320847D01*
X172115933Y-73252314D01*
X172132581Y-73201076D01*
X172131935Y-73115895D01*
X172062755Y-72980123D01*
X171994222Y-72929531D01*
X171942984Y-72912883D01*
X171857803Y-72913530D01*
X198885162Y-83111434D02*
X198885809Y-83196615D01*
X198937693Y-83298445D01*
X199023521Y-83382979D01*
X199125997Y-83416276D01*
X199211178Y-83415629D01*
X199364245Y-83380393D01*
X199466075Y-83328508D01*
X199584552Y-83225385D01*
X199635144Y-83156852D01*
X199668440Y-83054376D01*
X199650499Y-82935252D01*
X199615909Y-82867366D01*
X199530081Y-82782832D01*
X199478843Y-82766183D01*
X199241241Y-82887248D01*
X199310421Y-83023020D01*
X199391075Y-82426106D02*
X198678270Y-82789298D01*
X198539911Y-82517753D01*
X198539265Y-82432572D01*
X198555913Y-82381334D01*
X198606504Y-82312801D01*
X198708333Y-82260917D01*
X198793514Y-82260270D01*
X198844752Y-82276918D01*
X198913285Y-82327510D01*
X199051644Y-82599054D01*
X198245898Y-81940720D02*
X198211309Y-81872834D01*
X198210662Y-81787653D01*
X198227310Y-81736415D01*
X198277901Y-81667882D01*
X198396379Y-81564760D01*
X198566095Y-81478285D01*
X198719162Y-81443049D01*
X198804343Y-81442402D01*
X198855581Y-81459051D01*
X198924114Y-81509642D01*
X198958703Y-81577528D01*
X198959350Y-81662709D01*
X198942702Y-81713947D01*
X198892111Y-81782480D01*
X198773633Y-81885603D01*
X198603917Y-81972077D01*
X198450850Y-82007313D01*
X198365669Y-82007960D01*
X198314431Y-81991312D01*
X198245898Y-81940720D01*
X152417849Y-95481029D02*
X152418495Y-95566210D01*
X152470380Y-95668040D01*
X152556208Y-95752574D01*
X152658684Y-95785871D01*
X152743865Y-95785224D01*
X152896932Y-95749988D01*
X152998761Y-95698103D01*
X153117239Y-95594980D01*
X153167830Y-95526448D01*
X153201127Y-95423972D01*
X153183185Y-95304847D01*
X153148596Y-95236961D01*
X153062768Y-95152427D01*
X153011530Y-95135778D01*
X152773928Y-95256843D01*
X152843108Y-95392615D01*
X152923762Y-94795701D02*
X152210957Y-95158893D01*
X152072598Y-94887348D01*
X152071951Y-94802167D01*
X152088600Y-94750929D01*
X152139191Y-94682396D01*
X152241020Y-94630512D01*
X152326201Y-94629865D01*
X152377439Y-94646513D01*
X152445972Y-94697105D01*
X152584331Y-94968650D01*
X152370326Y-93709521D02*
X152577865Y-94116839D01*
X152474095Y-93913180D02*
X151761290Y-94276372D01*
X151897709Y-94292374D01*
X152000185Y-94325670D01*
X152068718Y-94376262D01*
X151755470Y-93509743D02*
X151756117Y-93594924D01*
X151739469Y-93646162D01*
X151688877Y-93714695D01*
X151654934Y-93731989D01*
X151569753Y-93732636D01*
X151518515Y-93715988D01*
X151449982Y-93665397D01*
X151380803Y-93529624D01*
X151380156Y-93444443D01*
X151396804Y-93393205D01*
X151447396Y-93324672D01*
X151481339Y-93307377D01*
X151566520Y-93306731D01*
X151617758Y-93323379D01*
X151686291Y-93373970D01*
X151755470Y-93509743D01*
X151824003Y-93560334D01*
X151875241Y-93576982D01*
X151960422Y-93576336D01*
X152096195Y-93507156D01*
X152146786Y-93438623D01*
X152163434Y-93387385D01*
X152162788Y-93302204D01*
X152093608Y-93166432D01*
X152025075Y-93115840D01*
X151973837Y-93099192D01*
X151888656Y-93099839D01*
X151752884Y-93169018D01*
X151702292Y-93237551D01*
X151685644Y-93288789D01*
X151686291Y-93373970D01*
X167443198Y-99470734D02*
X167224831Y-99881285D01*
X167650736Y-99878052D02*
X166937931Y-100241244D01*
X166799572Y-99969699D01*
X166798925Y-99884518D01*
X166815573Y-99833280D01*
X166866165Y-99764747D01*
X166967994Y-99712863D01*
X167053175Y-99712216D01*
X167104413Y-99728864D01*
X167172946Y-99779455D01*
X167311305Y-100051000D01*
X166574738Y-99528439D02*
X167151771Y-99234426D01*
X167202363Y-99165893D01*
X167219011Y-99114655D01*
X167218364Y-99029474D01*
X167149185Y-98893702D01*
X167080652Y-98843110D01*
X167029414Y-98826462D01*
X166944233Y-98827109D01*
X166367200Y-99121121D01*
X166907056Y-98418498D02*
X166194251Y-98781690D01*
X166699518Y-98011181D01*
X165986713Y-98374373D01*
X154833533Y-96265932D02*
X154834179Y-96351113D01*
X154886064Y-96452943D01*
X154971892Y-96537477D01*
X155074368Y-96570774D01*
X155159549Y-96570127D01*
X155312616Y-96534891D01*
X155414445Y-96483006D01*
X155532923Y-96379883D01*
X155583514Y-96311351D01*
X155616811Y-96208875D01*
X155598869Y-96089750D01*
X155564280Y-96021864D01*
X155478452Y-95937330D01*
X155427214Y-95920681D01*
X155189612Y-96041746D01*
X155258792Y-96177518D01*
X155339446Y-95580604D02*
X154626641Y-95943796D01*
X154488282Y-95672251D01*
X154487635Y-95587070D01*
X154504284Y-95535832D01*
X154554875Y-95467299D01*
X154656704Y-95415415D01*
X154741885Y-95414768D01*
X154793123Y-95431416D01*
X154861656Y-95482008D01*
X155000015Y-95753553D01*
X154786010Y-94494424D02*
X154993549Y-94901742D01*
X154889779Y-94698083D02*
X154176974Y-95061275D01*
X154313393Y-95077277D01*
X154415869Y-95110573D01*
X154484402Y-95161165D01*
X154613061Y-94154993D02*
X154543882Y-94019221D01*
X154475349Y-93968630D01*
X154424111Y-93951981D01*
X154287692Y-93935980D01*
X154134625Y-93971216D01*
X153863080Y-94109575D01*
X153812488Y-94178108D01*
X153795840Y-94229346D01*
X153796487Y-94314527D01*
X153865666Y-94450300D01*
X153934199Y-94500891D01*
X153985437Y-94517539D01*
X154070618Y-94516892D01*
X154240334Y-94430418D01*
X154290925Y-94361885D01*
X154307573Y-94310647D01*
X154306927Y-94225466D01*
X154237747Y-94089694D01*
X154169214Y-94039102D01*
X154117976Y-94022454D01*
X154032795Y-94023101D01*
X160485665Y-70650846D02*
X160486311Y-70736027D01*
X160538196Y-70837857D01*
X160624024Y-70922391D01*
X160726500Y-70955688D01*
X160811681Y-70955041D01*
X160964748Y-70919805D01*
X161066577Y-70867920D01*
X161185055Y-70764797D01*
X161235646Y-70696265D01*
X161268943Y-70593789D01*
X161251001Y-70474664D01*
X161216412Y-70406778D01*
X161130584Y-70322244D01*
X161079346Y-70305595D01*
X160841744Y-70426660D01*
X160910924Y-70562432D01*
X160991578Y-69965518D02*
X160278773Y-70328710D01*
X160140414Y-70057165D01*
X160139767Y-69971984D01*
X160156416Y-69920746D01*
X160207007Y-69852213D01*
X160308836Y-69800329D01*
X160394017Y-69799682D01*
X160445255Y-69816330D01*
X160513788Y-69866922D01*
X160652147Y-70138467D01*
X160438142Y-68879338D02*
X160645681Y-69286656D01*
X160541911Y-69082997D02*
X159829106Y-69446189D01*
X159965525Y-69462191D01*
X160068001Y-69495487D01*
X160136534Y-69546079D01*
X159604273Y-69004929D02*
X159379439Y-68563669D01*
X159772048Y-68662911D01*
X159720164Y-68561082D01*
X159719517Y-68475901D01*
X159736165Y-68424663D01*
X159786757Y-68356130D01*
X159956472Y-68269656D01*
X160041653Y-68269009D01*
X160092891Y-68285657D01*
X160161424Y-68336249D01*
X160265193Y-68539907D01*
X160265840Y-68625088D01*
X160249192Y-68676326D01*
X165362148Y-72081798D02*
X165362794Y-72166979D01*
X165414679Y-72268809D01*
X165500507Y-72353343D01*
X165602983Y-72386640D01*
X165688164Y-72385993D01*
X165841231Y-72350757D01*
X165943060Y-72298872D01*
X166061538Y-72195749D01*
X166112129Y-72127217D01*
X166145426Y-72024741D01*
X166127484Y-71905616D01*
X166092895Y-71837730D01*
X166007067Y-71753196D01*
X165955829Y-71736547D01*
X165718227Y-71857612D01*
X165787407Y-71993384D01*
X165868061Y-71396470D02*
X165155256Y-71759662D01*
X165016897Y-71488117D01*
X165016250Y-71402936D01*
X165032899Y-71351698D01*
X165083490Y-71283165D01*
X165185319Y-71231281D01*
X165270500Y-71230634D01*
X165321738Y-71247282D01*
X165390271Y-71297874D01*
X165528630Y-71569419D01*
X165314625Y-70310290D02*
X165522164Y-70717608D01*
X165418394Y-70513949D02*
X164705589Y-70877141D01*
X164842008Y-70893143D01*
X164944484Y-70926439D01*
X165013017Y-70977031D01*
X164968728Y-69631428D02*
X165176266Y-70038746D01*
X165072497Y-69835087D02*
X164359692Y-70198279D01*
X164496111Y-70214281D01*
X164598587Y-70247577D01*
X164667120Y-70298169D01*
X191669013Y-80661619D02*
X191669660Y-80746800D01*
X191721544Y-80848630D01*
X191807372Y-80933164D01*
X191909848Y-80966461D01*
X191995029Y-80965814D01*
X192148096Y-80930578D01*
X192249926Y-80878693D01*
X192368403Y-80775570D01*
X192418995Y-80707037D01*
X192452291Y-80604561D01*
X192434350Y-80485437D01*
X192399760Y-80417551D01*
X192313932Y-80333017D01*
X192262694Y-80316368D01*
X192025092Y-80437433D01*
X192094272Y-80573205D01*
X192174926Y-79976291D02*
X191462121Y-80339483D01*
X191323762Y-80067938D01*
X191323116Y-79982757D01*
X191339764Y-79931519D01*
X191390355Y-79862986D01*
X191492184Y-79811102D01*
X191577365Y-79810455D01*
X191628603Y-79827103D01*
X191697136Y-79877695D01*
X191835495Y-80149239D01*
X191184110Y-79626031D02*
X191132872Y-79609383D01*
X191064339Y-79558792D01*
X190977865Y-79389076D01*
X190977218Y-79303895D01*
X190993866Y-79252657D01*
X191044458Y-79184124D01*
X191112344Y-79149534D01*
X191231468Y-79131593D01*
X191846324Y-79331372D01*
X191621490Y-78890111D01*
X194071090Y-81575570D02*
X194071737Y-81660751D01*
X194123621Y-81762581D01*
X194209449Y-81847115D01*
X194311925Y-81880412D01*
X194397106Y-81879765D01*
X194550173Y-81844529D01*
X194652003Y-81792644D01*
X194770480Y-81689521D01*
X194821071Y-81620989D01*
X194854368Y-81518513D01*
X194836426Y-81399388D01*
X194801837Y-81331502D01*
X194716009Y-81246968D01*
X194664771Y-81230320D01*
X194427169Y-81351384D01*
X194496349Y-81487156D01*
X194577003Y-80890242D02*
X193864198Y-81253434D01*
X194369465Y-80482925D01*
X193656660Y-80846117D01*
X194196516Y-80143493D02*
X193483711Y-80506686D01*
X193397236Y-80336970D01*
X193379295Y-80217846D01*
X193412591Y-80115370D01*
X193463183Y-80046837D01*
X193581660Y-79943715D01*
X193683490Y-79891830D01*
X193836557Y-79856594D01*
X193921738Y-79855947D01*
X194024214Y-79889244D01*
X194110042Y-79973778D01*
X194196516Y-80143493D01*
X167732715Y-73005555D02*
X167733361Y-73090736D01*
X167785246Y-73192566D01*
X167871074Y-73277100D01*
X167973550Y-73310397D01*
X168058731Y-73309750D01*
X168211798Y-73274514D01*
X168313627Y-73222629D01*
X168432105Y-73119506D01*
X168482696Y-73050974D01*
X168515993Y-72948498D01*
X168498051Y-72829373D01*
X168463462Y-72761487D01*
X168377634Y-72676953D01*
X168326396Y-72660304D01*
X168088794Y-72781369D01*
X168157974Y-72917141D01*
X168238628Y-72320227D02*
X167525823Y-72683419D01*
X167387464Y-72411874D01*
X167386817Y-72326693D01*
X167403466Y-72275455D01*
X167454057Y-72206922D01*
X167555886Y-72155038D01*
X167641067Y-72154391D01*
X167692305Y-72171039D01*
X167760838Y-72221631D01*
X167899197Y-72493176D01*
X167685192Y-71234047D02*
X167892731Y-71641365D01*
X167788961Y-71437706D02*
X167076156Y-71800898D01*
X167212575Y-71816900D01*
X167315051Y-71850196D01*
X167383584Y-71900788D01*
X166747553Y-71155979D02*
X166712964Y-71088093D01*
X166712317Y-71002912D01*
X166728965Y-70951674D01*
X166779557Y-70883141D01*
X166898034Y-70780019D01*
X167067750Y-70693544D01*
X167220817Y-70658308D01*
X167305998Y-70657661D01*
X167357236Y-70674309D01*
X167425769Y-70724901D01*
X167460359Y-70792787D01*
X167461005Y-70877968D01*
X167444357Y-70929206D01*
X167393766Y-70997739D01*
X167275288Y-71100862D01*
X167105573Y-71187336D01*
X166952505Y-71222572D01*
X166867324Y-71223219D01*
X166816086Y-71206571D01*
X166747553Y-71155979D01*
X145170798Y-93126320D02*
X145171444Y-93211501D01*
X145223329Y-93313331D01*
X145309157Y-93397865D01*
X145411633Y-93431162D01*
X145496814Y-93430515D01*
X145649881Y-93395279D01*
X145751710Y-93343394D01*
X145870188Y-93240271D01*
X145920779Y-93171739D01*
X145954076Y-93069263D01*
X145936134Y-92950138D01*
X145901545Y-92882252D01*
X145815717Y-92797718D01*
X145764479Y-92781069D01*
X145526877Y-92902134D01*
X145596057Y-93037906D01*
X145676711Y-92440992D02*
X144963906Y-92804184D01*
X144825547Y-92532639D01*
X144824900Y-92447458D01*
X144841549Y-92396220D01*
X144892140Y-92327687D01*
X144993969Y-92275803D01*
X145079150Y-92275156D01*
X145130388Y-92291804D01*
X145198921Y-92342396D01*
X145337280Y-92613941D01*
X145123275Y-91354812D02*
X145330814Y-91762130D01*
X145227044Y-91558471D02*
X144514239Y-91921663D01*
X144650658Y-91937665D01*
X144753134Y-91970961D01*
X144821667Y-92021553D01*
X144099162Y-91107029D02*
X144168342Y-91242801D01*
X144236874Y-91293393D01*
X144288112Y-91310041D01*
X144424532Y-91326042D01*
X144577599Y-91290806D01*
X144849144Y-91152447D01*
X144899735Y-91083914D01*
X144916383Y-91032676D01*
X144915737Y-90947495D01*
X144846557Y-90811723D01*
X144778024Y-90761131D01*
X144726786Y-90744483D01*
X144641605Y-90745130D01*
X144471890Y-90831604D01*
X144421298Y-90900137D01*
X144404650Y-90951375D01*
X144405297Y-91036556D01*
X144474476Y-91172329D01*
X144543009Y-91222920D01*
X144594247Y-91239568D01*
X144679428Y-91238921D01*
X169327634Y-100975351D02*
X169328280Y-101060532D01*
X169380165Y-101162362D01*
X169465993Y-101246896D01*
X169568469Y-101280193D01*
X169653650Y-101279546D01*
X169806717Y-101244310D01*
X169908546Y-101192425D01*
X170027024Y-101089302D01*
X170077615Y-101020770D01*
X170110912Y-100918294D01*
X170092970Y-100799169D01*
X170058381Y-100731283D01*
X169972553Y-100646749D01*
X169921315Y-100630100D01*
X169683713Y-100751165D01*
X169752893Y-100886937D01*
X169833547Y-100290023D02*
X169120742Y-100653215D01*
X168982383Y-100381670D01*
X168981736Y-100296489D01*
X168998385Y-100245251D01*
X169048976Y-100176718D01*
X169150805Y-100124834D01*
X169235986Y-100124187D01*
X169287224Y-100140835D01*
X169355757Y-100191427D01*
X169494116Y-100462972D01*
X168842731Y-99939763D02*
X168791493Y-99923115D01*
X168722960Y-99872524D01*
X168636485Y-99702808D01*
X168635839Y-99617627D01*
X168652487Y-99566389D01*
X168703078Y-99497856D01*
X168770965Y-99463267D01*
X168890089Y-99445325D01*
X169504944Y-99645104D01*
X169280111Y-99203843D01*
X168255998Y-98956060D02*
X168325178Y-99091832D01*
X168393710Y-99142424D01*
X168444948Y-99159072D01*
X168581368Y-99175073D01*
X168734435Y-99139837D01*
X169005980Y-99001478D01*
X169056571Y-98932945D01*
X169073219Y-98881707D01*
X169072573Y-98796526D01*
X169003393Y-98660754D01*
X168934860Y-98610162D01*
X168883622Y-98593514D01*
X168798441Y-98594161D01*
X168628726Y-98680635D01*
X168578134Y-98749168D01*
X168561486Y-98800406D01*
X168562133Y-98885587D01*
X168631312Y-99021360D01*
X168699845Y-99071951D01*
X168751083Y-99088599D01*
X168836264Y-99087952D01*
X171733807Y-101757164D02*
X171734453Y-101842345D01*
X171786338Y-101944175D01*
X171872166Y-102028709D01*
X171974642Y-102062006D01*
X172059823Y-102061359D01*
X172212890Y-102026123D01*
X172314719Y-101974238D01*
X172433197Y-101871115D01*
X172483788Y-101802583D01*
X172517085Y-101700107D01*
X172499143Y-101580982D01*
X172464554Y-101513096D01*
X172378726Y-101428562D01*
X172327488Y-101411913D01*
X172089886Y-101532978D01*
X172159066Y-101668750D01*
X172239720Y-101071836D02*
X171526915Y-101435028D01*
X171388556Y-101163483D01*
X171387909Y-101078302D01*
X171404558Y-101027064D01*
X171455149Y-100958531D01*
X171556978Y-100906647D01*
X171642159Y-100906000D01*
X171693397Y-100922648D01*
X171761930Y-100973240D01*
X171900289Y-101244785D01*
X171248904Y-100721576D02*
X171197666Y-100704928D01*
X171129133Y-100654337D01*
X171042658Y-100484621D01*
X171042012Y-100399440D01*
X171058660Y-100348202D01*
X171109251Y-100279669D01*
X171177138Y-100245080D01*
X171296262Y-100227138D01*
X171911117Y-100426917D01*
X171686284Y-99985656D01*
X170852415Y-100111247D02*
X170610286Y-99636044D01*
X171478746Y-99578339D01*
X186806745Y-79186918D02*
X186807392Y-79272099D01*
X186859276Y-79373929D01*
X186945104Y-79458463D01*
X187047580Y-79491760D01*
X187132761Y-79491113D01*
X187285828Y-79455877D01*
X187387658Y-79403992D01*
X187506135Y-79300869D01*
X187556727Y-79232336D01*
X187590023Y-79129860D01*
X187572082Y-79010736D01*
X187537492Y-78942850D01*
X187451664Y-78858316D01*
X187400426Y-78841667D01*
X187162824Y-78962732D01*
X187232004Y-79098504D01*
X187312658Y-78501590D02*
X186599853Y-78864782D01*
X186461494Y-78593237D01*
X186460848Y-78508056D01*
X186477496Y-78456818D01*
X186528087Y-78388285D01*
X186629916Y-78336401D01*
X186715097Y-78335754D01*
X186766335Y-78352402D01*
X186834868Y-78402994D01*
X186973227Y-78674538D01*
X186318609Y-77725425D02*
X186793812Y-77483297D01*
X186133538Y-78033499D02*
X186729159Y-77943792D01*
X186504326Y-77502531D01*
X157249216Y-97050836D02*
X157249862Y-97136017D01*
X157301747Y-97237847D01*
X157387575Y-97322381D01*
X157490051Y-97355678D01*
X157575232Y-97355031D01*
X157728299Y-97319795D01*
X157830128Y-97267910D01*
X157948606Y-97164787D01*
X157999197Y-97096255D01*
X158032494Y-96993779D01*
X158014552Y-96874654D01*
X157979963Y-96806768D01*
X157894135Y-96722234D01*
X157842897Y-96705585D01*
X157605295Y-96826650D01*
X157674475Y-96962422D01*
X157755129Y-96365508D02*
X157042324Y-96728700D01*
X156903965Y-96457155D01*
X156903318Y-96371974D01*
X156919967Y-96320736D01*
X156970558Y-96252203D01*
X157072387Y-96200319D01*
X157157568Y-96199672D01*
X157208806Y-96216320D01*
X157277339Y-96266912D01*
X157415698Y-96538457D01*
X156764313Y-96015248D02*
X156713075Y-95998600D01*
X156644542Y-95948009D01*
X156558067Y-95778293D01*
X156557421Y-95693112D01*
X156574069Y-95641874D01*
X156624660Y-95573341D01*
X156692547Y-95538752D01*
X156811671Y-95520810D01*
X157426526Y-95720589D01*
X157201693Y-95279328D01*
X156264054Y-95201260D02*
X156229465Y-95133374D01*
X156228818Y-95048193D01*
X156245466Y-94996955D01*
X156296058Y-94928422D01*
X156414535Y-94825300D01*
X156584251Y-94738825D01*
X156737318Y-94703589D01*
X156822499Y-94702942D01*
X156873737Y-94719590D01*
X156942270Y-94770182D01*
X156976860Y-94838068D01*
X156977506Y-94923249D01*
X156960858Y-94974487D01*
X156910267Y-95043020D01*
X156791789Y-95146143D01*
X156622074Y-95232617D01*
X156469006Y-95267853D01*
X156383825Y-95268500D01*
X156332587Y-95251852D01*
X156264054Y-95201260D01*
X176816253Y-103408551D02*
X176816899Y-103493732D01*
X176868784Y-103595562D01*
X176954612Y-103680096D01*
X177057088Y-103713393D01*
X177142269Y-103712746D01*
X177295336Y-103677510D01*
X177397165Y-103625625D01*
X177515643Y-103522502D01*
X177566234Y-103453970D01*
X177599531Y-103351494D01*
X177581589Y-103232369D01*
X177547000Y-103164483D01*
X177461172Y-103079949D01*
X177409934Y-103063300D01*
X177172332Y-103184365D01*
X177241512Y-103320137D01*
X177322166Y-102723223D02*
X176609361Y-103086415D01*
X176471002Y-102814870D01*
X176470355Y-102729689D01*
X176487004Y-102678451D01*
X176537595Y-102609918D01*
X176639424Y-102558034D01*
X176724605Y-102557387D01*
X176775843Y-102574035D01*
X176844376Y-102624627D01*
X176982735Y-102896172D01*
X176331350Y-102372963D02*
X176280112Y-102356315D01*
X176211579Y-102305724D01*
X176125104Y-102136008D01*
X176124458Y-102050827D01*
X176141106Y-101999589D01*
X176191697Y-101931056D01*
X176259584Y-101896467D01*
X176378708Y-101878525D01*
X176993563Y-102078304D01*
X176768730Y-101637043D01*
X176153874Y-101437265D02*
X176154521Y-101522446D01*
X176137873Y-101573684D01*
X176087281Y-101642217D01*
X176053338Y-101659511D01*
X175968157Y-101660158D01*
X175916919Y-101643510D01*
X175848386Y-101592919D01*
X175779207Y-101457146D01*
X175778560Y-101371965D01*
X175795208Y-101320727D01*
X175845800Y-101252194D01*
X175879743Y-101234899D01*
X175964924Y-101234253D01*
X176016162Y-101250901D01*
X176084695Y-101301492D01*
X176153874Y-101437265D01*
X176222407Y-101487856D01*
X176273645Y-101504504D01*
X176358826Y-101503858D01*
X176494599Y-101434678D01*
X176545190Y-101366145D01*
X176561838Y-101314907D01*
X176561192Y-101229726D01*
X176492012Y-101093954D01*
X176423479Y-101043362D01*
X176372241Y-101026714D01*
X176287060Y-101027361D01*
X176151288Y-101096540D01*
X176100696Y-101165073D01*
X176084048Y-101216311D01*
X176084695Y-101301492D01*
X155668512Y-69037291D02*
X155669158Y-69122472D01*
X155721043Y-69224302D01*
X155806871Y-69308836D01*
X155909347Y-69342133D01*
X155994528Y-69341486D01*
X156147595Y-69306250D01*
X156249424Y-69254365D01*
X156367902Y-69151242D01*
X156418493Y-69082710D01*
X156451790Y-68980234D01*
X156433848Y-68861109D01*
X156399259Y-68793223D01*
X156313431Y-68708689D01*
X156262193Y-68692040D01*
X156024591Y-68813105D01*
X156093771Y-68948877D01*
X156174425Y-68351963D02*
X155461620Y-68715155D01*
X155323261Y-68443610D01*
X155322614Y-68358429D01*
X155339263Y-68307191D01*
X155389854Y-68238658D01*
X155491683Y-68186774D01*
X155576864Y-68186127D01*
X155628102Y-68202775D01*
X155696635Y-68253367D01*
X155834994Y-68524912D01*
X155620989Y-67265783D02*
X155828528Y-67673101D01*
X155724758Y-67469442D02*
X155011953Y-67832634D01*
X155148372Y-67848636D01*
X155250848Y-67881932D01*
X155319381Y-67932524D01*
X154834478Y-66896936D02*
X155309681Y-66654807D01*
X154649407Y-67205010D02*
X155245028Y-67115303D01*
X155020195Y-66674042D01*
X145213658Y-86079635D02*
X145285205Y-85982715D01*
X145344066Y-85801562D01*
X145331379Y-85717328D01*
X145306920Y-85669325D01*
X145246231Y-85609550D01*
X145173770Y-85586006D01*
X145089536Y-85598693D01*
X145041533Y-85623152D01*
X144981758Y-85683841D01*
X144898439Y-85816992D01*
X144838664Y-85877681D01*
X144790662Y-85902140D01*
X144706428Y-85914826D01*
X144633967Y-85891282D01*
X144573277Y-85831507D01*
X144548819Y-85783504D01*
X144536132Y-85699271D01*
X144594992Y-85518117D01*
X144666539Y-85421197D01*
X144712713Y-85155810D02*
X145532419Y-85221870D01*
X145036046Y-84900366D01*
X145626595Y-84932024D01*
X144924611Y-84503657D01*
X145779632Y-84461025D02*
X145018787Y-84213811D01*
X145077648Y-84032658D01*
X145149195Y-83935738D01*
X145245200Y-83886820D01*
X145329434Y-83874134D01*
X145486129Y-83884991D01*
X145594821Y-83920307D01*
X145727972Y-84003627D01*
X145788661Y-84063401D01*
X145837578Y-84159407D01*
X145838493Y-84279871D01*
X145779632Y-84461025D01*
X146026846Y-83700180D02*
X145266001Y-83452966D01*
X145430810Y-82945736D02*
X145477898Y-82800813D01*
X145537673Y-82740124D01*
X145633679Y-82691206D01*
X145790374Y-82702064D01*
X146043989Y-82784468D01*
X146177140Y-82867787D01*
X146226057Y-82963793D01*
X146238743Y-83048027D01*
X146191655Y-83192950D01*
X146131880Y-83253639D01*
X146035875Y-83302556D01*
X145879180Y-83291699D01*
X145625565Y-83209294D01*
X145492414Y-83125975D01*
X145443496Y-83029969D01*
X145430810Y-82945736D01*
X164496267Y-99405546D02*
X164496913Y-99490727D01*
X164548798Y-99592557D01*
X164634626Y-99677091D01*
X164737102Y-99710388D01*
X164822283Y-99709741D01*
X164975350Y-99674505D01*
X165077179Y-99622620D01*
X165195657Y-99519497D01*
X165246248Y-99450965D01*
X165279545Y-99348489D01*
X165261603Y-99229364D01*
X165227014Y-99161478D01*
X165141186Y-99076944D01*
X165089948Y-99060295D01*
X164852346Y-99181360D01*
X164921526Y-99317132D01*
X165002180Y-98720218D02*
X164289375Y-99083410D01*
X164151016Y-98811865D01*
X164150369Y-98726684D01*
X164167018Y-98675446D01*
X164217609Y-98606913D01*
X164319438Y-98555029D01*
X164404619Y-98554382D01*
X164455857Y-98571030D01*
X164524390Y-98621622D01*
X164662749Y-98893167D01*
X164011364Y-98369958D02*
X163960126Y-98353310D01*
X163891593Y-98302719D01*
X163805118Y-98133003D01*
X163804472Y-98047822D01*
X163821120Y-97996584D01*
X163871711Y-97928051D01*
X163939598Y-97893462D01*
X164058722Y-97875520D01*
X164673577Y-98075299D01*
X164448744Y-97634038D01*
X163665466Y-97691096D02*
X163614228Y-97674448D01*
X163545695Y-97623857D01*
X163459221Y-97454141D01*
X163458574Y-97368960D01*
X163475222Y-97317722D01*
X163525814Y-97249189D01*
X163593700Y-97214599D01*
X163712824Y-97196658D01*
X164327680Y-97396437D01*
X164102847Y-96955176D01*
X191258880Y-108770598D02*
X191850621Y-108169804D01*
X191016751Y-108295395D01*
X191114054Y-107647242D02*
X191096113Y-107528118D01*
X191112761Y-107476880D01*
X191163352Y-107408347D01*
X191265181Y-107356463D01*
X191350362Y-107355816D01*
X191401600Y-107372464D01*
X191470133Y-107423056D01*
X191608492Y-107694601D01*
X190895687Y-108057793D01*
X190774623Y-107820191D01*
X190773976Y-107735010D01*
X190790625Y-107683772D01*
X190841216Y-107615239D01*
X190909102Y-107580650D01*
X190994283Y-107580003D01*
X191045521Y-107596651D01*
X191114054Y-107647242D01*
X191235118Y-107884844D01*
X190532495Y-107344988D02*
X191109528Y-107050975D01*
X191160119Y-106982442D01*
X191176767Y-106931204D01*
X191176120Y-106846023D01*
X191106941Y-106710250D01*
X191038408Y-106659659D01*
X190987170Y-106643011D01*
X190901989Y-106643658D01*
X190324956Y-106937670D01*
X190848164Y-106286285D02*
X190830223Y-106167161D01*
X190743749Y-105997445D01*
X190675216Y-105946854D01*
X190623978Y-105930206D01*
X190538797Y-105930852D01*
X190470910Y-105965442D01*
X190420319Y-106033975D01*
X190403671Y-106085213D01*
X190404317Y-106170394D01*
X190439554Y-106323461D01*
X190440201Y-106408642D01*
X190423552Y-106459880D01*
X190372961Y-106528413D01*
X190305075Y-106563003D01*
X190219894Y-106563650D01*
X190168656Y-106547001D01*
X190100123Y-106496410D01*
X190013648Y-106326695D01*
X189995707Y-106207570D01*
X147586482Y-93911223D02*
X147587128Y-93996404D01*
X147639013Y-94098234D01*
X147724841Y-94182768D01*
X147827317Y-94216065D01*
X147912498Y-94215418D01*
X148065565Y-94180182D01*
X148167394Y-94128297D01*
X148285872Y-94025174D01*
X148336463Y-93956642D01*
X148369760Y-93854166D01*
X148351818Y-93735041D01*
X148317229Y-93667155D01*
X148231401Y-93582621D01*
X148180163Y-93565972D01*
X147942561Y-93687037D01*
X148011741Y-93822809D01*
X148092395Y-93225895D02*
X147379590Y-93589087D01*
X147241231Y-93317542D01*
X147240584Y-93232361D01*
X147257233Y-93181123D01*
X147307824Y-93112590D01*
X147409653Y-93060706D01*
X147494834Y-93060059D01*
X147546072Y-93076707D01*
X147614605Y-93127299D01*
X147752964Y-93398844D01*
X147538959Y-92139715D02*
X147746498Y-92547033D01*
X147642728Y-92343374D02*
X146929923Y-92706566D01*
X147066342Y-92722568D01*
X147168818Y-92755864D01*
X147237351Y-92806456D01*
X146705090Y-92265306D02*
X146462961Y-91790103D01*
X147331421Y-91732398D01*
X177141640Y-76151681D02*
X177142287Y-76236862D01*
X177194171Y-76338692D01*
X177279999Y-76423226D01*
X177382475Y-76456523D01*
X177467656Y-76455876D01*
X177620723Y-76420640D01*
X177722553Y-76368755D01*
X177841030Y-76265632D01*
X177891622Y-76197099D01*
X177924918Y-76094623D01*
X177906977Y-75975499D01*
X177872387Y-75907613D01*
X177786559Y-75823079D01*
X177735321Y-75806430D01*
X177497719Y-75927495D01*
X177566899Y-76063267D01*
X177647553Y-75466353D02*
X176934748Y-75829545D01*
X176796389Y-75558000D01*
X176795743Y-75472819D01*
X176812391Y-75421581D01*
X176862982Y-75353048D01*
X176964811Y-75301164D01*
X177049992Y-75300517D01*
X177101230Y-75317165D01*
X177169763Y-75367757D01*
X177308122Y-75639301D01*
X176606146Y-75184626D02*
X176364017Y-74709423D01*
X177232476Y-74651718D01*
X162003420Y-98073585D02*
X162004067Y-98158766D01*
X162055951Y-98260596D01*
X162141779Y-98345130D01*
X162244255Y-98378427D01*
X162329436Y-98377780D01*
X162482503Y-98342544D01*
X162584333Y-98290659D01*
X162702810Y-98187536D01*
X162753401Y-98119004D01*
X162786698Y-98016528D01*
X162768756Y-97897403D01*
X162734167Y-97829517D01*
X162648339Y-97744983D01*
X162597101Y-97728335D01*
X162359499Y-97849399D01*
X162428679Y-97985171D01*
X162509333Y-97388257D02*
X161796528Y-97751449D01*
X162301795Y-96980940D01*
X161588990Y-97344132D01*
X162128846Y-96641508D02*
X161416041Y-97004701D01*
X161329566Y-96834985D01*
X161311625Y-96715861D01*
X161344921Y-96613385D01*
X161395513Y-96544852D01*
X161513990Y-96441730D01*
X161615820Y-96389845D01*
X161768887Y-96354609D01*
X161854068Y-96353962D01*
X161956544Y-96387259D01*
X162042372Y-96471793D01*
X162128846Y-96641508D01*
X186160255Y-105922617D02*
X186160902Y-106007798D01*
X186212786Y-106109628D01*
X186298614Y-106194162D01*
X186401090Y-106227459D01*
X186486271Y-106226812D01*
X186639338Y-106191576D01*
X186741168Y-106139691D01*
X186859645Y-106036568D01*
X186910236Y-105968036D01*
X186943533Y-105865560D01*
X186925591Y-105746435D01*
X186891002Y-105678549D01*
X186805174Y-105594015D01*
X186753936Y-105577367D01*
X186516334Y-105698431D01*
X186585514Y-105834203D01*
X186666168Y-105237289D02*
X185953363Y-105600481D01*
X186458630Y-104829972D01*
X185745825Y-105193164D01*
X186285681Y-104490540D02*
X185572876Y-104853733D01*
X185486401Y-104684017D01*
X185468460Y-104564893D01*
X185501756Y-104462417D01*
X185552348Y-104393884D01*
X185670825Y-104290762D01*
X185772655Y-104238877D01*
X185925722Y-104203641D01*
X186010903Y-104202994D01*
X186113379Y-104236291D01*
X186199207Y-104320825D01*
X186285681Y-104490540D01*
X153238614Y-68296136D02*
X153239260Y-68381317D01*
X153291145Y-68483147D01*
X153376973Y-68567681D01*
X153479449Y-68600978D01*
X153564630Y-68600331D01*
X153717697Y-68565095D01*
X153819526Y-68513210D01*
X153938004Y-68410087D01*
X153988595Y-68341555D01*
X154021892Y-68239079D01*
X154003950Y-68119954D01*
X153969361Y-68052068D01*
X153883533Y-67967534D01*
X153832295Y-67950885D01*
X153594693Y-68071950D01*
X153663873Y-68207722D01*
X153744527Y-67610808D02*
X153031722Y-67974000D01*
X152893363Y-67702455D01*
X152892716Y-67617274D01*
X152909365Y-67566036D01*
X152959956Y-67497503D01*
X153061785Y-67445619D01*
X153146966Y-67444972D01*
X153198204Y-67461620D01*
X153266737Y-67512212D01*
X153405096Y-67783757D01*
X153191091Y-66524628D02*
X153398630Y-66931946D01*
X153294860Y-66728287D02*
X152582055Y-67091479D01*
X152718474Y-67107481D01*
X152820950Y-67140777D01*
X152889483Y-67191369D01*
X152149683Y-66242902D02*
X152322632Y-66582333D01*
X152679358Y-66443327D01*
X152628120Y-66426679D01*
X152559587Y-66376088D01*
X152473113Y-66206372D01*
X152472466Y-66121191D01*
X152489114Y-66069953D01*
X152539706Y-66001420D01*
X152709421Y-65914946D01*
X152794602Y-65914299D01*
X152845840Y-65930947D01*
X152914373Y-65981539D01*
X153000847Y-66151254D01*
X153001494Y-66236435D01*
X152984846Y-66287673D01*
X157835837Y-69802023D02*
X157836484Y-69887204D01*
X157888368Y-69989034D01*
X157974196Y-70073568D01*
X158076672Y-70106865D01*
X158161853Y-70106218D01*
X158314920Y-70070982D01*
X158416750Y-70019097D01*
X158535227Y-69915974D01*
X158585818Y-69847442D01*
X158619115Y-69744966D01*
X158601173Y-69625841D01*
X158566584Y-69557955D01*
X158480756Y-69473421D01*
X158429518Y-69456773D01*
X158191916Y-69577837D01*
X158261096Y-69713609D01*
X158341750Y-69116695D02*
X157628945Y-69479887D01*
X158134212Y-68709378D01*
X157421407Y-69072570D01*
X157961263Y-68369946D02*
X157248458Y-68733139D01*
X157161983Y-68563423D01*
X157144042Y-68444299D01*
X157177338Y-68341823D01*
X157227930Y-68273290D01*
X157346407Y-68170168D01*
X157448237Y-68118283D01*
X157601304Y-68083047D01*
X157686485Y-68082400D01*
X157788961Y-68115697D01*
X157874789Y-68200231D01*
X157961263Y-68369946D01*
X162946465Y-71296895D02*
X162947111Y-71382076D01*
X162998996Y-71483906D01*
X163084824Y-71568440D01*
X163187300Y-71601737D01*
X163272481Y-71601090D01*
X163425548Y-71565854D01*
X163527377Y-71513969D01*
X163645855Y-71410846D01*
X163696446Y-71342314D01*
X163729743Y-71239838D01*
X163711801Y-71120713D01*
X163677212Y-71052827D01*
X163591384Y-70968293D01*
X163540146Y-70951644D01*
X163302544Y-71072709D01*
X163371724Y-71208481D01*
X163452378Y-70611567D02*
X162739573Y-70974759D01*
X162601214Y-70703214D01*
X162600567Y-70618033D01*
X162617216Y-70566795D01*
X162667807Y-70498262D01*
X162769636Y-70446378D01*
X162854817Y-70445731D01*
X162906055Y-70462379D01*
X162974588Y-70512971D01*
X163112947Y-70784516D01*
X162898942Y-69525387D02*
X163106481Y-69932705D01*
X163002711Y-69729046D02*
X162289906Y-70092238D01*
X162426325Y-70108240D01*
X162528801Y-70141536D01*
X162597334Y-70192128D01*
X162115664Y-69582445D02*
X162064426Y-69565797D01*
X161995893Y-69515206D01*
X161909419Y-69345490D01*
X161908772Y-69260309D01*
X161925420Y-69209071D01*
X161976012Y-69140538D01*
X162043898Y-69105948D01*
X162163022Y-69088007D01*
X162777878Y-69287786D01*
X162553045Y-68846525D01*
X184391061Y-78402015D02*
X184391708Y-78487196D01*
X184443592Y-78589026D01*
X184529420Y-78673560D01*
X184631896Y-78706857D01*
X184717077Y-78706210D01*
X184870144Y-78670974D01*
X184971974Y-78619089D01*
X185090451Y-78515966D01*
X185141043Y-78447433D01*
X185174339Y-78344957D01*
X185156398Y-78225833D01*
X185121808Y-78157947D01*
X185035980Y-78073413D01*
X184984742Y-78056764D01*
X184747140Y-78177829D01*
X184816320Y-78313601D01*
X184896974Y-77716687D02*
X184184169Y-78079879D01*
X184045810Y-77808334D01*
X184045164Y-77723153D01*
X184061812Y-77671915D01*
X184112403Y-77603382D01*
X184214232Y-77551498D01*
X184299413Y-77550851D01*
X184350651Y-77567499D01*
X184419184Y-77618091D01*
X184557543Y-77889635D01*
X183648028Y-77027643D02*
X183820977Y-77367074D01*
X184177703Y-77228068D01*
X184126465Y-77211420D01*
X184057932Y-77160829D01*
X183971457Y-76991113D01*
X183970811Y-76905932D01*
X183987459Y-76854694D01*
X184038050Y-76786161D01*
X184207766Y-76699687D01*
X184292947Y-76699040D01*
X184344185Y-76715688D01*
X184412718Y-76766280D01*
X184499192Y-76935995D01*
X184499839Y-77021176D01*
X184483191Y-77072414D01*
X169914254Y-73726540D02*
X169914901Y-73811721D01*
X169966785Y-73913551D01*
X170052613Y-73998085D01*
X170155089Y-74031382D01*
X170240270Y-74030735D01*
X170393337Y-73995499D01*
X170495167Y-73943614D01*
X170613644Y-73840491D01*
X170664235Y-73771959D01*
X170697532Y-73669483D01*
X170679590Y-73550358D01*
X170645001Y-73482472D01*
X170559173Y-73397938D01*
X170507935Y-73381290D01*
X170270333Y-73502354D01*
X170339513Y-73638126D01*
X170420167Y-73041212D02*
X169707362Y-73404404D01*
X170212629Y-72633895D01*
X169499824Y-72997087D01*
X170039680Y-72294463D02*
X169326875Y-72657656D01*
X169240400Y-72487940D01*
X169222459Y-72368816D01*
X169255755Y-72266340D01*
X169306347Y-72197807D01*
X169424824Y-72094685D01*
X169526654Y-72042800D01*
X169679721Y-72007564D01*
X169764902Y-72006917D01*
X169867378Y-72040214D01*
X169953206Y-72124748D01*
X170039680Y-72294463D01*
X179559694Y-76832208D02*
X179560341Y-76917389D01*
X179612225Y-77019219D01*
X179698053Y-77103753D01*
X179800529Y-77137050D01*
X179885710Y-77136403D01*
X180038777Y-77101167D01*
X180140607Y-77049282D01*
X180259084Y-76946159D01*
X180309676Y-76877626D01*
X180342972Y-76775150D01*
X180325031Y-76656026D01*
X180290441Y-76588140D01*
X180204613Y-76503606D01*
X180153375Y-76486957D01*
X179915773Y-76608022D01*
X179984953Y-76743794D01*
X180065607Y-76146880D02*
X179352802Y-76510072D01*
X179214443Y-76238527D01*
X179213797Y-76153346D01*
X179230445Y-76102108D01*
X179281036Y-76033575D01*
X179382865Y-75981691D01*
X179468046Y-75981044D01*
X179519284Y-75997692D01*
X179587817Y-76048284D01*
X179726176Y-76319828D01*
X178833956Y-75491779D02*
X178903135Y-75627551D01*
X178971668Y-75678143D01*
X179022906Y-75694791D01*
X179159325Y-75710793D01*
X179312393Y-75675556D01*
X179583937Y-75537197D01*
X179634529Y-75468664D01*
X179651177Y-75417426D01*
X179650530Y-75332245D01*
X179581351Y-75196473D01*
X179512818Y-75145881D01*
X179461580Y-75129233D01*
X179376399Y-75129880D01*
X179206683Y-75216354D01*
X179156092Y-75284887D01*
X179139444Y-75336125D01*
X179140090Y-75421306D01*
X179209270Y-75557079D01*
X179277803Y-75607670D01*
X179329041Y-75624318D01*
X179414222Y-75623671D01*
X174728327Y-75262402D02*
X174728974Y-75347583D01*
X174780858Y-75449413D01*
X174866686Y-75533947D01*
X174969162Y-75567244D01*
X175054343Y-75566597D01*
X175207410Y-75531361D01*
X175309240Y-75479476D01*
X175427717Y-75376353D01*
X175478309Y-75307820D01*
X175511605Y-75205344D01*
X175493664Y-75086220D01*
X175459074Y-75018334D01*
X175373246Y-74933800D01*
X175322008Y-74917151D01*
X175084406Y-75038216D01*
X175153586Y-75173988D01*
X175234240Y-74577074D02*
X174521435Y-74940266D01*
X174383076Y-74668721D01*
X174382430Y-74583540D01*
X174399078Y-74532302D01*
X174449669Y-74463769D01*
X174551498Y-74411885D01*
X174636679Y-74411238D01*
X174687917Y-74427886D01*
X174756450Y-74478478D01*
X174894809Y-74750022D01*
X174411846Y-73969978D02*
X174412493Y-74055159D01*
X174395845Y-74106397D01*
X174345253Y-74174930D01*
X174311310Y-74192224D01*
X174226129Y-74192871D01*
X174174891Y-74176223D01*
X174106358Y-74125632D01*
X174037179Y-73989859D01*
X174036532Y-73904678D01*
X174053180Y-73853440D01*
X174103772Y-73784907D01*
X174137715Y-73767612D01*
X174222896Y-73766966D01*
X174274134Y-73783614D01*
X174342667Y-73834205D01*
X174411846Y-73969978D01*
X174480379Y-74020569D01*
X174531617Y-74037217D01*
X174616798Y-74036571D01*
X174752570Y-73967391D01*
X174803162Y-73898858D01*
X174819810Y-73847620D01*
X174819163Y-73762439D01*
X174749984Y-73626667D01*
X174681451Y-73576075D01*
X174630213Y-73559427D01*
X174545032Y-73560074D01*
X174409260Y-73629253D01*
X174358668Y-73697786D01*
X174342020Y-73749024D01*
X174342667Y-73834205D01*
X148670234Y-75441390D02*
X148741781Y-75344469D01*
X148800641Y-75163316D01*
X148787955Y-75079082D01*
X148763496Y-75031080D01*
X148702807Y-74971305D01*
X148630345Y-74947760D01*
X148546112Y-74960447D01*
X148498109Y-74984906D01*
X148438334Y-75045595D01*
X148355015Y-75178746D01*
X148295240Y-75239435D01*
X148247237Y-75263894D01*
X148163004Y-75276580D01*
X148090542Y-75253036D01*
X148029853Y-75193261D01*
X148005394Y-75145259D01*
X147992708Y-75061025D01*
X148051568Y-74879872D01*
X148123115Y-74782951D01*
X148169289Y-74517564D02*
X148988995Y-74583624D01*
X148492622Y-74262120D01*
X149083171Y-74293778D01*
X148381186Y-73865411D01*
X149305012Y-73364466D02*
X149329470Y-73412469D01*
X149330385Y-73532933D01*
X149306841Y-73605395D01*
X149235294Y-73702315D01*
X149139288Y-73751232D01*
X149055055Y-73763919D01*
X148898360Y-73753061D01*
X148789667Y-73717745D01*
X148656517Y-73634426D01*
X148595827Y-73574651D01*
X148546910Y-73478645D01*
X148545995Y-73358181D01*
X148569540Y-73285720D01*
X148641087Y-73188800D01*
X148689089Y-73164341D01*
X149601143Y-72699627D02*
X149483422Y-73061934D01*
X148722577Y-72814720D01*
X149683547Y-72446012D02*
X148922702Y-72198798D01*
X149824812Y-72011243D02*
X149284095Y-72196054D01*
X149063967Y-71764029D02*
X149357471Y-72340063D01*
X159655389Y-97832649D02*
X159656035Y-97917830D01*
X159707920Y-98019660D01*
X159793748Y-98104194D01*
X159896224Y-98137491D01*
X159981405Y-98136844D01*
X160134472Y-98101608D01*
X160236301Y-98049723D01*
X160354779Y-97946600D01*
X160405370Y-97878068D01*
X160438667Y-97775592D01*
X160420725Y-97656467D01*
X160386136Y-97588581D01*
X160300308Y-97504047D01*
X160249070Y-97487398D01*
X160011468Y-97608463D01*
X160080648Y-97744235D01*
X160161302Y-97147321D02*
X159448497Y-97510513D01*
X159310138Y-97238968D01*
X159309491Y-97153787D01*
X159326140Y-97102549D01*
X159376731Y-97034016D01*
X159478560Y-96982132D01*
X159563741Y-96981485D01*
X159614979Y-96998133D01*
X159683512Y-97048725D01*
X159821871Y-97320270D01*
X159170486Y-96797061D02*
X159119248Y-96780413D01*
X159050715Y-96729822D01*
X158964240Y-96560106D01*
X158963594Y-96474925D01*
X158980242Y-96423687D01*
X159030833Y-96355154D01*
X159098720Y-96320565D01*
X159217844Y-96302623D01*
X159832699Y-96502402D01*
X159607866Y-96061141D01*
X159261969Y-95382279D02*
X159469507Y-95789597D01*
X159365738Y-95585938D02*
X158652933Y-95949130D01*
X158789352Y-95965132D01*
X158891828Y-95998428D01*
X158960361Y-96049020D01*
%TO.C,U3*%
X149907390Y-43428258D02*
X150157547Y-42658355D01*
X150141689Y-42553063D01*
X150111115Y-42493059D01*
X150035254Y-42418341D01*
X149854100Y-42359480D01*
X149748808Y-42375339D01*
X149688805Y-42405912D01*
X149614086Y-42481774D01*
X149363930Y-43251677D01*
X149001622Y-43133956D02*
X148412873Y-42942660D01*
X148847613Y-42683358D01*
X148711747Y-42639213D01*
X148635886Y-42564494D01*
X148605312Y-42504491D01*
X148589454Y-42399199D01*
X148663030Y-42172757D01*
X148737748Y-42096895D01*
X148797752Y-42066322D01*
X148903044Y-42050463D01*
X149174774Y-42138754D01*
X149250636Y-42213473D01*
X149281209Y-42273476D01*
X173990283Y-49999907D02*
X174443167Y-50147058D01*
X174134150Y-51098114D01*
X173673264Y-49896901D02*
X173364247Y-50847958D01*
X173267954Y-50065626D01*
X172730209Y-50641946D01*
X173039226Y-49690890D01*
X172352044Y-50418934D02*
X172292040Y-50449507D01*
X172186748Y-50465365D01*
X171960306Y-50391790D01*
X171884445Y-50317071D01*
X171853871Y-50257068D01*
X171838013Y-50151776D01*
X171867443Y-50061199D01*
X171956877Y-49940049D01*
X172676919Y-49573169D01*
X172088170Y-49381873D01*
X170918673Y-50053343D02*
X171371557Y-50200494D01*
X171563996Y-49762325D01*
X171503993Y-49792898D01*
X171398701Y-49808756D01*
X171172259Y-49735181D01*
X171096397Y-49660462D01*
X171065824Y-49600459D01*
X171049966Y-49495167D01*
X171123541Y-49268725D01*
X171198260Y-49192863D01*
X171258263Y-49162290D01*
X171363555Y-49146431D01*
X171589997Y-49220007D01*
X171665859Y-49294725D01*
X171696432Y-49354729D01*
X170729518Y-48940420D02*
X170548364Y-48881560D01*
X170443072Y-48897418D01*
X170383068Y-48927991D01*
X170248346Y-49034426D01*
X170144198Y-49200865D01*
X170026477Y-49563172D01*
X170042335Y-49668464D01*
X170072908Y-49728467D01*
X170148770Y-49803186D01*
X170329924Y-49862046D01*
X170435216Y-49846188D01*
X170495219Y-49815615D01*
X170569938Y-49739753D01*
X170643513Y-49513311D01*
X170627655Y-49408019D01*
X170597082Y-49348016D01*
X170521220Y-49273297D01*
X170340066Y-49214437D01*
X170234774Y-49230295D01*
X170174771Y-49260868D01*
X170100052Y-49336730D01*
X169152425Y-49479454D02*
X169333579Y-49538314D01*
X169438871Y-49522456D01*
X169498874Y-49491883D01*
X169633596Y-49385448D01*
X169737745Y-49219009D01*
X169855466Y-48856702D01*
X169839608Y-48751410D01*
X169809034Y-48691407D01*
X169733173Y-48616688D01*
X169552019Y-48557828D01*
X169446727Y-48573686D01*
X169386724Y-48604259D01*
X169312005Y-48680121D01*
X169238429Y-48906563D01*
X169254288Y-49011855D01*
X169284861Y-49071858D01*
X169360723Y-49146577D01*
X169541876Y-49205437D01*
X169647168Y-49189579D01*
X169707172Y-49159006D01*
X169781890Y-49083144D01*
X168269229Y-48191093D02*
X168148078Y-48101660D01*
X167921636Y-48028084D01*
X167816344Y-48043942D01*
X167756341Y-48074516D01*
X167681622Y-48150377D01*
X167652192Y-48240954D01*
X167668050Y-48346246D01*
X167698624Y-48406250D01*
X167774485Y-48480968D01*
X167940924Y-48585117D01*
X168016786Y-48659836D01*
X168047359Y-48719839D01*
X168063217Y-48825131D01*
X168033787Y-48915708D01*
X167959068Y-48991570D01*
X167899065Y-49022143D01*
X167793773Y-49038001D01*
X167567331Y-48964426D01*
X167446181Y-48874992D01*
X167262741Y-48514971D02*
X166900434Y-48397250D01*
X167023870Y-48787844D02*
X167288742Y-47972653D01*
X167272884Y-47867361D01*
X167197022Y-47792643D01*
X167106445Y-47763212D01*
X166412404Y-47587774D02*
X166517696Y-47571916D01*
X166698849Y-47630777D01*
X166774711Y-47705495D01*
X166790569Y-47810787D01*
X166672849Y-48173094D01*
X166598130Y-48248956D01*
X166492838Y-48264814D01*
X166311684Y-48205954D01*
X166235823Y-48131235D01*
X166219965Y-48025943D01*
X166249395Y-47935367D01*
X166731709Y-47991941D01*
X165768224Y-48029373D02*
X166077241Y-47078316D01*
X165782939Y-47984084D02*
X165677647Y-47999943D01*
X165496493Y-47941082D01*
X165420631Y-47866364D01*
X165390058Y-47806360D01*
X165374200Y-47701068D01*
X165462490Y-47429338D01*
X165537209Y-47353476D01*
X165597213Y-47322903D01*
X165702504Y-47307045D01*
X165883658Y-47365905D01*
X165959520Y-47440624D01*
X165113755Y-47115748D02*
X164804738Y-48066805D01*
X164578296Y-47993229D01*
X164457146Y-47903796D01*
X164395999Y-47783789D01*
X164380141Y-47678497D01*
X164393713Y-47482628D01*
X164437859Y-47346763D01*
X164542007Y-47180324D01*
X164616726Y-47104463D01*
X164736733Y-47043316D01*
X164887313Y-47042173D01*
X165113755Y-47115748D01*
X164026833Y-46762586D02*
X164102695Y-46837305D01*
X164133269Y-46897308D01*
X164149127Y-47002600D01*
X164060836Y-47274330D01*
X163986118Y-47350192D01*
X163926114Y-47380766D01*
X163820822Y-47396624D01*
X163684957Y-47352478D01*
X163609095Y-47277760D01*
X163578522Y-47217756D01*
X163562664Y-47112464D01*
X163650954Y-46840734D01*
X163725673Y-46764872D01*
X163785676Y-46734299D01*
X163890968Y-46718441D01*
X164026833Y-46762586D01*
X163186784Y-47190612D02*
X163211642Y-46497714D01*
X162883338Y-46891738D01*
X162849335Y-46379994D01*
X162462170Y-46955171D01*
X162099863Y-46837450D02*
X162305874Y-46203412D01*
X162129293Y-46746873D02*
X162069289Y-46777447D01*
X161963998Y-46793305D01*
X161828132Y-46749160D01*
X161752271Y-46674441D01*
X161736412Y-46569149D01*
X161898278Y-46070977D01*
X160241895Y-46083551D02*
X160120745Y-45994117D01*
X160090172Y-45934114D01*
X160074313Y-45828822D01*
X160118459Y-45692957D01*
X160193177Y-45617095D01*
X160253181Y-45586522D01*
X160358473Y-45570663D01*
X160720780Y-45688384D01*
X160411763Y-46639441D01*
X160094744Y-46536435D01*
X160018882Y-46461716D01*
X159988309Y-46401713D01*
X159972451Y-46296421D01*
X160001881Y-46205844D01*
X160076600Y-46129982D01*
X160136603Y-46099409D01*
X160241895Y-46083551D01*
X160558914Y-46186557D01*
X159633858Y-45335222D02*
X159709720Y-45409940D01*
X159740293Y-45469944D01*
X159756151Y-45575236D01*
X159667861Y-45846966D01*
X159593142Y-45922828D01*
X159533139Y-45953401D01*
X159427847Y-45969260D01*
X159291982Y-45925114D01*
X159216120Y-45850396D01*
X159185547Y-45790392D01*
X159169688Y-45685100D01*
X159257979Y-45413370D01*
X159332698Y-45337508D01*
X159392701Y-45306935D01*
X159497993Y-45291077D01*
X159633858Y-45335222D01*
X158501648Y-44967344D02*
X158339782Y-45465517D01*
X158355640Y-45570809D01*
X158431502Y-45645527D01*
X158612656Y-45704388D01*
X158717947Y-45688530D01*
X158486933Y-45012633D02*
X158592225Y-44996775D01*
X158818667Y-45070350D01*
X158894529Y-45145069D01*
X158910387Y-45250361D01*
X158880957Y-45340937D01*
X158806238Y-45416799D01*
X158700946Y-45432657D01*
X158474504Y-45359082D01*
X158369212Y-45374940D01*
X158048764Y-44820194D02*
X157842753Y-45454231D01*
X157901613Y-45273078D02*
X157826894Y-45348939D01*
X157766891Y-45379513D01*
X157661599Y-45395371D01*
X157571022Y-45365941D01*
X157052419Y-44496461D02*
X156743402Y-45447518D01*
X157037704Y-44541750D02*
X157142996Y-44525892D01*
X157324149Y-44584752D01*
X157400011Y-44659471D01*
X157430584Y-44719474D01*
X157446443Y-44824766D01*
X157358152Y-45096496D01*
X157283434Y-45172358D01*
X157223430Y-45202931D01*
X157118138Y-45218790D01*
X156936985Y-45159929D01*
X156861123Y-45085211D01*
%TO.C,J2*%
X180749300Y-72710735D02*
X180970026Y-72031409D01*
X181059460Y-71910259D01*
X181179467Y-71849112D01*
X181330047Y-71847969D01*
X181420624Y-71877399D01*
X180371134Y-72487722D02*
X180311131Y-72518295D01*
X180205839Y-72534154D01*
X179979397Y-72460578D01*
X179903535Y-72385860D01*
X179872962Y-72325856D01*
X179857104Y-72220564D01*
X179886534Y-72129987D01*
X179975967Y-72008837D01*
X180696009Y-71641958D01*
X180107260Y-71450661D01*
X188400541Y-58562641D02*
X188853426Y-58709792D01*
X188544409Y-59660849D01*
X187921657Y-58957808D02*
X187604638Y-58854802D01*
X187630639Y-58312484D02*
X188083523Y-58459635D01*
X187774506Y-59410692D01*
X187321622Y-59263541D01*
X187223043Y-58180049D02*
X186914026Y-59131105D01*
X186687584Y-59057530D01*
X186566434Y-58968096D01*
X186505287Y-58848089D01*
X186489429Y-58742797D01*
X186503001Y-58546928D01*
X186547146Y-58411063D01*
X186651295Y-58244625D01*
X186726014Y-58168763D01*
X186846021Y-58107616D01*
X186996601Y-58106473D01*
X187223043Y-58180049D01*
X185547372Y-57635590D02*
X185238355Y-58586647D01*
X184876048Y-58468926D01*
X184800186Y-58394207D01*
X184769613Y-58334204D01*
X184753754Y-58228912D01*
X184797900Y-58093047D01*
X184872618Y-58017185D01*
X184932622Y-57986612D01*
X185037914Y-57970753D01*
X185400221Y-58088474D01*
X184460450Y-57282428D02*
X184536312Y-57357146D01*
X184566885Y-57417150D01*
X184582743Y-57522442D01*
X184494453Y-57794172D01*
X184419734Y-57870034D01*
X184359731Y-57900607D01*
X184254439Y-57916466D01*
X184118574Y-57872320D01*
X184042712Y-57797602D01*
X184012139Y-57737598D01*
X183996280Y-57632306D01*
X184084571Y-57360576D01*
X184159290Y-57284714D01*
X184219293Y-57254141D01*
X184324585Y-57238283D01*
X184460450Y-57282428D01*
X183620401Y-57710454D02*
X183645259Y-57017556D01*
X183316954Y-57411580D01*
X183282952Y-56899835D01*
X182895787Y-57475013D01*
X182362468Y-56650822D02*
X182467760Y-56634964D01*
X182648914Y-56693824D01*
X182724776Y-56768543D01*
X182740634Y-56873835D01*
X182622913Y-57236142D01*
X182548195Y-57312004D01*
X182442903Y-57327862D01*
X182261749Y-57269001D01*
X182185887Y-57194283D01*
X182170029Y-57088991D01*
X182199459Y-56998414D01*
X182681774Y-57054988D01*
X181924299Y-56458383D02*
X181718288Y-57092420D01*
X181777149Y-56911267D02*
X181702430Y-56987128D01*
X181642426Y-57017702D01*
X181537135Y-57033560D01*
X181446558Y-57004130D01*
%TO.C,J3*%
X149912555Y-118989126D02*
X150591881Y-119209852D01*
X150713031Y-119299286D01*
X150774178Y-119419293D01*
X150775321Y-119569873D01*
X150745891Y-119660450D01*
X150030276Y-118626819D02*
X150221572Y-118038069D01*
X150480874Y-118472809D01*
X150525019Y-118336944D01*
X150599738Y-118261082D01*
X150659741Y-118230509D01*
X150765033Y-118214650D01*
X150991475Y-118288226D01*
X151067337Y-118362944D01*
X151097910Y-118422948D01*
X151113768Y-118528240D01*
X151025478Y-118799970D01*
X150950759Y-118875832D01*
X150890756Y-118906405D01*
X135573613Y-117265405D02*
X135426462Y-117718290D01*
X134475405Y-117409273D01*
X135178446Y-116786521D02*
X135281452Y-116469502D01*
X135823770Y-116495503D02*
X135676619Y-116948387D01*
X134725562Y-116639370D01*
X134872713Y-116186486D01*
X135956205Y-116087907D02*
X135005149Y-115778890D01*
X135078724Y-115552448D01*
X135168158Y-115431298D01*
X135288165Y-115370151D01*
X135393457Y-115354293D01*
X135589326Y-115367865D01*
X135725191Y-115412010D01*
X135891629Y-115516159D01*
X135967491Y-115590878D01*
X136028638Y-115710885D01*
X136029781Y-115861465D01*
X135956205Y-116087907D01*
X136500664Y-114412236D02*
X135549607Y-114103219D01*
X135667328Y-113740912D01*
X135742047Y-113665050D01*
X135802050Y-113634477D01*
X135907342Y-113618618D01*
X136043207Y-113662764D01*
X136119069Y-113737482D01*
X136149642Y-113797486D01*
X136165501Y-113902778D01*
X136047780Y-114265085D01*
X136853826Y-113325314D02*
X136779108Y-113401176D01*
X136719104Y-113431749D01*
X136613812Y-113447607D01*
X136342082Y-113359317D01*
X136266220Y-113284598D01*
X136235647Y-113224595D01*
X136219788Y-113119303D01*
X136263934Y-112983438D01*
X136338652Y-112907576D01*
X136398656Y-112877003D01*
X136503948Y-112861144D01*
X136775678Y-112949435D01*
X136851540Y-113024154D01*
X136882113Y-113084157D01*
X136897971Y-113189449D01*
X136853826Y-113325314D01*
X136425800Y-112485265D02*
X137118698Y-112510123D01*
X136724674Y-112181818D01*
X137236419Y-112147816D01*
X136661241Y-111760651D01*
X137485432Y-111227332D02*
X137501290Y-111332624D01*
X137442430Y-111513778D01*
X137367711Y-111589640D01*
X137262419Y-111605498D01*
X136900112Y-111487777D01*
X136824250Y-111413059D01*
X136808392Y-111307767D01*
X136867253Y-111126613D01*
X136941971Y-111050751D01*
X137047263Y-111034893D01*
X137137840Y-111064323D01*
X137081266Y-111546638D01*
X137677871Y-110789163D02*
X137043834Y-110583152D01*
X137224987Y-110642013D02*
X137149126Y-110567294D01*
X137118552Y-110507290D01*
X137102694Y-110401999D01*
X137132124Y-110311422D01*
%TO.C,J11*%
X126952476Y-46950380D02*
X126952476Y-47664666D01*
X126904857Y-47807523D01*
X126809619Y-47902761D01*
X126666761Y-47950380D01*
X126571523Y-47950380D01*
X127952476Y-47950380D02*
X127381047Y-47950380D01*
X127666761Y-47950380D02*
X127666761Y-46950380D01*
X127571523Y-47093238D01*
X127476285Y-47188476D01*
X127381047Y-47236095D01*
X128904857Y-47950380D02*
X128333428Y-47950380D01*
X128619142Y-47950380D02*
X128619142Y-46950380D01*
X128523904Y-47093238D01*
X128428666Y-47188476D01*
X128333428Y-47236095D01*
%TO.C,U2*%
X137408636Y-100961295D02*
X137658793Y-100191392D01*
X137642935Y-100086100D01*
X137612361Y-100026096D01*
X137536500Y-99951378D01*
X137355346Y-99892517D01*
X137250054Y-99908376D01*
X137190051Y-99938949D01*
X137115332Y-100014811D01*
X136865176Y-100784714D01*
X136487010Y-100561701D02*
X136427007Y-100592274D01*
X136321715Y-100608132D01*
X136095273Y-100534557D01*
X136019411Y-100459838D01*
X135988838Y-100399835D01*
X135972979Y-100294543D01*
X136002410Y-100203966D01*
X136091843Y-100082816D01*
X136811885Y-99715936D01*
X136223136Y-99524640D01*
X132936808Y-99539197D02*
X133019383Y-98514565D01*
X132617503Y-99135031D01*
X132657075Y-98396845D01*
X132121616Y-99274326D01*
X131691304Y-98133116D02*
X131796596Y-98117258D01*
X131977749Y-98176118D01*
X132053611Y-98250837D01*
X132069469Y-98356129D01*
X131951749Y-98718436D01*
X131877030Y-98794298D01*
X131771738Y-98810156D01*
X131590584Y-98751295D01*
X131514723Y-98676577D01*
X131498865Y-98571285D01*
X131528295Y-98480708D01*
X132010609Y-98537282D01*
X131253135Y-97940677D02*
X130944118Y-98891733D01*
X130847826Y-98109401D01*
X130310080Y-98685722D01*
X130619097Y-97734665D01*
X130030348Y-97543369D02*
X130106210Y-97618088D01*
X130136783Y-97678091D01*
X130152641Y-97783383D01*
X130064351Y-98055114D01*
X129989632Y-98130975D01*
X129929629Y-98161549D01*
X129824337Y-98177407D01*
X129688471Y-98133262D01*
X129612610Y-98058543D01*
X129582036Y-97998539D01*
X129566178Y-97893248D01*
X129654469Y-97621517D01*
X129729187Y-97545655D01*
X129789191Y-97515082D01*
X129894483Y-97499224D01*
X130030348Y-97543369D01*
X129336307Y-97367931D02*
X129260445Y-97293212D01*
X129079291Y-97234352D01*
X128974000Y-97250210D01*
X128899281Y-97326072D01*
X128884566Y-97371360D01*
X128900424Y-97476652D01*
X128976286Y-97551371D01*
X129112151Y-97595516D01*
X129188013Y-97670235D01*
X129203871Y-97775527D01*
X129189156Y-97820815D01*
X129114437Y-97896677D01*
X129009145Y-97912535D01*
X128873280Y-97868390D01*
X128797418Y-97793671D01*
X128791703Y-97040770D02*
X128067088Y-96805328D01*
X127811216Y-96822329D02*
X127502199Y-97773386D01*
X127275757Y-97699810D01*
X127154607Y-97610377D01*
X127093460Y-97490370D01*
X127077602Y-97385078D01*
X127091174Y-97189209D01*
X127135319Y-97053344D01*
X127239468Y-96886905D01*
X127314187Y-96811044D01*
X127434194Y-96749897D01*
X127584774Y-96748754D01*
X127811216Y-96822329D01*
X126361987Y-96351446D02*
X126905448Y-96528028D01*
X126633718Y-96439737D02*
X126324701Y-97390794D01*
X126459423Y-97284358D01*
X126579430Y-97223212D01*
X126684722Y-97207354D01*
X126210264Y-96202009D02*
X125485649Y-95966568D01*
X125229777Y-95983569D02*
X125023766Y-96617607D01*
X125053196Y-96527030D02*
X124993192Y-96557603D01*
X124887900Y-96573461D01*
X124752035Y-96529316D01*
X124676173Y-96454598D01*
X124660315Y-96349306D01*
X124822181Y-95851133D01*
X124660315Y-96349306D02*
X124585597Y-96425167D01*
X124480305Y-96441026D01*
X124344440Y-96396880D01*
X124268578Y-96322162D01*
X124252720Y-96216870D01*
X124414586Y-95718697D01*
X123961702Y-95571546D02*
X123755690Y-96205584D01*
X123652685Y-96522603D02*
X123712688Y-96492030D01*
X123682115Y-96432026D01*
X123622111Y-96462599D01*
X123652685Y-96522603D01*
X123682115Y-96432026D01*
X123302806Y-96058433D02*
X123508818Y-95424395D01*
X123332236Y-95967856D02*
X123272233Y-95998430D01*
X123166941Y-96014288D01*
X123031076Y-95970143D01*
X122955214Y-95895424D01*
X122939356Y-95790132D01*
X123101222Y-95291960D01*
X122648338Y-95144809D02*
X122442327Y-95778846D01*
X122339321Y-96095865D02*
X122399324Y-96065292D01*
X122368751Y-96005288D01*
X122308748Y-96035862D01*
X122339321Y-96095865D01*
X122368751Y-96005288D01*
%TO.C,U4*%
X142160390Y-98546258D02*
X142410547Y-97776355D01*
X142394689Y-97671063D01*
X142364115Y-97611059D01*
X142288254Y-97536341D01*
X142107100Y-97477480D01*
X142001808Y-97493339D01*
X141941805Y-97523912D01*
X141867086Y-97599774D01*
X141616930Y-98369677D01*
X140859455Y-97773071D02*
X141065467Y-97139033D01*
X140968177Y-98208954D02*
X141415345Y-97603203D01*
X140826596Y-97411907D01*
X154208728Y-99981297D02*
X153899711Y-100932354D01*
X153803418Y-100150022D01*
X153265673Y-100726343D01*
X153574690Y-99775286D01*
X153121806Y-99628135D02*
X152812789Y-100579192D01*
X152450482Y-100461471D01*
X152374620Y-100386752D01*
X152344047Y-100326749D01*
X152328188Y-100221457D01*
X152372334Y-100085592D01*
X152447052Y-100009730D01*
X152507056Y-99979157D01*
X152612348Y-99963298D01*
X152974655Y-100081019D01*
X151861732Y-100270175D02*
X152111889Y-99500272D01*
X152096031Y-99394980D01*
X152065457Y-99334976D01*
X151989596Y-99260258D01*
X151808442Y-99201397D01*
X151703150Y-99217256D01*
X151643147Y-99247829D01*
X151568428Y-99323691D01*
X151318272Y-100093594D01*
X151056684Y-99357693D02*
X150332069Y-99122252D01*
X149280293Y-99431414D02*
X149461447Y-99490275D01*
X149566739Y-99474416D01*
X149626742Y-99443843D01*
X149761464Y-99337408D01*
X149865613Y-99170970D01*
X149983334Y-98808662D01*
X149967476Y-98703370D01*
X149936902Y-98643367D01*
X149861041Y-98568648D01*
X149679887Y-98509788D01*
X149574595Y-98525646D01*
X149514592Y-98556219D01*
X149439873Y-98632081D01*
X149366298Y-98858523D01*
X149382156Y-98963815D01*
X149412729Y-99023819D01*
X149488591Y-99098537D01*
X149669744Y-99157398D01*
X149775036Y-99141539D01*
X149835040Y-99110966D01*
X149909758Y-99035104D01*
X148600967Y-99210688D02*
X148510390Y-99181258D01*
X148434529Y-99106539D01*
X148403955Y-99046536D01*
X148388097Y-98941244D01*
X148401669Y-98745375D01*
X148475245Y-98518933D01*
X148579393Y-98352494D01*
X148654112Y-98276633D01*
X148714115Y-98246059D01*
X148819407Y-98230201D01*
X148909984Y-98259631D01*
X148985846Y-98334350D01*
X149016419Y-98394353D01*
X149032277Y-98499645D01*
X149018705Y-98695514D01*
X148945130Y-98921956D01*
X148840981Y-99088395D01*
X148766263Y-99164256D01*
X148706259Y-99194830D01*
X148600967Y-99210688D01*
X147423469Y-98828095D02*
X147876353Y-98975246D01*
X148068792Y-98537077D01*
X148008789Y-98567651D01*
X147903497Y-98583509D01*
X147677055Y-98509933D01*
X147601193Y-98435215D01*
X147570620Y-98375211D01*
X147554761Y-98269919D01*
X147628337Y-98043477D01*
X147703055Y-97967616D01*
X147763059Y-97937042D01*
X147868351Y-97921184D01*
X148094793Y-97994760D01*
X148170655Y-98069478D01*
X148201228Y-98129482D01*
X146789431Y-98622084D02*
X146698854Y-98592654D01*
X146622992Y-98517935D01*
X146592419Y-98457932D01*
X146576561Y-98352640D01*
X146590133Y-98156771D01*
X146663708Y-97930329D01*
X146767857Y-97763891D01*
X146842576Y-97688029D01*
X146902579Y-97657456D01*
X147007871Y-97641597D01*
X147098448Y-97671028D01*
X147174310Y-97745746D01*
X147204883Y-97805750D01*
X147220741Y-97911042D01*
X147207169Y-98106910D01*
X147133594Y-98333352D01*
X147029445Y-98499791D01*
X146954726Y-98575653D01*
X146894723Y-98606226D01*
X146789431Y-98622084D01*
X145170334Y-97595311D02*
X145049184Y-97505878D01*
X145018611Y-97445874D01*
X145002752Y-97340582D01*
X145046898Y-97204717D01*
X145121616Y-97128855D01*
X145181620Y-97098282D01*
X145286912Y-97082424D01*
X145649219Y-97200145D01*
X145340202Y-98151201D01*
X145023183Y-98048195D01*
X144947321Y-97973477D01*
X144916748Y-97913473D01*
X144900890Y-97808181D01*
X144930320Y-97717605D01*
X145005039Y-97641743D01*
X145065042Y-97611170D01*
X145170334Y-97595311D01*
X145487353Y-97698317D01*
X144562297Y-96846982D02*
X144638159Y-96921701D01*
X144668732Y-96981704D01*
X144684591Y-97086996D01*
X144596300Y-97358727D01*
X144521581Y-97434588D01*
X144461578Y-97465162D01*
X144356286Y-97481020D01*
X144220421Y-97436875D01*
X144144559Y-97362156D01*
X144113986Y-97302153D01*
X144098127Y-97196861D01*
X144186418Y-96925130D01*
X144261137Y-96849268D01*
X144321140Y-96818695D01*
X144426432Y-96802837D01*
X144562297Y-96846982D01*
X143430087Y-96479105D02*
X143268221Y-96977277D01*
X143284079Y-97082569D01*
X143359941Y-97157288D01*
X143541095Y-97216148D01*
X143646387Y-97200290D01*
X143415372Y-96524393D02*
X143520664Y-96508535D01*
X143747106Y-96582111D01*
X143822968Y-96656829D01*
X143838826Y-96762121D01*
X143809396Y-96852698D01*
X143734677Y-96928560D01*
X143629385Y-96944418D01*
X143402943Y-96870842D01*
X143297651Y-96886701D01*
X142977203Y-96331954D02*
X142771192Y-96965992D01*
X142830052Y-96784838D02*
X142755334Y-96860700D01*
X142695330Y-96891273D01*
X142590038Y-96907131D01*
X142499461Y-96877701D01*
X141980858Y-96008222D02*
X141671841Y-96959278D01*
X141966143Y-96053510D02*
X142071435Y-96037652D01*
X142252589Y-96096512D01*
X142328450Y-96171231D01*
X142359024Y-96231234D01*
X142374882Y-96336526D01*
X142286591Y-96608257D01*
X142211873Y-96684119D01*
X142151869Y-96714692D01*
X142046577Y-96730550D01*
X141865424Y-96671690D01*
X141789562Y-96596971D01*
%TO.C,R16*%
X135882142Y-81732380D02*
X135548809Y-81256190D01*
X135310714Y-81732380D02*
X135310714Y-80732380D01*
X135691666Y-80732380D01*
X135786904Y-80780000D01*
X135834523Y-80827619D01*
X135882142Y-80922857D01*
X135882142Y-81065714D01*
X135834523Y-81160952D01*
X135786904Y-81208571D01*
X135691666Y-81256190D01*
X135310714Y-81256190D01*
X136834523Y-81732380D02*
X136263095Y-81732380D01*
X136548809Y-81732380D02*
X136548809Y-80732380D01*
X136453571Y-80875238D01*
X136358333Y-80970476D01*
X136263095Y-81018095D01*
X137691666Y-80732380D02*
X137501190Y-80732380D01*
X137405952Y-80780000D01*
X137358333Y-80827619D01*
X137263095Y-80970476D01*
X137215476Y-81160952D01*
X137215476Y-81541904D01*
X137263095Y-81637142D01*
X137310714Y-81684761D01*
X137405952Y-81732380D01*
X137596428Y-81732380D01*
X137691666Y-81684761D01*
X137739285Y-81637142D01*
X137786904Y-81541904D01*
X137786904Y-81303809D01*
X137739285Y-81208571D01*
X137691666Y-81160952D01*
X137596428Y-81113333D01*
X137405952Y-81113333D01*
X137310714Y-81160952D01*
X137263095Y-81208571D01*
X137215476Y-81303809D01*
%TO.C,R14*%
X158027142Y-102687380D02*
X157693809Y-102211190D01*
X157455714Y-102687380D02*
X157455714Y-101687380D01*
X157836666Y-101687380D01*
X157931904Y-101735000D01*
X157979523Y-101782619D01*
X158027142Y-101877857D01*
X158027142Y-102020714D01*
X157979523Y-102115952D01*
X157931904Y-102163571D01*
X157836666Y-102211190D01*
X157455714Y-102211190D01*
X158979523Y-102687380D02*
X158408095Y-102687380D01*
X158693809Y-102687380D02*
X158693809Y-101687380D01*
X158598571Y-101830238D01*
X158503333Y-101925476D01*
X158408095Y-101973095D01*
X159836666Y-102020714D02*
X159836666Y-102687380D01*
X159598571Y-101639761D02*
X159360476Y-102354047D01*
X159979523Y-102354047D01*
%TO.C,R7*%
X118562380Y-59856666D02*
X118086190Y-60190000D01*
X118562380Y-60428095D02*
X117562380Y-60428095D01*
X117562380Y-60047142D01*
X117610000Y-59951904D01*
X117657619Y-59904285D01*
X117752857Y-59856666D01*
X117895714Y-59856666D01*
X117990952Y-59904285D01*
X118038571Y-59951904D01*
X118086190Y-60047142D01*
X118086190Y-60428095D01*
X117562380Y-59523333D02*
X117562380Y-58856666D01*
X118562380Y-59285238D01*
%TO.C,R17*%
X158027142Y-108402380D02*
X157693809Y-107926190D01*
X157455714Y-108402380D02*
X157455714Y-107402380D01*
X157836666Y-107402380D01*
X157931904Y-107450000D01*
X157979523Y-107497619D01*
X158027142Y-107592857D01*
X158027142Y-107735714D01*
X157979523Y-107830952D01*
X157931904Y-107878571D01*
X157836666Y-107926190D01*
X157455714Y-107926190D01*
X158979523Y-108402380D02*
X158408095Y-108402380D01*
X158693809Y-108402380D02*
X158693809Y-107402380D01*
X158598571Y-107545238D01*
X158503333Y-107640476D01*
X158408095Y-107688095D01*
X159312857Y-107402380D02*
X159979523Y-107402380D01*
X159550952Y-108402380D01*
%TO.C,R20*%
X152852380Y-107045357D02*
X152376190Y-107378690D01*
X152852380Y-107616785D02*
X151852380Y-107616785D01*
X151852380Y-107235833D01*
X151900000Y-107140595D01*
X151947619Y-107092976D01*
X152042857Y-107045357D01*
X152185714Y-107045357D01*
X152280952Y-107092976D01*
X152328571Y-107140595D01*
X152376190Y-107235833D01*
X152376190Y-107616785D01*
X151947619Y-106664404D02*
X151900000Y-106616785D01*
X151852380Y-106521547D01*
X151852380Y-106283452D01*
X151900000Y-106188214D01*
X151947619Y-106140595D01*
X152042857Y-106092976D01*
X152138095Y-106092976D01*
X152280952Y-106140595D01*
X152852380Y-106712023D01*
X152852380Y-106092976D01*
X151852380Y-105473928D02*
X151852380Y-105378690D01*
X151900000Y-105283452D01*
X151947619Y-105235833D01*
X152042857Y-105188214D01*
X152233333Y-105140595D01*
X152471428Y-105140595D01*
X152661904Y-105188214D01*
X152757142Y-105235833D01*
X152804761Y-105283452D01*
X152852380Y-105378690D01*
X152852380Y-105473928D01*
X152804761Y-105569166D01*
X152757142Y-105616785D01*
X152661904Y-105664404D01*
X152471428Y-105712023D01*
X152233333Y-105712023D01*
X152042857Y-105664404D01*
X151947619Y-105616785D01*
X151900000Y-105569166D01*
X151852380Y-105473928D01*
%TO.C,J1*%
X163835527Y-117463993D02*
X164056253Y-116784667D01*
X164145687Y-116663517D01*
X164265694Y-116602370D01*
X164416274Y-116601227D01*
X164506851Y-116630657D01*
X163193487Y-116203919D02*
X163736948Y-116380500D01*
X163465218Y-116292210D02*
X163156201Y-117243266D01*
X163290923Y-117136831D01*
X163410930Y-117075685D01*
X163516222Y-117059827D01*
X165535233Y-118264520D02*
X165988117Y-118411671D01*
X165679100Y-119362728D01*
X165056348Y-118659687D02*
X164739329Y-118556681D01*
X164765330Y-118014363D02*
X165218214Y-118161514D01*
X164909197Y-119112571D01*
X164456313Y-118965420D01*
X164357734Y-117881928D02*
X164048717Y-118832984D01*
X163822275Y-118759409D01*
X163701125Y-118669975D01*
X163639979Y-118549968D01*
X163624120Y-118444676D01*
X163637692Y-118248807D01*
X163681838Y-118112942D01*
X163785987Y-117946504D01*
X163860705Y-117870642D01*
X163980712Y-117809495D01*
X164131292Y-117808352D01*
X164357734Y-117881928D01*
X162682063Y-117337469D02*
X162373046Y-118288526D01*
X162146604Y-118214950D01*
X162025454Y-118125516D01*
X161964308Y-118005509D01*
X161948449Y-117900218D01*
X161962021Y-117704349D01*
X162006167Y-117568484D01*
X162110316Y-117402045D01*
X162185034Y-117326183D01*
X162305041Y-117265037D01*
X162455621Y-117263894D01*
X162682063Y-117337469D01*
X161323411Y-116896016D02*
X161161545Y-117394189D01*
X161177403Y-117499481D01*
X161253265Y-117574199D01*
X161434419Y-117633060D01*
X161539711Y-117617201D01*
X161308696Y-116941305D02*
X161413988Y-116925446D01*
X161640430Y-116999022D01*
X161716292Y-117073740D01*
X161732150Y-117179032D01*
X161702720Y-117269609D01*
X161628001Y-117345471D01*
X161522709Y-117361329D01*
X161296267Y-117287754D01*
X161190975Y-117303612D01*
X160800381Y-117427048D02*
X160438074Y-117309327D01*
X160561510Y-117699922D02*
X160826382Y-116884730D01*
X160810524Y-116779439D01*
X160734662Y-116704720D01*
X160644085Y-116675290D01*
X159919471Y-116439848D02*
X159757605Y-116938021D01*
X159773463Y-117043313D01*
X159849325Y-117118031D01*
X160030478Y-117176892D01*
X160135770Y-117161033D01*
X159904756Y-116485137D02*
X160010048Y-116469278D01*
X160236490Y-116542854D01*
X160312351Y-116617573D01*
X160328210Y-116722864D01*
X160298779Y-116813441D01*
X160224061Y-116889303D01*
X160118769Y-116905161D01*
X159892327Y-116831586D01*
X159787035Y-116847444D01*
%TO.C,J10*%
X181054476Y-50252380D02*
X181054476Y-50966666D01*
X181006857Y-51109523D01*
X180911619Y-51204761D01*
X180768761Y-51252380D01*
X180673523Y-51252380D01*
X182054476Y-51252380D02*
X181483047Y-51252380D01*
X181768761Y-51252380D02*
X181768761Y-50252380D01*
X181673523Y-50395238D01*
X181578285Y-50490476D01*
X181483047Y-50538095D01*
X182673523Y-50252380D02*
X182768761Y-50252380D01*
X182864000Y-50300000D01*
X182911619Y-50347619D01*
X182959238Y-50442857D01*
X183006857Y-50633333D01*
X183006857Y-50871428D01*
X182959238Y-51061904D01*
X182911619Y-51157142D01*
X182864000Y-51204761D01*
X182768761Y-51252380D01*
X182673523Y-51252380D01*
X182578285Y-51204761D01*
X182530666Y-51157142D01*
X182483047Y-51061904D01*
X182435428Y-50871428D01*
X182435428Y-50633333D01*
X182483047Y-50442857D01*
X182530666Y-50347619D01*
X182578285Y-50300000D01*
X182673523Y-50252380D01*
%TO.C,R13*%
X158027142Y-104592380D02*
X157693809Y-104116190D01*
X157455714Y-104592380D02*
X157455714Y-103592380D01*
X157836666Y-103592380D01*
X157931904Y-103640000D01*
X157979523Y-103687619D01*
X158027142Y-103782857D01*
X158027142Y-103925714D01*
X157979523Y-104020952D01*
X157931904Y-104068571D01*
X157836666Y-104116190D01*
X157455714Y-104116190D01*
X158979523Y-104592380D02*
X158408095Y-104592380D01*
X158693809Y-104592380D02*
X158693809Y-103592380D01*
X158598571Y-103735238D01*
X158503333Y-103830476D01*
X158408095Y-103878095D01*
X159312857Y-103592380D02*
X159931904Y-103592380D01*
X159598571Y-103973333D01*
X159741428Y-103973333D01*
X159836666Y-104020952D01*
X159884285Y-104068571D01*
X159931904Y-104163809D01*
X159931904Y-104401904D01*
X159884285Y-104497142D01*
X159836666Y-104544761D01*
X159741428Y-104592380D01*
X159455714Y-104592380D01*
X159360476Y-104544761D01*
X159312857Y-104497142D01*
%TO.C,R18*%
X158107142Y-106497380D02*
X157773809Y-106021190D01*
X157535714Y-106497380D02*
X157535714Y-105497380D01*
X157916666Y-105497380D01*
X158011904Y-105545000D01*
X158059523Y-105592619D01*
X158107142Y-105687857D01*
X158107142Y-105830714D01*
X158059523Y-105925952D01*
X158011904Y-105973571D01*
X157916666Y-106021190D01*
X157535714Y-106021190D01*
X159059523Y-106497380D02*
X158488095Y-106497380D01*
X158773809Y-106497380D02*
X158773809Y-105497380D01*
X158678571Y-105640238D01*
X158583333Y-105735476D01*
X158488095Y-105783095D01*
X159630952Y-105925952D02*
X159535714Y-105878333D01*
X159488095Y-105830714D01*
X159440476Y-105735476D01*
X159440476Y-105687857D01*
X159488095Y-105592619D01*
X159535714Y-105545000D01*
X159630952Y-105497380D01*
X159821428Y-105497380D01*
X159916666Y-105545000D01*
X159964285Y-105592619D01*
X160011904Y-105687857D01*
X160011904Y-105735476D01*
X159964285Y-105830714D01*
X159916666Y-105878333D01*
X159821428Y-105925952D01*
X159630952Y-105925952D01*
X159535714Y-105973571D01*
X159488095Y-106021190D01*
X159440476Y-106116428D01*
X159440476Y-106306904D01*
X159488095Y-106402142D01*
X159535714Y-106449761D01*
X159630952Y-106497380D01*
X159821428Y-106497380D01*
X159916666Y-106449761D01*
X159964285Y-106402142D01*
X160011904Y-106306904D01*
X160011904Y-106116428D01*
X159964285Y-106021190D01*
X159916666Y-105973571D01*
X159821428Y-105925952D01*
D11*
%TO.C,R6*%
X119492500Y-62252776D02*
X119492500Y-62762224D01*
X120537500Y-62252776D02*
X120537500Y-62762224D01*
%TO.C,R15*%
X139445276Y-79897500D02*
X139954724Y-79897500D01*
X139445276Y-78852500D02*
X139954724Y-78852500D01*
%TO.C,R21*%
X149972500Y-103402224D02*
X149972500Y-102892776D01*
X151017500Y-103402224D02*
X151017500Y-102892776D01*
%TO.C,U1*%
X176251293Y-99534061D02*
X175870871Y-99410454D01*
X166645623Y-96412989D02*
X166265200Y-96289383D01*
X147244070Y-90109043D02*
X146863647Y-89985436D01*
X189968680Y-81910403D02*
X189588257Y-81786796D01*
X190802458Y-104262021D02*
X190422035Y-104138414D01*
X158583815Y-71712842D02*
X158203392Y-71589236D01*
X173134979Y-76440802D02*
X172754557Y-76317196D01*
X196108669Y-87067154D02*
X198645137Y-87891302D01*
X197291815Y-84289834D02*
X196911392Y-84166227D01*
X156206173Y-70940300D02*
X155825751Y-70816693D01*
X159322487Y-94033558D02*
X158942065Y-93909952D01*
X154472099Y-92457572D02*
X154091677Y-92333965D01*
X153733427Y-70136856D02*
X153353004Y-70013249D01*
X180363009Y-78789332D02*
X179982586Y-78665725D01*
X168284591Y-74864816D02*
X167904169Y-74741209D01*
X192441427Y-82713847D02*
X192061004Y-82590241D01*
X188329711Y-103458577D02*
X187949289Y-103334970D01*
X187591039Y-81137861D02*
X187210616Y-81014254D01*
X193084994Y-105003662D02*
X192799677Y-104910957D01*
X144581111Y-89243795D02*
X146682427Y-82776611D01*
X149716817Y-90912487D02*
X149336394Y-90788880D01*
X175512621Y-77213345D02*
X175132198Y-77089738D01*
X197037883Y-84207327D02*
X196108669Y-87067154D01*
X178724040Y-100337505D02*
X178343618Y-100213898D01*
X182740650Y-79561874D02*
X182360228Y-79438267D01*
X177890262Y-77985887D02*
X177509839Y-77862281D01*
X147485871Y-80303864D02*
X147362264Y-80684286D01*
X199574351Y-85031475D02*
X193084994Y-105003662D01*
X169023264Y-97185532D02*
X168642841Y-97061925D01*
X163434203Y-73288829D02*
X163053780Y-73165222D01*
X199574351Y-85031475D02*
X199289034Y-84938770D01*
X183479323Y-101882590D02*
X183098900Y-101758983D01*
X185213397Y-80365318D02*
X184832975Y-80241712D01*
X148969153Y-75738793D02*
X151070468Y-69271608D01*
X148289315Y-77831117D02*
X148165709Y-78211539D01*
X185952070Y-102686034D02*
X185571647Y-102562428D01*
X181101682Y-101110048D02*
X180721259Y-100986441D01*
X161795234Y-94837003D02*
X161414812Y-94713396D01*
X173873652Y-98761518D02*
X173493229Y-98637912D01*
X160961456Y-72485385D02*
X160581033Y-72361778D01*
X194819068Y-83486390D02*
X194438645Y-83362783D01*
X170662233Y-75637358D02*
X170281810Y-75513752D01*
X171400905Y-97958074D02*
X171020483Y-97834468D01*
X152094458Y-91685029D02*
X151714035Y-91561423D01*
X164172876Y-95609545D02*
X163792453Y-95485938D01*
X156944846Y-93261016D02*
X156564423Y-93137409D01*
X165811844Y-74061372D02*
X165431422Y-73937765D01*
%TO.C,U3*%
X168596897Y-50620550D02*
X168564604Y-50610058D01*
X147115273Y-59481420D02*
X148546022Y-55078029D01*
X136809109Y-40069903D02*
X138045483Y-40471625D01*
X136883153Y-39825839D02*
X130254739Y-60226001D01*
X143388979Y-53402404D02*
X152904178Y-56494080D01*
X144558049Y-63893694D02*
X141134246Y-62781233D01*
X145197012Y-63707007D02*
X144769036Y-63567949D01*
X130254739Y-60226001D02*
X171863461Y-73745495D01*
X145309816Y-61903600D02*
X145737791Y-62042658D01*
X144567112Y-61373129D02*
X143856373Y-63560559D01*
X171863461Y-73745495D02*
X178491876Y-53345332D01*
X140727046Y-62254627D02*
X141267826Y-60590278D01*
X166031870Y-57625249D02*
X156806622Y-54627784D01*
X146228951Y-44410866D02*
X147888099Y-44644045D01*
X153001914Y-56444280D02*
X155891685Y-47550479D01*
X147888099Y-44644045D02*
X154412347Y-46763902D01*
X178491876Y-53345332D02*
X136883153Y-39825839D01*
X158847421Y-52658542D02*
X160361604Y-47998366D01*
X146316386Y-59221846D02*
X147115273Y-59481420D01*
X150348865Y-60532078D02*
X151779614Y-56128687D01*
X141155022Y-62393685D02*
X140727046Y-62254627D01*
X147933182Y-59747175D02*
X149363930Y-55343783D01*
X168517642Y-50594799D02*
X168474966Y-50580933D01*
X173602311Y-53034454D02*
X173107884Y-54556144D01*
X160955450Y-49525209D02*
X160968734Y-49562535D01*
X145737791Y-62042658D02*
X145197012Y-63707007D01*
X143082794Y-58171188D02*
X144513542Y-53767797D01*
X144699590Y-58696517D02*
X145498477Y-58956092D01*
X135834161Y-43070487D02*
X138809422Y-44042465D01*
X168960699Y-72534207D02*
X171923240Y-73496795D01*
X152904178Y-56494080D02*
X153001914Y-56444280D01*
X172347039Y-54308930D02*
X172841466Y-52787241D01*
X154916511Y-55590843D02*
X151919047Y-64816091D01*
X174455021Y-55624422D02*
X175431514Y-52619084D01*
X143082794Y-58171188D02*
X143881681Y-58430763D01*
X149549978Y-60272504D02*
X150980727Y-55869112D01*
X143881681Y-58430763D02*
X145312430Y-54027371D01*
X145237691Y-62128814D02*
X145266909Y-62038890D01*
X173602311Y-53034454D02*
X172841466Y-52787241D01*
X173107884Y-54556144D02*
X172347039Y-54308930D01*
X160949635Y-49582615D02*
X160928001Y-49570085D01*
X155647852Y-48300920D02*
X145985118Y-45161307D01*
X162945468Y-50204815D02*
X160968734Y-49562535D01*
X141070042Y-62655225D02*
X141780781Y-60467795D01*
X144699590Y-58696517D02*
X146130338Y-54293126D01*
X147933182Y-59747175D02*
X148732069Y-60006749D01*
X169872169Y-51088536D02*
X168357986Y-55748712D01*
X160814226Y-50038063D02*
X162790960Y-50680342D01*
X154412347Y-46763902D02*
X155891685Y-47550479D01*
X152882106Y-66706202D02*
X162107354Y-69703667D01*
X163997464Y-68740607D02*
X166994929Y-59515359D01*
X141906788Y-60403591D02*
X145330592Y-61516053D01*
X169937192Y-69528868D02*
X172899733Y-70491456D01*
X173206770Y-54251806D02*
X172445925Y-54004592D01*
X145498477Y-58956092D02*
X146929226Y-54552700D01*
X149549978Y-60272504D02*
X150348865Y-60532078D01*
X138905218Y-43747638D02*
X138809422Y-44042465D01*
X175431514Y-52619084D02*
X178394055Y-53581671D01*
X160949635Y-49582615D02*
X160966101Y-49555140D01*
X134291594Y-57946911D02*
X133315100Y-60952250D01*
X146316386Y-59221846D02*
X147747134Y-54818454D01*
X143339180Y-53304668D02*
X146228951Y-44410866D01*
X145394796Y-61642060D02*
X144684057Y-63829490D01*
X168294982Y-55780814D02*
X158879523Y-52721546D01*
X160949635Y-49582615D02*
X160968734Y-49562535D01*
X160424607Y-47966264D02*
X169840067Y-51025532D01*
X141267826Y-60590278D02*
X141695801Y-60729336D01*
X172742581Y-53091579D02*
X173503426Y-53338792D01*
X174455021Y-55624422D02*
X177460359Y-56600916D01*
X143339180Y-53304668D02*
X143388979Y-53402404D01*
X130338293Y-59985027D02*
X133315100Y-60952250D01*
X148732069Y-60006749D02*
X150162818Y-55603358D01*
X145805716Y-45710213D02*
X145755798Y-45863845D01*
X131314787Y-56979688D02*
X134291594Y-57946911D01*
X168960699Y-72534207D02*
X169937192Y-69528868D01*
X163699575Y-58284623D02*
G75*
G03*
X158305918Y-56532118I-4242586J-3881102D01*
G01*
X158188843Y-56458238D02*
G75*
G03*
X155584929Y-57785000I-1455799J-361449D01*
G01*
X145394796Y-61642060D02*
G75*
G03*
X145330592Y-61516053I-95105J30902D01*
G01*
X163338089Y-66408312D02*
G75*
G03*
X165090595Y-61014655I-3881100J4242586D01*
G01*
X155214400Y-66046828D02*
G75*
G03*
X160608058Y-67799334I4242588J3881103D01*
G01*
X155575886Y-57923139D02*
G75*
G03*
X153823380Y-63316796I3881101J-4242587D01*
G01*
X160424607Y-47966264D02*
G75*
G03*
X160361604Y-47998366I-15451J-47552D01*
G01*
X166994930Y-59515359D02*
G75*
G03*
X166031870Y-57625249I-1426584J463526D01*
G01*
X163699575Y-58284623D02*
G75*
G03*
X163837714Y-58293667I73784J67497D01*
G01*
X162107354Y-69703666D02*
G75*
G03*
X163997464Y-68740607I463525J1426585D01*
G01*
X169872169Y-51088536D02*
G75*
G03*
X169840067Y-51025532I-47554J15450D01*
G01*
X158188845Y-56458238D02*
G75*
G03*
X158305917Y-56532117I97053J24096D01*
G01*
X165164475Y-60897584D02*
G75*
G03*
X163837714Y-58293667I-361448J1455801D01*
G01*
X160781538Y-50060454D02*
G75*
G03*
X160785711Y-50008013I1098307J-60995D01*
G01*
X151919047Y-64816091D02*
G75*
G03*
X152882106Y-66706202I1426583J-463527D01*
G01*
X153749501Y-63433868D02*
G75*
G03*
X153823379Y-63316795I-24099J97054D01*
G01*
X160725130Y-67873213D02*
G75*
G03*
X160608058Y-67799334I-97053J-24096D01*
G01*
X141070042Y-62655225D02*
G75*
G03*
X141134246Y-62781233I95108J-30901D01*
G01*
X163338090Y-66408313D02*
G75*
G03*
X163329047Y-66546452I67496J-73784D01*
G01*
X153749501Y-63433868D02*
G75*
G03*
X155076262Y-66037784I361447J-1455801D01*
G01*
X156806622Y-54627783D02*
G75*
G03*
X154916511Y-55590843I-463525J-1426587D01*
G01*
X160725130Y-67873213D02*
G75*
G03*
X163329046Y-66546451I1455801J361448D01*
G01*
X155575886Y-57923138D02*
G75*
G03*
X155584929Y-57784999I-67496J73784D01*
G01*
X155214400Y-66046828D02*
G75*
G03*
X155076262Y-66037784I-73784J-67497D01*
G01*
X165164475Y-60897583D02*
G75*
G03*
X165090596Y-61014657I24099J-97055D01*
G01*
X158847421Y-52658542D02*
G75*
G03*
X158879523Y-52721546I47554J-15450D01*
G01*
X144558049Y-63893693D02*
G75*
G03*
X144684057Y-63829490I30903J95104D01*
G01*
X168294982Y-55780814D02*
G75*
G03*
X168357986Y-55748712I15450J47554D01*
G01*
X141906788Y-60403591D02*
G75*
G03*
X141780781Y-60467795I-30901J-95107D01*
G01*
X141544135Y-51388425D02*
G75*
G03*
X141544135Y-51388425I-4000000J0D01*
G01*
X175041201Y-62795686D02*
G75*
G03*
X175041201Y-62795686I-4000000J0D01*
G01*
X167915474Y-69346057D02*
G75*
G03*
X167915474Y-69346057I-1599001J0D01*
G01*
X164706988Y-62165725D02*
G75*
G03*
X164706988Y-62165725I-5250000J0D01*
G01*
X144029141Y-44225276D02*
G75*
G03*
X144029141Y-44225276I-1599000J0D01*
G01*
X144849832Y-52796205D02*
G75*
G03*
X144849832Y-52796205I-375000J0D01*
G01*
%TO.C,J2*%
X187168727Y-60288858D02*
X187344867Y-59746756D01*
X179083621Y-68344704D02*
X179398818Y-67374626D01*
X183383269Y-71939300D02*
X178437775Y-70332412D01*
X187344867Y-59746756D02*
X182399373Y-58139868D01*
X182223233Y-58681970D02*
X182399373Y-58139868D01*
X180653427Y-63513337D02*
X180968624Y-62543259D01*
X178437775Y-70332412D02*
X178613915Y-69790310D01*
X184814018Y-67535909D02*
X185129215Y-66565831D01*
X185598921Y-65120225D02*
X185914118Y-64150148D01*
X179868524Y-65929020D02*
X180183721Y-64958943D01*
X181438330Y-61097653D02*
X181753527Y-60127576D01*
X186383824Y-62704542D02*
X186699021Y-61734464D01*
X184928930Y-71842183D02*
X183559409Y-71397198D01*
X184029115Y-69951592D02*
X184344312Y-68981515D01*
X183383269Y-71939300D02*
X183559409Y-71397198D01*
%TO.C,J3*%
X144378485Y-119574312D02*
X143408408Y-119259115D01*
X138196221Y-112097969D02*
X136589333Y-117043463D01*
X141962802Y-118789409D02*
X140992724Y-118474212D01*
X148781877Y-121005061D02*
X148239775Y-120828921D01*
X141154007Y-113059012D02*
X140183929Y-112743815D01*
X150388765Y-116059567D02*
X148781877Y-121005061D01*
X146794169Y-120359215D02*
X145824091Y-120044018D01*
X138738323Y-112274109D02*
X138196221Y-112097969D01*
X139547118Y-118004506D02*
X138577041Y-117689309D01*
X145985374Y-114628818D02*
X145015296Y-114313621D01*
X150291648Y-114513906D02*
X149846663Y-115883427D01*
X137131435Y-117219603D02*
X136589333Y-117043463D01*
X143569690Y-113843915D02*
X142599613Y-113528718D01*
X148401057Y-115413721D02*
X147430980Y-115098524D01*
X150388765Y-116059567D02*
X149846663Y-115883427D01*
%TO.C,J11*%
X133545000Y-46355000D02*
G75*
G03*
X133545000Y-46355000I-2100000J0D01*
G01*
%TO.C,U2*%
X117191036Y-92891111D02*
X139369674Y-100097387D01*
X119323253Y-86328821D02*
X117191036Y-92891111D01*
X116907570Y-85543918D02*
X119323253Y-86328821D01*
X116907570Y-85543918D02*
X124765872Y-61358551D01*
X139369674Y-100097387D02*
X149360193Y-69349730D01*
X148002160Y-66668864D02*
X127449828Y-59991006D01*
X127449828Y-59991007D02*
G75*
G03*
X124765872Y-61358551I-658205J-2025752D01*
G01*
X149360193Y-69349730D02*
G75*
G03*
X147992649Y-66665773I-2025753J658205D01*
G01*
D10*
X122054003Y-66339313D02*
X121661552Y-67547155D01*
X121661552Y-67547155D02*
X122461698Y-67139460D01*
X122461698Y-67139460D02*
X122054003Y-66339313D01*
G36*
X122461698Y-67139460D02*
G01*
X121661552Y-67547155D01*
X122054003Y-66339313D01*
X122461698Y-67139460D01*
G37*
X122461698Y-67139460D02*
X121661552Y-67547155D01*
X122054003Y-66339313D01*
X122461698Y-67139460D01*
D12*
%TO.C,U4*%
X157373957Y-114358131D02*
X137401771Y-107868774D01*
X162318229Y-99141226D02*
X157373957Y-114358131D01*
X142346043Y-92651869D02*
X162318229Y-99141226D01*
X137401771Y-107868774D02*
X142346043Y-92651869D01*
D11*
%TO.C,R16*%
X139445276Y-81802500D02*
X139954724Y-81802500D01*
X139445276Y-80757500D02*
X139954724Y-80757500D01*
%TO.C,R14*%
X155472224Y-102757500D02*
X154962776Y-102757500D01*
X155472224Y-101712500D02*
X154962776Y-101712500D01*
%TO.C,R7*%
X118632500Y-62252776D02*
X118632500Y-62762224D01*
X117587500Y-62252776D02*
X117587500Y-62762224D01*
%TO.C,R17*%
X154962776Y-108472500D02*
X155472224Y-108472500D01*
X154962776Y-107427500D02*
X155472224Y-107427500D01*
%TO.C,R20*%
X151877500Y-103482224D02*
X151877500Y-102972776D01*
X152922500Y-103482224D02*
X152922500Y-102972776D01*
%TO.C,J1*%
X165309461Y-103435228D02*
X165624658Y-102465150D01*
X167900245Y-112289167D02*
X168215442Y-111319089D01*
X168015157Y-116595440D02*
X166645636Y-116150456D01*
X167115342Y-114704850D02*
X167430539Y-113734772D01*
X171039858Y-102626432D02*
X171215997Y-102084330D01*
X166094364Y-101019544D02*
X166270504Y-100477442D01*
X162954751Y-110682278D02*
X163269949Y-109712201D01*
X168685148Y-109873483D02*
X169000346Y-108903405D01*
X166469496Y-116692558D02*
X166645636Y-116150456D01*
X162169848Y-113097962D02*
X162485045Y-112127884D01*
X163739654Y-108266595D02*
X164054852Y-107296517D01*
X170254955Y-105042116D02*
X170570152Y-104072038D01*
X171215997Y-102084330D02*
X166270504Y-100477442D01*
X164524558Y-105850911D02*
X164839755Y-104880833D01*
X169470051Y-107457799D02*
X169785249Y-106487722D01*
X166469496Y-116692558D02*
X161524003Y-115085670D01*
X161524003Y-115085670D02*
X161700142Y-114543568D01*
%TO.C,J10*%
X180535000Y-48895000D02*
G75*
G03*
X180535000Y-48895000I-2100000J0D01*
G01*
%TO.C,R13*%
X154962776Y-103617500D02*
X155472224Y-103617500D01*
X154962776Y-104662500D02*
X155472224Y-104662500D01*
%TO.C,R18*%
X154962776Y-105522500D02*
X155472224Y-105522500D01*
X154962776Y-106567500D02*
X155472224Y-106567500D01*
%TD*%
M02*
