%TF.GenerationSoftware,KiCad,Pcbnew,(6.0.2)*%
%TF.CreationDate,2022-05-01T12:50:51-07:00*%
%TF.ProjectId,controller,636f6e74-726f-46c6-9c65-722e6b696361,rev?*%
%TF.SameCoordinates,Original*%
%TF.FileFunction,Soldermask,Top*%
%TF.FilePolarity,Negative*%
%FSLAX46Y46*%
G04 Gerber Fmt 4.6, Leading zero omitted, Abs format (unit mm)*
G04 Created by KiCad (PCBNEW (6.0.2)) date 2022-05-01 12:50:51*
%MOMM*%
%LPD*%
G01*
G04 APERTURE LIST*
G04 Aperture macros list*
%AMRoundRect*
0 Rectangle with rounded corners*
0 $1 Rounding radius*
0 $2 $3 $4 $5 $6 $7 $8 $9 X,Y pos of 4 corners*
0 Add a 4 corners polygon primitive as box body*
4,1,4,$2,$3,$4,$5,$6,$7,$8,$9,$2,$3,0*
0 Add four circle primitives for the rounded corners*
1,1,$1+$1,$2,$3*
1,1,$1+$1,$4,$5*
1,1,$1+$1,$6,$7*
1,1,$1+$1,$8,$9*
0 Add four rect primitives between the rounded corners*
20,1,$1+$1,$2,$3,$4,$5,0*
20,1,$1+$1,$4,$5,$6,$7,0*
20,1,$1+$1,$6,$7,$8,$9,0*
20,1,$1+$1,$8,$9,$2,$3,0*%
%AMHorizOval*
0 Thick line with rounded ends*
0 $1 width*
0 $2 $3 position (X,Y) of the first rounded end (center of the circle)*
0 $4 $5 position (X,Y) of the second rounded end (center of the circle)*
0 Add line between two ends*
20,1,$1,$2,$3,$4,$5,0*
0 Add two circle primitives to create the rounded ends*
1,1,$1,$2,$3*
1,1,$1,$4,$5*%
%AMRotRect*
0 Rectangle, with rotation*
0 The origin of the aperture is its center*
0 $1 length*
0 $2 width*
0 $3 Rotation angle, in degrees counterclockwise*
0 Add horizontal line*
21,1,$1,$2,0,0,$3*%
G04 Aperture macros list end*
%ADD10RoundRect,0.237500X-0.237500X0.250000X-0.237500X-0.250000X0.237500X-0.250000X0.237500X0.250000X0*%
%ADD11RoundRect,0.237500X-0.250000X-0.237500X0.250000X-0.237500X0.250000X0.237500X-0.250000X0.237500X0*%
%ADD12RoundRect,0.237500X0.237500X-0.250000X0.237500X0.250000X-0.237500X0.250000X-0.237500X-0.250000X0*%
%ADD13HorizOval,1.500000X0.000000X0.000000X0.000000X0.000000X0*%
%ADD14HorizOval,1.800000X0.000000X0.000000X0.000000X0.000000X0*%
%ADD15HorizOval,1.700000X0.000000X0.000000X0.000000X0.000000X0*%
%ADD16RotRect,3.500000X1.700000X252.000000*%
%ADD17RotRect,1.700000X1.700000X252.000000*%
%ADD18RotRect,3.500000X1.700000X342.000000*%
%ADD19RotRect,2.540000X2.540000X342.000000*%
%ADD20C,2.540000*%
%ADD21RotRect,3.150000X1.000000X162.000000*%
%ADD22RotRect,3.150000X1.000000X252.000000*%
%ADD23C,3.600000*%
%ADD24RotRect,2.000000X2.000000X342.000000*%
%ADD25HorizOval,1.600000X0.190211X-0.061803X-0.190211X0.061803X0*%
%ADD26C,1.800000*%
%ADD27RoundRect,0.237500X0.250000X0.237500X-0.250000X0.237500X-0.250000X-0.237500X0.250000X-0.237500X0*%
%ADD28C,3.000000*%
%ADD29C,1.700000*%
%ADD30R,1.700000X1.700000*%
%ADD31O,1.700000X1.700000*%
G04 APERTURE END LIST*
D10*
%TO.C,R6*%
X120015000Y-61595000D03*
X120015000Y-63420000D03*
%TD*%
D11*
%TO.C,R15*%
X138787500Y-79375000D03*
X140612500Y-79375000D03*
%TD*%
D12*
%TO.C,R21*%
X150495000Y-104060000D03*
X150495000Y-102235000D03*
%TD*%
D13*
%TO.C,U1*%
X192770752Y-91311409D03*
D14*
X195745159Y-91962414D03*
D13*
X191272020Y-95924033D03*
D14*
X194061016Y-97145672D03*
D15*
X197773886Y-86139323D03*
D16*
X198052001Y-85283372D03*
X195636317Y-84498468D03*
D15*
X195358202Y-85354419D03*
D17*
X192942519Y-84569516D03*
D16*
X193220634Y-83713565D03*
D15*
X190526835Y-83784613D03*
D16*
X190804950Y-82928662D03*
X188389267Y-82143759D03*
D15*
X188111152Y-82999710D03*
X185695468Y-82214807D03*
D16*
X185973583Y-81358856D03*
D15*
X183279785Y-81429904D03*
D16*
X183557900Y-80573953D03*
D17*
X180864101Y-80645000D03*
D16*
X181142216Y-79789049D03*
X178726532Y-79004146D03*
D15*
X178448417Y-79860097D03*
D16*
X176310849Y-78219243D03*
D15*
X176032734Y-79075194D03*
D16*
X173895165Y-77434340D03*
D15*
X173617050Y-78290291D03*
D16*
X171479482Y-76649437D03*
D15*
X171201367Y-77505388D03*
D16*
X169063798Y-75864534D03*
D17*
X168785683Y-76720485D03*
D15*
X166370000Y-75935581D03*
D16*
X166648115Y-75079630D03*
D15*
X163954316Y-75150678D03*
D16*
X164232431Y-74294727D03*
D15*
X161538633Y-74365775D03*
D16*
X161816748Y-73509824D03*
X159401064Y-72724921D03*
D15*
X159122949Y-73580872D03*
D16*
X156985380Y-71940018D03*
D17*
X156707265Y-72795969D03*
D15*
X154291582Y-72011066D03*
D16*
X154569697Y-71155115D03*
X152154013Y-70370211D03*
D15*
X151875898Y-71226162D03*
D16*
X146103461Y-88991898D03*
D15*
X146381576Y-88135947D03*
X148797260Y-88920851D03*
D16*
X148519145Y-89776802D03*
X150934828Y-90561705D03*
D17*
X151212943Y-89705754D03*
D15*
X153628627Y-90490657D03*
D16*
X153350512Y-91346608D03*
D15*
X156044310Y-91275560D03*
D16*
X155766195Y-92131511D03*
X158181879Y-92916414D03*
D15*
X158459994Y-92060463D03*
D16*
X160597562Y-93701317D03*
D15*
X160875677Y-92845366D03*
D16*
X163013246Y-94486221D03*
D17*
X163291361Y-93630270D03*
D15*
X165707045Y-94415173D03*
D16*
X165428930Y-95271124D03*
X167844613Y-96056027D03*
D15*
X168122728Y-95200076D03*
X170538412Y-95984979D03*
D16*
X170260297Y-96840930D03*
X172675980Y-97625833D03*
D15*
X172954095Y-96769882D03*
D16*
X175091664Y-98410736D03*
D17*
X175369779Y-97554785D03*
D15*
X177785462Y-98339689D03*
D16*
X177507347Y-99195640D03*
X179923031Y-99980543D03*
D15*
X180201146Y-99124592D03*
X182616829Y-99909495D03*
D16*
X182338714Y-100765446D03*
X184754398Y-101550349D03*
D15*
X185032513Y-100694398D03*
D17*
X187448197Y-101479301D03*
D16*
X187170082Y-102335252D03*
X189585765Y-103120155D03*
D15*
X189863880Y-102264204D03*
X192279564Y-103049108D03*
D16*
X192001449Y-103905059D03*
D15*
X150132383Y-77336445D03*
D18*
X149276432Y-77058330D03*
D17*
X149347480Y-79752129D03*
D18*
X148491529Y-79474014D03*
X147706626Y-81889697D03*
D15*
X148562577Y-82167812D03*
%TD*%
D19*
%TO.C,U3*%
X137795000Y-42051549D03*
D20*
X132300678Y-58961334D03*
X170951615Y-71519785D03*
X176445937Y-54610000D03*
%TD*%
D21*
%TO.C,J2*%
X183722932Y-70651219D03*
X178920097Y-69090683D03*
X184507836Y-68235535D03*
X179705000Y-66675000D03*
X185292739Y-65819852D03*
X180489903Y-64259316D03*
X186077642Y-63404168D03*
X181274806Y-61843633D03*
X186862545Y-60988485D03*
X182059710Y-59427949D03*
%TD*%
D22*
%TO.C,J3*%
X149100684Y-115719904D03*
X147540148Y-120522739D03*
X146685000Y-114935000D03*
X145124465Y-119737836D03*
X144269317Y-114150097D03*
X142708781Y-118952933D03*
X141853633Y-113365194D03*
X140293098Y-118168030D03*
X139437950Y-112580291D03*
X137877414Y-117383126D03*
%TD*%
D23*
%TO.C,J11*%
X131445000Y-46355000D03*
%TD*%
D24*
%TO.C,U2*%
X124273461Y-67728137D03*
D25*
X123488558Y-70143821D03*
X122703655Y-72559504D03*
X121918752Y-74975188D03*
X121133848Y-77390871D03*
X120348945Y-79806555D03*
X119564042Y-82222238D03*
X118779139Y-84637922D03*
X140520291Y-91702050D03*
X141305194Y-89286367D03*
X142090097Y-86870683D03*
X142875000Y-84455000D03*
X143659903Y-82039316D03*
X144444807Y-79623633D03*
X145229710Y-77207949D03*
X146014613Y-74792265D03*
%TD*%
D26*
%TO.C,U4*%
X160230798Y-100355611D03*
X157815114Y-99570708D03*
X155399431Y-98785804D03*
X152983747Y-98000901D03*
X150568064Y-97215998D03*
X148152380Y-96431095D03*
X145736696Y-95646192D03*
X143321013Y-94861289D03*
%TD*%
D11*
%TO.C,R16*%
X138787500Y-81280000D03*
X140612500Y-81280000D03*
%TD*%
D27*
%TO.C,R14*%
X156130000Y-102235000D03*
X154305000Y-102235000D03*
%TD*%
D10*
%TO.C,R7*%
X118110000Y-61595000D03*
X118110000Y-63420000D03*
%TD*%
D11*
%TO.C,R17*%
X154305000Y-107950000D03*
X156130000Y-107950000D03*
%TD*%
D12*
%TO.C,R20*%
X152400000Y-104140000D03*
X152400000Y-102315000D03*
%TD*%
D21*
%TO.C,J1*%
X166809160Y-115404477D03*
X162006324Y-113843941D03*
X167594063Y-112988793D03*
X162791228Y-111428257D03*
X168378966Y-110573110D03*
X163576131Y-109012574D03*
X169163869Y-108157426D03*
X164361034Y-106596890D03*
X169948772Y-105741743D03*
X165145937Y-104181207D03*
X170733676Y-103326059D03*
X165930840Y-101765523D03*
%TD*%
D23*
%TO.C,J10*%
X178435000Y-48895000D03*
%TD*%
D11*
%TO.C,R13*%
X154305000Y-104140000D03*
X156130000Y-104140000D03*
%TD*%
%TO.C,R18*%
X154305000Y-106045000D03*
X156130000Y-106045000D03*
%TD*%
D28*
%TO.C,BT1*%
X153930000Y-57340000D03*
X153930000Y-112840000D03*
D29*
X171280000Y-121140000D03*
%TD*%
D30*
%TO.C,JP1*%
X128270000Y-102235000D03*
D31*
X130810000Y-102235000D03*
%TD*%
M02*
